<?xml version="1.0" encoding="us-ascii" standalone="no"?><svg xmlns="http://www.w3.org/2000/svg" xmlns:xlink="http://www.w3.org/1999/xlink" contentStyleType="text/css" height="566px" preserveAspectRatio="none" style="width:365px;height:566px;background:#FFFFFF;" version="1.1" viewBox="0 0 365 566" width="365px" zoomAndPan="magnify"><defs/><g><!--class Book--><g id="elem_Book"><rect codeLine="6" fill="#F1F1F1" height="159.4754" id="Book" rx="2.5" ry="2.5" style="stroke:#181818;stroke-width:0.5;" width="351" x="7" y="400.4"/><text fill="#000000" font-family="sans-serif" font-size="14" lengthAdjust="spacing" textLength="32" x="166.5" y="420.3659">Book</text><line style="stroke:#181818;stroke-width:0.5;" x1="8" x2="357" y1="429.4679" y2="429.4679"/><text fill="#000000" font-family="sans-serif" font-size="14" lengthAdjust="spacing" textLength="38" x="13" y="448.4339">-isbn,</text><text fill="#000000" font-family="sans-serif" font-size="14" lengthAdjust="spacing" textLength="35" x="13" y="467.5018">-title,</text><text fill="#000000" font-family="sans-serif" font-size="14" lengthAdjust="spacing" textLength="49" x="13" y="486.5697">-genre,</text><text fill="#000000" font-family="sans-serif" font-size="14" lengthAdjust="spacing" textLength="61" x="13" y="505.6376">-authors,</text><text fill="#000000" font-family="sans-serif" font-size="14" lengthAdjust="spacing" textLength="81" x="13" y="524.7055">-description</text><line style="stroke:#181818;stroke-width:0.5;" x1="8" x2="357" y1="532.8075" y2="532.8075"/><text fill="#000000" font-family="sans-serif" font-size="14" lengthAdjust="spacing" textLength="339" x="13" y="551.7734">Book(isbn, title, genre, authors, description=None)</text></g><!--class BookController--><g id="elem_BookController"><rect codeLine="15" fill="#F1F1F1" height="64.1358" id="BookController" rx="2.5" ry="2.5" style="stroke:#181818;stroke-width:0.5;" width="186" x="30.5" y="7"/><text fill="#000000" font-family="sans-serif" font-size="14" lengthAdjust="spacing" textLength="99" x="74" y="26.9659">BookController</text><line style="stroke:#181818;stroke-width:0.5;" x1="31.5" x2="215.5" y1="36.0679" y2="36.0679"/><line style="stroke:#181818;stroke-width:0.5;" x1="31.5" x2="215.5" y1="44.0679" y2="44.0679"/><text fill="#000000" font-family="sans-serif" font-size="14" lengthAdjust="spacing" textLength="174" x="36.5" y="63.0339">+getBooksByGenre(genre)</text></g><!--class BookServiceImpl--><g id="elem_BookServiceImpl"><rect codeLine="19" fill="#F1F1F1" height="64.1358" id="BookServiceImpl" rx="2.5" ry="2.5" style="stroke:#181818;stroke-width:0.5;" width="186" x="147.5" y="132.13"/><text fill="#000000" font-family="sans-serif" font-size="14" lengthAdjust="spacing" textLength="111" x="185" y="152.0959">BookServiceImpl</text><line style="stroke:#181818;stroke-width:0.5;" x1="148.5" x2="332.5" y1="161.1979" y2="161.1979"/><line style="stroke:#181818;stroke-width:0.5;" x1="148.5" x2="332.5" y1="169.1979" y2="169.1979"/><text fill="#000000" font-family="sans-serif" font-size="14" lengthAdjust="spacing" textLength="174" x="153.5" y="188.1639">+getBooksByGenre(genre)</text></g><!--class BookRepository--><g id="elem_BookRepository"><rect codeLine="24" fill="#F1F1F1" height="64.1358" id="BookRepository" rx="2.5" ry="2.5" style="stroke:#181818;stroke-width:0.5;" width="109" x="218" y="257.27"/><text fill="#000000" font-family="sans-serif" font-size="14" lengthAdjust="spacing" textLength="103" x="221" y="277.2359">BookRepository</text><line style="stroke:#181818;stroke-width:0.5;" x1="219" x2="326" y1="286.3379" y2="286.3379"/><line style="stroke:#181818;stroke-width:0.5;" x1="219" x2="326" y1="294.3379" y2="294.3379"/><text fill="#000000" font-family="sans-serif" font-size="14" lengthAdjust="spacing" textLength="60" x="224" y="313.3039">+findAll()</text></g><!--link BookController to BookServiceImpl--><g id="link_BookController_BookServiceImpl"><path codeLine="30" d="M153.33,71.46 C170.93,89.98 188.9968,109.0007 206.5968,127.5207 " fill="none" id="BookController-to-BookServiceImpl" style="stroke:#181818;stroke-width:1.0;stroke-dasharray:7.0,7.0;"/><polygon fill="#181818" points="210.73,131.87,207.4297,122.5906,207.2856,128.2456,201.6306,128.1016,210.73,131.87" style="stroke:#181818;stroke-width:1.0;"/></g><!--link BookServiceImpl to BookRepository--><g id="link_BookServiceImpl_BookRepository"><path codeLine="31" d="M248.66,196.59 C253.47,215.12 258.041,232.6829 262.851,251.1929 " fill="none" id="BookServiceImpl-to-BookRepository" style="stroke:#181818;stroke-width:1.0;stroke-dasharray:7.0,7.0;"/><polygon fill="#181818" points="264.36,257,265.9679,247.2833,263.1025,252.1607,258.225,249.2953,264.36,257" style="stroke:#181818;stroke-width:1.0;"/></g><!--link BookController to Book--><g id="link_BookController_Book"><path codeLine="32" d="M123.65,71.58 C124.09,103.2 125.61,153.25 130.5,196.27 C138.39,265.6 151.9339,337.6666 163.7239,394.1466 " fill="none" id="BookController-to-Book" style="stroke:#181818;stroke-width:1.0;stroke-dasharray:7.0,7.0;"/><polygon fill="#181818" points="164.95,400.02,167.0265,390.3925,163.9283,395.1255,159.1953,392.0273,164.95,400.02" style="stroke:#181818;stroke-width:1.0;"/></g><!--link BookServiceImpl to Book--><g id="link_BookServiceImpl_Book"><path codeLine="33" d="M223.75,196.67 C215.3,214.05 205.75,236.31 200.5,257.27 C188.86,303.75 184.4982,351.2643 182.8682,394.0843 " fill="none" id="BookServiceImpl-to-Book" style="stroke:#181818;stroke-width:1.0;stroke-dasharray:7.0,7.0;"/><polygon fill="#181818" points="182.64,400.08,186.9795,391.2387,182.8302,395.0836,178.9852,390.9344,182.64,400.08" style="stroke:#181818;stroke-width:1.0;"/></g><!--link BookRepository to Book--><g id="link_BookRepository_Book"><path codeLine="34" d="M257.64,321.51 C247.4,342.99 235.9012,367.1136 222.6912,394.8336 " fill="none" id="BookRepository-to-Book" style="stroke:#181818;stroke-width:1.0;"/><polygon fill="#181818" points="220.11,400.25,227.5927,393.8462,222.261,395.7363,220.3709,390.4046,220.11,400.25" style="stroke:#181818;stroke-width:1.0;"/><text fill="#000000" font-family="sans-serif" font-size="13" lengthAdjust="spacing" textLength="52" x="243.5" y="366.297">searches</text><text fill="#000000" font-family="sans-serif" font-size="13" lengthAdjust="spacing" textLength="7" x="247.1401" y="343.2274">1</text><text fill="#000000" font-family="sans-serif" font-size="13" lengthAdjust="spacing" textLength="20" x="202.8279" y="388.4811">1..*</text></g><!--SRC=[XOxFJiCm38VlVefe5ygVjd2TnAID0zg50tk2B3MhjJI9OXTf8DwTDdIb0qtB9VdP_hxugXO9F2_BOBMJjh65yKrfh6REAzAxg1k0cYfKXgAn2Bmd5tHNLcbeAH9fsmgkZNSR-a1r3v0wQkNzNds2wawkYBVkRdWBYSLZsA6BOz2jr3xoCLR89b8GyYvLUcEMJ8DZe4TkIZo-U8VNy3LTvyaxYTvQZF2ps6rdaBx3gyDpxygIiST-gGt6TpAuReAzZ4suLmoUINmyZDWRkMffRPOcuNGbLHIBV__zoUFCn7t6SXQ5KrxD7cOgpnVTNHGtipGoLumwcXePlW40]--></g></svg>