<?xml version="1.0" encoding="us-ascii" standalone="no"?><svg xmlns="http://www.w3.org/2000/svg" xmlns:xlink="http://www.w3.org/1999/xlink" contentStyleType="text/css" height="558px" preserveAspectRatio="none" style="width:837px;height:558px;background:#FFFFFF;" version="1.1" viewBox="0 0 837 558" width="837px" zoomAndPan="magnify"><defs/><g><!--class BookController--><g id="elem_BookController"><rect codeLine="6" fill="#F1F1F1" height="63.2422" id="BookController" rx="2.5" ry="2.5" style="stroke:#181818;stroke-width:0.5;" width="262" x="206.5" y="7"/><text fill="#000000" font-family="sans-serif" font-size="14" lengthAdjust="spacing" textLength="94" x="290.5" y="27.1074">BookController</text><line style="stroke:#181818;stroke-width:0.5;" x1="207.5" x2="467.5" y1="35.6211" y2="35.6211"/><line style="stroke:#181818;stroke-width:0.5;" x1="207.5" x2="467.5" y1="43.6211" y2="43.6211"/><text fill="#000000" font-family="sans-serif" font-size="14" lengthAdjust="spacing" textLength="250" x="212.5" y="62.7285">+getTopGenres(): Iterable&lt;GenreView&gt;</text></g><!--class BookServiceImpl--><g id="elem_BookServiceImpl"><rect codeLine="10" fill="#F1F1F1" height="81.8633" id="BookServiceImpl" rx="2.5" ry="2.5" style="stroke:#181818;stroke-width:0.5;" width="233" x="7" y="130"/><text fill="#000000" font-family="sans-serif" font-size="14" lengthAdjust="spacing" textLength="104" x="71.5" y="150.1074">BookServiceImpl</text><line style="stroke:#181818;stroke-width:0.5;" x1="8" x2="239" y1="158.6211" y2="158.6211"/><line style="stroke:#181818;stroke-width:0.5;" x1="8" x2="239" y1="166.6211" y2="166.6211"/><text fill="#000000" font-family="sans-serif" font-size="14" lengthAdjust="spacing" textLength="221" x="13" y="185.7285">+getTopGenres(): Iterable&lt;Genre&gt;</text><text fill="#000000" font-family="sans-serif" font-size="14" lengthAdjust="spacing" textLength="195" x="13" y="204.3496">-findAllBooks(): Iterable&lt;Book&gt;</text></g><!--class GenreViewMapper--><g id="elem_GenreViewMapper"><rect codeLine="15" fill="#F1F1F1" height="63.2422" id="GenreViewMapper" rx="2.5" ry="2.5" style="stroke:#181818;stroke-width:0.5;" width="555" x="275" y="139.5"/><text fill="#000000" font-family="sans-serif" font-size="14" lengthAdjust="spacing" textLength="117" x="494" y="159.6074">GenreViewMapper</text><line style="stroke:#181818;stroke-width:0.5;" x1="276" x2="829" y1="168.1211" y2="168.1211"/><line style="stroke:#181818;stroke-width:0.5;" x1="276" x2="829" y1="176.1211" y2="176.1211"/><text fill="#000000" font-family="sans-serif" font-size="14" lengthAdjust="spacing" textLength="543" x="281" y="195.2285">+toGenreView(genres: Iterable&lt;Genre&gt;, books: Iterable&lt;Book&gt;): Iterable&lt;GenreView&gt;</text></g><!--class BookRepository--><g id="elem_BookRepository"><rect codeLine="19" fill="#F1F1F1" height="81.8633" id="BookRepository" rx="2.5" ry="2.5" style="stroke:#181818;stroke-width:0.5;" width="236" x="67.5" y="272"/><text fill="#000000" font-family="sans-serif" font-size="14" lengthAdjust="spacing" textLength="100" x="135.5" y="292.1074">BookRepository</text><line style="stroke:#181818;stroke-width:0.5;" x1="68.5" x2="302.5" y1="300.6211" y2="300.6211"/><line style="stroke:#181818;stroke-width:0.5;" x1="68.5" x2="302.5" y1="308.6211" y2="308.6211"/><text fill="#000000" font-family="sans-serif" font-size="14" lengthAdjust="spacing" textLength="224" x="73.5" y="327.7285">+findTopGenres(): Iterable&lt;Genre&gt;</text><text fill="#000000" font-family="sans-serif" font-size="14" lengthAdjust="spacing" textLength="159" x="73.5" y="346.3496">+findAll(): Iterable&lt;Book&gt;</text></g><!--class Genre--><g id="elem_Genre"><rect codeLine="24" fill="#F1F1F1" height="81.8633" id="Genre" rx="2.5" ry="2.5" style="stroke:#181818;stroke-width:0.5;" width="97" x="370" y="272"/><text fill="#000000" font-family="sans-serif" font-size="14" lengthAdjust="spacing" textLength="40" x="398.5" y="292.1074">Genre</text><line style="stroke:#181818;stroke-width:0.5;" x1="371" x2="466" y1="300.6211" y2="300.6211"/><text fill="#000000" font-family="sans-serif" font-size="14" lengthAdjust="spacing" textLength="61" x="376" y="319.7285">-id: String</text><text fill="#000000" font-family="sans-serif" font-size="14" lengthAdjust="spacing" textLength="85" x="376" y="338.3496">-name: String</text><line style="stroke:#181818;stroke-width:0.5;" x1="371" x2="466" y1="345.8633" y2="345.8633"/></g><!--class Book--><g id="elem_Book"><rect codeLine="29" fill="#F1F1F1" height="137.7266" id="Book" rx="2.5" ry="2.5" style="stroke:#181818;stroke-width:0.5;" width="153" x="261" y="414"/><text fill="#000000" font-family="sans-serif" font-size="14" lengthAdjust="spacing" textLength="32" x="321.5" y="434.1074">Book</text><line style="stroke:#181818;stroke-width:0.5;" x1="262" x2="413" y1="442.6211" y2="442.6211"/><text fill="#000000" font-family="sans-serif" font-size="14" lengthAdjust="spacing" textLength="76" x="267" y="461.7285">-isbn: String</text><text fill="#000000" font-family="sans-serif" font-size="14" lengthAdjust="spacing" textLength="72" x="267" y="480.3496">-title: String</text><text fill="#000000" font-family="sans-serif" font-size="14" lengthAdjust="spacing" textLength="90" x="267" y="498.9707">-genre: Genre</text><text fill="#000000" font-family="sans-serif" font-size="14" lengthAdjust="spacing" textLength="141" x="267" y="517.5918">-authors: List&lt;Author&gt;</text><text fill="#000000" font-family="sans-serif" font-size="14" lengthAdjust="spacing" textLength="119" x="267" y="536.2129">-description: String</text><line style="stroke:#181818;stroke-width:0.5;" x1="262" x2="413" y1="543.7266" y2="543.7266"/></g><!--link BookController to BookServiceImpl--><g id="link_BookController_BookServiceImpl"><path codeLine="37" d="M287.33,70.1 C258.05,87.95 225.8922,107.5554 194.3022,126.8254 " fill="none" id="BookController-to-BookServiceImpl" style="stroke:#181818;stroke-width:1.0;stroke-dasharray:7.0,7.0;"/><polygon fill="#181818" points="189.18,129.95,198.9464,128.678,193.4485,127.3462,194.7803,121.8483,189.18,129.95" style="stroke:#181818;stroke-width:1.0;"/></g><!--link BookServiceImpl to BookRepository--><g id="link_BookServiceImpl_BookRepository"><path codeLine="38" d="M141.27,212.12 C149.57,230.86 157.0013,247.6435 165.3013,266.3935 " fill="none" id="BookServiceImpl-to-BookRepository" style="stroke:#181818;stroke-width:1.0;stroke-dasharray:7.0,7.0;"/><polygon fill="#181818" points="167.73,271.88,167.7446,262.0312,165.7061,267.3079,160.4293,265.2694,167.73,271.88" style="stroke:#181818;stroke-width:1.0;"/></g><!--link BookController to GenreViewMapper--><g id="link_BookController_GenreViewMapper"><path codeLine="39" d="M387.91,70.1 C422.29,90.96 462.5109,115.3768 496.9109,136.2568 " fill="none" id="BookController-to-GenreViewMapper" style="stroke:#181818;stroke-width:1.0;stroke-dasharray:7.0,7.0;"/><polygon fill="#181818" points="502.04,139.37,496.4218,131.2807,497.7657,136.7756,492.2708,138.1195,502.04,139.37" style="stroke:#181818;stroke-width:1.0;"/></g><!--link BookServiceImpl to Genre--><g id="link_BookServiceImpl_Genre"><path codeLine="40" d="M208.04,212.12 C260.47,237 320.5699,265.5165 364.4399,286.3465 " fill="none" id="BookServiceImpl-to-Genre" style="stroke:#181818;stroke-width:1.0;stroke-dasharray:7.0,7.0;"/><polygon fill="#181818" points="369.86,288.92,363.4456,281.4464,365.3433,286.7754,360.0142,288.6731,369.86,288.92" style="stroke:#181818;stroke-width:1.0;"/></g><!--link BookRepository to Book--><g id="link_BookRepository_Book"><path codeLine="41" d="M221.91,354.24 C238.07,372.1 253.5136,389.1816 271.8336,409.4216 " fill="none" id="BookRepository-to-Book" style="stroke:#181818;stroke-width:1.0;stroke-dasharray:7.0,7.0;"/><polygon fill="#181818" points="275.86,413.87,272.786,404.5132,272.5047,410.163,266.8548,409.8817,275.86,413.87" style="stroke:#181818;stroke-width:1.0;"/></g><!--link GenreViewMapper to Genre--><g id="link_GenreViewMapper_Genre"><path codeLine="42" d="M523.09,202.72 C503.68,223.01 482.1899,245.4666 461.1499,267.4366 " fill="none" id="GenreViewMapper-to-Genre" style="stroke:#181818;stroke-width:1.0;stroke-dasharray:7.0,7.0;"/><polygon fill="#181818" points="457,271.77,466.1138,268.0366,460.4583,268.1589,460.336,262.5033,457,271.77" style="stroke:#181818;stroke-width:1.0;"/></g><!--link GenreViewMapper to Book--><g id="link_GenreViewMapper_Book"><path codeLine="43" d="M546.01,202.52 C536.88,240.55 517.54,306.31 484.5,354 C465.42,381.54 443.7318,403.094 418.6418,423.864 " fill="none" id="GenreViewMapper-to-Book" style="stroke:#181818;stroke-width:1.0;stroke-dasharray:7.0,7.0;"/><polygon fill="#181818" points="414.02,427.69,423.5035,425.0322,417.8715,424.5016,418.4021,418.8697,414.02,427.69" style="stroke:#181818;stroke-width:1.0;"/></g><!--SRC=[ZLBBJiCm4BpxAtoZg2Jb75MH2WSK2IuKSNUS9LdLiIrx2mB4lvEOvb5JgVLjPsTdzk6hXiZwRBMoIcZQjogLfbr99RnFAXIr4orZ3LR09JgfWFaTQYiwc0VIXiXXkISefD5R_09-orZ8y3jZTlT6apDAWUFVZ7TloMkW5sCVG3lmY-kC5mHEb0hM0Nf5-CZPprnZ2-uT9HIjLHUAv86Ly3VKrKQfNkIOrICpbz7vILWxQvNCc5dKmUkVqmqlU_LO-vAvdi4QZsJSvsZODtnshkKmrzcH3he9nohZs-vGkZu0MhGmGaTTJJM-r54L8Ic8iB2NxC_l08azDSPrEtb4J-jDY8QJLE2bGqjezDm_-YjfciUdPr4yKAOjdXA9BXkBJ1mMNMIGP_7Vc2fEPKB9Bm00]--></g></svg>