<?xml version="1.0" encoding="us-ascii" standalone="no"?><svg xmlns="http://www.w3.org/2000/svg" xmlns:xlink="http://www.w3.org/1999/xlink" contentStyleType="text/css" height="615px" preserveAspectRatio="none" style="width:1528px;height:615px;background:#FFFFFF;" version="1.1" viewBox="0 0 1528 615" width="1528px" zoomAndPan="magnify"><defs/><g><!--class LendingController--><g id="elem_LendingController"><rect codeLine="6" fill="#F1F1F1" height="63.2422" id="LendingController" rx="2.5" ry="2.5" style="stroke:#181818;stroke-width:0.5;" width="698" x="342" y="7"/><text fill="#000000" font-family="sans-serif" font-size="14" lengthAdjust="spacing" textLength="113" x="634.5" y="27.1074">LendingController</text><line style="stroke:#181818;stroke-width:0.5;" x1="343" x2="1039" y1="35.6211" y2="35.6211"/><line style="stroke:#181818;stroke-width:0.5;" x1="343" x2="1039" y1="43.6211" y2="43.6211"/><text fill="#000000" font-family="sans-serif" font-size="14" lengthAdjust="spacing" textLength="686" x="348" y="62.7285">+getTopReadersPerGenre(genreId: Long, startDate: LocalDate, endDate: LocalDate): Iterable&lt;ReaderView&gt;</text></g><!--class ReaderService--><g id="elem_ReaderService"><rect codeLine="10" fill="#F1F1F1" height="63.2422" id="ReaderService" rx="2.5" ry="2.5" style="stroke:#181818;stroke-width:0.5;" width="725" x="328.5" y="149"/><text fill="#000000" font-family="sans-serif" font-size="14" lengthAdjust="spacing" textLength="94" x="644" y="169.1074">ReaderService</text><line style="stroke:#181818;stroke-width:0.5;" x1="329.5" x2="1052.5" y1="177.6211" y2="177.6211"/><line style="stroke:#181818;stroke-width:0.5;" x1="329.5" x2="1052.5" y1="185.6211" y2="185.6211"/><text fill="#000000" font-family="sans-serif" font-size="14" lengthAdjust="spacing" textLength="713" x="334.5" y="204.7285">+getTopReadersperGenre(topN: int, genre: Genre, startDate: LocalDate, endDate: LocalDate): Iterable&lt;Reader&gt;</text></g><!--class ReaderRepository--><g id="elem_ReaderRepository"><rect codeLine="14" fill="#F1F1F1" height="79.2031" id="ReaderRepository" rx="2.5" ry="2.5" style="stroke:#181818;stroke-width:0.5;" width="779" x="430.5" y="311"/><text fill="#000000" font-family="sans-serif" font-size="12" font-style="italic" lengthAdjust="spacing" textLength="61" x="789.5" y="328.9492">&#171;interface&#187;</text><text fill="#000000" font-family="sans-serif" font-size="14" font-style="italic" lengthAdjust="spacing" textLength="115" x="762.5" y="347.0684">ReaderRepository</text><line style="stroke:#181818;stroke-width:0.5;" x1="431.5" x2="1208.5" y1="355.582" y2="355.582"/><line style="stroke:#181818;stroke-width:0.5;" x1="431.5" x2="1208.5" y1="363.582" y2="363.582"/><text fill="#000000" font-family="sans-serif" font-size="14" lengthAdjust="spacing" textLength="767" x="436.5" y="382.6895">+findTopReadersPerGenre(pageable: Pageable, genre: Genre, startDate: LocalDate, endDate: LocalDate): List&lt;Reader&gt;</text></g><!--class GenreService--><g id="elem_GenreService"><rect codeLine="18" fill="#F1F1F1" height="63.2422" id="GenreService" rx="2.5" ry="2.5" style="stroke:#181818;stroke-width:0.5;" width="285" x="8.5" y="149"/><text fill="#000000" font-family="sans-serif" font-size="14" lengthAdjust="spacing" textLength="87" x="107.5" y="169.1074">GenreService</text><line style="stroke:#181818;stroke-width:0.5;" x1="9.5" x2="292.5" y1="177.6211" y2="177.6211"/><line style="stroke:#181818;stroke-width:0.5;" x1="9.5" x2="292.5" y1="185.6211" y2="185.6211"/><text fill="#000000" font-family="sans-serif" font-size="14" lengthAdjust="spacing" textLength="273" x="14.5" y="204.7285">+getGenreById(id: Long): Optional&lt;Genre&gt;</text></g><!--class GenreRepository--><g id="elem_GenreRepository"><rect codeLine="22" fill="#F1F1F1" height="79.2031" id="GenreRepository" rx="2.5" ry="2.5" style="stroke:#181818;stroke-width:0.5;" width="288" x="7" y="311"/><text fill="#000000" font-family="sans-serif" font-size="12" font-style="italic" lengthAdjust="spacing" textLength="61" x="120.5" y="328.9492">&#171;interface&#187;</text><text fill="#000000" font-family="sans-serif" font-size="14" font-style="italic" lengthAdjust="spacing" textLength="108" x="97" y="347.0684">GenreRepository</text><line style="stroke:#181818;stroke-width:0.5;" x1="8" x2="294" y1="355.582" y2="355.582"/><line style="stroke:#181818;stroke-width:0.5;" x1="8" x2="294" y1="363.582" y2="363.582"/><text fill="#000000" font-family="sans-serif" font-size="14" lengthAdjust="spacing" textLength="276" x="13" y="382.6895">+findGenreById(id: Long): Optional&lt;Genre&gt;</text></g><!--class ReaderViewMapper--><g id="elem_ReaderViewMapper"><rect codeLine="26" fill="#F1F1F1" height="63.2422" id="ReaderViewMapper" rx="2.5" ry="2.5" style="stroke:#181818;stroke-width:0.5;" width="432" x="1089" y="149"/><text fill="#000000" font-family="sans-serif" font-size="14" lengthAdjust="spacing" textLength="124" x="1243" y="169.1074">ReaderViewMapper</text><line style="stroke:#181818;stroke-width:0.5;" x1="1090" x2="1520" y1="177.6211" y2="177.6211"/><line style="stroke:#181818;stroke-width:0.5;" x1="1090" x2="1520" y1="185.6211" y2="185.6211"/><text fill="#000000" font-family="sans-serif" font-size="14" lengthAdjust="spacing" textLength="420" x="1095" y="204.7285">+toReaderView(readers: Iterable&lt;Reader&gt;): Iterable&lt;ReaderView&gt;</text></g><!--class ReaderView--><g id="elem_ReaderView"><rect codeLine="30" fill="#F1F1F1" height="119.1055" id="ReaderView" rx="2.5" ry="2.5" style="stroke:#181818;stroke-width:0.5;" width="97" x="1349.5" y="291"/><text fill="#000000" font-family="sans-serif" font-size="14" lengthAdjust="spacing" textLength="76" x="1360" y="311.1074">ReaderView</text><line style="stroke:#181818;stroke-width:0.5;" x1="1350.5" x2="1445.5" y1="319.6211" y2="319.6211"/><text fill="#000000" font-family="sans-serif" font-size="14" lengthAdjust="spacing" textLength="56" x="1355.5" y="338.7285">-id: Long</text><text fill="#000000" font-family="sans-serif" font-size="14" lengthAdjust="spacing" textLength="85" x="1355.5" y="357.3496">-name: String</text><text fill="#000000" font-family="sans-serif" font-size="14" lengthAdjust="spacing" textLength="83" x="1355.5" y="375.9707">-email: String</text><text fill="#000000" font-family="sans-serif" font-size="14" lengthAdjust="spacing" textLength="52" x="1355.5" y="394.5918">-age: int</text><line style="stroke:#181818;stroke-width:0.5;" x1="1350.5" x2="1445.5" y1="402.1055" y2="402.1055"/></g><!--class Genre--><g id="elem_Genre"><rect codeLine="37" fill="#F1F1F1" height="81.8633" id="Genre" rx="2.5" ry="2.5" style="stroke:#181818;stroke-width:0.5;" width="97" x="276.5" y="507.5"/><text fill="#000000" font-family="sans-serif" font-size="14" lengthAdjust="spacing" textLength="40" x="305" y="527.6074">Genre</text><line style="stroke:#181818;stroke-width:0.5;" x1="277.5" x2="372.5" y1="536.1211" y2="536.1211"/><text fill="#000000" font-family="sans-serif" font-size="14" lengthAdjust="spacing" textLength="56" x="282.5" y="555.2285">-id: Long</text><text fill="#000000" font-family="sans-serif" font-size="14" lengthAdjust="spacing" textLength="85" x="282.5" y="573.8496">-name: String</text><line style="stroke:#181818;stroke-width:0.5;" x1="277.5" x2="372.5" y1="581.3633" y2="581.3633"/></g><!--class Reader--><g id="elem_Reader"><rect codeLine="42" fill="#F1F1F1" height="119.1055" id="Reader" rx="2.5" ry="2.5" style="stroke:#181818;stroke-width:0.5;" width="97" x="1095.5" y="489"/><text fill="#000000" font-family="sans-serif" font-size="14" lengthAdjust="spacing" textLength="47" x="1120.5" y="509.1074">Reader</text><line style="stroke:#181818;stroke-width:0.5;" x1="1096.5" x2="1191.5" y1="517.6211" y2="517.6211"/><text fill="#000000" font-family="sans-serif" font-size="14" lengthAdjust="spacing" textLength="56" x="1101.5" y="536.7285">-id: Long</text><text fill="#000000" font-family="sans-serif" font-size="14" lengthAdjust="spacing" textLength="85" x="1101.5" y="555.3496">-name: String</text><text fill="#000000" font-family="sans-serif" font-size="14" lengthAdjust="spacing" textLength="83" x="1101.5" y="573.9707">-email: String</text><text fill="#000000" font-family="sans-serif" font-size="14" lengthAdjust="spacing" textLength="52" x="1101.5" y="592.5918">-age: int</text><line style="stroke:#181818;stroke-width:0.5;" x1="1096.5" x2="1191.5" y1="600.1055" y2="600.1055"/></g><!--link LendingController to ReaderService--><g id="link_LendingController_ReaderService"><path codeLine="49" d="M691,70.22 C691,93.57 691,119.52 691,142.85 " fill="none" id="LendingController-to-ReaderService" style="stroke:#181818;stroke-width:1.0;stroke-dasharray:7.0,7.0;"/><polygon fill="#181818" points="691,148.85,695,139.85,691,143.85,687,139.85,691,148.85" style="stroke:#181818;stroke-width:1.0;"/><text fill="#000000" font-family="sans-serif" font-size="13" lengthAdjust="spacing" textLength="28" x="692" y="115.0283">uses</text></g><!--link LendingController to GenreService--><g id="link_LendingController_GenreService"><path codeLine="50" d="M573.16,70.05 C483.01,93.42 365.0681,124.0047 274.8581,147.3847 " fill="none" id="LendingController-to-GenreService" style="stroke:#181818;stroke-width:1.0;stroke-dasharray:7.0,7.0;"/><polygon fill="#181818" points="269.05,148.89,278.7657,150.5041,273.8901,147.6356,276.7586,142.76,269.05,148.89" style="stroke:#181818;stroke-width:1.0;"/><text fill="#000000" font-family="sans-serif" font-size="13" lengthAdjust="spacing" textLength="28" x="454" y="115.0283">uses</text></g><!--link ReaderService to ReaderRepository--><g id="link_ReaderService_ReaderRepository"><path codeLine="51" d="M714.66,212.31 C735.97,240.07 763.736,276.2209 786.716,306.1509 " fill="none" id="ReaderService-to-ReaderRepository" style="stroke:#181818;stroke-width:1.0;stroke-dasharray:7.0,7.0;"/><polygon fill="#181818" points="790.37,310.91,788.0618,301.3354,787.325,306.9441,781.7164,306.2074,790.37,310.91" style="stroke:#181818;stroke-width:1.0;"/><text fill="#000000" font-family="sans-serif" font-size="13" lengthAdjust="spacing" textLength="28" x="752" y="257.0283">uses</text></g><!--link GenreService to GenreRepository--><g id="link_GenreService_GenreRepository"><path codeLine="52" d="M151,212.31 C151,240.07 151,274.98 151,304.91 " fill="none" id="GenreService-to-GenreRepository" style="stroke:#181818;stroke-width:1.0;stroke-dasharray:7.0,7.0;"/><polygon fill="#181818" points="151,310.91,155,301.91,151,305.91,147,301.91,151,310.91" style="stroke:#181818;stroke-width:1.0;"/><text fill="#000000" font-family="sans-serif" font-size="13" lengthAdjust="spacing" textLength="28" x="152" y="257.0283">uses</text></g><!--link ReaderService to Genre--><g id="link_ReaderService_Genre"><path codeLine="53" d="M512,212.13 C464.23,228.34 416.62,253.12 383,291 C329.21,351.61 322.0533,445.4905 322.7633,501.0305 " fill="none" id="ReaderService-to-Genre" style="stroke:#181818;stroke-width:1.0;stroke-dasharray:7.0,7.0;"/><polygon fill="#181818" points="322.84,507.03,326.7246,497.9796,322.7761,502.0304,318.7253,498.0819,322.84,507.03" style="stroke:#181818;stroke-width:1.0;"/><text fill="#000000" font-family="sans-serif" font-size="13" lengthAdjust="spacing" textLength="28" x="384" y="356.0283">uses</text></g><!--link ReaderRepository to Reader--><g id="link_ReaderRepository_Reader"><path codeLine="54" d="M884.01,390.22 C946.16,427.82 1033.9963,480.9543 1090.2963,515.0143 " fill="none" id="ReaderRepository-to-Reader" style="stroke:#181818;stroke-width:1.0;stroke-dasharray:7.0,7.0;"/><polygon fill="#181818" points="1095.43,518.12,1089.8,510.039,1091.152,515.5319,1085.659,516.8838,1095.43,518.12" style="stroke:#181818;stroke-width:1.0;"/><text fill="#000000" font-family="sans-serif" font-size="13" lengthAdjust="spacing" textLength="56" x="992" y="455.0283">accesses</text></g><!--link GenreRepository to Genre--><g id="link_GenreRepository_Genre"><path codeLine="55" d="M185.38,390.22 C215.39,424.03 254.7969,468.4128 285.2169,502.6828 " fill="none" id="GenreRepository-to-Genre" style="stroke:#181818;stroke-width:1.0;stroke-dasharray:7.0,7.0;"/><polygon fill="#181818" points="289.2,507.17,286.2168,497.7838,285.8808,503.4307,280.2339,503.0946,289.2,507.17" style="stroke:#181818;stroke-width:1.0;"/><text fill="#000000" font-family="sans-serif" font-size="13" lengthAdjust="spacing" textLength="56" x="244" y="455.0283">accesses</text></g><!--link LendingController to ReaderViewMapper--><g id="link_LendingController_ReaderViewMapper"><path codeLine="56" d="M824.99,70.05 C927.58,93.44 1062.6001,124.2261 1165.1801,147.6161 " fill="none" id="LendingController-to-ReaderViewMapper" style="stroke:#181818;stroke-width:1.0;stroke-dasharray:7.0,7.0;"/><polygon fill="#181818" points="1171.03,148.95,1163.1445,143.0493,1166.1551,147.8384,1161.366,150.8491,1171.03,148.95" style="stroke:#181818;stroke-width:1.0;"/><text fill="#000000" font-family="sans-serif" font-size="13" lengthAdjust="spacing" textLength="28" x="1035" y="115.0283">uses</text></g><!--link ReaderViewMapper to Reader--><g id="link_ReaderViewMapper_Reader"><path codeLine="57" d="M1296.78,212.25 C1284.34,256.9 1258.78,341.8 1227,410 C1214.52,436.79 1201.3219,459.8832 1186.4219,483.7032 " fill="none" id="ReaderViewMapper-to-Reader" style="stroke:#181818;stroke-width:1.0;stroke-dasharray:7.0,7.0;"/><polygon fill="#181818" points="1183.24,488.79,1191.4041,483.2811,1185.8916,484.551,1184.6217,479.0385,1183.24,488.79" style="stroke:#181818;stroke-width:1.0;"/><text fill="#000000" font-family="sans-serif" font-size="13" lengthAdjust="spacing" textLength="32" x="1272" y="356.0283">maps</text></g><!--link ReaderViewMapper to ReaderView--><g id="link_ReaderViewMapper_ReaderView"><path codeLine="58" d="M1322.06,212.31 C1334.17,234.2 1347.9032,259.0111 1362.5232,285.4111 " fill="none" id="ReaderViewMapper-to-ReaderView" style="stroke:#181818;stroke-width:1.0;stroke-dasharray:7.0,7.0;"/><polygon fill="#181818" points="1365.43,290.66,1364.5691,280.8488,1363.0077,286.2859,1357.5706,284.7245,1365.43,290.66" style="stroke:#181818;stroke-width:1.0;"/><text fill="#000000" font-family="sans-serif" font-size="13" lengthAdjust="spacing" textLength="43" x="1349" y="257.0283">creates</text></g><!--SRC=[hLFBJiCm4BpdA_P64QNb75MLU4YeKdc88kwBiwGMZctPMn0W_Xt7ITCaBLKbo25APiUpazdDqPBP-dGyjWerhmer4gOO2uNUdsOISuT5aYnbHY2a4ueI_ogrnG1399qpE_cyOfe9enVoa-0iIM85vgGpgVDBezaPfSZ1LmBXEe6S-D7O1yACdBydTqtQqI0lxxCiXRdH-H0ye-ChP2e1WQfy74BGx677ASoO73uhcbIIJvBUfydtsaS5BiYzIK6xFTYr1pRsDWMfUGZHJWeH_ukRw2Geadl1qBy27yWQBzcu3vXCck9qsjXxaJhRaP75d4hj5ExhfpyOdKlFRPDLN55dHreHl_YOPGDPpoX8t5cMHgEQn6hlKoDsq9SUgjqUQ3db6xIsjLTiDgM1gwBRdiU12rE2jV8fh6tLhngBaEKYh7u3KO5IzR0mehXClN0FKksv-KSds__bQ3Jj_IKfh3pvNwYT3QcPtUCRmTRuQsRdT2EtpTjMhCBhb5l7DZq31OKWttJhiTOw3MbV8gqrwtHkuPtE1TgzbBXMAOYmdXp4VW00]--></g></svg>