<?xml version="1.0" encoding="us-ascii" standalone="no"?><svg xmlns="http://www.w3.org/2000/svg" xmlns:xlink="http://www.w3.org/1999/xlink" contentStyleType="text/css" height="853px" preserveAspectRatio="none" style="width:1597px;height:853px;background:#FFFFFF;" version="1.1" viewBox="0 0 1597 853" width="1597px" zoomAndPan="magnify"><defs/><g><rect fill="#FFFFFF" height="401.668" style="stroke:#181818;stroke-width:1.0;" width="10" x="46" y="359.6582"/><rect fill="#FFFFFF" height="46" style="stroke:#181818;stroke-width:1.0;" width="10" x="51" y="715.3262"/><rect fill="#FFFFFF" height="644.4141" style="stroke:#181818;stroke-width:1.0;" width="10" x="397" y="116.9121"/><rect fill="#FFFFFF" height="644.4141" style="stroke:#181818;stroke-width:1.0;" width="10" x="397" y="116.9121"/><rect fill="#FFFFFF" height="117.582" style="stroke:#181818;stroke-width:1.0;" width="10" x="402" y="272.0762"/><rect fill="#FFFFFF" height="199.873" style="stroke:#181818;stroke-width:1.0;" width="10" x="402" y="561.4531"/><rect fill="#FFFFFF" height="91.291" style="stroke:#181818;stroke-width:1.0;" width="10" x="407" y="654.0352"/><rect fill="#FFFFFF" height="613.123" style="stroke:#181818;stroke-width:1.0;" width="10" x="582" y="148.2031"/><rect fill="#FFFFFF" height="613.123" style="stroke:#181818;stroke-width:1.0;" width="10" x="582" y="148.2031"/><rect fill="#FFFFFF" height="91.291" style="stroke:#181818;stroke-width:1.0;" width="10" x="587" y="210.7852"/><rect fill="#FFFFFF" height="581.832" style="stroke:#181818;stroke-width:1.0;" width="10" x="767" y="179.4941"/><rect fill="#FFFFFF" height="61.291" style="stroke:#181818;stroke-width:1.0;" width="10" x="767" y="179.4941"/><rect fill="#FFFFFF" height="323.7461" style="stroke:#181818;stroke-width:1.0;" width="10" x="892" y="437.5801"/><rect fill="#FFFFFF" height="323.7461" style="stroke:#181818;stroke-width:1.0;" width="10" x="892" y="437.5801"/><rect fill="#FFFFFF" height="91.291" style="stroke:#181818;stroke-width:1.0;" width="10" x="897" y="500.1621"/><rect fill="#FFFFFF" height="292.4551" style="stroke:#181818;stroke-width:1.0;" width="10" x="1368" y="468.8711"/><rect fill="#FFFFFF" height="61.291" style="stroke:#181818;stroke-width:1.0;" width="10" x="1368" y="468.8711"/><rect fill="#FFFFFF" height="138.582" style="stroke:#181818;stroke-width:1.0;" width="10" x="1511.5" y="622.7441"/><rect fill="#FFFFFF" height="61.291" style="stroke:#181818;stroke-width:1.0;" width="10" x="1511.5" y="622.7441"/><rect fill="none" height="436.25" style="stroke:#000000;stroke-width:1.5;" width="1580.5" x="10" y="317.0762"/><line style="stroke:#181818;stroke-width:0.5;stroke-dasharray:5.0,5.0;" x1="51" x2="51" y1="83.6211" y2="770.3262"/><line style="stroke:#181818;stroke-width:0.5;stroke-dasharray:5.0,5.0;" x1="396.5" x2="396.5" y1="83.6211" y2="770.3262"/><line style="stroke:#181818;stroke-width:0.5;stroke-dasharray:5.0,5.0;" x1="581.5" x2="581.5" y1="83.6211" y2="770.3262"/><line style="stroke:#181818;stroke-width:0.5;stroke-dasharray:5.0,5.0;" x1="767" x2="767" y1="83.6211" y2="770.3262"/><line style="stroke:#181818;stroke-width:0.5;stroke-dasharray:5.0,5.0;" x1="892" x2="892" y1="83.6211" y2="770.3262"/><line style="stroke:#181818;stroke-width:0.5;stroke-dasharray:5.0,5.0;" x1="1367.5" x2="1367.5" y1="83.6211" y2="770.3262"/><line style="stroke:#181818;stroke-width:0.5;stroke-dasharray:5.0,5.0;" x1="1511.5" x2="1511.5" y1="83.6211" y2="770.3262"/><text fill="#000000" font-family="sans-serif" font-size="14" lengthAdjust="spacing" textLength="56" x="20" y="80.1074">Librarian</text><ellipse cx="51" cy="13.5" fill="#E2E2F0" rx="8" ry="8" style="stroke:#181818;stroke-width:0.5;"/><path d="M51,21.5 L51,48.5 M38,29.5 L64,29.5 M51,48.5 L38,63.5 M51,48.5 L64,63.5 " fill="none" style="stroke:#181818;stroke-width:0.5;"/><text fill="#000000" font-family="sans-serif" font-size="14" lengthAdjust="spacing" textLength="56" x="20" y="784.4336">Librarian</text><ellipse cx="51" cy="796.4473" fill="#E2E2F0" rx="8" ry="8" style="stroke:#181818;stroke-width:0.5;"/><path d="M51,804.4473 L51,831.4473 M38,812.4473 L64,812.4473 M51,831.4473 L38,846.4473 M51,831.4473 L64,846.4473 " fill="none" style="stroke:#181818;stroke-width:0.5;"/><rect fill="#E2E2F0" height="32.6211" rx="2.5" ry="2.5" style="stroke:#181818;stroke-width:0.5;" width="127" x="333.5" y="50"/><text fill="#000000" font-family="sans-serif" font-size="14" lengthAdjust="spacing" textLength="113" x="340.5" y="72.1074">LendingController</text><rect fill="#E2E2F0" height="32.6211" rx="2.5" ry="2.5" style="stroke:#181818;stroke-width:0.5;" width="127" x="333.5" y="769.3262"/><text fill="#000000" font-family="sans-serif" font-size="14" lengthAdjust="spacing" textLength="113" x="340.5" y="791.4336">LendingController</text><rect fill="#E2E2F0" height="32.6211" rx="2.5" ry="2.5" style="stroke:#181818;stroke-width:0.5;" width="101" x="531.5" y="50"/><text fill="#000000" font-family="sans-serif" font-size="14" lengthAdjust="spacing" textLength="87" x="538.5" y="72.1074">GenreService</text><rect fill="#E2E2F0" height="32.6211" rx="2.5" ry="2.5" style="stroke:#181818;stroke-width:0.5;" width="101" x="531.5" y="769.3262"/><text fill="#000000" font-family="sans-serif" font-size="14" lengthAdjust="spacing" textLength="87" x="538.5" y="791.4336">GenreService</text><rect fill="#E2E2F0" height="32.6211" rx="2.5" ry="2.5" style="stroke:#181818;stroke-width:0.5;" width="122" x="706" y="50"/><text fill="#000000" font-family="sans-serif" font-size="14" lengthAdjust="spacing" textLength="108" x="713" y="72.1074">GenreRepository</text><rect fill="#E2E2F0" height="32.6211" rx="2.5" ry="2.5" style="stroke:#181818;stroke-width:0.5;" width="122" x="706" y="769.3262"/><text fill="#000000" font-family="sans-serif" font-size="14" lengthAdjust="spacing" textLength="108" x="713" y="791.4336">GenreRepository</text><rect fill="#E2E2F0" height="32.6211" rx="2.5" ry="2.5" style="stroke:#181818;stroke-width:0.5;" width="108" x="838" y="50"/><text fill="#000000" font-family="sans-serif" font-size="14" lengthAdjust="spacing" textLength="94" x="845" y="72.1074">ReaderService</text><rect fill="#E2E2F0" height="32.6211" rx="2.5" ry="2.5" style="stroke:#181818;stroke-width:0.5;" width="108" x="838" y="769.3262"/><text fill="#000000" font-family="sans-serif" font-size="14" lengthAdjust="spacing" textLength="94" x="845" y="791.4336">ReaderService</text><rect fill="#E2E2F0" height="32.6211" rx="2.5" ry="2.5" style="stroke:#181818;stroke-width:0.5;" width="129" x="1303.5" y="50"/><text fill="#000000" font-family="sans-serif" font-size="14" lengthAdjust="spacing" textLength="115" x="1310.5" y="72.1074">ReaderRepository</text><rect fill="#E2E2F0" height="32.6211" rx="2.5" ry="2.5" style="stroke:#181818;stroke-width:0.5;" width="129" x="1303.5" y="769.3262"/><text fill="#000000" font-family="sans-serif" font-size="14" lengthAdjust="spacing" textLength="115" x="1310.5" y="791.4336">ReaderRepository</text><rect fill="#E2E2F0" height="32.6211" rx="2.5" ry="2.5" style="stroke:#181818;stroke-width:0.5;" width="138" x="1442.5" y="50"/><text fill="#000000" font-family="sans-serif" font-size="14" lengthAdjust="spacing" textLength="124" x="1449.5" y="72.1074">ReaderViewMapper</text><rect fill="#E2E2F0" height="32.6211" rx="2.5" ry="2.5" style="stroke:#181818;stroke-width:0.5;" width="138" x="1442.5" y="769.3262"/><text fill="#000000" font-family="sans-serif" font-size="14" lengthAdjust="spacing" textLength="124" x="1449.5" y="791.4336">ReaderViewMapper</text><rect fill="#FFFFFF" height="401.668" style="stroke:#181818;stroke-width:1.0;" width="10" x="46" y="359.6582"/><rect fill="#FFFFFF" height="46" style="stroke:#181818;stroke-width:1.0;" width="10" x="51" y="715.3262"/><rect fill="#FFFFFF" height="644.4141" style="stroke:#181818;stroke-width:1.0;" width="10" x="397" y="116.9121"/><rect fill="#FFFFFF" height="644.4141" style="stroke:#181818;stroke-width:1.0;" width="10" x="397" y="116.9121"/><rect fill="#FFFFFF" height="117.582" style="stroke:#181818;stroke-width:1.0;" width="10" x="402" y="272.0762"/><rect fill="#FFFFFF" height="199.873" style="stroke:#181818;stroke-width:1.0;" width="10" x="402" y="561.4531"/><rect fill="#FFFFFF" height="91.291" style="stroke:#181818;stroke-width:1.0;" width="10" x="407" y="654.0352"/><rect fill="#FFFFFF" height="613.123" style="stroke:#181818;stroke-width:1.0;" width="10" x="582" y="148.2031"/><rect fill="#FFFFFF" height="613.123" style="stroke:#181818;stroke-width:1.0;" width="10" x="582" y="148.2031"/><rect fill="#FFFFFF" height="91.291" style="stroke:#181818;stroke-width:1.0;" width="10" x="587" y="210.7852"/><rect fill="#FFFFFF" height="581.832" style="stroke:#181818;stroke-width:1.0;" width="10" x="767" y="179.4941"/><rect fill="#FFFFFF" height="61.291" style="stroke:#181818;stroke-width:1.0;" width="10" x="767" y="179.4941"/><rect fill="#FFFFFF" height="323.7461" style="stroke:#181818;stroke-width:1.0;" width="10" x="892" y="437.5801"/><rect fill="#FFFFFF" height="323.7461" style="stroke:#181818;stroke-width:1.0;" width="10" x="892" y="437.5801"/><rect fill="#FFFFFF" height="91.291" style="stroke:#181818;stroke-width:1.0;" width="10" x="897" y="500.1621"/><rect fill="#FFFFFF" height="292.4551" style="stroke:#181818;stroke-width:1.0;" width="10" x="1368" y="468.8711"/><rect fill="#FFFFFF" height="61.291" style="stroke:#181818;stroke-width:1.0;" width="10" x="1368" y="468.8711"/><rect fill="#FFFFFF" height="138.582" style="stroke:#181818;stroke-width:1.0;" width="10" x="1511.5" y="622.7441"/><rect fill="#FFFFFF" height="61.291" style="stroke:#181818;stroke-width:1.0;" width="10" x="1511.5" y="622.7441"/><polygon fill="#181818" points="385,112.9121,395,116.9121,385,120.9121,389,116.9121" style="stroke:#181818;stroke-width:1.0;"/><line style="stroke:#181818;stroke-width:1.0;" x1="51" x2="391" y1="116.9121" y2="116.9121"/><text fill="#000000" font-family="sans-serif" font-size="13" font-weight="bold" lengthAdjust="spacing" textLength="7" x="58" y="111.6494">1</text><text fill="#000000" font-family="sans-serif" font-size="13" lengthAdjust="spacing" textLength="226" x="69" y="111.6494">GET /api/lendings/top-readers/{genreId}</text><polygon fill="#181818" points="570,144.2031,580,148.2031,570,152.2031,574,148.2031" style="stroke:#181818;stroke-width:1.0;"/><line style="stroke:#181818;stroke-width:1.0;" x1="407" x2="576" y1="148.2031" y2="148.2031"/><text fill="#000000" font-family="sans-serif" font-size="13" font-weight="bold" lengthAdjust="spacing" textLength="7" x="414" y="142.9404">2</text><text fill="#000000" font-family="sans-serif" font-size="13" lengthAdjust="spacing" textLength="129" x="425" y="142.9404">getGenreById(genreId)</text><polygon fill="#181818" points="755,175.4941,765,179.4941,755,183.4941,759,179.4941" style="stroke:#181818;stroke-width:1.0;"/><line style="stroke:#181818;stroke-width:1.0;" x1="592" x2="761" y1="179.4941" y2="179.4941"/><text fill="#000000" font-family="sans-serif" font-size="13" font-weight="bold" lengthAdjust="spacing" textLength="7" x="599" y="174.2314">3</text><text fill="#000000" font-family="sans-serif" font-size="13" lengthAdjust="spacing" textLength="131" x="610" y="174.2314">findGenreById(genreId)</text><polygon fill="#181818" points="608,206.7852,598,210.7852,608,214.7852,604,210.7852" style="stroke:#181818;stroke-width:1.0;"/><line style="stroke:#181818;stroke-width:1.0;" x1="602" x2="766" y1="210.7852" y2="210.7852"/><text fill="#000000" font-family="sans-serif" font-size="13" font-weight="bold" lengthAdjust="spacing" textLength="7" x="614" y="205.5225">4</text><text fill="#000000" font-family="sans-serif" font-size="13" lengthAdjust="spacing" textLength="135" x="625" y="205.5225">Optional&lt;Genre&gt; genre</text><polygon fill="#181818" points="423,268.0762,413,272.0762,423,276.0762,419,272.0762" style="stroke:#181818;stroke-width:1.0;"/><line style="stroke:#181818;stroke-width:1.0;" x1="417" x2="586" y1="272.0762" y2="272.0762"/><text fill="#000000" font-family="sans-serif" font-size="13" font-weight="bold" lengthAdjust="spacing" textLength="7" x="429" y="266.8135">5</text><text fill="#000000" font-family="sans-serif" font-size="13" lengthAdjust="spacing" textLength="135" x="440" y="266.8135">Optional&lt;Genre&gt; genre</text><path d="M10,317.0762 L71,317.0762 L71,326.3672 L61,336.3672 L10,336.3672 L10,317.0762 " fill="#EEEEEE" style="stroke:#000000;stroke-width:1.5;"/><rect fill="none" height="436.25" style="stroke:#000000;stroke-width:1.5;" width="1580.5" x="10" y="317.0762"/><text fill="#000000" font-family="sans-serif" font-size="13" font-weight="bold" lengthAdjust="spacing" textLength="16" x="25" y="332.1045">alt</text><text fill="#000000" font-family="sans-serif" font-size="11" font-weight="bold" lengthAdjust="spacing" textLength="97" x="86" y="330.9463">[genre not found]</text><polygon fill="#181818" points="67,355.6582,57,359.6582,67,363.6582,63,359.6582" style="stroke:#181818;stroke-width:1.0;"/><line style="stroke:#181818;stroke-width:1.0;" x1="61" x2="401" y1="359.6582" y2="359.6582"/><text fill="#000000" font-family="sans-serif" font-size="13" font-weight="bold" lengthAdjust="spacing" textLength="7" x="73" y="354.3955">6</text><text fill="#000000" font-family="sans-serif" font-size="13" lengthAdjust="spacing" textLength="121" x="84" y="354.3955">HTTP 404 Not Found</text><line style="stroke:#000000;stroke-width:1.0;stroke-dasharray:2.0,2.0;" x1="10" x2="1590.5" y1="398.6582" y2="398.6582"/><text fill="#000000" font-family="sans-serif" font-size="11" font-weight="bold" lengthAdjust="spacing" textLength="76" x="15" y="410.5283">[genre found]</text><polygon fill="#181818" points="880,433.5801,890,437.5801,880,441.5801,884,437.5801" style="stroke:#181818;stroke-width:1.0;"/><line style="stroke:#181818;stroke-width:1.0;" x1="407" x2="886" y1="437.5801" y2="437.5801"/><text fill="#000000" font-family="sans-serif" font-size="13" font-weight="bold" lengthAdjust="spacing" textLength="7" x="414" y="432.3174">7</text><text fill="#000000" font-family="sans-serif" font-size="13" lengthAdjust="spacing" textLength="312" x="425" y="432.3174">getTopReadersperGenre(5, genre, startDate, endDate)</text><polygon fill="#181818" points="1356,464.8711,1366,468.8711,1356,472.8711,1360,468.8711" style="stroke:#181818;stroke-width:1.0;"/><line style="stroke:#181818;stroke-width:1.0;" x1="902" x2="1362" y1="468.8711" y2="468.8711"/><text fill="#000000" font-family="sans-serif" font-size="13" font-weight="bold" lengthAdjust="spacing" textLength="7" x="909" y="463.6084">8</text><text fill="#000000" font-family="sans-serif" font-size="13" lengthAdjust="spacing" textLength="431" x="920" y="463.6084">findTopReadersPerGenre(PageRequest.of(0, 5), genre, startDate, endDate)</text><polygon fill="#181818" points="918,496.1621,908,500.1621,918,504.1621,914,500.1621" style="stroke:#181818;stroke-width:1.0;"/><line style="stroke:#181818;stroke-width:1.0;" x1="912" x2="1367" y1="500.1621" y2="500.1621"/><text fill="#000000" font-family="sans-serif" font-size="13" font-weight="bold" lengthAdjust="spacing" textLength="7" x="924" y="494.8994">9</text><text fill="#000000" font-family="sans-serif" font-size="13" lengthAdjust="spacing" textLength="125" x="935" y="494.8994">List&lt;Reader&gt; readers</text><polygon fill="#181818" points="423,557.4531,413,561.4531,423,565.4531,419,561.4531" style="stroke:#181818;stroke-width:1.0;"/><line style="stroke:#181818;stroke-width:1.0;" x1="417" x2="896" y1="561.4531" y2="561.4531"/><text fill="#000000" font-family="sans-serif" font-size="13" font-weight="bold" lengthAdjust="spacing" textLength="14" x="429" y="556.1904">10</text><text fill="#000000" font-family="sans-serif" font-size="13" lengthAdjust="spacing" textLength="146" x="447" y="556.1904">Iterable&lt;Reader&gt; readers</text><polygon fill="#181818" points="1499.5,618.7441,1509.5,622.7441,1499.5,626.7441,1503.5,622.7441" style="stroke:#181818;stroke-width:1.0;"/><line style="stroke:#181818;stroke-width:1.0;" x1="412" x2="1505.5" y1="622.7441" y2="622.7441"/><text fill="#000000" font-family="sans-serif" font-size="13" font-weight="bold" lengthAdjust="spacing" textLength="14" x="419" y="617.4814">11</text><text fill="#000000" font-family="sans-serif" font-size="13" lengthAdjust="spacing" textLength="131" x="437" y="617.4814">toReaderView(readers)</text><polygon fill="#181818" points="428,650.0352,418,654.0352,428,658.0352,424,654.0352" style="stroke:#181818;stroke-width:1.0;"/><line style="stroke:#181818;stroke-width:1.0;" x1="422" x2="1510.5" y1="654.0352" y2="654.0352"/><text fill="#000000" font-family="sans-serif" font-size="13" font-weight="bold" lengthAdjust="spacing" textLength="14" x="434" y="648.7725">12</text><text fill="#000000" font-family="sans-serif" font-size="13" lengthAdjust="spacing" textLength="202" x="452" y="648.7725">Iterable&lt;ReaderView&gt; readerViews</text><polygon fill="#181818" points="72,711.3262,62,715.3262,72,719.3262,68,715.3262" style="stroke:#181818;stroke-width:1.0;"/><line style="stroke:#181818;stroke-width:1.0;" x1="66" x2="406" y1="715.3262" y2="715.3262"/><text fill="#000000" font-family="sans-serif" font-size="13" font-weight="bold" lengthAdjust="spacing" textLength="14" x="78" y="710.0635">13</text><text fill="#000000" font-family="sans-serif" font-size="13" lengthAdjust="spacing" textLength="294" x="96" y="710.0635">HTTP 200 OK (Iterable&lt;ReaderView&gt; readerViews)</text><!--SRC=[bLFBRi8m4BpxA_QOIA69AhX4Y4DV59KMHAFU3LaYIwdjsWuLglhlpOFcJKbpSiQxCpkxQxepGi6IRHLLZ7924oDuyhv5bH_fph03DGY24r96mMW6I-GXuz6ju4Q9E4Rbm_m-09TAviR5dNQDa2E5D4IbtQy8kS95-4rAqWv7gj66CgrvblcAwi1sw4E49WTkZelGEf7Q5Mazc93wNqcrGIaqIuqVVTWp7bwagn98wxzRtaeQ9ZYDfpayWvoIX7YMiLDZJsk7aPQkQMoA4E32m5uaF2IGVhtTBSVgmsCGh67iZU4bJNieqsewtP5XhF4aTa5easz2VOw1a0Me9QhSWZLn2Z87jA7AtAMY3gHisS7EkSjQ6dmalsj0bMPxu9Nk-bTtJQDqA1y9QdCbzfRdmCJ-RocreLR5D7UbrOCbqsPQO3CulPHsoplS_KvxjcPXKD5jZCCK6etyOu1l33-VgPIPWX4LPftOUrjJ9TMghy1X1hBuNnFP-OoHcjRmhR_sF5WzWNL9qXxm8j97y0C0]--></g></svg>