<?xml version="1.0" encoding="us-ascii" standalone="no"?><svg xmlns="http://www.w3.org/2000/svg" xmlns:xlink="http://www.w3.org/1999/xlink" contentStyleType="text/css" height="502px" preserveAspectRatio="none" style="width:1204px;height:502px;background:#FFFFFF;" version="1.1" viewBox="0 0 1204 502" width="1204px" zoomAndPan="magnify"><defs/><g><rect fill="#FFFFFF" height="406.8341" style="stroke:#181818;stroke-width:1.0;" width="10" x="76" y="49.0679"/><rect fill="#FFFFFF" height="383.1281" style="stroke:#181818;stroke-width:1.0;" width="10" x="244" y="72.7739"/><rect fill="#FFFFFF" height="36.706" style="stroke:#181818;stroke-width:1.0;" width="10" x="249" y="410.196"/><rect fill="#FFFFFF" height="266.01" style="stroke:#181818;stroke-width:1.0;" width="10" x="443" y="104.4799"/><rect fill="#FFFFFF" height="95.118" style="stroke:#181818;stroke-width:1.0;" width="10" x="614" y="136.186"/><rect fill="#FFFFFF" height="31.706" style="stroke:#181818;stroke-width:1.0;" width="10" x="782" y="167.892"/><rect fill="#FFFFFF" height="31.706" style="stroke:#181818;stroke-width:1.0;" width="10" x="1099.5" y="263.01"/><line style="stroke:#181818;stroke-width:0.5;stroke-dasharray:5.0,5.0;" x1="81" x2="81" y1="39.0679" y2="464.902"/><line style="stroke:#181818;stroke-width:0.5;stroke-dasharray:5.0,5.0;" x1="249" x2="249" y1="39.0679" y2="464.902"/><line style="stroke:#181818;stroke-width:0.5;stroke-dasharray:5.0,5.0;" x1="447.5" x2="447.5" y1="39.0679" y2="464.902"/><line style="stroke:#181818;stroke-width:0.5;stroke-dasharray:5.0,5.0;" x1="618.5" x2="618.5" y1="39.0679" y2="464.902"/><line style="stroke:#181818;stroke-width:0.5;stroke-dasharray:5.0,5.0;" x1="787" x2="787" y1="39.0679" y2="464.902"/><line style="stroke:#181818;stroke-width:0.5;stroke-dasharray:5.0,5.0;" x1="937" x2="937" y1="334.75" y2="464.902"/><line style="stroke:#181818;stroke-width:0.5;stroke-dasharray:5.0,5.0;" x1="1104" x2="1104" y1="39.0679" y2="464.902"/><rect fill="#E2E2F0" height="33.0679" rx="2.5" ry="2.5" style="stroke:#181818;stroke-width:0.5;" width="152" x="5" y="5"/><text fill="#000000" font-family="sans-serif" font-size="14" lengthAdjust="spacing" textLength="138" x="12" y="26.9659">Librarian:HTTPClient</text><rect fill="#E2E2F0" height="33.0679" rx="2.5" ry="2.5" style="stroke:#181818;stroke-width:0.5;" width="152" x="5" y="463.902"/><text fill="#000000" font-family="sans-serif" font-size="14" lengthAdjust="spacing" textLength="138" x="12" y="485.868">Librarian:HTTPClient</text><rect fill="#E2E2F0" height="33.0679" rx="2.5" ry="2.5" style="stroke:#181818;stroke-width:0.5;" width="164" x="167" y="5"/><text fill="#000000" font-family="sans-serif" font-size="14" lengthAdjust="spacing" textLength="150" x="174" y="26.9659">handler:RouteHandler</text><rect fill="#E2E2F0" height="33.0679" rx="2.5" ry="2.5" style="stroke:#181818;stroke-width:0.5;" width="164" x="167" y="463.902"/><text fill="#000000" font-family="sans-serif" font-size="14" lengthAdjust="spacing" textLength="150" x="174" y="485.868">handler:RouteHandler</text><rect fill="#E2E2F0" height="33.0679" rx="2.5" ry="2.5" style="stroke:#181818;stroke-width:0.5;" width="117" x="389.5" y="5"/><text fill="#000000" font-family="sans-serif" font-size="14" lengthAdjust="spacing" textLength="103" x="396.5" y="26.9659">:BookController</text><rect fill="#E2E2F0" height="33.0679" rx="2.5" ry="2.5" style="stroke:#181818;stroke-width:0.5;" width="117" x="389.5" y="463.902"/><text fill="#000000" font-family="sans-serif" font-size="14" lengthAdjust="spacing" textLength="103" x="396.5" y="485.868">:BookController</text><rect fill="#E2E2F0" height="33.0679" rx="2.5" ry="2.5" style="stroke:#181818;stroke-width:0.5;" width="145" x="546.5" y="5"/><text fill="#000000" font-family="sans-serif" font-size="14" lengthAdjust="spacing" textLength="131" x="553.5" y="26.9659">service:BookService</text><rect fill="#E2E2F0" height="33.0679" rx="2.5" ry="2.5" style="stroke:#181818;stroke-width:0.5;" width="145" x="546.5" y="463.902"/><text fill="#000000" font-family="sans-serif" font-size="14" lengthAdjust="spacing" textLength="131" x="553.5" y="485.868">service:BookService</text><rect fill="#E2E2F0" height="33.0679" rx="2.5" ry="2.5" style="stroke:#181818;stroke-width:0.5;" width="152" x="711" y="5"/><text fill="#000000" font-family="sans-serif" font-size="14" lengthAdjust="spacing" textLength="138" x="718" y="26.9659">repo:BookRepository</text><rect fill="#E2E2F0" height="33.0679" rx="2.5" ry="2.5" style="stroke:#181818;stroke-width:0.5;" width="152" x="711" y="463.902"/><text fill="#000000" font-family="sans-serif" font-size="14" lengthAdjust="spacing" textLength="138" x="718" y="485.868">repo:BookRepository</text><rect fill="#E2E2F0" height="33.0679" rx="2.5" ry="2.5" style="stroke:#181818;stroke-width:0.5;" width="128" x="873" y="463.902"/><text fill="#000000" font-family="sans-serif" font-size="14" lengthAdjust="spacing" textLength="114" x="880" y="485.868">result:HttpResult</text><rect fill="#E2E2F0" height="33.0679" rx="2.5" ry="2.5" style="stroke:#181818;stroke-width:0.5;" width="187" x="1011" y="5"/><text fill="#000000" font-family="sans-serif" font-size="14" lengthAdjust="spacing" textLength="173" x="1018" y="26.9659">mapper:BookViewMapper</text><rect fill="#E2E2F0" height="33.0679" rx="2.5" ry="2.5" style="stroke:#181818;stroke-width:0.5;" width="187" x="1011" y="463.902"/><text fill="#000000" font-family="sans-serif" font-size="14" lengthAdjust="spacing" textLength="173" x="1018" y="485.868">mapper:BookViewMapper</text><rect fill="#FFFFFF" height="406.8341" style="stroke:#181818;stroke-width:1.0;" width="10" x="76" y="49.0679"/><rect fill="#FFFFFF" height="383.1281" style="stroke:#181818;stroke-width:1.0;" width="10" x="244" y="72.7739"/><rect fill="#FFFFFF" height="36.706" style="stroke:#181818;stroke-width:1.0;" width="10" x="249" y="410.196"/><rect fill="#FFFFFF" height="266.01" style="stroke:#181818;stroke-width:1.0;" width="10" x="443" y="104.4799"/><rect fill="#FFFFFF" height="95.118" style="stroke:#181818;stroke-width:1.0;" width="10" x="614" y="136.186"/><rect fill="#FFFFFF" height="31.706" style="stroke:#181818;stroke-width:1.0;" width="10" x="782" y="167.892"/><rect fill="#FFFFFF" height="31.706" style="stroke:#181818;stroke-width:1.0;" width="10" x="1099.5" y="263.01"/><polygon fill="#181818" points="232,68.7739,242,72.7739,232,76.7739,236,72.7739" style="stroke:#181818;stroke-width:1.0;"/><line style="stroke:#181818;stroke-width:1.0;" x1="86" x2="238" y1="72.7739" y2="72.7739"/><text fill="#000000" font-family="sans-serif" font-size="13" font-weight="bold" lengthAdjust="spacing" textLength="7" x="93" y="66.9649">1</text><text fill="#000000" font-family="sans-serif" font-size="13" lengthAdjust="spacing" textLength="105" x="104" y="66.9649">GET/Books/{isbn}</text><polygon fill="#181818" points="431,100.4799,441,104.4799,431,108.4799,435,104.4799" style="stroke:#181818;stroke-width:1.0;"/><line style="stroke:#181818;stroke-width:1.0;" x1="254" x2="437" y1="104.4799" y2="104.4799"/><text fill="#000000" font-family="sans-serif" font-size="13" font-weight="bold" lengthAdjust="spacing" textLength="7" x="261" y="98.6709">2</text><text fill="#000000" font-family="sans-serif" font-size="13" lengthAdjust="spacing" textLength="84" x="272" y="98.6709">getBook(isbn)</text><polygon fill="#181818" points="602,132.186,612,136.186,602,140.186,606,136.186" style="stroke:#181818;stroke-width:1.0;"/><line style="stroke:#181818;stroke-width:1.0;" x1="453" x2="608" y1="136.186" y2="136.186"/><text fill="#000000" font-family="sans-serif" font-size="13" font-weight="bold" lengthAdjust="spacing" textLength="7" x="460" y="130.377">3</text><text fill="#000000" font-family="sans-serif" font-size="13" lengthAdjust="spacing" textLength="131" x="471" y="130.377">getBooksByIsbn(isbn)</text><polygon fill="#181818" points="770,163.892,780,167.892,770,171.892,774,167.892" style="stroke:#181818;stroke-width:1.0;"/><line style="stroke:#181818;stroke-width:1.0;" x1="624" x2="776" y1="167.892" y2="167.892"/><text fill="#000000" font-family="sans-serif" font-size="13" font-weight="bold" lengthAdjust="spacing" textLength="7" x="631" y="162.083">4</text><text fill="#000000" font-family="sans-serif" font-size="13" lengthAdjust="spacing" textLength="128" x="642" y="162.083">findBookByIsbn(isbn)</text><polygon fill="#181818" points="635,195.598,625,199.598,635,203.598,631,199.598" style="stroke:#181818;stroke-width:1.0;"/><line style="stroke:#181818;stroke-width:1.0;stroke-dasharray:2.0,2.0;" x1="629" x2="786" y1="199.598" y2="199.598"/><text fill="#000000" font-family="sans-serif" font-size="13" font-weight="bold" lengthAdjust="spacing" textLength="7" x="641" y="193.789">5</text><text fill="#000000" font-family="sans-serif" font-size="13" lengthAdjust="spacing" textLength="31" x="652" y="193.789">book</text><polygon fill="#181818" points="464,227.304,454,231.304,464,235.304,460,231.304" style="stroke:#181818;stroke-width:1.0;"/><line style="stroke:#181818;stroke-width:1.0;stroke-dasharray:2.0,2.0;" x1="458" x2="618" y1="231.304" y2="231.304"/><text fill="#000000" font-family="sans-serif" font-size="13" font-weight="bold" lengthAdjust="spacing" textLength="7" x="470" y="225.495">6</text><text fill="#000000" font-family="sans-serif" font-size="13" lengthAdjust="spacing" textLength="31" x="481" y="225.495">book</text><polygon fill="#181818" points="1087.5,259.01,1097.5,263.01,1087.5,267.01,1091.5,263.01" style="stroke:#181818;stroke-width:1.0;"/><line style="stroke:#181818;stroke-width:1.0;" x1="453" x2="1093.5" y1="263.01" y2="263.01"/><text fill="#000000" font-family="sans-serif" font-size="13" font-weight="bold" lengthAdjust="spacing" textLength="7" x="460" y="257.201">7</text><text fill="#000000" font-family="sans-serif" font-size="13" lengthAdjust="spacing" textLength="111" x="471" y="257.201">toBookView(book)</text><polygon fill="#181818" points="464,290.716,454,294.716,464,298.716,460,294.716" style="stroke:#181818;stroke-width:1.0;"/><line style="stroke:#181818;stroke-width:1.0;stroke-dasharray:2.0,2.0;" x1="458" x2="1103.5" y1="294.716" y2="294.716"/><text fill="#000000" font-family="sans-serif" font-size="13" font-weight="bold" lengthAdjust="spacing" textLength="7" x="470" y="288.907">8</text><text fill="#000000" font-family="sans-serif" font-size="13" lengthAdjust="spacing" textLength="59" x="481" y="288.907">bookView</text><polygon fill="#181818" points="861,322.4221,871,326.4221,861,330.4221,865,326.4221" style="stroke:#181818;stroke-width:1.0;"/><line style="stroke:#181818;stroke-width:1.0;stroke-dasharray:2.0,2.0;" x1="453" x2="867" y1="326.4221" y2="326.4221"/><text fill="#000000" font-family="sans-serif" font-size="13" font-weight="bold" lengthAdjust="spacing" textLength="7" x="460" y="320.6131">9</text><text fill="#000000" font-family="sans-serif" font-size="13" lengthAdjust="spacing" textLength="131" x="471" y="320.6131">create(200, bookView)</text><rect fill="#E2E2F0" height="33.0679" rx="2.5" ry="2.5" style="stroke:#181818;stroke-width:0.5;" width="128" x="873" y="302.716"/><text fill="#000000" font-family="sans-serif" font-size="14" lengthAdjust="spacing" textLength="114" x="880" y="324.682">result:HttpResult</text><polygon fill="#181818" points="265,366.49,255,370.49,265,374.49,261,370.49" style="stroke:#181818;stroke-width:1.0;"/><line style="stroke:#181818;stroke-width:1.0;stroke-dasharray:2.0,2.0;" x1="259" x2="447" y1="370.49" y2="370.49"/><text fill="#000000" font-family="sans-serif" font-size="13" font-weight="bold" lengthAdjust="spacing" textLength="14" x="271" y="364.681">10</text><text fill="#000000" font-family="sans-serif" font-size="13" lengthAdjust="spacing" textLength="34" x="289" y="364.681">result</text><line style="stroke:#181818;stroke-width:1.0;" x1="254" x2="301" y1="397.196" y2="397.196"/><line style="stroke:#181818;stroke-width:1.0;" x1="301" x2="301" y1="397.196" y2="410.196"/><line style="stroke:#181818;stroke-width:1.0;" x1="260" x2="301" y1="410.196" y2="410.196"/><polygon fill="#181818" points="270,406.196,260,410.196,270,414.196,266,410.196" style="stroke:#181818;stroke-width:1.0;"/><text fill="#000000" font-family="sans-serif" font-size="13" font-weight="bold" lengthAdjust="spacing" textLength="14" x="266" y="391.387">11</text><text fill="#000000" font-family="sans-serif" font-size="13" lengthAdjust="spacing" textLength="157" x="284" y="391.387">setHttpResult(resp, result)</text><polygon fill="#181818" points="97,442.902,87,446.902,97,450.902,93,446.902" style="stroke:#181818;stroke-width:1.0;"/><line style="stroke:#181818;stroke-width:1.0;stroke-dasharray:2.0,2.0;" x1="91" x2="243" y1="446.902" y2="446.902"/><text fill="#000000" font-family="sans-serif" font-size="13" font-weight="bold" lengthAdjust="spacing" textLength="14" x="103" y="441.093">12</text><text fill="#000000" font-family="sans-serif" font-size="13" lengthAdjust="spacing" textLength="26" x="121" y="441.093">resp</text><!--SRC=[NP4nRy8m48Lt_mgBfGc21dNqq05KbKgjL07gxeGhM4rirxvGeQh_lJudmOJjpk-xPz_ptH7HUb4KjfOQswQ-hqnJUFXkGLSmtojvSB9XJBPeP8Ng916uqR7NRLE2OynAXwfIDXZmoQigdNHAQh7UxTvNjGAD4ouzJ-ruu2ZrlWOdDgP5M7TD7DYUFK8pXiNIcA-LqUXCFN0hTFMOyk1Ege88RxkwS-pgCUp0caXkGk4L6dUECBMtf6zh5EkGs2QMFKVbc6oajM4bSlrGyFCMsqYdDcGwv7aL3Kirdp_s6GZ-_BGhoCqNlygN-ezr0Y6qlk07GD8pKdD6Pt6y3sAG_VBy4e2UwbK2QLd1FvNU4pQYIEBpQxCo86duyeHuFDoSzXGSpH14HapEadWpJa9l4Hz5oKwdWbSEGaxPms8nkt1v0eUKkW-wocOGF63wjInWTjR3-OKEUCe-Ubds3m00]--></g></svg>