<?xml version="1.0" encoding="us-ascii" standalone="no"?><svg xmlns="http://www.w3.org/2000/svg" xmlns:xlink="http://www.w3.org/1999/xlink" contentStyleType="text/css" height="593px" preserveAspectRatio="none" style="width:1591px;height:593px;background:#FFFFFF;" version="1.1" viewBox="0 0 1591 593" width="1591px" zoomAndPan="magnify"><defs/><g><rect fill="#FFFFFF" height="489.3652" style="stroke:#181818;stroke-width:1.0;" width="10" x="68.5" y="48.6211"/><rect fill="#FFFFFF" height="475.0742" style="stroke:#181818;stroke-width:1.0;" width="10" x="304.5" y="71.9121"/><rect fill="#FFFFFF" height="475.0742" style="stroke:#181818;stroke-width:1.0;" width="10" x="304.5" y="71.9121"/><rect fill="#FFFFFF" height="36.291" style="stroke:#181818;stroke-width:1.0;" width="10" x="309.5" y="501.6953"/><rect fill="#FFFFFF" height="443.7832" style="stroke:#181818;stroke-width:1.0;" width="10" x="503.5" y="103.2031"/><rect fill="#FFFFFF" height="443.7832" style="stroke:#181818;stroke-width:1.0;" width="10" x="503.5" y="103.2031"/><rect fill="#FFFFFF" height="226.0371" style="stroke:#181818;stroke-width:1.0;" width="10" x="508.5" y="236.3672"/><rect fill="#FFFFFF" height="163.4551" style="stroke:#181818;stroke-width:1.0;" width="10" x="513.5" y="298.9492"/><rect fill="#FFFFFF" height="412.4922" style="stroke:#181818;stroke-width:1.0;" width="10" x="759.5" y="134.4941"/><rect fill="#FFFFFF" height="62.582" style="stroke:#181818;stroke-width:1.0;" width="10" x="759.5" y="134.4941"/><rect fill="#FFFFFF" height="31.291" style="stroke:#181818;stroke-width:1.0;" width="10" x="940.5" y="399.8223"/><rect fill="#FFFFFF" height="31.291" style="stroke:#181818;stroke-width:1.0;" width="10" x="940.5" y="399.8223"/><rect fill="#FFFFFF" height="31.291" style="stroke:#181818;stroke-width:1.0;" width="10" x="1132.5" y="165.7852"/><rect fill="#FFFFFF" height="31.291" style="stroke:#181818;stroke-width:1.0;" width="10" x="1132.5" y="165.7852"/><rect fill="#FFFFFF" height="31.291" style="stroke:#181818;stroke-width:1.0;" width="10" x="1410" y="330.2402"/><rect fill="none" height="113.1641" style="stroke:#000000;stroke-width:1.5;" width="1034.5" x="432.5" y="256.3672"/><line style="stroke:#181818;stroke-width:0.5;stroke-dasharray:5.0,5.0;" x1="73" x2="73" y1="38.6211" y2="555.9863"/><line style="stroke:#181818;stroke-width:0.5;stroke-dasharray:5.0,5.0;" x1="304" x2="304" y1="38.6211" y2="555.9863"/><line style="stroke:#181818;stroke-width:0.5;stroke-dasharray:5.0,5.0;" x1="503.5" x2="503.5" y1="38.6211" y2="555.9863"/><line style="stroke:#181818;stroke-width:0.5;stroke-dasharray:5.0,5.0;" x1="759" x2="759" y1="38.6211" y2="555.9863"/><line style="stroke:#181818;stroke-width:0.5;stroke-dasharray:5.0,5.0;" x1="940" x2="940" y1="38.6211" y2="555.9863"/><line style="stroke:#181818;stroke-width:0.5;stroke-dasharray:5.0,5.0;" x1="1132" x2="1132" y1="38.6211" y2="555.9863"/><line style="stroke:#181818;stroke-width:0.5;stroke-dasharray:5.0,5.0;" x1="1300" x2="1300" y1="38.6211" y2="555.9863"/><line style="stroke:#181818;stroke-width:0.5;stroke-dasharray:5.0,5.0;" x1="1415" x2="1415" y1="38.6211" y2="555.9863"/><line style="stroke:#181818;stroke-width:0.5;stroke-dasharray:5.0,5.0;" x1="1526" x2="1526" y1="38.6211" y2="555.9863"/><rect fill="#E2E2F0" height="32.6211" rx="2.5" ry="2.5" style="stroke:#181818;stroke-width:0.5;" width="137" x="5" y="5"/><text fill="#000000" font-family="sans-serif" font-size="14" lengthAdjust="spacing" textLength="123" x="12" y="27.1074">Reader:HTTPClient</text><rect fill="#E2E2F0" height="32.6211" rx="2.5" ry="2.5" style="stroke:#181818;stroke-width:0.5;" width="137" x="5" y="554.9863"/><text fill="#000000" font-family="sans-serif" font-size="14" lengthAdjust="spacing" textLength="123" x="12" y="577.0938">Reader:HTTPClient</text><rect fill="#E2E2F0" height="32.6211" rx="2.5" ry="2.5" style="stroke:#181818;stroke-width:0.5;" width="153" x="228" y="5"/><text fill="#000000" font-family="sans-serif" font-size="14" lengthAdjust="spacing" textLength="139" x="235" y="27.1074">handler:RouteHandler</text><rect fill="#E2E2F0" height="32.6211" rx="2.5" ry="2.5" style="stroke:#181818;stroke-width:0.5;" width="153" x="228" y="554.9863"/><text fill="#000000" font-family="sans-serif" font-size="14" lengthAdjust="spacing" textLength="139" x="235" y="577.0938">handler:RouteHandler</text><rect fill="#E2E2F0" height="32.6211" rx="2.5" ry="2.5" style="stroke:#181818;stroke-width:0.5;" width="122" x="442.5" y="5"/><text fill="#000000" font-family="sans-serif" font-size="14" lengthAdjust="spacing" textLength="108" x="449.5" y="27.1074">:AuthorController</text><rect fill="#E2E2F0" height="32.6211" rx="2.5" ry="2.5" style="stroke:#181818;stroke-width:0.5;" width="122" x="442.5" y="554.9863"/><text fill="#000000" font-family="sans-serif" font-size="14" lengthAdjust="spacing" textLength="108" x="449.5" y="577.0938">:AuthorController</text><rect fill="#E2E2F0" height="32.6211" rx="2.5" ry="2.5" style="stroke:#181818;stroke-width:0.5;" width="167" x="676" y="5"/><text fill="#000000" font-family="sans-serif" font-size="14" lengthAdjust="spacing" textLength="153" x="683" y="27.1074">service:BookServiceImpl</text><rect fill="#E2E2F0" height="32.6211" rx="2.5" ry="2.5" style="stroke:#181818;stroke-width:0.5;" width="167" x="676" y="554.9863"/><text fill="#000000" font-family="sans-serif" font-size="14" lengthAdjust="spacing" textLength="153" x="683" y="577.0938">service:BookServiceImpl</text><rect fill="#E2E2F0" height="32.6211" rx="2.5" ry="2.5" style="stroke:#181818;stroke-width:0.5;" width="175" x="853" y="5"/><text fill="#000000" font-family="sans-serif" font-size="14" lengthAdjust="spacing" textLength="161" x="860" y="27.1074">mapper:BookViewMapper</text><rect fill="#E2E2F0" height="32.6211" rx="2.5" ry="2.5" style="stroke:#181818;stroke-width:0.5;" width="175" x="853" y="554.9863"/><text fill="#000000" font-family="sans-serif" font-size="14" lengthAdjust="spacing" textLength="161" x="860" y="577.0938">mapper:BookViewMapper</text><rect fill="#E2E2F0" height="32.6211" rx="2.5" ry="2.5" style="stroke:#181818;stroke-width:0.5;" width="189" x="1038" y="5"/><text fill="#000000" font-family="sans-serif" font-size="14" lengthAdjust="spacing" textLength="175" x="1045" y="27.1074">repo:BookAuthorRepository</text><rect fill="#E2E2F0" height="32.6211" rx="2.5" ry="2.5" style="stroke:#181818;stroke-width:0.5;" width="189" x="1038" y="554.9863"/><text fill="#000000" font-family="sans-serif" font-size="14" lengthAdjust="spacing" textLength="175" x="1045" y="577.0938">repo:BookAuthorRepository</text><rect fill="#E2E2F0" height="32.6211" rx="2.5" ry="2.5" style="stroke:#181818;stroke-width:0.5;" width="126" x="1237" y="5"/><text fill="#000000" font-family="sans-serif" font-size="14" lengthAdjust="spacing" textLength="112" x="1244" y="27.1074">entity:BookAuthor</text><rect fill="#E2E2F0" height="32.6211" rx="2.5" ry="2.5" style="stroke:#181818;stroke-width:0.5;" width="126" x="1237" y="554.9863"/><text fill="#000000" font-family="sans-serif" font-size="14" lengthAdjust="spacing" textLength="112" x="1244" y="577.0938">entity:BookAuthor</text><rect fill="#E2E2F0" height="32.6211" rx="2.5" ry="2.5" style="stroke:#181818;stroke-width:0.5;" width="84" x="1373" y="5"/><text fill="#000000" font-family="sans-serif" font-size="14" lengthAdjust="spacing" textLength="70" x="1380" y="27.1074">entity:Book</text><rect fill="#E2E2F0" height="32.6211" rx="2.5" ry="2.5" style="stroke:#181818;stroke-width:0.5;" width="84" x="1373" y="554.9863"/><text fill="#000000" font-family="sans-serif" font-size="14" lengthAdjust="spacing" textLength="70" x="1380" y="577.0938">entity:Book</text><rect fill="#E2E2F0" height="32.6211" rx="2.5" ry="2.5" style="stroke:#181818;stroke-width:0.5;" width="118" x="1467" y="5"/><text fill="#000000" font-family="sans-serif" font-size="14" lengthAdjust="spacing" textLength="104" x="1474" y="27.1074">result:HttpResult</text><rect fill="#E2E2F0" height="32.6211" rx="2.5" ry="2.5" style="stroke:#181818;stroke-width:0.5;" width="118" x="1467" y="554.9863"/><text fill="#000000" font-family="sans-serif" font-size="14" lengthAdjust="spacing" textLength="104" x="1474" y="577.0938">result:HttpResult</text><rect fill="#FFFFFF" height="489.3652" style="stroke:#181818;stroke-width:1.0;" width="10" x="68.5" y="48.6211"/><rect fill="#FFFFFF" height="475.0742" style="stroke:#181818;stroke-width:1.0;" width="10" x="304.5" y="71.9121"/><rect fill="#FFFFFF" height="475.0742" style="stroke:#181818;stroke-width:1.0;" width="10" x="304.5" y="71.9121"/><rect fill="#FFFFFF" height="36.291" style="stroke:#181818;stroke-width:1.0;" width="10" x="309.5" y="501.6953"/><rect fill="#FFFFFF" height="443.7832" style="stroke:#181818;stroke-width:1.0;" width="10" x="503.5" y="103.2031"/><rect fill="#FFFFFF" height="443.7832" style="stroke:#181818;stroke-width:1.0;" width="10" x="503.5" y="103.2031"/><rect fill="#FFFFFF" height="226.0371" style="stroke:#181818;stroke-width:1.0;" width="10" x="508.5" y="236.3672"/><rect fill="#FFFFFF" height="163.4551" style="stroke:#181818;stroke-width:1.0;" width="10" x="513.5" y="298.9492"/><rect fill="#FFFFFF" height="412.4922" style="stroke:#181818;stroke-width:1.0;" width="10" x="759.5" y="134.4941"/><rect fill="#FFFFFF" height="62.582" style="stroke:#181818;stroke-width:1.0;" width="10" x="759.5" y="134.4941"/><rect fill="#FFFFFF" height="31.291" style="stroke:#181818;stroke-width:1.0;" width="10" x="940.5" y="399.8223"/><rect fill="#FFFFFF" height="31.291" style="stroke:#181818;stroke-width:1.0;" width="10" x="940.5" y="399.8223"/><rect fill="#FFFFFF" height="31.291" style="stroke:#181818;stroke-width:1.0;" width="10" x="1132.5" y="165.7852"/><rect fill="#FFFFFF" height="31.291" style="stroke:#181818;stroke-width:1.0;" width="10" x="1132.5" y="165.7852"/><rect fill="#FFFFFF" height="31.291" style="stroke:#181818;stroke-width:1.0;" width="10" x="1410" y="330.2402"/><polygon fill="#181818" points="292.5,67.9121,302.5,71.9121,292.5,75.9121,296.5,71.9121" style="stroke:#181818;stroke-width:1.0;"/><line style="stroke:#181818;stroke-width:1.0;" x1="78.5" x2="298.5" y1="71.9121" y2="71.9121"/><text fill="#000000" font-family="sans-serif" font-size="13" font-weight="bold" lengthAdjust="spacing" textLength="7" x="85.5" y="66.6494">1</text><text fill="#000000" font-family="sans-serif" font-size="13" lengthAdjust="spacing" textLength="191" x="96.5" y="66.6494">GET api/authors/{authorid}/books</text><polygon fill="#181818" points="491.5,99.2031,501.5,103.2031,491.5,107.2031,495.5,103.2031" style="stroke:#181818;stroke-width:1.0;"/><line style="stroke:#181818;stroke-width:1.0;" x1="314.5" x2="497.5" y1="103.2031" y2="103.2031"/><text fill="#000000" font-family="sans-serif" font-size="13" font-weight="bold" lengthAdjust="spacing" textLength="7" x="321.5" y="97.9404">2</text><text fill="#000000" font-family="sans-serif" font-size="13" lengthAdjust="spacing" textLength="147" x="332.5" y="97.9404">getAuthorBooks(authorId)</text><polygon fill="#181818" points="747.5,130.4941,757.5,134.4941,747.5,138.4941,751.5,134.4941" style="stroke:#181818;stroke-width:1.0;"/><line style="stroke:#181818;stroke-width:1.0;" x1="513.5" x2="753.5" y1="134.4941" y2="134.4941"/><text fill="#000000" font-family="sans-serif" font-size="13" font-weight="bold" lengthAdjust="spacing" textLength="7" x="520.5" y="129.2314">3</text><text fill="#000000" font-family="sans-serif" font-size="13" lengthAdjust="spacing" textLength="211" x="531.5" y="129.2314">getBookAuthorsByAuthorId(authorId)</text><polygon fill="#181818" points="1120.5,161.7852,1130.5,165.7852,1120.5,169.7852,1124.5,165.7852" style="stroke:#181818;stroke-width:1.0;"/><line style="stroke:#181818;stroke-width:1.0;" x1="769.5" x2="1126.5" y1="165.7852" y2="165.7852"/><text fill="#000000" font-family="sans-serif" font-size="13" font-weight="bold" lengthAdjust="spacing" textLength="7" x="776.5" y="160.5225">4</text><text fill="#000000" font-family="sans-serif" font-size="13" lengthAdjust="spacing" textLength="147" x="787.5" y="160.5225">getAuthorBooks(authorId)</text><polygon fill="#181818" points="775.5,193.0762,765.5,197.0762,775.5,201.0762,771.5,197.0762" style="stroke:#181818;stroke-width:1.0;"/><line style="stroke:#181818;stroke-width:1.0;stroke-dasharray:2.0,2.0;" x1="769.5" x2="1131.5" y1="197.0762" y2="197.0762"/><text fill="#000000" font-family="sans-serif" font-size="13" font-weight="bold" lengthAdjust="spacing" textLength="7" x="781.5" y="191.8135">5</text><text fill="#000000" font-family="sans-serif" font-size="13" lengthAdjust="spacing" textLength="105" x="792.5" y="191.8135">List&lt;BookAuthor&gt;</text><line style="stroke:#181818;stroke-width:1.0;" x1="513.5" x2="560.5" y1="223.3672" y2="223.3672"/><line style="stroke:#181818;stroke-width:1.0;" x1="560.5" x2="560.5" y1="223.3672" y2="236.3672"/><line style="stroke:#181818;stroke-width:1.0;" x1="519.5" x2="560.5" y1="236.3672" y2="236.3672"/><polygon fill="#181818" points="529.5,232.3672,519.5,236.3672,529.5,240.3672,525.5,236.3672" style="stroke:#181818;stroke-width:1.0;"/><text fill="#000000" font-family="sans-serif" font-size="13" font-weight="bold" lengthAdjust="spacing" textLength="7" x="525.5" y="218.1045">6</text><text fill="#000000" font-family="sans-serif" font-size="13" lengthAdjust="spacing" textLength="140" x="536.5" y="218.1045">Iterate over bookAuthors</text><path d="M432.5,256.3672 L505.5,256.3672 L505.5,265.6582 L495.5,275.6582 L432.5,275.6582 L432.5,256.3672 " fill="#EEEEEE" style="stroke:#000000;stroke-width:1.5;"/><rect fill="none" height="113.1641" style="stroke:#000000;stroke-width:1.5;" width="1034.5" x="432.5" y="256.3672"/><text fill="#000000" font-family="sans-serif" font-size="13" font-weight="bold" lengthAdjust="spacing" textLength="28" x="447.5" y="271.3955">loop</text><text fill="#000000" font-family="sans-serif" font-size="11" font-weight="bold" lengthAdjust="spacing" textLength="122" x="520.5" y="270.2373">[for each BookAuthor]</text><polygon fill="#181818" points="534.5,294.9492,524.5,298.9492,534.5,302.9492,530.5,298.9492" style="stroke:#181818;stroke-width:1.0;"/><line style="stroke:#181818;stroke-width:1.0;" x1="528.5" x2="1299" y1="298.9492" y2="298.9492"/><text fill="#000000" font-family="sans-serif" font-size="13" font-weight="bold" lengthAdjust="spacing" textLength="7" x="540.5" y="293.6865">7</text><text fill="#000000" font-family="sans-serif" font-size="13" lengthAdjust="spacing" textLength="56" x="551.5" y="293.6865">getBook()</text><polygon fill="#181818" points="1398,326.2402,1408,330.2402,1398,334.2402,1402,330.2402" style="stroke:#181818;stroke-width:1.0;"/><line style="stroke:#181818;stroke-width:1.0;" x1="523.5" x2="1404" y1="330.2402" y2="330.2402"/><text fill="#000000" font-family="sans-serif" font-size="13" font-weight="bold" lengthAdjust="spacing" textLength="7" x="530.5" y="324.9775">8</text><text fill="#000000" font-family="sans-serif" font-size="13" lengthAdjust="spacing" textLength="56" x="541.5" y="324.9775">getBook()</text><polygon fill="#181818" points="534.5,357.5313,524.5,361.5313,534.5,365.5313,530.5,361.5313" style="stroke:#181818;stroke-width:1.0;"/><line style="stroke:#181818;stroke-width:1.0;stroke-dasharray:2.0,2.0;" x1="528.5" x2="1414" y1="361.5313" y2="361.5313"/><text fill="#000000" font-family="sans-serif" font-size="13" font-weight="bold" lengthAdjust="spacing" textLength="7" x="540.5" y="356.2686">9</text><text fill="#000000" font-family="sans-serif" font-size="13" lengthAdjust="spacing" textLength="28" x="551.5" y="356.2686">book</text><polygon fill="#181818" points="928.5,395.8223,938.5,399.8223,928.5,403.8223,932.5,399.8223" style="stroke:#181818;stroke-width:1.0;"/><line style="stroke:#181818;stroke-width:1.0;" x1="523.5" x2="934.5" y1="399.8223" y2="399.8223"/><text fill="#000000" font-family="sans-serif" font-size="13" font-weight="bold" lengthAdjust="spacing" textLength="14" x="530.5" y="394.5596">10</text><text fill="#000000" font-family="sans-serif" font-size="13" lengthAdjust="spacing" textLength="133" x="548.5" y="394.5596">toBookView(booksList)</text><polygon fill="#181818" points="534.5,427.1133,524.5,431.1133,534.5,435.1133,530.5,431.1133" style="stroke:#181818;stroke-width:1.0;"/><line style="stroke:#181818;stroke-width:1.0;stroke-dasharray:2.0,2.0;" x1="528.5" x2="939.5" y1="431.1133" y2="431.1133"/><text fill="#000000" font-family="sans-serif" font-size="13" font-weight="bold" lengthAdjust="spacing" textLength="14" x="540.5" y="425.8506">11</text><text fill="#000000" font-family="sans-serif" font-size="13" lengthAdjust="spacing" textLength="116" x="558.5" y="425.8506">Iterable&lt;BookView&gt;</text><polygon fill="#181818" points="1514,458.4043,1524,462.4043,1514,466.4043,1518,462.4043" style="stroke:#181818;stroke-width:1.0;"/><line style="stroke:#181818;stroke-width:1.0;stroke-dasharray:2.0,2.0;" x1="513.5" x2="1520" y1="462.4043" y2="462.4043"/><text fill="#000000" font-family="sans-serif" font-size="13" font-weight="bold" lengthAdjust="spacing" textLength="14" x="520.5" y="457.1416">12</text><text fill="#000000" font-family="sans-serif" font-size="13" lengthAdjust="spacing" textLength="189" x="538.5" y="457.1416">create(200, Iterable&lt;BookView&gt;)</text><line style="stroke:#181818;stroke-width:1.0;" x1="314.5" x2="361.5" y1="488.6953" y2="488.6953"/><line style="stroke:#181818;stroke-width:1.0;" x1="361.5" x2="361.5" y1="488.6953" y2="501.6953"/><line style="stroke:#181818;stroke-width:1.0;" x1="320.5" x2="361.5" y1="501.6953" y2="501.6953"/><polygon fill="#181818" points="330.5,497.6953,320.5,501.6953,330.5,505.6953,326.5,501.6953" style="stroke:#181818;stroke-width:1.0;"/><text fill="#000000" font-family="sans-serif" font-size="13" font-weight="bold" lengthAdjust="spacing" textLength="14" x="326.5" y="483.4326">13</text><text fill="#000000" font-family="sans-serif" font-size="13" lengthAdjust="spacing" textLength="152" x="344.5" y="483.4326">setHttpResult(resp, result)</text><polygon fill="#181818" points="84.5,533.9863,74.5,537.9863,84.5,541.9863,80.5,537.9863" style="stroke:#181818;stroke-width:1.0;"/><line style="stroke:#181818;stroke-width:1.0;stroke-dasharray:2.0,2.0;" x1="78.5" x2="303.5" y1="537.9863" y2="537.9863"/><text fill="#000000" font-family="sans-serif" font-size="13" font-weight="bold" lengthAdjust="spacing" textLength="14" x="90.5" y="532.7236">14</text><text fill="#000000" font-family="sans-serif" font-size="13" lengthAdjust="spacing" textLength="25" x="108.5" y="532.7236">resp</text><!--SRC=[ZLDDImCn4BtdLmGltOAbnMCeWXQn1GMfnNksEzhWTXEIsKeH_xlvsDqagu8zR6SoxqqcRsOcl4NPjCSIz8GGv_0zYXD7eB8XCKY8uXh5NYZU8BtO0gz0i_LkzxIg1JHuGRcXqStH1zvKjOLlPOkm3eudF9yDmZ47iviM3rAlP8DQrZroXRhESGRqIUo1tKhv_XpipL7L7fsSvQGZLyeMuk8l0ZuUlJjGub7Eqg2avuJIjjOr0gK-3ymOo9bM2e7dX3jY_8aUSEDAJ5iZMoEghJSzBfYsVNthaaQGQDFPTQSue_TtEygLc7DVXfb_1aDKN_FItcfYhgv7uS-bSArWz0qmFC4LQOf0trJJIFGjSnz7IZhYkL42Stk-wSY_PKbRcTXzpYZyVqeQjIftwMnSvuCmk8oWQrB1Nwd6eRxaGO2WsWP1-zqwWQPbr83KKYhwAZMrQGxfW53xYswclpikfXwHoZoEETE_BH3ThGIQYcIzYQFFACh-fF2pu6GOYPXiIkuc5_ctbZKiUyGF_P8iNJ6M78QPqRq6Yokk5elBNr9Dqrn-qkA0zZDk0EEY57Prr2KD2pGTq1OU5uIvi4ep9ulq3G00]--></g></svg>