<?xml version="1.0" encoding="us-ascii" standalone="no"?><svg xmlns="http://www.w3.org/2000/svg" xmlns:xlink="http://www.w3.org/1999/xlink" contentStyleType="text/css" height="183px" preserveAspectRatio="none" style="width:300px;height:183px;background:#FFFFFF;" version="1.1" viewBox="0 0 300 183" width="300px" zoomAndPan="magnify"><defs/><g><!--class Reader--><g id="elem_Reader"><rect codeLine="5" fill="#F1F1F1" height="36.6211" id="Reader" rx="2.5" ry="2.5" style="stroke:#181818;stroke-width:0.5;" width="53" x="9.4828" y="7"/><text fill="#000000" font-family="sans-serif" font-size="14" lengthAdjust="spacing" textLength="47" x="12.4828" y="27.1074">Reader</text><line style="stroke:#181818;stroke-width:0.5;" x1="10.4828" x2="61.4828" y1="35.6211" y2="35.6211"/></g><!--class Librarian--><g id="elem_Librarian"><rect codeLine="8" fill="#F1F1F1" height="36.6211" id="Librarian" rx="2.5" ry="2.5" style="stroke:#181818;stroke-width:0.5;" width="62" x="163.9828" y="7"/><text fill="#000000" font-family="sans-serif" font-size="14" lengthAdjust="spacing" textLength="56" x="166.9828" y="27.1074">Librarian</text><line style="stroke:#181818;stroke-width:0.5;" x1="164.9828" x2="224.9828" y1="35.6211" y2="35.6211"/></g><!--class Lending--><g id="elem_Lending"><rect codeLine="11" fill="#F1F1F1" height="36.6211" id="Lending" rx="2.5" ry="2.5" style="stroke:#181818;stroke-width:0.5;" width="57" x="86.4828" y="140"/><text fill="#000000" font-family="sans-serif" font-size="14" lengthAdjust="spacing" textLength="51" x="89.4828" y="160.1074">Lending</text><line style="stroke:#181818;stroke-width:0.5;" x1="87.4828" x2="142.4828" y1="168.6211" y2="168.6211"/></g><!--link Reader to Lending--><g id="link_Reader_Lending"><path codeLine="14" d="M30.2328,44.1 C25.5128,61.96 21.3228,89.77 32.9828,110 C44.4028,129.81 67.5928,142.11 86.4128,149.22 " fill="none" id="Reader-Lending" style="stroke:#181818;stroke-width:1.0;"/><text fill="#000000" font-family="sans-serif" font-size="13" lengthAdjust="spacing" textLength="102" x="41.4828" y="89.0283">searches Lending</text><polygon fill="#000000" points="41.3395,105.3463,39.6682,95.9837,34.4842,98.7542,41.3395,105.3463" style="stroke:#000000;stroke-width:1.0;"/><text fill="#000000" font-family="sans-serif" font-size="13" lengthAdjust="spacing" textLength="104" x="46.9828" y="106.3193">by lendingNumber</text><text fill="#000000" font-family="sans-serif" font-size="13" lengthAdjust="spacing" textLength="20" x="6" y="65.5015">1..*</text><text fill="#000000" font-family="sans-serif" font-size="13" lengthAdjust="spacing" textLength="7" x="71.5958" y="141.9961">1</text></g><!--link Librarian to Lending--><g id="link_Librarian_Lending"><path codeLine="15" d="M188.3828,44.18 C181.5028,61.61 169.8028,88.64 155.9828,110 C149.1128,120.61 140.0528,131.36 132.1928,139.94 " fill="none" id="Librarian-Lending" style="stroke:#181818;stroke-width:1.0;"/><text fill="#000000" font-family="sans-serif" font-size="13" lengthAdjust="spacing" textLength="102" x="183.4828" y="89.0283">searches Lending</text><polygon fill="#000000" points="178.4524,105.2489,185.5647,98.9351,180.4952,95.9604,178.4524,105.2489" style="stroke:#000000;stroke-width:1.0;"/><text fill="#000000" font-family="sans-serif" font-size="13" lengthAdjust="spacing" textLength="104" x="188.9828" y="106.3193">by lendingNumber</text><text fill="#000000" font-family="sans-serif" font-size="13" lengthAdjust="spacing" textLength="20" x="163.9216" y="65.603">1..*</text><text fill="#000000" font-family="sans-serif" font-size="13" lengthAdjust="spacing" textLength="7" x="129.3915" y="128.7838">1</text></g><!--SRC=[VOsn2W8n44JxVCMIKhX3Mml1KX0BhxNP98jPJ7AooHKg_hk7mLD1x6OVysRpYTCP1IFOW3clIn4sGw6DxLF7LuAvykm8B8iDL7EaudkNbNegi2Tq93TrVu4j6q5XJF09AJbEnugg0dhHjZCDJJCc3LDb2PbGhAV9EYGm5mZrs0tHZF9AlVzy3_tR-J6Z7W00]--></g></svg>
