<?xml version="1.0" encoding="us-ascii" standalone="no"?><svg xmlns="http://www.w3.org/2000/svg" xmlns:xlink="http://www.w3.org/1999/xlink" contentStyleType="text/css" height="390px" preserveAspectRatio="none" style="width:1490px;height:390px;background:#FFFFFF;" version="1.1" viewBox="0 0 1490 390" width="1490px" zoomAndPan="magnify"><defs/><g><!--class RouteHandler--><g id="elem_RouteHandler"><rect codeLine="7" fill="#F1F1F1" height="63.2422" id="RouteHandler" rx="2.5" ry="2.5" style="stroke:#181818;stroke-width:0.5;" width="287" x="7" y="128.5"/><text fill="#000000" font-family="sans-serif" font-size="14" lengthAdjust="spacing" textLength="87" x="107" y="148.6074">RouteHandler</text><line style="stroke:#181818;stroke-width:0.5;" x1="8" x2="293" y1="157.1211" y2="157.1211"/><line style="stroke:#181818;stroke-width:0.5;" x1="8" x2="293" y1="165.1211" y2="165.1211"/><text fill="#000000" font-family="sans-serif" font-size="14" lengthAdjust="spacing" textLength="275" x="13" y="184.2285">+lendingDetails(lendingNumber): HttpResult</text></g><!--class HttpResult--><g id="elem_HttpResult"><rect codeLine="11" fill="#F1F1F1" height="100.4844" id="HttpResult" rx="2.5" ry="2.5" style="stroke:#181818;stroke-width:0.5;" width="318" x="715.5" y="7"/><text fill="#000000" font-family="sans-serif" font-size="14" lengthAdjust="spacing" textLength="65" x="842" y="27.1074">HttpResult</text><line style="stroke:#181818;stroke-width:0.5;" x1="716.5" x2="1032.5" y1="35.6211" y2="35.6211"/><text fill="#000000" font-family="sans-serif" font-size="14" lengthAdjust="spacing" textLength="116" x="721.5" y="54.7285">-status: HttpStatus</text><text fill="#000000" font-family="sans-serif" font-size="14" lengthAdjust="spacing" textLength="74" x="721.5" y="73.3496">-result: json</text><line style="stroke:#181818;stroke-width:0.5;" x1="716.5" x2="1032.5" y1="80.8633" y2="80.8633"/><text fill="#000000" font-family="sans-serif" font-size="14" lengthAdjust="spacing" textLength="306" x="721.5" y="99.9707">HttpResult(HttpStatus status, const json &amp;result);</text></g><!--class LendingService--><g id="elem_LendingService"><rect codeLine="17" fill="#F1F1F1" height="63.2422" id="LendingService" rx="2.5" ry="2.5" style="stroke:#181818;stroke-width:0.5;" width="405" x="672" y="213.5"/><text fill="#000000" font-family="sans-serif" font-size="14" lengthAdjust="spacing" textLength="98" x="825.5" y="233.6074">LendingService</text><line style="stroke:#181818;stroke-width:0.5;" x1="673" x2="1076" y1="242.1211" y2="242.1211"/><line style="stroke:#181818;stroke-width:0.5;" x1="673" x2="1076" y1="250.1211" y2="250.1211"/><text fill="#000000" font-family="sans-serif" font-size="14" lengthAdjust="spacing" textLength="393" x="678" y="269.2285">-getLendingByLendingNumber(lendingNumber:String):Lending</text></g><!--class LendingController--><g id="elem_LendingController"><rect codeLine="21" fill="#F1F1F1" height="63.2422" id="LendingController" rx="2.5" ry="2.5" style="stroke:#181818;stroke-width:0.5;" width="258" x="354" y="128.5"/><text fill="#000000" font-family="sans-serif" font-size="14" lengthAdjust="spacing" textLength="113" x="426.5" y="148.6074">LendingController</text><line style="stroke:#181818;stroke-width:0.5;" x1="355" x2="611" y1="157.1211" y2="157.1211"/><line style="stroke:#181818;stroke-width:0.5;" x1="355" x2="611" y1="165.1211" y2="165.1211"/><text fill="#000000" font-family="sans-serif" font-size="14" lengthAdjust="spacing" textLength="246" x="360" y="184.2285">+lendingDetails(lendingNumber):Result</text></g><!--class LendingRepository--><g id="elem_LendingRepository"><rect codeLine="25" fill="#F1F1F1" height="63.2422" id="LendingRepository" rx="2.5" ry="2.5" style="stroke:#181818;stroke-width:0.5;" width="346" x="1137" y="128.5"/><text fill="#000000" font-family="sans-serif" font-size="14" lengthAdjust="spacing" textLength="119" x="1250.5" y="148.6074">LendingRepository</text><line style="stroke:#181818;stroke-width:0.5;" x1="1138" x2="1482" y1="157.1211" y2="157.1211"/><line style="stroke:#181818;stroke-width:0.5;" x1="1138" x2="1482" y1="165.1211" y2="165.1211"/><text fill="#000000" font-family="sans-serif" font-size="14" lengthAdjust="spacing" textLength="334" x="1143" y="184.2285">+findLendingDetails(lendingNumber: String): Lending</text></g><!--class Lending--><g id="elem_Lending"><rect codeLine="29" fill="#F1F1F1" height="156.3477" id="Lending" rx="2.5" ry="2.5" style="stroke:#181818;stroke-width:0.5;" width="262" x="1179" y="227"/><text fill="#000000" font-family="sans-serif" font-size="14" lengthAdjust="spacing" textLength="51" x="1284.5" y="247.1074">Lending</text><line style="stroke:#181818;stroke-width:0.5;" x1="1180" x2="1440" y1="255.6211" y2="255.6211"/><text fill="#000000" font-family="sans-serif" font-size="14" lengthAdjust="spacing" textLength="145" x="1185" y="274.7285">-lendingNumber: String</text><text fill="#000000" font-family="sans-serif" font-size="14" lengthAdjust="spacing" textLength="100" x="1185" y="293.3496">-lendDate: Date</text><text fill="#000000" font-family="sans-serif" font-size="14" lengthAdjust="spacing" textLength="97" x="1185" y="311.9707">-limitDate: Date</text><text fill="#000000" font-family="sans-serif" font-size="14" lengthAdjust="spacing" textLength="111" x="1185" y="330.5918">-returnDate: Date</text><text fill="#000000" font-family="sans-serif" font-size="14" lengthAdjust="spacing" textLength="118" x="1185" y="349.2129">-returned: boolean</text><line style="stroke:#181818;stroke-width:0.5;" x1="1180" x2="1440" y1="356.7266" y2="356.7266"/><text fill="#000000" font-family="sans-serif" font-size="14" lengthAdjust="spacing" textLength="250" x="1185" y="375.834">lending(lendingNumber: String, ...): void</text></g><!--link RouteHandler to LendingController--><g id="link_RouteHandler_LendingController"><path codeLine="38" d="M294.06,160 C313.98,160 328.34,160 347.97,160 " fill="none" id="RouteHandler-to-LendingController" style="stroke:#181818;stroke-width:1.0;stroke-dasharray:7.0,7.0;"/><polygon fill="#181818" points="353.97,160,344.97,156,348.97,160,344.97,164,353.97,160" style="stroke:#181818;stroke-width:1.0;"/></g><!--link LendingController to LendingService--><g id="link_LendingController_LendingService"><path codeLine="39" d="M612.08,187.95 C649.44,196.1 684.658,203.7908 722.968,212.1508 " fill="none" id="LendingController-to-LendingService" style="stroke:#181818;stroke-width:1.0;stroke-dasharray:7.0,7.0;"/><polygon fill="#181818" points="728.83,213.43,720.8897,207.6031,723.945,212.364,719.1841,215.4192,728.83,213.43" style="stroke:#181818;stroke-width:1.0;"/></g><!--link LendingService to LendingRepository--><g id="link_LendingService_LendingRepository"><path codeLine="40" d="M1036.3,213.47 C1072.81,206.31 1105.7022,199.865 1142.2022,192.705 " fill="none" id="LendingService-to-LendingRepository" style="stroke:#181818;stroke-width:1.0;stroke-dasharray:7.0,7.0;"/><polygon fill="#181818" points="1148.09,191.55,1138.4883,189.3573,1143.1835,192.5125,1140.0283,197.2077,1148.09,191.55" style="stroke:#181818;stroke-width:1.0;"/></g><!--link LendingService to Lending--><g id="link_LendingService_Lending"><path codeLine="41" d="M1077.02,272.89 C1111.62,277.68 1140.8066,281.7177 1172.8966,286.1577 " fill="none" id="LendingService-to-Lending" style="stroke:#181818;stroke-width:1.0;stroke-dasharray:7.0,7.0;"/><polygon fill="#181818" points="1178.84,286.98,1170.4732,281.7842,1173.8872,286.2947,1169.3767,289.7088,1178.84,286.98" style="stroke:#181818;stroke-width:1.0;"/></g><!--link LendingController to HttpResult--><g id="link_LendingController_HttpResult"><path codeLine="42" d="M603.24,128.47 C638.58,119.12 672.0494,110.2739 709.4494,100.3839 " fill="none" id="LendingController-to-HttpResult" style="stroke:#181818;stroke-width:1.0;stroke-dasharray:7.0,7.0;"/><polygon fill="#181818" points="715.25,98.85,705.5265,97.2838,710.4162,100.1283,707.5717,105.0179,715.25,98.85" style="stroke:#181818;stroke-width:1.0;"/></g><!--link LendingRepository to LendingController--><g id="link_LendingRepository_LendingController"><path codeLine="43" d="M1136.92,160 C980.41,160 758.98,160 618,160 " fill="none" id="LendingRepository-to-LendingController" style="stroke:#181818;stroke-width:1.0;stroke-dasharray:7.0,7.0;"/><polygon fill="#181818" points="612,160,621,164,617,160,621,156,612,160" style="stroke:#181818;stroke-width:1.0;"/></g><!--SRC=[ZL91Ri8m4Bpx5NjgGONGiojLQik1IgW7yWAJB65Rnuxi3HAj-lU6n5422QWvMF5uTdOyw_izS-7bOb5ePRZCTPJOV95evVqy9PKvbGkDEmQsu2ZRCwJaC66oHeWzfGW9kKIZy5za2bNHeIv-ONQqBHdV4sjY-aPu5A8-WOsju9KogKO7FmAgxq6ZISbaIsH5sa_2zgFCj-Yc4bQLoGtwKhFuRMKwB8ZCFIikVSEEw_y6TpLBmgUlJ9-GhdJISQ4fdq5bs7DDXhkcTFhKjLqtrc9q1qemTCwG0_vwNFUzdzz4nbKe9flAm1celbd3pkf_1tEPIP3PO64ziNN7LcP79btVa9BGMeDhtjgKH-kwewLYb71Q0qOvyINea4jdnb5C9MojrQYQOOL-utvd44LHPVfWAJqvFdjRKVGy35OCe-xnmbZ5-RRFwBAzGRhIfFUCXvCQT_i7]--></g></svg>
