<?xml version="1.0" encoding="us-ascii" standalone="no"?><svg xmlns="http://www.w3.org/2000/svg" xmlns:xlink="http://www.w3.org/1999/xlink" contentStyleType="text/css" height="1187px" preserveAspectRatio="none" style="width:1012px;height:1187px;background:#FFFFFF;" version="1.1" viewBox="0 0 1012 1187" width="1012px" zoomAndPan="magnify"><defs/><g><!--class modifiedAt--><g id="elem_modifiedAt"><rect codeLine="5" fill="#F1F1F1" height="36.6211" id="modifiedAt" rx="2.5" ry="2.5" style="stroke:#181818;stroke-width:0.5;" width="72" x="97.5" y="661.5"/><text fill="#000000" font-family="sans-serif" font-size="14" lengthAdjust="spacing" textLength="66" x="100.5" y="681.6074">modifiedAt</text><line style="stroke:#181818;stroke-width:0.5;" x1="98.5" x2="168.5" y1="690.1211" y2="690.1211"/></g><!--class Role--><g id="elem_Role"><rect codeLine="7" fill="#F1F1F1" height="111.1055" id="Role" rx="2.5" ry="2.5" style="stroke:#181818;stroke-width:0.5;" width="87" x="7" y="388"/><text fill="#000000" font-family="sans-serif" font-size="14" lengthAdjust="spacing" textLength="29" x="36" y="408.1074">Role</text><line style="stroke:#181818;stroke-width:0.5;" x1="8" x2="93" y1="416.6211" y2="416.6211"/><text fill="#000000" font-family="sans-serif" font-size="14" lengthAdjust="spacing" textLength="47" x="13" y="435.7285">-ADMIN</text><text fill="#000000" font-family="sans-serif" font-size="14" lengthAdjust="spacing" textLength="75" x="13" y="454.3496">-LIBRARIAN</text><text fill="#000000" font-family="sans-serif" font-size="14" lengthAdjust="spacing" textLength="62" x="13" y="472.9707">-READER</text><text fill="#000000" font-family="sans-serif" font-size="14" lengthAdjust="spacing" textLength="60" x="13" y="491.5918">-authority</text></g><!--class Book--><g id="elem_Book"><rect codeLine="15" fill="#F1F1F1" height="111.1055" id="Book" rx="2.5" ry="2.5" style="stroke:#181818;stroke-width:0.5;" width="86" x="590.5" y="142"/><text fill="#000000" font-family="sans-serif" font-size="14" lengthAdjust="spacing" textLength="32" x="617.5" y="162.1074">Book</text><line style="stroke:#181818;stroke-width:0.5;" x1="591.5" x2="675.5" y1="170.6211" y2="170.6211"/><text fill="#000000" font-family="sans-serif" font-size="14" lengthAdjust="spacing" textLength="16" x="596.5" y="189.7285">-id</text><text fill="#000000" font-family="sans-serif" font-size="14" lengthAdjust="spacing" textLength="31" x="596.5" y="208.3496">-isbn</text><text fill="#000000" font-family="sans-serif" font-size="14" lengthAdjust="spacing" textLength="27" x="596.5" y="226.9707">-title</text><text fill="#000000" font-family="sans-serif" font-size="14" lengthAdjust="spacing" textLength="74" x="596.5" y="245.5918">-description</text></g><!--class BookCover--><g id="elem_BookCover"><rect codeLine="22" fill="#F1F1F1" height="92.4844" id="BookCover" rx="2.5" ry="2.5" style="stroke:#181818;stroke-width:0.5;" width="96" x="585.5" y="397.5"/><text fill="#000000" font-family="sans-serif" font-size="14" lengthAdjust="spacing" textLength="70" x="598.5" y="417.6074">BookCover</text><line style="stroke:#181818;stroke-width:0.5;" x1="586.5" x2="680.5" y1="426.1211" y2="426.1211"/><text fill="#000000" font-family="sans-serif" font-size="14" lengthAdjust="spacing" textLength="16" x="591.5" y="445.2285">-id</text><text fill="#000000" font-family="sans-serif" font-size="14" lengthAdjust="spacing" textLength="43" x="591.5" y="463.8496">-image</text><text fill="#000000" font-family="sans-serif" font-size="14" lengthAdjust="spacing" textLength="84" x="591.5" y="482.4707">-contentType</text></g><!--class BookAuthor--><g id="elem_BookAuthor"><rect codeLine="28" fill="#F1F1F1" height="55.2422" id="BookAuthor" rx="2.5" ry="2.5" style="stroke:#181818;stroke-width:0.5;" width="80" x="438.5" y="170"/><text fill="#000000" font-family="sans-serif" font-size="14" lengthAdjust="spacing" textLength="74" x="441.5" y="190.1074">BookAuthor</text><line style="stroke:#181818;stroke-width:0.5;" x1="439.5" x2="517.5" y1="198.6211" y2="198.6211"/><text fill="#000000" font-family="sans-serif" font-size="14" lengthAdjust="spacing" textLength="16" x="444.5" y="217.7285">-id</text></g><!--class Genre--><g id="elem_Genre"><rect codeLine="32" fill="#F1F1F1" height="73.8633" id="Genre" rx="2.5" ry="2.5" style="stroke:#181818;stroke-width:0.5;" width="52" x="607.5" y="7"/><text fill="#000000" font-family="sans-serif" font-size="14" lengthAdjust="spacing" textLength="40" x="613.5" y="27.1074">Genre</text><line style="stroke:#181818;stroke-width:0.5;" x1="608.5" x2="658.5" y1="35.6211" y2="35.6211"/><text fill="#000000" font-family="sans-serif" font-size="14" lengthAdjust="spacing" textLength="16" x="613.5" y="54.7285">-id</text><text fill="#000000" font-family="sans-serif" font-size="14" lengthAdjust="spacing" textLength="40" x="613.5" y="73.3496">-name</text></g><!--class Author--><g id="elem_Author"><rect codeLine="37" fill="#F1F1F1" height="92.4844" id="Author" rx="2.5" ry="2.5" style="stroke:#181818;stroke-width:0.5;" width="69" x="343" y="397.5"/><text fill="#000000" font-family="sans-serif" font-size="14" lengthAdjust="spacing" textLength="42" x="356.5" y="417.6074">Author</text><line style="stroke:#181818;stroke-width:0.5;" x1="344" x2="411" y1="426.1211" y2="426.1211"/><text fill="#000000" font-family="sans-serif" font-size="14" lengthAdjust="spacing" textLength="16" x="349" y="445.2285">-id</text><text fill="#000000" font-family="sans-serif" font-size="14" lengthAdjust="spacing" textLength="40" x="349" y="463.8496">-name</text><text fill="#000000" font-family="sans-serif" font-size="14" lengthAdjust="spacing" textLength="57" x="349" y="482.4707">-shortBio</text></g><!--class AuthorPhoto--><g id="elem_AuthorPhoto"><rect codeLine="43" fill="#F1F1F1" height="92.4844" id="AuthorPhoto" rx="2.5" ry="2.5" style="stroke:#181818;stroke-width:0.5;" width="96" x="404.5" y="634"/><text fill="#000000" font-family="sans-serif" font-size="14" lengthAdjust="spacing" textLength="79" x="413" y="654.1074">AuthorPhoto</text><line style="stroke:#181818;stroke-width:0.5;" x1="405.5" x2="499.5" y1="662.6211" y2="662.6211"/><text fill="#000000" font-family="sans-serif" font-size="14" lengthAdjust="spacing" textLength="16" x="410.5" y="681.7285">-id</text><text fill="#000000" font-family="sans-serif" font-size="14" lengthAdjust="spacing" textLength="43" x="410.5" y="700.3496">-image</text><text fill="#000000" font-family="sans-serif" font-size="14" lengthAdjust="spacing" textLength="84" x="410.5" y="718.9707">-contentType</text></g><!--class User--><g id="elem_User"><rect codeLine="50" fill="#F1F1F1" height="148.3477" id="User" rx="2.5" ry="2.5" style="stroke:#181818;stroke-width:0.5;" width="86" x="129.5" y="369.5"/><text fill="#000000" font-family="sans-serif" font-size="14" lengthAdjust="spacing" textLength="29" x="158" y="389.6074">User</text><line style="stroke:#181818;stroke-width:0.5;" x1="130.5" x2="214.5" y1="398.1211" y2="398.1211"/><text fill="#000000" font-family="sans-serif" font-size="14" lengthAdjust="spacing" textLength="16" x="135.5" y="417.2285">-id</text><text fill="#000000" font-family="sans-serif" font-size="14" lengthAdjust="spacing" textLength="74" x="135.5" y="435.8496">-modifiedBy</text><text fill="#000000" font-family="sans-serif" font-size="14" lengthAdjust="spacing" textLength="69" x="135.5" y="454.4707">-createdBy</text><text fill="#000000" font-family="sans-serif" font-size="14" lengthAdjust="spacing" textLength="68" x="135.5" y="473.0918">-username</text><text fill="#000000" font-family="sans-serif" font-size="14" lengthAdjust="spacing" textLength="65" x="135.5" y="491.7129">-password</text><text fill="#000000" font-family="sans-serif" font-size="14" lengthAdjust="spacing" textLength="59" x="135.5" y="510.334">-fullName</text></g><!--class Anonymous--><g id="elem_Anonymous"><rect codeLine="59" fill="#F1F1F1" height="36.6211" id="Anonymous" rx="2.5" ry="2.5" style="stroke:#181818;stroke-width:0.5;" width="80" x="132.5" y="179"/><text fill="#000000" font-family="sans-serif" font-size="14" lengthAdjust="spacing" textLength="74" x="135.5" y="199.1074">Anonymous</text><line style="stroke:#181818;stroke-width:0.5;" x1="133.5" x2="211.5" y1="207.6211" y2="207.6211"/></g><!--class Librarian--><g id="elem_Librarian"><rect codeLine="61" fill="#F1F1F1" height="36.6211" id="Librarian" rx="2.5" ry="2.5" style="stroke:#181818;stroke-width:0.5;" width="62" x="307.5" y="661.5"/><text fill="#000000" font-family="sans-serif" font-size="14" lengthAdjust="spacing" textLength="56" x="310.5" y="681.6074">Librarian</text><line style="stroke:#181818;stroke-width:0.5;" x1="308.5" x2="368.5" y1="690.1211" y2="690.1211"/></g><!--class Reader--><g id="elem_Reader"><rect codeLine="63" fill="#F1F1F1" height="204.2109" id="Reader" rx="2.5" ry="2.5" style="stroke:#181818;stroke-width:0.5;" width="110" x="444.5" y="805"/><text fill="#000000" font-family="sans-serif" font-size="14" lengthAdjust="spacing" textLength="47" x="476" y="825.1074">Reader</text><line style="stroke:#181818;stroke-width:0.5;" x1="445.5" x2="553.5" y1="833.6211" y2="833.6211"/><text fill="#000000" font-family="sans-serif" font-size="14" lengthAdjust="spacing" textLength="16" x="450.5" y="852.7285">-id</text><text fill="#000000" font-family="sans-serif" font-size="14" lengthAdjust="spacing" textLength="81" x="450.5" y="871.3496">-readerCode</text><text fill="#000000" font-family="sans-serif" font-size="14" lengthAdjust="spacing" textLength="40" x="450.5" y="889.9707">-name</text><text fill="#000000" font-family="sans-serif" font-size="14" lengthAdjust="spacing" textLength="38" x="450.5" y="908.5918">-email</text><text fill="#000000" font-family="sans-serif" font-size="14" lengthAdjust="spacing" textLength="29" x="450.5" y="927.2129">-age</text><text fill="#000000" font-family="sans-serif" font-size="14" lengthAdjust="spacing" textLength="94" x="450.5" y="945.834">-phoneNumber</text><text fill="#000000" font-family="sans-serif" font-size="14" lengthAdjust="spacing" textLength="98" x="450.5" y="964.4551">-GDBRConsent</text><text fill="#000000" font-family="sans-serif" font-size="14" lengthAdjust="spacing" textLength="79" x="450.5" y="983.0762">-funnyQuote</text><text fill="#000000" font-family="sans-serif" font-size="14" lengthAdjust="spacing" textLength="59" x="450.5" y="1001.6973">-interests</text></g><!--class ReaderPhoto--><g id="elem_ReaderPhoto"><rect codeLine="75" fill="#F1F1F1" height="92.4844" id="ReaderPhoto" rx="2.5" ry="2.5" style="stroke:#181818;stroke-width:0.5;" width="96" x="390.5" y="1088"/><text fill="#000000" font-family="sans-serif" font-size="14" lengthAdjust="spacing" textLength="84" x="396.5" y="1108.1074">ReaderPhoto</text><line style="stroke:#181818;stroke-width:0.5;" x1="391.5" x2="485.5" y1="1116.6211" y2="1116.6211"/><text fill="#000000" font-family="sans-serif" font-size="14" lengthAdjust="spacing" textLength="16" x="396.5" y="1135.7285">-id</text><text fill="#000000" font-family="sans-serif" font-size="14" lengthAdjust="spacing" textLength="43" x="396.5" y="1154.3496">-image</text><text fill="#000000" font-family="sans-serif" font-size="14" lengthAdjust="spacing" textLength="84" x="396.5" y="1172.9707">-contentType</text></g><!--class Lending--><g id="elem_Lending"><rect codeLine="81" fill="#F1F1F1" height="222.832" id="Lending" rx="2.5" ry="2.5" style="stroke:#181818;stroke-width:0.5;" width="108" x="716.5" y="332"/><text fill="#000000" font-family="sans-serif" font-size="14" lengthAdjust="spacing" textLength="51" x="745" y="352.1074">Lending</text><line style="stroke:#181818;stroke-width:0.5;" x1="717.5" x2="823.5" y1="360.6211" y2="360.6211"/><text fill="#000000" font-family="sans-serif" font-size="14" lengthAdjust="spacing" textLength="16" x="722.5" y="379.7285">-id</text><text fill="#000000" font-family="sans-serif" font-size="14" lengthAdjust="spacing" textLength="85" x="722.5" y="398.3496">-lendindCode</text><text fill="#000000" font-family="sans-serif" font-size="14" lengthAdjust="spacing" textLength="58" x="722.5" y="416.9707">-readerId</text><text fill="#000000" font-family="sans-serif" font-size="14" lengthAdjust="spacing" textLength="47" x="722.5" y="435.5918">-bookId</text><text fill="#000000" font-family="sans-serif" font-size="14" lengthAdjust="spacing" textLength="63" x="722.5" y="454.2129">-bookTitle</text><text fill="#000000" font-family="sans-serif" font-size="14" lengthAdjust="spacing" textLength="96" x="722.5" y="472.834">-daysTillReturn</text><text fill="#000000" font-family="sans-serif" font-size="14" lengthAdjust="spacing" textLength="59" x="722.5" y="491.4551">-returned</text><text fill="#000000" font-family="sans-serif" font-size="14" lengthAdjust="spacing" textLength="90" x="722.5" y="510.0762">-daysOverdue</text><text fill="#000000" font-family="sans-serif" font-size="14" lengthAdjust="spacing" textLength="28" x="722.5" y="528.6973">-fine</text><text fill="#000000" font-family="sans-serif" font-size="14" lengthAdjust="spacing" textLength="62" x="722.5" y="547.3184">-comment</text></g><!--class dateOfBirth--><g id="elem_dateOfBirth"><rect fill="#F1F1F1" height="36.6211" id="dateOfBirth" rx="2.5" ry="2.5" style="stroke:#181818;stroke-width:0.5;" width="78" x="521.5" y="1115.5"/><text fill="#000000" font-family="sans-serif" font-size="14" lengthAdjust="spacing" textLength="72" x="524.5" y="1135.6074">dateOfBirth</text><line style="stroke:#181818;stroke-width:0.5;" x1="522.5" x2="598.5" y1="1144.1211" y2="1144.1211"/></g><!--class createdAt--><g id="elem_createdAt"><rect fill="#F1F1F1" height="36.6211" id="createdAt" rx="2.5" ry="2.5" style="stroke:#181818;stroke-width:0.5;" width="67" x="205" y="661.5"/><text fill="#000000" font-family="sans-serif" font-size="14" lengthAdjust="spacing" textLength="61" x="208" y="681.6074">createdAt</text><line style="stroke:#181818;stroke-width:0.5;" x1="206" x2="271" y1="690.1211" y2="690.1211"/></g><!--class lendDate--><g id="elem_lendDate"><rect fill="#F1F1F1" height="36.6211" id="lendDate" rx="2.5" ry="2.5" style="stroke:#181818;stroke-width:0.5;" width="63" x="607" y="661.5"/><text fill="#000000" font-family="sans-serif" font-size="14" lengthAdjust="spacing" textLength="57" x="610" y="681.6074">lendDate</text><line style="stroke:#181818;stroke-width:0.5;" x1="608" x2="669" y1="690.1211" y2="690.1211"/></g><!--class returnedDate--><g id="elem_returnedDate"><rect fill="#F1F1F1" height="36.6211" id="returnedDate" rx="2.5" ry="2.5" style="stroke:#181818;stroke-width:0.5;" width="90" x="705.5" y="661.5"/><text fill="#000000" font-family="sans-serif" font-size="14" lengthAdjust="spacing" textLength="84" x="708.5" y="681.6074">returnedDate</text><line style="stroke:#181818;stroke-width:0.5;" x1="706.5" x2="794.5" y1="690.1211" y2="690.1211"/></g><!--class limitDate--><g id="elem_limitDate"><rect fill="#F1F1F1" height="36.6211" id="limitDate" rx="2.5" ry="2.5" style="stroke:#181818;stroke-width:0.5;" width="60" x="830.5" y="661.5"/><text fill="#000000" font-family="sans-serif" font-size="14" lengthAdjust="spacing" textLength="54" x="833.5" y="681.6074">limitDate</text><line style="stroke:#181818;stroke-width:0.5;" x1="831.5" x2="889.5" y1="690.1211" y2="690.1211"/></g><!--link Anonymous to User--><g id="link_Anonymous_User"><path codeLine="94" d="M172.5,216.05 C172.5,247.68 172.5,315.94 172.5,369.29 " fill="none" id="Anonymous-User" style="stroke:#181818;stroke-width:1.0;"/><polygon fill="#000000" points="177.5,297.6455,180.4389,288.6004,174.5611,288.6004,177.5,297.6455" style="stroke:#000000;stroke-width:1.0;"/><text fill="#000000" font-family="sans-serif" font-size="13" lengthAdjust="spacing" textLength="68" x="186.5" y="298.0283">registers as</text></g><!--reverse link Author to AuthorPhoto--><g id="link_Author_AuthorPhoto"><path codeLine="96" d="M395.6149,501.1399 C408.8949,542.6699 424.82,592.44 438.08,633.92 " fill="none" id="Author-backto-AuthorPhoto" style="stroke:#181818;stroke-width:1.0;"/><polygon fill="#181818" points="391.96,489.71,389.9775,496.6432,395.6149,501.1399,397.5974,494.2066,391.96,489.71" style="stroke:#181818;stroke-width:1.0;"/><text fill="#000000" font-family="sans-serif" font-size="13" lengthAdjust="spacing" textLength="7" x="386.6382" y="512.101">1</text><text fill="#000000" font-family="sans-serif" font-size="13" lengthAdjust="spacing" textLength="7" x="428.336" y="622.576">1</text></g><!--reverse link Reader to ReaderPhoto--><g id="link_Reader_ReaderPhoto"><path codeLine="98" d="M468.8915,1020.8923 C461.4315,1048.4223 456.86,1065.27 450.72,1087.92 " fill="none" id="Reader-backto-ReaderPhoto" style="stroke:#181818;stroke-width:1.0;"/><polygon fill="#181818" points="472.03,1009.31,466.6,1014.055,468.8915,1020.8923,474.3215,1016.1473,472.03,1009.31" style="stroke:#181818;stroke-width:1.0;"/><polygon fill="#000000" points="467.1917,1053.4713,472.395,1045.5103,466.7219,1043.9724,467.1917,1053.4713" style="stroke:#000000;stroke-width:1.0;"/><text fill="#000000" font-family="sans-serif" font-size="13" lengthAdjust="spacing" textLength="32" x="477.5" y="1054.0283">has a</text></g><!--reverse link Reader to dateOfBirth--><g id="link_Reader_dateOfBirth"><path codeLine="99" d="M530.1094,1020.8921 C541.0494,1061.2521 549.38,1091.97 555.66,1115.15 " fill="none" id="Reader-backto-dateOfBirth" style="stroke:#181818;stroke-width:1.0;"/><polygon fill="#181818" points="526.97,1009.31,524.679,1016.1475,530.1094,1020.8921,532.4004,1014.0545,526.97,1009.31" style="stroke:#181818;stroke-width:1.0;"/><polygon fill="#000000" points="544.8081,1053.4714,545.2782,1043.9724,539.6051,1045.5102,544.8081,1053.4714" style="stroke:#000000;stroke-width:1.0;"/><text fill="#000000" font-family="sans-serif" font-size="13" lengthAdjust="spacing" textLength="32" x="552.5" y="1054.0283">has a</text></g><!--link Reader to Book--><g id="link_Reader_Book"><path codeLine="100" d="M554.61,900.4 C646.56,887.75 829.01,847.82 908.5,726 C1005.52,577.3 944.03,477.65 842.5,332 C801.38,273.01 724.97,234.18 676.81,214.3 " fill="none" id="Reader-Book" style="stroke:#181818;stroke-width:1.0;"/><polygon fill="#000000" points="962.3767,589.723,957.8973,598.1126,963.6841,599.1433,962.3767,589.723" style="stroke:#000000;stroke-width:1.0;"/><text fill="#000000" font-family="sans-serif" font-size="13" lengthAdjust="spacing" textLength="32" x="970.5" y="600.0283">reads</text></g><!--reverse link User to Librarian--><g id="link_User_Librarian"><path codeLine="102" d="M226.0788,520.1923 C262.8688,572.1723 302.95,628.78 326.05,661.41 " fill="none" id="User-backto-Librarian" style="stroke:#181818;stroke-width:1.0;"/><polygon fill="none" points="215.68,505.5,221.1814,523.6586,230.9763,516.7261,215.68,505.5" style="stroke:#181818;stroke-width:1.0;"/><polygon fill="#000000" points="287.611,590.5646,290.4385,599.6451,295.2359,596.2489,287.611,590.5646" style="stroke:#000000;stroke-width:1.0;"/><text fill="#000000" font-family="sans-serif" font-size="13" lengthAdjust="spacing" textLength="21" x="299.5" y="600.0283">is a</text></g><!--reverse link User to Reader--><g id="link_User_Reader"><path codeLine="103" d="M125.9059,533.3234 C118.5959,546.0334 119.63,543.31 111.5,555 C85.05,593.04 59.62,590.57 43.5,634 C29.27,672.33 20.5,692.19 43.5,726 C135.06,860.58 344.32,894.54 444.31,903.11 " fill="none" id="User-backto-Reader" style="stroke:#181818;stroke-width:1.0;"/><polygon fill="none" points="134.88,517.72,120.7048,530.332,131.107,536.3147,134.88,517.72" style="stroke:#181818;stroke-width:1.0;"/><polygon fill="#000000" points="45.2375,676.3565,48.9123,685.1285,53.3665,681.2932,45.2375,676.3565" style="stroke:#000000;stroke-width:1.0;"/><text fill="#000000" font-family="sans-serif" font-size="13" lengthAdjust="spacing" textLength="21" x="57.5" y="685.5283">is a</text></g><!--link Role to User--><g id="link_Role_User"><path codeLine="104" d="M94.34,443.5 C106.05,443.5 117.75,443.5 129.45,443.5 " fill="none" id="Role-User" style="stroke:#181818;stroke-width:1.0;"/><text fill="#000000" font-family="sans-serif" font-size="13" lengthAdjust="spacing" textLength="7" x="101.8848" y="439.1884">1</text><text fill="#000000" font-family="sans-serif" font-size="13" lengthAdjust="spacing" textLength="7" x="114.4492" y="439.0625">1</text></g><!--link User to modifiedAt--><g id="link_User_modifiedAt"><path codeLine="105" d="M160.32,517.73 C151.96,567.99 141.5,630.88 136.47,661.12 " fill="none" id="User-modifiedAt" style="stroke:#181818;stroke-width:1.0;"/><polygon fill="#000000" points="152.6796,599.4322,157.0628,590.9919,151.2646,590.0275,152.6796,599.4322" style="stroke:#000000;stroke-width:1.0;"/><text fill="#000000" font-family="sans-serif" font-size="13" lengthAdjust="spacing" textLength="7" x="151.7765" y="539.8993">1</text><text fill="#000000" font-family="sans-serif" font-size="13" lengthAdjust="spacing" textLength="7" x="129.3143" y="650.2038">1</text></g><!--link User to createdAt--><g id="link_User_createdAt"><path codeLine="106" d="M193.11,517.73 C207.26,567.99 224.96,630.88 233.47,661.12 " fill="none" id="User-createdAt" style="stroke:#181818;stroke-width:1.0;"/><polygon fill="#000000" points="223.8547,599.313,224.233,589.8099,218.575,591.4025,223.8547,599.313" style="stroke:#000000;stroke-width:1.0;"/><text fill="#000000" font-family="sans-serif" font-size="13" lengthAdjust="spacing" textLength="7" x="187.7943" y="539.8993">1</text><text fill="#000000" font-family="sans-serif" font-size="13" lengthAdjust="spacing" textLength="7" x="223.9643" y="650.2038">1</text></g><!--reverse link Book to BookCover--><g id="link_Book_BookCover"><path codeLine="108" d="M633.5,265.26 C633.5,308.67 633.5,356.61 633.5,397.32 " fill="none" id="Book-backto-BookCover" style="stroke:#181818;stroke-width:1.0;"/><polygon fill="#181818" points="633.5,253.26,629.5,259.26,633.5,265.26,637.5,259.26,633.5,253.26" style="stroke:#181818;stroke-width:1.0;"/><text fill="#000000" font-family="sans-serif" font-size="13" lengthAdjust="spacing" textLength="7" x="626.0734" y="275.1313">1</text><text fill="#000000" font-family="sans-serif" font-size="13" lengthAdjust="spacing" textLength="7" x="625.9859" y="386.303">1</text></g><!--link Book to Lending--><g id="link_Book_Lending"><path codeLine="109" d="M664.25,253.26 C679.63,280.66 698.71,314.64 716.43,346.21 " fill="none" id="Book-Lending" style="stroke:#181818;stroke-width:1.0;"/><text fill="#000000" font-family="sans-serif" font-size="13" lengthAdjust="spacing" textLength="7" x="660.5711" y="275.1313">1</text><text fill="#000000" font-family="sans-serif" font-size="13" lengthAdjust="spacing" textLength="20" x="688.6215" y="330.3731">1..*</text></g><!--link Book to Librarian--><g id="link_Book_Librarian"><path codeLine="110" d="M590.26,231.81 C560.98,256.51 523.56,292.62 500.5,332 C437.02,440.42 492.64,499.09 423.5,604 C411.85,621.68 402.45,620.08 386.5,634 C376.51,642.71 365.72,652.77 356.91,661.16 " fill="none" id="Book-Librarian" style="stroke:#181818;stroke-width:1.0;"/><polygon fill="#000000" points="507.8876,439.2524,500.9862,445.7962,506.1506,448.603,507.8876,439.2524" style="stroke:#000000;stroke-width:1.0;"/><text fill="#000000" font-family="sans-serif" font-size="13" lengthAdjust="spacing" textLength="53" x="514.5" y="449.0283">manages</text></g><!--link BookAuthor to Book--><g id="link_BookAuthor_Book"><path codeLine="111" d="M518.76,197.5 C542.67,197.5 566.57,197.5 590.47,197.5 " fill="none" id="BookAuthor-Book" style="stroke:#181818;stroke-width:1.0;"/><text fill="#000000" font-family="sans-serif" font-size="13" lengthAdjust="spacing" textLength="20" x="526.4561" y="193.2305">1..*</text><text fill="#000000" font-family="sans-serif" font-size="13" lengthAdjust="spacing" textLength="7" x="575.4727" y="193.0833">1</text></g><!--link BookAuthor to Author--><g id="link_BookAuthor_Author"><path codeLine="112" d="M467.5,225.08 C450.37,266.45 417.13,346.77 396.19,397.35 " fill="none" id="BookAuthor-Author" style="stroke:#181818;stroke-width:1.0;"/><text fill="#000000" font-family="sans-serif" font-size="13" lengthAdjust="spacing" textLength="20" x="442.6438" y="247.4575">1..*</text><text fill="#000000" font-family="sans-serif" font-size="13" lengthAdjust="spacing" textLength="7" x="391.421" y="386.3374">1</text></g><!--link Genre to Book--><g id="link_Genre_Book"><path codeLine="113" d="M633.5,81.29 C633.5,99.41 633.5,109.71 633.5,129.85 " fill="none" id="Genre-to-Book" style="stroke:#181818;stroke-width:1.0;"/><polygon fill="#181818" points="633.5,141.85,637.5,135.85,633.5,129.85,629.5,135.85,633.5,141.85" style="stroke:#181818;stroke-width:1.0;"/><text fill="#000000" font-family="sans-serif" font-size="13" lengthAdjust="spacing" textLength="7" x="625.9203" y="102.9377">1</text><text fill="#000000" font-family="sans-serif" font-size="13" lengthAdjust="spacing" textLength="20" x="612.2188" y="130.671">1..*</text></g><!--reverse link Lending to lendDate--><g id="link_Lending_lendDate"><path codeLine="115" d="M710.5434,551.0169 C685.0534,596.2969 663,635.48 648.49,661.25 " fill="none" id="Lending-backto-lendDate" style="stroke:#181818;stroke-width:1.0;"/><polygon fill="#181818" points="716.43,540.56,710.001,543.8263,710.5434,551.0169,716.9723,547.7507,716.43,540.56" style="stroke:#181818;stroke-width:1.0;"/><text fill="#000000" font-family="sans-serif" font-size="13" lengthAdjust="spacing" textLength="7" x="701.3342" y="569.465">1</text><text fill="#000000" font-family="sans-serif" font-size="13" lengthAdjust="spacing" textLength="7" x="643.3964" y="650.372">1</text></g><!--reverse link Lending to returnedDate--><g id="link_Lending_returnedDate"><path codeLine="116" d="M760.0401,567.1866 C756.5401,608.2166 753.97,638.36 752.01,661.34 " fill="none" id="Lending-backto-returnedDate" style="stroke:#181818;stroke-width:1.0;"/><polygon fill="#181818" points="761.06,555.23,756.5645,560.8683,760.0401,567.1866,764.5356,561.5483,761.06,555.23" style="stroke:#181818;stroke-width:1.0;"/><text fill="#000000" font-family="sans-serif" font-size="13" lengthAdjust="spacing" textLength="7" x="753.231" y="576.9753">1</text><text fill="#000000" font-family="sans-serif" font-size="13" lengthAdjust="spacing" textLength="7" x="744.4006" y="650.1532">1</text></g><!--reverse link Lending to limitDate--><g id="link_Lending_limitDate"><path codeLine="117" d="M817.298,566.4339 C833.038,607.4639 844.9,638.36 853.72,661.34 " fill="none" id="Lending-backto-limitDate" style="stroke:#181818;stroke-width:1.0;"/><polygon fill="#181818" points="813,555.23,811.4144,562.2646,817.298,566.4339,818.8836,559.3993,813,555.23" style="stroke:#181818;stroke-width:1.0;"/><text fill="#000000" font-family="sans-serif" font-size="13" lengthAdjust="spacing" textLength="7" x="808.4984" y="576.9753">1</text><text fill="#000000" font-family="sans-serif" font-size="13" lengthAdjust="spacing" textLength="7" x="843.5718" y="650.1532">1</text></g><!--link Lending to Reader--><g id="link_Lending_Reader"><path codeLine="118" d="M716.49,535.03 C711.07,542.04 705.39,548.8 699.5,555 C658.05,598.65 625.14,585.5 589.5,634 C552.61,684.2 530.27,750.39 517.08,804.9 " fill="none" id="Lending-Reader" style="stroke:#181818;stroke-width:1.0;"/><text fill="#000000" font-family="sans-serif" font-size="13" lengthAdjust="spacing" textLength="20" x="688.6888" y="542.2056">0..*</text><text fill="#000000" font-family="sans-serif" font-size="13" lengthAdjust="spacing" textLength="7" x="511.114" y="793.8091">1</text></g><!--link Author to Librarian--><g id="link_Author_Librarian"><path codeLine="121" d="M366.44,489.81 C360.1,517.22 352.44,552.95 347.5,585 C343.43,611.41 340.89,642.3 339.59,661.25 " fill="none" id="Author-Librarian" style="stroke:#181818;stroke-width:1.0;"/><polygon fill="#000000" points="353.2736,589.7057,348.9706,598.1871,354.7776,599.0966,353.2736,589.7057" style="stroke:#000000;stroke-width:1.0;"/><text fill="#000000" font-family="sans-serif" font-size="13" lengthAdjust="spacing" textLength="53" x="361.5" y="600.0283">manages</text></g><!--link Librarian to Reader--><g id="link_Librarian_Reader"><path codeLine="122" d="M351.13,698.66 C371.07,726.52 411.02,782.34 444.44,829.05 " fill="none" id="Librarian-Reader" style="stroke:#181818;stroke-width:1.0;"/><polygon fill="#000000" points="413.4098,769.7116,410.5359,760.6456,405.7559,764.0663,413.4098,769.7116" style="stroke:#000000;stroke-width:1.0;"/><text fill="#000000" font-family="sans-serif" font-size="13" lengthAdjust="spacing" textLength="53" x="419.5" y="771.0283">manages</text></g><!--SRC=[bLH1Rjim4Bpp5KGk0G8eIAz6K42sbK20QxUoKkHAcskRY4GQ9DN0JVEClgWVwueK9JfA3l51Nd9sLhFB4SsJa4UcMKst5JCcjLQBJMCXtogv5h-1tf23u42tGcyhy74Dzg2u8SHHQAsus0dWgQKlhs6pK1NG5qBnbz1q_YrVTl4YdnPfaQTXNMJfF2kw1MkmiXRsHB1GLscgr5Ce97W8p4PseHKMXVcOWzbgSRH2IV8Q5vYfNw3fk4pDze6B3LkGjZmTuPoREb4HjqVlGMeO5PMiZYgCs56I3mtYTYhKMyxtWxBgCv8xzeDvhzLmIjDJ86jWDbetI8jK7R7KizA1lckgQddUc5JoLAl638U-41lDj60oyW4m3kFsjTkUAGxZUK3DH1KCqVTwF2W9owRUWEvsxkVJOgQamGdudLqZvUb7espW21oF1cCDUQFdqwFj-WF9XToFXrivW4Vz-0RpaB117vqjojYrx6HAKLK5s4RBla2x01xbhD33l0cidP23sBfkfu12-rEX2LVFCl5kc62vlJ0u3KEPeLynprcCNdove5T9uluZrn7Yv-ImQ6HOw81yXXMY18u-MkscGjl3E271d_kCd0Z6tTkTgDi_YFIMGLYqnDi8x4gS8wtKf8ATzQhRYoO2VDDj65rB4tpdUodT9z1b4ASodaX_SmoGGwwlhow26JmKTpAXDPFe98EA1rvGxBZ3jKA6C81dnn4gEEGgQOuUT3SF8S6GiUZMYtDiwrqmkEh3X4hKmfwZDx4gVoJaikhGnjkhwxZtrKVp68wxFzu1nYEu_9aL-Lq-ImkQhkawA_6PqHKjiyToHRDbMMGqMxZD5d_0nsorp1x__StMv3y0]--></g></svg>