<?xml version="1.0" encoding="us-ascii" standalone="no"?><svg xmlns="http://www.w3.org/2000/svg" xmlns:xlink="http://www.w3.org/1999/xlink" contentStyleType="text/css" height="5027px" preserveAspectRatio="none" style="width:921px;height:5027px;background:#FFFFFF;" version="1.1" viewBox="0 0 921 5027" width="921px" zoomAndPan="magnify"><defs/><g><text fill="#000000" font-family="sans-serif" font-size="14" font-weight="bold" lengthAdjust="spacing" textLength="127" x="390" y="25.1074">Use Case Diagram</text><!--cluster Phase1--><g id="cluster_Phase1"><rect fill="none" height="2127" rx="2.5" ry="2.5" style="stroke:#181818;stroke-width:1.0;" width="645" x="199" y="46.6211"/><text fill="#000000" font-family="sans-serif" font-size="14" font-weight="bold" lengthAdjust="spacing" textLength="51" x="496" y="63.7285">Phase1</text></g><!--cluster Phase2--><g id="cluster_Phase2"><rect fill="none" height="2824" rx="2.5" ry="2.5" style="stroke:#181818;stroke-width:1.0;" width="787" x="128" y="2197.6211"/><text fill="#000000" font-family="sans-serif" font-size="14" font-weight="bold" lengthAdjust="spacing" textLength="51" x="496" y="2214.7285">Phase2</text></g><g id="elem_US01"><ellipse cx="521.7235" cy="207.5658" fill="#F1F1F1" rx="180.2235" ry="38.4447" style="stroke:#181818;stroke-width:0.5;"/><text fill="#000000" font-family="sans-serif" font-size="14" lengthAdjust="spacing" textLength="330" x="356.7235" y="211.3627">US01 -  'bootstrap' user credential data for librarians</text></g><g id="elem_US02"><ellipse cx="521.7122" cy="108.8635" fill="#F1F1F1" rx="114.2122" ry="25.2424" style="stroke:#181818;stroke-width:0.5;"/><text fill="#000000" font-family="sans-serif" font-size="14" lengthAdjust="spacing" textLength="190" x="426.7122" y="112.6604">US02 -  'bootstrap' genre data</text></g><g id="elem_US03"><ellipse cx="521.6459" cy="1557.7503" fill="#F1F1F1" rx="216.1459" ry="45.6292" style="stroke:#181818;stroke-width:0.5;"/><text fill="#000000" font-family="sans-serif" font-size="14" lengthAdjust="spacing" textLength="404" x="319.6459" y="1561.5471">US03 - As Librarian I want to register an author 'name, short bio'</text></g><g id="elem_US04"><ellipse cx="521.654" cy="1677.4519" fill="#F1F1F1" rx="182.154" ry="38.8308" style="stroke:#181818;stroke-width:0.5;"/><text fill="#000000" font-family="sans-serif" font-size="14" lengthAdjust="spacing" textLength="334" x="354.654" y="1681.2488">US04 - As Librarian I want to update an author&#8217;s data</text></g><g id="elem_US05"><ellipse cx="521.3368" cy="897.4885" fill="#F1F1F1" rx="287.3368" ry="59.8674" style="stroke:#181818;stroke-width:0.5;"/><text fill="#000000" font-family="sans-serif" font-size="14" lengthAdjust="spacing" textLength="549" x="246.8368" y="901.2853">US05 - As Librarian or Reader I want to know an author&#8217;s detail given its author number</text></g><g id="elem_US06"><ellipse cx="521.6459" cy="1038.7503" fill="#F1F1F1" rx="216.1459" ry="45.6292" style="stroke:#181818;stroke-width:0.5;"/><text fill="#000000" font-family="sans-serif" font-size="14" lengthAdjust="spacing" textLength="404" x="319.6459" y="1042.5471">US06 - As Librarian or Reader I want to search authors by name</text></g><g id="elem_US07"><ellipse cx="521.6952" cy="2012.4601" fill="#F1F1F1" rx="157.1952" ry="33.839" style="stroke:#181818;stroke-width:0.5;"/><text fill="#000000" font-family="sans-serif" font-size="14" lengthAdjust="spacing" textLength="282" x="380.6952" y="2016.257">US07 - As Librarian, I want to register a book</text></g><g id="elem_US08"><ellipse cx="521.4792" cy="1302.7169" fill="#F1F1F1" rx="173.4792" ry="37.0958" style="stroke:#181818;stroke-width:0.5;"/><text fill="#000000" font-family="sans-serif" font-size="14" lengthAdjust="spacing" textLength="316" x="363.4792" y="1306.5138">US08 - As Librarian I want to update a book&#8217;s data</text></g><g id="elem_US09"><ellipse cx="521.6583" cy="1174.6528" fill="#F1F1F1" rx="265.6583" ry="55.5317" style="stroke:#181818;stroke-width:0.5;"/><text fill="#000000" font-family="sans-serif" font-size="14" lengthAdjust="spacing" textLength="505" x="269.1583" y="1178.4496">US09 - As Librarian or Reader I want to know the details of a book given its ISBN</text></g><g id="elem_US10"><ellipse cx="521.7443" cy="594.4699" fill="#F1F1F1" rx="212.2443" ry="44.8489" style="stroke:#181818;stroke-width:0.5;"/><text fill="#000000" font-family="sans-serif" font-size="14" lengthAdjust="spacing" textLength="396" x="323.7443" y="598.2668">US10 - As Librarian or Reader I want to search books by genre</text></g><g id="elem_US11"><ellipse cx="521.3125" cy="2119.5836" fill="#F1F1F1" rx="177.8125" ry="37.9625" style="stroke:#181818;stroke-width:0.5;"/><text fill="#000000" font-family="sans-serif" font-size="14" lengthAdjust="spacing" textLength="325" x="358.8125" y="2123.3805">US11 - As anonymous I want to register as a reader</text></g><g id="elem_US12"><ellipse cx="521.706" cy="475.6623" fill="#F1F1F1" rx="180.706" ry="38.5412" style="stroke:#181818;stroke-width:0.5;"/><text fill="#000000" font-family="sans-serif" font-size="14" lengthAdjust="spacing" textLength="331" x="356.206" y="479.4592">US12 - As Reader I want to update my personal data</text></g><g id="elem_US13"><ellipse cx="521.5382" cy="1425.8287" fill="#F1F1F1" rx="244.0382" ry="51.2076" style="stroke:#181818;stroke-width:0.5;"/><text fill="#000000" font-family="sans-serif" font-size="14" lengthAdjust="spacing" textLength="461" x="291.0382" y="1429.6256">US13 - As Librarian I want to know a user&#8217;s detail given its reader number</text></g><g id="elem_US14"><ellipse cx="521.5196" cy="1791.725" fill="#F1F1F1" rx="186.0196" ry="39.6039" style="stroke:#181818;stroke-width:0.5;"/><text fill="#000000" font-family="sans-serif" font-size="14" lengthAdjust="spacing" textLength="342" x="350.5196" y="1795.5219">US14 - As Librarian I want to search Readers by name</text></g><g id="elem_US15"><ellipse cx="521.706" cy="1904.6623" fill="#F1F1F1" rx="180.706" ry="38.5412" style="stroke:#181818;stroke-width:0.5;"/><text fill="#000000" font-family="sans-serif" font-size="14" lengthAdjust="spacing" textLength="331" x="356.206" y="1908.4592">US15 - As Librarian I want to lend a book to a reader</text></g><g id="elem_US16"><ellipse cx="521.3166" cy="341.7844" fill="#F1F1F1" rx="288.8166" ry="60.1633" style="stroke:#181818;stroke-width:0.5;"/><text fill="#000000" font-family="sans-serif" font-size="14" lengthAdjust="spacing" textLength="552" x="245.3166" y="345.5813">US16 - As Reader I want to return a book. If the return is overdue I&#8217;m fined by the library</text></g><g id="elem_US17"><ellipse cx="521.5904" cy="738.8392" fill="#F1F1F1" rx="306.5904" ry="63.7181" style="stroke:#181818;stroke-width:0.5;"/><text fill="#000000" font-family="sans-serif" font-size="14" lengthAdjust="spacing" textLength="588" x="227.5904" y="742.6361">US17 - As Reader or Librarian I want to know the details of a lending given its lending number</text></g><g id="elem_US01B"><ellipse cx="521.7069" cy="2279.7625" fill="#F1F1F1" rx="213.7069" ry="45.1414" style="stroke:#181818;stroke-width:0.5;"/><text fill="#000000" font-family="sans-serif" font-size="14" lengthAdjust="spacing" textLength="399" x="322.2069" y="2283.5594">US01B -  'bootstrap' author and book data with meaningful data</text></g><g id="elem_US02B"><ellipse cx="521.536" cy="2399.6283" fill="#F1F1F1" rx="185.536" ry="39.5072" style="stroke:#181818;stroke-width:0.5;"/><text fill="#000000" font-family="sans-serif" font-size="14" lengthAdjust="spacing" textLength="341" x="351.036" y="2403.4252">US02B -  'bootstrap' lending data with meaningful data</text></g><g id="elem_US03B"><ellipse cx="521.6739" cy="4470.4559" fill="#F1F1F1" rx="237.1739" ry="49.8348" style="stroke:#181818;stroke-width:0.5;"/><text fill="#000000" font-family="sans-serif" font-size="14" lengthAdjust="spacing" textLength="447" x="298.1739" y="4474.2527">US03B - As Librarian I want to register an author with an optional photo</text></g><g id="elem_US04B"><ellipse cx="521.6927" cy="3077.7596" fill="#F1F1F1" rx="196.1927" ry="41.6385" style="stroke:#181818;stroke-width:0.5;"/><text fill="#000000" font-family="sans-serif" font-size="14" lengthAdjust="spacing" textLength="363" x="340.1927" y="3081.5565">US04B - As Reader I want to know the books of an Author</text></g><g id="elem_US05B"><ellipse cx="521.7446" cy="2535.87" fill="#F1F1F1" rx="294.2446" ry="61.2489" style="stroke:#181818;stroke-width:0.5;"/><text fill="#000000" font-family="sans-serif" font-size="14" lengthAdjust="spacing" textLength="563" x="240.2446" y="2539.6669">US05B - As Reader I want to know the co-authors of an author and their respective books</text></g><g id="elem_US06B"><ellipse cx="521.4478" cy="2690.4107" fill="#F1F1F1" rx="279.4478" ry="58.2896" style="stroke:#181818;stroke-width:0.5;"/><text fill="#000000" font-family="sans-serif" font-size="14" lengthAdjust="spacing" textLength="533" x="254.9478" y="2694.2075">US06B - As Reader I want to know the Top 5 authors which have the most lent books</text></g><g id="elem_US07B"><ellipse cx="521.6939" cy="3353.7599" fill="#F1F1F1" rx="236.1939" ry="49.6388" style="stroke:#181818;stroke-width:0.5;"/><text fill="#000000" font-family="sans-serif" font-size="14" lengthAdjust="spacing" textLength="445" x="299.1939" y="3357.5568">US07B - As Librarian, I want to register a book with a book cover photo</text></g><g id="elem_US08B"><ellipse cx="521.5367" cy="2821.4284" fill="#F1F1F1" rx="172.0367" ry="36.8073" style="stroke:#181818;stroke-width:0.5;"/><text fill="#000000" font-family="sans-serif" font-size="14" lengthAdjust="spacing" textLength="313" x="365.0367" y="2825.2253">US08B - As Reader I want to search books by title</text></g><g id="elem_US09B"><ellipse cx="521.2673" cy="3632.7746" fill="#F1F1F1" rx="193.7673" ry="41.1535" style="stroke:#181818;stroke-width:0.5;"/><text fill="#000000" font-family="sans-serif" font-size="14" lengthAdjust="spacing" textLength="358" x="342.2673" y="3636.5714">US09B - As Librarian I want to know the Top 5 books lent</text></g><g id="elem_US10B"><ellipse cx="521.6029" cy="3747.7417" fill="#F1F1F1" rx="183.6029" ry="39.1206" style="stroke:#181818;stroke-width:0.5;"/><text fill="#000000" font-family="sans-serif" font-size="14" lengthAdjust="spacing" textLength="337" x="353.1029" y="3751.5385">US10B - As Librarian I want to know the Top 5 genres</text></g><g id="elem_US11B"><ellipse cx="521.5196" cy="3861.725" fill="#F1F1F1" rx="186.0196" ry="39.6039" style="stroke:#181818;stroke-width:0.5;"/><text fill="#000000" font-family="sans-serif" font-size="14" lengthAdjust="spacing" textLength="342" x="350.5196" y="3865.5219">US11B - As Librarian I want to know the Top 5 readers</text></g><g id="elem_US12B"><ellipse cx="521.5265" cy="4940.4264" fill="#F1F1F1" rx="312.0265" ry="64.8053" style="stroke:#181818;stroke-width:0.5;"/><text fill="#000000" font-family="sans-serif" font-size="14" lengthAdjust="spacing" textLength="599" x="222.0265" y="4944.2233">US12B - As anonymous I want to register as a reader with an optional photo and list of interests</text></g><g id="elem_US13B"><ellipse cx="521.3314" cy="2947.5874" fill="#F1F1F1" rx="255.3314" ry="53.4663" style="stroke:#181818;stroke-width:0.5;"/><text fill="#000000" font-family="sans-serif" font-size="14" lengthAdjust="spacing" textLength="484" x="279.3314" y="2951.3843">US13B - As Reader I want a list of book suggestions based on my interest list</text></g><g id="elem_US23"><ellipse cx="521.5194" cy="4167.525" fill="#F1F1F1" rx="245.0194" ry="51.4039" style="stroke:#181818;stroke-width:0.5;"/><text fill="#000000" font-family="sans-serif" font-size="14" lengthAdjust="spacing" textLength="463" x="290.0194" y="4171.3219">US23 - As Librarian I want to list overdue lending sorted by their tardiness</text></g><g id="elem_US14B"><ellipse cx="521.4871" cy="4319.6185" fill="#F1F1F1" rx="315.4871" ry="65.4974" style="stroke:#181818;stroke-width:0.5;"/><text fill="#000000" font-family="sans-serif" font-size="14" lengthAdjust="spacing" textLength="606" x="218.4871" y="4323.4154">US14B - As Librarian I want to know the average number of lending per genre of a certain month</text></g><g id="elem_US15B"><ellipse cx="521.5627" cy="4602.4336" fill="#F1F1F1" rx="219.5627" ry="46.3125" style="stroke:#181818;stroke-width:0.5;"/><text fill="#000000" font-family="sans-serif" font-size="14" lengthAdjust="spacing" textLength="411" x="316.0627" y="4606.2305">US15B - As Librarian I want to know the Average lending duration</text></g><g id="elem_US16B"><ellipse cx="521.4054" cy="4762.5022" fill="#F1F1F1" rx="377.4054" ry="77.8811" style="stroke:#181818;stroke-width:0.5;"/><text fill="#000000" font-family="sans-serif" font-size="14" lengthAdjust="spacing" textLength="731" x="155.9054" y="4766.299">US16B - As Librarian I want to know the number of lendings per month for the last 12 months, broken down by genre</text></g><g id="elem_US17B"><ellipse cx="521.4911" cy="3211.8193" fill="#F1F1F1" rx="276.4911" ry="57.6982" style="stroke:#181818;stroke-width:0.5;"/><text fill="#000000" font-family="sans-serif" font-size="14" lengthAdjust="spacing" textLength="527" x="257.9911" y="3215.6162">US17B - As Librarian I want to know the Top 5 readers per genre of a certain period</text></g><g id="elem_US18B"><ellipse cx="521.3915" cy="3497.6994" fill="#F1F1F1" rx="283.3915" ry="59.0783" style="stroke:#181818;stroke-width:0.5;"/><text fill="#000000" font-family="sans-serif" font-size="14" lengthAdjust="spacing" textLength="541" x="250.8915" y="3501.4963">US18B - As Librarian I want to know the Monthly lending per reader of a certain period</text></g><g id="elem_US19B"><ellipse cx="521.663" cy="4008.4537" fill="#F1F1F1" rx="347.163" ry="71.8326" style="stroke:#181818;stroke-width:0.5;"/><text fill="#000000" font-family="sans-serif" font-size="14" lengthAdjust="spacing" textLength="670" x="186.663" y="4012.2506">US19B - As Librarian I want to know the Average lending duration Per genre per month for a certain period</text></g><!--entity Anon--><g id="elem_Anon"><ellipse cx="45" cy="3502.6211" fill="#F1F1F1" rx="8" ry="8" style="stroke:#181818;stroke-width:0.5;"/><path d="M45,3510.6211 L45,3537.6211 M32,3518.6211 L58,3518.6211 M45,3537.6211 L32,3552.6211 M45,3537.6211 L58,3552.6211 " fill="none" style="stroke:#181818;stroke-width:0.5;"/><text fill="#000000" font-family="sans-serif" font-size="14" lengthAdjust="spacing" textLength="74" x="10" y="3569.2285">Anonymous</text></g><!--entity Librarian--><g id="elem_Librarian"><ellipse cx="45" cy="2581.6211" fill="#F1F1F1" rx="8" ry="8" style="stroke:#181818;stroke-width:0.5;"/><path d="M45,2589.6211 L45,2616.6211 M32,2597.6211 L58,2597.6211 M45,2616.6211 L32,2631.6211 M45,2616.6211 L58,2631.6211 " fill="none" style="stroke:#181818;stroke-width:0.5;"/><text fill="#000000" font-family="sans-serif" font-size="14" lengthAdjust="spacing" textLength="56" x="17" y="2648.2285">Librarian</text></g><!--entity Reader--><g id="elem_Reader"><ellipse cx="45" cy="1075.6211" fill="#F1F1F1" rx="8" ry="8" style="stroke:#181818;stroke-width:0.5;"/><path d="M45,1083.6211 L45,1110.6211 M32,1091.6211 L58,1091.6211 M45,1110.6211 L32,1125.6211 M45,1110.6211 L58,1125.6211 " fill="none" style="stroke:#181818;stroke-width:0.5;"/><text fill="#000000" font-family="sans-serif" font-size="14" lengthAdjust="spacing" textLength="47" x="21.5" y="1142.2285">Reader</text></g><!--entity Admin--><g id="elem_Admin"><ellipse cx="45" cy="127.6211" fill="#F1F1F1" rx="8" ry="8" style="stroke:#181818;stroke-width:0.5;"/><path d="M45,135.6211 L45,162.6211 M32,143.6211 L58,143.6211 M45,162.6211 L32,177.6211 M45,162.6211 L58,177.6211 " fill="none" style="stroke:#181818;stroke-width:0.5;"/><text fill="#000000" font-family="sans-serif" font-size="14" lengthAdjust="spacing" textLength="39" x="25.5" y="194.2285">Admin</text></g><!--link Anon to US11--><g id="link_Anon_US11"><path d="M47.58,3494.0211 C56.33,3277.3111 99.1,2243.8311 120,2218.6211 C173.89,2153.6311 257.1094,2128.1879 337.6494,2118.9079 " fill="none" id="Anon-to-US11" style="stroke:#181818;stroke-width:1.0;"/><polygon fill="#181818" points="343.61,2118.2211,334.2113,2115.2776,338.6429,2118.7934,335.127,2123.225,343.61,2118.2211" style="stroke:#181818;stroke-width:1.0;"/></g><!--link Anon to US12B--><g id="link_Anon_US12B"><path d="M46.87,3573.4111 C51.72,3788.9611 76.92,4808.7311 120,4858.6211 C146.44,4889.2411 175.3461,4908.1736 213.0461,4922.3936 " fill="none" id="Anon-to-US12B" style="stroke:#181818;stroke-width:1.0;"/><polygon fill="#181818" points="218.66,4924.5111,211.6508,4917.5922,213.9817,4922.7465,208.8274,4925.0775,218.66,4924.5111" style="stroke:#181818;stroke-width:1.0;"/></g><!--link Librarian to US03--><g id="link_Librarian_US03"><path d="M46.11,2573.0311 C46.97,2397.1111 54.5,1691.7011 120,1620.6211 C170.5,1565.8211 241.7434,1545.9717 314.9634,1541.0717 " fill="none" id="Librarian-to-US03" style="stroke:#181818;stroke-width:1.0;"/><polygon fill="#181818" points="320.95,1540.6711,311.703,1537.281,315.9612,1541.005,312.2372,1545.2631,320.95,1540.6711" style="stroke:#181818;stroke-width:1.0;"/></g><!--link Librarian to US04--><g id="link_Librarian_US04"><path d="M46.49,2572.9911 C48.9,2409.9011 61.78,1796.2811 120,1734.6211 C181.72,1669.2611 275.8518,1654.8631 360.5418,1656.9531 " fill="none" id="Librarian-to-US04" style="stroke:#181818;stroke-width:1.0;"/><polygon fill="#181818" points="366.54,1657.1011,357.6414,1652.8803,361.5415,1656.9777,357.4441,1660.8778,366.54,1657.1011" style="stroke:#181818;stroke-width:1.0;"/></g><!--link Librarian to US05--><g id="link_Librarian_US05"><path d="M46.42,2573.0211 C49.16,2329.0011 66.17,1038.0211 120,975.6211 C150.37,940.4211 185.7461,919.9081 230.1061,906.2381 " fill="none" id="Librarian-to-US05" style="stroke:#181818;stroke-width:1.0;"/><polygon fill="#181818" points="235.84,904.4711,226.0611,903.2989,231.0617,905.9436,228.4171,910.9442,235.84,904.4711" style="stroke:#181818;stroke-width:1.0;"/></g><!--link Librarian to US06--><g id="link_Librarian_US06"><path d="M46.54,2573.0711 C49.89,2340.3711 69.38,1157.9811 120,1101.6211 C170.33,1045.5911 242.5612,1025.7577 316.5712,1021.2277 " fill="none" id="Librarian-to-US06" style="stroke:#181818;stroke-width:1.0;"/><polygon fill="#181818" points="322.56,1020.8611,313.3324,1017.4184,317.5693,1021.1666,313.8212,1025.4035,322.56,1020.8611" style="stroke:#181818;stroke-width:1.0;"/></g><!--link Librarian to US07--><g id="link_Librarian_US07"><path d="M45.37,2573.1111 C44.44,2459.3911 48.25,2134.8511 120,2063.6211 C190.76,1993.3811 300.5576,1984.9923 389.4776,1991.8123 " fill="none" id="Librarian-to-US07" style="stroke:#181818;stroke-width:1.0;"/><polygon fill="#181818" points="395.46,1992.2711,386.7922,1987.5945,390.4746,1991.8887,386.1805,1995.5711,395.46,1992.2711" style="stroke:#181818;stroke-width:1.0;"/></g><!--link Librarian to US08--><g id="link_Librarian_US08"><path d="M46.93,2572.8111 C52.01,2363.9311 77.64,1402.2911 120,1356.6211 C184.65,1286.9211 287.0699,1275.5263 374.8099,1280.5763 " fill="none" id="Librarian-to-US08" style="stroke:#181818;stroke-width:1.0;"/><polygon fill="#181818" points="380.8,1280.9211,372.0447,1276.4106,375.8083,1280.6338,371.585,1284.3973,380.8,1280.9211" style="stroke:#181818;stroke-width:1.0;"/></g><!--link Librarian to US09--><g id="link_Librarian_US09"><path d="M46.77,2573.0511 C51.23,2354.0711 75.01,1298.6711 120,1247.6211 C155.16,1207.7211 198.4208,1186.3509 250.2208,1174.1109 " fill="none" id="Librarian-to-US09" style="stroke:#181818;stroke-width:1.0;"/><polygon fill="#181818" points="256.06,1172.7311,246.3814,1170.9079,251.194,1173.8809,248.221,1178.6935,256.06,1172.7311" style="stroke:#181818;stroke-width:1.0;"/></g><!--link Librarian to US10--><g id="link_Librarian_US10"><path d="M46.81,2573.0511 C52.47,2299.1411 86.99,694.7811 120,657.6211 C171.24,599.9311 246.0476,580.4037 321.6876,576.5837 " fill="none" id="Librarian-to-US10" style="stroke:#181818;stroke-width:1.0;"/><polygon fill="#181818" points="327.68,576.2811,318.4897,572.7401,322.6864,576.5333,318.8932,580.7299,327.68,576.2811" style="stroke:#181818;stroke-width:1.0;"/></g><!--link Librarian to US13--><g id="link_Librarian_US13"><path d="M45.78,2572.9011 C45.09,2383.2911 46.53,1576.2011 120,1494.6211 C161.14,1448.9411 214.7386,1427.329 275.3686,1417.419 " fill="none" id="Librarian-to-US13" style="stroke:#181818;stroke-width:1.0;"/><polygon fill="#181818" points="281.29,1416.4511,271.7626,1413.9553,276.3555,1417.2576,273.0531,1421.8505,281.29,1416.4511" style="stroke:#181818;stroke-width:1.0;"/></g><!--link Librarian to US14--><g id="link_Librarian_US14"><path d="M47.02,2572.9211 C51.25,2423.5711 69.55,1901.3811 120,1848.6211 C180.91,1784.9111 272.3507,1769.8763 355.8707,1771.1963 " fill="none" id="Librarian-to-US14" style="stroke:#181818;stroke-width:1.0;"/><polygon fill="#181818" points="361.87,1771.2911,352.9343,1767.1494,356.8706,1771.2121,352.8079,1775.1484,361.87,1771.2911" style="stroke:#181818;stroke-width:1.0;"/></g><!--link Librarian to US15--><g id="link_Librarian_US15"><path d="M47.71,2573.0711 C53.9,2438.5611 77.07,2004.6811 120,1960.6211 C182.84,1896.1311 277.232,1882.0479 361.782,1884.2079 " fill="none" id="Librarian-to-US15" style="stroke:#181818;stroke-width:1.0;"/><polygon fill="#181818" points="367.78,1884.3611,358.8851,1880.1326,362.7816,1884.2334,358.6808,1888.1299,367.78,1884.3611" style="stroke:#181818;stroke-width:1.0;"/></g><!--link Librarian to US17--><g id="link_Librarian_US17"><path d="M46.96,2573.0611 C53.37,2312.6811 90.54,854.1611 120,819.6211 C147.05,787.9111 177.1312,768.5413 216.1312,754.3613 " fill="none" id="Librarian-to-US17" style="stroke:#181818;stroke-width:1.0;"/><polygon fill="#181818" points="221.77,752.3111,211.9449,751.6272,217.071,754.0196,214.6786,759.1457,221.77,752.3111" style="stroke:#181818;stroke-width:1.0;"/></g><!--link Librarian to US23--><g id="link_Librarian_US23"><path d="M47.8,2652.1411 C58.54,2887.1311 113.83,4090.6411 120,4097.6211 C160.55,4143.5011 213.6926,4165.339 274.0526,4175.459 " fill="none" id="Librarian-to-US23" style="stroke:#181818;stroke-width:1.0;"/><polygon fill="#181818" points="279.97,4176.4511,271.7553,4171.018,275.0388,4175.6243,270.4325,4178.9079,279.97,4176.4511" style="stroke:#181818;stroke-width:1.0;"/></g><!--link Librarian to US14B--><g id="link_Librarian_US14B"><path d="M47.72,2652.2611 C58.54,2900.6811 116.68,4232.7311 120,4236.6211 C145.91,4267.0111 174.1843,4285.8959 211.2443,4300.2359 " fill="none" id="Librarian-to-US14B" style="stroke:#181818;stroke-width:1.0;"/><polygon fill="#181818" points="216.84,4302.4011,209.8899,4295.4228,212.1769,4300.5968,207.003,4302.8838,216.84,4302.4011" style="stroke:#181818;stroke-width:1.0;"/></g><!--link Librarian to US15B--><g id="link_Librarian_US15B"><path d="M47.88,2652.2311 C53.68,2774.7611 71.61,3158.5511 84,3476.6211 C86.3,3535.5511 81.03,4493.3511 120,4537.6211 C168.59,4592.8011 238.1473,4613.336 310.5873,4618.846 " fill="none" id="Librarian-to-US15B" style="stroke:#181818;stroke-width:1.0;"/><polygon fill="#181818" points="316.57,4619.3011,307.8993,4614.63,311.5844,4618.9219,307.2925,4622.607,316.57,4619.3011" style="stroke:#181818;stroke-width:1.0;"/></g><!--link Librarian to US16B--><g id="link_Librarian_US16B"><path d="M47.94,2652.2311 C53.88,2774.7511 72.19,3158.5311 84,3476.6211 C86.45,3542.7211 78.26,4615.3111 120,4666.6211 C139.85,4691.0311 159.3985,4707.0904 186.9585,4721.5704 " fill="none" id="Librarian-to-US16B" style="stroke:#181818;stroke-width:1.0;"/><polygon fill="#181818" points="192.27,4724.3611,186.1632,4716.6341,187.8437,4722.0355,182.4423,4723.7161,192.27,4724.3611" style="stroke:#181818;stroke-width:1.0;"/></g><!--link Librarian to US17B--><g id="link_Librarian_US17B"><path d="M45.86,2652.5011 C46.33,2762.6111 53.73,3067.3111 120,3136.6211 C153.79,3171.9611 192.7507,3192.115 240.0607,3204.995 " fill="none" id="Librarian-to-US17B" style="stroke:#181818;stroke-width:1.0;"/><polygon fill="#181818" points="245.85,3206.5711,238.2168,3200.3474,241.0256,3205.2577,236.1153,3208.0664,245.85,3206.5711" style="stroke:#181818;stroke-width:1.0;"/></g><!--link Librarian to US18B--><g id="link_Librarian_US18B"><path d="M46.88,2652.1311 C50.68,2806.4811 67.92,3363.1411 120,3420.6211 C151.73,3455.6511 188.385,3475.9439 233.755,3489.3239 " fill="none" id="Librarian-to-US18B" style="stroke:#181818;stroke-width:1.0;"/><polygon fill="#181818" points="239.51,3491.0211,232.009,3484.6387,234.7142,3489.6068,229.7461,3492.312,239.51,3491.0211" style="stroke:#181818;stroke-width:1.0;"/></g><!--link Librarian to US19B--><g id="link_Librarian_US19B"><path d="M47.59,2652.3111 C56.35,2868.3511 98.98,3893.8311 120,3918.6211 C142.7,3945.3911 166.025,3962.7025 197.725,3977.2225 " fill="none" id="Librarian-to-US19B" style="stroke:#181818;stroke-width:1.0;"/><polygon fill="#181818" points="203.18,3979.7211,196.6633,3972.3365,198.6342,3977.6389,193.3318,3979.6098,203.18,3979.7211" style="stroke:#181818;stroke-width:1.0;"/></g><!--link Librarian to US03B--><g id="link_Librarian_US03B"><path d="M47.81,2652.2311 C53.41,2774.7711 70.82,3158.5911 84,3476.6211 C86.13,3528.0611 86.02,4363.9411 120,4402.6211 C162.99,4451.5711 221.1645,4473.2341 285.5545,4481.9741 " fill="none" id="Librarian-to-US03B" style="stroke:#181818;stroke-width:1.0;"/><polygon fill="#181818" points="291.5,4482.7811,283.1198,4477.6069,286.5454,4482.1086,282.0438,4485.5342,291.5,4482.7811" style="stroke:#181818;stroke-width:1.0;"/></g><!--link Librarian to US07B--><g id="link_Librarian_US07B"><path d="M47.62,2652.5011 C53.57,2790.2811 76.24,3240.3111 120,3286.6211 C164.07,3333.2411 221.4685,3354.3554 284.8185,3363.2654 " fill="none" id="Librarian-to-US07B" style="stroke:#181818;stroke-width:1.0;"/><polygon fill="#181818" points="290.76,3364.1011,282.4048,3358.8866,285.8087,3363.4047,281.2906,3366.8086,290.76,3364.1011" style="stroke:#181818;stroke-width:1.0;"/></g><!--link Librarian to US09B--><g id="link_Librarian_US09B"><path d="M46.19,2652.1411 C47.41,2824.5411 56.26,3505.2911 120,3573.6211 C177.95,3635.7411 264.46,3652.3342 345.98,3652.5642 " fill="none" id="Librarian-to-US09B" style="stroke:#181818;stroke-width:1.0;"/><polygon fill="#181818" points="351.98,3652.5811,342.9913,3648.5557,346.98,3652.567,342.9688,3656.5557,351.98,3652.5811" style="stroke:#181818;stroke-width:1.0;"/></g><!--link Librarian to US10B--><g id="link_Librarian_US10B"><path d="M47.33,2652.2811 C53.9,2842.2711 83.94,3651.8311 120,3690.6211 C181.21,3756.4611 275.342,3770.8674 360.162,3768.6574 " fill="none" id="Librarian-to-US10B" style="stroke:#181818;stroke-width:1.0;"/><polygon fill="#181818" points="366.16,3768.5011,357.0589,3764.7369,361.1617,3768.6313,357.2672,3772.7342,366.16,3768.5011" style="stroke:#181818;stroke-width:1.0;"/></g><!--link Librarian to US11B--><g id="link_Librarian_US11B"><path d="M47.77,2652.1411 C57.02,2856.1911 100.02,3781.9311 120,3803.6211 C180.22,3868.9811 272.7211,3884.0265 356.9611,3882.4065 " fill="none" id="Librarian-to-US11B" style="stroke:#181818;stroke-width:1.0;"/><polygon fill="#181818" points="362.96,3882.2911,353.8848,3878.4649,357.9609,3882.3872,354.0386,3886.4634,362.96,3882.2911" style="stroke:#181818;stroke-width:1.0;"/></g><!--link Reader to US05--><g id="link_Reader_US05"><path d="M58.23,1066.8911 C69.48,1037.1211 89.17,997.8411 120,975.6211 C158.22,948.0811 197.8012,931.1217 244.0612,918.8317 " fill="none" id="Reader-to-US05" style="stroke:#181818;stroke-width:1.0;"/><polygon fill="#181818" points="249.86,917.2911,240.1347,915.7361,245.0276,918.5749,242.1888,923.4679,249.86,917.2911" style="stroke:#181818;stroke-width:1.0;"/></g><!--link Reader to US06--><g id="link_Reader_US06"><path d="M72.53,1102.8211 C123.91,1095.4611 234.9407,1079.5422 336.4707,1064.9922 " fill="none" id="Reader-to-US06" style="stroke:#181818;stroke-width:1.0;"/><polygon fill="#181818" points="342.41,1064.1411,332.9336,1061.4583,337.4606,1064.8504,334.0684,1069.3774,342.41,1064.1411" style="stroke:#181818;stroke-width:1.0;"/></g><!--link Reader to US09--><g id="link_Reader_US09"><path d="M72.53,1110.4211 C117.22,1116.8311 205.6107,1129.4897 296.2307,1142.4797 " fill="none" id="Reader-to-US09" style="stroke:#181818;stroke-width:1.0;"/><polygon fill="#181818" points="302.17,1143.3311,293.8286,1138.0945,297.2206,1142.6216,292.6935,1146.0136,302.17,1143.3311" style="stroke:#181818;stroke-width:1.0;"/></g><!--link Reader to US10--><g id="link_Reader_US10"><path d="M46.8,1067.0511 C49.65,968.2711 62.53,714.6711 120,657.6211 C172.2,605.8011 242.5377,586.2511 314.5877,580.7111 " fill="none" id="Reader-to-US10" style="stroke:#181818;stroke-width:1.0;"/><polygon fill="#181818" points="320.57,580.2511,311.2898,576.9528,315.5847,580.6344,311.9031,584.9293,320.57,580.2511" style="stroke:#181818;stroke-width:1.0;"/></g><!--link Reader to US12--><g id="link_Reader_US12"><path d="M48.34,1067.0611 C56.05,943.3511 82.27,569.7711 120,531.6211 C182.95,467.9811 276.5414,453.7099 360.6614,455.5499 " fill="none" id="Reader-to-US12" style="stroke:#181818;stroke-width:1.0;"/><polygon fill="#181818" points="366.66,455.6811,357.7496,451.4852,361.6612,455.5718,357.5747,459.4833,366.66,455.6811" style="stroke:#181818;stroke-width:1.0;"/></g><!--link Reader to US16--><g id="link_Reader_US16"><path d="M47.56,1066.9811 C53.42,927.8511 75.98,467.5511 120,419.6211 C150.97,385.9011 186.0882,366.0151 229.8682,352.4651 " fill="none" id="Reader-to-US16" style="stroke:#181818;stroke-width:1.0;"/><polygon fill="#181818" points="235.6,350.6911,225.8197,349.5309,230.8235,352.1694,228.185,357.1732,235.6,350.6911" style="stroke:#181818;stroke-width:1.0;"/></g><!--link Reader to US17--><g id="link_Reader_US17"><path d="M50.99,1067.0511 C60.7,996.5511 84.35,853.4411 120,819.6211 C150.49,790.6911 182.6417,772.7299 222.7817,759.2599 " fill="none" id="Reader-to-US17" style="stroke:#181818;stroke-width:1.0;"/><polygon fill="#181818" points="228.47,757.3511,218.665,756.4222,223.7298,758.9418,221.2102,764.0065,228.47,757.3511" style="stroke:#181818;stroke-width:1.0;"/></g><!--link Reader to US04B--><g id="link_Reader_US04B"><path d="M46.84,1146.1911 C52.63,1416.5911 87.56,2982.4911 120,3018.6211 C176.99,3082.1011 263.97,3098.6521 346,3098.5021 " fill="none" id="Reader-to-US04B" style="stroke:#181818;stroke-width:1.0;"/><polygon fill="#181818" points="352,3098.4911,342.9927,3094.5076,347,3098.5002,343.0073,3102.5075,352,3098.4911" style="stroke:#181818;stroke-width:1.0;"/></g><!--link Reader to US05B--><g id="link_Reader_US05B"><path d="M46.82,1146.4511 C51.46,1364.5311 75.9,2405.8711 120,2456.6211 C149.34,2490.3911 182.8663,2510.4488 225.3163,2524.3088 " fill="none" id="Reader-to-US05B" style="stroke:#181818;stroke-width:1.0;"/><polygon fill="#181818" points="231.02,2526.1711,223.706,2519.5752,226.2669,2524.6192,221.223,2527.1802,231.02,2526.1711" style="stroke:#181818;stroke-width:1.0;"/></g><!--link Reader to US06B--><g id="link_Reader_US06B"><path d="M46.58,1146.4211 C50.13,1379.2611 70.49,2556.6011 120,2613.6211 C151.97,2650.4411 189.959,2671.3893 236.849,2684.7293 " fill="none" id="Reader-to-US06B" style="stroke:#181818;stroke-width:1.0;"/><polygon fill="#181818" points="242.62,2686.3711,235.0581,2680.061,237.8108,2685.0029,232.869,2687.7557,242.62,2686.3711" style="stroke:#181818;stroke-width:1.0;"/></g><!--link Reader to US08B--><g id="link_Reader_US08B"><path d="M46.35,1146.4211 C48.67,1393.1111 63.65,2704.8411 120,2766.6211 C184.32,2837.1411 287.34,2848.6066 375.41,2843.5266 " fill="none" id="Reader-to-US08B" style="stroke:#181818;stroke-width:1.0;"/><polygon fill="#181818" points="381.4,2843.1811,372.1846,2839.706,376.4083,2843.469,372.6453,2847.6927,381.4,2843.1811" style="stroke:#181818;stroke-width:1.0;"/></g><!--link Reader to US13B--><g id="link_Reader_US13B"><path d="M46.98,1146.4911 C53.45,1405.6911 90.59,2841.9111 120,2875.6211 C157.5,2918.6111 205.3106,2940.444 261.2506,2951.834 " fill="none" id="Reader-to-US13B" style="stroke:#181818;stroke-width:1.0;"/><polygon fill="#181818" points="267.13,2953.0311,259.109,2947.3159,262.2305,2952.0335,257.5129,2955.155,267.13,2953.0311" style="stroke:#181818;stroke-width:1.0;"/></g><!--link Admin to US01--><g id="link_Admin_US01"><path d="M68.57,160.9511 C120.32,166.2911 245.4218,179.2145 353.1618,190.3445 " fill="none" id="Admin-to-US01" style="stroke:#181818;stroke-width:1.0;"/><polygon fill="#181818" points="359.13,190.9611,350.5887,186.0575,354.1565,190.4473,349.7666,194.0151,359.13,190.9611" style="stroke:#181818;stroke-width:1.0;"/></g><!--link Admin to US02--><g id="link_Admin_US02"><path d="M68.57,156.2411 C130.36,149.7311 299.253,131.9298 412.473,119.9998 " fill="none" id="Admin-to-US02" style="stroke:#181818;stroke-width:1.0;"/><polygon fill="#181818" points="418.44,119.3711,409.0704,116.3362,413.4675,119.895,409.9087,124.2922,418.44,119.3711" style="stroke:#181818;stroke-width:1.0;"/></g><!--SRC=[fLVBRkis4DthAsQN1aXkB2MMxImAHEqcG5jSzFP-06tH5X6BD4WgHb0Kw6_qz_eb7L9yHA8SE-Z644VacSF3cKFvgj7we1xlxWvxmdNNxhziH7lNANgx8VXJCxAJfCqopVIUmdT5uIUCmyy-lgTR3Lg0PBj6GyqatMWcU9QHZHOI7k692_xMYauz0b5s55xzmjQII4Ous7TX62RyJabDPV-sVuwmTSlSElkOPIOpuJja-RL1YZdycG7yyFtRB8TRWAkr45ffIGvNWBkJi96qfbmpieUQQ09RXDrx1khQ0Dl5rmwb6AFiA9VKhWsJY-lCpRx7sK_ljWJFS4HzhL9qnvH61XWbdMumxnKdBRq1XSyQranS1SHxd_xXD61tG18qmltxzpzgoEl1eyp7A9ZSYHpnNhWuZj6e9cmFE_PAEJ2jF77UjMigGvwvprDUaaTH8ZUDWrAmVWCZGm0hWvYB4ThDf9g0P_CILYyybULvuUpALBMbXrXTh9fkgDDAWTWwv7UoFN-hVWluAuUVppwXbW6qMjdoyrZvp8kLvpqOyMqtgHM-nv79411yeUT53v0GS6grRt2WKWdk6YS051xWWzhlIyisu7HTzQH6TPNxBiW_w0AdJqyxgQRy8GWqFusnfxpsXuR3H2DVttbvGYD9TIUvW_W2prjR4IxAi2PUgQmx2i-u-nQsZDFQC3MJUkzv2xbAdsino8MbSLBOfFhCVXZVlTFNHqO2OxVybJXe4Hsq6fkVwt-2Ubcrh8KUcMwWfOHZXcqtB0_424wQe7bMvr6AAbfizIcFjR2cjmxcViBYFJH2YsYqWTv3TU9mWyPz3ng5EJnPzEYq0MP-5cOZRhttzLZlHCNtJE8srC7SfwykPpJQaAOyc-OFSO1vSDbZmx1B6eAGvcKhb3Rowr62Ckgyg2wtNwTo_xmnrJwIUH68BqyH7nkT_VA8fXm0LjKPducRxx7CDgFvLi5zByUndgkYwLRHTIy7wJqbeeJ6o8lgSzvzegPj0UrnjYahnd4HLJhcAqA- -yaZ866jFKNLxNQu7l7nDD0LQX3SN08UsCwEJXqaAJwu1le4pWjzyoly-0bsYCMlYSGuLO5v4Q-1IzJ64fTaHvtLcVtuJ7X_kQytwv8RAj4pSLE2woPU646c-INPdbosO6MT94QqU7V4OYal0KneAylRahGVg_RI82WatjWsgcvWBSKBEdqjZZpzHYZ3ZXQVhjPJcc6OYJhU8o75yf8KlnhQ-xV1mRZI_YXBy81yzN-E1hw6FGsLFPdOc0RUa-PF3DpU_WYcUmUZeigooAKFpkxJq4CQcgUXCWqjqj0o3QsIK3vBGoclFEMLfxpob4GnXLLDW4t4oedOOYAsd8YjgWcv9s8JUBE9jUZeQIp7CtKE6OvgE2v7uzLmZDeFnyLeF5gF-WxnKCaHWN6W70UMem0QCzQj_S_iPkJ3OP7z1m00]--></g></svg>