<?xml version="1.0" encoding="us-ascii" standalone="no"?><svg xmlns="http://www.w3.org/2000/svg" xmlns:xlink="http://www.w3.org/1999/xlink" contentStyleType="text/css" height="568px" preserveAspectRatio="none" style="width:459px;height:568px;background:#FFFFFF;" version="1.1" viewBox="0 0 459 568" width="459px" zoomAndPan="magnify"><defs/><g><rect fill="#FFFFFF" height="382.4629" style="stroke:#181818;stroke-width:1.0;" width="10" x="56" y="93.6211"/><rect fill="#FFFFFF" height="54.582" style="stroke:#181818;stroke-width:1.0;" width="10" x="397" y="93.6211"/><rect fill="#FFFFFF" height="31.291" style="stroke:#181818;stroke-width:1.0;" width="10" x="397" y="205.7852"/><rect fill="#FFFFFF" height="31.291" style="stroke:#181818;stroke-width:1.0;" width="10" x="397" y="294.6582"/><rect fill="#FFFFFF" height="118.8438" style="stroke:#181818;stroke-width:1.0;" width="10" x="397" y="357.2402"/><rect fill="none" height="304.8809" style="stroke:#000000;stroke-width:1.5;" width="442" x="10" y="163.2031"/><rect fill="none" height="161.0859" style="stroke:#000000;stroke-width:1.5;" width="422" x="20" y="252.0762"/><line style="stroke:#181818;stroke-width:0.5;stroke-dasharray:5.0,5.0;" x1="61" x2="61" y1="83.6211" y2="485.084"/><line style="stroke:#181818;stroke-width:0.5;stroke-dasharray:5.0,5.0;" x1="402" x2="402" y1="83.6211" y2="485.084"/><text fill="#000000" font-family="sans-serif" font-size="14" lengthAdjust="spacing" textLength="56" x="30" y="80.1074">Librarian</text><ellipse cx="61" cy="13.5" fill="#E2E2F0" rx="8" ry="8" style="stroke:#181818;stroke-width:0.5;"/><path d="M61,21.5 L61,48.5 M48,29.5 L74,29.5 M61,48.5 L48,63.5 M61,48.5 L74,63.5 " fill="none" style="stroke:#181818;stroke-width:0.5;"/><text fill="#000000" font-family="sans-serif" font-size="14" lengthAdjust="spacing" textLength="56" x="30" y="499.1914">Librarian</text><ellipse cx="61" cy="511.2051" fill="#E2E2F0" rx="8" ry="8" style="stroke:#181818;stroke-width:0.5;"/><path d="M61,519.2051 L61,546.2051 M48,527.2051 L74,527.2051 M61,546.2051 L48,561.2051 M61,546.2051 L74,561.2051 " fill="none" style="stroke:#181818;stroke-width:0.5;"/><rect fill="#E2E2F0" height="32.6211" rx="2.5" ry="2.5" style="stroke:#181818;stroke-width:0.5;" width="60" x="372" y="50"/><text fill="#000000" font-family="sans-serif" font-size="14" lengthAdjust="spacing" textLength="46" x="379" y="72.1074">System</text><rect fill="#E2E2F0" height="32.6211" rx="2.5" ry="2.5" style="stroke:#181818;stroke-width:0.5;" width="60" x="372" y="484.084"/><text fill="#000000" font-family="sans-serif" font-size="14" lengthAdjust="spacing" textLength="46" x="379" y="506.1914">System</text><rect fill="#FFFFFF" height="382.4629" style="stroke:#181818;stroke-width:1.0;" width="10" x="56" y="93.6211"/><rect fill="#FFFFFF" height="54.582" style="stroke:#181818;stroke-width:1.0;" width="10" x="397" y="93.6211"/><rect fill="#FFFFFF" height="31.291" style="stroke:#181818;stroke-width:1.0;" width="10" x="397" y="205.7852"/><rect fill="#FFFFFF" height="31.291" style="stroke:#181818;stroke-width:1.0;" width="10" x="397" y="294.6582"/><rect fill="#FFFFFF" height="118.8438" style="stroke:#181818;stroke-width:1.0;" width="10" x="397" y="357.2402"/><polygon fill="#181818" points="385,112.9121,395,116.9121,385,120.9121,389,116.9121" style="stroke:#181818;stroke-width:1.0;"/><line style="stroke:#181818;stroke-width:1.0;" x1="66" x2="391" y1="116.9121" y2="116.9121"/><text fill="#000000" font-family="sans-serif" font-size="13" font-weight="bold" lengthAdjust="spacing" textLength="7" x="73" y="111.6494">1</text><text fill="#000000" font-family="sans-serif" font-size="13" lengthAdjust="spacing" textLength="180" x="84" y="111.6494">Checks reader's overdue books</text><polygon fill="#181818" points="77,144.2031,67,148.2031,77,152.2031,73,148.2031" style="stroke:#181818;stroke-width:1.0;"/><line style="stroke:#181818;stroke-width:1.0;stroke-dasharray:2.0,2.0;" x1="71" x2="401" y1="148.2031" y2="148.2031"/><text fill="#000000" font-family="sans-serif" font-size="13" font-weight="bold" lengthAdjust="spacing" textLength="7" x="83" y="142.9404">2</text><text fill="#000000" font-family="sans-serif" font-size="13" lengthAdjust="spacing" textLength="146" x="94" y="142.9404">Number of overdue books</text><path d="M10,163.2031 L71,163.2031 L71,172.4941 L61,182.4941 L10,182.4941 L10,163.2031 " fill="#EEEEEE" style="stroke:#000000;stroke-width:1.5;"/><rect fill="none" height="304.8809" style="stroke:#000000;stroke-width:1.5;" width="442" x="10" y="163.2031"/><text fill="#000000" font-family="sans-serif" font-size="13" font-weight="bold" lengthAdjust="spacing" textLength="16" x="25" y="178.2314">alt</text><text fill="#000000" font-family="sans-serif" font-size="11" font-weight="bold" lengthAdjust="spacing" textLength="109" x="86" y="177.0732">[No overdue books]</text><polygon fill="#181818" points="385,201.7852,395,205.7852,385,209.7852,389,205.7852" style="stroke:#181818;stroke-width:1.0;"/><line style="stroke:#181818;stroke-width:1.0;" x1="66" x2="391" y1="205.7852" y2="205.7852"/><text fill="#000000" font-family="sans-serif" font-size="13" font-weight="bold" lengthAdjust="spacing" textLength="7" x="73" y="200.5225">3</text><text fill="#000000" font-family="sans-serif" font-size="13" lengthAdjust="spacing" textLength="169" x="84" y="200.5225">Checks number of books lent</text><polygon fill="#181818" points="77,233.0762,67,237.0762,77,241.0762,73,237.0762" style="stroke:#181818;stroke-width:1.0;"/><line style="stroke:#181818;stroke-width:1.0;stroke-dasharray:2.0,2.0;" x1="71" x2="401" y1="237.0762" y2="237.0762"/><text fill="#000000" font-family="sans-serif" font-size="13" font-weight="bold" lengthAdjust="spacing" textLength="7" x="83" y="231.8135">4</text><text fill="#000000" font-family="sans-serif" font-size="13" lengthAdjust="spacing" textLength="123" x="94" y="231.8135">Number of books lent</text><path d="M20,252.0762 L81,252.0762 L81,261.3672 L71,271.3672 L20,271.3672 L20,252.0762 " fill="#EEEEEE" style="stroke:#000000;stroke-width:1.5;"/><rect fill="none" height="161.0859" style="stroke:#000000;stroke-width:1.5;" width="422" x="20" y="252.0762"/><text fill="#000000" font-family="sans-serif" font-size="13" font-weight="bold" lengthAdjust="spacing" textLength="16" x="35" y="267.1045">alt</text><text fill="#000000" font-family="sans-serif" font-size="11" font-weight="bold" lengthAdjust="spacing" textLength="134" x="96" y="265.9463">[Less than 3 books lent]</text><polygon fill="#181818" points="385,290.6582,395,294.6582,385,298.6582,389,294.6582" style="stroke:#181818;stroke-width:1.0;"/><line style="stroke:#181818;stroke-width:1.0;" x1="66" x2="391" y1="294.6582" y2="294.6582"/><text fill="#000000" font-family="sans-serif" font-size="13" font-weight="bold" lengthAdjust="spacing" textLength="7" x="73" y="289.3955">5</text><text fill="#000000" font-family="sans-serif" font-size="13" lengthAdjust="spacing" textLength="78" x="84" y="289.3955">Lends a book</text><polygon fill="#181818" points="77,321.9492,67,325.9492,77,329.9492,73,325.9492" style="stroke:#181818;stroke-width:1.0;"/><line style="stroke:#181818;stroke-width:1.0;stroke-dasharray:2.0,2.0;" x1="71" x2="401" y1="325.9492" y2="325.9492"/><text fill="#000000" font-family="sans-serif" font-size="13" font-weight="bold" lengthAdjust="spacing" textLength="7" x="83" y="320.6865">6</text><text fill="#000000" font-family="sans-serif" font-size="13" lengthAdjust="spacing" textLength="131" x="94" y="320.6865">Book lent successfully</text><polygon fill="#181818" points="77,353.2402,67,357.2402,77,361.2402,73,357.2402" style="stroke:#181818;stroke-width:1.0;"/><line style="stroke:#181818;stroke-width:1.0;stroke-dasharray:2.0,2.0;" x1="71" x2="396" y1="357.2402" y2="357.2402"/><text fill="#000000" font-family="sans-serif" font-size="13" font-weight="bold" lengthAdjust="spacing" textLength="7" x="83" y="351.9775">7</text><text fill="#000000" font-family="sans-serif" font-size="13" lengthAdjust="spacing" textLength="115" x="94" y="351.9775">Provides return date</text><line style="stroke:#000000;stroke-width:1.0;stroke-dasharray:2.0,2.0;" x1="20" x2="442" y1="366.2402" y2="366.2402"/><text fill="#000000" font-family="sans-serif" font-size="11" font-weight="bold" lengthAdjust="spacing" textLength="197" x="25" y="378.1104">[More than or equal to 3 books lent]</text><polygon fill="#181818" points="77,401.1621,67,405.1621,77,409.1621,73,405.1621" style="stroke:#181818;stroke-width:1.0;"/><line style="stroke:#181818;stroke-width:1.0;stroke-dasharray:2.0,2.0;" x1="71" x2="396" y1="405.1621" y2="405.1621"/><text fill="#000000" font-family="sans-serif" font-size="13" font-weight="bold" lengthAdjust="spacing" textLength="7" x="83" y="399.8994">8</text><text fill="#000000" font-family="sans-serif" font-size="13" lengthAdjust="spacing" textLength="181" x="94" y="399.8994">Cannot lend more than 3 books</text><line style="stroke:#000000;stroke-width:1.0;stroke-dasharray:2.0,2.0;" x1="10" x2="452" y1="421.1621" y2="421.1621"/><text fill="#000000" font-family="sans-serif" font-size="11" font-weight="bold" lengthAdjust="spacing" textLength="123" x="15" y="433.0322">[Overdue books exist]</text><polygon fill="#181818" points="77,456.084,67,460.084,77,464.084,73,460.084" style="stroke:#181818;stroke-width:1.0;"/><line style="stroke:#181818;stroke-width:1.0;stroke-dasharray:2.0,2.0;" x1="71" x2="396" y1="460.084" y2="460.084"/><text fill="#000000" font-family="sans-serif" font-size="13" font-weight="bold" lengthAdjust="spacing" textLength="7" x="83" y="454.8213">9</text><text fill="#000000" font-family="sans-serif" font-size="13" lengthAdjust="spacing" textLength="296" x="94" y="454.8213">Cannot lend books until overdue books are returned</text><!--SRC=[ZPAnKiCm38PtFuMsJg53jnp706jfkUC9r5YblZfsiUKSVNjKXpF1a9PCEVd_Vtssj3WmdsAxN9uiEawzlUjylupqdiXrr6Y3Rm5xfJ2nTwdVKP3_Zds0jTa530PTBfW1cIQrKdezHwPUbHDe7hvgBJmTg3j628IQmYA27oZeHB3p_XZLg8963CNTmYP3WDzNQarrIxGC6r_9GBvhBAx4PprOSfnDTVgbTekmYlYDc8C5Sqqn0X-4Q5MRPe7Nv7G4pFgYd2ETftqKU-u6CNMTSEoJjUTY-fjvFkub-C5ekWoLKt2WnQckaP6D1Cy-q7X_MIpPFRJ0_jPRt3VDz_JGESyNfOQ-XAqcGvSJbNjjf_i0z64Yg_y5ZuxasDYVMmKe7SSBatIHJfy0]--></g></svg>
