<?xml version="1.0" encoding="us-ascii" standalone="no"?><svg xmlns="http://www.w3.org/2000/svg" xmlns:xlink="http://www.w3.org/1999/xlink" contentStyleType="text/css" height="999px" preserveAspectRatio="none" style="width:1093px;height:999px;background:#FFFFFF;" version="1.1" viewBox="0 0 1093 999" width="1093px" zoomAndPan="magnify"><defs/><g><!--class HTTPClient--><g id="elem_HTTPClient"><rect codeLine="6" fill="#F1F1F1" height="44.6211" id="HTTPClient" rx="2.5" ry="2.5" style="stroke:#181818;stroke-width:0.5;" width="78" x="693.5" y="7"/><text fill="#000000" font-family="sans-serif" font-size="14" lengthAdjust="spacing" textLength="72" x="696.5" y="27.1074">HTTPClient</text><line style="stroke:#181818;stroke-width:0.5;" x1="694.5" x2="770.5" y1="35.6211" y2="35.6211"/><line style="stroke:#181818;stroke-width:0.5;" x1="694.5" x2="770.5" y1="43.6211" y2="43.6211"/></g><!--class RouteHandler--><g id="elem_RouteHandler"><rect codeLine="9" fill="#F1F1F1" height="63.2422" id="RouteHandler" rx="2.5" ry="2.5" style="stroke:#181818;stroke-width:0.5;" width="261" x="602" y="112"/><text fill="#000000" font-family="sans-serif" font-size="14" lengthAdjust="spacing" textLength="87" x="689" y="132.1074">RouteHandler</text><line style="stroke:#181818;stroke-width:0.5;" x1="603" x2="862" y1="140.6211" y2="140.6211"/><line style="stroke:#181818;stroke-width:0.5;" x1="603" x2="862" y1="148.6211" y2="148.6211"/><text fill="#000000" font-family="sans-serif" font-size="14" lengthAdjust="spacing" textLength="249" x="608" y="167.7285">+handleRequest(data: json): HttpResult</text></g><!--class LendingController--><g id="elem_LendingController"><rect codeLine="13" fill="#F1F1F1" height="81.8633" id="LendingController" rx="2.5" ry="2.5" style="stroke:#181818;stroke-width:0.5;" width="535" x="465" y="235"/><text fill="#000000" font-family="sans-serif" font-size="14" lengthAdjust="spacing" textLength="113" x="676" y="255.1074">LendingController</text><line style="stroke:#181818;stroke-width:0.5;" x1="466" x2="999" y1="263.6211" y2="263.6211"/><line style="stroke:#181818;stroke-width:0.5;" x1="466" x2="999" y1="271.6211" y2="271.6211"/><text fill="#000000" font-family="sans-serif" font-size="14" lengthAdjust="spacing" textLength="523" x="471" y="290.7285">+createLending(resource: CreateLendingRequest): ResponseEntity&lt;LendingView&gt;</text><text fill="#000000" font-family="sans-serif" font-size="14" lengthAdjust="spacing" textLength="483" x="471" y="309.3496">+returnBook(resource: EditLendingRequest): ResponseEntity&lt;LendingView&gt;</text></g><!--class ReaderService--><g id="elem_ReaderService"><rect codeLine="18" fill="#F1F1F1" height="63.2422" id="ReaderService" rx="2.5" ry="2.5" style="stroke:#181818;stroke-width:0.5;" width="341" x="7" y="545"/><text fill="#000000" font-family="sans-serif" font-size="14" lengthAdjust="spacing" textLength="94" x="130.5" y="565.1074">ReaderService</text><line style="stroke:#181818;stroke-width:0.5;" x1="8" x2="347" y1="573.6211" y2="573.6211"/><line style="stroke:#181818;stroke-width:0.5;" x1="8" x2="347" y1="581.6211" y2="581.6211"/><text fill="#000000" font-family="sans-serif" font-size="14" lengthAdjust="spacing" textLength="329" x="13" y="600.7285">+getReaderById(readerId: Long): Optional&lt;Reader&gt;</text></g><!--class BookService--><g id="elem_BookService"><rect codeLine="22" fill="#F1F1F1" height="63.2422" id="BookService" rx="2.5" ry="2.5" style="stroke:#181818;stroke-width:0.5;" width="308" x="383.5" y="545"/><text fill="#000000" font-family="sans-serif" font-size="14" lengthAdjust="spacing" textLength="79" x="498" y="565.1074">BookService</text><line style="stroke:#181818;stroke-width:0.5;" x1="384.5" x2="690.5" y1="573.6211" y2="573.6211"/><line style="stroke:#181818;stroke-width:0.5;" x1="384.5" x2="690.5" y1="581.6211" y2="581.6211"/><text fill="#000000" font-family="sans-serif" font-size="14" lengthAdjust="spacing" textLength="296" x="389.5" y="600.7285">+getBookByISBN(isbn: String): Optional&lt;Book&gt;</text></g><!--class LendingService--><g id="elem_LendingService"><rect codeLine="26" fill="#F1F1F1" height="81.8633" id="LendingService" rx="2.5" ry="2.5" style="stroke:#181818;stroke-width:0.5;" width="391" x="342" y="386"/><text fill="#000000" font-family="sans-serif" font-size="14" lengthAdjust="spacing" textLength="98" x="488.5" y="406.1074">LendingService</text><line style="stroke:#181818;stroke-width:0.5;" x1="343" x2="732" y1="414.6211" y2="414.6211"/><line style="stroke:#181818;stroke-width:0.5;" x1="343" x2="732" y1="422.6211" y2="422.6211"/><text fill="#000000" font-family="sans-serif" font-size="14" lengthAdjust="spacing" textLength="379" x="348" y="441.7285">+createLending(resource: CreateLendingRequest): Lending</text><text fill="#000000" font-family="sans-serif" font-size="14" lengthAdjust="spacing" textLength="339" x="348" y="460.3496">+returnBook(resource: EditLendingRequest): Lending</text></g><!--class ReaderRepository--><g id="elem_ReaderRepository"><rect codeLine="31" fill="#F1F1F1" height="79.2031" id="ReaderRepository" rx="2.5" ry="2.5" style="stroke:#181818;stroke-width:0.5;" width="297" x="29" y="714.5"/><text fill="#000000" font-family="sans-serif" font-size="12" font-style="italic" lengthAdjust="spacing" textLength="61" x="147" y="732.4492">&#171;interface&#187;</text><text fill="#000000" font-family="sans-serif" font-size="14" font-style="italic" lengthAdjust="spacing" textLength="115" x="120" y="750.5684">ReaderRepository</text><line style="stroke:#181818;stroke-width:0.5;" x1="30" x2="325" y1="759.082" y2="759.082"/><line style="stroke:#181818;stroke-width:0.5;" x1="30" x2="325" y1="767.082" y2="767.082"/><text fill="#000000" font-family="sans-serif" font-size="14" lengthAdjust="spacing" textLength="285" x="35" y="786.1895">+findById(readerId: Long): Optional&lt;Reader&gt;</text></g><!--class BookRepository--><g id="elem_BookRepository"><rect codeLine="35" fill="#F1F1F1" height="79.2031" id="BookRepository" rx="2.5" ry="2.5" style="stroke:#181818;stroke-width:0.5;" width="275" x="400" y="714.5"/><text fill="#000000" font-family="sans-serif" font-size="12" font-style="italic" lengthAdjust="spacing" textLength="61" x="507" y="732.4492">&#171;interface&#187;</text><text fill="#000000" font-family="sans-serif" font-size="14" font-style="italic" lengthAdjust="spacing" textLength="101" x="487" y="750.5684">BookRepository</text><line style="stroke:#181818;stroke-width:0.5;" x1="401" x2="674" y1="759.082" y2="759.082"/><line style="stroke:#181818;stroke-width:0.5;" x1="401" x2="674" y1="767.082" y2="767.082"/><text fill="#000000" font-family="sans-serif" font-size="14" lengthAdjust="spacing" textLength="263" x="406" y="786.1895">+findByIsbn(isbn: String): Optional&lt;Book&gt;</text></g><!--class LendingRepository--><g id="elem_LendingRepository"><rect codeLine="39" fill="#F1F1F1" height="79.2031" id="LendingRepository" rx="2.5" ry="2.5" style="stroke:#181818;stroke-width:0.5;" width="224" x="726.5" y="537"/><text fill="#000000" font-family="sans-serif" font-size="12" font-style="italic" lengthAdjust="spacing" textLength="61" x="808" y="554.9492">&#171;interface&#187;</text><text fill="#000000" font-family="sans-serif" font-size="14" font-style="italic" lengthAdjust="spacing" textLength="119" x="779" y="573.0684">LendingRepository</text><line style="stroke:#181818;stroke-width:0.5;" x1="727.5" x2="949.5" y1="581.582" y2="581.582"/><line style="stroke:#181818;stroke-width:0.5;" x1="727.5" x2="949.5" y1="589.582" y2="589.582"/><text fill="#000000" font-family="sans-serif" font-size="14" lengthAdjust="spacing" textLength="212" x="732.5" y="608.6895">+save(lending: Lending): Lending</text></g><!--class Reader--><g id="elem_Reader"><rect codeLine="43" fill="#F1F1F1" height="100.4844" id="Reader" rx="2.5" ry="2.5" style="stroke:#181818;stroke-width:0.5;" width="110" x="122.5" y="892"/><text fill="#000000" font-family="sans-serif" font-size="14" lengthAdjust="spacing" textLength="47" x="154" y="912.1074">Reader</text><line style="stroke:#181818;stroke-width:0.5;" x1="123.5" x2="231.5" y1="920.6211" y2="920.6211"/><text fill="#000000" font-family="sans-serif" font-size="14" lengthAdjust="spacing" textLength="98" x="128.5" y="939.7285">-readerId: Long</text><text fill="#000000" font-family="sans-serif" font-size="14" lengthAdjust="spacing" textLength="85" x="128.5" y="958.3496">-name: String</text><text fill="#000000" font-family="sans-serif" font-size="14" lengthAdjust="spacing" textLength="83" x="128.5" y="976.9707">-email: String</text><line style="stroke:#181818;stroke-width:0.5;" x1="123.5" x2="231.5" y1="984.4844" y2="984.4844"/></g><!--class Book--><g id="elem_Book"><rect codeLine="49" fill="#F1F1F1" height="100.4844" id="Book" rx="2.5" ry="2.5" style="stroke:#181818;stroke-width:0.5;" width="148" x="463.5" y="892"/><text fill="#000000" font-family="sans-serif" font-size="14" lengthAdjust="spacing" textLength="32" x="521.5" y="912.1074">Book</text><line style="stroke:#181818;stroke-width:0.5;" x1="464.5" x2="610.5" y1="920.6211" y2="920.6211"/><text fill="#000000" font-family="sans-serif" font-size="14" lengthAdjust="spacing" textLength="76" x="469.5" y="939.7285">-isbn: String</text><text fill="#000000" font-family="sans-serif" font-size="14" lengthAdjust="spacing" textLength="72" x="469.5" y="958.3496">-title: String</text><text fill="#000000" font-family="sans-serif" font-size="14" lengthAdjust="spacing" textLength="136" x="469.5" y="976.9707">-authors: List&lt;String&gt;</text><line style="stroke:#181818;stroke-width:0.5;" x1="464.5" x2="610.5" y1="984.4844" y2="984.4844"/></g><!--class Lending--><g id="elem_Lending"><rect codeLine="55" fill="#F1F1F1" height="156.3477" id="Lending" rx="2.5" ry="2.5" style="stroke:#181818;stroke-width:0.5;" width="128" x="774.5" y="676"/><text fill="#000000" font-family="sans-serif" font-size="14" lengthAdjust="spacing" textLength="51" x="813" y="696.1074">Lending</text><line style="stroke:#181818;stroke-width:0.5;" x1="775.5" x2="901.5" y1="704.6211" y2="704.6211"/><text fill="#000000" font-family="sans-serif" font-size="14" lengthAdjust="spacing" textLength="56" x="780.5" y="723.7285">-id: Long</text><text fill="#000000" font-family="sans-serif" font-size="14" lengthAdjust="spacing" textLength="102" x="780.5" y="742.3496">-reader: Reader</text><text fill="#000000" font-family="sans-serif" font-size="14" lengthAdjust="spacing" textLength="76" x="780.5" y="760.9707">-book: Book</text><text fill="#000000" font-family="sans-serif" font-size="14" lengthAdjust="spacing" textLength="101" x="780.5" y="779.5918">-startDate: Date</text><text fill="#000000" font-family="sans-serif" font-size="14" lengthAdjust="spacing" textLength="111" x="780.5" y="798.2129">-returnDate: Date</text><text fill="#000000" font-family="sans-serif" font-size="14" lengthAdjust="spacing" textLength="116" x="780.5" y="816.834">-overdue: boolean</text><line style="stroke:#181818;stroke-width:0.5;" x1="775.5" x2="901.5" y1="824.3477" y2="824.3477"/></g><!--class HttpResult--><g id="elem_HttpResult"><rect codeLine="64" fill="#F1F1F1" height="100.4844" id="HttpResult" rx="2.5" ry="2.5" style="stroke:#181818;stroke-width:0.5;" width="318" x="768.5" y="377"/><text fill="#000000" font-family="sans-serif" font-size="14" lengthAdjust="spacing" textLength="65" x="895" y="397.1074">HttpResult</text><line style="stroke:#181818;stroke-width:0.5;" x1="769.5" x2="1085.5" y1="405.6211" y2="405.6211"/><text fill="#000000" font-family="sans-serif" font-size="14" lengthAdjust="spacing" textLength="116" x="774.5" y="424.7285">-status: HttpStatus</text><text fill="#000000" font-family="sans-serif" font-size="14" lengthAdjust="spacing" textLength="74" x="774.5" y="443.3496">-result: json</text><line style="stroke:#181818;stroke-width:0.5;" x1="769.5" x2="1085.5" y1="450.8633" y2="450.8633"/><text fill="#000000" font-family="sans-serif" font-size="14" lengthAdjust="spacing" textLength="306" x="774.5" y="469.9707">HttpResult(HttpStatus status, const json &amp;result);</text></g><!--link HTTPClient to RouteHandler--><g id="link_HTTPClient_RouteHandler"><path codeLine="70" d="M732.5,52.09 C732.5,69 732.5,86.74 732.5,105.65 " fill="none" id="HTTPClient-to-RouteHandler" style="stroke:#181818;stroke-width:1.0;"/><polygon fill="#181818" points="732.5,111.65,736.5,102.65,732.5,106.65,728.5,102.65,732.5,111.65" style="stroke:#181818;stroke-width:1.0;"/></g><!--link RouteHandler to LendingController--><g id="link_RouteHandler_LendingController"><path codeLine="71" d="M732.5,175.1 C732.5,192.88 732.5,209.49 732.5,228.71 " fill="none" id="RouteHandler-to-LendingController" style="stroke:#181818;stroke-width:1.0;"/><polygon fill="#181818" points="732.5,234.71,736.5,225.71,732.5,229.71,728.5,225.71,732.5,234.71" style="stroke:#181818;stroke-width:1.0;"/></g><!--link LendingController to LendingService--><g id="link_LendingController_LendingService"><path codeLine="72" d="M679.99,317.13 C652.12,338.42 622.7472,360.8566 594.8772,382.1566 " fill="none" id="LendingController-to-LendingService" style="stroke:#181818;stroke-width:1.0;"/><polygon fill="#181818" points="590.11,385.8,599.6897,383.5131,594.0826,382.7639,594.8318,377.1568,590.11,385.8" style="stroke:#181818;stroke-width:1.0;"/></g><!--link LendingService to BookService--><g id="link_LendingService_BookService"><path codeLine="73" d="M537.5,468.31 C537.5,492.36 537.5,516.43 537.5,538.6 " fill="none" id="LendingService-to-BookService" style="stroke:#181818;stroke-width:1.0;"/><polygon fill="#181818" points="537.5,544.6,541.5,535.6,537.5,539.6,533.5,535.6,537.5,544.6" style="stroke:#181818;stroke-width:1.0;"/></g><!--link LendingService to ReaderService--><g id="link_LendingService_ReaderService"><path codeLine="74" d="M439.6,468.11 C380.47,492.34 311.8522,520.4556 257.5122,542.7156 " fill="none" id="LendingService-to-ReaderService" style="stroke:#181818;stroke-width:1.0;"/><polygon fill="#181818" points="251.96,544.99,261.8046,545.2798,256.5868,543.0946,258.772,537.8769,251.96,544.99" style="stroke:#181818;stroke-width:1.0;"/></g><!--link ReaderService to ReaderRepository--><g id="link_ReaderService_ReaderRepository"><path codeLine="75" d="M177.5,608.07 C177.5,637.53 177.5,676.23 177.5,708.19 " fill="none" id="ReaderService-to-ReaderRepository" style="stroke:#181818;stroke-width:1.0;"/><polygon fill="#181818" points="177.5,714.19,181.5,705.19,177.5,709.19,173.5,705.19,177.5,714.19" style="stroke:#181818;stroke-width:1.0;"/></g><!--link BookService to BookRepository--><g id="link_BookService_BookRepository"><path codeLine="76" d="M537.5,608.07 C537.5,637.53 537.5,676.23 537.5,708.19 " fill="none" id="BookService-to-BookRepository" style="stroke:#181818;stroke-width:1.0;"/><polygon fill="#181818" points="537.5,714.19,541.5,705.19,537.5,709.19,533.5,705.19,537.5,714.19" style="stroke:#181818;stroke-width:1.0;"/></g><!--link LendingService to LendingRepository--><g id="link_LendingService_LendingRepository"><path codeLine="77" d="M619.35,468.11 C663.05,489.52 711.1819,513.1102 754.3919,534.2802 " fill="none" id="LendingService-to-LendingRepository" style="stroke:#181818;stroke-width:1.0;"/><polygon fill="#181818" points="759.78,536.92,753.4577,529.3682,755.2899,534.7202,749.938,536.5524,759.78,536.92" style="stroke:#181818;stroke-width:1.0;"/></g><!--link LendingRepository to Lending--><g id="link_LendingRepository_Lending"><path codeLine="78" d="M838.5,616.01 C838.5,633.57 838.5,649.02 838.5,669.68 " fill="none" id="LendingRepository-to-Lending" style="stroke:#181818;stroke-width:1.0;stroke-dasharray:7.0,7.0;"/><polygon fill="#181818" points="838.5,675.68,842.5,666.68,838.5,670.68,834.5,666.68,838.5,675.68" style="stroke:#181818;stroke-width:1.0;"/></g><!--link ReaderRepository to Reader--><g id="link_ReaderRepository_Reader"><path codeLine="79" d="M177.5,793.54 C177.5,822.06 177.5,855.12 177.5,885.88 " fill="none" id="ReaderRepository-to-Reader" style="stroke:#181818;stroke-width:1.0;stroke-dasharray:7.0,7.0;"/><polygon fill="#181818" points="177.5,891.88,181.5,882.88,177.5,886.88,173.5,882.88,177.5,891.88" style="stroke:#181818;stroke-width:1.0;"/></g><!--link BookRepository to Book--><g id="link_BookRepository_Book"><path codeLine="80" d="M537.5,793.54 C537.5,822.06 537.5,855.12 537.5,885.88 " fill="none" id="BookRepository-to-Book" style="stroke:#181818;stroke-width:1.0;stroke-dasharray:7.0,7.0;"/><polygon fill="#181818" points="537.5,891.88,541.5,882.88,537.5,886.88,533.5,882.88,537.5,891.88" style="stroke:#181818;stroke-width:1.0;"/></g><!--link LendingController to HttpResult--><g id="link_LendingController_HttpResult"><path codeLine="81" d="M785.01,317.13 C809.04,335.48 832.9727,353.7668 858.2927,373.1168 " fill="none" id="LendingController-to-HttpResult" style="stroke:#181818;stroke-width:1.0;"/><polygon fill="#181818" points="863.06,376.76,858.3379,368.117,859.0873,373.724,853.4803,374.4733,863.06,376.76" style="stroke:#181818;stroke-width:1.0;"/></g><!--SRC=[bLN1Zjem4BtxAtngMRL0pob2MkXA8AtQ2bQzctWMt3LsQa-eQDL_hnqxiKEGTk60mfkPvpV3-ENz0R6onNHQIQQmFif9gO_JKZ9hnromlM57GWw20os5AIKG-o9KnHnCcwHxH2DsDSAwr6eh_W3zH4WJeQkdf-zBAK0X_Kl-jUX6k-GLKro2SJXrdm_qqFpUmAyQB8uuGrRGdrQhkuAkdBuDs5fYudW4nONQBxL2esLEL1fW234-Cc1rRKeew3B7upcEt15NMbbuK2ZmF8ln7m9-poEX0QoDMcZzah4zS84tSQNkWN4mMp0dKKAdUWyO0elpchjp_EEQ5_HHgxrZ_bQXq8h9MKZAwBokAsGUTbJRnTUHi3jLqAtxa_fKFcK-cEWbrutZZC3Deslhd1oX4CmpSnf2inkej1MepPdEPbrmFkyaFWl5tpwsHEzrlPNSpV3rGIRghhzNs2qxmKY6v6u8_N7aMnFhnhJVQGGLEqAhBq9mP49sM6zfEgwyhGYvzPMNLAp6WpRMdIWipa9ek3w9jQyj22vY7n7SEHb58oO25fd1Bswl2kg_krg_HGDOdy3msc6EHW9JIKioZ5QE8yRQ1YlPDiy1DqrMS9e6IQMZb4j3-KVg3CvYaqpVXTAxp_xOpEV6utdFu4ZFxNnqO5raQ6PPNhoGvE9- -epixbyBzvo6z7qdnTEEajnBMluiVEM8mPwJuUPF9bqU6Tne7umxSN4TVQHPZUlJoLuA_m40]--></g></svg>
