<?xml version="1.0" encoding="us-ascii" standalone="no"?><svg xmlns="http://www.w3.org/2000/svg" xmlns:xlink="http://www.w3.org/1999/xlink" contentStyleType="text/css" height="778px" preserveAspectRatio="none" style="width:607px;height:778px;background:#FFFFFF;" version="1.1" viewBox="0 0 607 778" width="607px" zoomAndPan="magnify"><defs/><g><!--class Book--><g id="elem_Book"><rect codeLine="6" fill="#F1F1F1" height="137.7266" id="Book" rx="2.5" ry="2.5" style="stroke:#181818;stroke-width:0.5;" width="86" x="7" y="150"/><text fill="#000000" font-family="sans-serif" font-size="14" lengthAdjust="spacing" textLength="32" x="34" y="170.1074">Book</text><line style="stroke:#181818;stroke-width:0.5;" x1="8" x2="92" y1="178.6211" y2="178.6211"/><text fill="#000000" font-family="sans-serif" font-size="14" lengthAdjust="spacing" textLength="16" x="13" y="197.7285">-id</text><text fill="#000000" font-family="sans-serif" font-size="14" lengthAdjust="spacing" textLength="31" x="13" y="216.3496">-isbn</text><text fill="#000000" font-family="sans-serif" font-size="14" lengthAdjust="spacing" textLength="27" x="13" y="234.9707">-title</text><text fill="#000000" font-family="sans-serif" font-size="14" lengthAdjust="spacing" textLength="42" x="13" y="253.5918">-genre</text><text fill="#000000" font-family="sans-serif" font-size="14" lengthAdjust="spacing" textLength="74" x="13" y="272.2129">-description</text><line style="stroke:#181818;stroke-width:0.5;" x1="8" x2="92" y1="279.7266" y2="279.7266"/></g><!--class BookAuthor--><g id="elem_BookAuthor"><rect codeLine="14" fill="#F1F1F1" height="63.2422" id="BookAuthor" rx="2.5" ry="2.5" style="stroke:#181818;stroke-width:0.5;" width="80" x="12" y="349"/><text fill="#000000" font-family="sans-serif" font-size="14" lengthAdjust="spacing" textLength="74" x="15" y="369.1074">BookAuthor</text><line style="stroke:#181818;stroke-width:0.5;" x1="13" x2="91" y1="377.6211" y2="377.6211"/><text fill="#000000" font-family="sans-serif" font-size="14" lengthAdjust="spacing" textLength="16" x="18" y="396.7285">-id</text><line style="stroke:#181818;stroke-width:0.5;" x1="13" x2="91" y1="404.2422" y2="404.2422"/></g><!--class Genre--><g id="elem_Genre"><rect codeLine="18" fill="#F1F1F1" height="81.8633" id="Genre" rx="2.5" ry="2.5" style="stroke:#181818;stroke-width:0.5;" width="52" x="24" y="7"/><text fill="#000000" font-family="sans-serif" font-size="14" lengthAdjust="spacing" textLength="40" x="30" y="27.1074">Genre</text><line style="stroke:#181818;stroke-width:0.5;" x1="25" x2="75" y1="35.6211" y2="35.6211"/><text fill="#000000" font-family="sans-serif" font-size="14" lengthAdjust="spacing" textLength="16" x="30" y="54.7285">-id</text><text fill="#000000" font-family="sans-serif" font-size="14" lengthAdjust="spacing" textLength="40" x="30" y="73.3496">-name</text><line style="stroke:#181818;stroke-width:0.5;" x1="25" x2="75" y1="80.8633" y2="80.8633"/></g><!--class Author--><g id="elem_Author"><rect codeLine="23" fill="#F1F1F1" height="100.4844" id="Author" rx="2.5" ry="2.5" style="stroke:#181818;stroke-width:0.5;" width="69" x="146.5" y="491"/><text fill="#000000" font-family="sans-serif" font-size="14" lengthAdjust="spacing" textLength="42" x="160" y="511.1074">Author</text><line style="stroke:#181818;stroke-width:0.5;" x1="147.5" x2="214.5" y1="519.6211" y2="519.6211"/><text fill="#000000" font-family="sans-serif" font-size="14" lengthAdjust="spacing" textLength="16" x="152.5" y="538.7285">-id</text><text fill="#000000" font-family="sans-serif" font-size="14" lengthAdjust="spacing" textLength="40" x="152.5" y="557.3496">-name</text><text fill="#000000" font-family="sans-serif" font-size="14" lengthAdjust="spacing" textLength="57" x="152.5" y="575.9707">-shortBio</text><line style="stroke:#181818;stroke-width:0.5;" x1="147.5" x2="214.5" y1="583.4844" y2="583.4844"/></g><!--class AuthorPhoto--><g id="elem_AuthorPhoto"><rect codeLine="29" fill="#F1F1F1" height="119.1055" id="AuthorPhoto" rx="2.5" ry="2.5" style="stroke:#181818;stroke-width:0.5;" width="345" x="8.5" y="652"/><text fill="#000000" font-family="sans-serif" font-size="14" lengthAdjust="spacing" textLength="79" x="141.5" y="672.1074">AuthorPhoto</text><line style="stroke:#181818;stroke-width:0.5;" x1="9.5" x2="352.5" y1="680.6211" y2="680.6211"/><text fill="#000000" font-family="sans-serif" font-size="14" lengthAdjust="spacing" textLength="16" x="14.5" y="699.7285">-id</text><text fill="#000000" font-family="sans-serif" font-size="14" lengthAdjust="spacing" textLength="43" x="14.5" y="718.3496">-image</text><text fill="#000000" font-family="sans-serif" font-size="14" lengthAdjust="spacing" textLength="84" x="14.5" y="736.9707">-contentType</text><line style="stroke:#181818;stroke-width:0.5;" x1="9.5" x2="352.5" y1="744.4844" y2="744.4844"/><text fill="#000000" font-family="sans-serif" font-size="14" lengthAdjust="spacing" textLength="333" x="14.5" y="763.5918">AuthorPhoto(Long id,byte image,String contentType)</text></g><!--class AuthorController--><g id="elem_AuthorController"><rect codeLine="36" fill="#F1F1F1" height="63.2422" id="AuthorController" rx="2.5" ry="2.5" style="stroke:#181818;stroke-width:0.5;" width="170" x="220" y="16.5"/><text fill="#000000" font-family="sans-serif" font-size="14" lengthAdjust="spacing" textLength="104" x="253" y="36.6074">AuthorController</text><line style="stroke:#181818;stroke-width:0.5;" x1="221" x2="389" y1="45.1211" y2="45.1211"/><line style="stroke:#181818;stroke-width:0.5;" x1="221" x2="389" y1="53.1211" y2="53.1211"/><text fill="#000000" font-family="sans-serif" font-size="14" lengthAdjust="spacing" textLength="158" x="226" y="72.2285">+getAuthorCoAuthors(id)</text></g><!--class BookServiceImpl--><g id="elem_BookServiceImpl"><rect codeLine="40" fill="#F1F1F1" height="63.2422" id="BookServiceImpl" rx="2.5" ry="2.5" style="stroke:#181818;stroke-width:0.5;" width="211" x="199.5" y="187.5"/><text fill="#000000" font-family="sans-serif" font-size="14" lengthAdjust="spacing" textLength="104" x="253" y="207.6074">BookServiceImpl</text><line style="stroke:#181818;stroke-width:0.5;" x1="200.5" x2="409.5" y1="216.1211" y2="216.1211"/><line style="stroke:#181818;stroke-width:0.5;" x1="200.5" x2="409.5" y1="224.1211" y2="224.1211"/><text fill="#000000" font-family="sans-serif" font-size="14" lengthAdjust="spacing" textLength="199" x="205.5" y="243.2285">+getBookAuthorsByAuthorId(id)</text></g><!--class AuthorViewMapper--><g id="elem_AuthorViewMapper"><rect codeLine="44" fill="#F1F1F1" height="63.2422" id="AuthorViewMapper" rx="2.5" ry="2.5" style="stroke:#181818;stroke-width:0.5;" width="154" x="446" y="187.5"/><text fill="#000000" font-family="sans-serif" font-size="14" lengthAdjust="spacing" textLength="119" x="463.5" y="207.6074">AuthorViewMapper</text><line style="stroke:#181818;stroke-width:0.5;" x1="447" x2="599" y1="216.1211" y2="216.1211"/><line style="stroke:#181818;stroke-width:0.5;" x1="447" x2="599" y1="224.1211" y2="224.1211"/><text fill="#000000" font-family="sans-serif" font-size="14" lengthAdjust="spacing" textLength="142" x="452" y="243.2285">+toAuthorView(author)</text></g><!--class BookAuthorRepository--><g id="elem_BookAuthorRepository"><rect codeLine="49" fill="#F1F1F1" height="63.2422" id="BookAuthorRepository" rx="2.5" ry="2.5" style="stroke:#181818;stroke-width:0.5;" width="183" x="270.5" y="349"/><text fill="#000000" font-family="sans-serif" font-size="14" lengthAdjust="spacing" textLength="142" x="291" y="369.1074">BookAuthorRepository</text><line style="stroke:#181818;stroke-width:0.5;" x1="271.5" x2="452.5" y1="377.6211" y2="377.6211"/><line style="stroke:#181818;stroke-width:0.5;" x1="271.5" x2="452.5" y1="385.6211" y2="385.6211"/><text fill="#000000" font-family="sans-serif" font-size="14" lengthAdjust="spacing" textLength="171" x="276.5" y="404.7285">+getAuthorBooks(authorId)</text></g><!--link AuthorController to BookServiceImpl--><g id="link_AuthorController_BookServiceImpl"><path codeLine="55" d="M305,79.6 C305,110.14 305,150.78 305,181.34 " fill="none" id="AuthorController-to-BookServiceImpl" style="stroke:#181818;stroke-width:1.0;stroke-dasharray:7.0,7.0;"/><polygon fill="#181818" points="305,187.34,309,178.34,305,182.34,301,178.34,305,187.34" style="stroke:#181818;stroke-width:1.0;"/></g><!--link BookServiceImpl to BookAuthorRepository--><g id="link_BookServiceImpl_BookAuthorRepository"><path codeLine="56" d="M315.99,250.75 C326.08,279 338.9411,314.9799 349.0211,343.1899 " fill="none" id="BookServiceImpl-to-BookAuthorRepository" style="stroke:#181818;stroke-width:1.0;stroke-dasharray:7.0,7.0;"/><polygon fill="#181818" points="351.04,348.84,351.7784,339.0189,349.3576,344.1316,344.2449,341.7107,351.04,348.84" style="stroke:#181818;stroke-width:1.0;"/></g><!--link AuthorController to AuthorViewMapper--><g id="link_AuthorController_AuthorViewMapper"><path codeLine="57" d="M344.48,79.6 C383.86,110.14 439.2985,153.1033 478.7085,183.6633 " fill="none" id="AuthorController-to-AuthorViewMapper" style="stroke:#181818;stroke-width:1.0;stroke-dasharray:7.0,7.0;"/><polygon fill="#181818" points="483.45,187.34,478.7889,178.6639,479.4988,184.2761,473.8866,184.9859,483.45,187.34" style="stroke:#181818;stroke-width:1.0;"/></g><!--link AuthorController to Author--><g id="link_AuthorController_Author"><path codeLine="58" d="M248.81,79.51 C223.43,96.58 196.03,120.42 182,150 C128.75,262.26 150.021,408.1023 167.081,485.0323 " fill="none" id="AuthorController-to-Author" style="stroke:#181818;stroke-width:1.0;stroke-dasharray:7.0,7.0;"/><polygon fill="#181818" points="168.38,490.89,170.3366,481.2375,167.2975,486.0086,162.5264,482.9695,168.38,490.89" style="stroke:#181818;stroke-width:1.0;"/></g><!--link BookServiceImpl to Author--><g id="link_BookServiceImpl_Author"><path codeLine="59" d="M292.41,250.68 C281.75,276.77 266.16,315.25 253,349 C234.27,397.04 215.6627,446.5468 201.2827,485.1868 " fill="none" id="BookServiceImpl-to-Author" style="stroke:#181818;stroke-width:1.0;stroke-dasharray:7.0,7.0;"/><polygon fill="#181818" points="199.19,490.81,206.0779,483.7703,200.9339,486.124,198.5802,480.98,199.19,490.81" style="stroke:#181818;stroke-width:1.0;"/></g><!--link BookAuthorRepository to Author--><g id="link_BookAuthorRepository_Author"><path codeLine="60" d="M327.1,412.06 C295.05,440.13 252.3246,477.548 220.3046,505.578 " fill="none" id="BookAuthorRepository-to-Author" style="stroke:#181818;stroke-width:1.0;"/><polygon fill="#181818" points="215.79,509.53,225.1966,506.6117,219.5522,506.2366,219.9272,500.5922,215.79,509.53" style="stroke:#181818;stroke-width:1.0;"/><text fill="#000000" font-family="sans-serif" font-size="13" lengthAdjust="spacing" textLength="53" x="289" y="457.0283">searches</text><text fill="#000000" font-family="sans-serif" font-size="13" lengthAdjust="spacing" textLength="7" x="312.18" y="434.3557">1</text><text fill="#000000" font-family="sans-serif" font-size="13" lengthAdjust="spacing" textLength="20" x="223.4883" y="499.6719">1..*</text></g><!--link Book to BookAuthor--><g id="link_Book_BookAuthor"><path codeLine="62" d="M50.85,288.11 C51.12,309.27 51.4,331.56 51.62,348.82 " fill="none" id="Book-BookAuthor" style="stroke:#181818;stroke-width:1.0;"/><text fill="#000000" font-family="sans-serif" font-size="13" lengthAdjust="spacing" textLength="7" x="43.5891" y="309.8058">1</text><text fill="#000000" font-family="sans-serif" font-size="13" lengthAdjust="spacing" textLength="20" x="29.4791" y="337.5662">1..*</text></g><!--link BookAuthor to Author--><g id="link_BookAuthor_Author"><path codeLine="63" d="M76.87,412.06 C96.64,436.35 124.52,470.6 146.45,497.55 " fill="none" id="BookAuthor-Author" style="stroke:#181818;stroke-width:1.0;"/><text fill="#000000" font-family="sans-serif" font-size="13" lengthAdjust="spacing" textLength="20" x="59.9369" y="434.3557">1..*</text><text fill="#000000" font-family="sans-serif" font-size="13" lengthAdjust="spacing" textLength="7" x="131.6022" y="483.8437">1</text></g><!--link Genre to Book--><g id="link_Genre_Book"><path codeLine="64" d="M50,89.05 C50,107.21 50,129.19 50,149.82 " fill="none" id="Genre-Book" style="stroke:#181818;stroke-width:1.0;"/><text fill="#000000" font-family="sans-serif" font-size="13" lengthAdjust="spacing" textLength="7" x="42.4422" y="111.0094">1</text><text fill="#000000" font-family="sans-serif" font-size="13" lengthAdjust="spacing" textLength="20" x="28.9688" y="138.8667">1..*</text></g><!--reverse link Author to AuthorPhoto--><g id="link_Author_AuthorPhoto"><path codeLine="66" d="M181,603.19 C181,622.13 181,631.95 181,651.71 " fill="none" id="Author-backto-AuthorPhoto" style="stroke:#181818;stroke-width:1.0;"/><polygon fill="#181818" points="181,591.19,177,597.19,181,603.19,185,597.19,181,591.19" style="stroke:#181818;stroke-width:1.0;"/><text fill="#000000" font-family="sans-serif" font-size="13" lengthAdjust="spacing" textLength="7" x="173.5078" y="613.458">1</text><text fill="#000000" font-family="sans-serif" font-size="13" lengthAdjust="spacing" textLength="7" x="173.5953" y="640.853">1</text></g><!--SRC=[VL91JiCm4Bpx5LOkjAL9uSgXKii1HG89KSJTTLQ9rSIsx0qe8FwEQpUDcrJauidEp4vsuviAKTk7rKhNJ6BRr1bNpOhNpDgq4Amqh26a4WLGBWolWTY3a9gvClMY3Q8H-nOXvqhkn3VGEq8yGxTA7Nu8TKzAHT43kvSdY09Tlu1BaAR71LXkX4QX9FcDcsrQh9I9MfxPfwDzaYLP0uDcuev40Lh7urQeiUUrKgYcapIix9rkTWI9xvqEbSWtUrQoTAxblaC8fkNExSmL8zTydFdeEAFg6Wm9oRTkHzXpuRGpKHoDmuPsO3u5XxpHTMmRbcUtNG1vSM4EnGy1NozCwoWKrK3Dc8VpQt_b3RIo0fNffjzxLDcJEVUXX8odf5csdemmUZzh9f5Nkqrc-aTrDIgYneaqkKzecgxTcMMBv2Hze1QOuHLOubqdLIyQ6aKzUzBBaZZppBGwSFwMzwlpbSM5ozytyWS0]--></g></svg>
