<?xml version="1.0" encoding="us-ascii" standalone="no"?><svg xmlns="http://www.w3.org/2000/svg" xmlns:xlink="http://www.w3.org/1999/xlink" contentStyleType="text/css" height="676px" preserveAspectRatio="none" style="width:1093px;height:676px;background:#FFFFFF;" version="1.1" viewBox="0 0 1093 676" width="1093px" zoomAndPan="magnify"><defs/><g><rect fill="#FFFFFF" height="458.7832" style="stroke:#181818;stroke-width:1.0;" width="10" x="327.5" y="116.9121"/><rect fill="#FFFFFF" height="333.6191" style="stroke:#181818;stroke-width:1.0;" width="10" x="578.5" y="148.2031"/><rect fill="#FFFFFF" height="42.291" style="stroke:#181818;stroke-width:1.0;" width="10" x="583.5" y="312.6582"/><rect fill="#FFFFFF" height="42.291" style="stroke:#181818;stroke-width:1.0;" width="10" x="583.5" y="401.2402"/><rect fill="#FFFFFF" height="31.291" style="stroke:#181818;stroke-width:1.0;" width="10" x="815.5" y="179.4941"/><rect fill="#FFFFFF" height="31.291" style="stroke:#181818;stroke-width:1.0;" width="10" x="926.5" y="242.0762"/><rect fill="#FFFFFF" height="31.291" style="stroke:#181818;stroke-width:1.0;" width="10" x="1021" y="513.1133"/><line style="stroke:#181818;stroke-width:0.5;stroke-dasharray:5.0,5.0;" x1="31" x2="31" y1="83.6211" y2="593.6953"/><line style="stroke:#181818;stroke-width:0.5;stroke-dasharray:5.0,5.0;" x1="332.5" x2="332.5" y1="83.6211" y2="593.6953"/><line style="stroke:#181818;stroke-width:0.5;stroke-dasharray:5.0,5.0;" x1="583" x2="583" y1="83.6211" y2="593.6953"/><line style="stroke:#181818;stroke-width:0.5;stroke-dasharray:5.0,5.0;" x1="820.5" x2="820.5" y1="83.6211" y2="593.6953"/><line style="stroke:#181818;stroke-width:0.5;stroke-dasharray:5.0,5.0;" x1="931.5" x2="931.5" y1="83.6211" y2="593.6953"/><line style="stroke:#181818;stroke-width:0.5;stroke-dasharray:5.0,5.0;" x1="1025.5" x2="1025.5" y1="83.6211" y2="593.6953"/><text fill="#000000" font-family="sans-serif" font-size="14" lengthAdjust="spacing" textLength="47" x="5" y="80.1074">Reader</text><ellipse cx="31.5" cy="13.5" fill="#E2E2F0" rx="8" ry="8" style="stroke:#181818;stroke-width:0.5;"/><path d="M31.5,21.5 L31.5,48.5 M18.5,29.5 L44.5,29.5 M31.5,48.5 L18.5,63.5 M31.5,48.5 L44.5,63.5 " fill="none" style="stroke:#181818;stroke-width:0.5;"/><text fill="#000000" font-family="sans-serif" font-size="14" lengthAdjust="spacing" textLength="47" x="5" y="607.8027">Reader</text><ellipse cx="31.5" cy="619.8164" fill="#E2E2F0" rx="8" ry="8" style="stroke:#181818;stroke-width:0.5;"/><path d="M31.5,627.8164 L31.5,654.8164 M18.5,635.8164 L44.5,635.8164 M31.5,654.8164 L18.5,669.8164 M31.5,654.8164 L44.5,669.8164 " fill="none" style="stroke:#181818;stroke-width:0.5;"/><rect fill="#E2E2F0" height="32.6211" rx="2.5" ry="2.5" style="stroke:#181818;stroke-width:0.5;" width="118" x="273.5" y="50"/><text fill="#000000" font-family="sans-serif" font-size="14" lengthAdjust="spacing" textLength="104" x="280.5" y="72.1074">AuthorController</text><rect fill="#E2E2F0" height="32.6211" rx="2.5" ry="2.5" style="stroke:#181818;stroke-width:0.5;" width="118" x="273.5" y="592.6953"/><text fill="#000000" font-family="sans-serif" font-size="14" lengthAdjust="spacing" textLength="104" x="280.5" y="614.8027">AuthorController</text><rect fill="#E2E2F0" height="32.6211" rx="2.5" ry="2.5" style="stroke:#181818;stroke-width:0.5;" width="93" x="537" y="50"/><text fill="#000000" font-family="sans-serif" font-size="14" lengthAdjust="spacing" textLength="79" x="544" y="72.1074">BookService</text><rect fill="#E2E2F0" height="32.6211" rx="2.5" ry="2.5" style="stroke:#181818;stroke-width:0.5;" width="93" x="537" y="592.6953"/><text fill="#000000" font-family="sans-serif" font-size="14" lengthAdjust="spacing" textLength="79" x="544" y="614.8027">BookService</text><rect fill="#E2E2F0" height="32.6211" rx="2.5" ry="2.5" style="stroke:#181818;stroke-width:0.5;" width="156" x="742.5" y="50"/><text fill="#000000" font-family="sans-serif" font-size="14" lengthAdjust="spacing" textLength="142" x="749.5" y="72.1074">BookAuthorRepository</text><rect fill="#E2E2F0" height="32.6211" rx="2.5" ry="2.5" style="stroke:#181818;stroke-width:0.5;" width="156" x="742.5" y="592.6953"/><text fill="#000000" font-family="sans-serif" font-size="14" lengthAdjust="spacing" textLength="142" x="749.5" y="614.8027">BookAuthorRepository</text><rect fill="#E2E2F0" height="32.6211" rx="2.5" ry="2.5" style="stroke:#181818;stroke-width:0.5;" width="46" x="908.5" y="50"/><text fill="#000000" font-family="sans-serif" font-size="14" lengthAdjust="spacing" textLength="32" x="915.5" y="72.1074">Book</text><rect fill="#E2E2F0" height="32.6211" rx="2.5" ry="2.5" style="stroke:#181818;stroke-width:0.5;" width="46" x="908.5" y="592.6953"/><text fill="#000000" font-family="sans-serif" font-size="14" lengthAdjust="spacing" textLength="32" x="915.5" y="614.8027">Book</text><rect fill="#E2E2F0" height="32.6211" rx="2.5" ry="2.5" style="stroke:#181818;stroke-width:0.5;" width="123" x="964.5" y="50"/><text fill="#000000" font-family="sans-serif" font-size="14" lengthAdjust="spacing" textLength="109" x="971.5" y="72.1074">BookViewMapper</text><rect fill="#E2E2F0" height="32.6211" rx="2.5" ry="2.5" style="stroke:#181818;stroke-width:0.5;" width="123" x="964.5" y="592.6953"/><text fill="#000000" font-family="sans-serif" font-size="14" lengthAdjust="spacing" textLength="109" x="971.5" y="614.8027">BookViewMapper</text><rect fill="#FFFFFF" height="458.7832" style="stroke:#181818;stroke-width:1.0;" width="10" x="327.5" y="116.9121"/><rect fill="#FFFFFF" height="333.6191" style="stroke:#181818;stroke-width:1.0;" width="10" x="578.5" y="148.2031"/><rect fill="#FFFFFF" height="42.291" style="stroke:#181818;stroke-width:1.0;" width="10" x="583.5" y="312.6582"/><rect fill="#FFFFFF" height="42.291" style="stroke:#181818;stroke-width:1.0;" width="10" x="583.5" y="401.2402"/><rect fill="#FFFFFF" height="31.291" style="stroke:#181818;stroke-width:1.0;" width="10" x="815.5" y="179.4941"/><rect fill="#FFFFFF" height="31.291" style="stroke:#181818;stroke-width:1.0;" width="10" x="926.5" y="242.0762"/><rect fill="#FFFFFF" height="31.291" style="stroke:#181818;stroke-width:1.0;" width="10" x="1021" y="513.1133"/><polygon fill="#181818" points="315.5,112.9121,325.5,116.9121,315.5,120.9121,319.5,116.9121" style="stroke:#181818;stroke-width:1.0;"/><line style="stroke:#181818;stroke-width:1.0;" x1="31.5" x2="321.5" y1="116.9121" y2="116.9121"/><text fill="#000000" font-family="sans-serif" font-size="13" font-weight="bold" lengthAdjust="spacing" textLength="7" x="38.5" y="111.6494">1</text><text fill="#000000" font-family="sans-serif" font-size="13" lengthAdjust="spacing" textLength="195" x="49.5" y="111.6494">GET /api/authors/{authorId}/books</text><polygon fill="#181818" points="566.5,144.2031,576.5,148.2031,566.5,152.2031,570.5,148.2031" style="stroke:#181818;stroke-width:1.0;"/><line style="stroke:#181818;stroke-width:1.0;" x1="337.5" x2="572.5" y1="148.2031" y2="148.2031"/><text fill="#000000" font-family="sans-serif" font-size="13" font-weight="bold" lengthAdjust="spacing" textLength="7" x="344.5" y="142.9404">2</text><text fill="#000000" font-family="sans-serif" font-size="13" lengthAdjust="spacing" textLength="211" x="355.5" y="142.9404">getBookAuthorsByAuthorId(authorId)</text><polygon fill="#181818" points="803.5,175.4941,813.5,179.4941,803.5,183.4941,807.5,179.4941" style="stroke:#181818;stroke-width:1.0;"/><line style="stroke:#181818;stroke-width:1.0;" x1="588.5" x2="809.5" y1="179.4941" y2="179.4941"/><text fill="#000000" font-family="sans-serif" font-size="13" font-weight="bold" lengthAdjust="spacing" textLength="7" x="595.5" y="174.2314">3</text><text fill="#000000" font-family="sans-serif" font-size="13" lengthAdjust="spacing" textLength="147" x="606.5" y="174.2314">getAuthorBooks(authorId)</text><polygon fill="#181818" points="599.5,206.7852,589.5,210.7852,599.5,214.7852,595.5,210.7852" style="stroke:#181818;stroke-width:1.0;"/><line style="stroke:#181818;stroke-width:1.0;stroke-dasharray:2.0,2.0;" x1="593.5" x2="819.5" y1="210.7852" y2="210.7852"/><text fill="#000000" font-family="sans-serif" font-size="13" font-weight="bold" lengthAdjust="spacing" textLength="7" x="605.5" y="205.5225">4</text><text fill="#000000" font-family="sans-serif" font-size="13" lengthAdjust="spacing" textLength="182" x="616.5" y="205.5225">List&lt;BookAuthor&gt; bookAuthors</text><polygon fill="#181818" points="914.5,238.0762,924.5,242.0762,914.5,246.0762,918.5,242.0762" style="stroke:#181818;stroke-width:1.0;"/><line style="stroke:#181818;stroke-width:1.0;" x1="588.5" x2="920.5" y1="242.0762" y2="242.0762"/><text fill="#000000" font-family="sans-serif" font-size="13" font-weight="bold" lengthAdjust="spacing" textLength="7" x="595.5" y="236.8135">5</text><text fill="#000000" font-family="sans-serif" font-size="13" lengthAdjust="spacing" textLength="184" x="606.5" y="236.8135">getBook() (for each bookAuthor)</text><polygon fill="#181818" points="599.5,269.3672,589.5,273.3672,599.5,277.3672,595.5,273.3672" style="stroke:#181818;stroke-width:1.0;"/><line style="stroke:#181818;stroke-width:1.0;stroke-dasharray:2.0,2.0;" x1="593.5" x2="930.5" y1="273.3672" y2="273.3672"/><text fill="#000000" font-family="sans-serif" font-size="13" font-weight="bold" lengthAdjust="spacing" textLength="7" x="605.5" y="268.1045">6</text><text fill="#000000" font-family="sans-serif" font-size="13" lengthAdjust="spacing" textLength="30" x="616.5" y="268.1045">Book</text><line style="stroke:#181818;stroke-width:1.0;" x1="588.5" x2="635.5" y1="299.6582" y2="299.6582"/><line style="stroke:#181818;stroke-width:1.0;" x1="635.5" x2="635.5" y1="299.6582" y2="312.6582"/><line style="stroke:#181818;stroke-width:1.0;" x1="594.5" x2="635.5" y1="312.6582" y2="312.6582"/><polygon fill="#181818" points="604.5,308.6582,594.5,312.6582,604.5,316.6582,600.5,312.6582" style="stroke:#181818;stroke-width:1.0;"/><text fill="#000000" font-family="sans-serif" font-size="13" font-weight="bold" lengthAdjust="spacing" textLength="7" x="600.5" y="294.3955">7</text><text fill="#000000" font-family="sans-serif" font-size="13" lengthAdjust="spacing" textLength="202" x="611.5" y="294.3955">create booksList from bookAuthors</text><line style="stroke:#181818;stroke-width:1.0;stroke-dasharray:2.0,2.0;" x1="593.5" x2="635.5" y1="353.9492" y2="353.9492"/><line style="stroke:#181818;stroke-width:1.0;stroke-dasharray:2.0,2.0;" x1="635.5" x2="635.5" y1="353.9492" y2="366.9492"/><line style="stroke:#181818;stroke-width:1.0;stroke-dasharray:2.0,2.0;" x1="588.5" x2="635.5" y1="366.9492" y2="366.9492"/><polygon fill="#181818" points="598.5,362.9492,588.5,366.9492,598.5,370.9492,594.5,366.9492" style="stroke:#181818;stroke-width:1.0;"/><text fill="#000000" font-family="sans-serif" font-size="13" font-weight="bold" lengthAdjust="spacing" textLength="7" x="600.5" y="348.6865">8</text><text fill="#000000" font-family="sans-serif" font-size="13" lengthAdjust="spacing" textLength="127" x="611.5" y="348.6865">List&lt;Book&gt; booksList</text><line style="stroke:#181818;stroke-width:1.0;" x1="588.5" x2="635.5" y1="388.2402" y2="388.2402"/><line style="stroke:#181818;stroke-width:1.0;" x1="635.5" x2="635.5" y1="388.2402" y2="401.2402"/><line style="stroke:#181818;stroke-width:1.0;" x1="594.5" x2="635.5" y1="401.2402" y2="401.2402"/><polygon fill="#181818" points="604.5,397.2402,594.5,401.2402,604.5,405.2402,600.5,401.2402" style="stroke:#181818;stroke-width:1.0;"/><text fill="#000000" font-family="sans-serif" font-size="13" font-weight="bold" lengthAdjust="spacing" textLength="7" x="600.5" y="382.9775">9</text><text fill="#000000" font-family="sans-serif" font-size="13" lengthAdjust="spacing" textLength="169" x="611.5" y="382.9775">apply pagination to booksList</text><line style="stroke:#181818;stroke-width:1.0;stroke-dasharray:2.0,2.0;" x1="593.5" x2="635.5" y1="442.5313" y2="442.5313"/><line style="stroke:#181818;stroke-width:1.0;stroke-dasharray:2.0,2.0;" x1="635.5" x2="635.5" y1="442.5313" y2="455.5313"/><line style="stroke:#181818;stroke-width:1.0;stroke-dasharray:2.0,2.0;" x1="588.5" x2="635.5" y1="455.5313" y2="455.5313"/><polygon fill="#181818" points="598.5,451.5313,588.5,455.5313,598.5,459.5313,594.5,455.5313" style="stroke:#181818;stroke-width:1.0;"/><text fill="#000000" font-family="sans-serif" font-size="13" font-weight="bold" lengthAdjust="spacing" textLength="14" x="600.5" y="437.2686">10</text><text fill="#000000" font-family="sans-serif" font-size="13" lengthAdjust="spacing" textLength="145" x="618.5" y="437.2686">Page&lt;Book&gt; booksPage</text><polygon fill="#181818" points="348.5,477.8223,338.5,481.8223,348.5,485.8223,344.5,481.8223" style="stroke:#181818;stroke-width:1.0;"/><line style="stroke:#181818;stroke-width:1.0;stroke-dasharray:2.0,2.0;" x1="342.5" x2="582.5" y1="481.8223" y2="481.8223"/><text fill="#000000" font-family="sans-serif" font-size="13" font-weight="bold" lengthAdjust="spacing" textLength="14" x="354.5" y="476.5596">11</text><text fill="#000000" font-family="sans-serif" font-size="13" lengthAdjust="spacing" textLength="145" x="372.5" y="476.5596">Page&lt;Book&gt; booksPage</text><polygon fill="#181818" points="1009,509.1133,1019,513.1133,1009,517.1133,1013,513.1133" style="stroke:#181818;stroke-width:1.0;"/><line style="stroke:#181818;stroke-width:1.0;" x1="337.5" x2="1015" y1="513.1133" y2="513.1133"/><text fill="#000000" font-family="sans-serif" font-size="13" font-weight="bold" lengthAdjust="spacing" textLength="14" x="344.5" y="507.8506">12</text><text fill="#000000" font-family="sans-serif" font-size="13" lengthAdjust="spacing" textLength="105" x="362.5" y="507.8506">toBookView(book)</text><polygon fill="#181818" points="348.5,540.4043,338.5,544.4043,348.5,548.4043,344.5,544.4043" style="stroke:#181818;stroke-width:1.0;"/><line style="stroke:#181818;stroke-width:1.0;stroke-dasharray:2.0,2.0;" x1="342.5" x2="1025" y1="544.4043" y2="544.4043"/><text fill="#000000" font-family="sans-serif" font-size="13" font-weight="bold" lengthAdjust="spacing" textLength="14" x="354.5" y="539.1416">13</text><text fill="#000000" font-family="sans-serif" font-size="13" lengthAdjust="spacing" textLength="162" x="372.5" y="539.1416">List&lt;BookView&gt; bookViews</text><polygon fill="#181818" points="42.5,571.6953,32.5,575.6953,42.5,579.6953,38.5,575.6953" style="stroke:#181818;stroke-width:1.0;"/><line style="stroke:#181818;stroke-width:1.0;stroke-dasharray:2.0,2.0;" x1="36.5" x2="331.5" y1="575.6953" y2="575.6953"/><text fill="#000000" font-family="sans-serif" font-size="13" font-weight="bold" lengthAdjust="spacing" textLength="14" x="48.5" y="570.4326">14</text><text fill="#000000" font-family="sans-serif" font-size="13" lengthAdjust="spacing" textLength="254" x="66.5" y="570.4326">HTTP 200 OK (List&lt;BookView&gt; bookViews)</text><!--SRC=[bPHHJuCm4CVV-odk4HuM5X-98TcCKQF6PHBV2tIiaL5IoWmnVdTRAb1AMTnRxthtk__rsk9KC0vxWZF24Mu4AvjJ8fT8ks0LmQOHHyRlM2auAmh2GtYuZo705GrmjrK7tthnbFq42MEVDSAfe6Sio2mP8TkZIcnbqZlXPvgI478YbAtZwcsx-MDxVH5_n1k921b63zMvUrAncif6suwkdMgxNcBQUSZbX9Kj_ONMudOCZI0P6q4PkLp2fNyu3Sy7xo0d9Hb7Wsh9xX1pMTsMLTvPRiX8EL61tJ1LKt3Wx3JfnZc22NBnSAAHQwkwDCi1XAkgQA72EIsneAm4mGpYzS9sE2UcC6N_JvZpTLo5MteD7vHylSf65L2mtkCfe3NpCH9DpGLvmnXKf9QeLhFxQN0TAYLQ_n0XFCRn3cxMQtXx1c-9xflusQVm2m00]--></g></svg>