<?xml version="1.0" encoding="us-ascii" standalone="no"?><svg xmlns="http://www.w3.org/2000/svg" xmlns:xlink="http://www.w3.org/1999/xlink" contentStyleType="text/css" height="868px" preserveAspectRatio="none" style="width:757px;height:868px;background:#FFFFFF;" version="1.1" viewBox="0 0 757 868" width="757px" zoomAndPan="magnify"><defs/><g><!--class AuthorController--><g id="elem_AuthorController"><rect codeLine="4" fill="#F1F1F1" height="63.2422" id="AuthorController" rx="2.5" ry="2.5" style="stroke:#181818;stroke-width:0.5;" width="448" x="170" y="7"/><text fill="#000000" font-family="sans-serif" font-size="14" lengthAdjust="spacing" textLength="104" x="342" y="27.1074">AuthorController</text><line style="stroke:#181818;stroke-width:0.5;" x1="171" x2="617" y1="35.6211" y2="35.6211"/><line style="stroke:#181818;stroke-width:0.5;" x1="171" x2="617" y1="43.6211" y2="43.6211"/><text fill="#000000" font-family="sans-serif" font-size="14" lengthAdjust="spacing" textLength="436" x="176" y="62.7285">+getAuthorBooks(page: int, size: int, authorId: Long): List&lt;BookView&gt;</text></g><!--class BookService--><g id="elem_BookService"><rect codeLine="8" fill="#F1F1F1" height="63.2422" id="BookService" rx="2.5" ry="2.5" style="stroke:#181818;stroke-width:0.5;" width="412" x="7" y="149"/><text fill="#000000" font-family="sans-serif" font-size="14" lengthAdjust="spacing" textLength="79" x="173.5" y="169.1074">BookService</text><line style="stroke:#181818;stroke-width:0.5;" x1="8" x2="418" y1="177.6211" y2="177.6211"/><line style="stroke:#181818;stroke-width:0.5;" x1="8" x2="418" y1="185.6211" y2="185.6211"/><text fill="#000000" font-family="sans-serif" font-size="14" lengthAdjust="spacing" textLength="400" x="13" y="204.7285">+getBookAuthorsByAuthorId(authorId: Long): List&lt;BookAuthor&gt;</text></g><!--class BookAuthorRepository--><g id="elem_BookAuthorRepository"><rect codeLine="12" fill="#F1F1F1" height="79.2031" id="BookAuthorRepository" rx="2.5" ry="2.5" style="stroke:#181818;stroke-width:0.5;" width="343" x="41.5" y="329.5"/><text fill="#000000" font-family="sans-serif" font-size="12" font-style="italic" lengthAdjust="spacing" textLength="61" x="182.5" y="347.4492">&#171;interface&#187;</text><text fill="#000000" font-family="sans-serif" font-size="14" font-style="italic" lengthAdjust="spacing" textLength="143" x="141.5" y="365.5684">BookAuthorRepository</text><line style="stroke:#181818;stroke-width:0.5;" x1="42.5" x2="383.5" y1="374.082" y2="374.082"/><line style="stroke:#181818;stroke-width:0.5;" x1="42.5" x2="383.5" y1="382.082" y2="382.082"/><text fill="#000000" font-family="sans-serif" font-size="14" lengthAdjust="spacing" textLength="331" x="47.5" y="401.1895">+getAuthorBooks(authorId: Long): List&lt;BookAuthor&gt;</text></g><!--class BookViewMapper--><g id="elem_BookViewMapper"><rect codeLine="16" fill="#F1F1F1" height="63.2422" id="BookViewMapper" rx="2.5" ry="2.5" style="stroke:#181818;stroke-width:0.5;" width="243" x="454.5" y="149"/><text fill="#000000" font-family="sans-serif" font-size="14" lengthAdjust="spacing" textLength="109" x="521.5" y="169.1074">BookViewMapper</text><line style="stroke:#181818;stroke-width:0.5;" x1="455.5" x2="696.5" y1="177.6211" y2="177.6211"/><line style="stroke:#181818;stroke-width:0.5;" x1="455.5" x2="696.5" y1="185.6211" y2="185.6211"/><text fill="#000000" font-family="sans-serif" font-size="14" lengthAdjust="spacing" textLength="231" x="460.5" y="204.7285">+toBookView(book: Book): BookView</text></g><!--class BookView--><g id="elem_BookView"><rect codeLine="20" fill="#F1F1F1" height="156.3477" id="BookView" rx="2.5" ry="2.5" style="stroke:#181818;stroke-width:0.5;" width="246" x="504" y="291"/><text fill="#000000" font-family="sans-serif" font-size="14" lengthAdjust="spacing" textLength="61" x="596.5" y="311.1074">BookView</text><line style="stroke:#181818;stroke-width:0.5;" x1="505" x2="749" y1="319.6211" y2="319.6211"/><text fill="#000000" font-family="sans-serif" font-size="14" lengthAdjust="spacing" textLength="56" x="510" y="338.7285">-id: Long</text><text fill="#000000" font-family="sans-serif" font-size="14" lengthAdjust="spacing" textLength="76" x="510" y="357.3496">-isbn: String</text><text fill="#000000" font-family="sans-serif" font-size="14" lengthAdjust="spacing" textLength="72" x="510" y="375.9707">-title: String</text><text fill="#000000" font-family="sans-serif" font-size="14" lengthAdjust="spacing" textLength="151" x="510" y="394.5918">-genre: BookGenreView</text><text fill="#000000" font-family="sans-serif" font-size="14" lengthAdjust="spacing" textLength="119" x="510" y="413.2129">-description: String</text><text fill="#000000" font-family="sans-serif" font-size="14" lengthAdjust="spacing" textLength="234" x="510" y="431.834">-bookAuthors: List&lt;BookAuthorView&gt;</text><line style="stroke:#181818;stroke-width:0.5;" x1="505" x2="749" y1="439.3477" y2="439.3477"/></g><!--class Book--><g id="elem_Book"><rect codeLine="29" fill="#F1F1F1" height="156.3477" id="Book" rx="2.5" ry="2.5" style="stroke:#181818;stroke-width:0.5;" width="217" x="342.5" y="705"/><text fill="#000000" font-family="sans-serif" font-size="14" lengthAdjust="spacing" textLength="32" x="435" y="725.1074">Book</text><line style="stroke:#181818;stroke-width:0.5;" x1="343.5" x2="558.5" y1="733.6211" y2="733.6211"/><text fill="#000000" font-family="sans-serif" font-size="14" lengthAdjust="spacing" textLength="56" x="348.5" y="752.7285">-id: Long</text><text fill="#000000" font-family="sans-serif" font-size="14" lengthAdjust="spacing" textLength="76" x="348.5" y="771.3496">-isbn: String</text><text fill="#000000" font-family="sans-serif" font-size="14" lengthAdjust="spacing" textLength="72" x="348.5" y="789.9707">-title: String</text><text fill="#000000" font-family="sans-serif" font-size="14" lengthAdjust="spacing" textLength="90" x="348.5" y="808.5918">-genre: Genre</text><text fill="#000000" font-family="sans-serif" font-size="14" lengthAdjust="spacing" textLength="119" x="348.5" y="827.2129">-description: String</text><text fill="#000000" font-family="sans-serif" font-size="14" lengthAdjust="spacing" textLength="205" x="348.5" y="845.834">-bookAuthors: List&lt;BookAuthor&gt;</text><line style="stroke:#181818;stroke-width:0.5;" x1="343.5" x2="558.5" y1="853.3477" y2="853.3477"/></g><!--class BookAuthor--><g id="elem_BookAuthor"><rect codeLine="38" fill="#F1F1F1" height="100.4844" id="BookAuthor" rx="2.5" ry="2.5" style="stroke:#181818;stroke-width:0.5;" width="108" x="159" y="526"/><text fill="#000000" font-family="sans-serif" font-size="14" lengthAdjust="spacing" textLength="74" x="176" y="546.1074">BookAuthor</text><line style="stroke:#181818;stroke-width:0.5;" x1="160" x2="266" y1="554.6211" y2="554.6211"/><text fill="#000000" font-family="sans-serif" font-size="14" lengthAdjust="spacing" textLength="56" x="165" y="573.7285">-id: Long</text><text fill="#000000" font-family="sans-serif" font-size="14" lengthAdjust="spacing" textLength="76" x="165" y="592.3496">-book: Book</text><text fill="#000000" font-family="sans-serif" font-size="14" lengthAdjust="spacing" textLength="96" x="165" y="610.9707">-author: Author</text><line style="stroke:#181818;stroke-width:0.5;" x1="160" x2="266" y1="618.4844" y2="618.4844"/></g><!--class Author--><g id="elem_Author"><rect codeLine="44" fill="#F1F1F1" height="119.1055" id="Author" rx="2.5" ry="2.5" style="stroke:#181818;stroke-width:0.5;" width="217" x="90.5" y="723.5"/><text fill="#000000" font-family="sans-serif" font-size="14" lengthAdjust="spacing" textLength="42" x="178" y="743.6074">Author</text><line style="stroke:#181818;stroke-width:0.5;" x1="91.5" x2="306.5" y1="752.1211" y2="752.1211"/><text fill="#000000" font-family="sans-serif" font-size="14" lengthAdjust="spacing" textLength="56" x="96.5" y="771.2285">-id: Long</text><text fill="#000000" font-family="sans-serif" font-size="14" lengthAdjust="spacing" textLength="85" x="96.5" y="789.8496">-name: String</text><text fill="#000000" font-family="sans-serif" font-size="14" lengthAdjust="spacing" textLength="113" x="96.5" y="808.4707">-biography: String</text><text fill="#000000" font-family="sans-serif" font-size="14" lengthAdjust="spacing" textLength="205" x="96.5" y="827.0918">-bookAuthors: List&lt;BookAuthor&gt;</text><line style="stroke:#181818;stroke-width:0.5;" x1="91.5" x2="306.5" y1="834.6055" y2="834.6055"/></g><!--link AuthorController to BookService--><g id="link_AuthorController_BookService"><path codeLine="51" d="M354.28,70.22 C324.1,93.57 287.5253,121.8481 257.3753,145.1781 " fill="none" id="AuthorController-to-BookService" style="stroke:#181818;stroke-width:1.0;stroke-dasharray:7.0,7.0;"/><polygon fill="#181818" points="252.63,148.85,262.1958,146.5057,256.5844,145.7901,257.3,140.1787,252.63,148.85" style="stroke:#181818;stroke-width:1.0;"/><text fill="#000000" font-family="sans-serif" font-size="13" lengthAdjust="spacing" textLength="28" x="315" y="115.0283">uses</text></g><!--link BookService to BookAuthorRepository--><g id="link_BookService_BookAuthorRepository"><path codeLine="52" d="M213,212.3 C213,244.37 213,288.68 213,323.39 " fill="none" id="BookService-to-BookAuthorRepository" style="stroke:#181818;stroke-width:1.0;stroke-dasharray:7.0,7.0;"/><polygon fill="#181818" points="213,329.39,217,320.39,213,324.39,209,320.39,213,329.39" style="stroke:#181818;stroke-width:1.0;"/><text fill="#000000" font-family="sans-serif" font-size="13" lengthAdjust="spacing" textLength="28" x="214" y="257.0283">uses</text></g><!--link AuthorController to BookViewMapper--><g id="link_AuthorController_BookViewMapper"><path codeLine="53" d="M433.94,70.22 C464.29,93.57 501.0748,121.8611 531.3948,145.1911 " fill="none" id="AuthorController-to-BookViewMapper" style="stroke:#181818;stroke-width:1.0;stroke-dasharray:7.0,7.0;"/><polygon fill="#181818" points="536.15,148.85,531.4565,140.1914,532.1873,145.8009,526.5779,146.5317,536.15,148.85" style="stroke:#181818;stroke-width:1.0;"/><text fill="#000000" font-family="sans-serif" font-size="13" lengthAdjust="spacing" textLength="28" x="496" y="115.0283">uses</text></g><!--link BookViewMapper to Book--><g id="link_BookViewMapper_Book"><path codeLine="54" d="M542.43,212.07 C522.57,232.34 499.02,260.72 487,291 C432.29,428.83 434.7452,599.3873 442.3052,698.8473 " fill="none" id="BookViewMapper-to-Book" style="stroke:#181818;stroke-width:1.0;stroke-dasharray:7.0,7.0;"/><polygon fill="#181818" points="442.76,704.83,446.0664,695.5527,442.381,699.8444,438.0894,696.1591,442.76,704.83" style="stroke:#181818;stroke-width:1.0;"/></g><!--link BookViewMapper to BookView--><g id="link_BookViewMapper_BookView"><path codeLine="55" d="M584.42,212.3 C590.28,233.71 596.7774,257.4725 604.3274,285.0825 " fill="none" id="BookViewMapper-to-BookView" style="stroke:#181818;stroke-width:1.0;stroke-dasharray:7.0,7.0;"/><polygon fill="#181818" points="605.91,290.87,607.3944,281.1337,604.5912,286.0471,599.6777,283.2438,605.91,290.87" style="stroke:#181818;stroke-width:1.0;"/></g><!--link BookAuthorRepository to BookAuthor--><g id="link_BookAuthorRepository_BookAuthor"><path codeLine="56" d="M213,408.56 C213,441.73 213,483.78 213,519.73 " fill="none" id="BookAuthorRepository-to-BookAuthor" style="stroke:#181818;stroke-width:1.0;stroke-dasharray:7.0,7.0;"/><polygon fill="#181818" points="213,525.73,217,516.73,213,520.73,209,516.73,213,525.73" style="stroke:#181818;stroke-width:1.0;"/><text fill="#000000" font-family="sans-serif" font-size="13" lengthAdjust="spacing" textLength="48" x="214" y="492.0283">retrieves</text></g><!--link BookAuthor to Book--><g id="link_BookAuthor_Book"><path codeLine="57" d="M267.01,623.52 C294.85,647.5 324.9839,673.4643 356.7139,700.7943 " fill="none" id="BookAuthor-to-Book" style="stroke:#181818;stroke-width:1.0;stroke-dasharray:7.0,7.0;"/><polygon fill="#181818" points="361.26,704.71,357.0513,695.8057,357.4716,701.4469,351.8303,701.8672,361.26,704.71" style="stroke:#181818;stroke-width:1.0;"/><text fill="#000000" font-family="sans-serif" font-size="13" lengthAdjust="spacing" textLength="49" x="325" y="671.0283">contains</text></g><!--link BookAuthor to Author--><g id="link_BookAuthor_Author"><path codeLine="58" d="M209.65,626.1 C207.65,655.36 205.5083,686.6839 203.4083,717.4739 " fill="none" id="BookAuthor-to-Author" style="stroke:#181818;stroke-width:1.0;stroke-dasharray:7.0,7.0;"/><polygon fill="#181818" points="203,723.46,207.6031,714.753,203.3402,718.4716,199.6217,714.2087,203,723.46" style="stroke:#181818;stroke-width:1.0;"/><text fill="#000000" font-family="sans-serif" font-size="13" lengthAdjust="spacing" textLength="49" x="209" y="671.0283">contains</text></g><!--SRC=[hLHDJyCm3BttL_Yu2PWuHrEbZGEQ11ScSKyxqrdhaYZ9XWRYlvCcwSVQ5J51BqsVNzwp7QTRsY3afFCI4xCZeRZcUyXBRip2MatPmU8gbs9D7mZtIU8Zi3ZOhTGFKbWjon8rV2RWdXieq8ROKigTcIXU80CIzXQC4uXBxXch3OCdAOgfUv6nysh7A-5xcdpLDXMqHdsa7BiE5HnSpFAqY6AJSTL0yRhE7_KRTtfju0MLD6IbFi5ytX3ITAoeNncr1LGrFNEbEbsoiWvCChTWdZTb3Nqe4BVU0KNR-jDaWi7Q7LG3MR8bzh02XSQW_rWjlKa8RT3acfGbsHVAsZOFQhnmKF-Jea_lJwdrqWhWM79j-oCG3fV52M-bVfOHVD-l9oDPQAwsfsjJ7zojsImzkmaC3WPDqeLgoc2W8tTKipES7TaEMXF7S3z95wtFStBo6bqVy1Wz8bopNDpzPImdCGWt0WtX6m00]--></g></svg>