<?xml version="1.0" encoding="us-ascii" standalone="no"?><svg xmlns="http://www.w3.org/2000/svg" xmlns:xlink="http://www.w3.org/1999/xlink" contentStyleType="text/css" height="578px" preserveAspectRatio="none" style="width:402px;height:578px;background:#FFFFFF;" version="1.1" viewBox="0 0 402 578" width="402px" zoomAndPan="magnify"><defs/><g><!--class Reader--><g id="elem_Reader"><rect codeLine="6" fill="#F1F1F1" height="174.9688" id="Reader" rx="2.5" ry="2.5" style="stroke:#181818;stroke-width:0.5;" width="110" x="21.84" y="397"/><text fill="#000000" font-family="sans-serif" font-size="14" lengthAdjust="spacing" textLength="47" x="53.34" y="417.1074">Reader</text><line style="stroke:#181818;stroke-width:0.5;" x1="22.84" x2="130.84" y1="425.6211" y2="425.6211"/><text fill="#000000" font-family="sans-serif" font-size="14" lengthAdjust="spacing" textLength="16" x="27.84" y="444.7285">-id</text><text fill="#000000" font-family="sans-serif" font-size="14" lengthAdjust="spacing" textLength="40" x="27.84" y="463.3496">-name</text><text fill="#000000" font-family="sans-serif" font-size="14" lengthAdjust="spacing" textLength="38" x="27.84" y="481.9707">-email</text><text fill="#000000" font-family="sans-serif" font-size="14" lengthAdjust="spacing" textLength="77" x="27.84" y="500.5918">-dateOfBirth</text><text fill="#000000" font-family="sans-serif" font-size="14" lengthAdjust="spacing" textLength="94" x="27.84" y="519.2129">-phoneNumber</text><text fill="#000000" font-family="sans-serif" font-size="14" lengthAdjust="spacing" textLength="98" x="27.84" y="537.834">-GDBRConsent</text><line style="stroke:#181818;stroke-width:0.5;" x1="22.84" x2="130.84" y1="545.3477" y2="545.3477"/><text fill="#000000" font-family="sans-serif" font-size="14" lengthAdjust="spacing" textLength="86" x="27.84" y="564.4551">+getVersion()</text></g><!--class ReaderController--><g id="elem_ReaderController"><rect codeLine="16" fill="#F1F1F1" height="63.2422" id="ReaderController" rx="2.5" ry="2.5" style="stroke:#181818;stroke-width:0.5;" width="115" x="72.34" y="7"/><text fill="#000000" font-family="sans-serif" font-size="14" lengthAdjust="spacing" textLength="109" x="75.34" y="27.1074">ReaderController</text><line style="stroke:#181818;stroke-width:0.5;" x1="73.34" x2="186.34" y1="35.6211" y2="35.6211"/><line style="stroke:#181818;stroke-width:0.5;" x1="73.34" x2="186.34" y1="43.6211" y2="43.6211"/><text fill="#000000" font-family="sans-serif" font-size="14" lengthAdjust="spacing" textLength="96" x="78.34" y="62.7285">+getReader(id)</text></g><!--class ReaderServiceImpl--><g id="elem_ReaderServiceImpl"><rect codeLine="20" fill="#F1F1F1" height="63.2422" id="ReaderServiceImpl" rx="2.5" ry="2.5" style="stroke:#181818;stroke-width:0.5;" width="142" x="58.84" y="131"/><text fill="#000000" font-family="sans-serif" font-size="14" lengthAdjust="spacing" textLength="119" x="70.34" y="151.1074">ReaderServiceImpl</text><line style="stroke:#181818;stroke-width:0.5;" x1="59.84" x2="199.84" y1="159.6211" y2="159.6211"/><line style="stroke:#181818;stroke-width:0.5;" x1="59.84" x2="199.84" y1="167.6211" y2="167.6211"/><text fill="#000000" font-family="sans-serif" font-size="14" lengthAdjust="spacing" textLength="130" x="64.84" y="186.7285">+getReadersById(id)</text></g><!--class ReaderViewMapper--><g id="elem_ReaderViewMapper"><rect codeLine="24" fill="#F1F1F1" height="63.2422" id="ReaderViewMapper" rx="2.5" ry="2.5" style="stroke:#181818;stroke-width:0.5;" width="160" x="235.84" y="131"/><text fill="#000000" font-family="sans-serif" font-size="14" lengthAdjust="spacing" textLength="124" x="253.84" y="151.1074">ReaderViewMapper</text><line style="stroke:#181818;stroke-width:0.5;" x1="236.84" x2="394.84" y1="159.6211" y2="159.6211"/><line style="stroke:#181818;stroke-width:0.5;" x1="236.84" x2="394.84" y1="167.6211" y2="167.6211"/><text fill="#000000" font-family="sans-serif" font-size="14" lengthAdjust="spacing" textLength="148" x="241.84" y="186.7285">+toReaderView(reader)</text></g><!--class ReaderRepository--><g id="elem_ReaderRepository"><rect codeLine="29" fill="#F1F1F1" height="63.2422" id="ReaderRepository" rx="2.5" ry="2.5" style="stroke:#181818;stroke-width:0.5;" width="138" x="129.84" y="255"/><text fill="#000000" font-family="sans-serif" font-size="14" lengthAdjust="spacing" textLength="115" x="141.34" y="275.1074">ReaderRepository</text><line style="stroke:#181818;stroke-width:0.5;" x1="130.84" x2="266.84" y1="283.6211" y2="283.6211"/><line style="stroke:#181818;stroke-width:0.5;" x1="130.84" x2="266.84" y1="291.6211" y2="291.6211"/><text fill="#000000" font-family="sans-serif" font-size="14" lengthAdjust="spacing" textLength="126" x="135.84" y="310.7285">+findReaderById(id)</text></g><!--link ReaderController to ReaderServiceImpl--><g id="link_ReaderController_ReaderServiceImpl"><path codeLine="35" d="M129.84,70.29 C129.84,88.78 129.84,106.23 129.84,124.72 " fill="none" id="ReaderController-to-ReaderServiceImpl" style="stroke:#181818;stroke-width:1.0;stroke-dasharray:7.0,7.0;"/><polygon fill="#181818" points="129.84,130.72,133.84,121.72,129.84,125.72,125.84,121.72,129.84,130.72" style="stroke:#181818;stroke-width:1.0;"/></g><!--link ReaderServiceImpl to ReaderRepository--><g id="link_ReaderServiceImpl_ReaderRepository"><path codeLine="36" d="M147.25,194.29 C157.71,212.78 168.0157,231.0077 178.4757,249.4977 " fill="none" id="ReaderServiceImpl-to-ReaderRepository" style="stroke:#181818;stroke-width:1.0;stroke-dasharray:7.0,7.0;"/><polygon fill="#181818" points="181.43,254.72,180.4801,244.9171,178.9681,250.3681,173.517,248.8561,181.43,254.72" style="stroke:#181818;stroke-width:1.0;"/></g><!--link ReaderController to ReaderViewMapper--><g id="link_ReaderController_ReaderViewMapper"><path codeLine="37" d="M176.77,70.29 C205.08,88.85 235.9835,109.1184 264.2235,127.6484 " fill="none" id="ReaderController-to-ReaderViewMapper" style="stroke:#181818;stroke-width:1.0;stroke-dasharray:7.0,7.0;"/><polygon fill="#181818" points="269.24,130.94,263.9097,122.6582,265.0596,128.197,259.5208,129.3469,269.24,130.94" style="stroke:#181818;stroke-width:1.0;"/></g><!--link ReaderController to Reader--><g id="link_ReaderController_Reader"><path codeLine="38" d="M87.78,70.3 C69.69,86.16 50.51,107.18 40.84,131 C6,216.78 22.9041,317.7659 44.1241,391.1859 " fill="none" id="ReaderController-to-Reader" style="stroke:#181818;stroke-width:1.0;stroke-dasharray:7.0,7.0;"/><polygon fill="#181818" points="45.79,396.95,47.1338,387.1932,44.4017,392.1466,39.4484,389.4145,45.79,396.95" style="stroke:#181818;stroke-width:1.0;"/></g><!--link ReaderServiceImpl to Reader--><g id="link_ReaderServiceImpl_Reader"><path codeLine="39" d="M123.43,194.36 C119.84,212.07 115.38,234.75 111.84,255 C103.66,301.75 96.4498,348.1249 90.1098,390.8949 " fill="none" id="ReaderServiceImpl-to-Reader" style="stroke:#181818;stroke-width:1.0;stroke-dasharray:7.0,7.0;"/><polygon fill="#181818" points="89.23,396.83,94.5065,388.5138,89.9632,391.884,86.5929,387.3408,89.23,396.83" style="stroke:#181818;stroke-width:1.0;"/></g><!--link ReaderRepository to Reader--><g id="link_ReaderRepository_Reader"><path codeLine="40" d="M179.78,318.12 C166.57,339.34 151.461,363.6164 133.961,391.7264 " fill="none" id="ReaderRepository-to-Reader" style="stroke:#181818;stroke-width:1.0;"/><polygon fill="#181818" points="130.79,396.82,138.9423,391.2936,133.4325,392.5753,132.1508,387.0656,130.79,396.82" style="stroke:#181818;stroke-width:1.0;"/><text fill="#000000" font-family="sans-serif" font-size="13" lengthAdjust="spacing" textLength="53" x="160.84" y="363.0283">searches</text><text fill="#000000" font-family="sans-serif" font-size="13" lengthAdjust="spacing" textLength="7" x="168.127" y="340.4281">1</text><text fill="#000000" font-family="sans-serif" font-size="13" lengthAdjust="spacing" textLength="20" x="114.567" y="385.5967">1..*</text></g><!--SRC=[VO_DJiCm48JlVWeh5m8e2Lnxg4H0GZa0KYhrxjhRPeN_P6z0fUBT2Mb4GrF55uzcllMihneY7nT5uRMmr1gTIsSAgKMCcKAn2y8mrg02BZ583Io-e_MYitaFFH05tBG4bNHsXL_0xnZh4rw3K10EZ7SduwW6OOM1GO8Hg0Uj1C7RjiH0pU3unbbuRSq6mk0yFvNrexCHBFNEBTy1hI54T3QzPj__cpkIWjEw6p-Sy6EMelhbn_WAmWTAg8pNKpwM-qfT65eZVBu8xqSTv4vH6devMQq6xoAI2_k_iIrQTGn7LOoTVuNd-VB2mXDdn8tAPbuR_MI6cYrYvtqykKzubYsxEyzlaW5Ry0WYo0OY-m40]--></g></svg>