<?xml version="1.0" encoding="us-ascii" standalone="no"?><svg xmlns="http://www.w3.org/2000/svg" xmlns:xlink="http://www.w3.org/1999/xlink" contentStyleType="text/css" height="151px" preserveAspectRatio="none" style="width:884px;height:151px;background:#FFFFFF;" version="1.1" viewBox="0 0 884 151" width="884px" zoomAndPan="magnify"><defs/><g><!--class Librarian--><g id="elem_Librarian"><rect codeLine="5" fill="#F1F1F1" height="36.6211" id="Librarian" rx="2.5" ry="2.5" style="stroke:#181818;stroke-width:0.5;" width="62" x="181" y="10.2627"/><text fill="#000000" font-family="sans-serif" font-size="14" lengthAdjust="spacing" textLength="56" x="184" y="30.3701">Librarian</text><line style="stroke:#181818;stroke-width:0.5;" x1="182" x2="242" y1="38.8838" y2="38.8838"/></g><!--class Reader--><g id="elem_Reader"><rect codeLine="7" fill="#F1F1F1" height="36.6211" id="Reader" rx="2.5" ry="2.5" style="stroke:#181818;stroke-width:0.5;" width="53" x="356.5" y="10.2627"/><text fill="#000000" font-family="sans-serif" font-size="14" lengthAdjust="spacing" textLength="47" x="359.5" y="30.3701">Reader</text><line style="stroke:#181818;stroke-width:0.5;" x1="357.5" x2="408.5" y1="38.8838" y2="38.8838"/></g><!--class ReaderNumber--><g id="elem_ReaderNumber"><rect codeLine="8" fill="#F1F1F1" height="36.6211" id="ReaderNumber" rx="2.5" ry="2.5" style="stroke:#181818;stroke-width:0.5;" width="102" x="7" y="108.2627"/><text fill="#000000" font-family="sans-serif" font-size="14" lengthAdjust="spacing" textLength="96" x="10" y="128.3701">ReaderNumber</text><line style="stroke:#181818;stroke-width:0.5;" x1="8" x2="108" y1="136.8838" y2="136.8838"/></g><!--class ReaderName--><g id="elem_ReaderName"><rect codeLine="9" fill="#F1F1F1" height="36.6211" id="ReaderName" rx="2.5" ry="2.5" style="stroke:#181818;stroke-width:0.5;" width="89" x="144.5" y="108.2627"/><text fill="#000000" font-family="sans-serif" font-size="14" lengthAdjust="spacing" textLength="83" x="147.5" y="128.3701">ReaderName</text><line style="stroke:#181818;stroke-width:0.5;" x1="145.5" x2="232.5" y1="136.8838" y2="136.8838"/></g><!--class ReaderEmail--><g id="elem_ReaderEmail"><rect codeLine="10" fill="#F1F1F1" height="36.6211" id="ReaderEmail" rx="2.5" ry="2.5" style="stroke:#181818;stroke-width:0.5;" width="87" x="268.5" y="108.2627"/><text fill="#000000" font-family="sans-serif" font-size="14" lengthAdjust="spacing" textLength="81" x="271.5" y="128.3701">ReaderEmail</text><line style="stroke:#181818;stroke-width:0.5;" x1="269.5" x2="354.5" y1="136.8838" y2="136.8838"/></g><!--class ReaderDateOfBirth--><g id="elem_ReaderDateOfBirth"><rect codeLine="11" fill="#F1F1F1" height="36.6211" id="ReaderDateOfBirth" rx="2.5" ry="2.5" style="stroke:#181818;stroke-width:0.5;" width="127" x="390.5" y="108.2627"/><text fill="#000000" font-family="sans-serif" font-size="14" lengthAdjust="spacing" textLength="121" x="393.5" y="128.3701">ReaderDateOfBirth</text><line style="stroke:#181818;stroke-width:0.5;" x1="391.5" x2="516.5" y1="136.8838" y2="136.8838"/></g><!--class ReaderPhoneNumber--><g id="elem_ReaderPhoneNumber"><rect codeLine="12" fill="#F1F1F1" height="36.6211" id="ReaderPhoneNumber" rx="2.5" ry="2.5" style="stroke:#181818;stroke-width:0.5;" width="143" x="552.5" y="108.2627"/><text fill="#000000" font-family="sans-serif" font-size="14" lengthAdjust="spacing" textLength="137" x="555.5" y="128.3701">ReaderPhoneNumber</text><line style="stroke:#181818;stroke-width:0.5;" x1="553.5" x2="694.5" y1="136.8838" y2="136.8838"/></g><!--class ReaderGDBRConsent--><g id="elem_ReaderGDBRConsent"><rect codeLine="13" fill="#F1F1F1" height="36.6211" id="ReaderGDBRConsent" rx="2.5" ry="2.5" style="stroke:#181818;stroke-width:0.5;" width="146" x="731" y="108.2627"/><text fill="#000000" font-family="sans-serif" font-size="14" lengthAdjust="spacing" textLength="140" x="734" y="128.3701">ReaderGDBRConsent</text><line style="stroke:#181818;stroke-width:0.5;" x1="732" x2="876" y1="136.8838" y2="136.8838"/></g><!--reverse link Reader to ReaderNumber--><g id="link_Reader_ReaderNumber"><path codeLine="16" d="M344.8915,41.0217 C290.9215,56.9617 179.25,89.9427 109.19,110.6427 " fill="none" id="Reader-backto-ReaderNumber" style="stroke:#181818;stroke-width:1.0;"/><polygon fill="#181818" points="356.4,37.6227,349.5127,35.486,344.8915,41.0217,351.7787,43.1584,356.4,37.6227" style="stroke:#181818;stroke-width:1.0;"/></g><!--reverse link Reader to ReaderName--><g id="link_Reader_ReaderName"><path codeLine="17" d="M345.6744,48.234 C311.4344,65.174 262.53,89.3727 224.45,108.2227 " fill="none" id="Reader-backto-ReaderName" style="stroke:#181818;stroke-width:1.0;"/><polygon fill="#181818" points="356.43,42.9127,349.2784,41.9881,345.6744,48.234,352.8259,49.1586,356.43,42.9127" style="stroke:#181818;stroke-width:1.0;"/></g><!--reverse link Reader to ReaderEmail--><g id="link_Reader_ReaderEmail"><path codeLine="18" d="M362.8438,57.0202 C350.1138,74.2302 337.96,90.6527 325.18,107.9427 " fill="none" id="Reader-backto-ReaderEmail" style="stroke:#181818;stroke-width:1.0;"/><polygon fill="#181818" points="369.98,47.3727,363.1961,49.8178,362.8438,57.0202,369.6278,54.5752,369.98,47.3727" style="stroke:#181818;stroke-width:1.0;"/></g><!--reverse link Reader to ReaderDateOfBirth--><g id="link_Reader_ReaderDateOfBirth"><path codeLine="19" d="M403.1562,57.0202 C415.8862,74.2302 428.04,90.6527 440.82,107.9427 " fill="none" id="Reader-backto-ReaderDateOfBirth" style="stroke:#181818;stroke-width:1.0;"/><polygon fill="#181818" points="396.02,47.3727,396.3722,54.5752,403.1562,57.0202,402.8039,49.8178,396.02,47.3727" style="stroke:#181818;stroke-width:1.0;"/></g><!--reverse link Reader to ReaderPhoneNumber--><g id="link_Reader_ReaderPhoneNumber"><path codeLine="20" d="M420.8584,44.8426 C462.0384,61.2426 530.31,88.4427 580.04,108.2527 " fill="none" id="Reader-backto-ReaderPhoneNumber" style="stroke:#181818;stroke-width:1.0;"/><polygon fill="#181818" points="409.71,40.4027,413.8043,46.3388,420.8584,44.8426,416.7642,38.9065,409.71,40.4027" style="stroke:#181818;stroke-width:1.0;"/></g><!--reverse link Reader to ReaderGDBRConsent--><g id="link_Reader_ReaderGDBRConsent"><path codeLine="21" d="M421.3496,38.5107 C484.8896,53.0007 635.35,87.3027 730.77,109.0627 " fill="none" id="Reader-backto-ReaderGDBRConsent" style="stroke:#181818;stroke-width:1.0;"/><polygon fill="#181818" points="409.65,35.8427,414.6105,41.0766,421.3496,38.5107,416.3892,33.2768,409.65,35.8427" style="stroke:#181818;stroke-width:1.0;"/></g><!--link Librarian to Reader--><g id="link_Librarian_Reader"><path codeLine="22" d="M243.36,28.7627 C275.76,28.7627 325.77,28.7627 356.33,28.7627 " fill="none" id="Librarian-Reader" style="stroke:#181818;stroke-width:1.0;"/><polygon fill="#000000" points="270.25,16.4082,261.2049,13.4693,261.2049,19.3471,270.25,16.4082" style="stroke:#000000;stroke-width:1.0;"/><text fill="#000000" font-family="sans-serif" font-size="13" lengthAdjust="spacing" textLength="64" x="274.25" y="21.791">searchs for</text><text fill="#000000" font-family="sans-serif" font-size="13" lengthAdjust="spacing" textLength="7" x="250.9856" y="24.0049">1</text><text fill="#000000" font-family="sans-serif" font-size="13" lengthAdjust="spacing" textLength="20" x="328.3084" y="44.7237">1..*</text></g><!--SRC=[RP3FQiCm38VlVWgHOy5blUumQDSn1gKRwHCeZZgBndQH7GOhVVV-oTPwyNoIlfyiFXHtxFSewC1q6ECy9U6cJ_HcWj_mDy63ijmI61RJqL0xIZQqKQdh5rXn8oYC_d3yHJLXItBkytRTkwQ4w0X6xCKXToEsn4JlsmLBigFammPF_-v-NIxgv-0Z-NHHKmE5YMx3bzT_hEwPpiHAUbKhSMPNXfbW6MQEwdP8g6OLQE5Fc_IvdaudrS_u8qH2CJR2DWWygU6T0000]--></g></svg>