<?xml version="1.0" encoding="us-ascii" standalone="no"?><svg xmlns="http://www.w3.org/2000/svg" xmlns:xlink="http://www.w3.org/1999/xlink" contentStyleType="text/css" height="813px" preserveAspectRatio="none" style="width:857px;height:813px;background:#FFFFFF;" version="1.1" viewBox="0 0 857 813" width="857px" zoomAndPan="magnify"><defs/><g><!--class Lending--><g id="elem_Lending"><rect codeLine="6" fill="#F1F1F1" height="249.4531" id="Lending" rx="2.5" ry="2.5" style="stroke:#181818;stroke-width:0.5;" width="160" x="170" y="452"/><text fill="#000000" font-family="sans-serif" font-size="14" lengthAdjust="spacing" textLength="51" x="224.5" y="472.1074">Lending</text><line style="stroke:#181818;stroke-width:0.5;" x1="171" x2="329" y1="480.6211" y2="480.6211"/><text fill="#000000" font-family="sans-serif" font-size="14" lengthAdjust="spacing" textLength="56" x="176" y="499.7285">-id: Long</text><text fill="#000000" font-family="sans-serif" font-size="14" lengthAdjust="spacing" textLength="130" x="176" y="518.3496">-lendingCode: String</text><text fill="#000000" font-family="sans-serif" font-size="14" lengthAdjust="spacing" textLength="86" x="176" y="536.9707">-version: long</text><text fill="#000000" font-family="sans-serif" font-size="14" lengthAdjust="spacing" textLength="98" x="176" y="555.5918">-readerId: Long</text><text fill="#000000" font-family="sans-serif" font-size="14" lengthAdjust="spacing" textLength="87" x="176" y="574.2129">-bookId: Long</text><text fill="#000000" font-family="sans-serif" font-size="14" lengthAdjust="spacing" textLength="108" x="176" y="592.834">-bookTitle: String</text><text fill="#000000" font-family="sans-serif" font-size="14" lengthAdjust="spacing" textLength="148" x="176" y="611.4551">-daysTillReturn: Integer</text><text fill="#000000" font-family="sans-serif" font-size="14" lengthAdjust="spacing" textLength="142" x="176" y="630.0762">-daysOverdue: Integer</text><text fill="#000000" font-family="sans-serif" font-size="14" lengthAdjust="spacing" textLength="68" x="176" y="648.6973">-fine: Float</text><text fill="#000000" font-family="sans-serif" font-size="14" lengthAdjust="spacing" textLength="118" x="176" y="667.3184">-returned: boolean</text><text fill="#000000" font-family="sans-serif" font-size="14" lengthAdjust="spacing" textLength="107" x="176" y="685.9395">-comment: String</text><line style="stroke:#181818;stroke-width:0.5;" x1="171" x2="329" y1="693.4531" y2="693.4531"/></g><!--class LendingController--><g id="elem_LendingController"><rect codeLine="20" fill="#F1F1F1" height="63.2422" id="LendingController" rx="2.5" ry="2.5" style="stroke:#181818;stroke-width:0.5;" width="366" x="349" y="7"/><text fill="#000000" font-family="sans-serif" font-size="14" lengthAdjust="spacing" textLength="113" x="475.5" y="27.1074">LendingController</text><line style="stroke:#181818;stroke-width:0.5;" x1="350" x2="714" y1="35.6211" y2="35.6211"/><line style="stroke:#181818;stroke-width:0.5;" x1="350" x2="714" y1="43.6211" y2="43.6211"/><text fill="#000000" font-family="sans-serif" font-size="14" lengthAdjust="spacing" textLength="354" x="355" y="62.7285">+getAveragePerGenreInMonth(date: LocalDate): double</text></g><!--class LendingServiceImpl--><g id="elem_LendingServiceImpl"><rect codeLine="24" fill="#F1F1F1" height="63.2422" id="LendingServiceImpl" rx="2.5" ry="2.5" style="stroke:#181818;stroke-width:0.5;" width="487" x="131.5" y="149"/><text fill="#000000" font-family="sans-serif" font-size="14" lengthAdjust="spacing" textLength="123" x="313.5" y="169.1074">LendingServiceImpl</text><line style="stroke:#181818;stroke-width:0.5;" x1="132.5" x2="617.5" y1="177.6211" y2="177.6211"/><line style="stroke:#181818;stroke-width:0.5;" x1="132.5" x2="617.5" y1="185.6211" y2="185.6211"/><text fill="#000000" font-family="sans-serif" font-size="14" lengthAdjust="spacing" textLength="475" x="137.5" y="204.7285">+AveragePerGenreInMonth(date: LocalDate, numberOfGenres: int): double</text></g><!--class LendingRepository--><g id="elem_LendingRepository"><rect codeLine="28" fill="#F1F1F1" height="63.2422" id="LendingRepository" rx="2.5" ry="2.5" style="stroke:#181818;stroke-width:0.5;" width="486" x="7" y="300.5"/><text fill="#000000" font-family="sans-serif" font-size="14" lengthAdjust="spacing" textLength="119" x="190.5" y="320.6074">LendingRepository</text><line style="stroke:#181818;stroke-width:0.5;" x1="8" x2="492" y1="329.1211" y2="329.1211"/><line style="stroke:#181818;stroke-width:0.5;" x1="8" x2="492" y1="337.1211" y2="337.1211"/><text fill="#000000" font-family="sans-serif" font-size="14" lengthAdjust="spacing" textLength="474" x="13" y="356.2285">+averagePerGenreInMonth(date: LocalDate, numberOfGenres: int): double</text></g><!--class GenreServiceImpl--><g id="elem_GenreServiceImpl"><rect codeLine="32" fill="#F1F1F1" height="81.8633" id="GenreServiceImpl" rx="2.5" ry="2.5" style="stroke:#181818;stroke-width:0.5;" width="322" x="528" y="291"/><text fill="#000000" font-family="sans-serif" font-size="14" lengthAdjust="spacing" textLength="112" x="633" y="311.1074">GenreServiceImpl</text><line style="stroke:#181818;stroke-width:0.5;" x1="529" x2="849" y1="319.6211" y2="319.6211"/><line style="stroke:#181818;stroke-width:0.5;" x1="529" x2="849" y1="327.6211" y2="327.6211"/><text fill="#000000" font-family="sans-serif" font-size="14" lengthAdjust="spacing" textLength="171" x="534" y="346.7285">+getGenres(): List&lt;Genre&gt;</text><text fill="#000000" font-family="sans-serif" font-size="14" lengthAdjust="spacing" textLength="310" x="534" y="365.3496">+getGenreById(genreId: Long): Optional&lt;Genre&gt;</text></g><!--class Genre--><g id="elem_Genre"><rect codeLine="37" fill="#F1F1F1" height="81.8633" id="Genre" rx="2.5" ry="2.5" style="stroke:#181818;stroke-width:0.5;" width="97" x="640.5" y="535.5"/><text fill="#000000" font-family="sans-serif" font-size="14" lengthAdjust="spacing" textLength="40" x="669" y="555.6074">Genre</text><line style="stroke:#181818;stroke-width:0.5;" x1="641.5" x2="736.5" y1="564.1211" y2="564.1211"/><text fill="#000000" font-family="sans-serif" font-size="14" lengthAdjust="spacing" textLength="56" x="646.5" y="583.2285">-id: Long</text><text fill="#000000" font-family="sans-serif" font-size="14" lengthAdjust="spacing" textLength="85" x="646.5" y="601.8496">-name: String</text><line style="stroke:#181818;stroke-width:0.5;" x1="641.5" x2="736.5" y1="609.3633" y2="609.3633"/></g><!--class lendDate--><g id="elem_lendDate"><rect fill="#F1F1F1" height="44.6211" id="lendDate" rx="2.5" ry="2.5" style="stroke:#181818;stroke-width:0.5;" width="63" x="106.5" y="762"/><text fill="#000000" font-family="sans-serif" font-size="14" lengthAdjust="spacing" textLength="57" x="109.5" y="782.1074">lendDate</text><line style="stroke:#181818;stroke-width:0.5;" x1="107.5" x2="168.5" y1="790.6211" y2="790.6211"/><line style="stroke:#181818;stroke-width:0.5;" x1="107.5" x2="168.5" y1="798.6211" y2="798.6211"/></g><!--class returnedDate--><g id="elem_returnedDate"><rect fill="#F1F1F1" height="44.6211" id="returnedDate" rx="2.5" ry="2.5" style="stroke:#181818;stroke-width:0.5;" width="90" x="205" y="762"/><text fill="#000000" font-family="sans-serif" font-size="14" lengthAdjust="spacing" textLength="84" x="208" y="782.1074">returnedDate</text><line style="stroke:#181818;stroke-width:0.5;" x1="206" x2="294" y1="790.6211" y2="790.6211"/><line style="stroke:#181818;stroke-width:0.5;" x1="206" x2="294" y1="798.6211" y2="798.6211"/></g><!--class limitDate--><g id="elem_limitDate"><rect fill="#F1F1F1" height="44.6211" id="limitDate" rx="2.5" ry="2.5" style="stroke:#181818;stroke-width:0.5;" width="60" x="330" y="762"/><text fill="#000000" font-family="sans-serif" font-size="14" lengthAdjust="spacing" textLength="54" x="333" y="782.1074">limitDate</text><line style="stroke:#181818;stroke-width:0.5;" x1="331" x2="389" y1="790.6211" y2="790.6211"/><line style="stroke:#181818;stroke-width:0.5;" x1="331" x2="389" y1="798.6211" y2="798.6211"/></g><!--link LendingController to LendingServiceImpl--><g id="link_LendingController_LendingServiceImpl"><path codeLine="42" d="M497.55,70.22 C471.37,93.57 440.0079,121.5265 413.8479,144.8565 " fill="none" id="LendingController-to-LendingServiceImpl" style="stroke:#181818;stroke-width:1.0;stroke-dasharray:7.0,7.0;"/><polygon fill="#181818" points="409.37,148.85,418.7492,145.845,413.1016,145.5221,413.4246,139.8744,409.37,148.85" style="stroke:#181818;stroke-width:1.0;"/><text fill="#000000" font-family="sans-serif" font-size="13" lengthAdjust="spacing" textLength="28" x="463" y="115.0283">uses</text></g><!--link LendingServiceImpl to LendingRepository--><g id="link_LendingServiceImpl_LendingRepository"><path codeLine="43" d="M349.4,212.11 C327.83,237.91 300.9683,270.0367 279.4083,295.8267 " fill="none" id="LendingServiceImpl-to-LendingRepository" style="stroke:#181818;stroke-width:1.0;stroke-dasharray:7.0,7.0;"/><polygon fill="#181818" points="275.56,300.43,284.4013,296.0905,278.7669,296.5939,278.2636,290.9595,275.56,300.43" style="stroke:#181818;stroke-width:1.0;"/><text fill="#000000" font-family="sans-serif" font-size="13" lengthAdjust="spacing" textLength="28" x="325" y="257.0283">uses</text></g><!--link LendingController to GenreServiceImpl--><g id="link_LendingController_GenreServiceImpl"><path codeLine="44" d="M568.92,70.1 C591.24,90.39 618.63,118.77 636,149 C661.82,193.94 674.8478,246.5684 681.8878,284.9584 " fill="none" id="LendingController-to-GenreServiceImpl" style="stroke:#181818;stroke-width:1.0;stroke-dasharray:7.0,7.0;"/><polygon fill="#181818" points="682.97,290.86,685.281,281.2861,682.0681,285.942,677.4122,282.7291,682.97,290.86" style="stroke:#181818;stroke-width:1.0;"/><text fill="#000000" font-family="sans-serif" font-size="13" lengthAdjust="spacing" textLength="28" x="663" y="186.0283">uses</text></g><!--link LendingServiceImpl to GenreServiceImpl--><g id="link_LendingServiceImpl_GenreServiceImpl"><path codeLine="45" d="M439.3,212.11 C487.12,234.88 547.3924,263.5814 599.3924,288.3314 " fill="none" id="LendingServiceImpl-to-GenreServiceImpl" style="stroke:#181818;stroke-width:1.0;stroke-dasharray:7.0,7.0;"/><polygon fill="#181818" points="604.81,290.91,598.4026,283.4304,600.2953,288.7612,594.9645,290.6539,604.81,290.91" style="stroke:#181818;stroke-width:1.0;"/><text fill="#000000" font-family="sans-serif" font-size="13" lengthAdjust="spacing" textLength="28" x="542" y="257.0283">uses</text></g><!--link GenreServiceImpl to Genre--><g id="link_GenreServiceImpl_Genre"><path codeLine="46" d="M689,373.04 C689,417.98 689,484.44 689,529.4 " fill="none" id="GenreServiceImpl-to-Genre" style="stroke:#181818;stroke-width:1.0;"/><polygon fill="#181818" points="689,535.4,693,526.4,689,530.4,685,526.4,689,535.4" style="stroke:#181818;stroke-width:1.0;"/><text fill="#000000" font-family="sans-serif" font-size="13" lengthAdjust="spacing" textLength="49" x="690" y="418.0283">contains</text></g><!--link LendingRepository to Lending--><g id="link_LendingRepository_Lending"><path codeLine="47" d="M250,363.71 C250,386.46 250,413.09 250,445.95 " fill="none" id="LendingRepository-to-Lending" style="stroke:#181818;stroke-width:1.0;stroke-dasharray:7.0,7.0;"/><polygon fill="#181818" points="250,451.95,254,442.95,250,446.95,246,442.95,250,451.95" style="stroke:#181818;stroke-width:1.0;"/><text fill="#000000" font-family="sans-serif" font-size="13" lengthAdjust="spacing" textLength="56" x="251" y="418.0283">accesses</text></g><!--reverse link Lending to lendDate--><g id="link_Lending_lendDate"><path codeLine="49" d="M177.0173,711.7421 C164.2873,735.1521 158.1,746.53 149.77,761.86 " fill="none" id="Lending-backto-lendDate" style="stroke:#181818;stroke-width:1.0;"/><polygon fill="#181818" points="182.75,701.2,176.3696,704.5602,177.0173,711.7421,183.3977,708.382,182.75,701.2" style="stroke:#181818;stroke-width:1.0;"/><text fill="#000000" font-family="sans-serif" font-size="13" lengthAdjust="spacing" textLength="7" x="171.4387" y="723.3403">1</text><text fill="#000000" font-family="sans-serif" font-size="13" lengthAdjust="spacing" textLength="7" x="144.9926" y="750.6095">1</text></g><!--reverse link Lending to returnedDate--><g id="link_Lending_returnedDate"><path codeLine="50" d="M250,713.2 C250,736.61 250,746.53 250,761.86 " fill="none" id="Lending-backto-returnedDate" style="stroke:#181818;stroke-width:1.0;"/><polygon fill="#181818" points="250,701.2,246,707.2,250,713.2,254,707.2,250,701.2" style="stroke:#181818;stroke-width:1.0;"/><text fill="#000000" font-family="sans-serif" font-size="13" lengthAdjust="spacing" textLength="7" x="242.7867" y="723.3403">1</text><text fill="#000000" font-family="sans-serif" font-size="13" lengthAdjust="spacing" textLength="7" x="242.0594" y="750.6095">1</text></g><!--reverse link Lending to limitDate--><g id="link_Lending_limitDate"><path codeLine="51" d="M321.7022,711.7855 C334.2022,735.1955 340.26,746.53 348.44,761.86 " fill="none" id="Lending-backto-limitDate" style="stroke:#181818;stroke-width:1.0;"/><polygon fill="#181818" points="316.05,701.2,315.3476,708.3768,321.7022,711.7855,322.4046,704.6087,316.05,701.2" style="stroke:#181818;stroke-width:1.0;"/><text fill="#000000" font-family="sans-serif" font-size="13" lengthAdjust="spacing" textLength="7" x="312.8616" y="723.3403">1</text><text fill="#000000" font-family="sans-serif" font-size="13" lengthAdjust="spacing" textLength="7" x="337.3926" y="750.6095">1</text></g><!--SRC=[hLDDRzim3BtxLmYvBFjmibsDeK3NOOE132cI_W55OXsYCcL8T86iw7ylxJgUupX33_L55j_ZUnGfVTWpLp5RBYkdYUlIBOmlbyRf65EBkWYwJ98zMb06Wt6Gn0UaIajOjQHhve2xcY4tdhRu5zJN96aHjGAoI8LwIfHygKARgPMdejkwL_Z6MyZKLbHwv152H4-PSl_O0RI5a9zAxBn_c0ZT8RknfjM7U8VERO3h8D8vCHGG1kXQR6qDO-WUIMA_dDVSbz98WFYAcGDDNLmQLm9nR_myQiID9mxUEGXTIpwh0lXQR7K1jn1-0mN8wO_GzdEh6Pg36Ur-ok_7J5bVxwJ_OzKjX4Sqa9ULwsNVflb5KLtk8AplMrRC519VDjf0vIEo3uVUHx-hJujE7KUwz9evbwmLHlxURgz6y8z3RkT5MqXt9uI-hbYkadR7b5EtItUJT0d3EPvFSB6ucff0fke8CPb01Wc3JfxoH_fd3Vc_-YNwMJnDEx8mvDMoHkf51xKDAXQYDWPY8tTagjctcVgKfktQFEPcrfFWyS5S93WiaLlq1G00]--></g></svg>