<?xml version="1.0" encoding="us-ascii" standalone="no"?><svg xmlns="http://www.w3.org/2000/svg" xmlns:xlink="http://www.w3.org/1999/xlink" contentStyleType="text/css" height="399px" preserveAspectRatio="none" style="width:753px;height:399px;background:#FFFFFF;" version="1.1" viewBox="0 0 753 399" width="753px" zoomAndPan="magnify"><defs/><g><rect fill="#FFFFFF" height="213.7461" style="stroke:#181818;stroke-width:1.0;" width="10" x="31" y="93.6211"/><rect fill="#FFFFFF" height="173.1641" style="stroke:#181818;stroke-width:1.0;" width="10" x="384" y="134.2031"/><rect fill="#FFFFFF" height="173.1641" style="stroke:#181818;stroke-width:1.0;" width="10" x="384" y="134.2031"/><rect fill="#FFFFFF" height="133.873" style="stroke:#181818;stroke-width:1.0;" width="10" x="389" y="173.4941"/><rect fill="#FFFFFF" height="80.582" style="stroke:#181818;stroke-width:1.0;" width="10" x="394" y="217.7852"/><rect fill="#FFFFFF" height="36.291" style="stroke:#181818;stroke-width:1.0;" width="10" x="399" y="262.0762"/><line style="stroke:#181818;stroke-width:0.5;stroke-dasharray:5.0,5.0;" x1="36" x2="36" y1="83.6211" y2="316.3672"/><line style="stroke:#181818;stroke-width:0.5;stroke-dasharray:5.0,5.0;" x1="384" x2="384" y1="83.6211" y2="316.3672"/><text fill="#000000" font-family="sans-serif" font-size="14" lengthAdjust="spacing" textLength="56" x="5" y="80.1074">Librarian</text><ellipse cx="36" cy="13.5" fill="#E2E2F0" rx="8" ry="8" style="stroke:#181818;stroke-width:0.5;"/><path d="M36,21.5 L36,48.5 M23,29.5 L49,29.5 M36,48.5 L23,63.5 M36,48.5 L49,63.5 " fill="none" style="stroke:#181818;stroke-width:0.5;"/><text fill="#000000" font-family="sans-serif" font-size="14" lengthAdjust="spacing" textLength="56" x="5" y="330.4746">Librarian</text><ellipse cx="36" cy="342.4883" fill="#E2E2F0" rx="8" ry="8" style="stroke:#181818;stroke-width:0.5;"/><path d="M36,350.4883 L36,377.4883 M23,358.4883 L49,358.4883 M36,377.4883 L23,392.4883 M36,377.4883 L49,392.4883 " fill="none" style="stroke:#181818;stroke-width:0.5;"/><rect fill="#E2E2F0" height="32.6211" rx="2.5" ry="2.5" style="stroke:#181818;stroke-width:0.5;" width="64" x="352" y="50"/><text fill="#000000" font-family="sans-serif" font-size="14" lengthAdjust="spacing" textLength="50" x="359" y="72.1074">:System</text><rect fill="#E2E2F0" height="32.6211" rx="2.5" ry="2.5" style="stroke:#181818;stroke-width:0.5;" width="64" x="352" y="315.3672"/><text fill="#000000" font-family="sans-serif" font-size="14" lengthAdjust="spacing" textLength="50" x="359" y="337.4746">:System</text><rect fill="#FFFFFF" height="213.7461" style="stroke:#181818;stroke-width:1.0;" width="10" x="31" y="93.6211"/><rect fill="#FFFFFF" height="173.1641" style="stroke:#181818;stroke-width:1.0;" width="10" x="384" y="134.2031"/><rect fill="#FFFFFF" height="173.1641" style="stroke:#181818;stroke-width:1.0;" width="10" x="384" y="134.2031"/><rect fill="#FFFFFF" height="133.873" style="stroke:#181818;stroke-width:1.0;" width="10" x="389" y="173.4941"/><rect fill="#FFFFFF" height="80.582" style="stroke:#181818;stroke-width:1.0;" width="10" x="394" y="217.7852"/><rect fill="#FFFFFF" height="36.291" style="stroke:#181818;stroke-width:1.0;" width="10" x="399" y="262.0762"/><polygon fill="#181818" points="372,130.2031,382,134.2031,372,138.2031,376,134.2031" style="stroke:#181818;stroke-width:1.0;"/><line style="stroke:#181818;stroke-width:1.0;" x1="41" x2="378" y1="134.2031" y2="134.2031"/><text fill="#000000" font-family="sans-serif" font-size="13" font-weight="bold" lengthAdjust="spacing" textLength="7" x="48" y="120.2949">1</text><text fill="#000000" font-family="sans-serif" font-size="13" lengthAdjust="spacing" textLength="202" x="59" y="111.6494">Requests to augment reader profile</text><text fill="#000000" font-family="sans-serif" font-size="13" lengthAdjust="spacing" textLength="234" x="59" y="128.9404">with a funny quote based on date of birth</text><line style="stroke:#181818;stroke-width:1.0;" x1="394" x2="441" y1="160.4941" y2="160.4941"/><line style="stroke:#181818;stroke-width:1.0;" x1="441" x2="441" y1="160.4941" y2="173.4941"/><line style="stroke:#181818;stroke-width:1.0;" x1="400" x2="441" y1="173.4941" y2="173.4941"/><polygon fill="#181818" points="410,169.4941,400,173.4941,410,177.4941,406,173.4941" style="stroke:#181818;stroke-width:1.0;"/><text fill="#000000" font-family="sans-serif" font-size="13" font-weight="bold" lengthAdjust="spacing" textLength="7" x="406" y="155.2314">2</text><text fill="#000000" font-family="sans-serif" font-size="13" lengthAdjust="spacing" textLength="167" x="417" y="155.2314">Retrieve reader's date of birth</text><line style="stroke:#181818;stroke-width:1.0;" x1="399" x2="446" y1="204.7852" y2="204.7852"/><line style="stroke:#181818;stroke-width:1.0;" x1="446" x2="446" y1="204.7852" y2="217.7852"/><line style="stroke:#181818;stroke-width:1.0;" x1="405" x2="446" y1="217.7852" y2="217.7852"/><polygon fill="#181818" points="415,213.7852,405,217.7852,415,221.7852,411,217.7852" style="stroke:#181818;stroke-width:1.0;"/><text fill="#000000" font-family="sans-serif" font-size="13" font-weight="bold" lengthAdjust="spacing" textLength="7" x="411" y="199.5225">3</text><text fill="#000000" font-family="sans-serif" font-size="13" lengthAdjust="spacing" textLength="324" x="422" y="199.5225">Generate or retrieve a funny quote based on date of birth</text><line style="stroke:#181818;stroke-width:1.0;" x1="404" x2="451" y1="249.0762" y2="249.0762"/><line style="stroke:#181818;stroke-width:1.0;" x1="451" x2="451" y1="249.0762" y2="262.0762"/><line style="stroke:#181818;stroke-width:1.0;" x1="410" x2="451" y1="262.0762" y2="262.0762"/><polygon fill="#181818" points="420,258.0762,410,262.0762,420,266.0762,416,262.0762" style="stroke:#181818;stroke-width:1.0;"/><text fill="#000000" font-family="sans-serif" font-size="13" font-weight="bold" lengthAdjust="spacing" textLength="7" x="416" y="243.8135">4</text><text fill="#000000" font-family="sans-serif" font-size="13" lengthAdjust="spacing" textLength="239" x="427" y="243.8135">Update reader profile with the funny quote</text><polygon fill="#181818" points="52,294.3672,42,298.3672,52,302.3672,48,298.3672" style="stroke:#181818;stroke-width:1.0;"/><line style="stroke:#181818;stroke-width:1.0;stroke-dasharray:2.0,2.0;" x1="46" x2="388" y1="298.3672" y2="298.3672"/><text fill="#000000" font-family="sans-serif" font-size="13" font-weight="bold" lengthAdjust="spacing" textLength="7" x="58" y="293.1045">5</text><text fill="#000000" font-family="sans-serif" font-size="13" lengthAdjust="spacing" textLength="303" x="69" y="293.1045">Inform operation success and display updated profile</text><!--SRC=[ZP6zRiCm38HtFmNX9LEQtKFNea2d5jswq18T2x1-Gb8f_FPLPDTfagMJA8ZttP7QZQf9kiCXJHWq- -d9H7yGEcKAXlRMuP7HDmrcZMZKdL49OgZta7rFNDwCHeRspVMCx32qW0BRhKd8wenBXGzjzp6BagyjIrdr2_UgQROIzizhOmVlbrYY0Xe1yz5J8JAX9OR4SN0JVOLlfoCW33c46Kuv5coFGhQ41bl33z0xrl5gk-POZbi_PKTdMarsSaTuLBnG8AuzN4Ih-bzf7bcVgNRS3WXrFXtfBtCJ5_Msk0vUmn3PGqoNIAuuIZQ6H0231UkaVFaCkRhONtxJMBfRp0y0]--></g></svg>
