<?xml version="1.0" encoding="us-ascii" standalone="no"?><svg xmlns="http://www.w3.org/2000/svg" xmlns:xlink="http://www.w3.org/1999/xlink" contentStyleType="text/css" height="890px" preserveAspectRatio="none" style="width:2204px;height:890px;background:#FFFFFF;" version="1.1" viewBox="0 0 2204 890" width="2204px" zoomAndPan="magnify"><defs/><g><rect fill="#FFFFFF" height="785.9844" style="stroke:#181818;stroke-width:1.0;" width="10" x="68.5" y="48.6211"/><rect fill="#FFFFFF" height="771.6934" style="stroke:#181818;stroke-width:1.0;" width="10" x="228.5" y="71.9121"/><rect fill="#FFFFFF" height="771.6934" style="stroke:#181818;stroke-width:1.0;" width="10" x="228.5" y="71.9121"/><rect fill="#FFFFFF" height="36.291" style="stroke:#181818;stroke-width:1.0;" width="10" x="233.5" y="798.3145"/><rect fill="#FFFFFF" height="740.4023" style="stroke:#181818;stroke-width:1.0;" width="10" x="427.5" y="103.2031"/><rect fill="#FFFFFF" height="740.4023" style="stroke:#181818;stroke-width:1.0;" width="10" x="427.5" y="103.2031"/><rect fill="#FFFFFF" height="143.1641" style="stroke:#181818;stroke-width:1.0;" width="10" x="432.5" y="615.8594"/><rect fill="#FFFFFF" height="98.873" style="stroke:#181818;stroke-width:1.0;" width="10" x="437.5" y="660.1504"/><rect fill="#FFFFFF" height="93.873" style="stroke:#181818;stroke-width:1.0;" width="10" x="593.5" y="134.4941"/><rect fill="#FFFFFF" height="93.873" style="stroke:#181818;stroke-width:1.0;" width="10" x="593.5" y="134.4941"/><rect fill="#FFFFFF" height="93.873" style="stroke:#181818;stroke-width:1.0;" width="10" x="750.5" y="285.9492"/><rect fill="#FFFFFF" height="93.873" style="stroke:#181818;stroke-width:1.0;" width="10" x="750.5" y="285.9492"/><rect fill="#FFFFFF" height="93.873" style="stroke:#181818;stroke-width:1.0;" width="10" x="912" y="437.4043"/><rect fill="#FFFFFF" height="93.873" style="stroke:#181818;stroke-width:1.0;" width="10" x="912" y="437.4043"/><rect fill="#FFFFFF" height="31.291" style="stroke:#181818;stroke-width:1.0;" width="10" x="1081" y="165.7852"/><rect fill="#FFFFFF" height="31.291" style="stroke:#181818;stroke-width:1.0;" width="10" x="1081" y="165.7852"/><rect fill="#FFFFFF" height="31.291" style="stroke:#181818;stroke-width:1.0;" width="10" x="1264" y="317.2402"/><rect fill="#FFFFFF" height="31.291" style="stroke:#181818;stroke-width:1.0;" width="10" x="1264" y="317.2402"/><rect fill="#FFFFFF" height="31.291" style="stroke:#181818;stroke-width:1.0;" width="10" x="1478.5" y="696.4414"/><rect fill="#FFFFFF" height="31.291" style="stroke:#181818;stroke-width:1.0;" width="10" x="1478.5" y="696.4414"/><rect fill="#FFFFFF" height="281.0371" style="stroke:#181818;stroke-width:1.0;" width="10" x="1640.5" y="562.5684"/><rect fill="#FFFFFF" height="31.291" style="stroke:#181818;stroke-width:1.0;" width="10" x="2129" y="468.6953"/><rect fill="#FFFFFF" height="31.291" style="stroke:#181818;stroke-width:1.0;" width="10" x="2129" y="468.6953"/><rect fill="none" height="334.2012" style="stroke:#000000;stroke-width:1.5;" width="1852" x="346.5" y="243.3672"/><rect fill="none" height="175.7461" style="stroke:#000000;stroke-width:1.5;" width="1832" x="356.5" y="394.8223"/><line style="stroke:#181818;stroke-width:0.5;stroke-dasharray:5.0,5.0;" x1="73" x2="73" y1="38.6211" y2="852.6055"/><line style="stroke:#181818;stroke-width:0.5;stroke-dasharray:5.0,5.0;" x1="228" x2="228" y1="38.6211" y2="852.6055"/><line style="stroke:#181818;stroke-width:0.5;stroke-dasharray:5.0,5.0;" x1="427.5" x2="427.5" y1="38.6211" y2="852.6055"/><line style="stroke:#181818;stroke-width:0.5;stroke-dasharray:5.0,5.0;" x1="593.5" x2="593.5" y1="38.6211" y2="852.6055"/><line style="stroke:#181818;stroke-width:0.5;stroke-dasharray:5.0,5.0;" x1="750.5" x2="750.5" y1="38.6211" y2="852.6055"/><line style="stroke:#181818;stroke-width:0.5;stroke-dasharray:5.0,5.0;" x1="911.5" x2="911.5" y1="38.6211" y2="852.6055"/><line style="stroke:#181818;stroke-width:0.5;stroke-dasharray:5.0,5.0;" x1="1080.5" x2="1080.5" y1="38.6211" y2="852.6055"/><line style="stroke:#181818;stroke-width:0.5;stroke-dasharray:5.0,5.0;" x1="1263.5" x2="1263.5" y1="38.6211" y2="852.6055"/><line style="stroke:#181818;stroke-width:0.5;stroke-dasharray:5.0,5.0;" x1="1478.5" x2="1478.5" y1="38.6211" y2="852.6055"/><line style="stroke:#181818;stroke-width:0.5;stroke-dasharray:5.0,5.0;" x1="1645.5" x2="1645.5" y1="38.6211" y2="852.6055"/><line style="stroke:#181818;stroke-width:0.5;stroke-dasharray:5.0,5.0;" x1="1765.5" x2="1765.5" y1="38.6211" y2="852.6055"/><line style="stroke:#181818;stroke-width:0.5;stroke-dasharray:5.0,5.0;" x1="1889.5" x2="1889.5" y1="38.6211" y2="852.6055"/><line style="stroke:#181818;stroke-width:0.5;stroke-dasharray:5.0,5.0;" x1="2010.5" x2="2010.5" y1="38.6211" y2="852.6055"/><line style="stroke:#181818;stroke-width:0.5;stroke-dasharray:5.0,5.0;" x1="2128.5" x2="2128.5" y1="38.6211" y2="852.6055"/><rect fill="#E2E2F0" height="32.6211" rx="2.5" ry="2.5" style="stroke:#181818;stroke-width:0.5;" width="137" x="5" y="5"/><text fill="#000000" font-family="sans-serif" font-size="14" lengthAdjust="spacing" textLength="123" x="12" y="27.1074">Reader:HTTPClient</text><rect fill="#E2E2F0" height="32.6211" rx="2.5" ry="2.5" style="stroke:#181818;stroke-width:0.5;" width="137" x="5" y="851.6055"/><text fill="#000000" font-family="sans-serif" font-size="14" lengthAdjust="spacing" textLength="123" x="12" y="873.7129">Reader:HTTPClient</text><rect fill="#E2E2F0" height="32.6211" rx="2.5" ry="2.5" style="stroke:#181818;stroke-width:0.5;" width="153" x="152" y="5"/><text fill="#000000" font-family="sans-serif" font-size="14" lengthAdjust="spacing" textLength="139" x="159" y="27.1074">handler:RouteHandler</text><rect fill="#E2E2F0" height="32.6211" rx="2.5" ry="2.5" style="stroke:#181818;stroke-width:0.5;" width="153" x="152" y="851.6055"/><text fill="#000000" font-family="sans-serif" font-size="14" lengthAdjust="spacing" textLength="139" x="159" y="873.7129">handler:RouteHandler</text><rect fill="#E2E2F0" height="32.6211" rx="2.5" ry="2.5" style="stroke:#181818;stroke-width:0.5;" width="122" x="366.5" y="5"/><text fill="#000000" font-family="sans-serif" font-size="14" lengthAdjust="spacing" textLength="108" x="373.5" y="27.1074">:AuthorController</text><rect fill="#E2E2F0" height="32.6211" rx="2.5" ry="2.5" style="stroke:#181818;stroke-width:0.5;" width="122" x="366.5" y="851.6055"/><text fill="#000000" font-family="sans-serif" font-size="14" lengthAdjust="spacing" textLength="108" x="373.5" y="873.7129">:AuthorController</text><rect fill="#E2E2F0" height="32.6211" rx="2.5" ry="2.5" style="stroke:#181818;stroke-width:0.5;" width="152" x="517.5" y="5"/><text fill="#000000" font-family="sans-serif" font-size="14" lengthAdjust="spacing" textLength="138" x="524.5" y="27.1074">service:AuthorService</text><rect fill="#E2E2F0" height="32.6211" rx="2.5" ry="2.5" style="stroke:#181818;stroke-width:0.5;" width="152" x="517.5" y="851.6055"/><text fill="#000000" font-family="sans-serif" font-size="14" lengthAdjust="spacing" textLength="138" x="524.5" y="873.7129">service:AuthorService</text><rect fill="#E2E2F0" height="32.6211" rx="2.5" ry="2.5" style="stroke:#181818;stroke-width:0.5;" width="142" x="679.5" y="5"/><text fill="#000000" font-family="sans-serif" font-size="14" lengthAdjust="spacing" textLength="128" x="686.5" y="27.1074">service:BookService</text><rect fill="#E2E2F0" height="32.6211" rx="2.5" ry="2.5" style="stroke:#181818;stroke-width:0.5;" width="142" x="679.5" y="851.6055"/><text fill="#000000" font-family="sans-serif" font-size="14" lengthAdjust="spacing" textLength="128" x="686.5" y="873.7129">service:BookService</text><rect fill="#E2E2F0" height="32.6211" rx="2.5" ry="2.5" style="stroke:#181818;stroke-width:0.5;" width="161" x="831.5" y="5"/><text fill="#000000" font-family="sans-serif" font-size="14" lengthAdjust="spacing" textLength="147" x="838.5" y="27.1074">service:LendingService</text><rect fill="#E2E2F0" height="32.6211" rx="2.5" ry="2.5" style="stroke:#181818;stroke-width:0.5;" width="161" x="831.5" y="851.6055"/><text fill="#000000" font-family="sans-serif" font-size="14" lengthAdjust="spacing" textLength="147" x="838.5" y="873.7129">service:LendingService</text><rect fill="#E2E2F0" height="32.6211" rx="2.5" ry="2.5" style="stroke:#181818;stroke-width:0.5;" width="157" x="1002.5" y="5"/><text fill="#000000" font-family="sans-serif" font-size="14" lengthAdjust="spacing" textLength="143" x="1009.5" y="27.1074">repo:AuthorRepository</text><rect fill="#E2E2F0" height="32.6211" rx="2.5" ry="2.5" style="stroke:#181818;stroke-width:0.5;" width="157" x="1002.5" y="851.6055"/><text fill="#000000" font-family="sans-serif" font-size="14" lengthAdjust="spacing" textLength="143" x="1009.5" y="873.7129">repo:AuthorRepository</text><rect fill="#E2E2F0" height="32.6211" rx="2.5" ry="2.5" style="stroke:#181818;stroke-width:0.5;" width="189" x="1169.5" y="5"/><text fill="#000000" font-family="sans-serif" font-size="14" lengthAdjust="spacing" textLength="175" x="1176.5" y="27.1074">repo:BookAuthorRepository</text><rect fill="#E2E2F0" height="32.6211" rx="2.5" ry="2.5" style="stroke:#181818;stroke-width:0.5;" width="189" x="1169.5" y="851.6055"/><text fill="#000000" font-family="sans-serif" font-size="14" lengthAdjust="spacing" textLength="175" x="1176.5" y="873.7129">repo:BookAuthorRepository</text><rect fill="#E2E2F0" height="32.6211" rx="2.5" ry="2.5" style="stroke:#181818;stroke-width:0.5;" width="220" x="1368.5" y="5"/><text fill="#000000" font-family="sans-serif" font-size="14" lengthAdjust="spacing" textLength="206" x="1375.5" y="27.1074">mapper:AuthorLentsViewMapper</text><rect fill="#E2E2F0" height="32.6211" rx="2.5" ry="2.5" style="stroke:#181818;stroke-width:0.5;" width="220" x="1368.5" y="851.6055"/><text fill="#000000" font-family="sans-serif" font-size="14" lengthAdjust="spacing" textLength="206" x="1375.5" y="873.7129">mapper:AuthorLentsViewMapper</text><rect fill="#E2E2F0" height="32.6211" rx="2.5" ry="2.5" style="stroke:#181818;stroke-width:0.5;" width="94" x="1598.5" y="5"/><text fill="#000000" font-family="sans-serif" font-size="14" lengthAdjust="spacing" textLength="80" x="1605.5" y="27.1074">entity:Author</text><rect fill="#E2E2F0" height="32.6211" rx="2.5" ry="2.5" style="stroke:#181818;stroke-width:0.5;" width="94" x="1598.5" y="851.6055"/><text fill="#000000" font-family="sans-serif" font-size="14" lengthAdjust="spacing" textLength="80" x="1605.5" y="873.7129">entity:Author</text><rect fill="#E2E2F0" height="32.6211" rx="2.5" ry="2.5" style="stroke:#181818;stroke-width:0.5;" width="126" x="1702.5" y="5"/><text fill="#000000" font-family="sans-serif" font-size="14" lengthAdjust="spacing" textLength="112" x="1709.5" y="27.1074">entity:BookAuthor</text><rect fill="#E2E2F0" height="32.6211" rx="2.5" ry="2.5" style="stroke:#181818;stroke-width:0.5;" width="126" x="1702.5" y="851.6055"/><text fill="#000000" font-family="sans-serif" font-size="14" lengthAdjust="spacing" textLength="112" x="1709.5" y="873.7129">entity:BookAuthor</text><rect fill="#E2E2F0" height="32.6211" rx="2.5" ry="2.5" style="stroke:#181818;stroke-width:0.5;" width="103" x="1838.5" y="5"/><text fill="#000000" font-family="sans-serif" font-size="14" lengthAdjust="spacing" textLength="89" x="1845.5" y="27.1074">entity:Lending</text><rect fill="#E2E2F0" height="32.6211" rx="2.5" ry="2.5" style="stroke:#181818;stroke-width:0.5;" width="103" x="1838.5" y="851.6055"/><text fill="#000000" font-family="sans-serif" font-size="14" lengthAdjust="spacing" textLength="89" x="1845.5" y="873.7129">entity:Lending</text><rect fill="#E2E2F0" height="32.6211" rx="2.5" ry="2.5" style="stroke:#181818;stroke-width:0.5;" width="118" x="1951.5" y="5"/><text fill="#000000" font-family="sans-serif" font-size="14" lengthAdjust="spacing" textLength="104" x="1958.5" y="27.1074">result:HttpResult</text><rect fill="#E2E2F0" height="32.6211" rx="2.5" ry="2.5" style="stroke:#181818;stroke-width:0.5;" width="118" x="1951.5" y="851.6055"/><text fill="#000000" font-family="sans-serif" font-size="14" lengthAdjust="spacing" textLength="104" x="1958.5" y="873.7129">result:HttpResult</text><rect fill="#E2E2F0" height="32.6211" rx="2.5" ry="2.5" style="stroke:#181818;stroke-width:0.5;" width="99" x="2079.5" y="5"/><text fill="#000000" font-family="sans-serif" font-size="14" lengthAdjust="spacing" textLength="85" x="2086.5" y="27.1074">LendingRepo</text><rect fill="#E2E2F0" height="32.6211" rx="2.5" ry="2.5" style="stroke:#181818;stroke-width:0.5;" width="99" x="2079.5" y="851.6055"/><text fill="#000000" font-family="sans-serif" font-size="14" lengthAdjust="spacing" textLength="85" x="2086.5" y="873.7129">LendingRepo</text><rect fill="#FFFFFF" height="785.9844" style="stroke:#181818;stroke-width:1.0;" width="10" x="68.5" y="48.6211"/><rect fill="#FFFFFF" height="771.6934" style="stroke:#181818;stroke-width:1.0;" width="10" x="228.5" y="71.9121"/><rect fill="#FFFFFF" height="771.6934" style="stroke:#181818;stroke-width:1.0;" width="10" x="228.5" y="71.9121"/><rect fill="#FFFFFF" height="36.291" style="stroke:#181818;stroke-width:1.0;" width="10" x="233.5" y="798.3145"/><rect fill="#FFFFFF" height="740.4023" style="stroke:#181818;stroke-width:1.0;" width="10" x="427.5" y="103.2031"/><rect fill="#FFFFFF" height="740.4023" style="stroke:#181818;stroke-width:1.0;" width="10" x="427.5" y="103.2031"/><rect fill="#FFFFFF" height="143.1641" style="stroke:#181818;stroke-width:1.0;" width="10" x="432.5" y="615.8594"/><rect fill="#FFFFFF" height="98.873" style="stroke:#181818;stroke-width:1.0;" width="10" x="437.5" y="660.1504"/><rect fill="#FFFFFF" height="93.873" style="stroke:#181818;stroke-width:1.0;" width="10" x="593.5" y="134.4941"/><rect fill="#FFFFFF" height="93.873" style="stroke:#181818;stroke-width:1.0;" width="10" x="593.5" y="134.4941"/><rect fill="#FFFFFF" height="93.873" style="stroke:#181818;stroke-width:1.0;" width="10" x="750.5" y="285.9492"/><rect fill="#FFFFFF" height="93.873" style="stroke:#181818;stroke-width:1.0;" width="10" x="750.5" y="285.9492"/><rect fill="#FFFFFF" height="93.873" style="stroke:#181818;stroke-width:1.0;" width="10" x="912" y="437.4043"/><rect fill="#FFFFFF" height="93.873" style="stroke:#181818;stroke-width:1.0;" width="10" x="912" y="437.4043"/><rect fill="#FFFFFF" height="31.291" style="stroke:#181818;stroke-width:1.0;" width="10" x="1081" y="165.7852"/><rect fill="#FFFFFF" height="31.291" style="stroke:#181818;stroke-width:1.0;" width="10" x="1081" y="165.7852"/><rect fill="#FFFFFF" height="31.291" style="stroke:#181818;stroke-width:1.0;" width="10" x="1264" y="317.2402"/><rect fill="#FFFFFF" height="31.291" style="stroke:#181818;stroke-width:1.0;" width="10" x="1264" y="317.2402"/><rect fill="#FFFFFF" height="31.291" style="stroke:#181818;stroke-width:1.0;" width="10" x="1478.5" y="696.4414"/><rect fill="#FFFFFF" height="31.291" style="stroke:#181818;stroke-width:1.0;" width="10" x="1478.5" y="696.4414"/><rect fill="#FFFFFF" height="281.0371" style="stroke:#181818;stroke-width:1.0;" width="10" x="1640.5" y="562.5684"/><rect fill="#FFFFFF" height="31.291" style="stroke:#181818;stroke-width:1.0;" width="10" x="2129" y="468.6953"/><rect fill="#FFFFFF" height="31.291" style="stroke:#181818;stroke-width:1.0;" width="10" x="2129" y="468.6953"/><polygon fill="#181818" points="216.5,67.9121,226.5,71.9121,216.5,75.9121,220.5,71.9121" style="stroke:#181818;stroke-width:1.0;"/><line style="stroke:#181818;stroke-width:1.0;" x1="78.5" x2="222.5" y1="71.9121" y2="71.9121"/><text fill="#000000" font-family="sans-serif" font-size="13" font-weight="bold" lengthAdjust="spacing" textLength="7" x="85.5" y="66.6494">1</text><text fill="#000000" font-family="sans-serif" font-size="13" lengthAdjust="spacing" textLength="110" x="96.5" y="66.6494">GET /authors/top-5</text><polygon fill="#181818" points="415.5,99.2031,425.5,103.2031,415.5,107.2031,419.5,103.2031" style="stroke:#181818;stroke-width:1.0;"/><line style="stroke:#181818;stroke-width:1.0;" x1="238.5" x2="421.5" y1="103.2031" y2="103.2031"/><text fill="#000000" font-family="sans-serif" font-size="13" font-weight="bold" lengthAdjust="spacing" textLength="7" x="245.5" y="97.9404">2</text><text fill="#000000" font-family="sans-serif" font-size="13" lengthAdjust="spacing" textLength="99" x="256.5" y="97.9404">getTop5Authors()</text><polygon fill="#181818" points="581.5,130.4941,591.5,134.4941,581.5,138.4941,585.5,134.4941" style="stroke:#181818;stroke-width:1.0;"/><line style="stroke:#181818;stroke-width:1.0;" x1="437.5" x2="587.5" y1="134.4941" y2="134.4941"/><text fill="#000000" font-family="sans-serif" font-size="13" font-weight="bold" lengthAdjust="spacing" textLength="7" x="444.5" y="129.2314">3</text><text fill="#000000" font-family="sans-serif" font-size="13" lengthAdjust="spacing" textLength="71" x="455.5" y="129.2314">getAuthors()</text><polygon fill="#181818" points="1069,161.7852,1079,165.7852,1069,169.7852,1073,165.7852" style="stroke:#181818;stroke-width:1.0;"/><line style="stroke:#181818;stroke-width:1.0;" x1="603.5" x2="1075" y1="165.7852" y2="165.7852"/><text fill="#000000" font-family="sans-serif" font-size="13" font-weight="bold" lengthAdjust="spacing" textLength="7" x="610.5" y="160.5225">4</text><text fill="#000000" font-family="sans-serif" font-size="13" lengthAdjust="spacing" textLength="43" x="621.5" y="160.5225">findAll()</text><polygon fill="#181818" points="614.5,193.0762,604.5,197.0762,614.5,201.0762,610.5,197.0762" style="stroke:#181818;stroke-width:1.0;"/><line style="stroke:#181818;stroke-width:1.0;stroke-dasharray:2.0,2.0;" x1="608.5" x2="1080" y1="197.0762" y2="197.0762"/><text fill="#000000" font-family="sans-serif" font-size="13" font-weight="bold" lengthAdjust="spacing" textLength="7" x="620.5" y="191.8135">5</text><text fill="#000000" font-family="sans-serif" font-size="13" lengthAdjust="spacing" textLength="75" x="631.5" y="191.8135">List&lt;Author&gt;</text><polygon fill="#181818" points="448.5,224.3672,438.5,228.3672,448.5,232.3672,444.5,228.3672" style="stroke:#181818;stroke-width:1.0;"/><line style="stroke:#181818;stroke-width:1.0;stroke-dasharray:2.0,2.0;" x1="442.5" x2="592.5" y1="228.3672" y2="228.3672"/><text fill="#000000" font-family="sans-serif" font-size="13" font-weight="bold" lengthAdjust="spacing" textLength="7" x="454.5" y="223.1045">6</text><text fill="#000000" font-family="sans-serif" font-size="13" lengthAdjust="spacing" textLength="75" x="465.5" y="223.1045">List&lt;Author&gt;</text><path d="M346.5,243.3672 L419.5,243.3672 L419.5,252.6582 L409.5,262.6582 L346.5,262.6582 L346.5,243.3672 " fill="#EEEEEE" style="stroke:#000000;stroke-width:1.5;"/><rect fill="none" height="334.2012" style="stroke:#000000;stroke-width:1.5;" width="1852" x="346.5" y="243.3672"/><text fill="#000000" font-family="sans-serif" font-size="13" font-weight="bold" lengthAdjust="spacing" textLength="28" x="361.5" y="258.3955">loop</text><text fill="#000000" font-family="sans-serif" font-size="11" font-weight="bold" lengthAdjust="spacing" textLength="94" x="434.5" y="257.2373">[for each Author]</text><polygon fill="#181818" points="738.5,281.9492,748.5,285.9492,738.5,289.9492,742.5,285.9492" style="stroke:#181818;stroke-width:1.0;"/><line style="stroke:#181818;stroke-width:1.0;" x1="437.5" x2="744.5" y1="285.9492" y2="285.9492"/><text fill="#000000" font-family="sans-serif" font-size="13" font-weight="bold" lengthAdjust="spacing" textLength="7" x="444.5" y="280.6865">7</text><text fill="#000000" font-family="sans-serif" font-size="13" lengthAdjust="spacing" textLength="241" x="455.5" y="280.6865">getBookAuthorsByAuthorId(author.getId())</text><polygon fill="#181818" points="1252,313.2402,1262,317.2402,1252,321.2402,1256,317.2402" style="stroke:#181818;stroke-width:1.0;"/><line style="stroke:#181818;stroke-width:1.0;" x1="760.5" x2="1258" y1="317.2402" y2="317.2402"/><text fill="#000000" font-family="sans-serif" font-size="13" font-weight="bold" lengthAdjust="spacing" textLength="7" x="767.5" y="311.9775">8</text><text fill="#000000" font-family="sans-serif" font-size="13" lengthAdjust="spacing" textLength="177" x="778.5" y="311.9775">getAuthorBooks(author.getId())</text><polygon fill="#181818" points="771.5,344.5313,761.5,348.5313,771.5,352.5313,767.5,348.5313" style="stroke:#181818;stroke-width:1.0;"/><line style="stroke:#181818;stroke-width:1.0;stroke-dasharray:2.0,2.0;" x1="765.5" x2="1263" y1="348.5313" y2="348.5313"/><text fill="#000000" font-family="sans-serif" font-size="13" font-weight="bold" lengthAdjust="spacing" textLength="7" x="777.5" y="343.2686">9</text><text fill="#000000" font-family="sans-serif" font-size="13" lengthAdjust="spacing" textLength="105" x="788.5" y="343.2686">List&lt;BookAuthor&gt;</text><polygon fill="#181818" points="448.5,375.8223,438.5,379.8223,448.5,383.8223,444.5,379.8223" style="stroke:#181818;stroke-width:1.0;"/><line style="stroke:#181818;stroke-width:1.0;stroke-dasharray:2.0,2.0;" x1="442.5" x2="749.5" y1="379.8223" y2="379.8223"/><text fill="#000000" font-family="sans-serif" font-size="13" font-weight="bold" lengthAdjust="spacing" textLength="14" x="454.5" y="374.5596">10</text><text fill="#000000" font-family="sans-serif" font-size="13" lengthAdjust="spacing" textLength="105" x="472.5" y="374.5596">List&lt;BookAuthor&gt;</text><path d="M356.5,394.8223 L429.5,394.8223 L429.5,404.1133 L419.5,414.1133 L356.5,414.1133 L356.5,394.8223 " fill="#EEEEEE" style="stroke:#000000;stroke-width:1.5;"/><rect fill="none" height="175.7461" style="stroke:#000000;stroke-width:1.5;" width="1832" x="356.5" y="394.8223"/><text fill="#000000" font-family="sans-serif" font-size="13" font-weight="bold" lengthAdjust="spacing" textLength="28" x="371.5" y="409.8506">loop</text><text fill="#000000" font-family="sans-serif" font-size="11" font-weight="bold" lengthAdjust="spacing" textLength="122" x="444.5" y="408.6924">[for each BookAuthor]</text><polygon fill="#181818" points="900,433.4043,910,437.4043,900,441.4043,904,437.4043" style="stroke:#181818;stroke-width:1.0;"/><line style="stroke:#181818;stroke-width:1.0;" x1="437.5" x2="906" y1="437.4043" y2="437.4043"/><text fill="#000000" font-family="sans-serif" font-size="13" font-weight="bold" lengthAdjust="spacing" textLength="14" x="444.5" y="432.1416">11</text><text fill="#000000" font-family="sans-serif" font-size="13" lengthAdjust="spacing" textLength="187" x="462.5" y="432.1416">getLentBook(bookAuthor.getId())</text><polygon fill="#181818" points="2117,464.6953,2127,468.6953,2117,472.6953,2121,468.6953" style="stroke:#181818;stroke-width:1.0;"/><line style="stroke:#181818;stroke-width:1.0;" x1="922" x2="2123" y1="468.6953" y2="468.6953"/><text fill="#000000" font-family="sans-serif" font-size="13" font-weight="bold" lengthAdjust="spacing" textLength="14" x="929" y="463.4326">12</text><text fill="#000000" font-family="sans-serif" font-size="13" lengthAdjust="spacing" textLength="253" x="947" y="463.4326">findLentByBookAuthorId(bookAuthor.getId())</text><polygon fill="#181818" points="933,495.9863,923,499.9863,933,503.9863,929,499.9863" style="stroke:#181818;stroke-width:1.0;"/><line style="stroke:#181818;stroke-width:1.0;stroke-dasharray:2.0,2.0;" x1="927" x2="2128" y1="499.9863" y2="499.9863"/><text fill="#000000" font-family="sans-serif" font-size="13" font-weight="bold" lengthAdjust="spacing" textLength="14" x="939" y="494.7236">13</text><text fill="#000000" font-family="sans-serif" font-size="13" lengthAdjust="spacing" textLength="82" x="957" y="494.7236">List&lt;Lending&gt;</text><polygon fill="#181818" points="448.5,527.2773,438.5,531.2773,448.5,535.2773,444.5,531.2773" style="stroke:#181818;stroke-width:1.0;"/><line style="stroke:#181818;stroke-width:1.0;stroke-dasharray:2.0,2.0;" x1="442.5" x2="911" y1="531.2773" y2="531.2773"/><text fill="#000000" font-family="sans-serif" font-size="13" font-weight="bold" lengthAdjust="spacing" textLength="14" x="454.5" y="526.0146">14</text><text fill="#000000" font-family="sans-serif" font-size="13" lengthAdjust="spacing" textLength="82" x="472.5" y="526.0146">List&lt;Lending&gt;</text><polygon fill="#181818" points="1628.5,558.5684,1638.5,562.5684,1628.5,566.5684,1632.5,562.5684" style="stroke:#181818;stroke-width:1.0;"/><line style="stroke:#181818;stroke-width:1.0;" x1="437.5" x2="1634.5" y1="562.5684" y2="562.5684"/><text fill="#000000" font-family="sans-serif" font-size="13" font-weight="bold" lengthAdjust="spacing" textLength="14" x="444.5" y="557.3057">15</text><text fill="#000000" font-family="sans-serif" font-size="13" lengthAdjust="spacing" textLength="122" x="462.5" y="557.3057">setLents(lents.size())</text><line style="stroke:#181818;stroke-width:1.0;" x1="437.5" x2="484.5" y1="602.8594" y2="602.8594"/><line style="stroke:#181818;stroke-width:1.0;" x1="484.5" x2="484.5" y1="602.8594" y2="615.8594"/><line style="stroke:#181818;stroke-width:1.0;" x1="443.5" x2="484.5" y1="615.8594" y2="615.8594"/><polygon fill="#181818" points="453.5,611.8594,443.5,615.8594,453.5,619.8594,449.5,615.8594" style="stroke:#181818;stroke-width:1.0;"/><text fill="#000000" font-family="sans-serif" font-size="13" font-weight="bold" lengthAdjust="spacing" textLength="14" x="449.5" y="597.5967">16</text><text fill="#000000" font-family="sans-serif" font-size="13" lengthAdjust="spacing" textLength="119" x="467.5" y="597.5967">sort authors by lents</text><line style="stroke:#181818;stroke-width:1.0;" x1="442.5" x2="489.5" y1="647.1504" y2="647.1504"/><line style="stroke:#181818;stroke-width:1.0;" x1="489.5" x2="489.5" y1="647.1504" y2="660.1504"/><line style="stroke:#181818;stroke-width:1.0;" x1="448.5" x2="489.5" y1="660.1504" y2="660.1504"/><polygon fill="#181818" points="458.5,656.1504,448.5,660.1504,458.5,664.1504,454.5,660.1504" style="stroke:#181818;stroke-width:1.0;"/><text fill="#000000" font-family="sans-serif" font-size="13" font-weight="bold" lengthAdjust="spacing" textLength="14" x="454.5" y="641.8877">17</text><text fill="#000000" font-family="sans-serif" font-size="13" lengthAdjust="spacing" textLength="98" x="472.5" y="641.8877">get top 5 authors</text><polygon fill="#181818" points="1466.5,692.4414,1476.5,696.4414,1466.5,700.4414,1470.5,696.4414" style="stroke:#181818;stroke-width:1.0;"/><line style="stroke:#181818;stroke-width:1.0;" x1="447.5" x2="1472.5" y1="696.4414" y2="696.4414"/><text fill="#000000" font-family="sans-serif" font-size="13" font-weight="bold" lengthAdjust="spacing" textLength="14" x="454.5" y="691.1787">18</text><text fill="#000000" font-family="sans-serif" font-size="13" lengthAdjust="spacing" textLength="158" x="472.5" y="691.1787">toAuthorLentsView(topFive)</text><polygon fill="#181818" points="458.5,723.7324,448.5,727.7324,458.5,731.7324,454.5,727.7324" style="stroke:#181818;stroke-width:1.0;"/><line style="stroke:#181818;stroke-width:1.0;stroke-dasharray:2.0,2.0;" x1="452.5" x2="1477.5" y1="727.7324" y2="727.7324"/><text fill="#000000" font-family="sans-serif" font-size="13" font-weight="bold" lengthAdjust="spacing" textLength="14" x="464.5" y="722.4697">19</text><text fill="#000000" font-family="sans-serif" font-size="13" lengthAdjust="spacing" textLength="156" x="482.5" y="722.4697">Iterable&lt;AuthorLentsView&gt;</text><polygon fill="#181818" points="1998.5,755.0234,2008.5,759.0234,1998.5,763.0234,2002.5,759.0234" style="stroke:#181818;stroke-width:1.0;"/><line style="stroke:#181818;stroke-width:1.0;stroke-dasharray:2.0,2.0;" x1="437.5" x2="2004.5" y1="759.0234" y2="759.0234"/><text fill="#000000" font-family="sans-serif" font-size="13" font-weight="bold" lengthAdjust="spacing" textLength="14" x="444.5" y="753.7607">20</text><text fill="#000000" font-family="sans-serif" font-size="13" lengthAdjust="spacing" textLength="229" x="462.5" y="753.7607">create(200, Iterable&lt;AuthorLentsView&gt;)</text><line style="stroke:#181818;stroke-width:1.0;" x1="238.5" x2="285.5" y1="785.3145" y2="785.3145"/><line style="stroke:#181818;stroke-width:1.0;" x1="285.5" x2="285.5" y1="785.3145" y2="798.3145"/><line style="stroke:#181818;stroke-width:1.0;" x1="244.5" x2="285.5" y1="798.3145" y2="798.3145"/><polygon fill="#181818" points="254.5,794.3145,244.5,798.3145,254.5,802.3145,250.5,798.3145" style="stroke:#181818;stroke-width:1.0;"/><text fill="#000000" font-family="sans-serif" font-size="13" font-weight="bold" lengthAdjust="spacing" textLength="14" x="250.5" y="780.0518">21</text><text fill="#000000" font-family="sans-serif" font-size="13" lengthAdjust="spacing" textLength="152" x="268.5" y="780.0518">setHttpResult(resp, result)</text><polygon fill="#181818" points="84.5,830.6055,74.5,834.6055,84.5,838.6055,80.5,834.6055" style="stroke:#181818;stroke-width:1.0;"/><line style="stroke:#181818;stroke-width:1.0;stroke-dasharray:2.0,2.0;" x1="78.5" x2="227.5" y1="834.6055" y2="834.6055"/><text fill="#000000" font-family="sans-serif" font-size="13" font-weight="bold" lengthAdjust="spacing" textLength="14" x="90.5" y="829.3428">22</text><text fill="#000000" font-family="sans-serif" font-size="13" lengthAdjust="spacing" textLength="25" x="108.5" y="829.3428">resp</text><!--SRC=[bLNRQXin47tVhnZoaZN4IIZuPGc6n2Hr88NYcBxBNYKMNQ-4D7RPVdrrMQqkNYUfmRQaEMTcT3GQNP83ylQmtr1vMHHcGhR8ZWGfyBO8ng8GH2BRCa5QX8iL9JMLrNAz_hbe66tn0eY2C4tHEzBMZOQl-07fqaqiuRLJIFSfkBe_u8xB1MzHyiOZ5oYR5AUeFB8jxU6lRcQnoSeuwO7ptp4bceyJNcXRi_OzvgHBAKrImVlCLdge67BPHScPnH66IMEKbHfIvfu8eSLrPfqKgb-C_lbXLwEGcINreMqCkzv7H1f5XMIot4RHlKonPFdErQ71QeaeLdPeeMweIzANOrHSHHZ3TDvNKGNV7zTmGsmcwWQvcCu2kwyqzsT8fg0gUAUuvcBcqbVb911imHNcrw2JahAq4KfQTyai-33dLy4RQ-lxfZbbs-CDGvYU1dzX2k_SshoewNa7G-nXknzJVUP5mxc0Dov18tQ-4a1_l1pHTR5YX19G3vqRFDUbEufhRTUJoSHw64B6DyuOehcF40isA6uCwdFNaHZUUwPgiWShJ03DBIaIw8pBCmf_ucZGsTXIhQEx1Ft7Qvws6wk8kTA6KMu6MYf98alMhxmzNOuYXKgrSRgGcmxmFn47oQ9mmp7asx82zelpWHKf-87JCyVn1M-vAEczhq0viLNPcDzhnVvIlsFje33VeLUuo8fBXBuPmQO3IymmMZdGVGfc7fWtdAndLngT6KhDVs97Uj98ydO_kXefzOnKaar3xpBWI9_8NVT9QrUkQLUmbLJ3os-tjrVd7KzYpxRTXkxiMxhMFRmBfNufn1Muzs8oe3Kyl0ULCOlOS_Hk_0C0]--></g></svg>