<?xml version="1.0" encoding="us-ascii" standalone="no"?><svg xmlns="http://www.w3.org/2000/svg" xmlns:xlink="http://www.w3.org/1999/xlink" contentStyleType="text/css" height="871px" preserveAspectRatio="none" style="width:2223px;height:871px;background:#FFFFFF;" version="1.1" viewBox="0 0 2223 871" width="2223px" zoomAndPan="magnify"><defs/><g><!--class Book--><g id="elem_Book"><rect codeLine="6" fill="#F1F1F1" height="119.1055" id="Book" rx="2.5" ry="2.5" style="stroke:#181818;stroke-width:0.5;" width="86" x="2130" y="206"/><text fill="#000000" font-family="sans-serif" font-size="14" lengthAdjust="spacing" textLength="32" x="2157" y="226.1074">Book</text><line style="stroke:#181818;stroke-width:0.5;" x1="2131" x2="2215" y1="234.6211" y2="234.6211"/><text fill="#000000" font-family="sans-serif" font-size="14" lengthAdjust="spacing" textLength="16" x="2136" y="253.7285">-id</text><text fill="#000000" font-family="sans-serif" font-size="14" lengthAdjust="spacing" textLength="31" x="2136" y="272.3496">-isbn</text><text fill="#000000" font-family="sans-serif" font-size="14" lengthAdjust="spacing" textLength="27" x="2136" y="290.9707">-title</text><text fill="#000000" font-family="sans-serif" font-size="14" lengthAdjust="spacing" textLength="74" x="2136" y="309.5918">-description</text><line style="stroke:#181818;stroke-width:0.5;" x1="2131" x2="2215" y1="317.1055" y2="317.1055"/></g><!--class Lending--><g id="elem_Lending"><rect codeLine="13" fill="#F1F1F1" height="230.832" id="Lending" rx="2.5" ry="2.5" style="stroke:#181818;stroke-width:0.5;" width="108" x="1987" y="150"/><text fill="#000000" font-family="sans-serif" font-size="14" lengthAdjust="spacing" textLength="51" x="2015.5" y="170.1074">Lending</text><line style="stroke:#181818;stroke-width:0.5;" x1="1988" x2="2094" y1="178.6211" y2="178.6211"/><text fill="#000000" font-family="sans-serif" font-size="14" lengthAdjust="spacing" textLength="16" x="1993" y="197.7285">-id</text><text fill="#000000" font-family="sans-serif" font-size="14" lengthAdjust="spacing" textLength="85" x="1993" y="216.3496">-lendindCode</text><text fill="#000000" font-family="sans-serif" font-size="14" lengthAdjust="spacing" textLength="58" x="1993" y="234.9707">-readerId</text><text fill="#000000" font-family="sans-serif" font-size="14" lengthAdjust="spacing" textLength="47" x="1993" y="253.5918">-bookId</text><text fill="#000000" font-family="sans-serif" font-size="14" lengthAdjust="spacing" textLength="63" x="1993" y="272.2129">-bookTitle</text><text fill="#000000" font-family="sans-serif" font-size="14" lengthAdjust="spacing" textLength="96" x="1993" y="290.834">-daysTillReturn</text><text fill="#000000" font-family="sans-serif" font-size="14" lengthAdjust="spacing" textLength="59" x="1993" y="309.4551">-returned</text><text fill="#000000" font-family="sans-serif" font-size="14" lengthAdjust="spacing" textLength="90" x="1993" y="328.0762">-daysOverdue</text><text fill="#000000" font-family="sans-serif" font-size="14" lengthAdjust="spacing" textLength="28" x="1993" y="346.6973">-fine</text><text fill="#000000" font-family="sans-serif" font-size="14" lengthAdjust="spacing" textLength="62" x="1993" y="365.3184">-comment</text><line style="stroke:#181818;stroke-width:0.5;" x1="1988" x2="2094" y1="372.832" y2="372.832"/></g><!--class BookAuthor--><g id="elem_BookAuthor"><rect codeLine="26" fill="#F1F1F1" height="81.8633" id="BookAuthor" rx="2.5" ry="2.5" style="stroke:#181818;stroke-width:0.5;" width="118" x="2050" y="442"/><text fill="#000000" font-family="sans-serif" font-size="14" lengthAdjust="spacing" textLength="74" x="2072" y="462.1074">BookAuthor</text><line style="stroke:#181818;stroke-width:0.5;" x1="2051" x2="2167" y1="470.6211" y2="470.6211"/><text fill="#000000" font-family="sans-serif" font-size="14" lengthAdjust="spacing" textLength="16" x="2056" y="489.7285">-id</text><line style="stroke:#181818;stroke-width:0.5;" x1="2051" x2="2167" y1="497.2422" y2="497.2422"/><text fill="#000000" font-family="sans-serif" font-size="14" lengthAdjust="spacing" textLength="106" x="2056" y="516.3496">+getBook():Book</text></g><!--class Genre--><g id="elem_Genre"><rect codeLine="31" fill="#F1F1F1" height="81.8633" id="Genre" rx="2.5" ry="2.5" style="stroke:#181818;stroke-width:0.5;" width="52" x="2147" y="7"/><text fill="#000000" font-family="sans-serif" font-size="14" lengthAdjust="spacing" textLength="40" x="2153" y="27.1074">Genre</text><line style="stroke:#181818;stroke-width:0.5;" x1="2148" x2="2198" y1="35.6211" y2="35.6211"/><text fill="#000000" font-family="sans-serif" font-size="14" lengthAdjust="spacing" textLength="16" x="2153" y="54.7285">-id</text><text fill="#000000" font-family="sans-serif" font-size="14" lengthAdjust="spacing" textLength="40" x="2153" y="73.3496">-name</text><line style="stroke:#181818;stroke-width:0.5;" x1="2148" x2="2198" y1="80.8633" y2="80.8633"/></g><!--class Author--><g id="elem_Author"><rect codeLine="36" fill="#F1F1F1" height="100.4844" id="Author" rx="2.5" ry="2.5" style="stroke:#181818;stroke-width:0.5;" width="69" x="1899.5" y="603"/><text fill="#000000" font-family="sans-serif" font-size="14" lengthAdjust="spacing" textLength="42" x="1913" y="623.1074">Author</text><line style="stroke:#181818;stroke-width:0.5;" x1="1900.5" x2="1967.5" y1="631.6211" y2="631.6211"/><text fill="#000000" font-family="sans-serif" font-size="14" lengthAdjust="spacing" textLength="16" x="1905.5" y="650.7285">-id</text><text fill="#000000" font-family="sans-serif" font-size="14" lengthAdjust="spacing" textLength="40" x="1905.5" y="669.3496">-name</text><text fill="#000000" font-family="sans-serif" font-size="14" lengthAdjust="spacing" textLength="57" x="1905.5" y="687.9707">-shortBio</text><line style="stroke:#181818;stroke-width:0.5;" x1="1900.5" x2="1967.5" y1="695.4844" y2="695.4844"/></g><!--class AuthorPhoto--><g id="elem_AuthorPhoto"><rect codeLine="42" fill="#F1F1F1" height="100.4844" id="AuthorPhoto" rx="2.5" ry="2.5" style="stroke:#181818;stroke-width:0.5;" width="96" x="1886" y="764"/><text fill="#000000" font-family="sans-serif" font-size="14" lengthAdjust="spacing" textLength="79" x="1894.5" y="784.1074">AuthorPhoto</text><line style="stroke:#181818;stroke-width:0.5;" x1="1887" x2="1981" y1="792.6211" y2="792.6211"/><text fill="#000000" font-family="sans-serif" font-size="14" lengthAdjust="spacing" textLength="16" x="1892" y="811.7285">-id</text><text fill="#000000" font-family="sans-serif" font-size="14" lengthAdjust="spacing" textLength="43" x="1892" y="830.3496">-image</text><text fill="#000000" font-family="sans-serif" font-size="14" lengthAdjust="spacing" textLength="84" x="1892" y="848.9707">-contentType</text><line style="stroke:#181818;stroke-width:0.5;" x1="1887" x2="1981" y1="856.4844" y2="856.4844"/></g><!--class AuthorController--><g id="elem_AuthorController"><rect codeLine="48" fill="#F1F1F1" height="63.2422" id="AuthorController" rx="2.5" ry="2.5" style="stroke:#181818;stroke-width:0.5;" width="309" x="917.5" y="16.5"/><text fill="#000000" font-family="sans-serif" font-size="14" lengthAdjust="spacing" textLength="104" x="1020" y="36.6074">AuthorController</text><line style="stroke:#181818;stroke-width:0.5;" x1="918.5" x2="1225.5" y1="45.1211" y2="45.1211"/><line style="stroke:#181818;stroke-width:0.5;" x1="918.5" x2="1225.5" y1="53.1211" y2="53.1211"/><text fill="#000000" font-family="sans-serif" font-size="14" lengthAdjust="spacing" textLength="297" x="923.5" y="72.2285">+getTop5Authors(): Iterable&lt;AuthorLentsView&gt;</text></g><!--class AuthorServiceImpl--><g id="elem_AuthorServiceImpl"><rect codeLine="52" fill="#F1F1F1" height="63.2422" id="AuthorServiceImpl" rx="2.5" ry="2.5" style="stroke:#181818;stroke-width:0.5;" width="246" x="7" y="234"/><text fill="#000000" font-family="sans-serif" font-size="14" lengthAdjust="spacing" textLength="114" x="73" y="254.1074">AuthorServiceImpl</text><line style="stroke:#181818;stroke-width:0.5;" x1="8" x2="252" y1="262.6211" y2="262.6211"/><line style="stroke:#181818;stroke-width:0.5;" x1="8" x2="252" y1="270.6211" y2="270.6211"/><text fill="#000000" font-family="sans-serif" font-size="14" lengthAdjust="spacing" textLength="234" x="13" y="289.7285">+getAuthors(pageable): List&lt;Author&gt;</text></g><!--class BookServiceImpl--><g id="elem_BookServiceImpl"><rect codeLine="56" fill="#F1F1F1" height="63.2422" id="BookServiceImpl" rx="2.5" ry="2.5" style="stroke:#181818;stroke-width:0.5;" width="412" x="288" y="234"/><text fill="#000000" font-family="sans-serif" font-size="14" lengthAdjust="spacing" textLength="104" x="442" y="254.1074">BookServiceImpl</text><line style="stroke:#181818;stroke-width:0.5;" x1="289" x2="699" y1="262.6211" y2="262.6211"/><line style="stroke:#181818;stroke-width:0.5;" x1="289" x2="699" y1="270.6211" y2="270.6211"/><text fill="#000000" font-family="sans-serif" font-size="14" lengthAdjust="spacing" textLength="400" x="294" y="289.7285">+getBookAuthorsByAuthorId(authorId: Long): List&lt;BookAuthor&gt;</text></g><!--class LendingServiceImpl--><g id="elem_LendingServiceImpl"><rect codeLine="60" fill="#F1F1F1" height="63.2422" id="LendingServiceImpl" rx="2.5" ry="2.5" style="stroke:#181818;stroke-width:0.5;" width="331" x="735.5" y="234"/><text fill="#000000" font-family="sans-serif" font-size="14" lengthAdjust="spacing" textLength="123" x="839.5" y="254.1074">LendingServiceImpl</text><line style="stroke:#181818;stroke-width:0.5;" x1="736.5" x2="1065.5" y1="262.6211" y2="262.6211"/><line style="stroke:#181818;stroke-width:0.5;" x1="736.5" x2="1065.5" y1="270.6211" y2="270.6211"/><text fill="#000000" font-family="sans-serif" font-size="14" lengthAdjust="spacing" textLength="319" x="741.5" y="289.7285">+getLentBook(bookAuthorId: Long): List&lt;Lending&gt;</text></g><!--class AuthorViewMapper--><g id="elem_AuthorViewMapper"><rect codeLine="64" fill="#F1F1F1" height="63.2422" id="AuthorViewMapper" rx="2.5" ry="2.5" style="stroke:#181818;stroke-width:0.5;" width="283" x="1101.5" y="234"/><text fill="#000000" font-family="sans-serif" font-size="14" lengthAdjust="spacing" textLength="119" x="1183.5" y="254.1074">AuthorViewMapper</text><line style="stroke:#181818;stroke-width:0.5;" x1="1102.5" x2="1383.5" y1="262.6211" y2="262.6211"/><line style="stroke:#181818;stroke-width:0.5;" x1="1102.5" x2="1383.5" y1="270.6211" y2="270.6211"/><text fill="#000000" font-family="sans-serif" font-size="14" lengthAdjust="spacing" textLength="271" x="1107.5" y="289.7285">+toAuthorView(author: Author): AuthorView</text></g><!--class AuthorLentsViewMapper--><g id="elem_AuthorLentsViewMapper"><rect codeLine="68" fill="#F1F1F1" height="63.2422" id="AuthorLentsViewMapper" rx="2.5" ry="2.5" style="stroke:#181818;stroke-width:0.5;" width="461" x="1419.5" y="234"/><text fill="#000000" font-family="sans-serif" font-size="14" lengthAdjust="spacing" textLength="154" x="1573" y="254.1074">AuthorLentsViewMapper</text><line style="stroke:#181818;stroke-width:0.5;" x1="1420.5" x2="1879.5" y1="262.6211" y2="262.6211"/><line style="stroke:#181818;stroke-width:0.5;" x1="1420.5" x2="1879.5" y1="270.6211" y2="270.6211"/><text fill="#000000" font-family="sans-serif" font-size="14" lengthAdjust="spacing" textLength="449" x="1425.5" y="289.7285">+toAuthorLentsView(authors: List&lt;Author&gt;): Iterable&lt;AuthorLentsView&gt;</text></g><!--class AuthorRepository--><g id="elem_AuthorRepository"><rect codeLine="72" fill="#F1F1F1" height="63.2422" id="AuthorRepository" rx="2.5" ry="2.5" style="stroke:#181818;stroke-width:0.5;" width="156" x="52" y="451.5"/><text fill="#000000" font-family="sans-serif" font-size="14" lengthAdjust="spacing" textLength="110" x="75" y="471.6074">AuthorRepository</text><line style="stroke:#181818;stroke-width:0.5;" x1="53" x2="207" y1="480.1211" y2="480.1211"/><line style="stroke:#181818;stroke-width:0.5;" x1="53" x2="207" y1="488.1211" y2="488.1211"/><text fill="#000000" font-family="sans-serif" font-size="14" lengthAdjust="spacing" textLength="144" x="58" y="507.2285">+findAll(): List&lt;Author&gt;</text></g><!--class BookAuthorRepository--><g id="elem_BookAuthorRepository"><rect codeLine="76" fill="#F1F1F1" height="63.2422" id="BookAuthorRepository" rx="2.5" ry="2.5" style="stroke:#181818;stroke-width:0.5;" width="343" x="350.5" y="451.5"/><text fill="#000000" font-family="sans-serif" font-size="14" lengthAdjust="spacing" textLength="142" x="451" y="471.6074">BookAuthorRepository</text><line style="stroke:#181818;stroke-width:0.5;" x1="351.5" x2="692.5" y1="480.1211" y2="480.1211"/><line style="stroke:#181818;stroke-width:0.5;" x1="351.5" x2="692.5" y1="488.1211" y2="488.1211"/><text fill="#000000" font-family="sans-serif" font-size="14" lengthAdjust="spacing" textLength="331" x="356.5" y="507.2285">+getAuthorBooks(authorId: Long): List&lt;BookAuthor&gt;</text></g><!--class LendingRepository--><g id="elem_LendingRepository"><rect codeLine="80" fill="#F1F1F1" height="63.2422" id="LendingRepository" rx="2.5" ry="2.5" style="stroke:#181818;stroke-width:0.5;" width="289" x="756.5" y="451.5"/><text fill="#000000" font-family="sans-serif" font-size="14" lengthAdjust="spacing" textLength="119" x="841.5" y="471.6074">LendingRepository</text><line style="stroke:#181818;stroke-width:0.5;" x1="757.5" x2="1044.5" y1="480.1211" y2="480.1211"/><line style="stroke:#181818;stroke-width:0.5;" x1="757.5" x2="1044.5" y1="488.1211" y2="488.1211"/><text fill="#000000" font-family="sans-serif" font-size="14" lengthAdjust="spacing" textLength="277" x="762.5" y="507.2285">+getLentBook(bookId: Long): List&lt;Lending&gt;</text></g><!--link AuthorController to AuthorServiceImpl--><g id="link_AuthorController_AuthorServiceImpl"><path codeLine="84" d="M917.11,58.3 C717.61,72.03 383.08,101.47 270,150 C225.42,169.13 187.8373,202.5731 161.7273,229.4931 " fill="none" id="AuthorController-to-AuthorServiceImpl" style="stroke:#181818;stroke-width:1.0;stroke-dasharray:7.0,7.0;"/><polygon fill="#181818" points="157.55,233.8,166.6873,230.1245,161.0311,230.2109,160.9447,224.5547,157.55,233.8" style="stroke:#181818;stroke-width:1.0;"/></g><!--link AuthorController to BookServiceImpl--><g id="link_AuthorController_BookServiceImpl"><path codeLine="85" d="M942.19,79.56 C874.34,97.15 790.55,121.42 718,150 C657.25,173.93 596.2927,206.0242 551.7327,231.0242 " fill="none" id="AuthorController-to-BookServiceImpl" style="stroke:#181818;stroke-width:1.0;stroke-dasharray:7.0,7.0;"/><polygon fill="#181818" points="546.5,233.96,556.3062,233.0448,550.8606,231.5135,552.3919,226.0679,546.5,233.96" style="stroke:#181818;stroke-width:1.0;"/></g><!--link AuthorController to LendingServiceImpl--><g id="link_AuthorController_LendingServiceImpl"><path codeLine="86" d="M1047.5,79.88 C1014.99,120.84 961.6698,188.0402 929.1798,228.9802 " fill="none" id="AuthorController-to-LendingServiceImpl" style="stroke:#181818;stroke-width:1.0;stroke-dasharray:7.0,7.0;"/><polygon fill="#181818" points="925.45,233.68,934.1779,229.1168,928.5582,229.7635,927.9115,224.1437,925.45,233.68" style="stroke:#181818;stroke-width:1.0;"/></g><!--link AuthorController to AuthorViewMapper--><g id="link_AuthorController_AuthorViewMapper"><path codeLine="87" d="M1096.5,79.88 C1129.01,120.84 1182.3302,188.0402 1214.8202,228.9802 " fill="none" id="AuthorController-to-AuthorViewMapper" style="stroke:#181818;stroke-width:1.0;stroke-dasharray:7.0,7.0;"/><polygon fill="#181818" points="1218.55,233.68,1216.0885,224.1437,1215.4418,229.7635,1209.8221,229.1168,1218.55,233.68" style="stroke:#181818;stroke-width:1.0;"/></g><!--link AuthorController to AuthorLentsViewMapper--><g id="link_AuthorController_AuthorLentsViewMapper"><path codeLine="88" d="M1185.16,79.52 C1249.47,97.88 1331.05,122.91 1402,150 C1467.57,175.04 1534.8316,206.7306 1584.4616,231.2706 " fill="none" id="AuthorController-to-AuthorLentsViewMapper" style="stroke:#181818;stroke-width:1.0;stroke-dasharray:7.0,7.0;"/><polygon fill="#181818" points="1589.84,233.93,1583.5453,226.3553,1585.358,231.7138,1579.9994,233.5265,1589.84,233.93" style="stroke:#181818;stroke-width:1.0;"/></g><!--link AuthorServiceImpl to AuthorRepository--><g id="link_AuthorServiceImpl_AuthorRepository"><path codeLine="90" d="M130,297.38 C130,338.34 130,404.24 130,445.18 " fill="none" id="AuthorServiceImpl-to-AuthorRepository" style="stroke:#181818;stroke-width:1.0;stroke-dasharray:7.0,7.0;"/><polygon fill="#181818" points="130,451.18,134,442.18,130,446.18,126,442.18,130,451.18" style="stroke:#181818;stroke-width:1.0;"/></g><!--link BookServiceImpl to BookAuthorRepository--><g id="link_BookServiceImpl_BookAuthorRepository"><path codeLine="91" d="M498.01,297.38 C503.33,338.34 511.9068,404.29 517.2268,445.23 " fill="none" id="BookServiceImpl-to-BookAuthorRepository" style="stroke:#181818;stroke-width:1.0;stroke-dasharray:7.0,7.0;"/><polygon fill="#181818" points="518,451.18,520.8069,441.7396,517.3557,446.2217,512.8736,442.7705,518,451.18" style="stroke:#181818;stroke-width:1.0;"/></g><!--link LendingServiceImpl to LendingRepository--><g id="link_LendingServiceImpl_LendingRepository"><path codeLine="92" d="M901,297.38 C901,338.34 901,404.24 901,445.18 " fill="none" id="LendingServiceImpl-to-LendingRepository" style="stroke:#181818;stroke-width:1.0;stroke-dasharray:7.0,7.0;"/><polygon fill="#181818" points="901,451.18,905,442.18,901,446.18,897,442.18,901,451.18" style="stroke:#181818;stroke-width:1.0;"/></g><!--link AuthorController to Author--><g id="link_AuthorController_Author"><path codeLine="94" d="M1226.86,57.44 C1453.23,71.33 1852.64,102.3 1898,150 C1958.82,213.95 1946.4964,483.5452 1938.4164,596.9652 " fill="none" id="AuthorController-to-Author" style="stroke:#181818;stroke-width:1.0;stroke-dasharray:7.0,7.0;"/><polygon fill="#181818" points="1937.99,602.95,1942.6194,594.257,1938.3453,597.9626,1934.6396,593.6885,1937.99,602.95" style="stroke:#181818;stroke-width:1.0;"/></g><!--link BookAuthorRepository to Author--><g id="link_BookAuthorRepository_Author"><path codeLine="96" d="M679.7,514.51 C699.62,517.94 719.76,521.2 739,524 C1195.83,590.47 1749.6394,637.1776 1893.1894,648.7576 " fill="none" id="BookAuthorRepository-to-Author" style="stroke:#181818;stroke-width:1.0;"/><polygon fill="#181818" points="1899.17,649.24,1890.5208,644.5293,1894.1862,648.838,1889.8775,652.5034,1899.17,649.24" style="stroke:#181818;stroke-width:1.0;"/><text fill="#000000" font-family="sans-serif" font-size="13" lengthAdjust="spacing" textLength="53" x="1101" y="569.0283">searches</text><text fill="#000000" font-family="sans-serif" font-size="13" lengthAdjust="spacing" textLength="7" x="701.1306" y="535.9197">1</text><text fill="#000000" font-family="sans-serif" font-size="13" lengthAdjust="spacing" textLength="20" x="1871.4648" y="644.1445">1..*</text></g><!--link Book to BookAuthor--><g id="link_Book_BookAuthor"><path codeLine="98" d="M2155.6,325.1 C2144.6,362.12 2130.68,408.98 2120.93,441.82 " fill="none" id="Book-BookAuthor" style="stroke:#181818;stroke-width:1.0;"/><text fill="#000000" font-family="sans-serif" font-size="13" lengthAdjust="spacing" textLength="7" x="2146.1834" y="347.0131">1</text><text fill="#000000" font-family="sans-serif" font-size="13" lengthAdjust="spacing" textLength="20" x="2101.2497" y="430.6555">1..*</text></g><!--link BookAuthor to Author--><g id="link_BookAuthor_Author"><path codeLine="99" d="M2067.08,524.24 C2036.95,553.17 1996.81,591.7 1968.52,618.86 " fill="none" id="BookAuthor-Author" style="stroke:#181818;stroke-width:1.0;"/><text fill="#000000" font-family="sans-serif" font-size="13" lengthAdjust="spacing" textLength="20" x="2039.1297" y="545.9175">1..*</text><text fill="#000000" font-family="sans-serif" font-size="13" lengthAdjust="spacing" textLength="7" x="1976.3616" y="607.0739">1</text></g><!--link Genre to Book--><g id="link_Genre_Book"><path codeLine="100" d="M2173,89.03 C2173,121.89 2173,168.89 2173,205.98 " fill="none" id="Genre-Book" style="stroke:#181818;stroke-width:1.0;"/><text fill="#000000" font-family="sans-serif" font-size="13" lengthAdjust="spacing" textLength="7" x="2165.4422" y="110.9862">1</text><text fill="#000000" font-family="sans-serif" font-size="13" lengthAdjust="spacing" textLength="20" x="2151.7813" y="194.7297">1..*</text></g><!--reverse link Author to AuthorPhoto--><g id="link_Author_AuthorPhoto"><path codeLine="102" d="M1934,715 C1934,734.35 1934,744.53 1934,763.89 " fill="none" id="Author-backto-AuthorPhoto" style="stroke:#181818;stroke-width:1.0;"/><polygon fill="#181818" points="1934,703,1930,709,1934,715,1938,709,1934,703" style="stroke:#181818;stroke-width:1.0;"/><text fill="#000000" font-family="sans-serif" font-size="13" lengthAdjust="spacing" textLength="7" x="1926.4859" y="725.6063">1</text><text fill="#000000" font-family="sans-serif" font-size="13" lengthAdjust="spacing" textLength="7" x="1926.5078" y="752.6627">1</text></g><!--link Lending to Book--><g id="link_Lending_Book"><path codeLine="104" d="M2095.14,265.5 C2106.7,265.5 2118.26,265.5 2129.81,265.5 " fill="none" id="Lending-Book" style="stroke:#181818;stroke-width:1.0;"/><text fill="#000000" font-family="sans-serif" font-size="13" lengthAdjust="spacing" textLength="20" x="2102.9571" y="261.5204">1..*</text><text fill="#000000" font-family="sans-serif" font-size="13" lengthAdjust="spacing" textLength="7" x="2115.077" y="261.1359">1</text></g><!--SRC=[dPHDZzCm48Rl_XLMBtGNDOK3bmfLQlU08Yq2xLRSdNYsjTQnBNkog23-EqvYnscILe9UCl6yyupdetbtGZHkiruRoHJMbSnANQrBoPnRSS6EbbM4d0G7MWfRIY3kLIZ3_35jHJj4AueQ8I-rUXQ_W7uWfFNGlTQllmdrlnKLF1gkKC54WPxNsHnSQOL1eHNv4m6FeBXGHpg1oDR17pIFyHOO1vj7GU5JNxmSXhdOsHs4b4-0jLKze7a1Fj1yUmFBwnZr8bGqVOSgK9WksbIwg_6axUYgx-aHiF4kxpRD8uLy0MLXKfXY5IJDB3A8EjDvF-w57iTyFsdKqzvNx9XgKEXhE9pD9E63Traj9TZG-RQAWpQVEh_pnT0SmR92mkVkp8yAtGy1FxTZsZFODr52NXavn4MKyLTgE1xvA1m6tFQojrSOgUrkV-wCd2zPC3nGgsFa9krsic1Ny4rDxUoAFdPC3O19qKqdlZ9Z1Yr4dLpXZfkWljiCmiQelhDNUBq_GDrb8_zbL4zWj1EexRdFuhUUxwHStXpFrUX-petA_STavfaNWxaraia-PzbskfRpij7UpOkc2tGhPvhYBTLeuB6AuP8cSMeG6VzHOX4JuSpM3seP26_Taf3PoIy-BkXgjVNFBBjV1Es6Ec2sF87hee8gYX9em8pELXP1CRhprARpjP_IUDdsvFuYglqO3ZDBUC4-UoYR_0K0]--></g></svg>