<?xml version="1.0" encoding="us-ascii" standalone="no"?><svg xmlns="http://www.w3.org/2000/svg" xmlns:xlink="http://www.w3.org/1999/xlink" contentStyleType="text/css" height="1054px" preserveAspectRatio="none" style="width:859px;height:1054px;background:#FFFFFF;" version="1.1" viewBox="0 0 859 1054" width="859px" zoomAndPan="magnify"><defs/><g><!--class Lending--><g id="elem_Lending"><rect codeLine="6" fill="#F1F1F1" height="249.4531" id="Lending" rx="2.5" ry="2.5" style="stroke:#181818;stroke-width:0.5;" width="160" x="297" y="477"/><text fill="#000000" font-family="sans-serif" font-size="14" lengthAdjust="spacing" textLength="51" x="351.5" y="497.1074">Lending</text><line style="stroke:#181818;stroke-width:0.5;" x1="298" x2="456" y1="505.6211" y2="505.6211"/><text fill="#000000" font-family="sans-serif" font-size="14" lengthAdjust="spacing" textLength="56" x="303" y="524.7285">-id: Long</text><text fill="#000000" font-family="sans-serif" font-size="14" lengthAdjust="spacing" textLength="130" x="303" y="543.3496">-lendingCode: String</text><text fill="#000000" font-family="sans-serif" font-size="14" lengthAdjust="spacing" textLength="86" x="303" y="561.9707">-version: long</text><text fill="#000000" font-family="sans-serif" font-size="14" lengthAdjust="spacing" textLength="98" x="303" y="580.5918">-readerId: Long</text><text fill="#000000" font-family="sans-serif" font-size="14" lengthAdjust="spacing" textLength="87" x="303" y="599.2129">-bookId: Long</text><text fill="#000000" font-family="sans-serif" font-size="14" lengthAdjust="spacing" textLength="108" x="303" y="617.834">-bookTitle: String</text><text fill="#000000" font-family="sans-serif" font-size="14" lengthAdjust="spacing" textLength="148" x="303" y="636.4551">-daysTillReturn: Integer</text><text fill="#000000" font-family="sans-serif" font-size="14" lengthAdjust="spacing" textLength="142" x="303" y="655.0762">-daysOverdue: Integer</text><text fill="#000000" font-family="sans-serif" font-size="14" lengthAdjust="spacing" textLength="68" x="303" y="673.6973">-fine: Float</text><text fill="#000000" font-family="sans-serif" font-size="14" lengthAdjust="spacing" textLength="118" x="303" y="692.3184">-returned: boolean</text><text fill="#000000" font-family="sans-serif" font-size="14" lengthAdjust="spacing" textLength="107" x="303" y="710.9395">-comment: String</text><line style="stroke:#181818;stroke-width:0.5;" x1="298" x2="456" y1="718.4531" y2="718.4531"/></g><!--class LendingController--><g id="elem_LendingController"><rect codeLine="20" fill="#F1F1F1" height="63.2422" id="LendingController" rx="2.5" ry="2.5" style="stroke:#181818;stroke-width:0.5;" width="438" x="252" y="7"/><text fill="#000000" font-family="sans-serif" font-size="14" lengthAdjust="spacing" textLength="113" x="414.5" y="27.1074">LendingController</text><line style="stroke:#181818;stroke-width:0.5;" x1="253" x2="689" y1="35.6211" y2="35.6211"/><line style="stroke:#181818;stroke-width:0.5;" x1="253" x2="689" y1="43.6211" y2="43.6211"/><text fill="#000000" font-family="sans-serif" font-size="14" lengthAdjust="spacing" textLength="426" x="258" y="62.7285">+getAveragePerGenreInMonth(genreId: Long): Map&lt;Integer, Long&gt;</text></g><!--class LendingServiceImpl--><g id="elem_LendingServiceImpl"><rect codeLine="24" fill="#F1F1F1" height="63.2422" id="LendingServiceImpl" rx="2.5" ry="2.5" style="stroke:#181818;stroke-width:0.5;" width="488" x="7" y="149"/><text fill="#000000" font-family="sans-serif" font-size="14" lengthAdjust="spacing" textLength="123" x="189.5" y="169.1074">LendingServiceImpl</text><line style="stroke:#181818;stroke-width:0.5;" x1="8" x2="494" y1="177.6211" y2="177.6211"/><line style="stroke:#181818;stroke-width:0.5;" x1="8" x2="494" y1="185.6211" y2="185.6211"/><text fill="#000000" font-family="sans-serif" font-size="14" lengthAdjust="spacing" textLength="476" x="13" y="204.7285">+numberOfLendingsPerMonthByGenre(genre: Genre): Map&lt;Integer, Long&gt;</text></g><!--class LendingRepository--><g id="elem_LendingRepository"><rect codeLine="28" fill="#F1F1F1" height="63.2422" id="LendingRepository" rx="2.5" ry="2.5" style="stroke:#181818;stroke-width:0.5;" width="448" x="78" y="291"/><text fill="#000000" font-family="sans-serif" font-size="14" lengthAdjust="spacing" textLength="119" x="242.5" y="311.1074">LendingRepository</text><line style="stroke:#181818;stroke-width:0.5;" x1="79" x2="525" y1="319.6211" y2="319.6211"/><line style="stroke:#181818;stroke-width:0.5;" x1="79" x2="525" y1="327.6211" y2="327.6211"/><text fill="#000000" font-family="sans-serif" font-size="14" lengthAdjust="spacing" textLength="436" x="84" y="346.7285">+numberOfLendingsPerMonthByGenre(genre: Genre): List&lt;Object[]&gt;</text></g><!--class GenreServiceImpl--><g id="elem_GenreServiceImpl"><rect codeLine="32" fill="#F1F1F1" height="63.2422" id="GenreServiceImpl" rx="2.5" ry="2.5" style="stroke:#181818;stroke-width:0.5;" width="322" x="530" y="149"/><text fill="#000000" font-family="sans-serif" font-size="14" lengthAdjust="spacing" textLength="112" x="635" y="169.1074">GenreServiceImpl</text><line style="stroke:#181818;stroke-width:0.5;" x1="531" x2="851" y1="177.6211" y2="177.6211"/><line style="stroke:#181818;stroke-width:0.5;" x1="531" x2="851" y1="185.6211" y2="185.6211"/><text fill="#000000" font-family="sans-serif" font-size="14" lengthAdjust="spacing" textLength="310" x="536" y="204.7285">+getGenreById(genreId: Long): Optional&lt;Genre&gt;</text></g><!--class GenreRepository--><g id="elem_GenreRepository"><rect codeLine="36" fill="#F1F1F1" height="63.2422" id="GenreRepository" rx="2.5" ry="2.5" style="stroke:#181818;stroke-width:0.5;" width="288" x="544" y="384"/><text fill="#000000" font-family="sans-serif" font-size="14" lengthAdjust="spacing" textLength="108" x="634" y="404.1074">GenreRepository</text><line style="stroke:#181818;stroke-width:0.5;" x1="545" x2="831" y1="412.6211" y2="412.6211"/><line style="stroke:#181818;stroke-width:0.5;" x1="545" x2="831" y1="420.6211" y2="420.6211"/><text fill="#000000" font-family="sans-serif" font-size="14" lengthAdjust="spacing" textLength="276" x="550" y="439.7285">+findGenreById(id: Long): Optional&lt;Genre&gt;</text></g><!--class Genre--><g id="elem_Genre"><rect codeLine="40" fill="#F1F1F1" height="81.8633" id="Genre" rx="2.5" ry="2.5" style="stroke:#181818;stroke-width:0.5;" width="97" x="425.5" y="966"/><text fill="#000000" font-family="sans-serif" font-size="14" lengthAdjust="spacing" textLength="40" x="454" y="986.1074">Genre</text><line style="stroke:#181818;stroke-width:0.5;" x1="426.5" x2="521.5" y1="994.6211" y2="994.6211"/><text fill="#000000" font-family="sans-serif" font-size="14" lengthAdjust="spacing" textLength="56" x="431.5" y="1013.7285">-id: Long</text><text fill="#000000" font-family="sans-serif" font-size="14" lengthAdjust="spacing" textLength="85" x="431.5" y="1032.3496">-name: String</text><line style="stroke:#181818;stroke-width:0.5;" x1="426.5" x2="521.5" y1="1039.8633" y2="1039.8633"/></g><!--class Book--><g id="elem_Book"><rect codeLine="45" fill="#F1F1F1" height="100.4844" id="Book" rx="2.5" ry="2.5" style="stroke:#181818;stroke-width:0.5;" width="102" x="208" y="805"/><text fill="#000000" font-family="sans-serif" font-size="14" lengthAdjust="spacing" textLength="32" x="243" y="825.1074">Book</text><line style="stroke:#181818;stroke-width:0.5;" x1="209" x2="309" y1="833.6211" y2="833.6211"/><text fill="#000000" font-family="sans-serif" font-size="14" lengthAdjust="spacing" textLength="56" x="214" y="852.7285">-id: Long</text><text fill="#000000" font-family="sans-serif" font-size="14" lengthAdjust="spacing" textLength="72" x="214" y="871.3496">-title: String</text><text fill="#000000" font-family="sans-serif" font-size="14" lengthAdjust="spacing" textLength="90" x="214" y="889.9707">-genre: Genre</text><line style="stroke:#181818;stroke-width:0.5;" x1="209" x2="309" y1="897.4844" y2="897.4844"/></g><!--class lendDate--><g id="elem_lendDate"><rect fill="#F1F1F1" height="44.6211" id="lendDate" rx="2.5" ry="2.5" style="stroke:#181818;stroke-width:0.5;" width="63" x="345.5" y="832.5"/><text fill="#000000" font-family="sans-serif" font-size="14" lengthAdjust="spacing" textLength="57" x="348.5" y="852.6074">lendDate</text><line style="stroke:#181818;stroke-width:0.5;" x1="346.5" x2="407.5" y1="861.1211" y2="861.1211"/><line style="stroke:#181818;stroke-width:0.5;" x1="346.5" x2="407.5" y1="869.1211" y2="869.1211"/></g><!--class returnedDate--><g id="elem_returnedDate"><rect fill="#F1F1F1" height="44.6211" id="returnedDate" rx="2.5" ry="2.5" style="stroke:#181818;stroke-width:0.5;" width="90" x="444" y="832.5"/><text fill="#000000" font-family="sans-serif" font-size="14" lengthAdjust="spacing" textLength="84" x="447" y="852.6074">returnedDate</text><line style="stroke:#181818;stroke-width:0.5;" x1="445" x2="533" y1="861.1211" y2="861.1211"/><line style="stroke:#181818;stroke-width:0.5;" x1="445" x2="533" y1="869.1211" y2="869.1211"/></g><!--class limitDate--><g id="elem_limitDate"><rect fill="#F1F1F1" height="44.6211" id="limitDate" rx="2.5" ry="2.5" style="stroke:#181818;stroke-width:0.5;" width="60" x="569" y="832.5"/><text fill="#000000" font-family="sans-serif" font-size="14" lengthAdjust="spacing" textLength="54" x="572" y="852.6074">limitDate</text><line style="stroke:#181818;stroke-width:0.5;" x1="570" x2="628" y1="861.1211" y2="861.1211"/><line style="stroke:#181818;stroke-width:0.5;" x1="570" x2="628" y1="869.1211" y2="869.1211"/></g><!--link LendingController to LendingServiceImpl--><g id="link_LendingController_LendingServiceImpl"><path codeLine="51" d="M422.99,70.05 C386.33,93.38 341.0822,122.1791 304.3522,145.5491 " fill="none" id="LendingController-to-LendingServiceImpl" style="stroke:#181818;stroke-width:1.0;stroke-dasharray:7.0,7.0;"/><polygon fill="#181818" points="299.29,148.77,309.0306,147.3135,303.5085,146.0859,304.736,140.5639,299.29,148.77" style="stroke:#181818;stroke-width:1.0;"/><text fill="#000000" font-family="sans-serif" font-size="13" lengthAdjust="spacing" textLength="28" x="376" y="115.0283">uses</text></g><!--link LendingServiceImpl to LendingRepository--><g id="link_LendingServiceImpl_LendingRepository"><path codeLine="52" d="M262.19,212.22 C270.7,235.57 280.2882,261.8817 288.7782,285.2117 " fill="none" id="LendingServiceImpl-to-LendingRepository" style="stroke:#181818;stroke-width:1.0;stroke-dasharray:7.0,7.0;"/><polygon fill="#181818" points="290.83,290.85,291.5111,281.0247,289.1202,286.1514,283.9934,283.7605,290.83,290.85" style="stroke:#181818;stroke-width:1.0;"/><text fill="#000000" font-family="sans-serif" font-size="13" lengthAdjust="spacing" textLength="28" x="281" y="257.0283">uses</text></g><!--link LendingController to GenreServiceImpl--><g id="link_LendingController_GenreServiceImpl"><path codeLine="53" d="M519.01,70.05 C555.67,93.38 600.9178,122.1791 637.6478,145.5491 " fill="none" id="LendingController-to-GenreServiceImpl" style="stroke:#181818;stroke-width:1.0;stroke-dasharray:7.0,7.0;"/><polygon fill="#181818" points="642.71,148.77,637.264,140.5639,638.4915,146.0859,632.9694,147.3135,642.71,148.77" style="stroke:#181818;stroke-width:1.0;"/><text fill="#000000" font-family="sans-serif" font-size="13" lengthAdjust="spacing" textLength="28" x="595" y="115.0283">uses</text></g><!--link GenreServiceImpl to GenreRepository--><g id="link_GenreServiceImpl_GenreRepository"><path codeLine="54" d="M690.6,212.44 C690.03,257.13 689.0468,333.2505 688.4768,377.8005 " fill="none" id="GenreServiceImpl-to-GenreRepository" style="stroke:#181818;stroke-width:1.0;stroke-dasharray:7.0,7.0;"/><polygon fill="#181818" points="688.4,383.8,692.5148,374.8519,688.464,378.8004,684.5155,374.7496,688.4,383.8" style="stroke:#181818;stroke-width:1.0;"/><text fill="#000000" font-family="sans-serif" font-size="13" lengthAdjust="spacing" textLength="28" x="691" y="257.0283">uses</text></g><!--link GenreRepository to Genre--><g id="link_GenreRepository_Genre"><path codeLine="55" d="M694.46,447.26 C709.88,529.13 740.92,756.2 647,905 C618.88,949.56 569.0878,974.697 528.5278,989.467 " fill="none" id="GenreRepository-to-Genre" style="stroke:#181818;stroke-width:1.0;stroke-dasharray:7.0,7.0;"/><polygon fill="#181818" points="522.89,991.52,532.7154,992.199,527.5882,989.8091,529.9781,984.6819,522.89,991.52" style="stroke:#181818;stroke-width:1.0;"/><text fill="#000000" font-family="sans-serif" font-size="13" lengthAdjust="spacing" textLength="56" x="702" y="771.0283">accesses</text></g><!--link LendingRepository to Lending--><g id="link_LendingRepository_Lending"><path codeLine="56" d="M310.31,354.2 C318.42,384.13 329.7115,425.8587 341.9915,471.1987 " fill="none" id="LendingRepository-to-Lending" style="stroke:#181818;stroke-width:1.0;stroke-dasharray:7.0,7.0;"/><polygon fill="#181818" points="343.56,476.99,345.0681,467.2573,342.2529,472.1639,337.3463,469.3487,343.56,476.99" style="stroke:#181818;stroke-width:1.0;"/><text fill="#000000" font-family="sans-serif" font-size="13" lengthAdjust="spacing" textLength="56" x="337" y="421.0283">accesses</text></g><!--link Lending to Book--><g id="link_Lending_Book"><path codeLine="58" d="M319.04,726.04 C305.92,753.99 292.74,782.09 282.08,804.8 " fill="none" id="Lending-Book" style="stroke:#181818;stroke-width:1.0;"/><text fill="#000000" font-family="sans-serif" font-size="13" lengthAdjust="spacing" textLength="20" x="294.6863" y="748.586">0..*</text><text fill="#000000" font-family="sans-serif" font-size="13" lengthAdjust="spacing" textLength="7" x="277.8334" y="793.56">1</text></g><!--reverse link Lending to lendDate--><g id="link_Lending_lendDate"><path codeLine="59" d="M377,738.04 C377,778.79 377,807.84 377,832.09 " fill="none" id="Lending-backto-lendDate" style="stroke:#181818;stroke-width:1.0;"/><polygon fill="#181818" points="377,726.04,373,732.04,377,738.04,381,732.04,377,726.04" style="stroke:#181818;stroke-width:1.0;"/><text fill="#000000" font-family="sans-serif" font-size="13" lengthAdjust="spacing" textLength="7" x="369.7758" y="748.586">1</text><text fill="#000000" font-family="sans-serif" font-size="13" lengthAdjust="spacing" textLength="7" x="369.1031" y="821.1553">1</text></g><!--reverse link Lending to returnedDate--><g id="link_Lending_returnedDate"><path codeLine="60" d="M436.9002,737.0029 C455.0402,777.7529 468.44,807.84 479.24,832.09 " fill="none" id="Lending-backto-returnedDate" style="stroke:#181818;stroke-width:1.0;"/><polygon fill="#181818" points="432.02,726.04,430.8058,733.1481,436.9002,737.0029,438.1144,729.8947,432.02,726.04" style="stroke:#181818;stroke-width:1.0;"/><text fill="#000000" font-family="sans-serif" font-size="13" lengthAdjust="spacing" textLength="7" x="428.3205" y="748.586">1</text><text fill="#000000" font-family="sans-serif" font-size="13" lengthAdjust="spacing" textLength="7" x="468.8421" y="821.1553">1</text></g><!--reverse link Lending to limitDate--><g id="link_Lending_limitDate"><path codeLine="61" d="M465.0908,702.2969 C509.3008,752.3869 552.67,801.51 579.83,832.29 " fill="none" id="Lending-backto-limitDate" style="stroke:#181818;stroke-width:1.0;"/><polygon fill="#181818" points="457.15,693.3,458.1214,700.4454,465.0908,702.2969,464.1194,695.1515,457.15,693.3" style="stroke:#181818;stroke-width:1.0;"/><text fill="#000000" font-family="sans-serif" font-size="13" lengthAdjust="spacing" textLength="7" x="465.1229" y="698.2601">1</text><text fill="#000000" font-family="sans-serif" font-size="13" lengthAdjust="spacing" textLength="7" x="567.0208" y="821.4066">1</text></g><!--link Book to Genre--><g id="link_Book_Genre"><path codeLine="62" d="M310.2,892.46 C316.19,896.7 322.22,900.95 328,905 C360.31,927.64 396.81,952.89 425.23,972.48 " fill="none" id="Book-Genre" style="stroke:#181818;stroke-width:1.0;"/><text fill="#000000" font-family="sans-serif" font-size="13" lengthAdjust="spacing" textLength="7" x="317.8922" y="893.5472">1</text><text fill="#000000" font-family="sans-serif" font-size="13" lengthAdjust="spacing" textLength="7" x="410.5528" y="963.2212">1</text></g><!--SRC=[dLJBRjim4BphAmXVycWifrV1212dI230WOiujw87cjp8sr2aGAu2k4N_lMj6bXL91eBgnfdX3BcxujcMg0hPR5OPQQakJQfSELD6XZ3LA0ilooJPeWQXq2i3INX5Mqc6HHJT4ddSr0IvSdQDlq5S9qban1AiHbk8FudWRofGPsBfRD4ipJjzvpHaOiqkBVC6Fg2pcJ17jGUfmUSVBJRElOv0pqYcxwdbBZoZCKz0jMVht18Ku3liYcDr3Ntg1IrZzyP9Qe-ojm3EvJ03qZOu5wu4IstmtruXxfmbxum1tvJaYoY0RZbM5l0T_0DO3xbzPDdsl8YBvcuNcNYKrRmvs5N4RWR-Q_1lg20lAzC6sBhSW5-zD9B0CT5_iOjfxp6PY8lFfJn1vGAIyxl_3LbYeFbgymiK_VZP2OZys2MuIf5Rx78zACog8fuLQUPHqhSREIqtL1_jyBDEfyROoXA6BL_m69xQGIFZsItHtcKuCcbwCzReJDG1GZB2T3Pqgl1Ht_CVTA1H3_1MF7JkmwsK1L8f29tudkpmO7I41wMONAVfvKHCfsBoTHBBUwGOk6o8_QFoJHACaeSVzwJ0O8aKsTY_FTGmyGR_0000]--></g></svg>