<?xml version="1.0" encoding="us-ascii" standalone="no"?><svg xmlns="http://www.w3.org/2000/svg" xmlns:xlink="http://www.w3.org/1999/xlink" contentStyleType="text/css" height="372px" preserveAspectRatio="none" style="width:627px;height:372px;background:#FFFFFF;" version="1.1" viewBox="0 0 627 372" width="627px" zoomAndPan="magnify"><defs/><g><rect fill="#FFFFFF" height="186.7461" style="stroke:#181818;stroke-width:1.0;" width="10" x="31" y="93.6211"/><rect fill="#FFFFFF" height="146.1641" style="stroke:#181818;stroke-width:1.0;" width="10" x="337" y="134.2031"/><rect fill="#FFFFFF" height="146.1641" style="stroke:#181818;stroke-width:1.0;" width="10" x="337" y="134.2031"/><rect fill="#FFFFFF" height="97.873" style="stroke:#181818;stroke-width:1.0;" width="10" x="342" y="173.4941"/><rect fill="#FFFFFF" height="53.582" style="stroke:#181818;stroke-width:1.0;" width="10" x="347" y="217.7852"/><line style="stroke:#181818;stroke-width:0.5;stroke-dasharray:5.0,5.0;" x1="36" x2="36" y1="83.6211" y2="289.3672"/><line style="stroke:#181818;stroke-width:0.5;stroke-dasharray:5.0,5.0;" x1="337" x2="337" y1="83.6211" y2="289.3672"/><text fill="#000000" font-family="sans-serif" font-size="14" lengthAdjust="spacing" textLength="56" x="5" y="80.1074">Librarian</text><ellipse cx="36" cy="13.5" fill="#E2E2F0" rx="8" ry="8" style="stroke:#181818;stroke-width:0.5;"/><path d="M36,21.5 L36,48.5 M23,29.5 L49,29.5 M36,48.5 L23,63.5 M36,48.5 L49,63.5 " fill="none" style="stroke:#181818;stroke-width:0.5;"/><text fill="#000000" font-family="sans-serif" font-size="14" lengthAdjust="spacing" textLength="56" x="5" y="303.4746">Librarian</text><ellipse cx="36" cy="315.4883" fill="#E2E2F0" rx="8" ry="8" style="stroke:#181818;stroke-width:0.5;"/><path d="M36,323.4883 L36,350.4883 M23,331.4883 L49,331.4883 M36,350.4883 L23,365.4883 M36,350.4883 L49,365.4883 " fill="none" style="stroke:#181818;stroke-width:0.5;"/><rect fill="#E2E2F0" height="32.6211" rx="2.5" ry="2.5" style="stroke:#181818;stroke-width:0.5;" width="64" x="305" y="50"/><text fill="#000000" font-family="sans-serif" font-size="14" lengthAdjust="spacing" textLength="50" x="312" y="72.1074">:System</text><rect fill="#E2E2F0" height="32.6211" rx="2.5" ry="2.5" style="stroke:#181818;stroke-width:0.5;" width="64" x="305" y="288.3672"/><text fill="#000000" font-family="sans-serif" font-size="14" lengthAdjust="spacing" textLength="50" x="312" y="310.4746">:System</text><rect fill="#FFFFFF" height="186.7461" style="stroke:#181818;stroke-width:1.0;" width="10" x="31" y="93.6211"/><rect fill="#FFFFFF" height="146.1641" style="stroke:#181818;stroke-width:1.0;" width="10" x="337" y="134.2031"/><rect fill="#FFFFFF" height="146.1641" style="stroke:#181818;stroke-width:1.0;" width="10" x="337" y="134.2031"/><rect fill="#FFFFFF" height="97.873" style="stroke:#181818;stroke-width:1.0;" width="10" x="342" y="173.4941"/><rect fill="#FFFFFF" height="53.582" style="stroke:#181818;stroke-width:1.0;" width="10" x="347" y="217.7852"/><polygon fill="#181818" points="325,130.2031,335,134.2031,325,138.2031,329,134.2031" style="stroke:#181818;stroke-width:1.0;"/><line style="stroke:#181818;stroke-width:1.0;" x1="41" x2="331" y1="134.2031" y2="134.2031"/><text fill="#000000" font-family="sans-serif" font-size="13" font-weight="bold" lengthAdjust="spacing" textLength="7" x="48" y="120.2949">1</text><text fill="#000000" font-family="sans-serif" font-size="13" lengthAdjust="spacing" textLength="230" x="59" y="111.6494">Requests number of lendings per month</text><text fill="#000000" font-family="sans-serif" font-size="13" lengthAdjust="spacing" textLength="261" x="59" y="128.9404">for the last 12 months, broken down by genre</text><line style="stroke:#181818;stroke-width:1.0;" x1="347" x2="394" y1="160.4941" y2="160.4941"/><line style="stroke:#181818;stroke-width:1.0;" x1="394" x2="394" y1="160.4941" y2="173.4941"/><line style="stroke:#181818;stroke-width:1.0;" x1="353" x2="394" y1="173.4941" y2="173.4941"/><polygon fill="#181818" points="363,169.4941,353,173.4941,363,177.4941,359,173.4941" style="stroke:#181818;stroke-width:1.0;"/><text fill="#000000" font-family="sans-serif" font-size="13" font-weight="bold" lengthAdjust="spacing" textLength="7" x="359" y="155.2314">2</text><text fill="#000000" font-family="sans-serif" font-size="13" lengthAdjust="spacing" textLength="250" x="370" y="155.2314">Retrieve lending data for the last 12 months</text><line style="stroke:#181818;stroke-width:1.0;" x1="352" x2="399" y1="204.7852" y2="204.7852"/><line style="stroke:#181818;stroke-width:1.0;" x1="399" x2="399" y1="204.7852" y2="217.7852"/><line style="stroke:#181818;stroke-width:1.0;" x1="358" x2="399" y1="217.7852" y2="217.7852"/><polygon fill="#181818" points="368,213.7852,358,217.7852,368,221.7852,364,217.7852" style="stroke:#181818;stroke-width:1.0;"/><text fill="#000000" font-family="sans-serif" font-size="13" font-weight="bold" lengthAdjust="spacing" textLength="7" x="364" y="199.5225">3</text><text fill="#000000" font-family="sans-serif" font-size="13" lengthAdjust="spacing" textLength="227" x="375" y="199.5225">Aggregate lendings per month by genre</text><polygon fill="#181818" points="52,267.3672,42,271.3672,52,275.3672,48,271.3672" style="stroke:#181818;stroke-width:1.0;"/><line style="stroke:#181818;stroke-width:1.0;stroke-dasharray:2.0,2.0;" x1="46" x2="336" y1="271.3672" y2="271.3672"/><text fill="#000000" font-family="sans-serif" font-size="13" font-weight="bold" lengthAdjust="spacing" textLength="7" x="58" y="257.459">4</text><text fill="#000000" font-family="sans-serif" font-size="13" lengthAdjust="spacing" textLength="218" x="69" y="248.8135">Display number of lendings per month</text><text fill="#000000" font-family="sans-serif" font-size="13" lengthAdjust="spacing" textLength="127" x="69" y="266.1045">broken down by genre</text><!--SRC=[XP4nJyGm38Nt_0gh2mj71MC792H69bXPtCINHZHEIDn3_VVachjMG2Mcs8cVl_UKcq4avgvjuuWian_lTF1jfi-9MDF1EBG9lL8uIK0jxeH247ZfUV8zfVAc9IHeNboVC3da1Z33sgc8IPnsiUo7fdkRiv1VHcgvwElUJQFM4WwFby4ENi-sicIeP0X768cDOviXbju7bk6TZyMD30GZPe7xXtgTRw5FuOCOJFXYw6Umn8as-CLDFNvI9JawqPK51WLX7x8ZVx8saJqJ_dhTR5nrHRX6x-3PvV8lypzvTtCfGx-YVGC0]--></g></svg>
