<?xml version="1.0" encoding="us-ascii" standalone="no"?><svg xmlns="http://www.w3.org/2000/svg" xmlns:xlink="http://www.w3.org/1999/xlink" contentStyleType="text/css" height="282px" preserveAspectRatio="none" style="width:1308px;height:282px;background:#FFFFFF;" version="1.1" viewBox="0 0 1308 282" width="1308px" zoomAndPan="magnify"><defs/><g><!--class BookGenre--><g id="elem_BookGenre"><rect fill="#F1F1F1" height="36.6211" id="BookGenre" rx="2.5" ry="2.5" style="stroke:#181818;stroke-width:0.5;" width="78" x="237.5" y="123"/><text fill="#000000" font-family="sans-serif" font-size="14" lengthAdjust="spacing" textLength="72" x="240.5" y="143.1074">BookGenre</text><line style="stroke:#181818;stroke-width:0.5;" x1="238.5" x2="314.5" y1="151.6211" y2="151.6211"/></g><!--class Genre--><g id="elem_Genre"><rect fill="#F1F1F1" height="36.6211" id="Genre" rx="2.5" ry="2.5" style="stroke:#181818;stroke-width:0.5;" width="46" x="350.5" y="123"/><text fill="#000000" font-family="sans-serif" font-size="14" lengthAdjust="spacing" textLength="40" x="353.5" y="143.1074">Genre</text><line style="stroke:#181818;stroke-width:0.5;" x1="351.5" x2="395.5" y1="151.6211" y2="151.6211"/></g><!--class Book--><g id="elem_Book"><rect codeLine="25" fill="#F1F1F1" height="36.6211" id="Book" rx="2.5" ry="2.5" style="stroke:#181818;stroke-width:0.5;" width="38" x="164.5" y="123"/><text fill="#000000" font-family="sans-serif" font-size="14" lengthAdjust="spacing" textLength="32" x="167.5" y="143.1074">Book</text><line style="stroke:#181818;stroke-width:0.5;" x1="165.5" x2="201.5" y1="151.6211" y2="151.6211"/></g><!--class BookISBN--><g id="elem_BookISBN"><rect fill="#F1F1F1" height="36.6211" id="BookISBN" rx="2.5" ry="2.5" style="stroke:#181818;stroke-width:0.5;" width="68" x="251.5" y="7"/><text fill="#000000" font-family="sans-serif" font-size="14" lengthAdjust="spacing" textLength="62" x="254.5" y="27.1074">BookISBN</text><line style="stroke:#181818;stroke-width:0.5;" x1="252.5" x2="318.5" y1="35.6211" y2="35.6211"/></g><!--class BookTitle--><g id="elem_BookTitle"><rect fill="#F1F1F1" height="36.6211" id="BookTitle" rx="2.5" ry="2.5" style="stroke:#181818;stroke-width:0.5;" width="65" x="151" y="7"/><text fill="#000000" font-family="sans-serif" font-size="14" lengthAdjust="spacing" textLength="59" x="154" y="27.1074">BookTitle</text><line style="stroke:#181818;stroke-width:0.5;" x1="152" x2="215" y1="35.6211" y2="35.6211"/></g><!--class BookDescription--><g id="elem_BookDescription"><rect fill="#F1F1F1" height="36.6211" id="BookDescription" rx="2.5" ry="2.5" style="stroke:#181818;stroke-width:0.5;" width="109" x="7" y="7"/><text fill="#000000" font-family="sans-serif" font-size="14" lengthAdjust="spacing" textLength="103" x="10" y="27.1074">BookDescription</text><line style="stroke:#181818;stroke-width:0.5;" x1="8" x2="115" y1="35.6211" y2="35.6211"/></g><!--class BookAuthor--><g id="elem_BookAuthor"><rect fill="#F1F1F1" height="36.6211" id="BookAuthor" rx="2.5" ry="2.5" style="stroke:#181818;stroke-width:0.5;" width="80" x="49.5" y="123"/><text fill="#000000" font-family="sans-serif" font-size="14" lengthAdjust="spacing" textLength="74" x="52.5" y="143.1074">BookAuthor</text><line style="stroke:#181818;stroke-width:0.5;" x1="50.5" x2="128.5" y1="151.6211" y2="151.6211"/></g><!--class Reader--><g id="elem_Reader"><rect codeLine="19" fill="#F1F1F1" height="36.6211" id="Reader" rx="2.5" ry="2.5" style="stroke:#181818;stroke-width:0.5;" width="53" x="710" y="7"/><text fill="#000000" font-family="sans-serif" font-size="14" lengthAdjust="spacing" textLength="47" x="713" y="27.1074">Reader</text><line style="stroke:#181818;stroke-width:0.5;" x1="711" x2="762" y1="35.6211" y2="35.6211"/></g><!--class ReaderNumber--><g id="elem_ReaderNumber"><rect fill="#F1F1F1" height="36.6211" id="ReaderNumber" rx="2.5" ry="2.5" style="stroke:#181818;stroke-width:0.5;" width="102" x="431.5" y="123"/><text fill="#000000" font-family="sans-serif" font-size="14" lengthAdjust="spacing" textLength="96" x="434.5" y="143.1074">ReaderNumber</text><line style="stroke:#181818;stroke-width:0.5;" x1="432.5" x2="532.5" y1="151.6211" y2="151.6211"/></g><!--class ReaderName--><g id="elem_ReaderName"><rect fill="#F1F1F1" height="36.6211" id="ReaderName" rx="2.5" ry="2.5" style="stroke:#181818;stroke-width:0.5;" width="89" x="569" y="123"/><text fill="#000000" font-family="sans-serif" font-size="14" lengthAdjust="spacing" textLength="83" x="572" y="143.1074">ReaderName</text><line style="stroke:#181818;stroke-width:0.5;" x1="570" x2="657" y1="151.6211" y2="151.6211"/></g><!--class ReaderEmail--><g id="elem_ReaderEmail"><rect fill="#F1F1F1" height="36.6211" id="ReaderEmail" rx="2.5" ry="2.5" style="stroke:#181818;stroke-width:0.5;" width="87" x="693" y="123"/><text fill="#000000" font-family="sans-serif" font-size="14" lengthAdjust="spacing" textLength="81" x="696" y="143.1074">ReaderEmail</text><line style="stroke:#181818;stroke-width:0.5;" x1="694" x2="779" y1="151.6211" y2="151.6211"/></g><!--class ReaderDateOfBirth--><g id="elem_ReaderDateOfBirth"><rect fill="#F1F1F1" height="36.6211" id="ReaderDateOfBirth" rx="2.5" ry="2.5" style="stroke:#181818;stroke-width:0.5;" width="127" x="815" y="123"/><text fill="#000000" font-family="sans-serif" font-size="14" lengthAdjust="spacing" textLength="121" x="818" y="143.1074">ReaderDateOfBirth</text><line style="stroke:#181818;stroke-width:0.5;" x1="816" x2="941" y1="151.6211" y2="151.6211"/></g><!--class ReaderPhoneNumber--><g id="elem_ReaderPhoneNumber"><rect fill="#F1F1F1" height="36.6211" id="ReaderPhoneNumber" rx="2.5" ry="2.5" style="stroke:#181818;stroke-width:0.5;" width="143" x="977" y="123"/><text fill="#000000" font-family="sans-serif" font-size="14" lengthAdjust="spacing" textLength="137" x="980" y="143.1074">ReaderPhoneNumber</text><line style="stroke:#181818;stroke-width:0.5;" x1="978" x2="1119" y1="151.6211" y2="151.6211"/></g><!--class ReaderGDBRConsent--><g id="elem_ReaderGDBRConsent"><rect fill="#F1F1F1" height="36.6211" id="ReaderGDBRConsent" rx="2.5" ry="2.5" style="stroke:#181818;stroke-width:0.5;" width="146" x="1155.5" y="123"/><text fill="#000000" font-family="sans-serif" font-size="14" lengthAdjust="spacing" textLength="140" x="1158.5" y="143.1074">ReaderGDBRConsent</text><line style="stroke:#181818;stroke-width:0.5;" x1="1156.5" x2="1300.5" y1="151.6211" y2="151.6211"/></g><!--class Librarian--><g id="elem_Librarian"><rect codeLine="21" fill="#F1F1F1" height="36.6211" id="Librarian" rx="2.5" ry="2.5" style="stroke:#181818;stroke-width:0.5;" width="62" x="152.5" y="239"/><text fill="#000000" font-family="sans-serif" font-size="14" lengthAdjust="spacing" textLength="56" x="155.5" y="259.1074">Librarian</text><line style="stroke:#181818;stroke-width:0.5;" x1="153.5" x2="213.5" y1="267.6211" y2="267.6211"/></g><!--link BookGenre to Genre--><g id="link_BookGenre_Genre"><path codeLine="5" d="M315.53,141.5 C327.15,141.5 338.78,141.5 350.4,141.5 " fill="none" id="BookGenre-Genre" style="stroke:#181818;stroke-width:1.0;"/><text fill="#000000" font-family="sans-serif" font-size="13" lengthAdjust="spacing" textLength="20" x="322.4676" y="136.8934">1..*</text><text fill="#000000" font-family="sans-serif" font-size="13" lengthAdjust="spacing" textLength="7" x="335.5862" y="136.1298">1</text></g><!--link BookISBN to Book--><g id="link_BookISBN_Book"><path codeLine="6" d="M269.56,44.31 C250.4,65.73 226.4412,92.5068 207.3312,113.8668 " fill="none" id="BookISBN-to-Book" style="stroke:#181818;stroke-width:1.0;"/><polygon fill="#181818" points="199.33,122.81,206.3117,121.0054,207.3312,113.8668,200.3495,115.6713,199.33,122.81" style="stroke:#181818;stroke-width:1.0;"/></g><!--link BookTitle to Book--><g id="link_BookTitle_Book"><path codeLine="7" d="M183.5,44.31 C183.5,65.73 183.5,89.45 183.5,110.81 " fill="none" id="BookTitle-to-Book" style="stroke:#181818;stroke-width:1.0;"/><polygon fill="#181818" points="183.5,122.81,187.5,116.81,183.5,110.81,179.5,116.81,183.5,122.81" style="stroke:#181818;stroke-width:1.0;"/></g><!--link BookDescription to Book--><g id="link_BookDescription_Book"><path codeLine="8" d="M80.3,44.06 C103.15,65.42 132.7513,93.088 155.7113,114.538 " fill="none" id="BookDescription-to-Book" style="stroke:#181818;stroke-width:1.0;"/><polygon fill="#181818" points="164.48,122.73,162.8263,115.7111,155.7113,114.538,157.365,121.5569,164.48,122.73" style="stroke:#181818;stroke-width:1.0;"/></g><!--link BookAuthor to Book--><g id="link_BookAuthor_Book"><path codeLine="9" d="M129.52,141.5 C141.05,141.5 152.58,141.5 164.1,141.5 " fill="none" id="BookAuthor-Book" style="stroke:#181818;stroke-width:1.0;"/><text fill="#000000" font-family="sans-serif" font-size="13" lengthAdjust="spacing" textLength="20" x="137.4919" y="137.227">1..*</text><text fill="#000000" font-family="sans-serif" font-size="13" lengthAdjust="spacing" textLength="7" x="149.5144" y="135.8237">1</text></g><!--link Book to BookGenre--><g id="link_Book_BookGenre"><path codeLine="10" d="M202.75,141.5 C214.28,141.5 225.8,141.5 237.32,141.5 " fill="none" id="Book-BookGenre" style="stroke:#181818;stroke-width:1.0;"/><text fill="#000000" font-family="sans-serif" font-size="13" lengthAdjust="spacing" textLength="7" x="210.5703" y="135.7216">1</text><text fill="#000000" font-family="sans-serif" font-size="13" lengthAdjust="spacing" textLength="20" x="210.5502" y="136.946">1..*</text></g><!--reverse link Reader to ReaderNumber--><g id="link_Reader_ReaderNumber"><path codeLine="12" d="M698.8522,43.3938 C653.8922,63.5738 573.83,99.51 521.64,122.93 " fill="none" id="Reader-backto-ReaderNumber" style="stroke:#181818;stroke-width:1.0;"/><polygon fill="#181818" points="709.8,38.48,702.6882,37.2877,698.8522,43.3938,705.9641,44.5862,709.8,38.48" style="stroke:#181818;stroke-width:1.0;"/></g><!--reverse link Reader to ReaderName--><g id="link_Reader_ReaderName"><path codeLine="13" d="M708.7482,52.2165 C685.6982,73.5765 655.82,101.28 632.67,122.73 " fill="none" id="Reader-backto-ReaderName" style="stroke:#181818;stroke-width:1.0;"/><polygon fill="#181818" points="717.55,44.06,710.4303,45.2043,708.7482,52.2165,715.8679,51.0722,717.55,44.06" style="stroke:#181818;stroke-width:1.0;"/></g><!--reverse link Reader to ReaderEmail--><g id="link_Reader_ReaderEmail"><path codeLine="14" d="M736.5,56.31 C736.5,77.73 736.5,101.45 736.5,122.81 " fill="none" id="Reader-backto-ReaderEmail" style="stroke:#181818;stroke-width:1.0;"/><polygon fill="#181818" points="736.5,44.31,732.5,50.31,736.5,56.31,740.5,50.31,736.5,44.31" style="stroke:#181818;stroke-width:1.0;"/></g><!--reverse link Reader to ReaderDateOfBirth--><g id="link_Reader_ReaderDateOfBirth"><path codeLine="15" d="M767.7367,51.5735 C794.3367,72.9335 829.64,101.28 856.36,122.73 " fill="none" id="Reader-backto-ReaderDateOfBirth" style="stroke:#181818;stroke-width:1.0;"/><polygon fill="#181818" points="758.38,44.06,760.5538,50.9356,767.7367,51.5735,765.5628,44.6978,758.38,44.06" style="stroke:#181818;stroke-width:1.0;"/></g><!--reverse link Reader to ReaderPhoneNumber--><g id="link_Reader_ReaderPhoneNumber"><path codeLine="16" d="M774.3714,40.3378 C826.9814,59.5578 933.71,98.56 1000.33,122.9 " fill="none" id="Reader-backto-ReaderPhoneNumber" style="stroke:#181818;stroke-width:1.0;"/><polygon fill="#181818" points="763.1,36.22,767.3631,42.036,774.3714,40.3378,770.1083,34.5218,763.1,36.22" style="stroke:#181818;stroke-width:1.0;"/></g><!--reverse link Reader to ReaderGDBRConsent--><g id="link_Reader_ReaderGDBRConsent"><path codeLine="17" d="M774.9903,35.4185 C848.5803,52.4685 1044,97.75 1155.41,123.56 " fill="none" id="Reader-backto-ReaderGDBRConsent" style="stroke:#181818;stroke-width:1.0;"/><polygon fill="#181818" points="763.3,32.71,768.2423,37.961,774.9903,35.4185,770.048,30.1675,763.3,32.71" style="stroke:#181818;stroke-width:1.0;"/></g><!--link Book to Librarian--><g id="link_Book_Librarian"><path codeLine="27" d="M183.5,160.31 C183.5,181.73 183.5,217.45 183.5,238.81 " fill="none" id="Book-Librarian" style="stroke:#181818;stroke-width:1.0;"/><polygon fill="#000000" points="188.5,194.6455,185.5611,203.6906,191.4389,203.6906,188.5,194.6455" style="stroke:#000000;stroke-width:1.0;"/><text fill="#000000" font-family="sans-serif" font-size="13" lengthAdjust="spacing" textLength="31" x="197.5" y="205.0283">lends</text><text fill="#000000" font-family="sans-serif" font-size="13" lengthAdjust="spacing" textLength="7" x="175.5594" y="181.7679">1</text><text fill="#000000" font-family="sans-serif" font-size="13" lengthAdjust="spacing" textLength="7" x="175.4281" y="227.614">1</text></g><!--link Reader to Book--><g id="link_Reader_Book"><path codeLine="28" d="M709.78,28.94 C632.29,36.55 401.38,63.03 219.5,123 C213.82,124.87 207.9,127.46 202.53,130.07 " fill="none" id="Reader-Book" style="stroke:#181818;stroke-width:1.0;"/><polygon fill="#000000" points="411.4035,82.6679,401.9584,81.5542,403.1076,87.3186,411.4035,82.6679" style="stroke:#000000;stroke-width:1.0;"/><text fill="#000000" font-family="sans-serif" font-size="13" lengthAdjust="spacing" textLength="11" x="415.5" y="89.0283">to</text><text fill="#000000" font-family="sans-serif" font-size="13" lengthAdjust="spacing" textLength="7" x="695.0361" y="24.7575">1</text><text fill="#000000" font-family="sans-serif" font-size="13" lengthAdjust="spacing" textLength="7" x="210.5563" y="120.1176">1</text></g><!--SRC=[TP31QiCm38RlVWhHOy5blPPTccMKmkX6knTm4dKHTUmWAmmM-kvBd2mB2xjPt_zRlwHm8rSRDXNareIm5s7A6i5Zxjs5lX0UL4a5GawSMnpU5KhfYw1KultjW8uHLjlDPhq2pVHHYkxA5KGXMc2jcrf3_pnUajDVzavY5yOKGyvK2tatI7rBRV4QkyUm7k-RRXIUEQO19iimXpgZAP2xXC9_EWr3UMgg3FbNcxYfS4cVAqDsYLCZ-7fDYALSYc-bT_XVp25Dpa_U1NIYLBp_ABJgFjOlbB5XCgvL7HjXNBUzgzdUmyqdzmuikY80FFwapbpzhns8xzLl]--></g></svg>
