<?xml version="1.0" encoding="us-ascii" standalone="no"?><svg xmlns="http://www.w3.org/2000/svg" xmlns:xlink="http://www.w3.org/1999/xlink" contentStyleType="text/css" height="658px" preserveAspectRatio="none" style="width:1605px;height:658px;background:#FFFFFF;" version="1.1" viewBox="0 0 1605 658" width="1605px" zoomAndPan="magnify"><defs/><g><rect fill="#FFFFFF" height="553.9473" style="stroke:#181818;stroke-width:1.0;" width="10" x="68.5" y="48.6211"/><rect fill="#FFFFFF" height="539.6563" style="stroke:#181818;stroke-width:1.0;" width="10" x="266.5" y="71.9121"/><rect fill="#FFFFFF" height="539.6563" style="stroke:#181818;stroke-width:1.0;" width="10" x="266.5" y="71.9121"/><rect fill="#FFFFFF" height="36.291" style="stroke:#181818;stroke-width:1.0;" width="10" x="271.5" y="566.2773"/><rect fill="#FFFFFF" height="508.3652" style="stroke:#181818;stroke-width:1.0;" width="10" x="482.5" y="103.2031"/><rect fill="#FFFFFF" height="423.7832" style="stroke:#181818;stroke-width:1.0;" width="10" x="482.5" y="103.2031"/><rect fill="#FFFFFF" height="290.6191" style="stroke:#181818;stroke-width:1.0;" width="10" x="487.5" y="236.3672"/><rect fill="#FFFFFF" height="477.0742" style="stroke:#181818;stroke-width:1.0;" width="10" x="738.5" y="134.4941"/><rect fill="#FFFFFF" height="62.582" style="stroke:#181818;stroke-width:1.0;" width="10" x="738.5" y="134.4941"/><rect fill="#FFFFFF" height="31.291" style="stroke:#181818;stroke-width:1.0;" width="10" x="919.5" y="464.4043"/><rect fill="#FFFFFF" height="31.291" style="stroke:#181818;stroke-width:1.0;" width="10" x="919.5" y="464.4043"/><rect fill="#FFFFFF" height="31.291" style="stroke:#181818;stroke-width:1.0;" width="10" x="1111.5" y="165.7852"/><rect fill="#FFFFFF" height="31.291" style="stroke:#181818;stroke-width:1.0;" width="10" x="1111.5" y="165.7852"/><rect fill="#FFFFFF" height="31.291" style="stroke:#181818;stroke-width:1.0;" width="10" x="1274" y="356.5313"/><rect fill="#FFFFFF" height="93.873" style="stroke:#181818;stroke-width:1.0;" width="10" x="1429" y="325.2402"/><rect fill="#FFFFFF" height="93.873" style="stroke:#181818;stroke-width:1.0;" width="10" x="1429" y="325.2402"/><rect fill="none" height="177.7461" style="stroke:#000000;stroke-width:1.5;" width="1089.5" x="401.5" y="256.3672"/><rect fill="none" height="144.4551" style="stroke:#000000;stroke-width:1.5;" width="1069.5" x="411.5" y="282.6582"/><line style="stroke:#181818;stroke-width:0.5;stroke-dasharray:5.0,5.0;" x1="73" x2="73" y1="38.6211" y2="620.5684"/><line style="stroke:#181818;stroke-width:0.5;stroke-dasharray:5.0,5.0;" x1="266" x2="266" y1="38.6211" y2="620.5684"/><line style="stroke:#181818;stroke-width:0.5;stroke-dasharray:5.0,5.0;" x1="482.5" x2="482.5" y1="38.6211" y2="620.5684"/><line style="stroke:#181818;stroke-width:0.5;stroke-dasharray:5.0,5.0;" x1="738" x2="738" y1="38.6211" y2="620.5684"/><line style="stroke:#181818;stroke-width:0.5;stroke-dasharray:5.0,5.0;" x1="919" x2="919" y1="38.6211" y2="620.5684"/><line style="stroke:#181818;stroke-width:0.5;stroke-dasharray:5.0,5.0;" x1="1111" x2="1111" y1="38.6211" y2="620.5684"/><line style="stroke:#181818;stroke-width:0.5;stroke-dasharray:5.0,5.0;" x1="1279" x2="1279" y1="38.6211" y2="620.5684"/><line style="stroke:#181818;stroke-width:0.5;stroke-dasharray:5.0,5.0;" x1="1429" x2="1429" y1="38.6211" y2="620.5684"/><line style="stroke:#181818;stroke-width:0.5;stroke-dasharray:5.0,5.0;" x1="1540" x2="1540" y1="38.6211" y2="620.5684"/><rect fill="#E2E2F0" height="32.6211" rx="2.5" ry="2.5" style="stroke:#181818;stroke-width:0.5;" width="137" x="5" y="5"/><text fill="#000000" font-family="sans-serif" font-size="14" lengthAdjust="spacing" textLength="123" x="12" y="27.1074">Reader:HTTPClient</text><rect fill="#E2E2F0" height="32.6211" rx="2.5" ry="2.5" style="stroke:#181818;stroke-width:0.5;" width="137" x="5" y="619.5684"/><text fill="#000000" font-family="sans-serif" font-size="14" lengthAdjust="spacing" textLength="123" x="12" y="641.6758">Reader:HTTPClient</text><rect fill="#E2E2F0" height="32.6211" rx="2.5" ry="2.5" style="stroke:#181818;stroke-width:0.5;" width="153" x="190" y="5"/><text fill="#000000" font-family="sans-serif" font-size="14" lengthAdjust="spacing" textLength="139" x="197" y="27.1074">handler:RouteHandler</text><rect fill="#E2E2F0" height="32.6211" rx="2.5" ry="2.5" style="stroke:#181818;stroke-width:0.5;" width="153" x="190" y="619.5684"/><text fill="#000000" font-family="sans-serif" font-size="14" lengthAdjust="spacing" textLength="139" x="197" y="641.6758">handler:RouteHandler</text><rect fill="#E2E2F0" height="32.6211" rx="2.5" ry="2.5" style="stroke:#181818;stroke-width:0.5;" width="122" x="421.5" y="5"/><text fill="#000000" font-family="sans-serif" font-size="14" lengthAdjust="spacing" textLength="108" x="428.5" y="27.1074">:AuthorController</text><rect fill="#E2E2F0" height="32.6211" rx="2.5" ry="2.5" style="stroke:#181818;stroke-width:0.5;" width="122" x="421.5" y="619.5684"/><text fill="#000000" font-family="sans-serif" font-size="14" lengthAdjust="spacing" textLength="108" x="428.5" y="641.6758">:AuthorController</text><rect fill="#E2E2F0" height="32.6211" rx="2.5" ry="2.5" style="stroke:#181818;stroke-width:0.5;" width="167" x="655" y="5"/><text fill="#000000" font-family="sans-serif" font-size="14" lengthAdjust="spacing" textLength="153" x="662" y="27.1074">service:BookServiceImpl</text><rect fill="#E2E2F0" height="32.6211" rx="2.5" ry="2.5" style="stroke:#181818;stroke-width:0.5;" width="167" x="655" y="619.5684"/><text fill="#000000" font-family="sans-serif" font-size="14" lengthAdjust="spacing" textLength="153" x="662" y="641.6758">service:BookServiceImpl</text><rect fill="#E2E2F0" height="32.6211" rx="2.5" ry="2.5" style="stroke:#181818;stroke-width:0.5;" width="175" x="832" y="5"/><text fill="#000000" font-family="sans-serif" font-size="14" lengthAdjust="spacing" textLength="161" x="839" y="27.1074">mapper:BookViewMapper</text><rect fill="#E2E2F0" height="32.6211" rx="2.5" ry="2.5" style="stroke:#181818;stroke-width:0.5;" width="175" x="832" y="619.5684"/><text fill="#000000" font-family="sans-serif" font-size="14" lengthAdjust="spacing" textLength="161" x="839" y="641.6758">mapper:BookViewMapper</text><rect fill="#E2E2F0" height="32.6211" rx="2.5" ry="2.5" style="stroke:#181818;stroke-width:0.5;" width="189" x="1017" y="5"/><text fill="#000000" font-family="sans-serif" font-size="14" lengthAdjust="spacing" textLength="175" x="1024" y="27.1074">repo:BookAuthorRepository</text><rect fill="#E2E2F0" height="32.6211" rx="2.5" ry="2.5" style="stroke:#181818;stroke-width:0.5;" width="189" x="1017" y="619.5684"/><text fill="#000000" font-family="sans-serif" font-size="14" lengthAdjust="spacing" textLength="175" x="1024" y="641.6758">repo:BookAuthorRepository</text><rect fill="#E2E2F0" height="32.6211" rx="2.5" ry="2.5" style="stroke:#181818;stroke-width:0.5;" width="126" x="1216" y="5"/><text fill="#000000" font-family="sans-serif" font-size="14" lengthAdjust="spacing" textLength="112" x="1223" y="27.1074">entity:BookAuthor</text><rect fill="#E2E2F0" height="32.6211" rx="2.5" ry="2.5" style="stroke:#181818;stroke-width:0.5;" width="126" x="1216" y="619.5684"/><text fill="#000000" font-family="sans-serif" font-size="14" lengthAdjust="spacing" textLength="112" x="1223" y="641.6758">entity:BookAuthor</text><rect fill="#E2E2F0" height="32.6211" rx="2.5" ry="2.5" style="stroke:#181818;stroke-width:0.5;" width="84" x="1387" y="5"/><text fill="#000000" font-family="sans-serif" font-size="14" lengthAdjust="spacing" textLength="70" x="1394" y="27.1074">entity:Book</text><rect fill="#E2E2F0" height="32.6211" rx="2.5" ry="2.5" style="stroke:#181818;stroke-width:0.5;" width="84" x="1387" y="619.5684"/><text fill="#000000" font-family="sans-serif" font-size="14" lengthAdjust="spacing" textLength="70" x="1394" y="641.6758">entity:Book</text><rect fill="#E2E2F0" height="32.6211" rx="2.5" ry="2.5" style="stroke:#181818;stroke-width:0.5;" width="118" x="1481" y="5"/><text fill="#000000" font-family="sans-serif" font-size="14" lengthAdjust="spacing" textLength="104" x="1488" y="27.1074">result:HttpResult</text><rect fill="#E2E2F0" height="32.6211" rx="2.5" ry="2.5" style="stroke:#181818;stroke-width:0.5;" width="118" x="1481" y="619.5684"/><text fill="#000000" font-family="sans-serif" font-size="14" lengthAdjust="spacing" textLength="104" x="1488" y="641.6758">result:HttpResult</text><rect fill="#FFFFFF" height="553.9473" style="stroke:#181818;stroke-width:1.0;" width="10" x="68.5" y="48.6211"/><rect fill="#FFFFFF" height="539.6563" style="stroke:#181818;stroke-width:1.0;" width="10" x="266.5" y="71.9121"/><rect fill="#FFFFFF" height="539.6563" style="stroke:#181818;stroke-width:1.0;" width="10" x="266.5" y="71.9121"/><rect fill="#FFFFFF" height="36.291" style="stroke:#181818;stroke-width:1.0;" width="10" x="271.5" y="566.2773"/><rect fill="#FFFFFF" height="508.3652" style="stroke:#181818;stroke-width:1.0;" width="10" x="482.5" y="103.2031"/><rect fill="#FFFFFF" height="423.7832" style="stroke:#181818;stroke-width:1.0;" width="10" x="482.5" y="103.2031"/><rect fill="#FFFFFF" height="290.6191" style="stroke:#181818;stroke-width:1.0;" width="10" x="487.5" y="236.3672"/><rect fill="#FFFFFF" height="477.0742" style="stroke:#181818;stroke-width:1.0;" width="10" x="738.5" y="134.4941"/><rect fill="#FFFFFF" height="62.582" style="stroke:#181818;stroke-width:1.0;" width="10" x="738.5" y="134.4941"/><rect fill="#FFFFFF" height="31.291" style="stroke:#181818;stroke-width:1.0;" width="10" x="919.5" y="464.4043"/><rect fill="#FFFFFF" height="31.291" style="stroke:#181818;stroke-width:1.0;" width="10" x="919.5" y="464.4043"/><rect fill="#FFFFFF" height="31.291" style="stroke:#181818;stroke-width:1.0;" width="10" x="1111.5" y="165.7852"/><rect fill="#FFFFFF" height="31.291" style="stroke:#181818;stroke-width:1.0;" width="10" x="1111.5" y="165.7852"/><rect fill="#FFFFFF" height="31.291" style="stroke:#181818;stroke-width:1.0;" width="10" x="1274" y="356.5313"/><rect fill="#FFFFFF" height="93.873" style="stroke:#181818;stroke-width:1.0;" width="10" x="1429" y="325.2402"/><rect fill="#FFFFFF" height="93.873" style="stroke:#181818;stroke-width:1.0;" width="10" x="1429" y="325.2402"/><polygon fill="#181818" points="254.5,67.9121,264.5,71.9121,254.5,75.9121,258.5,71.9121" style="stroke:#181818;stroke-width:1.0;"/><line style="stroke:#181818;stroke-width:1.0;" x1="78.5" x2="260.5" y1="71.9121" y2="71.9121"/><text fill="#000000" font-family="sans-serif" font-size="13" font-weight="bold" lengthAdjust="spacing" textLength="7" x="85.5" y="66.6494">1</text><text fill="#000000" font-family="sans-serif" font-size="13" lengthAdjust="spacing" textLength="153" x="96.5" y="66.6494">GET /{authorId}/co-authors</text><polygon fill="#181818" points="470.5,99.2031,480.5,103.2031,470.5,107.2031,474.5,103.2031" style="stroke:#181818;stroke-width:1.0;"/><line style="stroke:#181818;stroke-width:1.0;" x1="276.5" x2="476.5" y1="103.2031" y2="103.2031"/><text fill="#000000" font-family="sans-serif" font-size="13" font-weight="bold" lengthAdjust="spacing" textLength="7" x="283.5" y="97.9404">2</text><text fill="#000000" font-family="sans-serif" font-size="13" lengthAdjust="spacing" textLength="171" x="294.5" y="97.9404">getAuthorCoAuthors(authorId)</text><polygon fill="#181818" points="726.5,130.4941,736.5,134.4941,726.5,138.4941,730.5,134.4941" style="stroke:#181818;stroke-width:1.0;"/><line style="stroke:#181818;stroke-width:1.0;" x1="492.5" x2="732.5" y1="134.4941" y2="134.4941"/><text fill="#000000" font-family="sans-serif" font-size="13" font-weight="bold" lengthAdjust="spacing" textLength="7" x="499.5" y="129.2314">3</text><text fill="#000000" font-family="sans-serif" font-size="13" lengthAdjust="spacing" textLength="211" x="510.5" y="129.2314">getBookAuthorsByAuthorId(authorId)</text><polygon fill="#181818" points="1099.5,161.7852,1109.5,165.7852,1099.5,169.7852,1103.5,165.7852" style="stroke:#181818;stroke-width:1.0;"/><line style="stroke:#181818;stroke-width:1.0;" x1="748.5" x2="1105.5" y1="165.7852" y2="165.7852"/><text fill="#000000" font-family="sans-serif" font-size="13" font-weight="bold" lengthAdjust="spacing" textLength="7" x="755.5" y="160.5225">4</text><text fill="#000000" font-family="sans-serif" font-size="13" lengthAdjust="spacing" textLength="147" x="766.5" y="160.5225">getAuthorBooks(authorId)</text><polygon fill="#181818" points="754.5,193.0762,744.5,197.0762,754.5,201.0762,750.5,197.0762" style="stroke:#181818;stroke-width:1.0;"/><line style="stroke:#181818;stroke-width:1.0;stroke-dasharray:2.0,2.0;" x1="748.5" x2="1110.5" y1="197.0762" y2="197.0762"/><text fill="#000000" font-family="sans-serif" font-size="13" font-weight="bold" lengthAdjust="spacing" textLength="7" x="760.5" y="191.8135">5</text><text fill="#000000" font-family="sans-serif" font-size="13" lengthAdjust="spacing" textLength="105" x="771.5" y="191.8135">List&lt;BookAuthor&gt;</text><line style="stroke:#181818;stroke-width:1.0;" x1="492.5" x2="539.5" y1="223.3672" y2="223.3672"/><line style="stroke:#181818;stroke-width:1.0;" x1="539.5" x2="539.5" y1="223.3672" y2="236.3672"/><line style="stroke:#181818;stroke-width:1.0;" x1="498.5" x2="539.5" y1="236.3672" y2="236.3672"/><polygon fill="#181818" points="508.5,232.3672,498.5,236.3672,508.5,240.3672,504.5,236.3672" style="stroke:#181818;stroke-width:1.0;"/><text fill="#000000" font-family="sans-serif" font-size="13" font-weight="bold" lengthAdjust="spacing" textLength="7" x="504.5" y="218.1045">6</text><text fill="#000000" font-family="sans-serif" font-size="13" lengthAdjust="spacing" textLength="140" x="515.5" y="218.1045">Iterate over bookAuthors</text><path d="M401.5,256.3672 L474.5,256.3672 L474.5,265.6582 L464.5,275.6582 L401.5,275.6582 L401.5,256.3672 " fill="#EEEEEE" style="stroke:#000000;stroke-width:1.5;"/><rect fill="none" height="177.7461" style="stroke:#000000;stroke-width:1.5;" width="1089.5" x="401.5" y="256.3672"/><text fill="#000000" font-family="sans-serif" font-size="13" font-weight="bold" lengthAdjust="spacing" textLength="28" x="416.5" y="271.3955">loop</text><text fill="#000000" font-family="sans-serif" font-size="11" font-weight="bold" lengthAdjust="spacing" textLength="122" x="489.5" y="270.2373">[for each BookAuthor]</text><path d="M411.5,282.6582 L472.5,282.6582 L472.5,291.9492 L462.5,301.9492 L411.5,301.9492 L411.5,282.6582 " fill="#EEEEEE" style="stroke:#000000;stroke-width:1.5;"/><rect fill="none" height="144.4551" style="stroke:#000000;stroke-width:1.5;" width="1069.5" x="411.5" y="282.6582"/><text fill="#000000" font-family="sans-serif" font-size="13" font-weight="bold" lengthAdjust="spacing" textLength="16" x="426.5" y="297.6865">alt</text><text fill="#000000" font-family="sans-serif" font-size="11" font-weight="bold" lengthAdjust="spacing" textLength="163" x="487.5" y="296.5283">[if Book has multiple authors]</text><polygon fill="#181818" points="1417,321.2402,1427,325.2402,1417,329.2402,1421,325.2402" style="stroke:#181818;stroke-width:1.0;"/><line style="stroke:#181818;stroke-width:1.0;" x1="1279" x2="1423" y1="325.2402" y2="325.2402"/><text fill="#000000" font-family="sans-serif" font-size="13" font-weight="bold" lengthAdjust="spacing" textLength="7" x="1286" y="319.9775">7</text><text fill="#000000" font-family="sans-serif" font-size="13" lengthAdjust="spacing" textLength="56" x="1297" y="319.9775">getBook()</text><polygon fill="#181818" points="1295,352.5313,1285,356.5313,1295,360.5313,1291,356.5313" style="stroke:#181818;stroke-width:1.0;"/><line style="stroke:#181818;stroke-width:1.0;" x1="1289" x2="1428" y1="356.5313" y2="356.5313"/><text fill="#000000" font-family="sans-serif" font-size="13" font-weight="bold" lengthAdjust="spacing" textLength="7" x="1301" y="351.2686">8</text><text fill="#000000" font-family="sans-serif" font-size="13" lengthAdjust="spacing" textLength="101" x="1312" y="351.2686">getBookAuthors()</text><polygon fill="#181818" points="1417,383.8223,1427,387.8223,1417,391.8223,1421,387.8223" style="stroke:#181818;stroke-width:1.0;"/><line style="stroke:#181818;stroke-width:1.0;stroke-dasharray:2.0,2.0;" x1="1279" x2="1423" y1="387.8223" y2="387.8223"/><text fill="#000000" font-family="sans-serif" font-size="13" font-weight="bold" lengthAdjust="spacing" textLength="7" x="1286" y="382.5596">9</text><text fill="#000000" font-family="sans-serif" font-size="13" lengthAdjust="spacing" textLength="105" x="1297" y="382.5596">List&lt;BookAuthor&gt;</text><polygon fill="#181818" points="508.5,415.1133,498.5,419.1133,508.5,423.1133,504.5,419.1133" style="stroke:#181818;stroke-width:1.0;"/><line style="stroke:#181818;stroke-width:1.0;stroke-dasharray:2.0,2.0;" x1="502.5" x2="1428" y1="419.1133" y2="419.1133"/><text fill="#000000" font-family="sans-serif" font-size="13" font-weight="bold" lengthAdjust="spacing" textLength="14" x="514.5" y="413.8506">10</text><text fill="#000000" font-family="sans-serif" font-size="13" lengthAdjust="spacing" textLength="28" x="532.5" y="413.8506">book</text><polygon fill="#181818" points="907.5,460.4043,917.5,464.4043,907.5,468.4043,911.5,464.4043" style="stroke:#181818;stroke-width:1.0;"/><line style="stroke:#181818;stroke-width:1.0;" x1="497.5" x2="913.5" y1="464.4043" y2="464.4043"/><text fill="#000000" font-family="sans-serif" font-size="13" font-weight="bold" lengthAdjust="spacing" textLength="14" x="504.5" y="459.1416">11</text><text fill="#000000" font-family="sans-serif" font-size="13" lengthAdjust="spacing" textLength="133" x="522.5" y="459.1416">toBookView(booksList)</text><polygon fill="#181818" points="508.5,491.6953,498.5,495.6953,508.5,499.6953,504.5,495.6953" style="stroke:#181818;stroke-width:1.0;"/><line style="stroke:#181818;stroke-width:1.0;stroke-dasharray:2.0,2.0;" x1="502.5" x2="918.5" y1="495.6953" y2="495.6953"/><text fill="#000000" font-family="sans-serif" font-size="13" font-weight="bold" lengthAdjust="spacing" textLength="14" x="514.5" y="490.4326">12</text><text fill="#000000" font-family="sans-serif" font-size="13" lengthAdjust="spacing" textLength="116" x="532.5" y="490.4326">Iterable&lt;BookView&gt;</text><polygon fill="#181818" points="1528,522.9863,1538,526.9863,1528,530.9863,1532,526.9863" style="stroke:#181818;stroke-width:1.0;"/><line style="stroke:#181818;stroke-width:1.0;stroke-dasharray:2.0,2.0;" x1="487.5" x2="1534" y1="526.9863" y2="526.9863"/><text fill="#000000" font-family="sans-serif" font-size="13" font-weight="bold" lengthAdjust="spacing" textLength="14" x="494.5" y="521.7236">13</text><text fill="#000000" font-family="sans-serif" font-size="13" lengthAdjust="spacing" textLength="189" x="512.5" y="521.7236">create(200, Iterable&lt;BookView&gt;)</text><line style="stroke:#181818;stroke-width:1.0;" x1="276.5" x2="323.5" y1="553.2773" y2="553.2773"/><line style="stroke:#181818;stroke-width:1.0;" x1="323.5" x2="323.5" y1="553.2773" y2="566.2773"/><line style="stroke:#181818;stroke-width:1.0;" x1="282.5" x2="323.5" y1="566.2773" y2="566.2773"/><polygon fill="#181818" points="292.5,562.2773,282.5,566.2773,292.5,570.2773,288.5,566.2773" style="stroke:#181818;stroke-width:1.0;"/><text fill="#000000" font-family="sans-serif" font-size="13" font-weight="bold" lengthAdjust="spacing" textLength="14" x="288.5" y="548.0146">14</text><text fill="#000000" font-family="sans-serif" font-size="13" lengthAdjust="spacing" textLength="152" x="306.5" y="548.0146">setHttpResult(resp, result)</text><polygon fill="#181818" points="84.5,598.5684,74.5,602.5684,84.5,606.5684,80.5,602.5684" style="stroke:#181818;stroke-width:1.0;"/><line style="stroke:#181818;stroke-width:1.0;stroke-dasharray:2.0,2.0;" x1="78.5" x2="265.5" y1="602.5684" y2="602.5684"/><text fill="#000000" font-family="sans-serif" font-size="13" font-weight="bold" lengthAdjust="spacing" textLength="14" x="90.5" y="597.3057">15</text><text fill="#000000" font-family="sans-serif" font-size="13" lengthAdjust="spacing" textLength="25" x="108.5" y="597.3057">resp</text><!--SRC=[TLDTQzim57tthxZqfGuqjEpHb48RnXBOOAHXxufzsuZ9bf2kCyBOVvy-B4jocq1YNUcSevjxV6xPI78O-oFgswfo1Mk9dnaXoA5AXrMbc2RUSiK6WfiziWvripqSVcu4nu5kW1b8POa-iQ4J5hwN8-4s59xmUZ64VGbkdaSwIRsH0saf8d93MfGuW_hCMsnUfFpz6jQxNWcFplPAKi-KiesuyryS__pmvKn9MoLBevAU4rhRsz9maleoCzD1oRIZu7J9k0l6LVICMtPYHa7DbaZj_TBZmjBQ5wtBZAZI6jPFqyGR-FRr0FT_cMzYr_sxR-Kw52QfJEw4XoCx4nfuHueMXQUfeyugaRrXxiSHCpyyFmt0l5oU9_9dAhcHsJfgfh5dRRa3SqqiCweiORtiypitz9X0JrM7rwGM9x7Z-V-7mUq8jG_M6JKSqmWg8QM2Dwd1ofpojmFiXma2_kPtuMJDxgtLN0c4w1TCdyIBuvbdNQzcLD5emIs7klGfayWlcc_wCArIUXx2CRzsCJU_ZqDNkM_nygHaDa0oxjHEpBYR5ovdGIxBh17lnb7WOqHyC3XJcPgnv92r1bgD5bT_UNYu-qHgbMlvAAGKnGWQf9JZsYPRtK78zsf6MtZAR-EELQwSvVm_]--></g></svg>