<?xml version="1.0" encoding="us-ascii" standalone="no"?><svg xmlns="http://www.w3.org/2000/svg" xmlns:xlink="http://www.w3.org/1999/xlink" contentStyleType="text/css" height="346px" preserveAspectRatio="none" style="width:544px;height:346px;background:#FFFFFF;" version="1.1" viewBox="0 0 544 346" width="544px" zoomAndPan="magnify"><defs/><g><!--class User--><g id="elem_User"><rect codeLine="8" fill="#F1F1F1" height="148.3477" id="User" rx="2.5" ry="2.5" style="stroke:#181818;stroke-width:0.5;" width="95" x="7" y="62"/><text fill="#000000" font-family="sans-serif" font-size="14" lengthAdjust="spacing" textLength="29" x="40" y="82.1074">User</text><line style="stroke:#181818;stroke-width:0.5;" x1="8" x2="101" y1="90.6211" y2="90.6211"/><rect fill="none" height="6" style="stroke:#C82930;stroke-width:1.0;" width="6" x="15" y="102.4316"/><text fill="#000000" font-family="sans-serif" font-size="14" lengthAdjust="spacing" textLength="11" x="27" y="109.7285">id</text><rect fill="none" height="6" style="stroke:#C82930;stroke-width:1.0;" width="6" x="15" y="121.0527"/><text fill="#000000" font-family="sans-serif" font-size="14" lengthAdjust="spacing" textLength="69" x="27" y="128.3496">modifiedBy</text><rect fill="none" height="6" style="stroke:#C82930;stroke-width:1.0;" width="6" x="15" y="139.6738"/><text fill="#000000" font-family="sans-serif" font-size="14" lengthAdjust="spacing" textLength="64" x="27" y="146.9707">createdBy</text><rect fill="none" height="6" style="stroke:#C82930;stroke-width:1.0;" width="6" x="15" y="158.2949"/><text fill="#000000" font-family="sans-serif" font-size="14" lengthAdjust="spacing" textLength="63" x="27" y="165.5918">username</text><rect fill="none" height="6" style="stroke:#C82930;stroke-width:1.0;" width="6" x="15" y="176.916"/><text fill="#000000" font-family="sans-serif" font-size="14" lengthAdjust="spacing" textLength="60" x="27" y="184.2129">password</text><rect fill="none" height="6" style="stroke:#C82930;stroke-width:1.0;" width="6" x="15" y="195.5371"/><text fill="#000000" font-family="sans-serif" font-size="14" lengthAdjust="spacing" textLength="54" x="27" y="202.834">fullName</text></g><!--class Roles--><g id="elem_Roles"><rect codeLine="17" fill="#F1F1F1" height="73.8633" id="Roles" rx="2.5" ry="2.5" style="stroke:#181818;stroke-width:0.5;" width="82" x="286.5" y="7"/><text fill="#000000" font-family="sans-serif" font-size="14" lengthAdjust="spacing" textLength="36" x="309.5" y="27.1074">Roles</text><line style="stroke:#181818;stroke-width:0.5;" x1="287.5" x2="367.5" y1="35.6211" y2="35.6211"/><rect fill="none" height="6" style="stroke:#C82930;stroke-width:1.0;" width="6" x="294.5" y="47.4316"/><text fill="#000000" font-family="sans-serif" font-size="14" lengthAdjust="spacing" textLength="39" x="306.5" y="54.7285">Admin</text><rect fill="none" height="6" style="stroke:#C82930;stroke-width:1.0;" width="6" x="294.5" y="66.0527"/><text fill="#000000" font-family="sans-serif" font-size="14" lengthAdjust="spacing" textLength="56" x="306.5" y="73.3496">Librarian</text></g><!--class Lending--><g id="elem_Lending"><rect codeLine="22" fill="#F1F1F1" height="222.832" id="Lending" rx="2.5" ry="2.5" style="stroke:#181818;stroke-width:0.5;" width="117" x="269" y="116.5"/><text fill="#000000" font-family="sans-serif" font-size="14" lengthAdjust="spacing" textLength="51" x="302" y="136.6074">Lending</text><line style="stroke:#181818;stroke-width:0.5;" x1="270" x2="385" y1="145.1211" y2="145.1211"/><rect fill="none" height="6" style="stroke:#C82930;stroke-width:1.0;" width="6" x="277" y="156.9316"/><text fill="#000000" font-family="sans-serif" font-size="14" lengthAdjust="spacing" textLength="11" x="289" y="164.2285">id</text><rect fill="none" height="6" style="stroke:#C82930;stroke-width:1.0;" width="6" x="277" y="175.5527"/><text fill="#000000" font-family="sans-serif" font-size="14" lengthAdjust="spacing" textLength="80" x="289" y="182.8496">lendindCode</text><rect fill="none" height="6" style="stroke:#C82930;stroke-width:1.0;" width="6" x="277" y="194.1738"/><text fill="#000000" font-family="sans-serif" font-size="14" lengthAdjust="spacing" textLength="53" x="289" y="201.4707">readerId</text><rect fill="none" height="6" style="stroke:#C82930;stroke-width:1.0;" width="6" x="277" y="212.7949"/><text fill="#000000" font-family="sans-serif" font-size="14" lengthAdjust="spacing" textLength="42" x="289" y="220.0918">bookId</text><rect fill="none" height="6" style="stroke:#C82930;stroke-width:1.0;" width="6" x="277" y="231.416"/><text fill="#000000" font-family="sans-serif" font-size="14" lengthAdjust="spacing" textLength="58" x="289" y="238.7129">bookTitle</text><rect fill="none" height="6" style="stroke:#C82930;stroke-width:1.0;" width="6" x="277" y="250.0371"/><text fill="#000000" font-family="sans-serif" font-size="14" lengthAdjust="spacing" textLength="91" x="289" y="257.334">daysTillReturn</text><rect fill="none" height="6" style="stroke:#C82930;stroke-width:1.0;" width="6" x="277" y="268.6582"/><text fill="#000000" font-family="sans-serif" font-size="14" lengthAdjust="spacing" textLength="54" x="289" y="275.9551">returned</text><rect fill="none" height="6" style="stroke:#C82930;stroke-width:1.0;" width="6" x="277" y="287.2793"/><text fill="#000000" font-family="sans-serif" font-size="14" lengthAdjust="spacing" textLength="85" x="289" y="294.5762">daysOverdue</text><rect fill="none" height="6" style="stroke:#C82930;stroke-width:1.0;" width="6" x="277" y="305.9004"/><text fill="#000000" font-family="sans-serif" font-size="14" lengthAdjust="spacing" textLength="23" x="289" y="313.1973">fine</text><rect fill="none" height="6" style="stroke:#C82930;stroke-width:1.0;" width="6" x="277" y="324.5215"/><text fill="#000000" font-family="sans-serif" font-size="14" lengthAdjust="spacing" textLength="57" x="289" y="331.8184">comment</text></g><!--class lendDate--><g id="elem_lendDate"><rect fill="#F1F1F1" height="36.6211" id="lendDate" rx="2.5" ry="2.5" style="stroke:#181818;stroke-width:0.5;" width="63" x="460.5" y="137.5"/><text fill="#000000" font-family="sans-serif" font-size="14" lengthAdjust="spacing" textLength="57" x="463.5" y="157.6074">lendDate</text><line style="stroke:#181818;stroke-width:0.5;" x1="461.5" x2="522.5" y1="166.1211" y2="166.1211"/></g><!--class returnedDate--><g id="elem_returnedDate"><rect fill="#F1F1F1" height="36.6211" id="returnedDate" rx="2.5" ry="2.5" style="stroke:#181818;stroke-width:0.5;" width="90" x="447" y="209.5"/><text fill="#000000" font-family="sans-serif" font-size="14" lengthAdjust="spacing" textLength="84" x="450" y="229.6074">returnedDate</text><line style="stroke:#181818;stroke-width:0.5;" x1="448" x2="536" y1="238.1211" y2="238.1211"/></g><!--class limitDate--><g id="elem_limitDate"><rect fill="#F1F1F1" height="36.6211" id="limitDate" rx="2.5" ry="2.5" style="stroke:#181818;stroke-width:0.5;" width="60" x="462" y="281.5"/><text fill="#000000" font-family="sans-serif" font-size="14" lengthAdjust="spacing" textLength="54" x="465" y="301.6074">limitDate</text><line style="stroke:#181818;stroke-width:0.5;" x1="463" x2="521" y1="310.1211" y2="310.1211"/></g><!--link User to Roles--><g id="link_User_Roles"><path codeLine="36" d="M102.09,120.18 C153.99,102.56 237.07,74.36 286.26,57.66 " fill="none" id="User-Roles" style="stroke:#181818;stroke-width:1.0;"/><text fill="#000000" font-family="sans-serif" font-size="13" lengthAdjust="spacing" textLength="21" x="175" y="81.0283">has</text><text fill="#000000" font-family="sans-serif" font-size="13" lengthAdjust="spacing" textLength="7" x="109.9132" y="133.0831">1</text><text fill="#000000" font-family="sans-serif" font-size="13" lengthAdjust="spacing" textLength="20" x="258.4139" y="75.1143">1..*</text></g><!--link User to Lending--><g id="link_User_Lending"><path codeLine="38" d="M102.09,151.82 C148.24,167.48 219.04,191.52 268.75,208.39 " fill="none" id="User-Lending" style="stroke:#181818;stroke-width:1.0;"/><text fill="#000000" font-family="sans-serif" font-size="13" lengthAdjust="spacing" textLength="43" x="164" y="169.0283">creates</text><text fill="#000000" font-family="sans-serif" font-size="13" lengthAdjust="spacing" textLength="7" x="109.9132" y="169.568">1</text><text fill="#000000" font-family="sans-serif" font-size="13" lengthAdjust="spacing" textLength="20" x="240.8008" y="221.1603">1..*</text></g><!--reverse link Lending to lendDate--><g id="link_Lending_lendDate"><path codeLine="39" d="M397.2217,197.5498 C422.2117,186.4798 439.49,178.82 460.34,169.58 " fill="none" id="Lending-backto-lendDate" style="stroke:#181818;stroke-width:1.0;"/><polygon fill="#181818" points="386.25,202.41,393.3559,203.6371,397.2217,197.5498,390.1158,196.3227,386.25,202.41" style="stroke:#181818;stroke-width:1.0;"/><text fill="#000000" font-family="sans-serif" font-size="13" lengthAdjust="spacing" textLength="7" x="393.8367" y="214.3834">1</text><text fill="#000000" font-family="sans-serif" font-size="13" lengthAdjust="spacing" textLength="7" x="445.6487" y="188.5116">1</text></g><!--reverse link Lending to returnedDate--><g id="link_Lending_returnedDate"><path codeLine="40" d="M398.25,228 C418.23,228 428.28,228 446.98,228 " fill="none" id="Lending-backto-returnedDate" style="stroke:#181818;stroke-width:1.0;"/><polygon fill="#181818" points="386.25,228,392.25,232,398.25,228,392.25,224,386.25,228" style="stroke:#181818;stroke-width:1.0;"/><text fill="#000000" font-family="sans-serif" font-size="13" lengthAdjust="spacing" textLength="7" x="393.8367" y="243.0922">1</text><text fill="#000000" font-family="sans-serif" font-size="13" lengthAdjust="spacing" textLength="7" x="431.9439" y="243.4916">1</text></g><!--reverse link Lending to limitDate--><g id="link_Lending_limitDate"><path codeLine="41" d="M397.2223,258.4489 C422.7623,269.7589 440.73,277.72 461.7,287.02 " fill="none" id="Lending-backto-limitDate" style="stroke:#181818;stroke-width:1.0;"/><polygon fill="#181818" points="386.25,253.59,390.1165,259.6769,397.2223,258.4489,393.3558,252.362,386.25,253.59" style="stroke:#181818;stroke-width:1.0;"/><text fill="#000000" font-family="sans-serif" font-size="13" lengthAdjust="spacing" textLength="7" x="393.8367" y="271.801">1</text><text fill="#000000" font-family="sans-serif" font-size="13" lengthAdjust="spacing" textLength="7" x="446.8837" y="300.0898">1</text></g><!--SRC=[TL3BJiCm4BpxAwnSa2eb4TVUU5oGAf2gyW6kTvEiMDl5te0gnB_Zf34KKNpnpCxiyseGEQHrsnxOU1aTDpQuDk7hYDvY3MJwQ9nI0m5gIz4odh136G8anTY9bg0ZzODee8XMA7Ybb6MJadvE63-Kpg_M10jm0QWZXDlZ4h0HZPpnCMTvut2XXrpfFSIItetCZvFwMRfi0sCgRMx0aL_mXlRHH3B-nxj13-Hx_MSgdWMu2r3wvga0uqCnx4Du-KLs95oyO8vfHynRb37wxm8JGJZpFBrXXB5aTUGBp8Ttw4LDaqvNqzLrfUkwpd_JhAhJZcizc7HPBtkjbsicLIAJSJKRgtd9-wnU5Cku_ngO7CciVW40]--></g></svg>
