<?xml version="1.0" encoding="us-ascii" standalone="no"?><svg xmlns="http://www.w3.org/2000/svg" xmlns:xlink="http://www.w3.org/1999/xlink" contentStyleType="text/css" height="282px" preserveAspectRatio="none" style="width:1239px;height:282px;background:#FFFFFF;" version="1.1" viewBox="0 0 1239 282" width="1239px" zoomAndPan="magnify"><defs/><g><!--class Book--><g id="elem_Book"><rect codeLine="24" fill="#F1F1F1" height="36.6211" id="Book" rx="2.5" ry="2.5" style="stroke:#181818;stroke-width:0.5;" width="38" x="166.5" y="123"/><text fill="#000000" font-family="sans-serif" font-size="14" lengthAdjust="spacing" textLength="32" x="169.5" y="143.1074">Book</text><line style="stroke:#181818;stroke-width:0.5;" x1="167.5" x2="203.5" y1="151.6211" y2="151.6211"/></g><!--class BookISBN--><g id="elem_BookISBN"><rect fill="#F1F1F1" height="36.6211" id="BookISBN" rx="2.5" ry="2.5" style="stroke:#181818;stroke-width:0.5;" width="68" x="251.5" y="7"/><text fill="#000000" font-family="sans-serif" font-size="14" lengthAdjust="spacing" textLength="62" x="254.5" y="27.1074">BookISBN</text><line style="stroke:#181818;stroke-width:0.5;" x1="252.5" x2="318.5" y1="35.6211" y2="35.6211"/></g><!--class BookTitle--><g id="elem_BookTitle"><rect fill="#F1F1F1" height="36.6211" id="BookTitle" rx="2.5" ry="2.5" style="stroke:#181818;stroke-width:0.5;" width="65" x="151" y="7"/><text fill="#000000" font-family="sans-serif" font-size="14" lengthAdjust="spacing" textLength="59" x="154" y="27.1074">BookTitle</text><line style="stroke:#181818;stroke-width:0.5;" x1="152" x2="215" y1="35.6211" y2="35.6211"/></g><!--class BookDescription--><g id="elem_BookDescription"><rect fill="#F1F1F1" height="36.6211" id="BookDescription" rx="2.5" ry="2.5" style="stroke:#181818;stroke-width:0.5;" width="109" x="7" y="7"/><text fill="#000000" font-family="sans-serif" font-size="14" lengthAdjust="spacing" textLength="103" x="10" y="27.1074">BookDescription</text><line style="stroke:#181818;stroke-width:0.5;" x1="8" x2="115" y1="35.6211" y2="35.6211"/></g><!--class BookAuthor--><g id="elem_BookAuthor"><rect fill="#F1F1F1" height="36.6211" id="BookAuthor" rx="2.5" ry="2.5" style="stroke:#181818;stroke-width:0.5;" width="80" x="51.5" y="123"/><text fill="#000000" font-family="sans-serif" font-size="14" lengthAdjust="spacing" textLength="74" x="54.5" y="143.1074">BookAuthor</text><line style="stroke:#181818;stroke-width:0.5;" x1="52.5" x2="130.5" y1="151.6211" y2="151.6211"/></g><!--class BookGenre--><g id="elem_BookGenre"><rect fill="#F1F1F1" height="36.6211" id="BookGenre" rx="2.5" ry="2.5" style="stroke:#181818;stroke-width:0.5;" width="78" x="239.5" y="123"/><text fill="#000000" font-family="sans-serif" font-size="14" lengthAdjust="spacing" textLength="72" x="242.5" y="143.1074">BookGenre</text><line style="stroke:#181818;stroke-width:0.5;" x1="240.5" x2="316.5" y1="151.6211" y2="151.6211"/></g><!--class Reader--><g id="elem_Reader"><rect codeLine="18" fill="#F1F1F1" height="36.6211" id="Reader" rx="2.5" ry="2.5" style="stroke:#181818;stroke-width:0.5;" width="53" x="641" y="7"/><text fill="#000000" font-family="sans-serif" font-size="14" lengthAdjust="spacing" textLength="47" x="644" y="27.1074">Reader</text><line style="stroke:#181818;stroke-width:0.5;" x1="642" x2="693" y1="35.6211" y2="35.6211"/></g><!--class ReaderNumber--><g id="elem_ReaderNumber"><rect fill="#F1F1F1" height="36.6211" id="ReaderNumber" rx="2.5" ry="2.5" style="stroke:#181818;stroke-width:0.5;" width="102" x="362.5" y="123"/><text fill="#000000" font-family="sans-serif" font-size="14" lengthAdjust="spacing" textLength="96" x="365.5" y="143.1074">ReaderNumber</text><line style="stroke:#181818;stroke-width:0.5;" x1="363.5" x2="463.5" y1="151.6211" y2="151.6211"/></g><!--class ReaderName--><g id="elem_ReaderName"><rect fill="#F1F1F1" height="36.6211" id="ReaderName" rx="2.5" ry="2.5" style="stroke:#181818;stroke-width:0.5;" width="89" x="500" y="123"/><text fill="#000000" font-family="sans-serif" font-size="14" lengthAdjust="spacing" textLength="83" x="503" y="143.1074">ReaderName</text><line style="stroke:#181818;stroke-width:0.5;" x1="501" x2="588" y1="151.6211" y2="151.6211"/></g><!--class ReaderEmail--><g id="elem_ReaderEmail"><rect fill="#F1F1F1" height="36.6211" id="ReaderEmail" rx="2.5" ry="2.5" style="stroke:#181818;stroke-width:0.5;" width="87" x="624" y="123"/><text fill="#000000" font-family="sans-serif" font-size="14" lengthAdjust="spacing" textLength="81" x="627" y="143.1074">ReaderEmail</text><line style="stroke:#181818;stroke-width:0.5;" x1="625" x2="710" y1="151.6211" y2="151.6211"/></g><!--class ReaderDateOfBirth--><g id="elem_ReaderDateOfBirth"><rect fill="#F1F1F1" height="36.6211" id="ReaderDateOfBirth" rx="2.5" ry="2.5" style="stroke:#181818;stroke-width:0.5;" width="127" x="746" y="123"/><text fill="#000000" font-family="sans-serif" font-size="14" lengthAdjust="spacing" textLength="121" x="749" y="143.1074">ReaderDateOfBirth</text><line style="stroke:#181818;stroke-width:0.5;" x1="747" x2="872" y1="151.6211" y2="151.6211"/></g><!--class ReaderPhoneNumber--><g id="elem_ReaderPhoneNumber"><rect fill="#F1F1F1" height="36.6211" id="ReaderPhoneNumber" rx="2.5" ry="2.5" style="stroke:#181818;stroke-width:0.5;" width="143" x="908" y="123"/><text fill="#000000" font-family="sans-serif" font-size="14" lengthAdjust="spacing" textLength="137" x="911" y="143.1074">ReaderPhoneNumber</text><line style="stroke:#181818;stroke-width:0.5;" x1="909" x2="1050" y1="151.6211" y2="151.6211"/></g><!--class ReaderGDBRConsent--><g id="elem_ReaderGDBRConsent"><rect fill="#F1F1F1" height="36.6211" id="ReaderGDBRConsent" rx="2.5" ry="2.5" style="stroke:#181818;stroke-width:0.5;" width="146" x="1086.5" y="123"/><text fill="#000000" font-family="sans-serif" font-size="14" lengthAdjust="spacing" textLength="140" x="1089.5" y="143.1074">ReaderGDBRConsent</text><line style="stroke:#181818;stroke-width:0.5;" x1="1087.5" x2="1231.5" y1="151.6211" y2="151.6211"/></g><!--class Librarian--><g id="elem_Librarian"><rect codeLine="20" fill="#F1F1F1" height="36.6211" id="Librarian" rx="2.5" ry="2.5" style="stroke:#181818;stroke-width:0.5;" width="62" x="154.5" y="239"/><text fill="#000000" font-family="sans-serif" font-size="14" lengthAdjust="spacing" textLength="56" x="157.5" y="259.1074">Librarian</text><line style="stroke:#181818;stroke-width:0.5;" x1="155.5" x2="215.5" y1="267.6211" y2="267.6211"/></g><!--link BookISBN to Book--><g id="link_BookISBN_Book"><path codeLine="5" d="M269.88,44.31 C251.09,65.73 227.6616,92.4275 208.9316,113.7875 " fill="none" id="BookISBN-to-Book" style="stroke:#181818;stroke-width:1.0;"/><polygon fill="#181818" points="201.02,122.81,207.9833,120.9359,208.9316,113.7875,201.9683,115.6615,201.02,122.81" style="stroke:#181818;stroke-width:1.0;"/></g><!--link BookTitle to Book--><g id="link_BookTitle_Book"><path codeLine="6" d="M183.81,44.31 C184.19,65.73 184.5966,89.4519 184.9766,110.8119 " fill="none" id="BookTitle-to-Book" style="stroke:#181818;stroke-width:1.0;"/><polygon fill="#181818" points="185.19,122.81,189.0826,116.7398,184.9766,110.8119,181.0839,116.8821,185.19,122.81" style="stroke:#181818;stroke-width:1.0;"/></g><!--link BookDescription to Book--><g id="link_BookDescription_Book"><path codeLine="7" d="M80.6,44.06 C103.84,65.42 134.0063,93.1581 157.3363,114.6081 " fill="none" id="BookDescription-to-Book" style="stroke:#181818;stroke-width:1.0;"/><polygon fill="#181818" points="166.17,122.73,164.4604,115.7245,157.3363,114.6081,159.0458,121.6136,166.17,122.73" style="stroke:#181818;stroke-width:1.0;"/></g><!--link BookAuthor to Book--><g id="link_BookAuthor_Book"><path codeLine="8" d="M131.52,141.5 C143.05,141.5 154.58,141.5 166.1,141.5 " fill="none" id="BookAuthor-Book" style="stroke:#181818;stroke-width:1.0;"/><text fill="#000000" font-family="sans-serif" font-size="13" lengthAdjust="spacing" textLength="20" x="139.4919" y="137.227">1..*</text><text fill="#000000" font-family="sans-serif" font-size="13" lengthAdjust="spacing" textLength="7" x="151.5144" y="135.8237">1</text></g><!--link Book to BookGenre--><g id="link_Book_BookGenre"><path codeLine="9" d="M204.75,141.5 C216.28,141.5 227.8,141.5 239.32,141.5 " fill="none" id="Book-BookGenre" style="stroke:#181818;stroke-width:1.0;"/><text fill="#000000" font-family="sans-serif" font-size="13" lengthAdjust="spacing" textLength="7" x="212.5703" y="135.7216">1</text><text fill="#000000" font-family="sans-serif" font-size="13" lengthAdjust="spacing" textLength="20" x="211.4819" y="137.227">1..*</text></g><!--reverse link Reader to ReaderNumber--><g id="link_Reader_ReaderNumber"><path codeLine="11" d="M629.8522,43.3938 C584.8922,63.5738 504.83,99.51 452.64,122.93 " fill="none" id="Reader-backto-ReaderNumber" style="stroke:#181818;stroke-width:1.0;"/><polygon fill="#181818" points="640.8,38.48,633.6882,37.2877,629.8522,43.3938,636.9641,44.5862,640.8,38.48" style="stroke:#181818;stroke-width:1.0;"/></g><!--reverse link Reader to ReaderName--><g id="link_Reader_ReaderName"><path codeLine="12" d="M639.7482,52.2165 C616.6982,73.5765 586.82,101.28 563.67,122.73 " fill="none" id="Reader-backto-ReaderName" style="stroke:#181818;stroke-width:1.0;"/><polygon fill="#181818" points="648.55,44.06,641.4303,45.2043,639.7482,52.2165,646.8679,51.0722,648.55,44.06" style="stroke:#181818;stroke-width:1.0;"/></g><!--reverse link Reader to ReaderEmail--><g id="link_Reader_ReaderEmail"><path codeLine="13" d="M667.5,56.31 C667.5,77.73 667.5,101.45 667.5,122.81 " fill="none" id="Reader-backto-ReaderEmail" style="stroke:#181818;stroke-width:1.0;"/><polygon fill="#181818" points="667.5,44.31,663.5,50.31,667.5,56.31,671.5,50.31,667.5,44.31" style="stroke:#181818;stroke-width:1.0;"/></g><!--reverse link Reader to ReaderDateOfBirth--><g id="link_Reader_ReaderDateOfBirth"><path codeLine="14" d="M698.7367,51.5735 C725.3367,72.9335 760.64,101.28 787.36,122.73 " fill="none" id="Reader-backto-ReaderDateOfBirth" style="stroke:#181818;stroke-width:1.0;"/><polygon fill="#181818" points="689.38,44.06,691.5538,50.9356,698.7367,51.5735,696.5628,44.6978,689.38,44.06" style="stroke:#181818;stroke-width:1.0;"/></g><!--reverse link Reader to ReaderPhoneNumber--><g id="link_Reader_ReaderPhoneNumber"><path codeLine="15" d="M705.3714,40.3378 C757.9814,59.5578 864.71,98.56 931.33,122.9 " fill="none" id="Reader-backto-ReaderPhoneNumber" style="stroke:#181818;stroke-width:1.0;"/><polygon fill="#181818" points="694.1,36.22,698.3631,42.036,705.3714,40.3378,701.1083,34.5218,694.1,36.22" style="stroke:#181818;stroke-width:1.0;"/></g><!--reverse link Reader to ReaderGDBRConsent--><g id="link_Reader_ReaderGDBRConsent"><path codeLine="16" d="M705.9903,35.4185 C779.5803,52.4685 975,97.75 1086.41,123.56 " fill="none" id="Reader-backto-ReaderGDBRConsent" style="stroke:#181818;stroke-width:1.0;"/><polygon fill="#181818" points="694.3,32.71,699.2423,37.961,705.9903,35.4185,701.048,30.1675,694.3,32.71" style="stroke:#181818;stroke-width:1.0;"/></g><!--link Book to Librarian--><g id="link_Book_Librarian"><path codeLine="26" d="M185.5,160.31 C185.5,181.73 185.5,217.45 185.5,238.81 " fill="none" id="Book-Librarian" style="stroke:#181818;stroke-width:1.0;"/><polygon fill="#000000" points="190.5,204.6455,193.4389,195.6004,187.5611,195.6004,190.5,204.6455" style="stroke:#000000;stroke-width:1.0;"/><text fill="#000000" font-family="sans-serif" font-size="13" lengthAdjust="spacing" textLength="11" x="199.5" y="205.0283">to</text><text fill="#000000" font-family="sans-serif" font-size="13" lengthAdjust="spacing" textLength="7" x="177.5594" y="181.7679">1</text><text fill="#000000" font-family="sans-serif" font-size="13" lengthAdjust="spacing" textLength="7" x="177.4281" y="227.614">1</text></g><!--link Reader to Book--><g id="link_Reader_Book"><path codeLine="27" d="M640.76,30 C570.55,39.69 375.74,69.69 221.5,123 C215.85,124.95 209.94,127.57 204.57,130.18 " fill="none" id="Reader-Book" style="stroke:#181818;stroke-width:1.0;"/><polygon fill="#000000" points="390.6269,84.7647,400.1003,85.6044,398.7846,79.8757,390.6269,84.7647" style="stroke:#000000;stroke-width:1.0;"/><text fill="#000000" font-family="sans-serif" font-size="13" lengthAdjust="spacing" textLength="40" x="404.5" y="89.0283">returns</text><text fill="#000000" font-family="sans-serif" font-size="13" lengthAdjust="spacing" textLength="7" x="626.011" y="26.0892">1</text><text fill="#000000" font-family="sans-serif" font-size="13" lengthAdjust="spacing" textLength="7" x="212.6106" y="120.2668">1</text></g><!--SRC=[TP3DQiCm48JlUeh5nu12SyqX4DSb14eQahw0R6-g9RPaLciADNdt-g-f6zEJPh-PPLY5AxdAi2aXAqm8Mn6cj1RSPzwTwGlXILdA4JBYhC11boZMvq6fsFihB7HTQUZa_XmV7jaxIRls01CC6LCbvDrWHQi8T84NqQrSBXTH7zlMRGzF4amVzczaXuvHgHEQ7BbjoFsdqp2CXxfCaN-zEpSbpkbBQQYOuyG8lbrYOh5pysYzm_zgTabyUlOke1Eb-iyTZKRTnlcLKZPCnZMgPIFipsrkQdAtxfzxUWtY0JO_bPD8jx86HgdPXIxo3G00]--></g></svg>
