<?xml version="1.0" encoding="us-ascii" standalone="no"?><svg xmlns="http://www.w3.org/2000/svg" xmlns:xlink="http://www.w3.org/1999/xlink" contentStyleType="text/css" height="459px" preserveAspectRatio="none" style="width:2001px;height:459px;background:#FFFFFF;" version="1.1" viewBox="0 0 2001 459" width="2001px" zoomAndPan="magnify"><defs/><g><!--class RouteHandler--><g id="elem_RouteHandler"><rect codeLine="7" fill="#F1F1F1" height="64.1358" id="RouteHandler" rx="2.5" ry="2.5" style="stroke:#181818;stroke-width:0.5;" width="500" x="7" y="276"/><text fill="#000000" font-family="sans-serif" font-size="14" lengthAdjust="spacing" textLength="93" x="210.5" y="295.9659">RouteHandler</text><line style="stroke:#181818;stroke-width:0.5;" x1="8" x2="506" y1="305.0679" y2="305.0679"/><line style="stroke:#181818;stroke-width:0.5;" x1="8" x2="506" y1="313.0679" y2="313.0679"/><text fill="#000000" font-family="sans-serif" font-size="14" lengthAdjust="spacing" textLength="488" x="13" y="332.0339">+postBook(isbn, title, genre, bookAuthors, description=None): HttpResult</text></g><!--class BookController--><g id="elem_BookController"><rect codeLine="11" fill="#F1F1F1" height="64.1358" id="BookController" rx="2.5" ry="2.5" style="stroke:#181818;stroke-width:0.5;" width="471" x="567" y="276"/><text fill="#000000" font-family="sans-serif" font-size="14" lengthAdjust="spacing" textLength="99" x="753" y="295.9659">BookController</text><line style="stroke:#181818;stroke-width:0.5;" x1="568" x2="1037" y1="305.0679" y2="305.0679"/><line style="stroke:#181818;stroke-width:0.5;" x1="568" x2="1037" y1="313.0679" y2="313.0679"/><text fill="#000000" font-family="sans-serif" font-size="14" lengthAdjust="spacing" textLength="459" x="573" y="332.0339">+postBook(isbn, title, genre, bookAuthors, description=None): Result</text></g><!--class BookService--><g id="elem_BookService"><rect codeLine="15" fill="#F1F1F1" height="102.2717" id="BookService" rx="2.5" ry="2.5" style="stroke:#181818;stroke-width:0.5;" width="452" x="1098" y="60.93"/><text fill="#000000" font-family="sans-serif" font-size="14" lengthAdjust="spacing" textLength="80" x="1284" y="80.8959">BookService</text><line style="stroke:#181818;stroke-width:0.5;" x1="1099" x2="1549" y1="89.9979" y2="89.9979"/><line style="stroke:#181818;stroke-width:0.5;" x1="1099" x2="1549" y1="97.9979" y2="97.9979"/><text fill="#000000" font-family="sans-serif" font-size="14" lengthAdjust="spacing" textLength="98" x="1104" y="116.9639">-validate(book)</text><text fill="#000000" font-family="sans-serif" font-size="14" lengthAdjust="spacing" textLength="440" x="1104" y="136.0318">+create(isbn, title, genre, bookAuthors, description=None): Result</text><text fill="#000000" font-family="sans-serif" font-size="14" lengthAdjust="spacing" textLength="124" x="1104" y="155.0997">+add(book): Result</text></g><!--class EditBookMapper--><g id="elem_EditBookMapper"><rect codeLine="21" fill="#F1F1F1" height="64.1358" id="EditBookMapper" rx="2.5" ry="2.5" style="stroke:#181818;stroke-width:0.5;" width="129" x="1737.5" y="7"/><text fill="#000000" font-family="sans-serif" font-size="14" lengthAdjust="spacing" textLength="111" x="1746.5" y="26.9659">EditBookMapper</text><line style="stroke:#181818;stroke-width:0.5;" x1="1738.5" x2="1865.5" y1="36.0679" y2="36.0679"/><line style="stroke:#181818;stroke-width:0.5;" x1="1738.5" x2="1865.5" y1="44.0679" y2="44.0679"/><text fill="#000000" font-family="sans-serif" font-size="14" lengthAdjust="spacing" textLength="117" x="1743.5" y="63.0339">+create(resource)</text></g><!--class Book--><g id="elem_Book"><rect codeLine="26" fill="#F1F1F1" height="159.4754" id="Book" rx="2.5" ry="2.5" style="stroke:#181818;stroke-width:0.5;" width="384" x="1610" y="106.33"/><text fill="#000000" font-family="sans-serif" font-size="14" lengthAdjust="spacing" textLength="32" x="1786" y="126.2959">Book</text><line style="stroke:#181818;stroke-width:0.5;" x1="1611" x2="1993" y1="135.3979" y2="135.3979"/><text fill="#000000" font-family="sans-serif" font-size="14" lengthAdjust="spacing" textLength="38" x="1616" y="154.3639">-isbn,</text><text fill="#000000" font-family="sans-serif" font-size="14" lengthAdjust="spacing" textLength="35" x="1616" y="173.4318">-title,</text><text fill="#000000" font-family="sans-serif" font-size="14" lengthAdjust="spacing" textLength="49" x="1616" y="192.4997">-genre,</text><text fill="#000000" font-family="sans-serif" font-size="14" lengthAdjust="spacing" textLength="94" x="1616" y="211.5676">-bookAuthors,</text><text fill="#000000" font-family="sans-serif" font-size="14" lengthAdjust="spacing" textLength="81" x="1616" y="230.6355">-description</text><line style="stroke:#181818;stroke-width:0.5;" x1="1611" x2="1993" y1="238.7375" y2="238.7375"/><text fill="#000000" font-family="sans-serif" font-size="14" lengthAdjust="spacing" textLength="372" x="1616" y="257.7034">Book(isbn, title, genre, bookAuthors, description=None)</text></g><!--class BookRepository--><g id="elem_BookRepository"><rect codeLine="35" fill="#F1F1F1" height="64.1358" id="BookRepository" rx="2.5" ry="2.5" style="stroke:#181818;stroke-width:0.5;" width="140" x="1732" y="324"/><text fill="#000000" font-family="sans-serif" font-size="14" lengthAdjust="spacing" textLength="103" x="1750.5" y="343.9659">BookRepository</text><line style="stroke:#181818;stroke-width:0.5;" x1="1733" x2="1871" y1="353.0679" y2="353.0679"/><line style="stroke:#181818;stroke-width:0.5;" x1="1733" x2="1871" y1="361.0679" y2="361.0679"/><text fill="#000000" font-family="sans-serif" font-size="14" lengthAdjust="spacing" textLength="128" x="1738" y="380.0339">+save(book): Result</text></g><!--class HttpResult--><g id="elem_HttpResult"><rect codeLine="39" fill="#F1F1F1" height="102.2717" id="HttpResult" rx="2.5" ry="2.5" style="stroke:#181818;stroke-width:0.5;" width="340" x="1154" y="197.93"/><text fill="#000000" font-family="sans-serif" font-size="14" lengthAdjust="spacing" textLength="71" x="1288.5" y="217.8959">HttpResult</text><line style="stroke:#181818;stroke-width:0.5;" x1="1155" x2="1493" y1="226.9979" y2="226.9979"/><text fill="#000000" font-family="sans-serif" font-size="14" lengthAdjust="spacing" textLength="125" x="1160" y="245.9639">-status: HttpStatus</text><text fill="#000000" font-family="sans-serif" font-size="14" lengthAdjust="spacing" textLength="80" x="1160" y="265.0318">-result: json</text><line style="stroke:#181818;stroke-width:0.5;" x1="1155" x2="1493" y1="273.1338" y2="273.1338"/><text fill="#000000" font-family="sans-serif" font-size="14" lengthAdjust="spacing" textLength="328" x="1160" y="292.0997">HttpResult(HttpStatus status, const json &amp;result);</text></g><!--class BookViewMapper--><g id="elem_BookViewMapper"><rect codeLine="45" fill="#F1F1F1" height="64.1358" id="BookViewMapper" rx="2.5" ry="2.5" style="stroke:#181818;stroke-width:0.5;" width="136" x="1256" y="335"/><text fill="#000000" font-family="sans-serif" font-size="14" lengthAdjust="spacing" textLength="116" x="1266" y="354.9659">BookViewMapper</text><line style="stroke:#181818;stroke-width:0.5;" x1="1257" x2="1391" y1="364.0679" y2="364.0679"/><line style="stroke:#181818;stroke-width:0.5;" x1="1257" x2="1391" y1="372.0679" y2="372.0679"/><text fill="#000000" font-family="sans-serif" font-size="14" lengthAdjust="spacing" textLength="124" x="1262" y="391.0339">+toBookView(book)</text></g><!--link RouteHandler to BookController--><g id="link_RouteHandler_BookController"><path codeLine="51" d="M507.48,308.07 C527.15,308.07 540.98,308.07 560.55,308.07 " fill="none" id="RouteHandler-to-BookController" style="stroke:#181818;stroke-width:1.0;stroke-dasharray:7.0,7.0;"/><polygon fill="#181818" points="566.55,308.07,557.55,304.07,561.55,308.07,557.55,312.07,566.55,308.07" style="stroke:#181818;stroke-width:1.0;"/></g><!--link BookController to BookService--><g id="link_BookController_BookService"><path codeLine="52" d="M871.9,275.63 C931,248.26 1019.1,209.02 1098,180.07 C1113.23,174.48 1123.4519,170.8692 1139.4919,165.5792 " fill="none" id="BookController-to-BookService" style="stroke:#181818;stroke-width:1.0;stroke-dasharray:7.0,7.0;"/><polygon fill="#181818" points="1145.19,163.7,1135.39,162.7201,1140.4416,165.266,1137.8957,170.3176,1145.19,163.7" style="stroke:#181818;stroke-width:1.0;"/></g><!--link BookController to BookViewMapper--><g id="link_BookController_BookViewMapper"><path codeLine="53" d="M1038.17,334.72 C1117.49,343.73 1194.0083,352.423 1249.6583,358.743 " fill="none" id="BookController-to-BookViewMapper" style="stroke:#181818;stroke-width:1.0;stroke-dasharray:7.0,7.0;"/><polygon fill="#181818" points="1255.62,359.42,1247.1288,354.43,1250.6519,358.8558,1246.2261,362.3789,1255.62,359.42" style="stroke:#181818;stroke-width:1.0;"/></g><!--link BookService to BookRepository--><g id="link_BookService_BookRepository"><path codeLine="54" d="M1525.77,163.59 C1534.26,168.58 1542.39,174.06 1550,180.07 C1591.58,212.9 1569.62,248.77 1610,283.07 C1644.77,312.6 1686.9688,329.2746 1726.1488,340.1546 " fill="none" id="BookService-to-BookRepository" style="stroke:#181818;stroke-width:1.0;stroke-dasharray:7.0,7.0;"/><polygon fill="#181818" points="1731.93,341.76,1724.3284,335.4977,1727.1123,340.4222,1722.1879,343.206,1731.93,341.76" style="stroke:#181818;stroke-width:1.0;"/></g><!--link BookService to Book--><g id="link_BookService_Book"><path codeLine="55" d="M1550.45,147.12 C1570.28,150.2 1584.2911,152.3787 1603.7911,155.4087 " fill="none" id="BookService-to-Book" style="stroke:#181818;stroke-width:1.0;stroke-dasharray:7.0,7.0;"/><polygon fill="#181818" points="1609.72,156.33,1601.4409,150.9956,1604.7793,155.5623,1600.2126,158.9007,1609.72,156.33" style="stroke:#181818;stroke-width:1.0;"/></g><!--link BookService to EditBookMapper--><g id="link_BookService_EditBookMapper"><path codeLine="56" d="M1550.45,77.49 C1618.82,67.01 1682.6392,57.2189 1731.1192,49.7889 " fill="none" id="BookService-to-EditBookMapper" style="stroke:#181818;stroke-width:1.0;stroke-dasharray:7.0,7.0;"/><polygon fill="#181818" points="1737.05,48.88,1727.5479,46.2896,1732.1077,49.6375,1728.7598,54.1972,1737.05,48.88" style="stroke:#181818;stroke-width:1.0;"/></g><!--link BookRepository to BookController--><g id="link_BookRepository_BookController"><path codeLine="57" d="M1731.76,377.62 C1681.81,392 1612.45,409.59 1550,417.07 C1350.54,440.96 1295.74,452.49 1098,417.07 C1016.83,402.53 934.2437,369.5996 875.7637,343.0596 " fill="none" id="BookRepository-to-BookController" style="stroke:#181818;stroke-width:1.0;stroke-dasharray:7.0,7.0;"/><polygon fill="#181818" points="870.3,340.58,876.8425,347.9418,874.8531,342.6463,880.1486,340.6569,870.3,340.58" style="stroke:#181818;stroke-width:1.0;"/></g><!--link BookController to HttpResult--><g id="link_BookController_HttpResult"><path codeLine="58" d="M1038.17,281.42 C1077.16,276.99 1110.9482,273.146 1147.8982,268.956 " fill="none" id="BookController-to-HttpResult" style="stroke:#181818;stroke-width:1.0;stroke-dasharray:7.0,7.0;"/><polygon fill="#181818" points="1153.86,268.28,1144.4666,265.3195,1148.8918,268.8434,1145.368,273.2686,1153.86,268.28" style="stroke:#181818;stroke-width:1.0;"/></g><!--SRC=[hLDDJyCm3BtdL_W4cnWRvo6G02710GwRn3rBp6R8aYfnXm3ntqcJLEqsa13GInD_lMVxvN35N8NfP58PQRbUcx5owuaoCeHZJNBfvLeOV6HW1vwMAmPD7XMJiqAiI2CeyigW2CzaAnd38ILVC7jQr8otojavlI6S294yC7FHV2EjDkZXNK3yZYeN-DAvvm65XHq14niSmHAjZxz5T5pKl78-Z41ZK9wgXi3PlRCudC9DR666eJOiFbgGfjYLi-oT-I-Oho3cw3UaiDG_taX3MZ8Ecbh3ZAayDfO_8AOoKkjSTP_8jQRKrPsiggxNWkinkDeh73RnFUOjPKZ4oZdJAvTCibpwL8kfHpXPVZdOxO7ECEw8sFdNjeyWD_XTvztcstO2Iwv3riGydRFTfwWfF8N2jaiTTB6GqqSGHHiu1SD1JXsURXDz87p90nU5Q7mYhQFilvdubjh7u_CTPOeTeROHHLZVkNleVHcsxcwANxhtZDiA4ZkB-1dhtYly1000]--></g></svg>