<?xml version="1.0" encoding="us-ascii" standalone="no"?><svg xmlns="http://www.w3.org/2000/svg" xmlns:xlink="http://www.w3.org/1999/xlink" contentStyleType="text/css" height="264px" preserveAspectRatio="none" style="width:403px;height:264px;background:#FFFFFF;" version="1.1" viewBox="0 0 403 264" width="403px" zoomAndPan="magnify"><defs/><g><!--class Librarian--><g id="elem_Librarian"><rect codeLine="6" fill="#F1F1F1" height="36.6211" id="Librarian" rx="2.5" ry="2.5" style="stroke:#181818;stroke-width:0.5;" width="62" x="152.5" y="221"/><text fill="#000000" font-family="sans-serif" font-size="14" lengthAdjust="spacing" textLength="56" x="155.5" y="241.1074">Librarian</text><line style="stroke:#181818;stroke-width:0.5;" x1="153.5" x2="213.5" y1="249.6211" y2="249.6211"/></g><!--class Book--><g id="elem_Book"><rect codeLine="8" fill="#F1F1F1" height="36.6211" id="Book" rx="2.5" ry="2.5" style="stroke:#181818;stroke-width:0.5;" width="38" x="164.5" y="105"/><text fill="#000000" font-family="sans-serif" font-size="14" lengthAdjust="spacing" textLength="32" x="167.5" y="125.1074">Book</text><line style="stroke:#181818;stroke-width:0.5;" x1="165.5" x2="201.5" y1="133.6211" y2="133.6211"/></g><!--class BookISBN--><g id="elem_BookISBN"><rect codeLine="9" fill="#F1F1F1" height="36.6211" id="BookISBN" rx="2.5" ry="2.5" style="stroke:#181818;stroke-width:0.5;" width="68" x="251.5" y="7"/><text fill="#000000" font-family="sans-serif" font-size="14" lengthAdjust="spacing" textLength="62" x="254.5" y="27.1074">BookISBN</text><line style="stroke:#181818;stroke-width:0.5;" x1="252.5" x2="318.5" y1="35.6211" y2="35.6211"/></g><!--class BookTitle--><g id="elem_BookTitle"><rect codeLine="10" fill="#F1F1F1" height="36.6211" id="BookTitle" rx="2.5" ry="2.5" style="stroke:#181818;stroke-width:0.5;" width="65" x="151" y="7"/><text fill="#000000" font-family="sans-serif" font-size="14" lengthAdjust="spacing" textLength="59" x="154" y="27.1074">BookTitle</text><line style="stroke:#181818;stroke-width:0.5;" x1="152" x2="215" y1="35.6211" y2="35.6211"/></g><!--class BookDescription--><g id="elem_BookDescription"><rect codeLine="11" fill="#F1F1F1" height="36.6211" id="BookDescription" rx="2.5" ry="2.5" style="stroke:#181818;stroke-width:0.5;" width="109" x="7" y="7"/><text fill="#000000" font-family="sans-serif" font-size="14" lengthAdjust="spacing" textLength="103" x="10" y="27.1074">BookDescription</text><line style="stroke:#181818;stroke-width:0.5;" x1="8" x2="115" y1="35.6211" y2="35.6211"/></g><!--class BookAuthor--><g id="elem_BookAuthor"><rect codeLine="12" fill="#F1F1F1" height="36.6211" id="BookAuthor" rx="2.5" ry="2.5" style="stroke:#181818;stroke-width:0.5;" width="80" x="49.5" y="105"/><text fill="#000000" font-family="sans-serif" font-size="14" lengthAdjust="spacing" textLength="74" x="52.5" y="125.1074">BookAuthor</text><line style="stroke:#181818;stroke-width:0.5;" x1="50.5" x2="128.5" y1="133.6211" y2="133.6211"/></g><!--class BookGenre--><g id="elem_BookGenre"><rect codeLine="13" fill="#F1F1F1" height="36.6211" id="BookGenre" rx="2.5" ry="2.5" style="stroke:#181818;stroke-width:0.5;" width="78" x="237.5" y="105"/><text fill="#000000" font-family="sans-serif" font-size="14" lengthAdjust="spacing" textLength="72" x="240.5" y="125.1074">BookGenre</text><line style="stroke:#181818;stroke-width:0.5;" x1="238.5" x2="314.5" y1="133.6211" y2="133.6211"/></g><!--class Genre--><g id="elem_Genre"><rect codeLine="14" fill="#F1F1F1" height="36.6211" id="Genre" rx="2.5" ry="2.5" style="stroke:#181818;stroke-width:0.5;" width="46" x="350.5" y="105"/><text fill="#000000" font-family="sans-serif" font-size="14" lengthAdjust="spacing" textLength="40" x="353.5" y="125.1074">Genre</text><line style="stroke:#181818;stroke-width:0.5;" x1="351.5" x2="395.5" y1="133.6211" y2="133.6211"/></g><!--link BookGenre to Genre--><g id="link_BookGenre_Genre"><path codeLine="16" d="M315.53,123.5 C327.15,123.5 338.78,123.5 350.4,123.5 " fill="none" id="BookGenre-Genre" style="stroke:#181818;stroke-width:1.0;"/><text fill="#000000" font-family="sans-serif" font-size="13" lengthAdjust="spacing" textLength="20" x="322.4676" y="118.8934">1..*</text><text fill="#000000" font-family="sans-serif" font-size="13" lengthAdjust="spacing" textLength="7" x="335.5862" y="118.1298">1</text></g><!--link BookISBN to Book--><g id="link_BookISBN_Book"><path codeLine="17" d="M266.79,44.11 C248.5,61.32 229.536,79.1631 211.176,96.4531 " fill="none" id="BookISBN-to-Book" style="stroke:#181818;stroke-width:1.0;"/><polygon fill="#181818" points="202.44,104.68,209.5503,103.4786,211.176,96.4531,204.0657,97.6545,202.44,104.68" style="stroke:#181818;stroke-width:1.0;"/></g><!--link BookTitle to Book--><g id="link_BookTitle_Book"><path codeLine="18" d="M183.5,44.11 C183.5,61.32 183.5,75.39 183.5,92.68 " fill="none" id="BookTitle-to-Book" style="stroke:#181818;stroke-width:1.0;"/><polygon fill="#181818" points="183.5,104.68,187.5,98.68,183.5,92.68,179.5,98.68,183.5,104.68" style="stroke:#181818;stroke-width:1.0;"/></g><!--link BookDescription to Book--><g id="link_BookDescription_Book"><path codeLine="19" d="M83.88,44.11 C106.99,62.3 133.2408,82.9477 155.0408,100.1077 " fill="none" id="BookDescription-to-Book" style="stroke:#181818;stroke-width:1.0;"/><polygon fill="#181818" points="164.47,107.53,162.2295,100.6758,155.0408,100.1077,157.2813,106.9619,164.47,107.53" style="stroke:#181818;stroke-width:1.0;"/></g><!--link BookAuthor to Book--><g id="link_BookAuthor_Book"><path codeLine="20" d="M129.52,123.5 C141.05,123.5 152.58,123.5 164.1,123.5 " fill="none" id="BookAuthor-Book" style="stroke:#181818;stroke-width:1.0;"/><text fill="#000000" font-family="sans-serif" font-size="13" lengthAdjust="spacing" textLength="20" x="137.4919" y="119.227">1..*</text><text fill="#000000" font-family="sans-serif" font-size="13" lengthAdjust="spacing" textLength="7" x="149.5144" y="117.8237">1</text></g><!--link Book to BookGenre--><g id="link_Book_BookGenre"><path codeLine="21" d="M202.75,123.5 C214.28,123.5 225.8,123.5 237.32,123.5 " fill="none" id="Book-BookGenre" style="stroke:#181818;stroke-width:1.0;"/><text fill="#000000" font-family="sans-serif" font-size="13" lengthAdjust="spacing" textLength="7" x="210.5703" y="117.7216">1</text><text fill="#000000" font-family="sans-serif" font-size="13" lengthAdjust="spacing" textLength="20" x="209.4819" y="119.227">1..*</text></g><!--link Book to Librarian--><g id="link_Book_Librarian"><path codeLine="23" d="M183.5,142.31 C183.5,163.73 183.5,199.45 183.5,220.81 " fill="none" id="Book-Librarian" style="stroke:#181818;stroke-width:1.0;"/><polygon fill="#000000" points="188.5,176.6455,185.5611,185.6906,191.4389,185.6906,188.5,176.6455" style="stroke:#000000;stroke-width:1.0;"/><text fill="#000000" font-family="sans-serif" font-size="13" lengthAdjust="spacing" textLength="50" x="197.5" y="187.0283">registers</text><text fill="#000000" font-family="sans-serif" font-size="13" lengthAdjust="spacing" textLength="20" x="160.8125" y="163.7679">1..*</text><text fill="#000000" font-family="sans-serif" font-size="13" lengthAdjust="spacing" textLength="7" x="175.4281" y="209.614">1</text></g><!--SRC=[NP31QiCm38RlVWgJow3WPBkMNLeA9J1swLx0TTH4rB6Dh5mszkxBRE8qlKcVVbaVVXcOGzmtJR3QyJJQslYnCLR7g3hKFUbHn3kweETA9dvW9hnE3AtnxeBV85_5W1r8WsGiv7e47dmNXKWhyWElf0cr-_bTqD7x-zojJNivVcx05xA53Jb1D8I1qRiDFqppDTgWCpXQbvTEb96itkfwLqb5s0-ivhRAgHIHEpK5LRIUMJ9xXWzoUVJ_fB9mIw-dOwlhGw88b4ZsM29PCnkMVznBWXuZ0qNvBlu0]--></g></svg>
