<?xml version="1.0" encoding="us-ascii" standalone="no"?><svg xmlns="http://www.w3.org/2000/svg" xmlns:xlink="http://www.w3.org/1999/xlink" contentStyleType="text/css" height="810px" preserveAspectRatio="none" style="width:297px;height:810px;background:#FFFFFF;" version="1.1" viewBox="0 0 297 810" width="297px" zoomAndPan="magnify"><defs/><g><!--class Lending--><g id="elem_Lending"><rect codeLine="6" fill="#F1F1F1" height="249.4531" id="Lending" rx="2.5" ry="2.5" style="stroke:#181818;stroke-width:0.5;" width="160" x="70.5" y="449"/><text fill="#000000" font-family="sans-serif" font-size="14" lengthAdjust="spacing" textLength="51" x="125" y="469.1074">Lending</text><line style="stroke:#181818;stroke-width:0.5;" x1="71.5" x2="229.5" y1="477.6211" y2="477.6211"/><text fill="#000000" font-family="sans-serif" font-size="14" lengthAdjust="spacing" textLength="56" x="76.5" y="496.7285">-id: Long</text><text fill="#000000" font-family="sans-serif" font-size="14" lengthAdjust="spacing" textLength="130" x="76.5" y="515.3496">-lendingCode: String</text><text fill="#000000" font-family="sans-serif" font-size="14" lengthAdjust="spacing" textLength="86" x="76.5" y="533.9707">-version: long</text><text fill="#000000" font-family="sans-serif" font-size="14" lengthAdjust="spacing" textLength="98" x="76.5" y="552.5918">-readerId: Long</text><text fill="#000000" font-family="sans-serif" font-size="14" lengthAdjust="spacing" textLength="87" x="76.5" y="571.2129">-bookId: Long</text><text fill="#000000" font-family="sans-serif" font-size="14" lengthAdjust="spacing" textLength="108" x="76.5" y="589.834">-bookTitle: String</text><text fill="#000000" font-family="sans-serif" font-size="14" lengthAdjust="spacing" textLength="148" x="76.5" y="608.4551">-daysTillReturn: Integer</text><text fill="#000000" font-family="sans-serif" font-size="14" lengthAdjust="spacing" textLength="142" x="76.5" y="627.0762">-daysOverdue: Integer</text><text fill="#000000" font-family="sans-serif" font-size="14" lengthAdjust="spacing" textLength="68" x="76.5" y="645.6973">-fine: Float</text><text fill="#000000" font-family="sans-serif" font-size="14" lengthAdjust="spacing" textLength="118" x="76.5" y="664.3184">-returned: boolean</text><text fill="#000000" font-family="sans-serif" font-size="14" lengthAdjust="spacing" textLength="107" x="76.5" y="682.9395">-comment: String</text><line style="stroke:#181818;stroke-width:0.5;" x1="71.5" x2="229.5" y1="690.4531" y2="690.4531"/></g><!--class LendingController--><g id="elem_LendingController"><rect codeLine="20" fill="#F1F1F1" height="63.2422" id="LendingController" rx="2.5" ry="2.5" style="stroke:#181818;stroke-width:0.5;" width="259" x="21" y="7"/><text fill="#000000" font-family="sans-serif" font-size="14" lengthAdjust="spacing" textLength="113" x="94" y="27.1074">LendingController</text><line style="stroke:#181818;stroke-width:0.5;" x1="22" x2="279" y1="35.6211" y2="35.6211"/><line style="stroke:#181818;stroke-width:0.5;" x1="22" x2="279" y1="43.6211" y2="43.6211"/><text fill="#000000" font-family="sans-serif" font-size="14" lengthAdjust="spacing" textLength="247" x="27" y="62.7285">+getAverageLendingDuration(): double</text></g><!--class LendingServiceImpl--><g id="elem_LendingServiceImpl"><rect codeLine="24" fill="#F1F1F1" height="63.2422" id="LendingServiceImpl" rx="2.5" ry="2.5" style="stroke:#181818;stroke-width:0.5;" width="259" x="21" y="149"/><text fill="#000000" font-family="sans-serif" font-size="14" lengthAdjust="spacing" textLength="123" x="89" y="169.1074">LendingServiceImpl</text><line style="stroke:#181818;stroke-width:0.5;" x1="22" x2="279" y1="177.6211" y2="177.6211"/><line style="stroke:#181818;stroke-width:0.5;" x1="22" x2="279" y1="185.6211" y2="185.6211"/><text fill="#000000" font-family="sans-serif" font-size="14" lengthAdjust="spacing" textLength="247" x="27" y="204.7285">+getAverageLendingDuration(): double</text></g><!--class LendingRepository--><g id="elem_LendingRepository"><rect codeLine="28" fill="#F1F1F1" height="79.2031" id="LendingRepository" rx="2.5" ry="2.5" style="stroke:#181818;stroke-width:0.5;" width="165" x="68" y="291"/><text fill="#000000" font-family="sans-serif" font-size="12" font-style="italic" lengthAdjust="spacing" textLength="61" x="120" y="308.9492">&#171;interface&#187;</text><text fill="#000000" font-family="sans-serif" font-size="14" font-style="italic" lengthAdjust="spacing" textLength="119" x="91" y="327.0684">LendingRepository</text><line style="stroke:#181818;stroke-width:0.5;" x1="69" x2="232" y1="335.582" y2="335.582"/><line style="stroke:#181818;stroke-width:0.5;" x1="69" x2="232" y1="343.582" y2="343.582"/><text fill="#000000" font-family="sans-serif" font-size="14" lengthAdjust="spacing" textLength="153" x="74" y="362.6895">+findAll(): List&lt;Lending&gt;</text></g><!--class lendDate--><g id="elem_lendDate"><rect fill="#F1F1F1" height="44.6211" id="lendDate" rx="2.5" ry="2.5" style="stroke:#181818;stroke-width:0.5;" width="63" x="7" y="759"/><text fill="#000000" font-family="sans-serif" font-size="14" lengthAdjust="spacing" textLength="57" x="10" y="779.1074">lendDate</text><line style="stroke:#181818;stroke-width:0.5;" x1="8" x2="69" y1="787.6211" y2="787.6211"/><line style="stroke:#181818;stroke-width:0.5;" x1="8" x2="69" y1="795.6211" y2="795.6211"/></g><!--class returnedDate--><g id="elem_returnedDate"><rect fill="#F1F1F1" height="44.6211" id="returnedDate" rx="2.5" ry="2.5" style="stroke:#181818;stroke-width:0.5;" width="90" x="105.5" y="759"/><text fill="#000000" font-family="sans-serif" font-size="14" lengthAdjust="spacing" textLength="84" x="108.5" y="779.1074">returnedDate</text><line style="stroke:#181818;stroke-width:0.5;" x1="106.5" x2="194.5" y1="787.6211" y2="787.6211"/><line style="stroke:#181818;stroke-width:0.5;" x1="106.5" x2="194.5" y1="795.6211" y2="795.6211"/></g><!--class limitDate--><g id="elem_limitDate"><rect fill="#F1F1F1" height="44.6211" id="limitDate" rx="2.5" ry="2.5" style="stroke:#181818;stroke-width:0.5;" width="60" x="230.5" y="759"/><text fill="#000000" font-family="sans-serif" font-size="14" lengthAdjust="spacing" textLength="54" x="233.5" y="779.1074">limitDate</text><line style="stroke:#181818;stroke-width:0.5;" x1="231.5" x2="289.5" y1="787.6211" y2="787.6211"/><line style="stroke:#181818;stroke-width:0.5;" x1="231.5" x2="289.5" y1="795.6211" y2="795.6211"/></g><!--link LendingController to LendingServiceImpl--><g id="link_LendingController_LendingServiceImpl"><path codeLine="32" d="M150.5,70.22 C150.5,93.57 150.5,119.52 150.5,142.85 " fill="none" id="LendingController-to-LendingServiceImpl" style="stroke:#181818;stroke-width:1.0;stroke-dasharray:7.0,7.0;"/><polygon fill="#181818" points="150.5,148.85,154.5,139.85,150.5,143.85,146.5,139.85,150.5,148.85" style="stroke:#181818;stroke-width:1.0;"/><text fill="#000000" font-family="sans-serif" font-size="13" lengthAdjust="spacing" textLength="28" x="151.5" y="115.0283">uses</text></g><!--link LendingServiceImpl to LendingRepository--><g id="link_LendingServiceImpl_LendingRepository"><path codeLine="33" d="M150.5,212.17 C150.5,235.03 150.5,260.41 150.5,284.96 " fill="none" id="LendingServiceImpl-to-LendingRepository" style="stroke:#181818;stroke-width:1.0;stroke-dasharray:7.0,7.0;"/><polygon fill="#181818" points="150.5,290.96,154.5,281.96,150.5,285.96,146.5,281.96,150.5,290.96" style="stroke:#181818;stroke-width:1.0;"/><text fill="#000000" font-family="sans-serif" font-size="13" lengthAdjust="spacing" textLength="28" x="151.5" y="257.0283">uses</text></g><!--link LendingRepository to Lending--><g id="link_LendingRepository_Lending"><path codeLine="34" d="M150.5,370.22 C150.5,391.91 150.5,414.29 150.5,442.9 " fill="none" id="LendingRepository-to-Lending" style="stroke:#181818;stroke-width:1.0;stroke-dasharray:7.0,7.0;"/><polygon fill="#181818" points="150.5,448.9,154.5,439.9,150.5,443.9,146.5,439.9,150.5,448.9" style="stroke:#181818;stroke-width:1.0;"/><text fill="#000000" font-family="sans-serif" font-size="13" lengthAdjust="spacing" textLength="56" x="151.5" y="415.0283">accesses</text></g><!--reverse link Lending to lendDate--><g id="link_Lending_lendDate"><path codeLine="36" d="M77.5173,708.7421 C64.7873,732.1521 58.6,743.53 50.27,758.86 " fill="none" id="Lending-backto-lendDate" style="stroke:#181818;stroke-width:1.0;"/><polygon fill="#181818" points="83.25,698.2,76.8696,701.5602,77.5173,708.7421,83.8977,705.382,83.25,698.2" style="stroke:#181818;stroke-width:1.0;"/><text fill="#000000" font-family="sans-serif" font-size="13" lengthAdjust="spacing" textLength="7" x="71.9387" y="720.3403">1</text><text fill="#000000" font-family="sans-serif" font-size="13" lengthAdjust="spacing" textLength="7" x="45.4926" y="747.6095">1</text></g><!--reverse link Lending to returnedDate--><g id="link_Lending_returnedDate"><path codeLine="37" d="M150.5,710.2 C150.5,733.61 150.5,743.53 150.5,758.86 " fill="none" id="Lending-backto-returnedDate" style="stroke:#181818;stroke-width:1.0;"/><polygon fill="#181818" points="150.5,698.2,146.5,704.2,150.5,710.2,154.5,704.2,150.5,698.2" style="stroke:#181818;stroke-width:1.0;"/><text fill="#000000" font-family="sans-serif" font-size="13" lengthAdjust="spacing" textLength="7" x="143.2867" y="720.3403">1</text><text fill="#000000" font-family="sans-serif" font-size="13" lengthAdjust="spacing" textLength="7" x="142.5594" y="747.6095">1</text></g><!--reverse link Lending to limitDate--><g id="link_Lending_limitDate"><path codeLine="38" d="M222.2022,708.7855 C234.7022,732.1955 240.76,743.53 248.94,758.86 " fill="none" id="Lending-backto-limitDate" style="stroke:#181818;stroke-width:1.0;"/><polygon fill="#181818" points="216.55,698.2,215.8476,705.3768,222.2022,708.7855,222.9046,701.6087,216.55,698.2" style="stroke:#181818;stroke-width:1.0;"/><text fill="#000000" font-family="sans-serif" font-size="13" lengthAdjust="spacing" textLength="7" x="213.3616" y="720.3403">1</text><text fill="#000000" font-family="sans-serif" font-size="13" lengthAdjust="spacing" textLength="7" x="237.8926" y="747.6095">1</text></g><!--SRC=[bPBTQeD048NlVOebD_t3fBsL88I4WX0e97c1pUx431btPNSCfANltjKQQwozg3UBSyv-PsRqxiXS-cGsAqaQhWgQAblC54dlOuqoTxA8eYDg40gT8eZy2KqfGraqfWMpmtt5a2bhjlWEuZcA6aMimMWqkVY8H7XYWJeHQslozfM-vQNLa8Xje7JA6Pn7Qn91Fsu7KeFBRX5xQqyZfHqo3PbQNlmEYJR0bGlep33au7hgMuZL5Gob0vfGUoKhkMkbHa383M44qhJriBW237V1duD5BArXPud0jIjv4Zdm8iJA75hFgdAIm-pt3udGjjg7XGynMt1dL90L9VsNWs4oTv0AhgmDbDOZMtSHytcdfca73jFh1L6DMQFdUNilhMc_nvfEqx4k4r5vyD68qhlGQ-NMtnDwzc2IIe6lZLUdcBnCn6CSDsVzUwqamwXu_OH_6WWBv4Rz0W00]--></g></svg>