<?xml version="1.0" encoding="us-ascii" standalone="no"?><svg xmlns="http://www.w3.org/2000/svg" xmlns:xlink="http://www.w3.org/1999/xlink" contentStyleType="text/css" height="660px" preserveAspectRatio="none" style="width:1753px;height:660px;background:#FFFFFF;" version="1.1" viewBox="0 0 1753 660" width="1753px" zoomAndPan="magnify"><defs/><g><rect fill="#FFFFFF" height="565.3164" style="stroke:#181818;stroke-width:1.0;" width="10" x="82" y="48.6211"/><rect fill="#FFFFFF" height="542.0254" style="stroke:#181818;stroke-width:1.0;" width="10" x="250.5" y="71.9121"/><rect fill="#FFFFFF" height="36.291" style="stroke:#181818;stroke-width:1.0;" width="10" x="255.5" y="568.6465"/><rect fill="#FFFFFF" height="426.1523" style="stroke:#181818;stroke-width:1.0;" width="10" x="444.5" y="103.2031"/><rect fill="#FFFFFF" height="257.3672" style="stroke:#181818;stroke-width:1.0;" width="10" x="680.5" y="134.4941"/><rect fill="#FFFFFF" height="42.291" style="stroke:#181818;stroke-width:1.0;" width="10" x="685.5" y="173.7852"/><rect fill="#FFFFFF" height="31.291" style="stroke:#181818;stroke-width:1.0;" width="10" x="932.5" y="329.2793"/><rect fill="#FFFFFF" height="359.5703" style="stroke:#181818;stroke-width:1.0;" width="10" x="1101" y="254.3672"/><rect fill="#FFFFFF" height="31.291" style="stroke:#181818;stroke-width:1.0;" width="10" x="1654.5" y="423.1523"/><line style="stroke:#181818;stroke-width:0.5;stroke-dasharray:5.0,5.0;" x1="87" x2="87" y1="38.6211" y2="622.9375"/><line style="stroke:#181818;stroke-width:0.5;stroke-dasharray:5.0,5.0;" x1="255" x2="255" y1="38.6211" y2="622.9375"/><line style="stroke:#181818;stroke-width:0.5;stroke-dasharray:5.0,5.0;" x1="449.5" x2="449.5" y1="38.6211" y2="622.9375"/><line style="stroke:#181818;stroke-width:0.5;stroke-dasharray:5.0,5.0;" x1="685.5" x2="685.5" y1="38.6211" y2="622.9375"/><line style="stroke:#181818;stroke-width:0.5;stroke-dasharray:5.0,5.0;" x1="937" x2="937" y1="38.6211" y2="622.9375"/><line style="stroke:#181818;stroke-width:0.5;stroke-dasharray:5.0,5.0;" x1="1106" x2="1106" y1="38.6211" y2="622.9375"/><line style="stroke:#181818;stroke-width:0.5;stroke-dasharray:5.0,5.0;" x1="1393" x2="1393" y1="294.1777" y2="622.9375"/><line style="stroke:#181818;stroke-width:0.5;stroke-dasharray:5.0,5.0;" x1="1503" x2="1503" y1="494.2539" y2="622.9375"/><line style="stroke:#181818;stroke-width:0.5;stroke-dasharray:5.0,5.0;" x1="1659" x2="1659" y1="38.6211" y2="622.9375"/><rect fill="#E2E2F0" height="32.6211" rx="2.5" ry="2.5" style="stroke:#181818;stroke-width:0.5;" width="164" x="5" y="5"/><text fill="#000000" font-family="sans-serif" font-size="14" lengthAdjust="spacing" textLength="150" x="12" y="27.1074">Anonymous:HTTPClient</text><rect fill="#E2E2F0" height="32.6211" rx="2.5" ry="2.5" style="stroke:#181818;stroke-width:0.5;" width="164" x="5" y="621.9375"/><text fill="#000000" font-family="sans-serif" font-size="14" lengthAdjust="spacing" textLength="150" x="12" y="644.0449">Anonymous:HTTPClient</text><rect fill="#E2E2F0" height="32.6211" rx="2.5" ry="2.5" style="stroke:#181818;stroke-width:0.5;" width="153" x="179" y="5"/><text fill="#000000" font-family="sans-serif" font-size="14" lengthAdjust="spacing" textLength="139" x="186" y="27.1074">handler:RouteHandler</text><rect fill="#E2E2F0" height="32.6211" rx="2.5" ry="2.5" style="stroke:#181818;stroke-width:0.5;" width="153" x="179" y="621.9375"/><text fill="#000000" font-family="sans-serif" font-size="14" lengthAdjust="spacing" textLength="139" x="186" y="644.0449">handler:RouteHandler</text><rect fill="#E2E2F0" height="32.6211" rx="2.5" ry="2.5" style="stroke:#181818;stroke-width:0.5;" width="112" x="393.5" y="5"/><text fill="#000000" font-family="sans-serif" font-size="14" lengthAdjust="spacing" textLength="98" x="400.5" y="27.1074">:BookController</text><rect fill="#E2E2F0" height="32.6211" rx="2.5" ry="2.5" style="stroke:#181818;stroke-width:0.5;" width="112" x="393.5" y="621.9375"/><text fill="#000000" font-family="sans-serif" font-size="14" lengthAdjust="spacing" textLength="98" x="400.5" y="644.0449">:BookController</text><rect fill="#E2E2F0" height="32.6211" rx="2.5" ry="2.5" style="stroke:#181818;stroke-width:0.5;" width="142" x="614.5" y="5"/><text fill="#000000" font-family="sans-serif" font-size="14" lengthAdjust="spacing" textLength="128" x="621.5" y="27.1074">service:BookService</text><rect fill="#E2E2F0" height="32.6211" rx="2.5" ry="2.5" style="stroke:#181818;stroke-width:0.5;" width="142" x="614.5" y="621.9375"/><text fill="#000000" font-family="sans-serif" font-size="14" lengthAdjust="spacing" textLength="128" x="621.5" y="644.0449">service:BookService</text><rect fill="#E2E2F0" height="32.6211" rx="2.5" ry="2.5" style="stroke:#181818;stroke-width:0.5;" width="147" x="864" y="5"/><text fill="#000000" font-family="sans-serif" font-size="14" lengthAdjust="spacing" textLength="133" x="871" y="27.1074">repo:BookRepository</text><rect fill="#E2E2F0" height="32.6211" rx="2.5" ry="2.5" style="stroke:#181818;stroke-width:0.5;" width="147" x="864" y="621.9375"/><text fill="#000000" font-family="sans-serif" font-size="14" lengthAdjust="spacing" textLength="133" x="871" y="644.0449">repo:BookRepository</text><rect fill="#E2E2F0" height="32.6211" rx="2.5" ry="2.5" style="stroke:#181818;stroke-width:0.5;" width="170" x="1021" y="5"/><text fill="#000000" font-family="sans-serif" font-size="14" lengthAdjust="spacing" textLength="156" x="1028" y="27.1074">mapper:EditBookMapper</text><rect fill="#E2E2F0" height="32.6211" rx="2.5" ry="2.5" style="stroke:#181818;stroke-width:0.5;" width="170" x="1021" y="621.9375"/><text fill="#000000" font-family="sans-serif" font-size="14" lengthAdjust="spacing" textLength="156" x="1028" y="644.0449">mapper:EditBookMapper</text><rect fill="#E2E2F0" height="32.6211" rx="2.5" ry="2.5" style="stroke:#181818;stroke-width:0.5;" width="81" x="1353" y="621.9375"/><text fill="#000000" font-family="sans-serif" font-size="14" lengthAdjust="spacing" textLength="67" x="1360" y="644.0449">book:Book</text><rect fill="#E2E2F0" height="32.6211" rx="2.5" ry="2.5" style="stroke:#181818;stroke-width:0.5;" width="118" x="1444" y="621.9375"/><text fill="#000000" font-family="sans-serif" font-size="14" lengthAdjust="spacing" textLength="104" x="1451" y="644.0449">result:HttpResult</text><rect fill="#E2E2F0" height="32.6211" rx="2.5" ry="2.5" style="stroke:#181818;stroke-width:0.5;" width="175" x="1572" y="5"/><text fill="#000000" font-family="sans-serif" font-size="14" lengthAdjust="spacing" textLength="161" x="1579" y="27.1074">mapper:BookViewMapper</text><rect fill="#E2E2F0" height="32.6211" rx="2.5" ry="2.5" style="stroke:#181818;stroke-width:0.5;" width="175" x="1572" y="621.9375"/><text fill="#000000" font-family="sans-serif" font-size="14" lengthAdjust="spacing" textLength="161" x="1579" y="644.0449">mapper:BookViewMapper</text><rect fill="#FFFFFF" height="565.3164" style="stroke:#181818;stroke-width:1.0;" width="10" x="82" y="48.6211"/><rect fill="#FFFFFF" height="542.0254" style="stroke:#181818;stroke-width:1.0;" width="10" x="250.5" y="71.9121"/><rect fill="#FFFFFF" height="36.291" style="stroke:#181818;stroke-width:1.0;" width="10" x="255.5" y="568.6465"/><rect fill="#FFFFFF" height="426.1523" style="stroke:#181818;stroke-width:1.0;" width="10" x="444.5" y="103.2031"/><rect fill="#FFFFFF" height="257.3672" style="stroke:#181818;stroke-width:1.0;" width="10" x="680.5" y="134.4941"/><rect fill="#FFFFFF" height="42.291" style="stroke:#181818;stroke-width:1.0;" width="10" x="685.5" y="173.7852"/><rect fill="#FFFFFF" height="31.291" style="stroke:#181818;stroke-width:1.0;" width="10" x="932.5" y="329.2793"/><rect fill="#FFFFFF" height="359.5703" style="stroke:#181818;stroke-width:1.0;" width="10" x="1101" y="254.3672"/><rect fill="#FFFFFF" height="31.291" style="stroke:#181818;stroke-width:1.0;" width="10" x="1654.5" y="423.1523"/><polygon fill="#181818" points="238.5,67.9121,248.5,71.9121,238.5,75.9121,242.5,71.9121" style="stroke:#181818;stroke-width:1.0;"/><line style="stroke:#181818;stroke-width:1.0;" x1="92" x2="244.5" y1="71.9121" y2="71.9121"/><text fill="#000000" font-family="sans-serif" font-size="13" font-weight="bold" lengthAdjust="spacing" textLength="7" x="99" y="66.6494">1</text><text fill="#000000" font-family="sans-serif" font-size="13" lengthAdjust="spacing" textLength="105" x="110" y="66.6494">PUT /books (data)</text><polygon fill="#181818" points="432.5,99.2031,442.5,103.2031,432.5,107.2031,436.5,103.2031" style="stroke:#181818;stroke-width:1.0;"/><line style="stroke:#181818;stroke-width:1.0;" x1="260.5" x2="438.5" y1="103.2031" y2="103.2031"/><text fill="#000000" font-family="sans-serif" font-size="13" font-weight="bold" lengthAdjust="spacing" textLength="7" x="267.5" y="97.9404">2</text><text fill="#000000" font-family="sans-serif" font-size="13" lengthAdjust="spacing" textLength="124" x="278.5" y="97.9404">createBook(resource)</text><polygon fill="#181818" points="668.5,130.4941,678.5,134.4941,668.5,138.4941,672.5,134.4941" style="stroke:#181818;stroke-width:1.0;"/><line style="stroke:#181818;stroke-width:1.0;" x1="454.5" x2="674.5" y1="134.4941" y2="134.4941"/><text fill="#000000" font-family="sans-serif" font-size="13" font-weight="bold" lengthAdjust="spacing" textLength="7" x="461.5" y="129.2314">3</text><text fill="#000000" font-family="sans-serif" font-size="13" lengthAdjust="spacing" textLength="196" x="472.5" y="129.2314">createBook(resource, coverPhoto)</text><line style="stroke:#181818;stroke-width:1.0;" x1="690.5" x2="737.5" y1="160.7852" y2="160.7852"/><line style="stroke:#181818;stroke-width:1.0;" x1="737.5" x2="737.5" y1="160.7852" y2="173.7852"/><line style="stroke:#181818;stroke-width:1.0;" x1="696.5" x2="737.5" y1="173.7852" y2="173.7852"/><polygon fill="#181818" points="706.5,169.7852,696.5,173.7852,706.5,177.7852,702.5,173.7852" style="stroke:#181818;stroke-width:1.0;"/><text fill="#000000" font-family="sans-serif" font-size="13" font-weight="bold" lengthAdjust="spacing" textLength="7" x="702.5" y="155.5225">4</text><text fill="#000000" font-family="sans-serif" font-size="13" lengthAdjust="spacing" textLength="217" x="713.5" y="155.5225">validateCreateBookRequest(resource)</text><line style="stroke:#181818;stroke-width:1.0;stroke-dasharray:2.0,2.0;" x1="695.5" x2="737.5" y1="215.0762" y2="215.0762"/><line style="stroke:#181818;stroke-width:1.0;stroke-dasharray:2.0,2.0;" x1="737.5" x2="737.5" y1="215.0762" y2="228.0762"/><line style="stroke:#181818;stroke-width:1.0;stroke-dasharray:2.0,2.0;" x1="690.5" x2="737.5" y1="228.0762" y2="228.0762"/><polygon fill="#181818" points="700.5,224.0762,690.5,228.0762,700.5,232.0762,696.5,228.0762" style="stroke:#181818;stroke-width:1.0;"/><text fill="#000000" font-family="sans-serif" font-size="13" font-weight="bold" lengthAdjust="spacing" textLength="7" x="702.5" y="209.8135">5</text><text fill="#000000" font-family="sans-serif" font-size="13" lengthAdjust="spacing" textLength="19" x="713.5" y="209.8135">OK</text><polygon fill="#181818" points="1089,250.3672,1099,254.3672,1089,258.3672,1093,254.3672" style="stroke:#181818;stroke-width:1.0;"/><line style="stroke:#181818;stroke-width:1.0;" x1="690.5" x2="1095" y1="254.3672" y2="254.3672"/><text fill="#000000" font-family="sans-serif" font-size="13" font-weight="bold" lengthAdjust="spacing" textLength="7" x="697.5" y="249.1045">6</text><text fill="#000000" font-family="sans-serif" font-size="13" lengthAdjust="spacing" textLength="94" x="708.5" y="249.1045">create(resource)</text><polygon fill="#181818" points="1341,281.6582,1351,285.6582,1341,289.6582,1345,285.6582" style="stroke:#181818;stroke-width:1.0;"/><line style="stroke:#181818;stroke-width:1.0;stroke-dasharray:2.0,2.0;" x1="1111" x2="1347" y1="285.6582" y2="285.6582"/><text fill="#000000" font-family="sans-serif" font-size="13" font-weight="bold" lengthAdjust="spacing" textLength="7" x="1118" y="280.3955">7</text><text fill="#000000" font-family="sans-serif" font-size="13" lengthAdjust="spacing" textLength="207" x="1129" y="280.3955">create(CreateBookRequest request)</text><rect fill="#E2E2F0" height="32.6211" rx="2.5" ry="2.5" style="stroke:#181818;stroke-width:0.5;" width="81" x="1353" y="262.3672"/><text fill="#000000" font-family="sans-serif" font-size="14" lengthAdjust="spacing" textLength="67" x="1360" y="284.4746">book:Book</text><polygon fill="#181818" points="920.5,325.2793,930.5,329.2793,920.5,333.2793,924.5,329.2793" style="stroke:#181818;stroke-width:1.0;"/><line style="stroke:#181818;stroke-width:1.0;" x1="690.5" x2="926.5" y1="329.2793" y2="329.2793"/><text fill="#000000" font-family="sans-serif" font-size="13" font-weight="bold" lengthAdjust="spacing" textLength="7" x="697.5" y="324.0166">8</text><text fill="#000000" font-family="sans-serif" font-size="13" lengthAdjust="spacing" textLength="62" x="708.5" y="324.0166">save(book)</text><polygon fill="#181818" points="701.5,356.5703,691.5,360.5703,701.5,364.5703,697.5,360.5703" style="stroke:#181818;stroke-width:1.0;"/><line style="stroke:#181818;stroke-width:1.0;stroke-dasharray:2.0,2.0;" x1="695.5" x2="936.5" y1="360.5703" y2="360.5703"/><text fill="#000000" font-family="sans-serif" font-size="13" font-weight="bold" lengthAdjust="spacing" textLength="7" x="707.5" y="355.3076">9</text><text fill="#000000" font-family="sans-serif" font-size="13" lengthAdjust="spacing" textLength="28" x="718.5" y="355.3076">book</text><polygon fill="#181818" points="465.5,387.8613,455.5,391.8613,465.5,395.8613,461.5,391.8613" style="stroke:#181818;stroke-width:1.0;"/><line style="stroke:#181818;stroke-width:1.0;stroke-dasharray:2.0,2.0;" x1="459.5" x2="684.5" y1="391.8613" y2="391.8613"/><text fill="#000000" font-family="sans-serif" font-size="13" font-weight="bold" lengthAdjust="spacing" textLength="14" x="471.5" y="386.5986">10</text><text fill="#000000" font-family="sans-serif" font-size="13" lengthAdjust="spacing" textLength="28" x="489.5" y="386.5986">book</text><polygon fill="#181818" points="1642.5,419.1523,1652.5,423.1523,1642.5,427.1523,1646.5,423.1523" style="stroke:#181818;stroke-width:1.0;"/><line style="stroke:#181818;stroke-width:1.0;" x1="454.5" x2="1648.5" y1="423.1523" y2="423.1523"/><text fill="#000000" font-family="sans-serif" font-size="13" font-weight="bold" lengthAdjust="spacing" textLength="14" x="461.5" y="417.8896">11</text><text fill="#000000" font-family="sans-serif" font-size="13" lengthAdjust="spacing" textLength="105" x="479.5" y="417.8896">toBookView(book)</text><polygon fill="#181818" points="465.5,450.4434,455.5,454.4434,465.5,458.4434,461.5,454.4434" style="stroke:#181818;stroke-width:1.0;"/><line style="stroke:#181818;stroke-width:1.0;stroke-dasharray:2.0,2.0;" x1="459.5" x2="1658.5" y1="454.4434" y2="454.4434"/><text fill="#000000" font-family="sans-serif" font-size="13" font-weight="bold" lengthAdjust="spacing" textLength="14" x="471.5" y="449.1807">12</text><text fill="#000000" font-family="sans-serif" font-size="13" lengthAdjust="spacing" textLength="56" x="489.5" y="449.1807">bookView</text><polygon fill="#181818" points="1432,481.7344,1442,485.7344,1432,489.7344,1436,485.7344" style="stroke:#181818;stroke-width:1.0;"/><line style="stroke:#181818;stroke-width:1.0;stroke-dasharray:2.0,2.0;" x1="454.5" x2="1438" y1="485.7344" y2="485.7344"/><text fill="#000000" font-family="sans-serif" font-size="13" font-weight="bold" lengthAdjust="spacing" textLength="14" x="461.5" y="480.4717">13</text><text fill="#000000" font-family="sans-serif" font-size="13" lengthAdjust="spacing" textLength="129" x="479.5" y="480.4717">create(201, bookView)</text><rect fill="#E2E2F0" height="32.6211" rx="2.5" ry="2.5" style="stroke:#181818;stroke-width:0.5;" width="118" x="1444" y="462.4434"/><text fill="#000000" font-family="sans-serif" font-size="14" lengthAdjust="spacing" textLength="104" x="1451" y="484.5508">result:HttpResult</text><polygon fill="#181818" points="271.5,525.3555,261.5,529.3555,271.5,533.3555,267.5,529.3555" style="stroke:#181818;stroke-width:1.0;"/><line style="stroke:#181818;stroke-width:1.0;stroke-dasharray:2.0,2.0;" x1="265.5" x2="448.5" y1="529.3555" y2="529.3555"/><text fill="#000000" font-family="sans-serif" font-size="13" font-weight="bold" lengthAdjust="spacing" textLength="14" x="277.5" y="524.0928">14</text><text fill="#000000" font-family="sans-serif" font-size="13" lengthAdjust="spacing" textLength="32" x="295.5" y="524.0928">result</text><line style="stroke:#181818;stroke-width:1.0;" x1="260.5" x2="307.5" y1="555.6465" y2="555.6465"/><line style="stroke:#181818;stroke-width:1.0;" x1="307.5" x2="307.5" y1="555.6465" y2="568.6465"/><line style="stroke:#181818;stroke-width:1.0;" x1="266.5" x2="307.5" y1="568.6465" y2="568.6465"/><polygon fill="#181818" points="276.5,564.6465,266.5,568.6465,276.5,572.6465,272.5,568.6465" style="stroke:#181818;stroke-width:1.0;"/><text fill="#000000" font-family="sans-serif" font-size="13" font-weight="bold" lengthAdjust="spacing" textLength="14" x="272.5" y="550.3838">15</text><text fill="#000000" font-family="sans-serif" font-size="13" lengthAdjust="spacing" textLength="152" x="290.5" y="550.3838">setHttpResult(resp, result)</text><polygon fill="#181818" points="103,600.9375,93,604.9375,103,608.9375,99,604.9375" style="stroke:#181818;stroke-width:1.0;"/><line style="stroke:#181818;stroke-width:1.0;stroke-dasharray:2.0,2.0;" x1="97" x2="249.5" y1="604.9375" y2="604.9375"/><text fill="#000000" font-family="sans-serif" font-size="13" font-weight="bold" lengthAdjust="spacing" textLength="14" x="109" y="599.6748">16</text><text fill="#000000" font-family="sans-serif" font-size="13" lengthAdjust="spacing" textLength="25" x="127" y="599.6748">resp</text><!--SRC=[RPB1Rjim38RlUWgXboL5kgmxwZ2W3GO4A8e6QRgxwX2DK5lK9Df5tdwYP4TMrvD9wkDFckIt4v4BQhrshRRKT-tt1hjrWByzs0PkZaQ_UTq9eNj2tP0PD854ctpRTw_WXN3QascCYmBowiwYFNVO1xKz77QRre2bAwc3B6wTSDBss89NU-m9jjb92S_dGD3LiBf7VD-W9O_jn6t8jpKLm0-cWGG_PpihPhk6FJXCv3uQmH3wSuBPhSbEEnSR_NqqnFnZSXDRX-girnXF-ebautFzqBUajd4F-sIErTdyiZvB_37mCQjVtBYfQKkpWOjYovjVusILtBqSv9hx2t9nrAIN8hymmrDLil4GfRZY8lQ9lMzWAVWfoOnZ_efQoGO7yBiJ4aRPJ5P9WsvDB0gRI_AUhoxGhD8bRvxuz33NgqS_zJBJg84anUxrzONzhmFfyxTgdEz1oQ07MF38be83TMSShthEGqpXQMXbLKeIJhiS9SlZftH-62LIAtmSip_u-UDsTU6M1PmMdMzijjtf8G2Lm-EXkTK8brk8U3cVfEN4Fm00]--></g></svg>