<?xml version="1.0" encoding="us-ascii" standalone="no"?><svg xmlns="http://www.w3.org/2000/svg" xmlns:xlink="http://www.w3.org/1999/xlink" contentStyleType="text/css" height="450px" preserveAspectRatio="none" style="width:2158px;height:450px;background:#FFFFFF;" version="1.1" viewBox="0 0 2158 450" width="2158px" zoomAndPan="magnify"><defs/><g><!--class RouteHandler--><g id="elem_RouteHandler"><rect codeLine="7" fill="#F1F1F1" height="63.2422" id="RouteHandler" rx="2.5" ry="2.5" style="stroke:#181818;stroke-width:0.5;" width="520" x="7" y="269"/><text fill="#000000" font-family="sans-serif" font-size="14" lengthAdjust="spacing" textLength="87" x="223.5" y="289.1074">RouteHandler</text><line style="stroke:#181818;stroke-width:0.5;" x1="8" x2="526" y1="297.6211" y2="297.6211"/><line style="stroke:#181818;stroke-width:0.5;" x1="8" x2="526" y1="305.6211" y2="305.6211"/><text fill="#000000" font-family="sans-serif" font-size="14" lengthAdjust="spacing" textLength="508" x="13" y="324.7285">+createBook(CreateBookRequest resource,MultipartFile coverPhoto): HttpResult</text></g><!--class BookController--><g id="elem_BookController"><rect codeLine="11" fill="#F1F1F1" height="81.8633" id="BookController" rx="2.5" ry="2.5" style="stroke:#181818;stroke-width:0.5;" width="495" x="587" y="259.5"/><text fill="#000000" font-family="sans-serif" font-size="14" lengthAdjust="spacing" textLength="94" x="787.5" y="279.6074">BookController</text><line style="stroke:#181818;stroke-width:0.5;" x1="588" x2="1081" y1="288.1211" y2="288.1211"/><line style="stroke:#181818;stroke-width:0.5;" x1="588" x2="1081" y1="296.1211" y2="296.1211"/><text fill="#000000" font-family="sans-serif" font-size="14" lengthAdjust="spacing" textLength="483" x="593" y="315.2285">+createBook(CreateBookRequest resource,MultipartFile coverPhoto): Result</text><text fill="#000000" font-family="sans-serif" font-size="14" lengthAdjust="spacing" textLength="165" x="593" y="333.8496">+toCreateBookView(book)</text></g><!--class BookServiceImpl--><g id="elem_BookServiceImpl"><rect codeLine="16" fill="#F1F1F1" height="100.4844" id="BookServiceImpl" rx="2.5" ry="2.5" style="stroke:#181818;stroke-width:0.5;" width="481" x="1142" y="56.5"/><text fill="#000000" font-family="sans-serif" font-size="14" lengthAdjust="spacing" textLength="104" x="1330.5" y="76.6074">BookServiceImpl</text><line style="stroke:#181818;stroke-width:0.5;" x1="1143" x2="1622" y1="85.1211" y2="85.1211"/><line style="stroke:#181818;stroke-width:0.5;" x1="1143" x2="1622" y1="93.1211" y2="93.1211"/><text fill="#000000" font-family="sans-serif" font-size="14" lengthAdjust="spacing" textLength="252" x="1148" y="112.2285">-validateCreateBookRequest(resource);</text><text fill="#000000" font-family="sans-serif" font-size="14" lengthAdjust="spacing" textLength="469" x="1148" y="130.8496">+createBook(final CreateBookRequest resource, MultipartFile coverPhoto)</text><text fill="#000000" font-family="sans-serif" font-size="14" lengthAdjust="spacing" textLength="324" x="1148" y="149.4707">+doUploadFile(book.getId().toString(), coverPhoto);</text></g><!--class EditBookMapper--><g id="elem_EditBookMapper"><rect codeLine="22" fill="#F1F1F1" height="63.2422" id="EditBookMapper" rx="2.5" ry="2.5" style="stroke:#181818;stroke-width:0.5;" width="126" x="1776" y="7"/><text fill="#000000" font-family="sans-serif" font-size="14" lengthAdjust="spacing" textLength="104" x="1787" y="27.1074">EditBookMapper</text><line style="stroke:#181818;stroke-width:0.5;" x1="1777" x2="1901" y1="35.6211" y2="35.6211"/><line style="stroke:#181818;stroke-width:0.5;" x1="1777" x2="1901" y1="43.6211" y2="43.6211"/><text fill="#000000" font-family="sans-serif" font-size="14" lengthAdjust="spacing" textLength="114" x="1782" y="62.7285">+create(resource)</text></g><!--class Book--><g id="elem_Book"><rect codeLine="26" fill="#F1F1F1" height="137.7266" id="Book" rx="2.5" ry="2.5" style="stroke:#181818;stroke-width:0.5;" width="312" x="1683" y="105.5"/><text fill="#000000" font-family="sans-serif" font-size="14" lengthAdjust="spacing" textLength="32" x="1823" y="125.6074">Book</text><line style="stroke:#181818;stroke-width:0.5;" x1="1684" x2="1994" y1="134.1211" y2="134.1211"/><text fill="#000000" font-family="sans-serif" font-size="14" lengthAdjust="spacing" textLength="31" x="1689" y="153.2285">-isbn</text><text fill="#000000" font-family="sans-serif" font-size="14" lengthAdjust="spacing" textLength="27" x="1689" y="171.8496">-title</text><text fill="#000000" font-family="sans-serif" font-size="14" lengthAdjust="spacing" textLength="85" x="1689" y="190.4707">-bookAuthors</text><text fill="#000000" font-family="sans-serif" font-size="14" lengthAdjust="spacing" textLength="74" x="1689" y="209.0918">-description</text><line style="stroke:#181818;stroke-width:0.5;" x1="1684" x2="1994" y1="216.6055" y2="216.6055"/><text fill="#000000" font-family="sans-serif" font-size="14" lengthAdjust="spacing" textLength="300" x="1689" y="235.7129">Book(isbn, title,bookAuthors, description=None)</text></g><!--class BookCover--><g id="elem_BookCover"><rect codeLine="34" fill="#F1F1F1" height="100.4844" id="BookCover" rx="2.5" ry="2.5" style="stroke:#181818;stroke-width:0.5;" width="96" x="2055" y="124.5"/><text fill="#000000" font-family="sans-serif" font-size="14" lengthAdjust="spacing" textLength="70" x="2068" y="144.6074">BookCover</text><line style="stroke:#181818;stroke-width:0.5;" x1="2056" x2="2150" y1="153.1211" y2="153.1211"/><text fill="#000000" font-family="sans-serif" font-size="14" lengthAdjust="spacing" textLength="16" x="2061" y="172.2285">-id</text><text fill="#000000" font-family="sans-serif" font-size="14" lengthAdjust="spacing" textLength="43" x="2061" y="190.8496">-image</text><text fill="#000000" font-family="sans-serif" font-size="14" lengthAdjust="spacing" textLength="84" x="2061" y="209.4707">-contentType</text><line style="stroke:#181818;stroke-width:0.5;" x1="2056" x2="2150" y1="216.9844" y2="216.9844"/></g><!--class BookRepository--><g id="elem_BookRepository"><rect codeLine="40" fill="#F1F1F1" height="63.2422" id="BookRepository" rx="2.5" ry="2.5" style="stroke:#181818;stroke-width:0.5;" width="139" x="1769.5" y="311"/><text fill="#000000" font-family="sans-serif" font-size="14" lengthAdjust="spacing" textLength="100" x="1789" y="331.1074">BookRepository</text><line style="stroke:#181818;stroke-width:0.5;" x1="1770.5" x2="1907.5" y1="339.6211" y2="339.6211"/><line style="stroke:#181818;stroke-width:0.5;" x1="1770.5" x2="1907.5" y1="347.6211" y2="347.6211"/><text fill="#000000" font-family="sans-serif" font-size="14" lengthAdjust="spacing" textLength="127" x="1775.5" y="366.7285">+save(book): Result</text></g><!--class HttpResult--><g id="elem_HttpResult"><rect codeLine="44" fill="#F1F1F1" height="100.4844" id="HttpResult" rx="2.5" ry="2.5" style="stroke:#181818;stroke-width:0.5;" width="318" x="1223.5" y="191.5"/><text fill="#000000" font-family="sans-serif" font-size="14" lengthAdjust="spacing" textLength="65" x="1350" y="211.6074">HttpResult</text><line style="stroke:#181818;stroke-width:0.5;" x1="1224.5" x2="1540.5" y1="220.1211" y2="220.1211"/><text fill="#000000" font-family="sans-serif" font-size="14" lengthAdjust="spacing" textLength="116" x="1229.5" y="239.2285">-status: HttpStatus</text><text fill="#000000" font-family="sans-serif" font-size="14" lengthAdjust="spacing" textLength="74" x="1229.5" y="257.8496">-result: json</text><line style="stroke:#181818;stroke-width:0.5;" x1="1224.5" x2="1540.5" y1="265.3633" y2="265.3633"/><text fill="#000000" font-family="sans-serif" font-size="14" lengthAdjust="spacing" textLength="306" x="1229.5" y="284.4707">HttpResult(HttpStatus status, const json &amp;result);</text></g><!--class BookViewMapper--><g id="elem_BookViewMapper"><rect codeLine="50" fill="#F1F1F1" height="63.2422" id="BookViewMapper" rx="2.5" ry="2.5" style="stroke:#181818;stroke-width:0.5;" width="177" x="1294" y="327"/><text fill="#000000" font-family="sans-serif" font-size="14" lengthAdjust="spacing" textLength="109" x="1328" y="347.1074">BookViewMapper</text><line style="stroke:#181818;stroke-width:0.5;" x1="1295" x2="1470" y1="355.6211" y2="355.6211"/><line style="stroke:#181818;stroke-width:0.5;" x1="1295" x2="1470" y1="363.6211" y2="363.6211"/><text fill="#000000" font-family="sans-serif" font-size="14" lengthAdjust="spacing" textLength="165" x="1300" y="382.7285">+toCreateBookView(book)</text></g><!--link RouteHandler to BookController--><g id="link_RouteHandler_BookController"><path codeLine="56" d="M527.17,300.5 C547.07,300.5 561.13,300.5 580.95,300.5 " fill="none" id="RouteHandler-to-BookController" style="stroke:#181818;stroke-width:1.0;stroke-dasharray:7.0,7.0;"/><polygon fill="#181818" points="586.95,300.5,577.95,296.5,581.95,300.5,577.95,304.5,586.95,300.5" style="stroke:#181818;stroke-width:1.0;"/></g><!--link BookController to BookServiceImpl--><g id="link_BookController_BookServiceImpl"><path codeLine="57" d="M926.6,259.38 C986.99,232.96 1068.37,198.95 1142,173.5 C1158.83,167.69 1170.7239,163.76 1188.4539,158.32 " fill="none" id="BookController-to-BookServiceImpl" style="stroke:#181818;stroke-width:1.0;stroke-dasharray:7.0,7.0;"/><polygon fill="#181818" points="1194.19,156.56,1184.4126,155.3759,1189.4099,158.0266,1186.7592,163.024,1194.19,156.56" style="stroke:#181818;stroke-width:1.0;"/></g><!--link BookController to BookViewMapper--><g id="link_BookController_BookViewMapper"><path codeLine="58" d="M1082.14,326.71 C1157.88,334.75 1230.3835,342.457 1287.9735,348.567 " fill="none" id="BookController-to-BookViewMapper" style="stroke:#181818;stroke-width:1.0;stroke-dasharray:7.0,7.0;"/><polygon fill="#181818" points="1293.94,349.2,1285.4122,344.2728,1288.9679,348.6725,1284.5682,352.2282,1293.94,349.2" style="stroke:#181818;stroke-width:1.0;"/></g><!--link BookServiceImpl to BookRepository--><g id="link_BookServiceImpl_BookRepository"><path codeLine="59" d="M1595.43,156.55 C1605.05,161.66 1614.3,167.3 1623,173.5 C1661.23,200.79 1647.9,229.29 1683,260.5 C1708.25,282.96 1735.3305,298.7852 1764.0405,312.4252 " fill="none" id="BookServiceImpl-to-BookRepository" style="stroke:#181818;stroke-width:1.0;stroke-dasharray:7.0,7.0;"/><polygon fill="#181818" points="1769.46,315,1763.0473,307.5249,1764.9438,312.8544,1759.6143,314.7508,1769.46,315" style="stroke:#181818;stroke-width:1.0;"/></g><!--link BookServiceImpl to Book--><g id="link_BookServiceImpl_Book"><path codeLine="60" d="M1623.06,142.35 C1643.36,145.38 1657.5861,147.5121 1676.9661,150.4121 " fill="none" id="BookServiceImpl-to-Book" style="stroke:#181818;stroke-width:1.0;stroke-dasharray:7.0,7.0;"/><polygon fill="#181818" points="1682.9,151.3,1674.5911,146.0121,1677.9551,150.56,1673.4071,153.924,1682.9,151.3" style="stroke:#181818;stroke-width:1.0;"/></g><!--link BookServiceImpl to EditBookMapper--><g id="link_BookServiceImpl_EditBookMapper"><path codeLine="61" d="M1623.06,70.66 C1679.67,62.19 1729.3262,54.7688 1769.7862,48.7088 " fill="none" id="BookServiceImpl-to-EditBookMapper" style="stroke:#181818;stroke-width:1.0;stroke-dasharray:7.0,7.0;"/><polygon fill="#181818" points="1775.72,47.82,1766.2268,45.1973,1770.7752,48.5606,1767.4118,53.109,1775.72,47.82" style="stroke:#181818;stroke-width:1.0;"/></g><!--link BookRepository to BookController--><g id="link_BookRepository_BookController"><path codeLine="62" d="M1769.46,368.85 C1727.81,383.44 1673.15,400.09 1623,407.5 C1411.52,438.77 1352.77,443.24 1142,407.5 C1067.4,394.86 992.3013,368.3266 932.4613,343.7866 " fill="none" id="BookRepository-to-BookController" style="stroke:#181818;stroke-width:1.0;stroke-dasharray:7.0,7.0;"/><polygon fill="#181818" points="926.91,341.51,933.7193,348.6257,931.5361,343.4071,936.7547,341.224,926.91,341.51" style="stroke:#181818;stroke-width:1.0;"/></g><!--link BookController to HttpResult--><g id="link_BookController_HttpResult"><path codeLine="63" d="M1082.14,273.85 C1130.04,268.68 1173.0746,264.0237 1217.1846,259.2637 " fill="none" id="BookController-to-HttpResult" style="stroke:#181818;stroke-width:1.0;stroke-dasharray:7.0,7.0;"/><polygon fill="#181818" points="1223.15,258.62,1213.7728,255.6087,1218.1789,259.1564,1214.6311,263.5625,1223.15,258.62" style="stroke:#181818;stroke-width:1.0;"/></g><!--reverse link Book to BookCover--><g id="link_Book_BookCover"><path codeLine="65" d="M2007.06,174.5 C2028.71,174.5 2037.46,174.5 2054.82,174.5 " fill="none" id="Book-backto-BookCover" style="stroke:#181818;stroke-width:1.0;"/><polygon fill="#181818" points="1995.06,174.5,2001.06,178.5,2007.06,174.5,2001.06,170.5,1995.06,174.5" style="stroke:#181818;stroke-width:1.0;"/><text fill="#000000" font-family="sans-serif" font-size="13" lengthAdjust="spacing" textLength="7" x="2002.7887" y="188.9537">1</text><text fill="#000000" font-family="sans-serif" font-size="13" lengthAdjust="spacing" textLength="7" x="2039.9065" y="189.8151">1</text></g><!--SRC=[hLHDZzCm4BtxLrXxW0JI5gvTBT9IWRQ7HQXTkBlnR6BMyGHxKhGW_ZkE4pSVIrSSwAKZ-ptFUvxdl2o9QhTUhMej33MLNkPOhN8jd5j89GehAgRXdZWXjweeYKjb8IU5Xh5IIU2viha6vXwKgOM7yq2-9hBgq11iSpHxzHFu6yR23j-XNxuHHcgm_1VZ_lSwjo08tYC-99jJkOFl3JZY5XmsDeVijj6aV1FwgBHlZ4UmdqiaJDVynjlOWVC0zZisQi_Oe26B-d-swjk4mmY7Cxug-94SV95E9Up17bKEswhMlOR5KMWbFUs9W2GAI2-VgBrNHcZ-Z6P-LdHtbiGljKOXszqWT5a0RMMIBWdtVbocID9iJBiSZ7oGYjgcjwAkvtSvY9uQZswvSWVJbwJ8XwMhMmdN3PLeNRyYmULMrI5TxKhmtRApZfYDADaOVVK9pRpzfZKoQ92ng4GH5VXi4XYwUwnXojr1ZKuHsiTerObZTsb30awC8NondID1ZUjYkGzrjsu3Qis_kTxXG4q6BE_exIoC7t0BvYywwdWcCNJTJ5Wlb9_F99iylUNotUo9iDcBYOXHWiz1HZhccO-GuKxFGlwwCOqUcutdtroCFWzXcr-ylU2l5elmVmeB-mC0]--></g></svg>