<?xml version="1.0" encoding="us-ascii" standalone="no"?><svg xmlns="http://www.w3.org/2000/svg" xmlns:xlink="http://www.w3.org/1999/xlink" contentStyleType="text/css" height="980px" preserveAspectRatio="none" style="width:1076px;height:980px;background:#FFFFFF;" version="1.1" viewBox="0 0 1076 980" width="1076px" zoomAndPan="magnify"><defs/><g><!--class HTTPClient--><g id="elem_HTTPClient"><rect codeLine="6" fill="#F1F1F1" height="44.6211" id="HTTPClient" rx="2.5" ry="2.5" style="stroke:#181818;stroke-width:0.5;" width="78" x="684.5" y="7"/><text fill="#000000" font-family="sans-serif" font-size="14" lengthAdjust="spacing" textLength="72" x="687.5" y="27.1074">HTTPClient</text><line style="stroke:#181818;stroke-width:0.5;" x1="685.5" x2="761.5" y1="35.6211" y2="35.6211"/><line style="stroke:#181818;stroke-width:0.5;" x1="685.5" x2="761.5" y1="43.6211" y2="43.6211"/></g><!--class RouteHandler--><g id="elem_RouteHandler"><rect codeLine="9" fill="#F1F1F1" height="63.2422" id="RouteHandler" rx="2.5" ry="2.5" style="stroke:#181818;stroke-width:0.5;" width="261" x="593" y="112"/><text fill="#000000" font-family="sans-serif" font-size="14" lengthAdjust="spacing" textLength="87" x="680" y="132.1074">RouteHandler</text><line style="stroke:#181818;stroke-width:0.5;" x1="594" x2="853" y1="140.6211" y2="140.6211"/><line style="stroke:#181818;stroke-width:0.5;" x1="594" x2="853" y1="148.6211" y2="148.6211"/><text fill="#000000" font-family="sans-serif" font-size="14" lengthAdjust="spacing" textLength="249" x="599" y="167.7285">+handleRequest(data: json): HttpResult</text></g><!--class LendingController--><g id="elem_LendingController"><rect codeLine="13" fill="#F1F1F1" height="63.2422" id="LendingController" rx="2.5" ry="2.5" style="stroke:#181818;stroke-width:0.5;" width="495" x="476" y="235"/><text fill="#000000" font-family="sans-serif" font-size="14" lengthAdjust="spacing" textLength="113" x="667" y="255.1074">LendingController</text><line style="stroke:#181818;stroke-width:0.5;" x1="477" x2="970" y1="263.6211" y2="263.6211"/><line style="stroke:#181818;stroke-width:0.5;" x1="477" x2="970" y1="271.6211" y2="271.6211"/><text fill="#000000" font-family="sans-serif" font-size="14" lengthAdjust="spacing" textLength="483" x="482" y="290.7285">+returnBook(resource: EditLendingRequest): ResponseEntity&lt;LendingView&gt;</text></g><!--class ReaderService--><g id="elem_ReaderService"><rect codeLine="17" fill="#F1F1F1" height="63.2422" id="ReaderService" rx="2.5" ry="2.5" style="stroke:#181818;stroke-width:0.5;" width="341" x="7" y="526"/><text fill="#000000" font-family="sans-serif" font-size="14" lengthAdjust="spacing" textLength="94" x="130.5" y="546.1074">ReaderService</text><line style="stroke:#181818;stroke-width:0.5;" x1="8" x2="347" y1="554.6211" y2="554.6211"/><line style="stroke:#181818;stroke-width:0.5;" x1="8" x2="347" y1="562.6211" y2="562.6211"/><text fill="#000000" font-family="sans-serif" font-size="14" lengthAdjust="spacing" textLength="329" x="13" y="581.7285">+getReaderById(readerId: Long): Optional&lt;Reader&gt;</text></g><!--class BookService--><g id="elem_BookService"><rect codeLine="21" fill="#F1F1F1" height="63.2422" id="BookService" rx="2.5" ry="2.5" style="stroke:#181818;stroke-width:0.5;" width="308" x="383.5" y="526"/><text fill="#000000" font-family="sans-serif" font-size="14" lengthAdjust="spacing" textLength="79" x="498" y="546.1074">BookService</text><line style="stroke:#181818;stroke-width:0.5;" x1="384.5" x2="690.5" y1="554.6211" y2="554.6211"/><line style="stroke:#181818;stroke-width:0.5;" x1="384.5" x2="690.5" y1="562.6211" y2="562.6211"/><text fill="#000000" font-family="sans-serif" font-size="14" lengthAdjust="spacing" textLength="296" x="389.5" y="581.7285">+getBookByISBN(isbn: String): Optional&lt;Book&gt;</text></g><!--class LendingService--><g id="elem_LendingService"><rect codeLine="25" fill="#F1F1F1" height="100.4844" id="LendingService" rx="2.5" ry="2.5" style="stroke:#181818;stroke-width:0.5;" width="357" x="359" y="358"/><text fill="#000000" font-family="sans-serif" font-size="14" lengthAdjust="spacing" textLength="98" x="488.5" y="378.1074">LendingService</text><line style="stroke:#181818;stroke-width:0.5;" x1="360" x2="715" y1="386.6211" y2="386.6211"/><line style="stroke:#181818;stroke-width:0.5;" x1="360" x2="715" y1="394.6211" y2="394.6211"/><text fill="#000000" font-family="sans-serif" font-size="14" lengthAdjust="spacing" textLength="339" x="365" y="413.7285">+returnBook(resource: EditLendingRequest): Lending</text><text fill="#000000" font-family="sans-serif" font-size="14" lengthAdjust="spacing" textLength="345" x="365" y="432.3496">+checkOverdue(reader: Reader, book: Book): boolean</text><text fill="#000000" font-family="sans-serif" font-size="14" lengthAdjust="spacing" textLength="323" x="365" y="450.9707">+processFine(reader: Reader, book: Book): double</text></g><!--class ReaderRepository--><g id="elem_ReaderRepository"><rect codeLine="31" fill="#F1F1F1" height="79.2031" id="ReaderRepository" rx="2.5" ry="2.5" style="stroke:#181818;stroke-width:0.5;" width="297" x="29" y="695.5"/><text fill="#000000" font-family="sans-serif" font-size="12" font-style="italic" lengthAdjust="spacing" textLength="61" x="147" y="713.4492">&#171;interface&#187;</text><text fill="#000000" font-family="sans-serif" font-size="14" font-style="italic" lengthAdjust="spacing" textLength="115" x="120" y="731.5684">ReaderRepository</text><line style="stroke:#181818;stroke-width:0.5;" x1="30" x2="325" y1="740.082" y2="740.082"/><line style="stroke:#181818;stroke-width:0.5;" x1="30" x2="325" y1="748.082" y2="748.082"/><text fill="#000000" font-family="sans-serif" font-size="14" lengthAdjust="spacing" textLength="285" x="35" y="767.1895">+findById(readerId: Long): Optional&lt;Reader&gt;</text></g><!--class BookRepository--><g id="elem_BookRepository"><rect codeLine="35" fill="#F1F1F1" height="79.2031" id="BookRepository" rx="2.5" ry="2.5" style="stroke:#181818;stroke-width:0.5;" width="275" x="400" y="695.5"/><text fill="#000000" font-family="sans-serif" font-size="12" font-style="italic" lengthAdjust="spacing" textLength="61" x="507" y="713.4492">&#171;interface&#187;</text><text fill="#000000" font-family="sans-serif" font-size="14" font-style="italic" lengthAdjust="spacing" textLength="101" x="487" y="731.5684">BookRepository</text><line style="stroke:#181818;stroke-width:0.5;" x1="401" x2="674" y1="740.082" y2="740.082"/><line style="stroke:#181818;stroke-width:0.5;" x1="401" x2="674" y1="748.082" y2="748.082"/><text fill="#000000" font-family="sans-serif" font-size="14" lengthAdjust="spacing" textLength="263" x="406" y="767.1895">+findByIsbn(isbn: String): Optional&lt;Book&gt;</text></g><!--class LendingRepository--><g id="elem_LendingRepository"><rect codeLine="39" fill="#F1F1F1" height="79.2031" id="LendingRepository" rx="2.5" ry="2.5" style="stroke:#181818;stroke-width:0.5;" width="224" x="726.5" y="518"/><text fill="#000000" font-family="sans-serif" font-size="12" font-style="italic" lengthAdjust="spacing" textLength="61" x="808" y="535.9492">&#171;interface&#187;</text><text fill="#000000" font-family="sans-serif" font-size="14" font-style="italic" lengthAdjust="spacing" textLength="119" x="779" y="554.0684">LendingRepository</text><line style="stroke:#181818;stroke-width:0.5;" x1="727.5" x2="949.5" y1="562.582" y2="562.582"/><line style="stroke:#181818;stroke-width:0.5;" x1="727.5" x2="949.5" y1="570.582" y2="570.582"/><text fill="#000000" font-family="sans-serif" font-size="14" lengthAdjust="spacing" textLength="212" x="732.5" y="589.6895">+save(lending: Lending): Lending</text></g><!--class Reader--><g id="elem_Reader"><rect codeLine="43" fill="#F1F1F1" height="100.4844" id="Reader" rx="2.5" ry="2.5" style="stroke:#181818;stroke-width:0.5;" width="110" x="122.5" y="873"/><text fill="#000000" font-family="sans-serif" font-size="14" lengthAdjust="spacing" textLength="47" x="154" y="893.1074">Reader</text><line style="stroke:#181818;stroke-width:0.5;" x1="123.5" x2="231.5" y1="901.6211" y2="901.6211"/><text fill="#000000" font-family="sans-serif" font-size="14" lengthAdjust="spacing" textLength="98" x="128.5" y="920.7285">-readerId: Long</text><text fill="#000000" font-family="sans-serif" font-size="14" lengthAdjust="spacing" textLength="85" x="128.5" y="939.3496">-name: String</text><text fill="#000000" font-family="sans-serif" font-size="14" lengthAdjust="spacing" textLength="83" x="128.5" y="957.9707">-email: String</text><line style="stroke:#181818;stroke-width:0.5;" x1="123.5" x2="231.5" y1="965.4844" y2="965.4844"/></g><!--class Book--><g id="elem_Book"><rect codeLine="49" fill="#F1F1F1" height="100.4844" id="Book" rx="2.5" ry="2.5" style="stroke:#181818;stroke-width:0.5;" width="148" x="463.5" y="873"/><text fill="#000000" font-family="sans-serif" font-size="14" lengthAdjust="spacing" textLength="32" x="521.5" y="893.1074">Book</text><line style="stroke:#181818;stroke-width:0.5;" x1="464.5" x2="610.5" y1="901.6211" y2="901.6211"/><text fill="#000000" font-family="sans-serif" font-size="14" lengthAdjust="spacing" textLength="76" x="469.5" y="920.7285">-isbn: String</text><text fill="#000000" font-family="sans-serif" font-size="14" lengthAdjust="spacing" textLength="72" x="469.5" y="939.3496">-title: String</text><text fill="#000000" font-family="sans-serif" font-size="14" lengthAdjust="spacing" textLength="136" x="469.5" y="957.9707">-authors: List&lt;String&gt;</text><line style="stroke:#181818;stroke-width:0.5;" x1="464.5" x2="610.5" y1="965.4844" y2="965.4844"/></g><!--class Lending--><g id="elem_Lending"><rect codeLine="55" fill="#F1F1F1" height="156.3477" id="Lending" rx="2.5" ry="2.5" style="stroke:#181818;stroke-width:0.5;" width="128" x="774.5" y="657"/><text fill="#000000" font-family="sans-serif" font-size="14" lengthAdjust="spacing" textLength="51" x="813" y="677.1074">Lending</text><line style="stroke:#181818;stroke-width:0.5;" x1="775.5" x2="901.5" y1="685.6211" y2="685.6211"/><text fill="#000000" font-family="sans-serif" font-size="14" lengthAdjust="spacing" textLength="56" x="780.5" y="704.7285">-id: Long</text><text fill="#000000" font-family="sans-serif" font-size="14" lengthAdjust="spacing" textLength="102" x="780.5" y="723.3496">-reader: Reader</text><text fill="#000000" font-family="sans-serif" font-size="14" lengthAdjust="spacing" textLength="76" x="780.5" y="741.9707">-book: Book</text><text fill="#000000" font-family="sans-serif" font-size="14" lengthAdjust="spacing" textLength="100" x="780.5" y="760.5918">-lendDate: Date</text><text fill="#000000" font-family="sans-serif" font-size="14" lengthAdjust="spacing" textLength="111" x="780.5" y="779.2129">-returnDate: Date</text><text fill="#000000" font-family="sans-serif" font-size="14" lengthAdjust="spacing" textLength="116" x="780.5" y="797.834">-overdue: boolean</text><line style="stroke:#181818;stroke-width:0.5;" x1="775.5" x2="901.5" y1="805.3477" y2="805.3477"/></g><!--class HttpResult--><g id="elem_HttpResult"><rect codeLine="64" fill="#F1F1F1" height="100.4844" id="HttpResult" rx="2.5" ry="2.5" style="stroke:#181818;stroke-width:0.5;" width="318" x="751.5" y="358"/><text fill="#000000" font-family="sans-serif" font-size="14" lengthAdjust="spacing" textLength="65" x="878" y="378.1074">HttpResult</text><line style="stroke:#181818;stroke-width:0.5;" x1="752.5" x2="1068.5" y1="386.6211" y2="386.6211"/><text fill="#000000" font-family="sans-serif" font-size="14" lengthAdjust="spacing" textLength="116" x="757.5" y="405.7285">-status: HttpStatus</text><text fill="#000000" font-family="sans-serif" font-size="14" lengthAdjust="spacing" textLength="74" x="757.5" y="424.3496">-result: json</text><line style="stroke:#181818;stroke-width:0.5;" x1="752.5" x2="1068.5" y1="431.8633" y2="431.8633"/><text fill="#000000" font-family="sans-serif" font-size="14" lengthAdjust="spacing" textLength="306" x="757.5" y="450.9707">HttpResult(HttpStatus status, const json &amp;result);</text></g><!--link HTTPClient to RouteHandler--><g id="link_HTTPClient_RouteHandler"><path codeLine="70" d="M723.5,52.09 C723.5,69 723.5,86.74 723.5,105.65 " fill="none" id="HTTPClient-to-RouteHandler" style="stroke:#181818;stroke-width:1.0;"/><polygon fill="#181818" points="723.5,111.65,727.5,102.65,723.5,106.65,719.5,102.65,723.5,111.65" style="stroke:#181818;stroke-width:1.0;"/></g><!--link RouteHandler to LendingController--><g id="link_RouteHandler_LendingController"><path codeLine="71" d="M723.5,175.03 C723.5,193.38 723.5,210.64 723.5,228.98 " fill="none" id="RouteHandler-to-LendingController" style="stroke:#181818;stroke-width:1.0;"/><polygon fill="#181818" points="723.5,234.98,727.5,225.98,723.5,229.98,719.5,225.98,723.5,234.98" style="stroke:#181818;stroke-width:1.0;"/></g><!--link LendingController to LendingService--><g id="link_LendingController_LendingService"><path codeLine="72" d="M682.68,298.11 C659.37,315.6 634.39,334.33 607.87,354.22 " fill="none" id="LendingController-to-LendingService" style="stroke:#181818;stroke-width:1.0;"/><polygon fill="#181818" points="603.07,357.82,612.67,355.62,607.07,354.82,607.87,349.22,603.07,357.82" style="stroke:#181818;stroke-width:1.0;"/></g><!--link LendingService to BookService--><g id="link_LendingService_BookService"><path codeLine="73" d="M537.5,458.12 C537.5,480.41 537.5,500.09 537.5,519.63 " fill="none" id="LendingService-to-BookService" style="stroke:#181818;stroke-width:1.0;"/><polygon fill="#181818" points="537.5,525.63,541.5,516.63,537.5,520.63,533.5,516.63,537.5,525.63" style="stroke:#181818;stroke-width:1.0;"/></g><!--link LendingService to ReaderService--><g id="link_LendingService_ReaderService"><path codeLine="74" d="M417.63,458.12 C362.91,480.53 305.3717,504.1044 257.6017,523.6844 " fill="none" id="LendingService-to-ReaderService" style="stroke:#181818;stroke-width:1.0;"/><polygon fill="#181818" points="252.05,525.96,261.8947,526.2478,256.6765,524.0637,258.8606,518.8455,252.05,525.96" style="stroke:#181818;stroke-width:1.0;"/></g><!--link ReaderService to ReaderRepository--><g id="link_ReaderService_ReaderRepository"><path codeLine="75" d="M177.5,589.07 C177.5,618.53 177.5,657.23 177.5,689.19 " fill="none" id="ReaderService-to-ReaderRepository" style="stroke:#181818;stroke-width:1.0;"/><polygon fill="#181818" points="177.5,695.19,181.5,686.19,177.5,690.19,173.5,686.19,177.5,695.19" style="stroke:#181818;stroke-width:1.0;"/></g><!--link BookService to BookRepository--><g id="link_BookService_BookRepository"><path codeLine="76" d="M537.5,589.07 C537.5,618.53 537.5,657.23 537.5,689.19 " fill="none" id="BookService-to-BookRepository" style="stroke:#181818;stroke-width:1.0;"/><polygon fill="#181818" points="537.5,695.19,541.5,686.19,537.5,690.19,533.5,686.19,537.5,695.19" style="stroke:#181818;stroke-width:1.0;"/></g><!--link LendingService to LendingRepository--><g id="link_LendingService_LendingRepository"><path codeLine="77" d="M637.73,458.12 C677.4,477.56 716.9619,496.9402 754.2519,515.2102 " fill="none" id="LendingService-to-LendingRepository" style="stroke:#181818;stroke-width:1.0;"/><polygon fill="#181818" points="759.64,517.85,753.3178,510.2982,755.1499,515.6501,749.798,517.4823,759.64,517.85" style="stroke:#181818;stroke-width:1.0;"/></g><!--link LendingRepository to Lending--><g id="link_LendingRepository_Lending"><path codeLine="78" d="M838.5,597.01 C838.5,614.57 838.5,630.02 838.5,650.68 " fill="none" id="LendingRepository-to-Lending" style="stroke:#181818;stroke-width:1.0;stroke-dasharray:7.0,7.0;"/><polygon fill="#181818" points="838.5,656.68,842.5,647.68,838.5,651.68,834.5,647.68,838.5,656.68" style="stroke:#181818;stroke-width:1.0;"/></g><!--link ReaderRepository to Reader--><g id="link_ReaderRepository_Reader"><path codeLine="79" d="M177.5,774.54 C177.5,803.06 177.5,836.12 177.5,866.88 " fill="none" id="ReaderRepository-to-Reader" style="stroke:#181818;stroke-width:1.0;stroke-dasharray:7.0,7.0;"/><polygon fill="#181818" points="177.5,872.88,181.5,863.88,177.5,867.88,173.5,863.88,177.5,872.88" style="stroke:#181818;stroke-width:1.0;"/></g><!--link BookRepository to Book--><g id="link_BookRepository_Book"><path codeLine="80" d="M537.5,774.54 C537.5,803.06 537.5,836.12 537.5,866.88 " fill="none" id="BookRepository-to-Book" style="stroke:#181818;stroke-width:1.0;stroke-dasharray:7.0,7.0;"/><polygon fill="#181818" points="537.5,872.88,541.5,863.88,537.5,867.88,533.5,863.88,537.5,872.88" style="stroke:#181818;stroke-width:1.0;"/></g><!--link LendingController to HttpResult--><g id="link_LendingController_HttpResult"><path codeLine="81" d="M764.54,298.11 C787.98,315.6 813.1116,334.3413 839.7616,354.2313 " fill="none" id="LendingController-to-HttpResult" style="stroke:#181818;stroke-width:1.0;"/><polygon fill="#181818" points="844.57,357.82,839.7498,349.2313,840.563,354.8294,834.9649,355.6425,844.57,357.82" style="stroke:#181818;stroke-width:1.0;"/></g><!--SRC=[ZLJ1Zjem4BtxAtngMNM1dbE4LBQx0cdLhM3LkubdmOknKtj2HQl-U-tOn0v10WvHycRcpNXuVX-tY9KjnkDACeNrNevAlH-Nabaxv89j3DiJiXKSQ2bCAO7OdL0LSp1jahuY6h6k4HQbLYln1-XdGfe8dR- -_dYG0XJIl-JV2LrgbpndYaim3gVkzubkc-yb_Ah1ue0pP0LzjrhT5NJkvbk2hIKcZcTGNAZDWrPejCo9361jr4phtS20rRKfeQ2FN60iYIqSh-EijBBmg53WSHBZFmNydcR30kDWLc0EeeIsoGOm16R71NTz_Ek25_HPgurZVgbGQCNa92HbT7wk2sGUTbIhsVU1i6jLq9NRQPVAfqnx2pZdkltq4OXrvHRAtSi13AyXdgU8Px-dQqTNDAExElSXWQbOLnbTWhLFGbqfuxfUE-su-OL2C6_C3HqIbr1fAr2R8vrCsk1qsfxfJIX- -vuJlUzyAxbR-lND9-fscrVOBJl0G8RaTkNPyiza5kk6j7lI22gsXzDy4O8z4xB5EYfhkV9ZHSZfNPvJiHgtsbZNKLYSX51VRucrErltluzW4a04_2Q-CNIj_RCjzPBjmJg8CGck7INvmMaQYmnh6vnYrRm7t3HPmKWQ99KEKYuDvVVK-PV59fb-2ALtNtpRpCQ6msd7lqZ7p7oqvqoaxrLPNhp0vEm- -upCAow5Eyv4kZwLuacY9FUU4tyMlj2Y9tFI5_verEQHteNsmIY9izle8uqoBcydy_p_]--></g></svg>
