<?xml version="1.0" encoding="us-ascii" standalone="no"?><svg xmlns="http://www.w3.org/2000/svg" xmlns:xlink="http://www.w3.org/1999/xlink" contentStyleType="text/css" height="494px" preserveAspectRatio="none" style="width:380px;height:494px;background:#FFFFFF;" version="1.1" viewBox="0 0 380 494" width="380px" zoomAndPan="magnify"><defs/><g><rect fill="#FFFFFF" height="31.291" style="stroke:#181818;stroke-width:1.0;" width="10" x="41.5" y="116.9121"/><rect fill="#FFFFFF" height="284.668" style="stroke:#181818;stroke-width:1.0;" width="10" x="259.5" y="116.9121"/><rect fill="none" height="231.377" style="stroke:#000000;stroke-width:1.5;" width="363.5" x="10" y="163.2031"/><line style="stroke:#181818;stroke-width:0.5;stroke-dasharray:5.0,5.0;" x1="46" x2="46" y1="83.6211" y2="411.5801"/><line style="stroke:#181818;stroke-width:0.5;stroke-dasharray:5.0,5.0;" x1="264.5" x2="264.5" y1="83.6211" y2="411.5801"/><text fill="#000000" font-family="sans-serif" font-size="14" lengthAdjust="spacing" textLength="47" x="20" y="80.1074">Reader</text><ellipse cx="46.5" cy="13.5" fill="#E2E2F0" rx="8" ry="8" style="stroke:#181818;stroke-width:0.5;"/><path d="M46.5,21.5 L46.5,48.5 M33.5,29.5 L59.5,29.5 M46.5,48.5 L33.5,63.5 M46.5,48.5 L59.5,63.5 " fill="none" style="stroke:#181818;stroke-width:0.5;"/><text fill="#000000" font-family="sans-serif" font-size="14" lengthAdjust="spacing" textLength="47" x="20" y="425.6875">Reader</text><ellipse cx="46.5" cy="437.7012" fill="#E2E2F0" rx="8" ry="8" style="stroke:#181818;stroke-width:0.5;"/><path d="M46.5,445.7012 L46.5,472.7012 M33.5,453.7012 L59.5,453.7012 M46.5,472.7012 L33.5,487.7012 M46.5,472.7012 L59.5,487.7012 " fill="none" style="stroke:#181818;stroke-width:0.5;"/><rect fill="#E2E2F0" height="32.6211" rx="2.5" ry="2.5" style="stroke:#181818;stroke-width:0.5;" width="60" x="234.5" y="50"/><text fill="#000000" font-family="sans-serif" font-size="14" lengthAdjust="spacing" textLength="46" x="241.5" y="72.1074">System</text><rect fill="#E2E2F0" height="32.6211" rx="2.5" ry="2.5" style="stroke:#181818;stroke-width:0.5;" width="60" x="234.5" y="410.5801"/><text fill="#000000" font-family="sans-serif" font-size="14" lengthAdjust="spacing" textLength="46" x="241.5" y="432.6875">System</text><rect fill="#FFFFFF" height="31.291" style="stroke:#181818;stroke-width:1.0;" width="10" x="41.5" y="116.9121"/><rect fill="#FFFFFF" height="284.668" style="stroke:#181818;stroke-width:1.0;" width="10" x="259.5" y="116.9121"/><polygon fill="#181818" points="247.5,112.9121,257.5,116.9121,247.5,120.9121,251.5,116.9121" style="stroke:#181818;stroke-width:1.0;"/><line style="stroke:#181818;stroke-width:1.0;" x1="51.5" x2="253.5" y1="116.9121" y2="116.9121"/><text fill="#000000" font-family="sans-serif" font-size="13" lengthAdjust="spacing" textLength="132" x="58.5" y="111.6494">Request to return book</text><polygon fill="#181818" points="57.5,144.2031,47.5,148.2031,57.5,152.2031,53.5,148.2031" style="stroke:#181818;stroke-width:1.0;"/><line style="stroke:#181818;stroke-width:1.0;" x1="51.5" x2="258.5" y1="148.2031" y2="148.2031"/><text fill="#000000" font-family="sans-serif" font-size="13" lengthAdjust="spacing" textLength="161" x="63.5" y="142.9404">Acknowledge return request</text><path d="M10,163.2031 L71,163.2031 L71,172.4941 L61,182.4941 L10,182.4941 L10,163.2031 " fill="#EEEEEE" style="stroke:#000000;stroke-width:1.5;"/><rect fill="none" height="231.377" style="stroke:#000000;stroke-width:1.5;" width="363.5" x="10" y="163.2031"/><text fill="#000000" font-family="sans-serif" font-size="13" font-weight="bold" lengthAdjust="spacing" textLength="16" x="25" y="178.2314">alt</text><text fill="#000000" font-family="sans-serif" font-size="11" font-weight="bold" lengthAdjust="spacing" textLength="119" x="86" y="177.0732">[Book return on time]</text><line style="stroke:#181818;stroke-width:1.0;" x1="269.5" x2="311.5" y1="205.7852" y2="205.7852"/><line style="stroke:#181818;stroke-width:1.0;" x1="311.5" x2="311.5" y1="205.7852" y2="218.7852"/><line style="stroke:#181818;stroke-width:1.0;" x1="270.5" x2="311.5" y1="218.7852" y2="218.7852"/><polygon fill="#181818" points="280.5,214.7852,270.5,218.7852,280.5,222.7852,276.5,218.7852" style="stroke:#181818;stroke-width:1.0;"/><text fill="#000000" font-family="sans-serif" font-size="13" lengthAdjust="spacing" textLength="85" x="276.5" y="200.5225">Process return</text><polygon fill="#181818" points="57.5,246.0762,47.5,250.0762,57.5,254.0762,53.5,250.0762" style="stroke:#181818;stroke-width:1.0;"/><line style="stroke:#181818;stroke-width:1.0;" x1="51.5" x2="258.5" y1="250.0762" y2="250.0762"/><text fill="#000000" font-family="sans-serif" font-size="13" lengthAdjust="spacing" textLength="189" x="63.5" y="244.8135">Confirmation of successful return</text><line style="stroke:#000000;stroke-width:1.0;stroke-dasharray:2.0,2.0;" x1="10" x2="373.5" y1="259.0762" y2="259.0762"/><text fill="#000000" font-family="sans-serif" font-size="11" font-weight="bold" lengthAdjust="spacing" textLength="123" x="15" y="270.9463">[Book return overdue]</text><line style="stroke:#181818;stroke-width:1.0;" x1="269.5" x2="311.5" y1="297.998" y2="297.998"/><line style="stroke:#181818;stroke-width:1.0;" x1="311.5" x2="311.5" y1="297.998" y2="310.998"/><line style="stroke:#181818;stroke-width:1.0;" x1="270.5" x2="311.5" y1="310.998" y2="310.998"/><polygon fill="#181818" points="280.5,306.998,270.5,310.998,280.5,314.998,276.5,310.998" style="stroke:#181818;stroke-width:1.0;"/><text fill="#000000" font-family="sans-serif" font-size="13" lengthAdjust="spacing" textLength="85" x="276.5" y="292.7354">Process return</text><line style="stroke:#181818;stroke-width:1.0;" x1="269.5" x2="311.5" y1="342.2891" y2="342.2891"/><line style="stroke:#181818;stroke-width:1.0;" x1="311.5" x2="311.5" y1="342.2891" y2="355.2891"/><line style="stroke:#181818;stroke-width:1.0;" x1="270.5" x2="311.5" y1="355.2891" y2="355.2891"/><polygon fill="#181818" points="280.5,351.2891,270.5,355.2891,280.5,359.2891,276.5,355.2891" style="stroke:#181818;stroke-width:1.0;"/><text fill="#000000" font-family="sans-serif" font-size="13" lengthAdjust="spacing" textLength="78" x="276.5" y="337.0264">Calculate fine</text><polygon fill="#181818" points="57.5,382.5801,47.5,386.5801,57.5,390.5801,53.5,386.5801" style="stroke:#181818;stroke-width:1.0;"/><line style="stroke:#181818;stroke-width:1.0;" x1="51.5" x2="258.5" y1="386.5801" y2="386.5801"/><text fill="#000000" font-family="sans-serif" font-size="13" lengthAdjust="spacing" textLength="174" x="63.5" y="381.3174">Confirmation of return with fine</text><!--SRC=[dP1D4i8W34Rtd28Ny09TEAEzWACdG0ZAb18DeHrlRpiKVpUER1Z2o_i2sWWnx55RP7NHBDxuYuu2XriIx9KgLx1QBvLcWgyPau0GC4hc24UYJcaZVj22LVOuBwQopQ82DB0nNQGne3rXDN5nAujVkY2mdN8gIH74zwXWMazrdN77P32b1Vw0QdvBqNdkjVX9HWvIDdEJow7sOKZudZeWs_nNQeLQ7KmEyykSZ_ZZQ4lywELSsZ3QrqygXZi0]--></g></svg>
