<?xml version="1.0" encoding="us-ascii" standalone="no"?><svg xmlns="http://www.w3.org/2000/svg" xmlns:xlink="http://www.w3.org/1999/xlink" contentStyleType="text/css" height="387px" preserveAspectRatio="none" style="width:724px;height:387px;background:#FFFFFF;" version="1.1" viewBox="0 0 724 387" width="724px" zoomAndPan="magnify"><defs/><g><rect fill="#FFFFFF" height="202.0859" style="stroke:#181818;stroke-width:1.0;" width="10" x="31" y="93.6211"/><rect fill="#FFFFFF" height="178.7949" style="stroke:#181818;stroke-width:1.0;" width="10" x="475" y="116.9121"/><rect fill="#FFFFFF" height="113.2129" style="stroke:#181818;stroke-width:1.0;" width="10" x="480" y="182.4941"/><rect fill="#FFFFFF" height="43.291" style="stroke:#181818;stroke-width:1.0;" width="10" x="485" y="243.416"/><rect fill="none" height="124.5039" style="stroke:#000000;stroke-width:1.5;" width="279" x="438" y="131.9121"/><line style="stroke:#181818;stroke-width:0.5;stroke-dasharray:5.0,5.0;" x1="36" x2="36" y1="83.6211" y2="304.707"/><line style="stroke:#181818;stroke-width:0.5;stroke-dasharray:5.0,5.0;" x1="480" x2="480" y1="83.6211" y2="304.707"/><text fill="#000000" font-family="sans-serif" font-size="14" lengthAdjust="spacing" textLength="56" x="5" y="80.1074">Librarian</text><ellipse cx="36" cy="13.5" fill="#E2E2F0" rx="8" ry="8" style="stroke:#181818;stroke-width:0.5;"/><path d="M36,21.5 L36,48.5 M23,29.5 L49,29.5 M36,48.5 L23,63.5 M36,48.5 L49,63.5 " fill="none" style="stroke:#181818;stroke-width:0.5;"/><text fill="#000000" font-family="sans-serif" font-size="14" lengthAdjust="spacing" textLength="56" x="5" y="318.8145">Librarian</text><ellipse cx="36" cy="330.8281" fill="#E2E2F0" rx="8" ry="8" style="stroke:#181818;stroke-width:0.5;"/><path d="M36,338.8281 L36,365.8281 M23,346.8281 L49,346.8281 M36,365.8281 L23,380.8281 M36,365.8281 L49,380.8281 " fill="none" style="stroke:#181818;stroke-width:0.5;"/><rect fill="#E2E2F0" height="32.6211" rx="2.5" ry="2.5" style="stroke:#181818;stroke-width:0.5;" width="64" x="448" y="50"/><text fill="#000000" font-family="sans-serif" font-size="14" lengthAdjust="spacing" textLength="50" x="455" y="72.1074">:System</text><rect fill="#E2E2F0" height="32.6211" rx="2.5" ry="2.5" style="stroke:#181818;stroke-width:0.5;" width="64" x="448" y="303.707"/><text fill="#000000" font-family="sans-serif" font-size="14" lengthAdjust="spacing" textLength="50" x="455" y="325.8145">:System</text><rect fill="#FFFFFF" height="202.0859" style="stroke:#181818;stroke-width:1.0;" width="10" x="31" y="93.6211"/><rect fill="#FFFFFF" height="178.7949" style="stroke:#181818;stroke-width:1.0;" width="10" x="475" y="116.9121"/><rect fill="#FFFFFF" height="113.2129" style="stroke:#181818;stroke-width:1.0;" width="10" x="480" y="182.4941"/><rect fill="#FFFFFF" height="43.291" style="stroke:#181818;stroke-width:1.0;" width="10" x="485" y="243.416"/><polygon fill="#181818" points="463,112.9121,473,116.9121,463,120.9121,467,116.9121" style="stroke:#181818;stroke-width:1.0;"/><line style="stroke:#181818;stroke-width:1.0;" x1="41" x2="469" y1="116.9121" y2="116.9121"/><text fill="#000000" font-family="sans-serif" font-size="13" font-weight="bold" lengthAdjust="spacing" textLength="7" x="48" y="111.6494">1</text><text fill="#000000" font-family="sans-serif" font-size="13" lengthAdjust="spacing" textLength="404" x="59" y="111.6494">Requests to register a book with title, author, and optional cover photo</text><path d="M438,131.9121 L499,131.9121 L499,141.2031 L489,151.2031 L438,151.2031 L438,131.9121 " fill="#EEEEEE" style="stroke:#000000;stroke-width:1.5;"/><rect fill="none" height="124.5039" style="stroke:#000000;stroke-width:1.5;" width="279" x="438" y="131.9121"/><text fill="#000000" font-family="sans-serif" font-size="13" font-weight="bold" lengthAdjust="spacing" textLength="16" x="453" y="146.9404">alt</text><text fill="#000000" font-family="sans-serif" font-size="11" font-weight="bold" lengthAdjust="spacing" textLength="149" x="514" y="145.7822">[If cover photo is provided]</text><line style="stroke:#181818;stroke-width:1.0;" x1="485" x2="532" y1="169.4941" y2="169.4941"/><line style="stroke:#181818;stroke-width:1.0;" x1="532" x2="532" y1="169.4941" y2="182.4941"/><line style="stroke:#181818;stroke-width:1.0;" x1="491" x2="532" y1="182.4941" y2="182.4941"/><polygon fill="#181818" points="501,178.4941,491,182.4941,501,186.4941,497,182.4941" style="stroke:#181818;stroke-width:1.0;"/><text fill="#000000" font-family="sans-serif" font-size="13" font-weight="bold" lengthAdjust="spacing" textLength="7" x="497" y="164.2314">2</text><text fill="#000000" font-family="sans-serif" font-size="13" lengthAdjust="spacing" textLength="197" x="508" y="164.2314">Save book details and cover photo</text><line style="stroke:#000000;stroke-width:1.0;stroke-dasharray:2.0,2.0;" x1="438" x2="717" y1="196.4941" y2="196.4941"/><text fill="#000000" font-family="sans-serif" font-size="11" font-weight="bold" lengthAdjust="spacing" textLength="101" x="443" y="208.3643">[If no cover photo]</text><line style="stroke:#181818;stroke-width:1.0;" x1="490" x2="537" y1="230.416" y2="230.416"/><line style="stroke:#181818;stroke-width:1.0;" x1="537" x2="537" y1="230.416" y2="243.416"/><line style="stroke:#181818;stroke-width:1.0;" x1="496" x2="537" y1="243.416" y2="243.416"/><polygon fill="#181818" points="506,239.416,496,243.416,506,247.416,502,243.416" style="stroke:#181818;stroke-width:1.0;"/><text fill="#000000" font-family="sans-serif" font-size="13" font-weight="bold" lengthAdjust="spacing" textLength="7" x="502" y="225.1533">3</text><text fill="#000000" font-family="sans-serif" font-size="13" lengthAdjust="spacing" textLength="102" x="513" y="225.1533">Save book details</text><polygon fill="#181818" points="52,282.707,42,286.707,52,290.707,48,286.707" style="stroke:#181818;stroke-width:1.0;"/><line style="stroke:#181818;stroke-width:1.0;stroke-dasharray:2.0,2.0;" x1="46" x2="479" y1="286.707" y2="286.707"/><text fill="#000000" font-family="sans-serif" font-size="13" font-weight="bold" lengthAdjust="spacing" textLength="7" x="58" y="281.4443">4</text><text fill="#000000" font-family="sans-serif" font-size="13" lengthAdjust="spacing" textLength="152" x="69" y="281.4443">Informs operation success</text><!--SRC=[ZP0nKiGm34LxdqAp3GrB-XJqEqF5da2njHiDjcKi9GotnqaWX0utbkIlzoK_Z6P5-wuh4RDDAJvvIPtI-qJPqpamtYicvt0oGMyyen58NlCyfO5gU_Cc5KulF5IiZFa4gB1dhc0rzbmQ7qxzzLEDqYhPmhL_u_xsk3s4y_Eti8VNPImr1HEeTETMhO0mYBp11zi8nXRf4TfmezHsvm1IZ2LZ12zpKvTHJ1n6WyljM09MA5Lc3XGSjBDv7jslEDFc5SYGewxy8vQYqiBDygVyJvoZ7DoFhWdtB-ZXaczIaxPbgEAo3-ZaFQcwBm00]--></g></svg>
