<?xml version="1.0" encoding="us-ascii" standalone="no"?><svg xmlns="http://www.w3.org/2000/svg" xmlns:xlink="http://www.w3.org/1999/xlink" contentStyleType="text/css" height="699px" preserveAspectRatio="none" style="width:1748px;height:699px;background:#FFFFFF;" version="1.1" viewBox="0 0 1748 699" width="1748px" zoomAndPan="magnify"><defs/><g><rect fill="#FFFFFF" height="603.7261" style="stroke:#181818;stroke-width:1.0;" width="10" x="85" y="49.0679"/><rect fill="#FFFFFF" height="580.0201" style="stroke:#181818;stroke-width:1.0;" width="10" x="262" y="72.7739"/><rect fill="#FFFFFF" height="36.706" style="stroke:#181818;stroke-width:1.0;" width="10" x="267" y="607.088"/><rect fill="#FFFFFF" height="462.902" style="stroke:#181818;stroke-width:1.0;" width="10" x="461" y="104.4799"/><rect fill="#FFFFFF" height="292.01" style="stroke:#181818;stroke-width:1.0;" width="10" x="629" y="136.186"/><rect fill="#FFFFFF" height="42.706" style="stroke:#181818;stroke-width:1.0;" width="10" x="634" y="175.892"/><rect fill="#FFFFFF" height="31.706" style="stroke:#181818;stroke-width:1.0;" width="10" x="890" y="364.784"/><rect fill="#FFFFFF" height="75.7739" style="stroke:#181818;stroke-width:1.0;" width="10" x="1067" y="257.304"/><rect fill="#FFFFFF" height="31.706" style="stroke:#181818;stroke-width:1.0;" width="10" x="1643.5" y="459.902"/><line style="stroke:#181818;stroke-width:0.5;stroke-dasharray:5.0,5.0;" x1="90" x2="90" y1="39.0679" y2="661.794"/><line style="stroke:#181818;stroke-width:0.5;stroke-dasharray:5.0,5.0;" x1="267" x2="267" y1="39.0679" y2="661.794"/><line style="stroke:#181818;stroke-width:0.5;stroke-dasharray:5.0,5.0;" x1="465.5" x2="465.5" y1="39.0679" y2="661.794"/><line style="stroke:#181818;stroke-width:0.5;stroke-dasharray:5.0,5.0;" x1="633.5" x2="633.5" y1="39.0679" y2="661.794"/><line style="stroke:#181818;stroke-width:0.5;stroke-dasharray:5.0,5.0;" x1="895" x2="895" y1="39.0679" y2="661.794"/><line style="stroke:#181818;stroke-width:0.5;stroke-dasharray:5.0,5.0;" x1="1072" x2="1072" y1="39.0679" y2="661.794"/><line style="stroke:#181818;stroke-width:0.5;stroke-dasharray:5.0,5.0;" x1="1366" x2="1366" y1="297.338" y2="661.794"/><line style="stroke:#181818;stroke-width:0.5;stroke-dasharray:5.0,5.0;" x1="1481" x2="1481" y1="531.642" y2="661.794"/><line style="stroke:#181818;stroke-width:0.5;stroke-dasharray:5.0,5.0;" x1="1648" x2="1648" y1="39.0679" y2="661.794"/><rect fill="#E2E2F0" height="33.0679" rx="2.5" ry="2.5" style="stroke:#181818;stroke-width:0.5;" width="170" x="5" y="5"/><text fill="#000000" font-family="sans-serif" font-size="14" lengthAdjust="spacing" textLength="156" x="12" y="26.9659">Anonymous:HTTPClient</text><rect fill="#E2E2F0" height="33.0679" rx="2.5" ry="2.5" style="stroke:#181818;stroke-width:0.5;" width="170" x="5" y="660.794"/><text fill="#000000" font-family="sans-serif" font-size="14" lengthAdjust="spacing" textLength="156" x="12" y="682.7599">Anonymous:HTTPClient</text><rect fill="#E2E2F0" height="33.0679" rx="2.5" ry="2.5" style="stroke:#181818;stroke-width:0.5;" width="164" x="185" y="5"/><text fill="#000000" font-family="sans-serif" font-size="14" lengthAdjust="spacing" textLength="150" x="192" y="26.9659">handler:RouteHandler</text><rect fill="#E2E2F0" height="33.0679" rx="2.5" ry="2.5" style="stroke:#181818;stroke-width:0.5;" width="164" x="185" y="660.794"/><text fill="#000000" font-family="sans-serif" font-size="14" lengthAdjust="spacing" textLength="150" x="192" y="682.7599">handler:RouteHandler</text><rect fill="#E2E2F0" height="33.0679" rx="2.5" ry="2.5" style="stroke:#181818;stroke-width:0.5;" width="117" x="407.5" y="5"/><text fill="#000000" font-family="sans-serif" font-size="14" lengthAdjust="spacing" textLength="103" x="414.5" y="26.9659">:BookController</text><rect fill="#E2E2F0" height="33.0679" rx="2.5" ry="2.5" style="stroke:#181818;stroke-width:0.5;" width="117" x="407.5" y="660.794"/><text fill="#000000" font-family="sans-serif" font-size="14" lengthAdjust="spacing" textLength="103" x="414.5" y="682.7599">:BookController</text><rect fill="#E2E2F0" height="33.0679" rx="2.5" ry="2.5" style="stroke:#181818;stroke-width:0.5;" width="145" x="561.5" y="5"/><text fill="#000000" font-family="sans-serif" font-size="14" lengthAdjust="spacing" textLength="131" x="568.5" y="26.9659">service:BookService</text><rect fill="#E2E2F0" height="33.0679" rx="2.5" ry="2.5" style="stroke:#181818;stroke-width:0.5;" width="145" x="561.5" y="660.794"/><text fill="#000000" font-family="sans-serif" font-size="14" lengthAdjust="spacing" textLength="131" x="568.5" y="682.7599">service:BookService</text><rect fill="#E2E2F0" height="33.0679" rx="2.5" ry="2.5" style="stroke:#181818;stroke-width:0.5;" width="152" x="819" y="5"/><text fill="#000000" font-family="sans-serif" font-size="14" lengthAdjust="spacing" textLength="138" x="826" y="26.9659">repo:BookRepository</text><rect fill="#E2E2F0" height="33.0679" rx="2.5" ry="2.5" style="stroke:#181818;stroke-width:0.5;" width="152" x="819" y="660.794"/><text fill="#000000" font-family="sans-serif" font-size="14" lengthAdjust="spacing" textLength="138" x="826" y="682.7599">repo:BookRepository</text><rect fill="#E2E2F0" height="33.0679" rx="2.5" ry="2.5" style="stroke:#181818;stroke-width:0.5;" width="182" x="981" y="5"/><text fill="#000000" font-family="sans-serif" font-size="14" lengthAdjust="spacing" textLength="168" x="988" y="26.9659">mapper:EditBookMapper</text><rect fill="#E2E2F0" height="33.0679" rx="2.5" ry="2.5" style="stroke:#181818;stroke-width:0.5;" width="182" x="981" y="660.794"/><text fill="#000000" font-family="sans-serif" font-size="14" lengthAdjust="spacing" textLength="168" x="988" y="682.7599">mapper:EditBookMapper</text><rect fill="#E2E2F0" height="33.0679" rx="2.5" ry="2.5" style="stroke:#181818;stroke-width:0.5;" width="82" x="1325" y="660.794"/><text fill="#000000" font-family="sans-serif" font-size="14" lengthAdjust="spacing" textLength="68" x="1332" y="682.7599">book:Book</text><rect fill="#E2E2F0" height="33.0679" rx="2.5" ry="2.5" style="stroke:#181818;stroke-width:0.5;" width="128" x="1417" y="660.794"/><text fill="#000000" font-family="sans-serif" font-size="14" lengthAdjust="spacing" textLength="114" x="1424" y="682.7599">result:HttpResult</text><rect fill="#E2E2F0" height="33.0679" rx="2.5" ry="2.5" style="stroke:#181818;stroke-width:0.5;" width="187" x="1555" y="5"/><text fill="#000000" font-family="sans-serif" font-size="14" lengthAdjust="spacing" textLength="173" x="1562" y="26.9659">mapper:BookViewMapper</text><rect fill="#E2E2F0" height="33.0679" rx="2.5" ry="2.5" style="stroke:#181818;stroke-width:0.5;" width="187" x="1555" y="660.794"/><text fill="#000000" font-family="sans-serif" font-size="14" lengthAdjust="spacing" textLength="173" x="1562" y="682.7599">mapper:BookViewMapper</text><rect fill="#FFFFFF" height="603.7261" style="stroke:#181818;stroke-width:1.0;" width="10" x="85" y="49.0679"/><rect fill="#FFFFFF" height="580.0201" style="stroke:#181818;stroke-width:1.0;" width="10" x="262" y="72.7739"/><rect fill="#FFFFFF" height="36.706" style="stroke:#181818;stroke-width:1.0;" width="10" x="267" y="607.088"/><rect fill="#FFFFFF" height="462.902" style="stroke:#181818;stroke-width:1.0;" width="10" x="461" y="104.4799"/><rect fill="#FFFFFF" height="292.01" style="stroke:#181818;stroke-width:1.0;" width="10" x="629" y="136.186"/><rect fill="#FFFFFF" height="42.706" style="stroke:#181818;stroke-width:1.0;" width="10" x="634" y="175.892"/><rect fill="#FFFFFF" height="31.706" style="stroke:#181818;stroke-width:1.0;" width="10" x="890" y="364.784"/><rect fill="#FFFFFF" height="75.7739" style="stroke:#181818;stroke-width:1.0;" width="10" x="1067" y="257.304"/><rect fill="#FFFFFF" height="31.706" style="stroke:#181818;stroke-width:1.0;" width="10" x="1643.5" y="459.902"/><polygon fill="#181818" points="250,68.7739,260,72.7739,250,76.7739,254,72.7739" style="stroke:#181818;stroke-width:1.0;"/><line style="stroke:#181818;stroke-width:1.0;" x1="95" x2="256" y1="72.7739" y2="72.7739"/><text fill="#000000" font-family="sans-serif" font-size="13" font-weight="bold" lengthAdjust="spacing" textLength="7" x="102" y="66.9649">1</text><text fill="#000000" font-family="sans-serif" font-size="13" lengthAdjust="spacing" textLength="109" x="113" y="66.9649">POST/books(data)</text><polygon fill="#181818" points="449,100.4799,459,104.4799,449,108.4799,453,104.4799" style="stroke:#181818;stroke-width:1.0;"/><line style="stroke:#181818;stroke-width:1.0;" x1="272" x2="455" y1="104.4799" y2="104.4799"/><text fill="#000000" font-family="sans-serif" font-size="13" font-weight="bold" lengthAdjust="spacing" textLength="7" x="279" y="98.6709">2</text><text fill="#000000" font-family="sans-serif" font-size="13" lengthAdjust="spacing" textLength="128" x="290" y="98.6709">createBook(resource)</text><polygon fill="#181818" points="617,132.186,627,136.186,617,140.186,621,136.186" style="stroke:#181818;stroke-width:1.0;"/><line style="stroke:#181818;stroke-width:1.0;" x1="471" x2="623" y1="136.186" y2="136.186"/><text fill="#000000" font-family="sans-serif" font-size="13" font-weight="bold" lengthAdjust="spacing" textLength="7" x="478" y="130.377">3</text><text fill="#000000" font-family="sans-serif" font-size="13" lengthAdjust="spacing" textLength="128" x="489" y="130.377">createBook(resource)</text><line style="stroke:#181818;stroke-width:1.0;" x1="639" x2="686" y1="162.892" y2="162.892"/><line style="stroke:#181818;stroke-width:1.0;" x1="686" x2="686" y1="162.892" y2="175.892"/><line style="stroke:#181818;stroke-width:1.0;" x1="645" x2="686" y1="175.892" y2="175.892"/><polygon fill="#181818" points="655,171.892,645,175.892,655,179.892,651,175.892" style="stroke:#181818;stroke-width:1.0;"/><text fill="#000000" font-family="sans-serif" font-size="13" font-weight="bold" lengthAdjust="spacing" textLength="7" x="651" y="157.083">4</text><text fill="#000000" font-family="sans-serif" font-size="13" lengthAdjust="spacing" textLength="226" x="662" y="157.083">validateCreateBookRequest(resource)</text><line style="stroke:#181818;stroke-width:1.0;stroke-dasharray:2.0,2.0;" x1="644" x2="686" y1="217.598" y2="217.598"/><line style="stroke:#181818;stroke-width:1.0;stroke-dasharray:2.0,2.0;" x1="686" x2="686" y1="217.598" y2="230.598"/><line style="stroke:#181818;stroke-width:1.0;stroke-dasharray:2.0,2.0;" x1="639" x2="686" y1="230.598" y2="230.598"/><polygon fill="#181818" points="649,226.598,639,230.598,649,234.598,645,230.598" style="stroke:#181818;stroke-width:1.0;"/><text fill="#000000" font-family="sans-serif" font-size="13" font-weight="bold" lengthAdjust="spacing" textLength="7" x="651" y="211.789">5</text><text fill="#000000" font-family="sans-serif" font-size="13" lengthAdjust="spacing" textLength="15" x="662" y="211.789">ok</text><polygon fill="#181818" points="1055,253.304,1065,257.304,1055,261.304,1059,257.304" style="stroke:#181818;stroke-width:1.0;"/><line style="stroke:#181818;stroke-width:1.0;" x1="639" x2="1061" y1="257.304" y2="257.304"/><text fill="#000000" font-family="sans-serif" font-size="13" font-weight="bold" lengthAdjust="spacing" textLength="7" x="646" y="251.495">6</text><text fill="#000000" font-family="sans-serif" font-size="13" lengthAdjust="spacing" textLength="97" x="657" y="251.495">create(resource)</text><polygon fill="#181818" points="1313,285.01,1323,289.01,1313,293.01,1317,289.01" style="stroke:#181818;stroke-width:1.0;"/><line style="stroke:#181818;stroke-width:1.0;stroke-dasharray:2.0,2.0;" x1="1077" x2="1319" y1="289.01" y2="289.01"/><text fill="#000000" font-family="sans-serif" font-size="13" font-weight="bold" lengthAdjust="spacing" textLength="7" x="1084" y="283.201">7</text><text fill="#000000" font-family="sans-serif" font-size="13" lengthAdjust="spacing" textLength="213" x="1095" y="283.201">create(CreateBookRequest request)</text><rect fill="#E2E2F0" height="33.0679" rx="2.5" ry="2.5" style="stroke:#181818;stroke-width:0.5;" width="82" x="1325" y="265.304"/><text fill="#000000" font-family="sans-serif" font-size="14" lengthAdjust="spacing" textLength="68" x="1332" y="287.27">book:Book</text><polygon fill="#181818" points="650,329.0779,640,333.0779,650,337.0779,646,333.0779" style="stroke:#181818;stroke-width:1.0;"/><line style="stroke:#181818;stroke-width:1.0;stroke-dasharray:2.0,2.0;" x1="644" x2="1071" y1="333.0779" y2="333.0779"/><text fill="#000000" font-family="sans-serif" font-size="13" font-weight="bold" lengthAdjust="spacing" textLength="7" x="656" y="327.2689">8</text><text fill="#000000" font-family="sans-serif" font-size="13" lengthAdjust="spacing" textLength="31" x="667" y="327.2689">book</text><polygon fill="#181818" points="878,360.784,888,364.784,878,368.784,882,364.784" style="stroke:#181818;stroke-width:1.0;"/><line style="stroke:#181818;stroke-width:1.0;" x1="639" x2="884" y1="364.784" y2="364.784"/><text fill="#000000" font-family="sans-serif" font-size="13" font-weight="bold" lengthAdjust="spacing" textLength="7" x="646" y="358.975">9</text><text fill="#000000" font-family="sans-serif" font-size="13" lengthAdjust="spacing" textLength="66" x="657" y="358.975">save(book)</text><polygon fill="#181818" points="650,392.49,640,396.49,650,400.49,646,396.49" style="stroke:#181818;stroke-width:1.0;"/><line style="stroke:#181818;stroke-width:1.0;stroke-dasharray:2.0,2.0;" x1="644" x2="894" y1="396.49" y2="396.49"/><text fill="#000000" font-family="sans-serif" font-size="13" font-weight="bold" lengthAdjust="spacing" textLength="14" x="656" y="390.681">10</text><text fill="#000000" font-family="sans-serif" font-size="13" lengthAdjust="spacing" textLength="31" x="674" y="390.681">book</text><polygon fill="#181818" points="482,424.196,472,428.196,482,432.196,478,428.196" style="stroke:#181818;stroke-width:1.0;"/><line style="stroke:#181818;stroke-width:1.0;stroke-dasharray:2.0,2.0;" x1="476" x2="633" y1="428.196" y2="428.196"/><text fill="#000000" font-family="sans-serif" font-size="13" font-weight="bold" lengthAdjust="spacing" textLength="14" x="488" y="422.387">11</text><text fill="#000000" font-family="sans-serif" font-size="13" lengthAdjust="spacing" textLength="31" x="506" y="422.387">book</text><polygon fill="#181818" points="1631.5,455.902,1641.5,459.902,1631.5,463.902,1635.5,459.902" style="stroke:#181818;stroke-width:1.0;"/><line style="stroke:#181818;stroke-width:1.0;" x1="471" x2="1637.5" y1="459.902" y2="459.902"/><text fill="#000000" font-family="sans-serif" font-size="13" font-weight="bold" lengthAdjust="spacing" textLength="14" x="478" y="454.093">12</text><text fill="#000000" font-family="sans-serif" font-size="13" lengthAdjust="spacing" textLength="111" x="496" y="454.093">toBookView(book)</text><polygon fill="#181818" points="482,487.608,472,491.608,482,495.608,478,491.608" style="stroke:#181818;stroke-width:1.0;"/><line style="stroke:#181818;stroke-width:1.0;stroke-dasharray:2.0,2.0;" x1="476" x2="1647.5" y1="491.608" y2="491.608"/><text fill="#000000" font-family="sans-serif" font-size="13" font-weight="bold" lengthAdjust="spacing" textLength="14" x="488" y="485.799">13</text><text fill="#000000" font-family="sans-serif" font-size="13" lengthAdjust="spacing" textLength="59" x="506" y="485.799">bookView</text><polygon fill="#181818" points="1405,519.314,1415,523.314,1405,527.314,1409,523.314" style="stroke:#181818;stroke-width:1.0;"/><line style="stroke:#181818;stroke-width:1.0;stroke-dasharray:2.0,2.0;" x1="471" x2="1411" y1="523.314" y2="523.314"/><text fill="#000000" font-family="sans-serif" font-size="13" font-weight="bold" lengthAdjust="spacing" textLength="14" x="478" y="517.505">14</text><text fill="#000000" font-family="sans-serif" font-size="13" lengthAdjust="spacing" textLength="131" x="496" y="517.505">create(201, bookView)</text><rect fill="#E2E2F0" height="33.0679" rx="2.5" ry="2.5" style="stroke:#181818;stroke-width:0.5;" width="128" x="1417" y="499.608"/><text fill="#000000" font-family="sans-serif" font-size="14" lengthAdjust="spacing" textLength="114" x="1424" y="521.574">result:HttpResult</text><polygon fill="#181818" points="283,563.382,273,567.382,283,571.382,279,567.382" style="stroke:#181818;stroke-width:1.0;"/><line style="stroke:#181818;stroke-width:1.0;stroke-dasharray:2.0,2.0;" x1="277" x2="465" y1="567.382" y2="567.382"/><text fill="#000000" font-family="sans-serif" font-size="13" font-weight="bold" lengthAdjust="spacing" textLength="14" x="289" y="561.573">15</text><text fill="#000000" font-family="sans-serif" font-size="13" lengthAdjust="spacing" textLength="34" x="307" y="561.573">result</text><line style="stroke:#181818;stroke-width:1.0;" x1="272" x2="319" y1="594.088" y2="594.088"/><line style="stroke:#181818;stroke-width:1.0;" x1="319" x2="319" y1="594.088" y2="607.088"/><line style="stroke:#181818;stroke-width:1.0;" x1="278" x2="319" y1="607.088" y2="607.088"/><polygon fill="#181818" points="288,603.088,278,607.088,288,611.088,284,607.088" style="stroke:#181818;stroke-width:1.0;"/><text fill="#000000" font-family="sans-serif" font-size="13" font-weight="bold" lengthAdjust="spacing" textLength="14" x="284" y="588.279">16</text><text fill="#000000" font-family="sans-serif" font-size="13" lengthAdjust="spacing" textLength="157" x="302" y="588.279">setHttpResult(resp, result)</text><polygon fill="#181818" points="106,639.794,96,643.794,106,647.794,102,643.794" style="stroke:#181818;stroke-width:1.0;"/><line style="stroke:#181818;stroke-width:1.0;stroke-dasharray:2.0,2.0;" x1="100" x2="261" y1="643.794" y2="643.794"/><text fill="#000000" font-family="sans-serif" font-size="13" font-weight="bold" lengthAdjust="spacing" textLength="14" x="112" y="637.985">17</text><text fill="#000000" font-family="sans-serif" font-size="13" lengthAdjust="spacing" textLength="26" x="130" y="637.985">resp</text><!--SRC=[VP9DJyCm38Rl-HNHBcneOy0n1oIea7P1JDl4FUii5j4c8N67zk-9quyqO-9KEtxyshLzSqIqNYoNjf8QcxgwAqszzF3TW2vXSL3oqycQCTcWaIMgaqJWHaTVD_KU76DMEbIbia60JvwrqUVQD5wiThjrKIdGEE7Iy-Jc2KUf3nKuiJ4DmgfrOiBsx17g71OlndmLHgCpLSyLwAgSyk1EgeG8RrkxLMpj77PWJIGtmV0AZJj7cDoShAMreT7NWqBYtw8RsVmfpzg7zwWVIJ8kw_kcGh4AUzX4iwjEvjNw9F6Xu6TKFxbXK_sMHWDdoUQBfswoWg_VjxibzUUd1ubonje08JHKmKi7GOaAJaERfd4bp1Y5eaetvUjK5yt0awnKA0J5aB2XG_DuBM-S66OsqikdtTSVQUH0b2BtzdPW_tJ0NVkzcZpqGRCQTq8t8hYN9vXIQCReuR-KORBnkPzaMf_WQFhzTf8fU95EWKuYja87C_h5n_k7-S3D4jWllxsxqShxW0TCnqXJjVCEJWSIy7HIKSkoNm00]--></g></svg>