<?xml version="1.0" encoding="us-ascii" standalone="no"?><svg xmlns="http://www.w3.org/2000/svg" xmlns:xlink="http://www.w3.org/1999/xlink" contentStyleType="text/css" height="593px" preserveAspectRatio="none" style="width:1035px;height:593px;background:#FFFFFF;" version="1.1" viewBox="0 0 1035 593" width="1035px" zoomAndPan="magnify"><defs/><g><rect fill="#FFFFFF" height="375.832" style="stroke:#181818;stroke-width:1.0;" width="10" x="270" y="116.9121"/><rect fill="#FFFFFF" height="250.668" style="stroke:#181818;stroke-width:1.0;" width="10" x="511" y="148.2031"/><rect fill="#FFFFFF" height="31.291" style="stroke:#181818;stroke-width:1.0;" width="10" x="701" y="179.4941"/><rect fill="#FFFFFF" height="31.291" style="stroke:#181818;stroke-width:1.0;" width="10" x="935.5" y="430.1621"/><rect fill="none" height="142.7949" style="stroke:#000000;stroke-width:1.5;" width="734.5" x="203.5" y="225.7852"/><line style="stroke:#181818;stroke-width:0.5;stroke-dasharray:5.0,5.0;" x1="31" x2="31" y1="83.6211" y2="510.7441"/><line style="stroke:#181818;stroke-width:0.5;stroke-dasharray:5.0,5.0;" x1="274.5" x2="274.5" y1="83.6211" y2="510.7441"/><line style="stroke:#181818;stroke-width:0.5;stroke-dasharray:5.0,5.0;" x1="516" x2="516" y1="83.6211" y2="510.7441"/><line style="stroke:#181818;stroke-width:0.5;stroke-dasharray:5.0,5.0;" x1="705.5" x2="705.5" y1="83.6211" y2="510.7441"/><line style="stroke:#181818;stroke-width:0.5;stroke-dasharray:5.0,5.0;" x1="810.5" x2="810.5" y1="83.6211" y2="510.7441"/><line style="stroke:#181818;stroke-width:0.5;stroke-dasharray:5.0,5.0;" x1="940.5" x2="940.5" y1="83.6211" y2="510.7441"/><text fill="#000000" font-family="sans-serif" font-size="14" lengthAdjust="spacing" textLength="46" x="5" y="80.1074">System</text><ellipse cx="31" cy="13.5" fill="#E2E2F0" rx="8" ry="8" style="stroke:#181818;stroke-width:0.5;"/><path d="M31,21.5 L31,48.5 M18,29.5 L44,29.5 M31,48.5 L18,63.5 M31,48.5 L44,63.5 " fill="none" style="stroke:#181818;stroke-width:0.5;"/><text fill="#000000" font-family="sans-serif" font-size="14" lengthAdjust="spacing" textLength="46" x="5" y="524.8516">System</text><ellipse cx="31" cy="536.8652" fill="#E2E2F0" rx="8" ry="8" style="stroke:#181818;stroke-width:0.5;"/><path d="M31,544.8652 L31,571.8652 M18,552.8652 L44,552.8652 M31,571.8652 L18,586.8652 M31,571.8652 L44,586.8652 " fill="none" style="stroke:#181818;stroke-width:0.5;"/><rect fill="#E2E2F0" height="32.6211" rx="2.5" ry="2.5" style="stroke:#181818;stroke-width:0.5;" width="123" x="213.5" y="50"/><text fill="#000000" font-family="sans-serif" font-size="14" lengthAdjust="spacing" textLength="109" x="220.5" y="72.1074">ReaderController</text><rect fill="#E2E2F0" height="32.6211" rx="2.5" ry="2.5" style="stroke:#181818;stroke-width:0.5;" width="123" x="213.5" y="509.7441"/><text fill="#000000" font-family="sans-serif" font-size="14" lengthAdjust="spacing" textLength="109" x="220.5" y="531.8516">ReaderController</text><rect fill="#E2E2F0" height="32.6211" rx="2.5" ry="2.5" style="stroke:#181818;stroke-width:0.5;" width="108" x="462" y="50"/><text fill="#000000" font-family="sans-serif" font-size="14" lengthAdjust="spacing" textLength="94" x="469" y="72.1074">ReaderService</text><rect fill="#E2E2F0" height="32.6211" rx="2.5" ry="2.5" style="stroke:#181818;stroke-width:0.5;" width="108" x="462" y="509.7441"/><text fill="#000000" font-family="sans-serif" font-size="14" lengthAdjust="spacing" textLength="94" x="469" y="531.8516">ReaderService</text><rect fill="#E2E2F0" height="32.6211" rx="2.5" ry="2.5" style="stroke:#181818;stroke-width:0.5;" width="129" x="641.5" y="50"/><text fill="#000000" font-family="sans-serif" font-size="14" lengthAdjust="spacing" textLength="115" x="648.5" y="72.1074">ReaderRepository</text><rect fill="#E2E2F0" height="32.6211" rx="2.5" ry="2.5" style="stroke:#181818;stroke-width:0.5;" width="129" x="641.5" y="509.7441"/><text fill="#000000" font-family="sans-serif" font-size="14" lengthAdjust="spacing" textLength="115" x="648.5" y="531.8516">ReaderRepository</text><rect fill="#E2E2F0" height="32.6211" rx="2.5" ry="2.5" style="stroke:#181818;stroke-width:0.5;" width="61" x="780.5" y="50"/><text fill="#000000" font-family="sans-serif" font-size="14" lengthAdjust="spacing" textLength="47" x="787.5" y="72.1074">Reader</text><rect fill="#E2E2F0" height="32.6211" rx="2.5" ry="2.5" style="stroke:#181818;stroke-width:0.5;" width="61" x="780.5" y="509.7441"/><text fill="#000000" font-family="sans-serif" font-size="14" lengthAdjust="spacing" textLength="47" x="787.5" y="531.8516">Reader</text><rect fill="#E2E2F0" height="32.6211" rx="2.5" ry="2.5" style="stroke:#181818;stroke-width:0.5;" width="178" x="851.5" y="50"/><text fill="#000000" font-family="sans-serif" font-size="14" lengthAdjust="spacing" textLength="164" x="858.5" y="72.1074">ReaderProfileViewMapper</text><rect fill="#E2E2F0" height="32.6211" rx="2.5" ry="2.5" style="stroke:#181818;stroke-width:0.5;" width="178" x="851.5" y="509.7441"/><text fill="#000000" font-family="sans-serif" font-size="14" lengthAdjust="spacing" textLength="164" x="858.5" y="531.8516">ReaderProfileViewMapper</text><rect fill="#FFFFFF" height="375.832" style="stroke:#181818;stroke-width:1.0;" width="10" x="270" y="116.9121"/><rect fill="#FFFFFF" height="250.668" style="stroke:#181818;stroke-width:1.0;" width="10" x="511" y="148.2031"/><rect fill="#FFFFFF" height="31.291" style="stroke:#181818;stroke-width:1.0;" width="10" x="701" y="179.4941"/><rect fill="#FFFFFF" height="31.291" style="stroke:#181818;stroke-width:1.0;" width="10" x="935.5" y="430.1621"/><polygon fill="#181818" points="258,112.9121,268,116.9121,258,120.9121,262,116.9121" style="stroke:#181818;stroke-width:1.0;"/><line style="stroke:#181818;stroke-width:1.0;" x1="31" x2="264" y1="116.9121" y2="116.9121"/><text fill="#000000" font-family="sans-serif" font-size="13" font-weight="bold" lengthAdjust="spacing" textLength="7" x="38" y="111.6494">1</text><text fill="#000000" font-family="sans-serif" font-size="13" lengthAdjust="spacing" textLength="156" x="49" y="111.6494">GET /api/readers/{readerId}</text><polygon fill="#181818" points="499,144.2031,509,148.2031,499,152.2031,503,148.2031" style="stroke:#181818;stroke-width:1.0;"/><line style="stroke:#181818;stroke-width:1.0;" x1="280" x2="505" y1="148.2031" y2="148.2031"/><text fill="#000000" font-family="sans-serif" font-size="13" font-weight="bold" lengthAdjust="spacing" textLength="7" x="287" y="142.9404">2</text><text fill="#000000" font-family="sans-serif" font-size="13" lengthAdjust="spacing" textLength="201" x="298" y="142.9404">getReaderByIdWithQuote(readerId)</text><polygon fill="#181818" points="689,175.4941,699,179.4941,689,183.4941,693,179.4941" style="stroke:#181818;stroke-width:1.0;"/><line style="stroke:#181818;stroke-width:1.0;" x1="521" x2="695" y1="179.4941" y2="179.4941"/><text fill="#000000" font-family="sans-serif" font-size="13" font-weight="bold" lengthAdjust="spacing" textLength="7" x="528" y="174.2314">3</text><text fill="#000000" font-family="sans-serif" font-size="13" lengthAdjust="spacing" textLength="141" x="539" y="174.2314">findReaderById(readerId)</text><polygon fill="#181818" points="532,206.7852,522,210.7852,532,214.7852,528,210.7852" style="stroke:#181818;stroke-width:1.0;"/><line style="stroke:#181818;stroke-width:1.0;stroke-dasharray:2.0,2.0;" x1="526" x2="705" y1="210.7852" y2="210.7852"/><text fill="#000000" font-family="sans-serif" font-size="13" font-weight="bold" lengthAdjust="spacing" textLength="7" x="538" y="205.5225">4</text><text fill="#000000" font-family="sans-serif" font-size="13" lengthAdjust="spacing" textLength="145" x="549" y="205.5225">Optional&lt;Reader&gt; reader</text><path d="M203.5,225.7852 L264.5,225.7852 L264.5,235.0762 L254.5,245.0762 L203.5,245.0762 L203.5,225.7852 " fill="#EEEEEE" style="stroke:#000000;stroke-width:1.5;"/><rect fill="none" height="142.7949" style="stroke:#000000;stroke-width:1.5;" width="734.5" x="203.5" y="225.7852"/><text fill="#000000" font-family="sans-serif" font-size="13" font-weight="bold" lengthAdjust="spacing" textLength="16" x="218.5" y="240.8135">alt</text><text fill="#000000" font-family="sans-serif" font-size="11" font-weight="bold" lengthAdjust="spacing" textLength="80" x="279.5" y="239.6553">[reader found]</text><polygon fill="#181818" points="799,264.3672,809,268.3672,799,272.3672,803,268.3672" style="stroke:#181818;stroke-width:1.0;"/><line style="stroke:#181818;stroke-width:1.0;" x1="521" x2="805" y1="268.3672" y2="268.3672"/><text fill="#000000" font-family="sans-serif" font-size="13" font-weight="bold" lengthAdjust="spacing" textLength="7" x="528" y="263.1045">5</text><text fill="#000000" font-family="sans-serif" font-size="13" lengthAdjust="spacing" textLength="70" x="539" y="263.1045">updateAge()</text><line style="stroke:#181818;stroke-width:1.0;" x1="811" x2="853" y1="299.6582" y2="299.6582"/><line style="stroke:#181818;stroke-width:1.0;" x1="853" x2="853" y1="299.6582" y2="312.6582"/><line style="stroke:#181818;stroke-width:1.0;" x1="812" x2="853" y1="312.6582" y2="312.6582"/><polygon fill="#181818" points="822,308.6582,812,312.6582,822,316.6582,818,312.6582" style="stroke:#181818;stroke-width:1.0;"/><text fill="#000000" font-family="sans-serif" font-size="13" font-weight="bold" lengthAdjust="spacing" textLength="7" x="818" y="294.3955">6</text><text fill="#000000" font-family="sans-serif" font-size="13" lengthAdjust="spacing" textLength="97" x="829" y="294.3955">getFunnyQuote()</text><line style="stroke:#000000;stroke-width:1.0;stroke-dasharray:2.0,2.0;" x1="203.5" x2="938" y1="321.6582" y2="321.6582"/><text fill="#000000" font-family="sans-serif" font-size="11" font-weight="bold" lengthAdjust="spacing" textLength="101" x="208.5" y="333.5283">[reader not found]</text><polygon fill="#181818" points="291,356.5801,281,360.5801,291,364.5801,287,360.5801" style="stroke:#181818;stroke-width:1.0;"/><line style="stroke:#181818;stroke-width:1.0;" x1="285" x2="510" y1="360.5801" y2="360.5801"/><text fill="#000000" font-family="sans-serif" font-size="13" font-weight="bold" lengthAdjust="spacing" textLength="7" x="297" y="355.3174">7</text><text fill="#000000" font-family="sans-serif" font-size="13" lengthAdjust="spacing" textLength="149" x="308" y="355.3174">throw NotFoundException</text><polygon fill="#181818" points="291,394.8711,281,398.8711,291,402.8711,287,398.8711" style="stroke:#181818;stroke-width:1.0;"/><line style="stroke:#181818;stroke-width:1.0;stroke-dasharray:2.0,2.0;" x1="285" x2="515" y1="398.8711" y2="398.8711"/><text fill="#000000" font-family="sans-serif" font-size="13" font-weight="bold" lengthAdjust="spacing" textLength="7" x="297" y="393.6084">8</text><text fill="#000000" font-family="sans-serif" font-size="13" lengthAdjust="spacing" textLength="145" x="308" y="393.6084">Optional&lt;Reader&gt; reader</text><polygon fill="#181818" points="923.5,426.1621,933.5,430.1621,923.5,434.1621,927.5,430.1621" style="stroke:#181818;stroke-width:1.0;"/><line style="stroke:#181818;stroke-width:1.0;" x1="280" x2="929.5" y1="430.1621" y2="430.1621"/><text fill="#000000" font-family="sans-serif" font-size="13" font-weight="bold" lengthAdjust="spacing" textLength="7" x="287" y="424.8994">9</text><text fill="#000000" font-family="sans-serif" font-size="13" lengthAdjust="spacing" textLength="160" x="298" y="424.8994">toReaderProfileView(reader)</text><polygon fill="#181818" points="291,457.4531,281,461.4531,291,465.4531,287,461.4531" style="stroke:#181818;stroke-width:1.0;"/><line style="stroke:#181818;stroke-width:1.0;stroke-dasharray:2.0,2.0;" x1="285" x2="939.5" y1="461.4531" y2="461.4531"/><text fill="#000000" font-family="sans-serif" font-size="13" font-weight="bold" lengthAdjust="spacing" textLength="14" x="297" y="456.1904">10</text><text fill="#000000" font-family="sans-serif" font-size="13" lengthAdjust="spacing" textLength="105" x="315" y="456.1904">ReaderProfileView</text><polygon fill="#181818" points="42,488.7441,32,492.7441,42,496.7441,38,492.7441" style="stroke:#181818;stroke-width:1.0;"/><line style="stroke:#181818;stroke-width:1.0;stroke-dasharray:2.0,2.0;" x1="36" x2="274" y1="492.7441" y2="492.7441"/><text fill="#000000" font-family="sans-serif" font-size="13" font-weight="bold" lengthAdjust="spacing" textLength="14" x="48" y="487.4814">11</text><text fill="#000000" font-family="sans-serif" font-size="13" lengthAdjust="spacing" textLength="197" x="66" y="487.4814">HTTP 200 OK (ReaderProfileView)</text><!--SRC=[ZPF1JiCm38RlVWeVryCqnB52am1jC27Os2OuXyRR8dLnbReR5UBTAKkdLiqgoAdvOt_ERpSg4NQuAdEXFQX2s1Rx3t80NiBX69UaDBbxjk8uJSd5-31PuqXbPkHEH_deot_Cz3UeHCn12GLf05sbWQ_87Kn2CMv9l79NplIxaTrhmKA3Cpxgukl4CxlUDk0bPPoRoc8PuyPOtS3xcKqET0KSXbUUPsBOglJ6wsFqOD3KpmMLIXs76owi1gnMZuSOYqnNcDij3Q9MO3kYwjkqiBRqxOg0qfpE1IpBtqNQuvMTuoE-i4n_ioQV2Pqi0bM8RgCl0lxTaixuBlqQ2ySRazAReUEpohBJ_JWuggSPp3B8XXwznqaG7Ne8IrnmKy7zWuhnSRrUuFNL5SwVS10Weh10wmdz0000]--></g></svg>