<?xml version="1.0" encoding="us-ascii" standalone="no"?><svg xmlns="http://www.w3.org/2000/svg" xmlns:xlink="http://www.w3.org/1999/xlink" contentStyleType="text/css" height="376px" preserveAspectRatio="none" style="width:871px;height:376px;background:#FFFFFF;" version="1.1" viewBox="0 0 871 376" width="871px" zoomAndPan="magnify"><defs/><g><rect fill="#FFFFFF" height="190.7461" style="stroke:#181818;stroke-width:1.0;" width="10" x="22.5" y="93.6211"/><rect fill="#FFFFFF" height="167.4551" style="stroke:#181818;stroke-width:1.0;" width="10" x="289.5" y="116.9121"/><rect fill="#FFFFFF" height="62.582" style="stroke:#181818;stroke-width:1.0;" width="10" x="555.5" y="174.4941"/><rect fill="#FFFFFF" height="62.582" style="stroke:#181818;stroke-width:1.0;" width="10" x="758.5" y="205.7852"/><rect fill="none" height="144.4551" style="stroke:#000000;stroke-width:1.5;" width="630.5" x="234.5" y="131.9121"/><line style="stroke:#181818;stroke-width:0.5;stroke-dasharray:5.0,5.0;" x1="27" x2="27" y1="83.6211" y2="293.3672"/><line style="stroke:#181818;stroke-width:0.5;stroke-dasharray:5.0,5.0;" x1="294.5" x2="294.5" y1="83.6211" y2="293.3672"/><line style="stroke:#181818;stroke-width:0.5;stroke-dasharray:5.0,5.0;" x1="560" x2="560" y1="83.6211" y2="293.3672"/><line style="stroke:#181818;stroke-width:0.5;stroke-dasharray:5.0,5.0;" x1="763" x2="763" y1="83.6211" y2="293.3672"/><text fill="#000000" font-family="sans-serif" font-size="14" lengthAdjust="spacing" textLength="39" x="5" y="80.1074">Admin</text><ellipse cx="27.5" cy="13.5" fill="#E2E2F0" rx="8" ry="8" style="stroke:#181818;stroke-width:0.5;"/><path d="M27.5,21.5 L27.5,48.5 M14.5,29.5 L40.5,29.5 M27.5,48.5 L14.5,63.5 M27.5,48.5 L40.5,63.5 " fill="none" style="stroke:#181818;stroke-width:0.5;"/><text fill="#000000" font-family="sans-serif" font-size="14" lengthAdjust="spacing" textLength="39" x="5" y="307.4746">Admin</text><ellipse cx="27.5" cy="319.4883" fill="#E2E2F0" rx="8" ry="8" style="stroke:#181818;stroke-width:0.5;"/><path d="M27.5,327.4883 L27.5,354.4883 M14.5,335.4883 L40.5,335.4883 M27.5,354.4883 L14.5,369.4883 M27.5,354.4883 L40.5,369.4883 " fill="none" style="stroke:#181818;stroke-width:0.5;"/><rect fill="#E2E2F0" height="32.6211" rx="2.5" ry="2.5" style="stroke:#181818;stroke-width:0.5;" width="100" x="244.5" y="50"/><text fill="#000000" font-family="sans-serif" font-size="14" lengthAdjust="spacing" textLength="86" x="251.5" y="72.1074">:Bootstrapper</text><rect fill="#E2E2F0" height="32.6211" rx="2.5" ry="2.5" style="stroke:#181818;stroke-width:0.5;" width="100" x="244.5" y="292.3672"/><text fill="#000000" font-family="sans-serif" font-size="14" lengthAdjust="spacing" textLength="86" x="251.5" y="314.4746">:Bootstrapper</text><rect fill="#E2E2F0" height="32.6211" rx="2.5" ry="2.5" style="stroke:#181818;stroke-width:0.5;" width="203" x="459" y="50"/><text fill="#000000" font-family="sans-serif" font-size="14" lengthAdjust="spacing" textLength="189" x="466" y="72.1074">authorRepo:AuthorRepository</text><rect fill="#E2E2F0" height="32.6211" rx="2.5" ry="2.5" style="stroke:#181818;stroke-width:0.5;" width="203" x="459" y="292.3672"/><text fill="#000000" font-family="sans-serif" font-size="14" lengthAdjust="spacing" textLength="189" x="466" y="314.4746">authorRepo:AuthorRepository</text><rect fill="#E2E2F0" height="32.6211" rx="2.5" ry="2.5" style="stroke:#181818;stroke-width:0.5;" width="183" x="672" y="50"/><text fill="#000000" font-family="sans-serif" font-size="14" lengthAdjust="spacing" textLength="169" x="679" y="72.1074">bookRepo:BookRepository</text><rect fill="#E2E2F0" height="32.6211" rx="2.5" ry="2.5" style="stroke:#181818;stroke-width:0.5;" width="183" x="672" y="292.3672"/><text fill="#000000" font-family="sans-serif" font-size="14" lengthAdjust="spacing" textLength="169" x="679" y="314.4746">bookRepo:BookRepository</text><rect fill="#FFFFFF" height="190.7461" style="stroke:#181818;stroke-width:1.0;" width="10" x="22.5" y="93.6211"/><rect fill="#FFFFFF" height="167.4551" style="stroke:#181818;stroke-width:1.0;" width="10" x="289.5" y="116.9121"/><rect fill="#FFFFFF" height="62.582" style="stroke:#181818;stroke-width:1.0;" width="10" x="555.5" y="174.4941"/><rect fill="#FFFFFF" height="62.582" style="stroke:#181818;stroke-width:1.0;" width="10" x="758.5" y="205.7852"/><polygon fill="#181818" points="277.5,112.9121,287.5,116.9121,277.5,120.9121,281.5,116.9121" style="stroke:#181818;stroke-width:1.0;"/><line style="stroke:#181818;stroke-width:1.0;" x1="32.5" x2="283.5" y1="116.9121" y2="116.9121"/><text fill="#000000" font-family="sans-serif" font-size="13" font-weight="bold" lengthAdjust="spacing" textLength="7" x="39.5" y="111.6494">1</text><text fill="#000000" font-family="sans-serif" font-size="13" lengthAdjust="spacing" textLength="227" x="50.5" y="111.6494">asks to bootstrap author and book data</text><path d="M234.5,131.9121 L307.5,131.9121 L307.5,141.2031 L297.5,151.2031 L234.5,151.2031 L234.5,131.9121 " fill="#EEEEEE" style="stroke:#000000;stroke-width:1.5;"/><rect fill="none" height="144.4551" style="stroke:#000000;stroke-width:1.5;" width="630.5" x="234.5" y="131.9121"/><text fill="#000000" font-family="sans-serif" font-size="13" font-weight="bold" lengthAdjust="spacing" textLength="28" x="249.5" y="146.9404">loop</text><text fill="#000000" font-family="sans-serif" font-size="11" font-weight="bold" lengthAdjust="spacing" textLength="79" x="322.5" y="145.7822">[for each data]</text><polygon fill="#181818" points="543.5,170.4941,553.5,174.4941,543.5,178.4941,547.5,174.4941" style="stroke:#181818;stroke-width:1.0;"/><line style="stroke:#181818;stroke-width:1.0;" x1="299.5" x2="549.5" y1="174.4941" y2="174.4941"/><text fill="#000000" font-family="sans-serif" font-size="13" font-weight="bold" lengthAdjust="spacing" textLength="7" x="306.5" y="169.2314">2</text><text fill="#000000" font-family="sans-serif" font-size="13" lengthAdjust="spacing" textLength="188" x="317.5" y="169.2314">checks if the data already exists</text><polygon fill="#181818" points="746.5,201.7852,756.5,205.7852,746.5,209.7852,750.5,205.7852" style="stroke:#181818;stroke-width:1.0;"/><line style="stroke:#181818;stroke-width:1.0;" x1="299.5" x2="752.5" y1="205.7852" y2="205.7852"/><text fill="#000000" font-family="sans-serif" font-size="13" font-weight="bold" lengthAdjust="spacing" textLength="7" x="306.5" y="200.5225">3</text><text fill="#000000" font-family="sans-serif" font-size="13" lengthAdjust="spacing" textLength="188" x="317.5" y="200.5225">checks if the data already exists</text><polygon fill="#181818" points="310.5,233.0762,300.5,237.0762,310.5,241.0762,306.5,237.0762" style="stroke:#181818;stroke-width:1.0;"/><line style="stroke:#181818;stroke-width:1.0;stroke-dasharray:2.0,2.0;" x1="304.5" x2="559.5" y1="237.0762" y2="237.0762"/><text fill="#000000" font-family="sans-serif" font-size="13" font-weight="bold" lengthAdjust="spacing" textLength="7" x="316.5" y="231.8135">4</text><text fill="#000000" font-family="sans-serif" font-size="13" lengthAdjust="spacing" textLength="221" x="327.5" y="231.8135">if not, creates author data and saves it</text><polygon fill="#181818" points="310.5,264.3672,300.5,268.3672,310.5,272.3672,306.5,268.3672" style="stroke:#181818;stroke-width:1.0;"/><line style="stroke:#181818;stroke-width:1.0;stroke-dasharray:2.0,2.0;" x1="304.5" x2="762.5" y1="268.3672" y2="268.3672"/><text fill="#000000" font-family="sans-serif" font-size="13" font-weight="bold" lengthAdjust="spacing" textLength="7" x="316.5" y="263.1045">5</text><text fill="#000000" font-family="sans-serif" font-size="13" lengthAdjust="spacing" textLength="213" x="327.5" y="263.1045">if not, creates book data and saves it</text><!--SRC=[ZOz1JiGm34NtFONL3HjArMqNI3FS08a3k8c7HctZaBWZvlOuALEf826oYEAVztz-7aQHaFgs3JDwMPVvoV3I9lfOoHjghCFtY4jLuIgCHjmLXO1zcVsw31JrpWX7g4zsSRu6JF2ML0uOnHaND1Rg_imiIIA6GB4mBnBd8wEH8yTN2joVzcDocdqhZZmU7GFpLFZpz-47tPLkM-VIgSexDC_bzLwnAO4m3FToi7K0z3QB4rWKh6Rc01UL2SsuIQ0hP-IiqW3CI4RJt0Laf081pf7Gte0-NPBqozFzrvHXQFRMIdkMHp0A2gLxvysjnHDULNMoUxi_pFilZrRI8N-x-W80]--></g></svg>