<?xml version="1.0" encoding="us-ascii" standalone="no"?><svg xmlns="http://www.w3.org/2000/svg" xmlns:xlink="http://www.w3.org/1999/xlink" contentStyleType="text/css" height="523px" preserveAspectRatio="none" style="width:391px;height:523px;background:#FFFFFF;" version="1.1" viewBox="0 0 391 523" width="391px" zoomAndPan="magnify"><defs/><g><!--class Author--><g id="elem_Author"><rect codeLine="6" fill="#F1F1F1" height="119.1055" id="Author" rx="2.5" ry="2.5" style="stroke:#181818;stroke-width:0.5;" width="98" x="26.8" y="397"/><text fill="#000000" font-family="sans-serif" font-size="14" lengthAdjust="spacing" textLength="42" x="54.8" y="417.1074">Author</text><line style="stroke:#181818;stroke-width:0.5;" x1="27.8" x2="123.8" y1="425.6211" y2="425.6211"/><text fill="#000000" font-family="sans-serif" font-size="14" lengthAdjust="spacing" textLength="16" x="32.8" y="444.7285">-id</text><text fill="#000000" font-family="sans-serif" font-size="14" lengthAdjust="spacing" textLength="40" x="32.8" y="463.3496">-name</text><text fill="#000000" font-family="sans-serif" font-size="14" lengthAdjust="spacing" textLength="57" x="32.8" y="481.9707">-shortBio</text><line style="stroke:#181818;stroke-width:0.5;" x1="27.8" x2="123.8" y1="489.4844" y2="489.4844"/><text fill="#000000" font-family="sans-serif" font-size="14" lengthAdjust="spacing" textLength="86" x="32.8" y="508.5918">+getVersion()</text></g><!--class AuthorController--><g id="elem_AuthorController"><rect codeLine="13" fill="#F1F1F1" height="63.2422" id="AuthorController" rx="2.5" ry="2.5" style="stroke:#181818;stroke-width:0.5;" width="110" x="71.8" y="7"/><text fill="#000000" font-family="sans-serif" font-size="14" lengthAdjust="spacing" textLength="104" x="74.8" y="27.1074">AuthorController</text><line style="stroke:#181818;stroke-width:0.5;" x1="72.8" x2="180.8" y1="35.6211" y2="35.6211"/><line style="stroke:#181818;stroke-width:0.5;" x1="72.8" x2="180.8" y1="43.6211" y2="43.6211"/><text fill="#000000" font-family="sans-serif" font-size="14" lengthAdjust="spacing" textLength="91" x="77.8" y="62.7285">+getAuthor(id)</text></g><!--class AuthorServiceImpl--><g id="elem_AuthorServiceImpl"><rect codeLine="17" fill="#F1F1F1" height="63.2422" id="AuthorServiceImpl" rx="2.5" ry="2.5" style="stroke:#181818;stroke-width:0.5;" width="137" x="58.3" y="131"/><text fill="#000000" font-family="sans-serif" font-size="14" lengthAdjust="spacing" textLength="114" x="69.8" y="151.1074">AuthorServiceImpl</text><line style="stroke:#181818;stroke-width:0.5;" x1="59.3" x2="194.3" y1="159.6211" y2="159.6211"/><line style="stroke:#181818;stroke-width:0.5;" x1="59.3" x2="194.3" y1="167.6211" y2="167.6211"/><text fill="#000000" font-family="sans-serif" font-size="14" lengthAdjust="spacing" textLength="125" x="64.3" y="186.7285">+getAuthorsById(id)</text></g><!--class AuthorViewMapper--><g id="elem_AuthorViewMapper"><rect codeLine="21" fill="#F1F1F1" height="63.2422" id="AuthorViewMapper" rx="2.5" ry="2.5" style="stroke:#181818;stroke-width:0.5;" width="154" x="230.8" y="131"/><text fill="#000000" font-family="sans-serif" font-size="14" lengthAdjust="spacing" textLength="119" x="248.3" y="151.1074">AuthorViewMapper</text><line style="stroke:#181818;stroke-width:0.5;" x1="231.8" x2="383.8" y1="159.6211" y2="159.6211"/><line style="stroke:#181818;stroke-width:0.5;" x1="231.8" x2="383.8" y1="167.6211" y2="167.6211"/><text fill="#000000" font-family="sans-serif" font-size="14" lengthAdjust="spacing" textLength="142" x="236.8" y="186.7285">+toAuthorView(author)</text></g><!--class AuthorRepository--><g id="elem_AuthorRepository"><rect codeLine="26" fill="#F1F1F1" height="63.2422" id="AuthorRepository" rx="2.5" ry="2.5" style="stroke:#181818;stroke-width:0.5;" width="133" x="129.3" y="255"/><text fill="#000000" font-family="sans-serif" font-size="14" lengthAdjust="spacing" textLength="110" x="140.8" y="275.1074">AuthorRepository</text><line style="stroke:#181818;stroke-width:0.5;" x1="130.3" x2="261.3" y1="283.6211" y2="283.6211"/><line style="stroke:#181818;stroke-width:0.5;" x1="130.3" x2="261.3" y1="291.6211" y2="291.6211"/><text fill="#000000" font-family="sans-serif" font-size="14" lengthAdjust="spacing" textLength="121" x="135.3" y="310.7285">+findAuthorById(id)</text></g><!--link AuthorController to AuthorServiceImpl--><g id="link_AuthorController_AuthorServiceImpl"><path codeLine="32" d="M126.8,70.29 C126.8,88.78 126.8,106.23 126.8,124.72 " fill="none" id="AuthorController-to-AuthorServiceImpl" style="stroke:#181818;stroke-width:1.0;stroke-dasharray:7.0,7.0;"/><polygon fill="#181818" points="126.8,130.72,130.8,121.72,126.8,125.72,122.8,121.72,126.8,130.72" style="stroke:#181818;stroke-width:1.0;"/></g><!--link AuthorServiceImpl to AuthorRepository--><g id="link_AuthorServiceImpl_AuthorRepository"><path codeLine="33" d="M144.21,194.29 C154.67,212.78 164.9878,231.0065 175.4378,249.4965 " fill="none" id="AuthorServiceImpl-to-AuthorRepository" style="stroke:#181818;stroke-width:1.0;stroke-dasharray:7.0,7.0;"/><polygon fill="#181818" points="178.39,254.72,177.4441,244.9167,175.9299,250.3671,170.4794,248.8529,178.39,254.72" style="stroke:#181818;stroke-width:1.0;"/></g><!--link AuthorController to AuthorViewMapper--><g id="link_AuthorController_AuthorViewMapper"><path codeLine="34" d="M172.47,70.29 C200.02,88.85 229.9953,109.0555 257.4753,127.5855 " fill="none" id="AuthorController-to-AuthorViewMapper" style="stroke:#181818;stroke-width:1.0;stroke-dasharray:7.0,7.0;"/><polygon fill="#181818" points="262.45,130.94,257.2243,122.5918,258.3044,128.1446,252.7517,129.2247,262.45,130.94" style="stroke:#181818;stroke-width:1.0;"/></g><!--link AuthorController to Author--><g id="link_AuthorController_Author"><path codeLine="35" d="M86.58,70.16 C68.97,86.14 50.2,107.29 40.8,131 C6,218.84 29.508,324.2295 51.438,391.0095 " fill="none" id="AuthorController-to-Author" style="stroke:#181818;stroke-width:1.0;stroke-dasharray:7.0,7.0;"/><polygon fill="#181818" points="53.31,396.71,54.3023,386.9113,51.75,391.9596,46.7017,389.4073,53.31,396.71" style="stroke:#181818;stroke-width:1.0;"/></g><!--link AuthorServiceImpl to Author--><g id="link_AuthorServiceImpl_Author"><path codeLine="36" d="M121.44,194.2 C113.06,242.15 97.762,329.7594 87.082,390.9294 " fill="none" id="AuthorServiceImpl-to-Author" style="stroke:#181818;stroke-width:1.0;stroke-dasharray:7.0,7.0;"/><polygon fill="#181818" points="86.05,396.84,91.5383,388.6621,86.91,391.9145,83.6575,387.2861,86.05,396.84" style="stroke:#181818;stroke-width:1.0;"/></g><!--link AuthorRepository to Author--><g id="link_AuthorRepository_Author"><path codeLine="37" d="M173.79,318.31 C158.16,340.2 140.1778,365.3778 121.3178,391.7778 " fill="none" id="AuthorRepository-to-Author" style="stroke:#181818;stroke-width:1.0;"/><polygon fill="#181818" points="117.83,396.66,126.3164,391.662,120.7365,392.5915,119.8069,387.0116,117.83,396.66" style="stroke:#181818;stroke-width:1.0;"/><text fill="#000000" font-family="sans-serif" font-size="13" lengthAdjust="spacing" textLength="53" x="151.8" y="363.0283">searches</text><text fill="#000000" font-family="sans-serif" font-size="13" lengthAdjust="spacing" textLength="7" x="161.7677" y="340.2792">1</text><text fill="#000000" font-family="sans-serif" font-size="13" lengthAdjust="spacing" textLength="20" x="101.5335" y="385.7972">1..*</text></g><!--SRC=[VO_1JiCm38RlVege5mgeBLntcBHnwc4N9kqU4hDQf4cKk4DZujqfNSN2EZMNsFu_-xVl6cOV5rNbZRJSjQPKhgsKaJ4MckG-o1QW8Or2KL068NwGzR8lYm5QCGTwwnXhvUoMlb0y0GoAM7NSk702qRz2a1u3AriSmzZhl2Otf8zYZxp34CdP_1w-_uzvSPQ3CmO3d2xuMSj9__8fliLm88LrwysKZ-jZhMyqxGW_DzBxn8FTHShb44vMUqNl8h4Bnx-sTxBwB2PM0DUdYB9StbXuKacun6ncMdB933Lh1DT-8dlEH54i-xyi7x8HMuY8CgW68_m0]--></g></svg>