<?xml version="1.0" encoding="us-ascii" standalone="no"?><svg xmlns="http://www.w3.org/2000/svg" xmlns:xlink="http://www.w3.org/1999/xlink" contentStyleType="text/css" height="597px" preserveAspectRatio="none" style="width:1089px;height:597px;background:#FFFFFF;" version="1.1" viewBox="0 0 1089 597" width="1089px" zoomAndPan="magnify"><defs/><g><!--class LendingController--><g id="elem_LendingController"><rect codeLine="6" fill="#F1F1F1" height="63.2422" id="LendingController" rx="2.5" ry="2.5" style="stroke:#181818;stroke-width:0.5;" width="596" x="255" y="7"/><text fill="#000000" font-family="sans-serif" font-size="14" lengthAdjust="spacing" textLength="113" x="496.5" y="27.1074">LendingController</text><line style="stroke:#181818;stroke-width:0.5;" x1="256" x2="850" y1="35.6211" y2="35.6211"/><line style="stroke:#181818;stroke-width:0.5;" x1="256" x2="850" y1="43.6211" y2="43.6211"/><text fill="#000000" font-family="sans-serif" font-size="14" lengthAdjust="spacing" textLength="584" x="261" y="62.7285">+getMonthlyLending(startDate: LocalDate, endDate: LocalDate): Iterable&lt;ReaderLentsView&gt;</text></g><!--class ReaderService--><g id="elem_ReaderService"><rect codeLine="10" fill="#F1F1F1" height="81.8633" id="ReaderService" rx="2.5" ry="2.5" style="stroke:#181818;stroke-width:0.5;" width="538" x="7" y="149"/><text fill="#000000" font-family="sans-serif" font-size="14" lengthAdjust="spacing" textLength="94" x="229" y="169.1074">ReaderService</text><line style="stroke:#181818;stroke-width:0.5;" x1="8" x2="544" y1="177.6211" y2="177.6211"/><line style="stroke:#181818;stroke-width:0.5;" x1="8" x2="544" y1="185.6211" y2="185.6211"/><text fill="#000000" font-family="sans-serif" font-size="14" lengthAdjust="spacing" textLength="225" x="13" y="204.7285">+getAllReaders(): Iterable&lt;Reader&gt;</text><text fill="#000000" font-family="sans-serif" font-size="14" lengthAdjust="spacing" textLength="526" x="13" y="223.3496">+getMonthlyLending(readerId: Long, startDate: LocalDate, endDate: LocalDate): int</text></g><!--class ReaderRepository--><g id="elem_ReaderRepository"><rect codeLine="15" fill="#F1F1F1" height="97.8242" id="ReaderRepository" rx="2.5" ry="2.5" style="stroke:#181818;stroke-width:0.5;" width="538" x="67" y="311"/><text fill="#000000" font-family="sans-serif" font-size="12" font-style="italic" lengthAdjust="spacing" textLength="61" x="305.5" y="328.9492">&#171;interface&#187;</text><text fill="#000000" font-family="sans-serif" font-size="14" font-style="italic" lengthAdjust="spacing" textLength="115" x="278.5" y="347.0684">ReaderRepository</text><line style="stroke:#181818;stroke-width:0.5;" x1="68" x2="604" y1="355.582" y2="355.582"/><line style="stroke:#181818;stroke-width:0.5;" x1="68" x2="604" y1="363.582" y2="363.582"/><text fill="#000000" font-family="sans-serif" font-size="14" lengthAdjust="spacing" textLength="149" x="73" y="382.6895">+findAll(): List&lt;Reader&gt;</text><text fill="#000000" font-family="sans-serif" font-size="14" lengthAdjust="spacing" textLength="526" x="73" y="401.3105">+getMonthlyLending(readerId: Long, startDate: LocalDate, endDate: LocalDate): int</text></g><!--class ReaderLentsViewMapper--><g id="elem_ReaderLentsViewMapper"><rect codeLine="20" fill="#F1F1F1" height="63.2422" id="ReaderLentsViewMapper" rx="2.5" ry="2.5" style="stroke:#181818;stroke-width:0.5;" width="502" x="580" y="158.5"/><text fill="#000000" font-family="sans-serif" font-size="14" lengthAdjust="spacing" textLength="159" x="751.5" y="178.6074">ReaderLentsViewMapper</text><line style="stroke:#181818;stroke-width:0.5;" x1="581" x2="1081" y1="187.1211" y2="187.1211"/><line style="stroke:#181818;stroke-width:0.5;" x1="581" x2="1081" y1="195.1211" y2="195.1211"/><text fill="#000000" font-family="sans-serif" font-size="14" lengthAdjust="spacing" textLength="490" x="586" y="214.2285">+toReaderLentsView(readers: Iterable&lt;Reader&gt;): Iterable&lt;ReaderLentsView&gt;</text></g><!--class ReaderLentsView--><g id="elem_ReaderLentsView"><rect codeLine="24" fill="#F1F1F1" height="100.4844" id="ReaderLentsView" rx="2.5" ry="2.5" style="stroke:#181818;stroke-width:0.5;" width="117" x="660.5" y="310"/><text fill="#000000" font-family="sans-serif" font-size="14" lengthAdjust="spacing" textLength="111" x="663.5" y="330.1074">ReaderLentsView</text><line style="stroke:#181818;stroke-width:0.5;" x1="661.5" x2="776.5" y1="338.6211" y2="338.6211"/><text fill="#000000" font-family="sans-serif" font-size="14" lengthAdjust="spacing" textLength="56" x="666.5" y="357.7285">-id: Long</text><text fill="#000000" font-family="sans-serif" font-size="14" lengthAdjust="spacing" textLength="85" x="666.5" y="376.3496">-name: String</text><text fill="#000000" font-family="sans-serif" font-size="14" lengthAdjust="spacing" textLength="58" x="666.5" y="394.9707">-lents: int</text><line style="stroke:#181818;stroke-width:0.5;" x1="661.5" x2="776.5" y1="402.4844" y2="402.4844"/></g><!--class Reader--><g id="elem_Reader"><rect codeLine="30" fill="#F1F1F1" height="119.1055" id="Reader" rx="2.5" ry="2.5" style="stroke:#181818;stroke-width:0.5;" width="137" x="514.5" y="471"/><text fill="#000000" font-family="sans-serif" font-size="14" lengthAdjust="spacing" textLength="47" x="559.5" y="491.1074">Reader</text><line style="stroke:#181818;stroke-width:0.5;" x1="515.5" x2="650.5" y1="499.6211" y2="499.6211"/><text fill="#000000" font-family="sans-serif" font-size="14" lengthAdjust="spacing" textLength="56" x="520.5" y="518.7285">-id: Long</text><text fill="#000000" font-family="sans-serif" font-size="14" lengthAdjust="spacing" textLength="85" x="520.5" y="537.3496">-name: String</text><text fill="#000000" font-family="sans-serif" font-size="14" lengthAdjust="spacing" textLength="58" x="520.5" y="555.9707">-lents: int</text><line style="stroke:#181818;stroke-width:0.5;" x1="515.5" x2="650.5" y1="563.4844" y2="563.4844"/><text fill="#000000" font-family="sans-serif" font-size="14" lengthAdjust="spacing" textLength="125" x="520.5" y="582.5918">+setLents(lents: int)</text></g><!--link LendingController to ReaderService--><g id="link_LendingController_ReaderService"><path codeLine="37" d="M496.28,70.11 C454.09,92.88 401.4306,121.3114 355.5506,146.0614 " fill="none" id="LendingController-to-ReaderService" style="stroke:#181818;stroke-width:1.0;stroke-dasharray:7.0,7.0;"/><polygon fill="#181818" points="350.27,148.91,360.0901,148.1575,354.6705,146.5361,356.2919,141.1166,350.27,148.91" style="stroke:#181818;stroke-width:1.0;"/><text fill="#000000" font-family="sans-serif" font-size="13" lengthAdjust="spacing" textLength="28" x="441" y="115.0283">uses</text></g><!--link ReaderService to ReaderRepository--><g id="link_ReaderService_ReaderRepository"><path codeLine="38" d="M290.37,231.24 C298.9,255.12 307.7518,279.8996 316.7418,305.0696 " fill="none" id="ReaderService-to-ReaderRepository" style="stroke:#181818;stroke-width:1.0;stroke-dasharray:7.0,7.0;"/><polygon fill="#181818" points="318.76,310.72,319.4997,300.899,317.0782,306.0113,311.9658,303.5898,318.76,310.72" style="stroke:#181818;stroke-width:1.0;"/><text fill="#000000" font-family="sans-serif" font-size="13" lengthAdjust="spacing" textLength="28" x="307" y="276.0283">uses</text></g><!--link LendingController to ReaderLentsViewMapper--><g id="link_LendingController_ReaderLentsViewMapper"><path codeLine="39" d="M609.93,70.11 C657.9,95.91 720.9158,129.7979 768.8658,155.5879 " fill="none" id="LendingController-to-ReaderLentsViewMapper" style="stroke:#181818;stroke-width:1.0;stroke-dasharray:7.0,7.0;"/><polygon fill="#181818" points="774.15,158.43,768.1185,150.6441,769.7465,156.0616,764.329,157.6896,774.15,158.43" style="stroke:#181818;stroke-width:1.0;"/><text fill="#000000" font-family="sans-serif" font-size="13" lengthAdjust="spacing" textLength="28" x="701" y="115.0283">uses</text></g><!--link ReaderLentsViewMapper to Reader--><g id="link_ReaderLentsViewMapper_Reader"><path codeLine="40" d="M833.83,221.66 C836.41,267.03 834.97,352.85 795,410 C760.74,458.99 705.197,488.2043 657.337,506.4343 " fill="none" id="ReaderLentsViewMapper-to-Reader" style="stroke:#181818;stroke-width:1.0;stroke-dasharray:7.0,7.0;"/><polygon fill="#181818" points="651.73,508.57,661.5643,509.1044,656.4025,506.7902,658.7167,501.6284,651.73,508.57" style="stroke:#181818;stroke-width:1.0;"/></g><!--link ReaderLentsViewMapper to ReaderLentsView--><g id="link_ReaderLentsViewMapper_ReaderLentsView"><path codeLine="41" d="M810.46,221.81 C794.04,246.44 774.0386,276.438 755.0486,304.918 " fill="none" id="ReaderLentsViewMapper-to-ReaderLentsView" style="stroke:#181818;stroke-width:1.0;stroke-dasharray:7.0,7.0;"/><polygon fill="#181818" points="751.72,309.91,760.0409,304.641,754.4938,305.75,753.3849,300.2029,751.72,309.91" style="stroke:#181818;stroke-width:1.0;"/></g><!--link ReaderRepository to Reader--><g id="link_ReaderRepository_Reader"><path codeLine="42" d="M406.45,409.06 C440.24,432.11 475.6236,456.2485 509.2036,479.1585 " fill="none" id="ReaderRepository-to-Reader" style="stroke:#181818;stroke-width:1.0;stroke-dasharray:7.0,7.0;"/><polygon fill="#181818" points="514.16,482.54,508.9798,474.1635,510.0297,479.7221,504.4711,480.772,514.16,482.54" style="stroke:#181818;stroke-width:1.0;"/></g><!--SRC=[lP9DJyCm38Rl-HM-qObzSAwcIXDS9csNJUAUfLvdaIPLue46uh-JVj1rBHyQ1tffwzTv_SJspO6vyF5iLcXf-9ZhgRBvJ6df_IGbcJcP2t6W546HKng5Vo9Jo126Acd1x6XtP5mgQxRqYd0dHAN02arA9hktXftL6Xsy2GZFBMJ8wn0zw5EJ4tcMZXyaOmmhgwGkFySGn5vi5CEIqScTnla6POekEB1_97n9nFjdvLhPedicXTsg2wrhpKT3f-HREbVfoxG4CTaOhg0bmoLNUA7Roq1JrzfWOJsnTIUOprinILhOFPaqq9QOA_By3uZTrhLDNSkYw0oERKzlwlfXCw-PLAiqXIP0pKMQNoFp0BqDgzQ6T7dcI_Y_cTGNzCWLJ7HMHgN_S9UdqwItPp4SFNfn6JodTKRUPFvasf_0XNbVF1_xDQ5Ln82gu_81]--></g></svg>