<?xml version="1.0" encoding="us-ascii" standalone="no"?><svg xmlns="http://www.w3.org/2000/svg" xmlns:xlink="http://www.w3.org/1999/xlink" contentStyleType="text/css" height="372px" preserveAspectRatio="none" style="width:582px;height:372px;background:#FFFFFF;" version="1.1" viewBox="0 0 582 372" width="582px" zoomAndPan="magnify"><defs/><g><rect fill="#FFFFFF" height="186.7461" style="stroke:#181818;stroke-width:1.0;" width="10" x="31" y="93.6211"/><rect fill="#FFFFFF" height="146.1641" style="stroke:#181818;stroke-width:1.0;" width="10" x="288" y="134.2031"/><rect fill="#FFFFFF" height="146.1641" style="stroke:#181818;stroke-width:1.0;" width="10" x="288" y="134.2031"/><rect fill="#FFFFFF" height="97.873" style="stroke:#181818;stroke-width:1.0;" width="10" x="293" y="173.4941"/><rect fill="#FFFFFF" height="53.582" style="stroke:#181818;stroke-width:1.0;" width="10" x="298" y="217.7852"/><line style="stroke:#181818;stroke-width:0.5;stroke-dasharray:5.0,5.0;" x1="36" x2="36" y1="83.6211" y2="289.3672"/><line style="stroke:#181818;stroke-width:0.5;stroke-dasharray:5.0,5.0;" x1="288" x2="288" y1="83.6211" y2="289.3672"/><text fill="#000000" font-family="sans-serif" font-size="14" lengthAdjust="spacing" textLength="56" x="5" y="80.1074">Librarian</text><ellipse cx="36" cy="13.5" fill="#E2E2F0" rx="8" ry="8" style="stroke:#181818;stroke-width:0.5;"/><path d="M36,21.5 L36,48.5 M23,29.5 L49,29.5 M36,48.5 L23,63.5 M36,48.5 L49,63.5 " fill="none" style="stroke:#181818;stroke-width:0.5;"/><text fill="#000000" font-family="sans-serif" font-size="14" lengthAdjust="spacing" textLength="56" x="5" y="303.4746">Librarian</text><ellipse cx="36" cy="315.4883" fill="#E2E2F0" rx="8" ry="8" style="stroke:#181818;stroke-width:0.5;"/><path d="M36,323.4883 L36,350.4883 M23,331.4883 L49,331.4883 M36,350.4883 L23,365.4883 M36,350.4883 L49,365.4883 " fill="none" style="stroke:#181818;stroke-width:0.5;"/><rect fill="#E2E2F0" height="32.6211" rx="2.5" ry="2.5" style="stroke:#181818;stroke-width:0.5;" width="64" x="256" y="50"/><text fill="#000000" font-family="sans-serif" font-size="14" lengthAdjust="spacing" textLength="50" x="263" y="72.1074">:System</text><rect fill="#E2E2F0" height="32.6211" rx="2.5" ry="2.5" style="stroke:#181818;stroke-width:0.5;" width="64" x="256" y="288.3672"/><text fill="#000000" font-family="sans-serif" font-size="14" lengthAdjust="spacing" textLength="50" x="263" y="310.4746">:System</text><rect fill="#FFFFFF" height="186.7461" style="stroke:#181818;stroke-width:1.0;" width="10" x="31" y="93.6211"/><rect fill="#FFFFFF" height="146.1641" style="stroke:#181818;stroke-width:1.0;" width="10" x="288" y="134.2031"/><rect fill="#FFFFFF" height="146.1641" style="stroke:#181818;stroke-width:1.0;" width="10" x="288" y="134.2031"/><rect fill="#FFFFFF" height="97.873" style="stroke:#181818;stroke-width:1.0;" width="10" x="293" y="173.4941"/><rect fill="#FFFFFF" height="53.582" style="stroke:#181818;stroke-width:1.0;" width="10" x="298" y="217.7852"/><polygon fill="#181818" points="276,130.2031,286,134.2031,276,138.2031,280,134.2031" style="stroke:#181818;stroke-width:1.0;"/><line style="stroke:#181818;stroke-width:1.0;" x1="41" x2="282" y1="134.2031" y2="134.2031"/><text fill="#000000" font-family="sans-serif" font-size="13" font-weight="bold" lengthAdjust="spacing" textLength="7" x="48" y="120.2949">1</text><text fill="#000000" font-family="sans-serif" font-size="13" lengthAdjust="spacing" textLength="212" x="59" y="111.6494">Requests monthly lending per reader</text><text fill="#000000" font-family="sans-serif" font-size="13" lengthAdjust="spacing" textLength="107" x="59" y="128.9404">for a certain period</text><line style="stroke:#181818;stroke-width:1.0;" x1="298" x2="345" y1="160.4941" y2="160.4941"/><line style="stroke:#181818;stroke-width:1.0;" x1="345" x2="345" y1="160.4941" y2="173.4941"/><line style="stroke:#181818;stroke-width:1.0;" x1="304" x2="345" y1="173.4941" y2="173.4941"/><polygon fill="#181818" points="314,169.4941,304,173.4941,314,177.4941,310,173.4941" style="stroke:#181818;stroke-width:1.0;"/><text fill="#000000" font-family="sans-serif" font-size="13" font-weight="bold" lengthAdjust="spacing" textLength="7" x="310" y="155.2314">2</text><text fill="#000000" font-family="sans-serif" font-size="13" lengthAdjust="spacing" textLength="254" x="321" y="155.2314">Retrieve lending data for the specified period</text><line style="stroke:#181818;stroke-width:1.0;" x1="303" x2="350" y1="204.7852" y2="204.7852"/><line style="stroke:#181818;stroke-width:1.0;" x1="350" x2="350" y1="204.7852" y2="217.7852"/><line style="stroke:#181818;stroke-width:1.0;" x1="309" x2="350" y1="217.7852" y2="217.7852"/><polygon fill="#181818" points="319,213.7852,309,217.7852,319,221.7852,315,217.7852" style="stroke:#181818;stroke-width:1.0;"/><text fill="#000000" font-family="sans-serif" font-size="13" font-weight="bold" lengthAdjust="spacing" textLength="7" x="315" y="199.5225">3</text><text fill="#000000" font-family="sans-serif" font-size="13" lengthAdjust="spacing" textLength="211" x="326" y="199.5225">Calculate monthly lending per reader</text><polygon fill="#181818" points="52,267.3672,42,271.3672,52,275.3672,48,271.3672" style="stroke:#181818;stroke-width:1.0;"/><line style="stroke:#181818;stroke-width:1.0;stroke-dasharray:2.0,2.0;" x1="46" x2="287" y1="271.3672" y2="271.3672"/><text fill="#000000" font-family="sans-serif" font-size="13" font-weight="bold" lengthAdjust="spacing" textLength="7" x="58" y="257.459">4</text><text fill="#000000" font-family="sans-serif" font-size="13" lengthAdjust="spacing" textLength="200" x="69" y="248.8135">Display monthly lending per reader</text><text fill="#000000" font-family="sans-serif" font-size="13" lengthAdjust="spacing" textLength="130" x="69" y="266.1045">for the specified period</text><!--SRC=[XP2xRiCm34LtVGNXfLFgtKENTkpKhbqOYOa9w5MA2k2_hsod2lf29v4WxxcNkfjLSvd6CNkCMeE_jocCXTuhHKi7ntWM3CPWrOHM-O9AaEBMnngE96rcDGaCptmK5COu01RedSaeofPpuyCmlIv5AMmhUxdfT-vDOte9XuVhuWGlQwoY1KAAEli5F4N7yGoP18JGaRp5Kyk2O4aKEQuJJkvcSVNSdwzi5QOBTQP3HLXXEXEKJ9PFJEuJ-1FmYDvMlthydQxBcgvVEC4Jb_Rzoxzd_Ph4EFfstGS0]--></g></svg>
