<?xml version="1.0" encoding="us-ascii" standalone="no"?><svg xmlns="http://www.w3.org/2000/svg" xmlns:xlink="http://www.w3.org/1999/xlink" contentStyleType="text/css" height="693px" preserveAspectRatio="none" style="width:1670px;height:693px;background:#FFFFFF;" version="1.1" viewBox="0 0 1670 693" width="1670px" zoomAndPan="magnify"><defs/><g><rect fill="#FFFFFF" height="597.0702" style="stroke:#181818;stroke-width:1.0;" width="10" x="85" y="49.0679"/><rect fill="#FFFFFF" height="573.3642" style="stroke:#181818;stroke-width:1.0;" width="10" x="262" y="72.7739"/><rect fill="#FFFFFF" height="36.706" style="stroke:#181818;stroke-width:1.0;" width="10" x="267" y="600.4321"/><rect fill="#FFFFFF" height="456.2461" style="stroke:#181818;stroke-width:1.0;" width="10" x="461" y="104.4799"/><rect fill="#FFFFFF" height="285.3541" style="stroke:#181818;stroke-width:1.0;" width="10" x="635" y="136.186"/><rect fill="#FFFFFF" height="31.706" style="stroke:#181818;stroke-width:1.0;" width="10" x="793.5" y="167.892"/><rect fill="#FFFFFF" height="31.706" style="stroke:#181818;stroke-width:1.0;" width="10" x="793.5" y="358.1281"/><rect fill="#FFFFFF" height="31.706" style="stroke:#181818;stroke-width:1.0;" width="10" x="960" y="231.304"/><rect fill="#FFFFFF" height="31.706" style="stroke:#181818;stroke-width:1.0;" width="10" x="1283.5" y="294.716"/><rect fill="#FFFFFF" height="31.706" style="stroke:#181818;stroke-width:1.0;" width="10" x="1566" y="453.2461"/><line style="stroke:#181818;stroke-width:0.5;stroke-dasharray:5.0,5.0;" x1="90" x2="90" y1="39.0679" y2="655.1381"/><line style="stroke:#181818;stroke-width:0.5;stroke-dasharray:5.0,5.0;" x1="267" x2="267" y1="39.0679" y2="655.1381"/><line style="stroke:#181818;stroke-width:0.5;stroke-dasharray:5.0,5.0;" x1="465.5" x2="465.5" y1="39.0679" y2="655.1381"/><line style="stroke:#181818;stroke-width:0.5;stroke-dasharray:5.0,5.0;" x1="639.5" x2="639.5" y1="39.0679" y2="655.1381"/><line style="stroke:#181818;stroke-width:0.5;stroke-dasharray:5.0,5.0;" x1="798.5" x2="798.5" y1="39.0679" y2="655.1381"/><line style="stroke:#181818;stroke-width:0.5;stroke-dasharray:5.0,5.0;" x1="964.5" x2="964.5" y1="39.0679" y2="655.1381"/><line style="stroke:#181818;stroke-width:0.5;stroke-dasharray:5.0,5.0;" x1="1146.5" x2="1146.5" y1="39.0679" y2="655.1381"/><line style="stroke:#181818;stroke-width:0.5;stroke-dasharray:5.0,5.0;" x1="1288.5" x2="1288.5" y1="39.0679" y2="655.1381"/><line style="stroke:#181818;stroke-width:0.5;stroke-dasharray:5.0,5.0;" x1="1403.5" x2="1403.5" y1="524.9861" y2="655.1381"/><line style="stroke:#181818;stroke-width:0.5;stroke-dasharray:5.0,5.0;" x1="1570.5" x2="1570.5" y1="39.0679" y2="655.1381"/><rect fill="#E2E2F0" height="33.0679" rx="2.5" ry="2.5" style="stroke:#181818;stroke-width:0.5;" width="170" x="5" y="5"/><text fill="#000000" font-family="sans-serif" font-size="14" lengthAdjust="spacing" textLength="156" x="12" y="26.9659">Anonymous:HTTPClient</text><rect fill="#E2E2F0" height="33.0679" rx="2.5" ry="2.5" style="stroke:#181818;stroke-width:0.5;" width="170" x="5" y="654.1381"/><text fill="#000000" font-family="sans-serif" font-size="14" lengthAdjust="spacing" textLength="156" x="12" y="676.104">Anonymous:HTTPClient</text><rect fill="#E2E2F0" height="33.0679" rx="2.5" ry="2.5" style="stroke:#181818;stroke-width:0.5;" width="164" x="185" y="5"/><text fill="#000000" font-family="sans-serif" font-size="14" lengthAdjust="spacing" textLength="150" x="192" y="26.9659">handler:RouteHandler</text><rect fill="#E2E2F0" height="33.0679" rx="2.5" ry="2.5" style="stroke:#181818;stroke-width:0.5;" width="164" x="185" y="654.1381"/><text fill="#000000" font-family="sans-serif" font-size="14" lengthAdjust="spacing" textLength="150" x="192" y="676.104">handler:RouteHandler</text><rect fill="#E2E2F0" height="33.0679" rx="2.5" ry="2.5" style="stroke:#181818;stroke-width:0.5;" width="117" x="407.5" y="5"/><text fill="#000000" font-family="sans-serif" font-size="14" lengthAdjust="spacing" textLength="103" x="414.5" y="26.9659">:BookController</text><rect fill="#E2E2F0" height="33.0679" rx="2.5" ry="2.5" style="stroke:#181818;stroke-width:0.5;" width="117" x="407.5" y="654.1381"/><text fill="#000000" font-family="sans-serif" font-size="14" lengthAdjust="spacing" textLength="103" x="414.5" y="676.104">:BookController</text><rect fill="#E2E2F0" height="33.0679" rx="2.5" ry="2.5" style="stroke:#181818;stroke-width:0.5;" width="145" x="567.5" y="5"/><text fill="#000000" font-family="sans-serif" font-size="14" lengthAdjust="spacing" textLength="131" x="574.5" y="26.9659">service:BookService</text><rect fill="#E2E2F0" height="33.0679" rx="2.5" ry="2.5" style="stroke:#181818;stroke-width:0.5;" width="145" x="567.5" y="654.1381"/><text fill="#000000" font-family="sans-serif" font-size="14" lengthAdjust="spacing" textLength="131" x="574.5" y="676.104">service:BookService</text><rect fill="#E2E2F0" height="33.0679" rx="2.5" ry="2.5" style="stroke:#181818;stroke-width:0.5;" width="152" x="722.5" y="5"/><text fill="#000000" font-family="sans-serif" font-size="14" lengthAdjust="spacing" textLength="138" x="729.5" y="26.9659">repo:BookRepository</text><rect fill="#E2E2F0" height="33.0679" rx="2.5" ry="2.5" style="stroke:#181818;stroke-width:0.5;" width="152" x="722.5" y="654.1381"/><text fill="#000000" font-family="sans-serif" font-size="14" lengthAdjust="spacing" textLength="138" x="729.5" y="676.104">repo:BookRepository</text><rect fill="#E2E2F0" height="33.0679" rx="2.5" ry="2.5" style="stroke:#181818;stroke-width:0.5;" width="161" x="884.5" y="5"/><text fill="#000000" font-family="sans-serif" font-size="14" lengthAdjust="spacing" textLength="147" x="891.5" y="26.9659">repo:GenreRepository</text><rect fill="#E2E2F0" height="33.0679" rx="2.5" ry="2.5" style="stroke:#181818;stroke-width:0.5;" width="161" x="884.5" y="654.1381"/><text fill="#000000" font-family="sans-serif" font-size="14" lengthAdjust="spacing" textLength="147" x="891.5" y="676.104">repo:GenreRepository</text><rect fill="#E2E2F0" height="33.0679" rx="2.5" ry="2.5" style="stroke:#181818;stroke-width:0.5;" width="182" x="1055.5" y="5"/><text fill="#000000" font-family="sans-serif" font-size="14" lengthAdjust="spacing" textLength="168" x="1062.5" y="26.9659">mapper:EditBookMapper</text><rect fill="#E2E2F0" height="33.0679" rx="2.5" ry="2.5" style="stroke:#181818;stroke-width:0.5;" width="182" x="1055.5" y="654.1381"/><text fill="#000000" font-family="sans-serif" font-size="14" lengthAdjust="spacing" textLength="168" x="1062.5" y="676.104">mapper:EditBookMapper</text><rect fill="#E2E2F0" height="33.0679" rx="2.5" ry="2.5" style="stroke:#181818;stroke-width:0.5;" width="82" x="1247.5" y="5"/><text fill="#000000" font-family="sans-serif" font-size="14" lengthAdjust="spacing" textLength="68" x="1254.5" y="26.9659">book:Book</text><rect fill="#E2E2F0" height="33.0679" rx="2.5" ry="2.5" style="stroke:#181818;stroke-width:0.5;" width="82" x="1247.5" y="654.1381"/><text fill="#000000" font-family="sans-serif" font-size="14" lengthAdjust="spacing" textLength="68" x="1254.5" y="676.104">book:Book</text><rect fill="#E2E2F0" height="33.0679" rx="2.5" ry="2.5" style="stroke:#181818;stroke-width:0.5;" width="128" x="1339.5" y="654.1381"/><text fill="#000000" font-family="sans-serif" font-size="14" lengthAdjust="spacing" textLength="114" x="1346.5" y="676.104">result:HttpResult</text><rect fill="#E2E2F0" height="33.0679" rx="2.5" ry="2.5" style="stroke:#181818;stroke-width:0.5;" width="187" x="1477.5" y="5"/><text fill="#000000" font-family="sans-serif" font-size="14" lengthAdjust="spacing" textLength="173" x="1484.5" y="26.9659">mapper:BookViewMapper</text><rect fill="#E2E2F0" height="33.0679" rx="2.5" ry="2.5" style="stroke:#181818;stroke-width:0.5;" width="187" x="1477.5" y="654.1381"/><text fill="#000000" font-family="sans-serif" font-size="14" lengthAdjust="spacing" textLength="173" x="1484.5" y="676.104">mapper:BookViewMapper</text><rect fill="#FFFFFF" height="597.0702" style="stroke:#181818;stroke-width:1.0;" width="10" x="85" y="49.0679"/><rect fill="#FFFFFF" height="573.3642" style="stroke:#181818;stroke-width:1.0;" width="10" x="262" y="72.7739"/><rect fill="#FFFFFF" height="36.706" style="stroke:#181818;stroke-width:1.0;" width="10" x="267" y="600.4321"/><rect fill="#FFFFFF" height="456.2461" style="stroke:#181818;stroke-width:1.0;" width="10" x="461" y="104.4799"/><rect fill="#FFFFFF" height="285.3541" style="stroke:#181818;stroke-width:1.0;" width="10" x="635" y="136.186"/><rect fill="#FFFFFF" height="31.706" style="stroke:#181818;stroke-width:1.0;" width="10" x="793.5" y="167.892"/><rect fill="#FFFFFF" height="31.706" style="stroke:#181818;stroke-width:1.0;" width="10" x="793.5" y="358.1281"/><rect fill="#FFFFFF" height="31.706" style="stroke:#181818;stroke-width:1.0;" width="10" x="960" y="231.304"/><rect fill="#FFFFFF" height="31.706" style="stroke:#181818;stroke-width:1.0;" width="10" x="1283.5" y="294.716"/><rect fill="#FFFFFF" height="31.706" style="stroke:#181818;stroke-width:1.0;" width="10" x="1566" y="453.2461"/><polygon fill="#181818" points="250,68.7739,260,72.7739,250,76.7739,254,72.7739" style="stroke:#181818;stroke-width:1.0;"/><line style="stroke:#181818;stroke-width:1.0;" x1="95" x2="256" y1="72.7739" y2="72.7739"/><text fill="#000000" font-family="sans-serif" font-size="13" font-weight="bold" lengthAdjust="spacing" textLength="7" x="102" y="66.9649">1</text><text fill="#000000" font-family="sans-serif" font-size="13" lengthAdjust="spacing" textLength="102" x="113" y="66.9649">PUT/books(data)</text><polygon fill="#181818" points="449,100.4799,459,104.4799,449,108.4799,453,104.4799" style="stroke:#181818;stroke-width:1.0;"/><line style="stroke:#181818;stroke-width:1.0;" x1="272" x2="455" y1="104.4799" y2="104.4799"/><text fill="#000000" font-family="sans-serif" font-size="13" font-weight="bold" lengthAdjust="spacing" textLength="7" x="279" y="98.6709">2</text><text fill="#000000" font-family="sans-serif" font-size="13" lengthAdjust="spacing" textLength="134" x="290" y="98.6709">updateBook(resource)</text><polygon fill="#181818" points="623,132.186,633,136.186,623,140.186,627,136.186" style="stroke:#181818;stroke-width:1.0;"/><line style="stroke:#181818;stroke-width:1.0;" x1="471" x2="629" y1="136.186" y2="136.186"/><text fill="#000000" font-family="sans-serif" font-size="13" font-weight="bold" lengthAdjust="spacing" textLength="7" x="478" y="130.377">3</text><text fill="#000000" font-family="sans-serif" font-size="13" lengthAdjust="spacing" textLength="134" x="489" y="130.377">updateBook(resource)</text><polygon fill="#181818" points="781.5,163.892,791.5,167.892,781.5,171.892,785.5,167.892" style="stroke:#181818;stroke-width:1.0;"/><line style="stroke:#181818;stroke-width:1.0;" x1="645" x2="787.5" y1="167.892" y2="167.892"/><text fill="#000000" font-family="sans-serif" font-size="13" font-weight="bold" lengthAdjust="spacing" textLength="7" x="652" y="162.083">4</text><text fill="#000000" font-family="sans-serif" font-size="13" lengthAdjust="spacing" textLength="101" x="663" y="162.083">findById(bookId)</text><polygon fill="#181818" points="656,195.598,646,199.598,656,203.598,652,199.598" style="stroke:#181818;stroke-width:1.0;"/><line style="stroke:#181818;stroke-width:1.0;stroke-dasharray:2.0,2.0;" x1="650" x2="797.5" y1="199.598" y2="199.598"/><text fill="#000000" font-family="sans-serif" font-size="13" font-weight="bold" lengthAdjust="spacing" textLength="7" x="662" y="193.789">5</text><text fill="#000000" font-family="sans-serif" font-size="13" lengthAdjust="spacing" textLength="31" x="673" y="193.789">book</text><polygon fill="#181818" points="948,227.304,958,231.304,948,235.304,952,231.304" style="stroke:#181818;stroke-width:1.0;"/><line style="stroke:#181818;stroke-width:1.0;" x1="645" x2="954" y1="231.304" y2="231.304"/><text fill="#000000" font-family="sans-serif" font-size="13" font-weight="bold" lengthAdjust="spacing" textLength="7" x="652" y="225.495">6</text><text fill="#000000" font-family="sans-serif" font-size="13" lengthAdjust="spacing" textLength="220" x="663" y="225.495">findById(resource.getGenre().getId())</text><polygon fill="#181818" points="656,259.01,646,263.01,656,267.01,652,263.01" style="stroke:#181818;stroke-width:1.0;"/><line style="stroke:#181818;stroke-width:1.0;stroke-dasharray:2.0,2.0;" x1="650" x2="964" y1="263.01" y2="263.01"/><text fill="#000000" font-family="sans-serif" font-size="13" font-weight="bold" lengthAdjust="spacing" textLength="7" x="662" y="257.201">7</text><text fill="#000000" font-family="sans-serif" font-size="13" lengthAdjust="spacing" textLength="35" x="673" y="257.201">genre</text><polygon fill="#181818" points="1271.5,290.716,1281.5,294.716,1271.5,298.716,1275.5,294.716" style="stroke:#181818;stroke-width:1.0;"/><line style="stroke:#181818;stroke-width:1.0;" x1="645" x2="1277.5" y1="294.716" y2="294.716"/><text fill="#000000" font-family="sans-serif" font-size="13" font-weight="bold" lengthAdjust="spacing" textLength="7" x="652" y="288.907">8</text><text fill="#000000" font-family="sans-serif" font-size="13" lengthAdjust="spacing" textLength="104" x="663" y="288.907">update(newData)</text><polygon fill="#181818" points="656,322.4221,646,326.4221,656,330.4221,652,326.4221" style="stroke:#181818;stroke-width:1.0;"/><line style="stroke:#181818;stroke-width:1.0;stroke-dasharray:2.0,2.0;" x1="650" x2="1287.5" y1="326.4221" y2="326.4221"/><text fill="#000000" font-family="sans-serif" font-size="13" font-weight="bold" lengthAdjust="spacing" textLength="7" x="662" y="320.6131">9</text><text fill="#000000" font-family="sans-serif" font-size="13" lengthAdjust="spacing" textLength="31" x="673" y="320.6131">book</text><polygon fill="#181818" points="781.5,354.1281,791.5,358.1281,781.5,362.1281,785.5,358.1281" style="stroke:#181818;stroke-width:1.0;"/><line style="stroke:#181818;stroke-width:1.0;" x1="645" x2="787.5" y1="358.1281" y2="358.1281"/><text fill="#000000" font-family="sans-serif" font-size="13" font-weight="bold" lengthAdjust="spacing" textLength="14" x="652" y="352.3191">10</text><text fill="#000000" font-family="sans-serif" font-size="13" lengthAdjust="spacing" textLength="66" x="670" y="352.3191">save(book)</text><polygon fill="#181818" points="656,385.8341,646,389.8341,656,393.8341,652,389.8341" style="stroke:#181818;stroke-width:1.0;"/><line style="stroke:#181818;stroke-width:1.0;stroke-dasharray:2.0,2.0;" x1="650" x2="797.5" y1="389.8341" y2="389.8341"/><text fill="#000000" font-family="sans-serif" font-size="13" font-weight="bold" lengthAdjust="spacing" textLength="14" x="662" y="384.0251">11</text><text fill="#000000" font-family="sans-serif" font-size="13" lengthAdjust="spacing" textLength="31" x="680" y="384.0251">book</text><polygon fill="#181818" points="482,417.5401,472,421.5401,482,425.5401,478,421.5401" style="stroke:#181818;stroke-width:1.0;"/><line style="stroke:#181818;stroke-width:1.0;stroke-dasharray:2.0,2.0;" x1="476" x2="639" y1="421.5401" y2="421.5401"/><text fill="#000000" font-family="sans-serif" font-size="13" font-weight="bold" lengthAdjust="spacing" textLength="14" x="488" y="415.7311">12</text><text fill="#000000" font-family="sans-serif" font-size="13" lengthAdjust="spacing" textLength="31" x="506" y="415.7311">book</text><polygon fill="#181818" points="1554,449.2461,1564,453.2461,1554,457.2461,1558,453.2461" style="stroke:#181818;stroke-width:1.0;"/><line style="stroke:#181818;stroke-width:1.0;" x1="471" x2="1560" y1="453.2461" y2="453.2461"/><text fill="#000000" font-family="sans-serif" font-size="13" font-weight="bold" lengthAdjust="spacing" textLength="14" x="478" y="447.4371">13</text><text fill="#000000" font-family="sans-serif" font-size="13" lengthAdjust="spacing" textLength="111" x="496" y="447.4371">toBookView(book)</text><polygon fill="#181818" points="482,480.9521,472,484.9521,482,488.9521,478,484.9521" style="stroke:#181818;stroke-width:1.0;"/><line style="stroke:#181818;stroke-width:1.0;stroke-dasharray:2.0,2.0;" x1="476" x2="1570" y1="484.9521" y2="484.9521"/><text fill="#000000" font-family="sans-serif" font-size="13" font-weight="bold" lengthAdjust="spacing" textLength="14" x="488" y="479.1431">14</text><text fill="#000000" font-family="sans-serif" font-size="13" lengthAdjust="spacing" textLength="59" x="506" y="479.1431">bookView</text><polygon fill="#181818" points="1327.5,512.6582,1337.5,516.6582,1327.5,520.6582,1331.5,516.6582" style="stroke:#181818;stroke-width:1.0;"/><line style="stroke:#181818;stroke-width:1.0;stroke-dasharray:2.0,2.0;" x1="471" x2="1333.5" y1="516.6582" y2="516.6582"/><text fill="#000000" font-family="sans-serif" font-size="13" font-weight="bold" lengthAdjust="spacing" textLength="14" x="478" y="510.8492">15</text><text fill="#000000" font-family="sans-serif" font-size="13" lengthAdjust="spacing" textLength="137" x="496" y="510.8492">update(200, bookView)</text><rect fill="#E2E2F0" height="33.0679" rx="2.5" ry="2.5" style="stroke:#181818;stroke-width:0.5;" width="128" x="1339.5" y="492.9521"/><text fill="#000000" font-family="sans-serif" font-size="14" lengthAdjust="spacing" textLength="114" x="1346.5" y="514.9181">result:HttpResult</text><polygon fill="#181818" points="283,556.7261,273,560.7261,283,564.7261,279,560.7261" style="stroke:#181818;stroke-width:1.0;"/><line style="stroke:#181818;stroke-width:1.0;stroke-dasharray:2.0,2.0;" x1="277" x2="465" y1="560.7261" y2="560.7261"/><text fill="#000000" font-family="sans-serif" font-size="13" font-weight="bold" lengthAdjust="spacing" textLength="14" x="289" y="554.9171">16</text><text fill="#000000" font-family="sans-serif" font-size="13" lengthAdjust="spacing" textLength="34" x="307" y="554.9171">result</text><line style="stroke:#181818;stroke-width:1.0;" x1="272" x2="319" y1="587.4321" y2="587.4321"/><line style="stroke:#181818;stroke-width:1.0;" x1="319" x2="319" y1="587.4321" y2="600.4321"/><line style="stroke:#181818;stroke-width:1.0;" x1="278" x2="319" y1="600.4321" y2="600.4321"/><polygon fill="#181818" points="288,596.4321,278,600.4321,288,604.4321,284,600.4321" style="stroke:#181818;stroke-width:1.0;"/><text fill="#000000" font-family="sans-serif" font-size="13" font-weight="bold" lengthAdjust="spacing" textLength="14" x="284" y="581.6231">17</text><text fill="#000000" font-family="sans-serif" font-size="13" lengthAdjust="spacing" textLength="157" x="302" y="581.6231">setHttpResult(resp, result)</text><polygon fill="#181818" points="106,633.1381,96,637.1381,106,641.1381,102,637.1381" style="stroke:#181818;stroke-width:1.0;"/><line style="stroke:#181818;stroke-width:1.0;stroke-dasharray:2.0,2.0;" x1="100" x2="261" y1="637.1381" y2="637.1381"/><text fill="#000000" font-family="sans-serif" font-size="13" font-weight="bold" lengthAdjust="spacing" textLength="14" x="112" y="631.3291">18</text><text fill="#000000" font-family="sans-serif" font-size="13" lengthAdjust="spacing" textLength="26" x="130" y="631.3291">resp</text><!--SRC=[XLBBJkim4DtxAomsDq6K8fPU847l5MM1X4fXRvAXM3UnZJqkwj_ZSHvEgWfsypXpveoF_tmWMY-MIzj8ZQ5jBYlJBZry1j0LB6ebTqwsZCc0HbQezXA16vro7TetS8nPwL1LoaO2VdQhZJwq9dYntcwVLeq2ZMTSUfxJ-S27r7K3JcnCG5XtIHfuFdY4TWuMTyRyNncDpZG3ReMkcQCykBsg886VkxXZxE8vs84r2Rc9WLTet261AJs1l0Vju0WwrkRuLbeR3_jNAoJ-nvIcWNbfFlKMwqbFGb9mhCA71iKw-hP9OQ-MmfFxYU9LmTTaVqwZiuEh4uCOombVtFHM2FxqibsIFb_K4cN9kZeXo0J1Wurre8L5b6c2gw1ar4ealIkdKNsNWFIIWhyhNTyT7kg25ZxK9QCoNqo9g3CT77sOJ0yRBdU0gL-K5CPEMR9nOCwxe_AKcBGEkWiDNt_JzLJzML2dnSizf2j-ls5yoLGUNYxR9JYQmS-UCZUFngdHKoGfz47EpySphg-kBaPScO63rzq_crWyD3nW_dpqllQY1-SF4U7v1oKkoxu1]--></g></svg>