<?xml version="1.0" encoding="us-ascii" standalone="no"?><svg xmlns="http://www.w3.org/2000/svg" xmlns:xlink="http://www.w3.org/1999/xlink" contentStyleType="text/css" height="502px" preserveAspectRatio="none" style="width:1830px;height:502px;background:#FFFFFF;" version="1.1" viewBox="0 0 1830 502" width="1830px" zoomAndPan="magnify"><defs/><g><!--class RouteHandler--><g id="elem_RouteHandler"><rect codeLine="7" fill="#F1F1F1" height="64.1358" id="RouteHandler" rx="2.5" ry="2.5" style="stroke:#181818;stroke-width:0.5;" width="454" x="7" y="323.67"/><text fill="#000000" font-family="sans-serif" font-size="14" lengthAdjust="spacing" textLength="93" x="187.5" y="343.6359">RouteHandler</text><line style="stroke:#181818;stroke-width:0.5;" x1="8" x2="460" y1="352.7379" y2="352.7379"/><line style="stroke:#181818;stroke-width:0.5;" x1="8" x2="460" y1="360.7379" y2="360.7379"/><text fill="#000000" font-family="sans-serif" font-size="14" lengthAdjust="spacing" textLength="442" x="13" y="379.7039">+putBook(isbn, title, genre, author, description=None): HttpResult</text></g><!--class BookController--><g id="elem_BookController"><rect codeLine="11" fill="#F1F1F1" height="64.1358" id="BookController" rx="2.5" ry="2.5" style="stroke:#181818;stroke-width:0.5;" width="450" x="521" y="323.67"/><text fill="#000000" font-family="sans-serif" font-size="14" lengthAdjust="spacing" textLength="99" x="696.5" y="343.6359">BookController</text><line style="stroke:#181818;stroke-width:0.5;" x1="522" x2="970" y1="352.7379" y2="352.7379"/><line style="stroke:#181818;stroke-width:0.5;" x1="522" x2="970" y1="360.7379" y2="360.7379"/><text fill="#000000" font-family="sans-serif" font-size="14" lengthAdjust="spacing" textLength="438" x="527" y="379.7039">+updateBook(isbn, title, genre, author, description=None): Result</text></g><!--class BookService--><g id="elem_BookService"><rect codeLine="15" fill="#F1F1F1" height="102.2717" id="BookService" rx="2.5" ry="2.5" style="stroke:#181818;stroke-width:0.5;" width="381" x="1031" y="108.61"/><text fill="#000000" font-family="sans-serif" font-size="14" lengthAdjust="spacing" textLength="80" x="1181.5" y="128.5759">BookService</text><line style="stroke:#181818;stroke-width:0.5;" x1="1032" x2="1411" y1="137.6779" y2="137.6779"/><line style="stroke:#181818;stroke-width:0.5;" x1="1032" x2="1411" y1="145.6779" y2="145.6779"/><text fill="#000000" font-family="sans-serif" font-size="14" lengthAdjust="spacing" textLength="98" x="1037" y="164.6439">-validate(book)</text><text fill="#000000" font-family="sans-serif" font-size="14" lengthAdjust="spacing" textLength="369" x="1037" y="183.7118">+update(title, genre, author, description=None): Result</text><text fill="#000000" font-family="sans-serif" font-size="14" lengthAdjust="spacing" textLength="124" x="1037" y="202.7797">+add(book): Result</text></g><!--class Book--><g id="elem_Book"><rect codeLine="21" fill="#F1F1F1" height="159.4754" id="Book" rx="2.5" ry="2.5" style="stroke:#181818;stroke-width:0.5;" width="351" x="1472" y="7"/><text fill="#000000" font-family="sans-serif" font-size="14" lengthAdjust="spacing" textLength="32" x="1631.5" y="26.9659">Book</text><line style="stroke:#181818;stroke-width:0.5;" x1="1473" x2="1822" y1="36.0679" y2="36.0679"/><text fill="#000000" font-family="sans-serif" font-size="14" lengthAdjust="spacing" textLength="38" x="1478" y="55.0339">-isbn,</text><text fill="#000000" font-family="sans-serif" font-size="14" lengthAdjust="spacing" textLength="35" x="1478" y="74.1018">-title,</text><text fill="#000000" font-family="sans-serif" font-size="14" lengthAdjust="spacing" textLength="49" x="1478" y="93.1697">-genre,</text><text fill="#000000" font-family="sans-serif" font-size="14" lengthAdjust="spacing" textLength="61" x="1478" y="112.2376">-authors,</text><text fill="#000000" font-family="sans-serif" font-size="14" lengthAdjust="spacing" textLength="81" x="1478" y="131.3055">-description</text><line style="stroke:#181818;stroke-width:0.5;" x1="1473" x2="1822" y1="139.4075" y2="139.4075"/><text fill="#000000" font-family="sans-serif" font-size="14" lengthAdjust="spacing" textLength="339" x="1478" y="158.3734">Book(isbn, title, genre, authors, description=None)</text></g><!--class BookRepository--><g id="elem_BookRepository"><rect codeLine="30" fill="#F1F1F1" height="83.2038" id="BookRepository" rx="2.5" ry="2.5" style="stroke:#181818;stroke-width:0.5;" width="217" x="1539" y="343.14"/><text fill="#000000" font-family="sans-serif" font-size="14" lengthAdjust="spacing" textLength="103" x="1596" y="363.1059">BookRepository</text><line style="stroke:#181818;stroke-width:0.5;" x1="1540" x2="1755" y1="372.2079" y2="372.2079"/><line style="stroke:#181818;stroke-width:0.5;" x1="1540" x2="1755" y1="380.2079" y2="380.2079"/><text fill="#000000" font-family="sans-serif" font-size="14" lengthAdjust="spacing" textLength="205" x="1545" y="399.1739">+findById(Id) : Optional&lt;Book&gt;</text><text fill="#000000" font-family="sans-serif" font-size="14" lengthAdjust="spacing" textLength="128" x="1545" y="418.2418">+save(book): Result</text></g><!--class GenreRepository--><g id="elem_GenreRepository"><rect codeLine="35" fill="#F1F1F1" height="64.1358" id="GenreRepository" rx="2.5" ry="2.5" style="stroke:#181818;stroke-width:0.5;" width="226" x="1534.5" y="201.67"/><text fill="#000000" font-family="sans-serif" font-size="14" lengthAdjust="spacing" textLength="112" x="1591.5" y="221.6359">GenreRepository</text><line style="stroke:#181818;stroke-width:0.5;" x1="1535.5" x2="1759.5" y1="230.7379" y2="230.7379"/><line style="stroke:#181818;stroke-width:0.5;" x1="1535.5" x2="1759.5" y1="238.7379" y2="238.7379"/><text fill="#000000" font-family="sans-serif" font-size="14" lengthAdjust="spacing" textLength="214" x="1540.5" y="257.7039">+findById(Id) : Optional&lt;Genre&gt;</text></g><!--class HttpResult--><g id="elem_HttpResult"><rect codeLine="40" fill="#F1F1F1" height="102.2717" id="HttpResult" rx="2.5" ry="2.5" style="stroke:#181818;stroke-width:0.5;" width="340" x="1051.5" y="245.61"/><text fill="#000000" font-family="sans-serif" font-size="14" lengthAdjust="spacing" textLength="71" x="1186" y="265.5759">HttpResult</text><line style="stroke:#181818;stroke-width:0.5;" x1="1052.5" x2="1390.5" y1="274.6779" y2="274.6779"/><text fill="#000000" font-family="sans-serif" font-size="14" lengthAdjust="spacing" textLength="125" x="1057.5" y="293.6439">-status: HttpStatus</text><text fill="#000000" font-family="sans-serif" font-size="14" lengthAdjust="spacing" textLength="80" x="1057.5" y="312.7118">-result: json</text><line style="stroke:#181818;stroke-width:0.5;" x1="1052.5" x2="1390.5" y1="320.8138" y2="320.8138"/><text fill="#000000" font-family="sans-serif" font-size="14" lengthAdjust="spacing" textLength="328" x="1057.5" y="339.7797">HttpResult(HttpStatus status, const json &amp;result);</text></g><!--class BookViewMapper--><g id="elem_BookViewMapper"><rect codeLine="46" fill="#F1F1F1" height="64.1358" id="BookViewMapper" rx="2.5" ry="2.5" style="stroke:#181818;stroke-width:0.5;" width="136" x="1153.5" y="382.67"/><text fill="#000000" font-family="sans-serif" font-size="14" lengthAdjust="spacing" textLength="116" x="1163.5" y="402.6359">BookViewMapper</text><line style="stroke:#181818;stroke-width:0.5;" x1="1154.5" x2="1288.5" y1="411.7379" y2="411.7379"/><line style="stroke:#181818;stroke-width:0.5;" x1="1154.5" x2="1288.5" y1="419.7379" y2="419.7379"/><text fill="#000000" font-family="sans-serif" font-size="14" lengthAdjust="spacing" textLength="124" x="1159.5" y="438.7039">+toBookView(book)</text></g><!--link RouteHandler to BookController--><g id="link_RouteHandler_BookController"><path codeLine="52" d="M461.29,355.74 C480.99,355.74 494.93,355.74 514.61,355.74 " fill="none" id="RouteHandler-to-BookController" style="stroke:#181818;stroke-width:1.0;stroke-dasharray:7.0,7.0;"/><polygon fill="#181818" points="520.61,355.74,511.61,351.74,515.61,355.74,511.61,359.74,520.61,355.74" style="stroke:#181818;stroke-width:1.0;"/></g><!--link BookController to BookService--><g id="link_BookController_BookService"><path codeLine="53" d="M814.92,323.31 C872.05,296.47 956.16,257.98 1031,227.74 C1044.61,222.24 1053.2469,218.8396 1067.5469,213.4396 " fill="none" id="BookController-to-BookService" style="stroke:#181818;stroke-width:1.0;stroke-dasharray:7.0,7.0;"/><polygon fill="#181818" points="1073.16,211.32,1063.3272,210.7574,1068.4824,213.0864,1066.1534,218.2415,1073.16,211.32" style="stroke:#181818;stroke-width:1.0;"/></g><!--link BookController to BookViewMapper--><g id="link_BookController_BookViewMapper"><path codeLine="54" d="M971.27,383.69 C1037.48,391.94 1099.046,399.6087 1147.076,405.5887 " fill="none" id="BookController-to-BookViewMapper" style="stroke:#181818;stroke-width:1.0;stroke-dasharray:7.0,7.0;"/><polygon fill="#181818" points="1153.03,406.33,1144.5932,401.2487,1148.0683,405.7122,1143.6048,409.1874,1153.03,406.33" style="stroke:#181818;stroke-width:1.0;"/></g><!--link BookService to BookRepository--><g id="link_BookService_BookRepository"><path codeLine="55" d="M1381.44,211.21 C1392.01,216.32 1402.3,221.83 1412,227.74 C1443.14,246.74 1442.69,262.02 1472,283.74 C1501.11,305.31 1529.9626,323.0226 1560.2526,339.9526 " fill="none" id="BookService-to-BookRepository" style="stroke:#181818;stroke-width:1.0;stroke-dasharray:7.0,7.0;"/><polygon fill="#181818" points="1565.49,342.88,1559.5854,334.9974,1561.1255,340.4405,1555.6823,341.9806,1565.49,342.88" style="stroke:#181818;stroke-width:1.0;"/></g><!--link BookService to GenreRepository--><g id="link_BookService_GenreRepository"><path codeLine="56" d="M1412.49,192.9 C1454.02,200.15 1490.7792,206.5695 1528.1192,213.0795 " fill="none" id="BookService-to-GenreRepository" style="stroke:#181818;stroke-width:1.0;stroke-dasharray:7.0,7.0;"/><polygon fill="#181818" points="1534.03,214.11,1525.8508,208.6237,1529.1043,213.2512,1524.4767,216.5048,1534.03,214.11" style="stroke:#181818;stroke-width:1.0;"/></g><!--link BookService to Book--><g id="link_BookService_Book"><path codeLine="57" d="M1412.49,127.03 C1432.21,123.64 1446.2673,121.2197 1465.8073,117.8497 " fill="none" id="BookService-to-Book" style="stroke:#181818;stroke-width:1.0;stroke-dasharray:7.0,7.0;"/><polygon fill="#181818" points="1471.72,116.83,1462.1711,114.4178,1466.7927,117.6798,1463.5308,122.3014,1471.72,116.83" style="stroke:#181818;stroke-width:1.0;"/></g><!--link BookRepository to BookController--><g id="link_BookRepository_BookController"><path codeLine="58" d="M1546.8,426.84 C1505.82,442 1457.41,457.21 1412,464.74 C1244.95,492.45 1197.5,495.6 1031,464.74 C952.46,450.19 873.0176,417.3376 816.7176,390.8076 " fill="none" id="BookRepository-to-BookController" style="stroke:#181818;stroke-width:1.0;stroke-dasharray:7.0,7.0;"/><polygon fill="#181818" points="811.29,388.25,817.7263,395.7048,815.813,390.3813,821.1364,388.468,811.29,388.25" style="stroke:#181818;stroke-width:1.0;"/></g><!--link BookController to HttpResult--><g id="link_BookController_HttpResult"><path codeLine="59" d="M971.27,327.8 C998.16,324.45 1019.316,321.8117 1045.246,318.5817 " fill="none" id="BookController-to-HttpResult" style="stroke:#181818;stroke-width:1.0;stroke-dasharray:7.0,7.0;"/><polygon fill="#181818" points="1051.2,317.84,1041.7746,314.9832,1046.2383,318.4581,1042.7635,322.9218,1051.2,317.84" style="stroke:#181818;stroke-width:1.0;"/></g><!--SRC=[dLFBJiCm4BpxA_O4gIWjvmALW0Fq04YjnDsDbtR1jIrxKmI8VoUn7JKjHJnoIUoTsLbFneTBPXT6mw7Jqd2rqeFIheQbbY4SAv8BBrT2uoC3M_2qM38eybWoMIF4aXH2IRxKAC8p6IThE4Jo1REdUSKuAQsPqHl2YH2n0bDRRzz8epHwU1TGFqUkuajhdmiASzC79jROXmKQNxzanKlh-w0mb9vS8tr-PmtsHd1J3p_5K6aM7stxfi-LDUojxWXKJad6_sZiwpz3lwOIS_FZjTJKj2_cTQtN5Ip-AXEvKgdKQhzwAmln9Fax2UL5aikB91hQPKSxxlpWITWpxVOuKtGs45l_sfhzI4PTlavKCL4z6C5zf4fzrg372HBa6hyxutMZ__kk4Jvkw9c_IKNhL639LKXvcSNljEyZQWHF8PkneHORB2Hw7-ee1uvWE4ZKtkcs5m-4BxVIEVGYJrrVdBQGuz4CkdK71eFnJch5JeXRHCxTT-MEUZUbRNbZwPVoZkLxwMBdP_zkxCuL_GG0]--></g></svg>