<?xml version="1.0" encoding="us-ascii" standalone="no"?><svg xmlns="http://www.w3.org/2000/svg" xmlns:xlink="http://www.w3.org/1999/xlink" contentStyleType="text/css" height="267px" preserveAspectRatio="none" style="width:404px;height:267px;background:#FFFFFF;" version="1.1" viewBox="0 0 404 267" width="404px" zoomAndPan="magnify"><defs/><g><!--class Book--><g id="elem_Book"><rect codeLine="7" fill="#F1F1F1" height="37.0679" id="Book" rx="2.5" ry="2.5" style="stroke:#181818;stroke-width:0.5;" width="38" x="205" y="79"/><text fill="#000000" font-family="sans-serif" font-size="14" lengthAdjust="spacing" textLength="32" x="208" y="98.9659">Book</text><line style="stroke:#181818;stroke-width:0.5;" x1="206" x2="242" y1="108.0679" y2="108.0679"/></g><!--class BookISBN--><g id="elem_BookISBN"><rect codeLine="8" fill="#F1F1F1" height="37.0679" id="BookISBN" rx="2.5" ry="2.5" style="stroke:#181818;stroke-width:0.5;" width="71" x="326" y="79"/><text fill="#000000" font-family="sans-serif" font-size="14" lengthAdjust="spacing" textLength="65" x="329" y="98.9659">BookISBN</text><line style="stroke:#181818;stroke-width:0.5;" x1="327" x2="396" y1="108.0679" y2="108.0679"/></g><!--class BookTitle--><g id="elem_BookTitle"><rect codeLine="9" fill="#F1F1F1" height="37.0679" id="BookTitle" rx="2.5" ry="2.5" style="stroke:#181818;stroke-width:0.5;" width="67" x="31" y="115"/><text fill="#000000" font-family="sans-serif" font-size="14" lengthAdjust="spacing" textLength="61" x="34" y="134.9659">BookTitle</text><line style="stroke:#181818;stroke-width:0.5;" x1="32" x2="97" y1="144.0679" y2="144.0679"/></g><!--class BookDescription--><g id="elem_BookDescription"><rect codeLine="10" fill="#F1F1F1" height="37.0679" id="BookDescription" rx="2.5" ry="2.5" style="stroke:#181818;stroke-width:0.5;" width="115" x="7" y="43"/><text fill="#000000" font-family="sans-serif" font-size="14" lengthAdjust="spacing" textLength="109" x="10" y="62.9659">BookDescription</text><line style="stroke:#181818;stroke-width:0.5;" x1="8" x2="121" y1="72.0679" y2="72.0679"/></g><!--class BookAuthor--><g id="elem_BookAuthor"><rect codeLine="12" fill="#F1F1F1" height="37.0679" id="BookAuthor" rx="2.5" ry="2.5" style="stroke:#181818;stroke-width:0.5;" width="84" x="182" y="7"/><text fill="#000000" font-family="sans-serif" font-size="14" lengthAdjust="spacing" textLength="78" x="185" y="26.9659">BookAuthor</text><line style="stroke:#181818;stroke-width:0.5;" x1="183" x2="265" y1="36.0679" y2="36.0679"/></g><!--class BookGenre--><g id="elem_BookGenre"><rect codeLine="13" fill="#F1F1F1" height="37.0679" id="BookGenre" rx="2.5" ry="2.5" style="stroke:#181818;stroke-width:0.5;" width="79" x="184.5" y="151"/><text fill="#000000" font-family="sans-serif" font-size="14" lengthAdjust="spacing" textLength="73" x="187.5" y="170.9659">BookGenre</text><line style="stroke:#181818;stroke-width:0.5;" x1="185.5" x2="262.5" y1="180.0679" y2="180.0679"/></g><!--class Genre--><g id="elem_Genre"><rect codeLine="15" fill="#F1F1F1" height="37.0679" id="Genre" rx="2.5" ry="2.5" style="stroke:#181818;stroke-width:0.5;" width="47" x="200.5" y="223"/><text fill="#000000" font-family="sans-serif" font-size="14" lengthAdjust="spacing" textLength="41" x="203.5" y="242.9659">Genre</text><line style="stroke:#181818;stroke-width:0.5;" x1="201.5" x2="246.5" y1="252.0679" y2="252.0679"/></g><!--reverse link Book to BookISBN--><g id="link_Book_BookISBN"><path codeLine="17" d="M255.27,97.54 C276.3,97.54 299.29,97.54 325.58,97.54 " fill="none" id="Book-backto-BookISBN" style="stroke:#181818;stroke-width:1.0;"/><polygon fill="#181818" points="243.27,97.54,249.27,101.54,255.27,97.54,249.27,93.54,243.27,97.54" style="stroke:#181818;stroke-width:1.0;"/></g><!--link BookTitle to Book--><g id="link_BookTitle_Book"><path codeLine="18" d="M98.13,126.08 C130.39,118.7 166.8918,110.3644 192.9618,104.4044 " fill="none" id="BookTitle-to-Book" style="stroke:#181818;stroke-width:1.0;"/><polygon fill="#181818" points="204.66,101.73,197.9194,99.1678,192.9618,104.4044,199.7024,106.9666,204.66,101.73" style="stroke:#181818;stroke-width:1.0;"/></g><!--link BookDescription to Book--><g id="link_BookDescription_Book"><path codeLine="19" d="M122.36,74.53 C151.26,81.14 172.7421,86.0442 192.8521,90.6442 " fill="none" id="BookDescription-to-Book" style="stroke:#181818;stroke-width:1.0;"/><polygon fill="#181818" points="204.55,93.32,199.593,88.0828,192.8521,90.6442,197.8091,95.8814,204.55,93.32" style="stroke:#181818;stroke-width:1.0;"/></g><!--link BookAuthor to Book--><g id="link_BookAuthor_Book"><path codeLine="21" d="M224,44.22 C224,55.71 224,67.2 224,78.69 " fill="none" id="BookAuthor-Book" style="stroke:#181818;stroke-width:1.0;"/><text fill="#000000" font-family="sans-serif" font-size="13" lengthAdjust="spacing" textLength="20" x="201.1875" y="65.8624">1..*</text><text fill="#000000" font-family="sans-serif" font-size="13" lengthAdjust="spacing" textLength="7" x="215.9281" y="67.321">1</text></g><!--link BookGenre to Genre--><g id="link_BookGenre_Genre"><path codeLine="22" d="M224,188.22 C224,199.71 224,211.2 224,222.69 " fill="none" id="BookGenre-Genre" style="stroke:#181818;stroke-width:1.0;"/><text fill="#000000" font-family="sans-serif" font-size="13" lengthAdjust="spacing" textLength="20" x="201.1875" y="209.8624">1..*</text><text fill="#000000" font-family="sans-serif" font-size="13" lengthAdjust="spacing" textLength="7" x="215.9281" y="211.321">1</text></g><!--link Book to BookGenre--><g id="link_Book_BookGenre"><path codeLine="23" d="M224,116.22 C224,127.71 224,139.2 224,150.69 " fill="none" id="Book-BookGenre" style="stroke:#181818;stroke-width:1.0;"/><text fill="#000000" font-family="sans-serif" font-size="13" lengthAdjust="spacing" textLength="7" x="216.0156" y="137.8624">1</text><text fill="#000000" font-family="sans-serif" font-size="13" lengthAdjust="spacing" textLength="20" x="200.9375" y="139.321">1..*</text></g><!--SRC=[RL2x3i8m3Dpp5L4Nf4ffnSf6XOHOME07giIq5dcKn1K3uj_fWxOfOhFlpdUsDpLH4tPvtkZIKcjq9ft90pnQi1A4mhBofM6iHWLSefSQnje0rKu5fk56d1ptMDN45NgGXCuo9dKP0Y-Skx_UKNEw5ESLS4NIi48E4AJ7fhVfy8ZOjrscNscFO3qighdjEPuAvPvMpBaJsZPYYVu5e_IlJR9DkEZl55sPPMaIBSFc9IPE39yGmzH0_95CPgCJ-m00]--></g></svg>