<?xml version="1.0" encoding="us-ascii" standalone="no"?><svg xmlns="http://www.w3.org/2000/svg" xmlns:xlink="http://www.w3.org/1999/xlink" contentStyleType="text/css" height="293px" preserveAspectRatio="none" style="width:449px;height:293px;background:#FFFFFF;" version="1.1" viewBox="0 0 449 293" width="449px" zoomAndPan="magnify"><defs/><g><rect fill="#FFFFFF" height="107.873" style="stroke:#181818;stroke-width:1.0;" width="10" x="31" y="93.6211"/><rect fill="#FFFFFF" height="75.582" style="stroke:#181818;stroke-width:1.0;" width="10" x="269" y="116.9121"/><line style="stroke:#181818;stroke-width:0.5;stroke-dasharray:5.0,5.0;" x1="36" x2="36" y1="83.6211" y2="210.4941"/><line style="stroke:#181818;stroke-width:0.5;stroke-dasharray:5.0,5.0;" x1="274" x2="274" y1="83.6211" y2="210.4941"/><text fill="#000000" font-family="sans-serif" font-size="14" lengthAdjust="spacing" textLength="56" x="5" y="80.1074">Librarian</text><ellipse cx="36" cy="13.5" fill="#E2E2F0" rx="8" ry="8" style="stroke:#181818;stroke-width:0.5;"/><path d="M36,21.5 L36,48.5 M23,29.5 L49,29.5 M36,48.5 L23,63.5 M36,48.5 L49,63.5 " fill="none" style="stroke:#181818;stroke-width:0.5;"/><text fill="#000000" font-family="sans-serif" font-size="14" lengthAdjust="spacing" textLength="56" x="5" y="224.6016">Librarian</text><ellipse cx="36" cy="236.6152" fill="#E2E2F0" rx="8" ry="8" style="stroke:#181818;stroke-width:0.5;"/><path d="M36,244.6152 L36,271.6152 M23,252.6152 L49,252.6152 M36,271.6152 L23,286.6152 M36,271.6152 L49,286.6152 " fill="none" style="stroke:#181818;stroke-width:0.5;"/><rect fill="#E2E2F0" height="32.6211" rx="2.5" ry="2.5" style="stroke:#181818;stroke-width:0.5;" width="64" x="242" y="50"/><text fill="#000000" font-family="sans-serif" font-size="14" lengthAdjust="spacing" textLength="50" x="249" y="72.1074">:System</text><rect fill="#E2E2F0" height="32.6211" rx="2.5" ry="2.5" style="stroke:#181818;stroke-width:0.5;" width="64" x="242" y="209.4941"/><text fill="#000000" font-family="sans-serif" font-size="14" lengthAdjust="spacing" textLength="50" x="249" y="231.6016">:System</text><rect fill="#FFFFFF" height="107.873" style="stroke:#181818;stroke-width:1.0;" width="10" x="31" y="93.6211"/><rect fill="#FFFFFF" height="75.582" style="stroke:#181818;stroke-width:1.0;" width="10" x="269" y="116.9121"/><polygon fill="#181818" points="257,112.9121,267,116.9121,257,120.9121,261,116.9121" style="stroke:#181818;stroke-width:1.0;"/><line style="stroke:#181818;stroke-width:1.0;" x1="41" x2="263" y1="116.9121" y2="116.9121"/><text fill="#000000" font-family="sans-serif" font-size="13" lengthAdjust="spacing" textLength="209" x="48" y="111.6494">Requests to know the Top 5 readers</text><line style="stroke:#181818;stroke-width:1.0;" x1="279" x2="321" y1="148.2031" y2="148.2031"/><line style="stroke:#181818;stroke-width:1.0;" x1="321" x2="321" y1="148.2031" y2="161.2031"/><line style="stroke:#181818;stroke-width:1.0;" x1="280" x2="321" y1="161.2031" y2="161.2031"/><polygon fill="#181818" points="290,157.2031,280,161.2031,290,165.2031,286,161.2031" style="stroke:#181818;stroke-width:1.0;"/><text fill="#000000" font-family="sans-serif" font-size="13" lengthAdjust="spacing" textLength="156" x="286" y="142.9404">Identifies the Top 5 readers</text><polygon fill="#181818" points="52,188.4941,42,192.4941,52,196.4941,48,192.4941" style="stroke:#181818;stroke-width:1.0;"/><line style="stroke:#181818;stroke-width:1.0;stroke-dasharray:2.0,2.0;" x1="46" x2="273" y1="192.4941" y2="192.4941"/><text fill="#000000" font-family="sans-serif" font-size="13" lengthAdjust="spacing" textLength="155" x="58" y="187.2314">Displays the Top 5 readers</text><!--SRC=[ROwx3i8m34NtV8NLfHCZImOc5YGcu0VSnWWBcWJRBUhVysWf5UhaQ-cSQvVOMefjKv6Kpc5jIQ3OSoKeZB40L9Wsbr6CQyuO3Gf_xDMe-I13VElSeT5CSLE4rMRaF1petfAQWYMunlG0kn2SKeOr264WqL_Ns3sCUSakK3G-C-c2_iLV_FI1Xorhlc6_90Jwk_W4]--></g></svg>
