<?xml version="1.0" encoding="us-ascii" standalone="no"?><svg xmlns="http://www.w3.org/2000/svg" xmlns:xlink="http://www.w3.org/1999/xlink" contentStyleType="text/css" height="566px" preserveAspectRatio="none" style="width:489px;height:566px;background:#FFFFFF;" version="1.1" viewBox="0 0 489 566" width="489px" zoomAndPan="magnify"><defs/><g><!--class Book--><g id="elem_Book"><rect codeLine="6" fill="#F1F1F1" height="159.4754" id="Book" rx="2.5" ry="2.5" style="stroke:#181818;stroke-width:0.5;" width="351" x="7" y="400.4"/><text fill="#000000" font-family="sans-serif" font-size="14" lengthAdjust="spacing" textLength="32" x="166.5" y="420.3659">Book</text><line style="stroke:#181818;stroke-width:0.5;" x1="8" x2="357" y1="429.4679" y2="429.4679"/><text fill="#000000" font-family="sans-serif" font-size="14" lengthAdjust="spacing" textLength="38" x="13" y="448.4339">-isbn,</text><text fill="#000000" font-family="sans-serif" font-size="14" lengthAdjust="spacing" textLength="35" x="13" y="467.5018">-title,</text><text fill="#000000" font-family="sans-serif" font-size="14" lengthAdjust="spacing" textLength="49" x="13" y="486.5697">-genre,</text><text fill="#000000" font-family="sans-serif" font-size="14" lengthAdjust="spacing" textLength="61" x="13" y="505.6376">-authors,</text><text fill="#000000" font-family="sans-serif" font-size="14" lengthAdjust="spacing" textLength="81" x="13" y="524.7055">-description</text><line style="stroke:#181818;stroke-width:0.5;" x1="8" x2="357" y1="532.8075" y2="532.8075"/><text fill="#000000" font-family="sans-serif" font-size="14" lengthAdjust="spacing" textLength="339" x="13" y="551.7734">Book(isbn, title, genre, authors, description=None)</text></g><!--class BookController--><g id="elem_BookController"><rect codeLine="15" fill="#F1F1F1" height="64.1358" id="BookController" rx="2.5" ry="2.5" style="stroke:#181818;stroke-width:0.5;" width="111" x="174" y="7"/><text fill="#000000" font-family="sans-serif" font-size="14" lengthAdjust="spacing" textLength="99" x="180" y="26.9659">BookController</text><line style="stroke:#181818;stroke-width:0.5;" x1="175" x2="284" y1="36.0679" y2="36.0679"/><line style="stroke:#181818;stroke-width:0.5;" x1="175" x2="284" y1="44.0679" y2="44.0679"/><text fill="#000000" font-family="sans-serif" font-size="14" lengthAdjust="spacing" textLength="99" x="180" y="63.0339">+getBook(isbn)</text></g><!--class BookServiceImpl--><g id="elem_BookServiceImpl"><rect codeLine="19" fill="#F1F1F1" height="64.1358" id="BookServiceImpl" rx="2.5" ry="2.5" style="stroke:#181818;stroke-width:0.5;" width="164" x="147.5" y="132.13"/><text fill="#000000" font-family="sans-serif" font-size="14" lengthAdjust="spacing" textLength="111" x="174" y="152.0959">BookServiceImpl</text><line style="stroke:#181818;stroke-width:0.5;" x1="148.5" x2="310.5" y1="161.1979" y2="161.1979"/><line style="stroke:#181818;stroke-width:0.5;" x1="148.5" x2="310.5" y1="169.1979" y2="169.1979"/><text fill="#000000" font-family="sans-serif" font-size="14" lengthAdjust="spacing" textLength="152" x="153.5" y="188.1639">+getBooksByIsbn(isbn)</text></g><!--class BookViewMapper--><g id="elem_BookViewMapper"><rect codeLine="23" fill="#F1F1F1" height="64.1358" id="BookViewMapper" rx="2.5" ry="2.5" style="stroke:#181818;stroke-width:0.5;" width="136" x="346.5" y="132.13"/><text fill="#000000" font-family="sans-serif" font-size="14" lengthAdjust="spacing" textLength="116" x="356.5" y="152.0959">BookViewMapper</text><line style="stroke:#181818;stroke-width:0.5;" x1="347.5" x2="481.5" y1="161.1979" y2="161.1979"/><line style="stroke:#181818;stroke-width:0.5;" x1="347.5" x2="481.5" y1="169.1979" y2="169.1979"/><text fill="#000000" font-family="sans-serif" font-size="14" lengthAdjust="spacing" textLength="124" x="352.5" y="188.1639">+toBookView(book)</text></g><!--class BookRepository--><g id="elem_BookRepository"><rect codeLine="28" fill="#F1F1F1" height="64.1358" id="BookRepository" rx="2.5" ry="2.5" style="stroke:#181818;stroke-width:0.5;" width="162" x="217.5" y="257.27"/><text fill="#000000" font-family="sans-serif" font-size="14" lengthAdjust="spacing" textLength="103" x="247" y="277.2359">BookRepository</text><line style="stroke:#181818;stroke-width:0.5;" x1="218.5" x2="378.5" y1="286.3379" y2="286.3379"/><line style="stroke:#181818;stroke-width:0.5;" x1="218.5" x2="378.5" y1="294.3379" y2="294.3379"/><text fill="#000000" font-family="sans-serif" font-size="14" lengthAdjust="spacing" textLength="150" x="223.5" y="313.3039">+findBookByIsbn(isbn)</text></g><!--link BookController to BookServiceImpl--><g id="link_BookController_BookServiceImpl"><path codeLine="34" d="M229.5,71.46 C229.5,89.98 229.5,107.35 229.5,125.87 " fill="none" id="BookController-to-BookServiceImpl" style="stroke:#181818;stroke-width:1.0;stroke-dasharray:7.0,7.0;"/><polygon fill="#181818" points="229.5,131.87,233.5,122.87,229.5,126.87,225.5,122.87,229.5,131.87" style="stroke:#181818;stroke-width:1.0;"/></g><!--link BookServiceImpl to BookRepository--><g id="link_BookServiceImpl_BookRepository"><path codeLine="35" d="M247.09,196.59 C257.47,215.12 267.6374,233.2555 278.0074,251.7655 " fill="none" id="BookServiceImpl-to-BookRepository" style="stroke:#181818;stroke-width:1.0;stroke-dasharray:7.0,7.0;"/><polygon fill="#181818" points="280.94,257,280.0308,247.1932,278.4962,252.6379,273.0515,251.1033,280.94,257" style="stroke:#181818;stroke-width:1.0;"/></g><!--link BookController to BookViewMapper--><g id="link_BookController_BookViewMapper"><path codeLine="36" d="M276.66,71.46 C304.39,89.91 334.3455,109.8451 362.1055,128.3251 " fill="none" id="BookController-to-BookViewMapper" style="stroke:#181818;stroke-width:1.0;stroke-dasharray:7.0,7.0;"/><polygon fill="#181818" points="367.1,131.65,361.8248,123.333,362.9379,128.8793,357.3916,129.9924,367.1,131.65" style="stroke:#181818;stroke-width:1.0;"/></g><!--link BookController to Book--><g id="link_BookController_Book"><path codeLine="37" d="M180.51,71.5 C160.77,87.1 140.16,107.82 129.5,132.13 C91.56,218.64 116.8592,321.9911 144.4092,394.5111 " fill="none" id="BookController-to-Book" style="stroke:#181818;stroke-width:1.0;stroke-dasharray:7.0,7.0;"/><polygon fill="#181818" points="146.54,400.12,147.0831,390.2861,144.7643,395.4459,139.6045,393.1272,146.54,400.12" style="stroke:#181818;stroke-width:1.0;"/></g><!--link BookServiceImpl to Book--><g id="link_BookServiceImpl_Book"><path codeLine="38" d="M217.18,196.66 C210.84,214.22 203.59,236.66 199.5,257.27 C190.22,304.07 186.2142,351.3563 184.2642,393.9763 " fill="none" id="BookServiceImpl-to-Book" style="stroke:#181818;stroke-width:1.0;stroke-dasharray:7.0,7.0;"/><polygon fill="#181818" points="183.99,399.97,188.3972,391.1622,184.2185,394.9752,180.4055,390.7966,183.99,399.97" style="stroke:#181818;stroke-width:1.0;"/></g><!--link BookRepository to Book--><g id="link_BookRepository_Book"><path codeLine="39" d="M279.34,321.51 C266.15,342.99 251.1408,367.4177 234.1108,395.1377 " fill="none" id="BookRepository-to-Book" style="stroke:#181818;stroke-width:1.0;"/><polygon fill="#181818" points="230.97,400.25,239.0894,394.6754,233.5873,395.9898,232.273,390.4877,230.97,400.25" style="stroke:#181818;stroke-width:1.0;"/><text fill="#000000" font-family="sans-serif" font-size="13" lengthAdjust="spacing" textLength="52" x="262.5" y="366.297">searches</text><text fill="#000000" font-family="sans-serif" font-size="13" lengthAdjust="spacing" textLength="7" x="268.0204" y="343.2274">1</text><text fill="#000000" font-family="sans-serif" font-size="13" lengthAdjust="spacing" textLength="20" x="214.7569" y="388.4811">1..*</text></g><!--SRC=[TKzBJuGm4BxFhsYuk3u0lMxY9gud3dfm4- -bp2wJBMtJ3fhL-Dy516HHUcc_cU_LYvBPXNMQEYqDrvLEbArIfMK8SK7ou6K5K5A1Gf5N6Y4SoJZPZ4L7Uc3sbDUCcR9cHnyeRW6wZTXQUnIV89eJ2mgvkUdVJAnn00SqVWIovjBwCC02W_BacApf9gtZgdFgFNhrg9igxf-jmKlucjPvj8QzrHez_1IxRXnuj6tPl-GT-ZTIc5LEpzbXUyeQ_Z-YLyBt9-dS987ji5ZbpMDMwGMT3SJMdqR1dapHhcOX0ETV44co-LDqXaVE96R1PT9yWR5e3kS98hgBH1nlcZj9hgAEiXO1fLSb1lW6]--></g></svg>