<?xml version="1.0" encoding="us-ascii" standalone="no"?><svg xmlns="http://www.w3.org/2000/svg" xmlns:xlink="http://www.w3.org/1999/xlink" contentStyleType="text/css" height="588px" preserveAspectRatio="none" style="width:1198px;height:588px;background:#FFFFFF;" version="1.1" viewBox="0 0 1198 588" width="1198px" zoomAndPan="magnify"><defs/><g><rect fill="#FFFFFF" height="370.2012" style="stroke:#181818;stroke-width:1.0;" width="10" x="356" y="116.9121"/><rect fill="#FFFFFF" height="370.2012" style="stroke:#181818;stroke-width:1.0;" width="10" x="356" y="116.9121"/><rect fill="#FFFFFF" height="347.9102" style="stroke:#181818;stroke-width:1.0;" width="10" x="713" y="148.2031"/><rect fill="#FFFFFF" height="347.9102" style="stroke:#181818;stroke-width:1.0;" width="10" x="713" y="148.2031"/><rect fill="#FFFFFF" height="80.582" style="stroke:#181818;stroke-width:1.0;" width="10" x="718" y="312.6582"/><rect fill="#FFFFFF" height="36.291" style="stroke:#181818;stroke-width:1.0;" width="10" x="723" y="356.9492"/><rect fill="#FFFFFF" height="31.291" style="stroke:#181818;stroke-width:1.0;" width="10" x="909" y="179.4941"/><rect fill="#FFFFFF" height="31.291" style="stroke:#181818;stroke-width:1.0;" width="10" x="909" y="179.4941"/><rect fill="#FFFFFF" height="31.291" style="stroke:#181818;stroke-width:1.0;" width="10" x="1009" y="242.0762"/><rect fill="#FFFFFF" height="31.291" style="stroke:#181818;stroke-width:1.0;" width="10" x="1123.5" y="424.5313"/><rect fill="#FFFFFF" height="31.291" style="stroke:#181818;stroke-width:1.0;" width="10" x="1123.5" y="424.5313"/><line style="stroke:#181818;stroke-width:0.5;stroke-dasharray:5.0,5.0;" x1="36" x2="36" y1="83.6211" y2="505.1133"/><line style="stroke:#181818;stroke-width:0.5;stroke-dasharray:5.0,5.0;" x1="355.5" x2="355.5" y1="83.6211" y2="505.1133"/><line style="stroke:#181818;stroke-width:0.5;stroke-dasharray:5.0,5.0;" x1="713" x2="713" y1="83.6211" y2="505.1133"/><line style="stroke:#181818;stroke-width:0.5;stroke-dasharray:5.0,5.0;" x1="908.5" x2="908.5" y1="83.6211" y2="505.1133"/><line style="stroke:#181818;stroke-width:0.5;stroke-dasharray:5.0,5.0;" x1="1013.5" x2="1013.5" y1="83.6211" y2="505.1133"/><line style="stroke:#181818;stroke-width:0.5;stroke-dasharray:5.0,5.0;" x1="1123.5" x2="1123.5" y1="83.6211" y2="505.1133"/><text fill="#000000" font-family="sans-serif" font-size="14" lengthAdjust="spacing" textLength="56" x="5" y="80.1074">Librarian</text><ellipse cx="36" cy="13.5" fill="#E2E2F0" rx="8" ry="8" style="stroke:#181818;stroke-width:0.5;"/><path d="M36,21.5 L36,48.5 M23,29.5 L49,29.5 M36,48.5 L23,63.5 M36,48.5 L49,63.5 " fill="none" style="stroke:#181818;stroke-width:0.5;"/><text fill="#000000" font-family="sans-serif" font-size="14" lengthAdjust="spacing" textLength="56" x="5" y="519.2207">Librarian</text><ellipse cx="36" cy="531.2344" fill="#E2E2F0" rx="8" ry="8" style="stroke:#181818;stroke-width:0.5;"/><path d="M36,539.2344 L36,566.2344 M23,547.2344 L49,547.2344 M36,566.2344 L23,581.2344 M36,566.2344 L49,581.2344 " fill="none" style="stroke:#181818;stroke-width:0.5;"/><rect fill="#E2E2F0" height="32.6211" rx="2.5" ry="2.5" style="stroke:#181818;stroke-width:0.5;" width="123" x="294.5" y="50"/><text fill="#000000" font-family="sans-serif" font-size="14" lengthAdjust="spacing" textLength="109" x="301.5" y="72.1074">ReaderController</text><rect fill="#E2E2F0" height="32.6211" rx="2.5" ry="2.5" style="stroke:#181818;stroke-width:0.5;" width="123" x="294.5" y="504.1133"/><text fill="#000000" font-family="sans-serif" font-size="14" lengthAdjust="spacing" textLength="109" x="301.5" y="526.2207">ReaderController</text><rect fill="#E2E2F0" height="32.6211" rx="2.5" ry="2.5" style="stroke:#181818;stroke-width:0.5;" width="108" x="659" y="50"/><text fill="#000000" font-family="sans-serif" font-size="14" lengthAdjust="spacing" textLength="94" x="666" y="72.1074">ReaderService</text><rect fill="#E2E2F0" height="32.6211" rx="2.5" ry="2.5" style="stroke:#181818;stroke-width:0.5;" width="108" x="659" y="504.1133"/><text fill="#000000" font-family="sans-serif" font-size="14" lengthAdjust="spacing" textLength="94" x="666" y="526.2207">ReaderService</text><rect fill="#E2E2F0" height="32.6211" rx="2.5" ry="2.5" style="stroke:#181818;stroke-width:0.5;" width="129" x="844.5" y="50"/><text fill="#000000" font-family="sans-serif" font-size="14" lengthAdjust="spacing" textLength="115" x="851.5" y="72.1074">ReaderRepository</text><rect fill="#E2E2F0" height="32.6211" rx="2.5" ry="2.5" style="stroke:#181818;stroke-width:0.5;" width="129" x="844.5" y="504.1133"/><text fill="#000000" font-family="sans-serif" font-size="14" lengthAdjust="spacing" textLength="115" x="851.5" y="526.2207">ReaderRepository</text><rect fill="#E2E2F0" height="32.6211" rx="2.5" ry="2.5" style="stroke:#181818;stroke-width:0.5;" width="61" x="983.5" y="50"/><text fill="#000000" font-family="sans-serif" font-size="14" lengthAdjust="spacing" textLength="47" x="990.5" y="72.1074">Reader</text><rect fill="#E2E2F0" height="32.6211" rx="2.5" ry="2.5" style="stroke:#181818;stroke-width:0.5;" width="61" x="983.5" y="504.1133"/><text fill="#000000" font-family="sans-serif" font-size="14" lengthAdjust="spacing" textLength="47" x="990.5" y="526.2207">Reader</text><rect fill="#E2E2F0" height="32.6211" rx="2.5" ry="2.5" style="stroke:#181818;stroke-width:0.5;" width="138" x="1054.5" y="50"/><text fill="#000000" font-family="sans-serif" font-size="14" lengthAdjust="spacing" textLength="124" x="1061.5" y="72.1074">ReaderViewMapper</text><rect fill="#E2E2F0" height="32.6211" rx="2.5" ry="2.5" style="stroke:#181818;stroke-width:0.5;" width="138" x="1054.5" y="504.1133"/><text fill="#000000" font-family="sans-serif" font-size="14" lengthAdjust="spacing" textLength="124" x="1061.5" y="526.2207">ReaderViewMapper</text><rect fill="#FFFFFF" height="370.2012" style="stroke:#181818;stroke-width:1.0;" width="10" x="356" y="116.9121"/><rect fill="#FFFFFF" height="370.2012" style="stroke:#181818;stroke-width:1.0;" width="10" x="356" y="116.9121"/><rect fill="#FFFFFF" height="347.9102" style="stroke:#181818;stroke-width:1.0;" width="10" x="713" y="148.2031"/><rect fill="#FFFFFF" height="347.9102" style="stroke:#181818;stroke-width:1.0;" width="10" x="713" y="148.2031"/><rect fill="#FFFFFF" height="80.582" style="stroke:#181818;stroke-width:1.0;" width="10" x="718" y="312.6582"/><rect fill="#FFFFFF" height="36.291" style="stroke:#181818;stroke-width:1.0;" width="10" x="723" y="356.9492"/><rect fill="#FFFFFF" height="31.291" style="stroke:#181818;stroke-width:1.0;" width="10" x="909" y="179.4941"/><rect fill="#FFFFFF" height="31.291" style="stroke:#181818;stroke-width:1.0;" width="10" x="909" y="179.4941"/><rect fill="#FFFFFF" height="31.291" style="stroke:#181818;stroke-width:1.0;" width="10" x="1009" y="242.0762"/><rect fill="#FFFFFF" height="31.291" style="stroke:#181818;stroke-width:1.0;" width="10" x="1123.5" y="424.5313"/><rect fill="#FFFFFF" height="31.291" style="stroke:#181818;stroke-width:1.0;" width="10" x="1123.5" y="424.5313"/><polygon fill="#181818" points="344,112.9121,354,116.9121,344,120.9121,348,116.9121" style="stroke:#181818;stroke-width:1.0;"/><line style="stroke:#181818;stroke-width:1.0;" x1="36" x2="350" y1="116.9121" y2="116.9121"/><text fill="#000000" font-family="sans-serif" font-size="13" font-weight="bold" lengthAdjust="spacing" textLength="7" x="43" y="111.6494">1</text><text fill="#000000" font-family="sans-serif" font-size="13" lengthAdjust="spacing" textLength="281" x="54" y="111.6494">GET /api/readers?phoneNumber={phoneNumber}</text><polygon fill="#181818" points="701,144.2031,711,148.2031,701,152.2031,705,148.2031" style="stroke:#181818;stroke-width:1.0;"/><line style="stroke:#181818;stroke-width:1.0;" x1="366" x2="707" y1="148.2031" y2="148.2031"/><text fill="#000000" font-family="sans-serif" font-size="13" font-weight="bold" lengthAdjust="spacing" textLength="7" x="373" y="142.9404">2</text><text fill="#000000" font-family="sans-serif" font-size="13" lengthAdjust="spacing" textLength="312" x="384" y="142.9404">getReadersByPhoneNumber(phoneNumber, pageable)</text><polygon fill="#181818" points="897,175.4941,907,179.4941,897,183.4941,901,179.4941" style="stroke:#181818;stroke-width:1.0;"/><line style="stroke:#181818;stroke-width:1.0;" x1="723" x2="903" y1="179.4941" y2="179.4941"/><text fill="#000000" font-family="sans-serif" font-size="13" font-weight="bold" lengthAdjust="spacing" textLength="7" x="730" y="174.2314">3</text><text fill="#000000" font-family="sans-serif" font-size="13" lengthAdjust="spacing" textLength="43" x="741" y="174.2314">findAll()</text><polygon fill="#181818" points="734,206.7852,724,210.7852,734,214.7852,730,210.7852" style="stroke:#181818;stroke-width:1.0;"/><line style="stroke:#181818;stroke-width:1.0;stroke-dasharray:2.0,2.0;" x1="728" x2="908" y1="210.7852" y2="210.7852"/><text fill="#000000" font-family="sans-serif" font-size="13" font-weight="bold" lengthAdjust="spacing" textLength="7" x="740" y="205.5225">4</text><text fill="#000000" font-family="sans-serif" font-size="13" lengthAdjust="spacing" textLength="125" x="751" y="205.5225">List&lt;Reader&gt; readers</text><polygon fill="#181818" points="997,238.0762,1007,242.0762,997,246.0762,1001,242.0762" style="stroke:#181818;stroke-width:1.0;"/><line style="stroke:#181818;stroke-width:1.0;" x1="723" x2="1003" y1="242.0762" y2="242.0762"/><text fill="#000000" font-family="sans-serif" font-size="13" font-weight="bold" lengthAdjust="spacing" textLength="7" x="730" y="236.8135">5</text><text fill="#000000" font-family="sans-serif" font-size="13" lengthAdjust="spacing" textLength="126" x="741" y="236.8135">filter by phoneNumber</text><polygon fill="#181818" points="734,269.3672,724,273.3672,734,277.3672,730,273.3672" style="stroke:#181818;stroke-width:1.0;"/><line style="stroke:#181818;stroke-width:1.0;stroke-dasharray:2.0,2.0;" x1="728" x2="1013" y1="273.3672" y2="273.3672"/><text fill="#000000" font-family="sans-serif" font-size="13" font-weight="bold" lengthAdjust="spacing" textLength="7" x="740" y="268.1045">6</text><text fill="#000000" font-family="sans-serif" font-size="13" lengthAdjust="spacing" textLength="168" x="751" y="268.1045">List&lt;Reader&gt; filteredReaders</text><line style="stroke:#181818;stroke-width:1.0;" x1="723" x2="770" y1="299.6582" y2="299.6582"/><line style="stroke:#181818;stroke-width:1.0;" x1="770" x2="770" y1="299.6582" y2="312.6582"/><line style="stroke:#181818;stroke-width:1.0;" x1="729" x2="770" y1="312.6582" y2="312.6582"/><polygon fill="#181818" points="739,308.6582,729,312.6582,739,316.6582,735,312.6582" style="stroke:#181818;stroke-width:1.0;"/><text fill="#000000" font-family="sans-serif" font-size="13" font-weight="bold" lengthAdjust="spacing" textLength="7" x="735" y="294.3955">7</text><text fill="#000000" font-family="sans-serif" font-size="13" lengthAdjust="spacing" textLength="156" x="746" y="294.3955">updateAge(filteredReaders)</text><line style="stroke:#181818;stroke-width:1.0;" x1="728" x2="775" y1="343.9492" y2="343.9492"/><line style="stroke:#181818;stroke-width:1.0;" x1="775" x2="775" y1="343.9492" y2="356.9492"/><line style="stroke:#181818;stroke-width:1.0;" x1="734" x2="775" y1="356.9492" y2="356.9492"/><polygon fill="#181818" points="744,352.9492,734,356.9492,744,360.9492,740,356.9492" style="stroke:#181818;stroke-width:1.0;"/><text fill="#000000" font-family="sans-serif" font-size="13" font-weight="bold" lengthAdjust="spacing" textLength="7" x="740" y="338.6865">8</text><text fill="#000000" font-family="sans-serif" font-size="13" lengthAdjust="spacing" textLength="94" x="751" y="338.6865">apply pagination</text><polygon fill="#181818" points="377,389.2402,367,393.2402,377,397.2402,373,393.2402" style="stroke:#181818;stroke-width:1.0;"/><line style="stroke:#181818;stroke-width:1.0;stroke-dasharray:2.0,2.0;" x1="371" x2="712" y1="393.2402" y2="393.2402"/><text fill="#000000" font-family="sans-serif" font-size="13" font-weight="bold" lengthAdjust="spacing" textLength="7" x="383" y="387.9775">9</text><text fill="#000000" font-family="sans-serif" font-size="13" lengthAdjust="spacing" textLength="164" x="394" y="387.9775">Page&lt;Reader&gt; readersPage</text><polygon fill="#181818" points="1111.5,420.5313,1121.5,424.5313,1111.5,428.5313,1115.5,424.5313" style="stroke:#181818;stroke-width:1.0;"/><line style="stroke:#181818;stroke-width:1.0;" x1="366" x2="1117.5" y1="424.5313" y2="424.5313"/><text fill="#000000" font-family="sans-serif" font-size="13" font-weight="bold" lengthAdjust="spacing" textLength="14" x="373" y="419.2686">10</text><text fill="#000000" font-family="sans-serif" font-size="13" lengthAdjust="spacing" textLength="161" x="391" y="419.2686">toReaderView(readersPage)</text><polygon fill="#181818" points="377,451.8223,367,455.8223,377,459.8223,373,455.8223" style="stroke:#181818;stroke-width:1.0;"/><line style="stroke:#181818;stroke-width:1.0;stroke-dasharray:2.0,2.0;" x1="371" x2="1122.5" y1="455.8223" y2="455.8223"/><text fill="#000000" font-family="sans-serif" font-size="13" font-weight="bold" lengthAdjust="spacing" textLength="14" x="383" y="450.5596">11</text><text fill="#000000" font-family="sans-serif" font-size="13" lengthAdjust="spacing" textLength="181" x="401" y="450.5596">List&lt;ReaderView&gt; readerViews</text><polygon fill="#181818" points="47,483.1133,37,487.1133,47,491.1133,43,487.1133" style="stroke:#181818;stroke-width:1.0;"/><line style="stroke:#181818;stroke-width:1.0;stroke-dasharray:2.0,2.0;" x1="41" x2="355" y1="487.1133" y2="487.1133"/><text fill="#000000" font-family="sans-serif" font-size="13" font-weight="bold" lengthAdjust="spacing" textLength="14" x="53" y="481.8506">12</text><text fill="#000000" font-family="sans-serif" font-size="13" lengthAdjust="spacing" textLength="273" x="71" y="481.8506">HTTP 200 OK (List&lt;ReaderView&gt; readerViews)</text><!--SRC=[XLDDJuGm4BttLymH4ZUxyKXqpMgC9gvALkAzm8XDQjkKieOO_xlbOw4fuDxQnynxZpTJcXcfOSzIJJMZWj3AI55zfQZR8yqCErA380KXGnMijd10cgE-ay9eoJdg21xk4rXJnTQw_LJUg4yfyAKbk_vnBhzaeFLP2F6HKUiDzP5b6461faFAspeUQGD7uW8KBP2c74DVhASvAVNNKUQ0IfRCfb97yC54lkCyc92CHSG7O3Lrl6UbkUgmBVJna1oNIPVCDPQuiQcaDJY_svUVbUwQCU_ZMvGPkYkLMt-x0WElDJpRIfNYTJC69gXXTd-yXjaTYktK_A0QR1gMDyQvXNbd-FriRJJ4HevOu11F9Zis4HzOyEmatDIUV3VdcI4x_3FMhS3moY9uJ98OBZSRU7s2u3-PSAhZlAa_]--></g></svg>