<?xml version="1.0" encoding="us-ascii" standalone="no"?><svg xmlns="http://www.w3.org/2000/svg" xmlns:xlink="http://www.w3.org/1999/xlink" contentStyleType="text/css" height="1064px" preserveAspectRatio="none" style="width:1101px;height:1064px;background:#FFFFFF;" version="1.1" viewBox="0 0 1101 1064" width="1101px" zoomAndPan="magnify"><defs/><g><!--class Reader--><g id="elem_Reader"><rect codeLine="6" fill="#F1F1F1" height="398.4219" id="Reader" rx="2.5" ry="2.5" style="stroke:#181818;stroke-width:0.5;" width="1026" x="7" y="659"/><text fill="#000000" font-family="sans-serif" font-size="14" lengthAdjust="spacing" textLength="47" x="496.5" y="679.1074">Reader</text><line style="stroke:#181818;stroke-width:0.5;" x1="8" x2="1032" y1="687.6211" y2="687.6211"/><text fill="#000000" font-family="sans-serif" font-size="14" lengthAdjust="spacing" textLength="16" x="13" y="706.7285">-id</text><text fill="#000000" font-family="sans-serif" font-size="14" lengthAdjust="spacing" textLength="40" x="13" y="725.3496">-name</text><text fill="#000000" font-family="sans-serif" font-size="14" lengthAdjust="spacing" textLength="38" x="13" y="743.9707">-email</text><text fill="#000000" font-family="sans-serif" font-size="14" lengthAdjust="spacing" textLength="77" x="13" y="762.5918">-dateOfBirth</text><text fill="#000000" font-family="sans-serif" font-size="14" lengthAdjust="spacing" textLength="94" x="13" y="781.2129">-phoneNumber</text><text fill="#000000" font-family="sans-serif" font-size="14" lengthAdjust="spacing" textLength="98" x="13" y="799.834">-GDBRConsent</text><text fill="#000000" font-family="sans-serif" font-size="14" lengthAdjust="spacing" textLength="64" x="13" y="818.4551">+getName</text><text fill="#000000" font-family="sans-serif" font-size="14" lengthAdjust="spacing" textLength="62" x="13" y="837.0762">+getEmail</text><text fill="#000000" font-family="sans-serif" font-size="14" lengthAdjust="spacing" textLength="102" x="13" y="855.6973">+getDateOfBirth</text><text fill="#000000" font-family="sans-serif" font-size="14" lengthAdjust="spacing" textLength="118" x="13" y="874.3184">+getPhoneNumber</text><text fill="#000000" font-family="sans-serif" font-size="14" lengthAdjust="spacing" textLength="121" x="13" y="892.9395">+getGDBRConsent</text><text fill="#000000" font-family="sans-serif" font-size="14" lengthAdjust="spacing" textLength="63" x="13" y="911.5605">+setName</text><text fill="#000000" font-family="sans-serif" font-size="14" lengthAdjust="spacing" textLength="61" x="13" y="930.1816">+setEmail</text><text fill="#000000" font-family="sans-serif" font-size="14" lengthAdjust="spacing" textLength="101" x="13" y="948.8027">+setDateOfBirth</text><text fill="#000000" font-family="sans-serif" font-size="14" lengthAdjust="spacing" textLength="117" x="13" y="967.4238">+setPhoneNumber</text><text fill="#000000" font-family="sans-serif" font-size="14" lengthAdjust="spacing" textLength="120" x="13" y="986.0449">+setGDBRConsent</text><line style="stroke:#181818;stroke-width:0.5;" x1="8" x2="1032" y1="993.5586" y2="993.5586"/><text fill="#000000" font-family="sans-serif" font-size="14" lengthAdjust="spacing" textLength="86" x="13" y="1012.666">+getVersion()</text><text fill="#000000" font-family="sans-serif" font-size="14" lengthAdjust="spacing" textLength="1014" x="13" y="1031.2871">+updateData(final long desiredVersion, final String name, final String email, final LocalDate dateOfBirth, final Integer phoneNumber, final Boolean GDBRConsent)</text><text fill="#000000" font-family="sans-serif" font-size="14" lengthAdjust="spacing" textLength="411" x="13" y="1049.9082">Reader(name, email, dateOfBirth, phoneNumber, GDBRConsent)</text></g><!--class ReaderController--><g id="elem_ReaderController"><rect codeLine="28" fill="#F1F1F1" height="63.2422" id="ReaderController" rx="2.5" ry="2.5" style="stroke:#181818;stroke-width:0.5;" width="252" x="529" y="7"/><text fill="#000000" font-family="sans-serif" font-size="14" lengthAdjust="spacing" textLength="109" x="600.5" y="27.1074">ReaderController</text><line style="stroke:#181818;stroke-width:0.5;" x1="530" x2="780" y1="35.6211" y2="35.6211"/><line style="stroke:#181818;stroke-width:0.5;" x1="530" x2="780" y1="43.6211" y2="43.6211"/><text fill="#000000" font-family="sans-serif" font-size="14" lengthAdjust="spacing" textLength="240" x="535" y="62.7285">+updateReader(request, id, resource)</text></g><!--class ReaderServiceImpl--><g id="elem_ReaderServiceImpl"><rect codeLine="32" fill="#F1F1F1" height="81.8633" id="ReaderServiceImpl" rx="2.5" ry="2.5" style="stroke:#181818;stroke-width:0.5;" width="487" x="411.5" y="131"/><text fill="#000000" font-family="sans-serif" font-size="14" lengthAdjust="spacing" textLength="119" x="595.5" y="151.1074">ReaderServiceImpl</text><line style="stroke:#181818;stroke-width:0.5;" x1="412.5" x2="897.5" y1="159.6211" y2="159.6211"/><line style="stroke:#181818;stroke-width:0.5;" x1="412.5" x2="897.5" y1="167.6211" y2="167.6211"/><text fill="#000000" font-family="sans-serif" font-size="14" lengthAdjust="spacing" textLength="475" x="417.5" y="186.7285">+updateReader(id, resource, getVersionFromIfMatchHeader(ifMatchValue))</text><text fill="#000000" font-family="sans-serif" font-size="14" lengthAdjust="spacing" textLength="416" x="417.5" y="205.3496">+validateCreateReaderRequest(final EditReaderRequest request)</text></g><!--class ReaderViewMapper--><g id="elem_ReaderViewMapper"><rect codeLine="37" fill="#F1F1F1" height="63.2422" id="ReaderViewMapper" rx="2.5" ry="2.5" style="stroke:#181818;stroke-width:0.5;" width="160" x="934" y="140.5"/><text fill="#000000" font-family="sans-serif" font-size="14" lengthAdjust="spacing" textLength="124" x="952" y="160.6074">ReaderViewMapper</text><line style="stroke:#181818;stroke-width:0.5;" x1="935" x2="1093" y1="169.1211" y2="169.1211"/><line style="stroke:#181818;stroke-width:0.5;" x1="935" x2="1093" y1="177.1211" y2="177.1211"/><text fill="#000000" font-family="sans-serif" font-size="14" lengthAdjust="spacing" textLength="148" x="940" y="196.2285">+toReaderView(reader)</text></g><!--class EditReaderMapper--><g id="elem_EditReaderMapper"><rect codeLine="42" fill="#F1F1F1" height="63.2422" id="EditReaderMapper" rx="2.5" ry="2.5" style="stroke:#181818;stroke-width:0.5;" width="126" x="542" y="274"/><text fill="#000000" font-family="sans-serif" font-size="14" lengthAdjust="spacing" textLength="119" x="545.5" y="294.1074">EditReaderMapper</text><line style="stroke:#181818;stroke-width:0.5;" x1="543" x2="667" y1="302.6211" y2="302.6211"/><line style="stroke:#181818;stroke-width:0.5;" x1="543" x2="667" y1="310.6211" y2="310.6211"/><text fill="#000000" font-family="sans-serif" font-size="14" lengthAdjust="spacing" textLength="114" x="548" y="329.7285">+create(resource)</text></g><!--class ReaderRepository--><g id="elem_ReaderRepository"><rect codeLine="47" fill="#F1F1F1" height="63.2422" id="ReaderRepository" rx="2.5" ry="2.5" style="stroke:#181818;stroke-width:0.5;" width="121" x="670.5" y="367"/><text fill="#000000" font-family="sans-serif" font-size="14" lengthAdjust="spacing" textLength="115" x="673.5" y="387.1074">ReaderRepository</text><line style="stroke:#181818;stroke-width:0.5;" x1="671.5" x2="790.5" y1="395.6211" y2="395.6211"/><line style="stroke:#181818;stroke-width:0.5;" x1="671.5" x2="790.5" y1="403.6211" y2="403.6211"/><text fill="#000000" font-family="sans-serif" font-size="14" lengthAdjust="spacing" textLength="90" x="676.5" y="422.7285">+save(reader)</text></g><!--class EditReaderRequest--><g id="elem_EditReaderRequest"><rect codeLine="52" fill="#F1F1F1" height="137.7266" id="EditReaderRequest" rx="2.5" ry="2.5" style="stroke:#181818;stroke-width:0.5;" width="130" x="533" y="460"/><text fill="#000000" font-family="sans-serif" font-size="14" lengthAdjust="spacing" textLength="124" x="536" y="480.1074">EditReaderRequest</text><line style="stroke:#181818;stroke-width:0.5;" x1="534" x2="662" y1="488.6211" y2="488.6211"/><text fill="#000000" font-family="sans-serif" font-size="14" lengthAdjust="spacing" textLength="40" x="539" y="507.7285">-name</text><text fill="#000000" font-family="sans-serif" font-size="14" lengthAdjust="spacing" textLength="38" x="539" y="526.3496">-email</text><text fill="#000000" font-family="sans-serif" font-size="14" lengthAdjust="spacing" textLength="77" x="539" y="544.9707">-dateOfBirth</text><text fill="#000000" font-family="sans-serif" font-size="14" lengthAdjust="spacing" textLength="94" x="539" y="563.5918">-phoneNumber</text><text fill="#000000" font-family="sans-serif" font-size="14" lengthAdjust="spacing" textLength="98" x="539" y="582.2129">-GDBRConsent</text><line style="stroke:#181818;stroke-width:0.5;" x1="534" x2="662" y1="589.7266" y2="589.7266"/></g><!--link ReaderController to ReaderServiceImpl--><g id="link_ReaderController_ReaderServiceImpl"><path codeLine="61" d="M655,70.33 C655,88.4 655,105.42 655,124.89 " fill="none" id="ReaderController-to-ReaderServiceImpl" style="stroke:#181818;stroke-width:1.0;stroke-dasharray:7.0,7.0;"/><polygon fill="#181818" points="655,130.89,659,121.89,655,125.89,651,121.89,655,130.89" style="stroke:#181818;stroke-width:1.0;"/></g><!--link ReaderServiceImpl to EditReaderMapper--><g id="link_ReaderServiceImpl_EditReaderMapper"><path codeLine="62" d="M639.73,213.17 C632.32,232.66 625.6922,250.0816 618.8222,268.1516 " fill="none" id="ReaderServiceImpl-to-EditReaderMapper" style="stroke:#181818;stroke-width:1.0;stroke-dasharray:7.0,7.0;"/><polygon fill="#181818" points="616.69,273.76,623.6272,266.769,618.4669,269.0864,616.1494,263.926,616.69,273.76" style="stroke:#181818;stroke-width:1.0;"/></g><!--link ReaderServiceImpl to ReaderRepository--><g id="link_ReaderServiceImpl_ReaderRepository"><path codeLine="63" d="M668.59,213.14 C683.49,257.15 705.1457,321.1369 718.6557,361.0369 " fill="none" id="ReaderServiceImpl-to-ReaderRepository" style="stroke:#181818;stroke-width:1.0;stroke-dasharray:7.0,7.0;"/><polygon fill="#181818" points="720.58,366.72,721.4823,356.9126,718.9764,361.9841,713.9049,359.4782,720.58,366.72" style="stroke:#181818;stroke-width:1.0;"/></g><!--link ReaderController to ReaderViewMapper--><g id="link_ReaderController_ReaderViewMapper"><path codeLine="64" d="M745.7,70.04 C796.08,87.32 859.76,109.68 916,131 C923.9,134 926.554,134.9946 934.734,138.2446 " fill="none" id="ReaderController-to-ReaderViewMapper" style="stroke:#181818;stroke-width:1.0;stroke-dasharray:7.0,7.0;"/><polygon fill="#181818" points="940.31,140.46,933.4229,133.4195,935.6633,138.6138,930.469,140.8542,940.31,140.46" style="stroke:#181818;stroke-width:1.0;"/></g><!--link EditReaderMapper to EditReaderRequest--><g id="link_EditReaderMapper_EditReaderRequest"><path codeLine="65" d="M604.03,337.3 C603.03,368.8 601.6392,412.783 600.3492,453.673 " fill="none" id="EditReaderMapper-to-EditReaderRequest" style="stroke:#181818;stroke-width:1.0;stroke-dasharray:7.0,7.0;"/><polygon fill="#181818" points="600.16,459.67,604.4418,450.8006,600.3177,454.6725,596.4458,450.5483,600.16,459.67" style="stroke:#181818;stroke-width:1.0;"/></g><!--link ReaderController to Reader--><g id="link_ReaderController_Reader"><path codeLine="66" d="M528.61,47.2 C447.78,59.79 358,91.63 358,171 C358,171 358,171 358,530 C358,573.87 367.5145,612.4132 384.8145,653.3532 " fill="none" id="ReaderController-to-Reader" style="stroke:#181818;stroke-width:1.0;stroke-dasharray:7.0,7.0;"/><polygon fill="#181818" points="387.15,658.88,387.3313,649.0328,385.2038,654.2743,379.9623,652.1468,387.15,658.88" style="stroke:#181818;stroke-width:1.0;"/></g><!--link ReaderServiceImpl to Reader--><g id="link_ReaderServiceImpl_Reader"><path codeLine="67" d="M580.75,213.16 C558.6,229.04 536.83,249.43 524,274 C462.81,391.2 462.2702,534.637 477.1602,652.847 " fill="none" id="ReaderServiceImpl-to-Reader" style="stroke:#181818;stroke-width:1.0;stroke-dasharray:7.0,7.0;"/><polygon fill="#181818" points="477.91,658.8,480.7539,649.3707,477.2851,653.8392,472.8166,650.3705,477.91,658.8" style="stroke:#181818;stroke-width:1.0;"/></g><!--link EditReaderRequest to Reader--><g id="link_EditReaderRequest_Reader"><path codeLine="68" d="M581.74,598.15 C577.37,616.5 573.8036,631.4641 568.6336,653.1141 " fill="none" id="EditReaderRequest-to-Reader" style="stroke:#181818;stroke-width:1.0;stroke-dasharray:7.0,7.0;"/><polygon fill="#181818" points="567.24,658.95,573.221,651.1252,568.4013,654.0867,565.4398,649.2671,567.24,658.95" style="stroke:#181818;stroke-width:1.0;"/></g><!--link ReaderRepository to Reader--><g id="link_ReaderRepository_Reader"><path codeLine="69" d="M726.12,430.02 C719.09,469.8 704.25,541.03 680,598 C671.41,618.18 664.2287,633.3387 653.4887,653.4287 " fill="none" id="ReaderRepository-to-Reader" style="stroke:#181818;stroke-width:1.0;"/><polygon fill="#181818" points="650.66,658.72,658.4306,652.6688,653.0173,654.3105,651.3755,648.8972,650.66,658.72" style="stroke:#181818;stroke-width:1.0;"/><text fill="#000000" font-family="sans-serif" font-size="13" lengthAdjust="spacing" textLength="43" x="722" y="534.5283">records</text><text fill="#000000" font-family="sans-serif" font-size="13" lengthAdjust="spacing" textLength="7" x="717.3916" y="452.3075">1</text><text fill="#000000" font-family="sans-serif" font-size="13" lengthAdjust="spacing" textLength="20" x="635.3733" y="647.6294">0..*</text></g><!--SRC=[hLF1SjiW4Btp5OmlTHfRJgyvP2PEqiOpJTgnPtmdiBQO8Y20t6az_VSYX6oGD3v59tYx-zxoTlMfT4xRsyL22o9TNOc2gcf11R5spZZP6r8XL786c7931I3xYqjDF8n3qhrpXh_L3bPKoGt_2_W6eH31Qo0Cp15X_yqnP_4WIGNn21NX8fuPSV1Zj-J6bH7HfPBmMbTlO2BoxN6vVb3IWdG1kSPxS5imbYivlJf3hvr4k3sTLCBriISKm9yzhG0EvMp6RNDkEyPjnxZj67Uj6miy0vdkk2G22oNtc87b1bXyv0oteOqttGSRAtjGiBJ3lYjAHDDJwcuNN4a7Up2fpLregPG08bE_MtVRaKvRtIYLKMTaMVc_V2qyxemImdjop0o84WRUQx1kvlTcXWrOLHiA3KjAiW5pu1HMbHRZB6dnB5cMhqPLgzqBSRHyZfdjRKj43LVTAXs8u0tRWu4JvxfjBCxeYN6NuJWstczro-7t2z4wUQzJvv1_RtDCR3epzyfeQ6QQUf8fhK4hovqoVqubbXpWaaBi7Hq_zXVrIlrXuwAu6ndU00bv0ml6qmRFlY2QZA7FtfFiFBb0Th4VD5oDGUMvPppvCi7p-HsUt1J5vqbCk_NRH9LX5lq7]--></g></svg>