<?xml version="1.0" encoding="us-ascii" standalone="no"?><svg xmlns="http://www.w3.org/2000/svg" xmlns:xlink="http://www.w3.org/1999/xlink" contentStyleType="text/css" height="147px" preserveAspectRatio="none" style="width:746px;height:147px;background:#FFFFFF;" version="1.1" viewBox="0 0 746 147" width="746px" zoomAndPan="magnify"><defs/><g><!--class Reader--><g id="elem_Reader"><rect codeLine="6" fill="#F1F1F1" height="36.6211" id="Reader" rx="2.5" ry="2.5" style="stroke:#181818;stroke-width:0.5;" width="53" x="290" y="7"/><text fill="#000000" font-family="sans-serif" font-size="14" lengthAdjust="spacing" textLength="47" x="293" y="27.1074">Reader</text><line style="stroke:#181818;stroke-width:0.5;" x1="291" x2="342" y1="35.6211" y2="35.6211"/></g><!--class ReaderNumber--><g id="elem_ReaderNumber"><rect codeLine="7" fill="#F1F1F1" height="36.6211" id="ReaderNumber" rx="2.5" ry="2.5" style="stroke:#181818;stroke-width:0.5;" width="102" x="152.5" y="7"/><text fill="#000000" font-family="sans-serif" font-size="14" lengthAdjust="spacing" textLength="96" x="155.5" y="27.1074">ReaderNumber</text><line style="stroke:#181818;stroke-width:0.5;" x1="153.5" x2="253.5" y1="35.6211" y2="35.6211"/></g><!--class ReaderName--><g id="elem_ReaderName"><rect codeLine="8" fill="#F1F1F1" height="36.6211" id="ReaderName" rx="2.5" ry="2.5" style="stroke:#181818;stroke-width:0.5;" width="89" x="7" y="104"/><text fill="#000000" font-family="sans-serif" font-size="14" lengthAdjust="spacing" textLength="83" x="10" y="124.1074">ReaderName</text><line style="stroke:#181818;stroke-width:0.5;" x1="8" x2="95" y1="132.6211" y2="132.6211"/></g><!--class ReaderEmail--><g id="elem_ReaderEmail"><rect codeLine="9" fill="#F1F1F1" height="36.6211" id="ReaderEmail" rx="2.5" ry="2.5" style="stroke:#181818;stroke-width:0.5;" width="87" x="131" y="104"/><text fill="#000000" font-family="sans-serif" font-size="14" lengthAdjust="spacing" textLength="81" x="134" y="124.1074">ReaderEmail</text><line style="stroke:#181818;stroke-width:0.5;" x1="132" x2="217" y1="132.6211" y2="132.6211"/></g><!--class ReaderDateOfBirth--><g id="elem_ReaderDateOfBirth"><rect codeLine="10" fill="#F1F1F1" height="36.6211" id="ReaderDateOfBirth" rx="2.5" ry="2.5" style="stroke:#181818;stroke-width:0.5;" width="127" x="253" y="104"/><text fill="#000000" font-family="sans-serif" font-size="14" lengthAdjust="spacing" textLength="121" x="256" y="124.1074">ReaderDateOfBirth</text><line style="stroke:#181818;stroke-width:0.5;" x1="254" x2="379" y1="132.6211" y2="132.6211"/></g><!--class ReaderPhoneNumber--><g id="elem_ReaderPhoneNumber"><rect codeLine="11" fill="#F1F1F1" height="36.6211" id="ReaderPhoneNumber" rx="2.5" ry="2.5" style="stroke:#181818;stroke-width:0.5;" width="143" x="415" y="104"/><text fill="#000000" font-family="sans-serif" font-size="14" lengthAdjust="spacing" textLength="137" x="418" y="124.1074">ReaderPhoneNumber</text><line style="stroke:#181818;stroke-width:0.5;" x1="416" x2="557" y1="132.6211" y2="132.6211"/></g><!--class ReaderGDBRConsent--><g id="elem_ReaderGDBRConsent"><rect codeLine="12" fill="#F1F1F1" height="36.6211" id="ReaderGDBRConsent" rx="2.5" ry="2.5" style="stroke:#181818;stroke-width:0.5;" width="146" x="593.5" y="104"/><text fill="#000000" font-family="sans-serif" font-size="14" lengthAdjust="spacing" textLength="140" x="596.5" y="124.1074">ReaderGDBRConsent</text><line style="stroke:#181818;stroke-width:0.5;" x1="594.5" x2="738.5" y1="132.6211" y2="132.6211"/></g><!--link ReaderNumber to Reader--><g id="link_ReaderNumber_Reader"><path codeLine="15" d="M254.7,25.5 C266.45,25.5 266.2,25.5 277.95,25.5 " fill="none" id="ReaderNumber-to-Reader" style="stroke:#181818;stroke-width:1.0;"/><polygon fill="#181818" points="289.95,25.5,283.95,21.5,277.95,25.5,283.95,29.5,289.95,25.5" style="stroke:#181818;stroke-width:1.0;"/></g><!--reverse link Reader to ReaderName--><g id="link_Reader_ReaderName"><path codeLine="16" d="M278.7128,41.3513 C272.6828,43.6913 277.47,41.79 271.5,44 C211.12,66.37 140.88,90.85 96.32,106.19 " fill="none" id="Reader-backto-ReaderName" style="stroke:#181818;stroke-width:1.0;"/><polygon fill="#181818" points="289.9,37.01,282.8593,35.4516,278.7128,41.3513,285.7535,42.9097,289.9,37.01" style="stroke:#181818;stroke-width:1.0;"/></g><!--reverse link Reader to ReaderEmail--><g id="link_Reader_ReaderEmail"><path codeLine="17" d="M280.1462,50.8226 C254.6462,67.8826 226.19,86.92 200.74,103.95 " fill="none" id="Reader-backto-ReaderEmail" style="stroke:#181818;stroke-width:1.0;"/><polygon fill="#181818" points="290.12,44.15,282.9089,44.1617,280.1462,50.8226,287.3573,50.8109,290.12,44.15" style="stroke:#181818;stroke-width:1.0;"/></g><!--reverse link Reader to ReaderDateOfBirth--><g id="link_Reader_ReaderDateOfBirth"><path codeLine="18" d="M316.5,56.37 C316.5,73.35 316.5,86.75 316.5,103.71 " fill="none" id="Reader-backto-ReaderDateOfBirth" style="stroke:#181818;stroke-width:1.0;"/><polygon fill="#181818" points="316.5,44.37,312.5,50.37,316.5,56.37,320.5,50.37,316.5,44.37" style="stroke:#181818;stroke-width:1.0;"/></g><!--reverse link Reader to ReaderPhoneNumber--><g id="link_Reader_ReaderPhoneNumber"><path codeLine="19" d="M353.5353,47.1939 C383.7953,64.1039 422.72,85.86 454.92,103.85 " fill="none" id="Reader-backto-ReaderPhoneNumber" style="stroke:#181818;stroke-width:1.0;"/><polygon fill="#181818" points="343.06,41.34,346.3464,47.7587,353.5353,47.1939,350.2489,40.7752,343.06,41.34" style="stroke:#181818;stroke-width:1.0;"/></g><!--reverse link Reader to ReaderGDBRConsent--><g id="link_Reader_ReaderGDBRConsent"><path codeLine="20" d="M354.6711,36.8629 C409.3911,51.7129 524.36,82.92 601.94,103.98 " fill="none" id="Reader-backto-ReaderGDBRConsent" style="stroke:#181818;stroke-width:1.0;"/><polygon fill="#181818" points="343.09,33.72,347.8329,39.1518,354.6711,36.8629,349.9282,31.4311,343.09,33.72" style="stroke:#181818;stroke-width:1.0;"/></g><!--SRC=[ROux3i8m341tdo8pKYMk01GX5a3b16xgAXRveCHTGDmTL1ZIX2r-puvUkh6_OqIdjCMKDYAH-qdeg8E_yeFK6WmFf3H7RUdxTYGc30a0vXlL4GuKrVErc4-JwocM41sLYtk7R0lMej1vt78KKvYB2Px-_drejzqk-4HUFWRWbxLgciRIA8kiJ6PbDPtRQfpbrJ8hh6KM2My0]--></g></svg>