<?xml version="1.0" encoding="us-ascii" standalone="no"?><svg xmlns="http://www.w3.org/2000/svg" xmlns:xlink="http://www.w3.org/1999/xlink" contentStyleType="text/css" height="434px" preserveAspectRatio="none" style="width:1052px;height:434px;background:#FFFFFF;" version="1.1" viewBox="0 0 1052 434" width="1052px" zoomAndPan="magnify"><defs/><g><rect fill="#FFFFFF" height="339.2402" style="stroke:#181818;stroke-width:1.0;" width="10" x="73" y="48.6211"/><rect fill="#FFFFFF" height="315.9492" style="stroke:#181818;stroke-width:1.0;" width="10" x="271" y="71.9121"/><rect fill="#FFFFFF" height="36.291" style="stroke:#181818;stroke-width:1.0;" width="10" x="276" y="342.5703"/><rect fill="#FFFFFF" height="200.0762" style="stroke:#181818;stroke-width:1.0;" width="10" x="467" y="103.2031"/><rect fill="#FFFFFF" height="93.873" style="stroke:#181818;stroke-width:1.0;" width="10" x="663" y="134.4941"/><rect fill="#FFFFFF" height="31.291" style="stroke:#181818;stroke-width:1.0;" width="10" x="832.5" y="165.7852"/><line style="stroke:#181818;stroke-width:0.5;stroke-dasharray:5.0,5.0;" x1="78" x2="78" y1="38.6211" y2="396.8613"/><line style="stroke:#181818;stroke-width:0.5;stroke-dasharray:5.0,5.0;" x1="275.5" x2="275.5" y1="38.6211" y2="396.8613"/><line style="stroke:#181818;stroke-width:0.5;stroke-dasharray:5.0,5.0;" x1="471.5" x2="471.5" y1="38.6211" y2="396.8613"/><line style="stroke:#181818;stroke-width:0.5;stroke-dasharray:5.0,5.0;" x1="667.5" x2="667.5" y1="38.6211" y2="396.8613"/><line style="stroke:#181818;stroke-width:0.5;stroke-dasharray:5.0,5.0;" x1="837.5" x2="837.5" y1="38.6211" y2="396.8613"/><line style="stroke:#181818;stroke-width:0.5;stroke-dasharray:5.0,5.0;" x1="987.5" x2="987.5" y1="268.1777" y2="396.8613"/><rect fill="#E2E2F0" height="32.6211" rx="2.5" ry="2.5" style="stroke:#181818;stroke-width:0.5;" width="146" x="5" y="5"/><text fill="#000000" font-family="sans-serif" font-size="14" lengthAdjust="spacing" textLength="132" x="12" y="27.1074">Librarian:HTTPClient</text><rect fill="#E2E2F0" height="32.6211" rx="2.5" ry="2.5" style="stroke:#181818;stroke-width:0.5;" width="146" x="5" y="395.8613"/><text fill="#000000" font-family="sans-serif" font-size="14" lengthAdjust="spacing" textLength="132" x="12" y="417.9688">Librarian:HTTPClient</text><rect fill="#E2E2F0" height="32.6211" rx="2.5" ry="2.5" style="stroke:#181818;stroke-width:0.5;" width="153" x="199.5" y="5"/><text fill="#000000" font-family="sans-serif" font-size="14" lengthAdjust="spacing" textLength="139" x="206.5" y="27.1074">handler:RouteHandler</text><rect fill="#E2E2F0" height="32.6211" rx="2.5" ry="2.5" style="stroke:#181818;stroke-width:0.5;" width="153" x="199.5" y="395.8613"/><text fill="#000000" font-family="sans-serif" font-size="14" lengthAdjust="spacing" textLength="139" x="206.5" y="417.9688">handler:RouteHandler</text><rect fill="#E2E2F0" height="32.6211" rx="2.5" ry="2.5" style="stroke:#181818;stroke-width:0.5;" width="127" x="408.5" y="5"/><text fill="#000000" font-family="sans-serif" font-size="14" lengthAdjust="spacing" textLength="113" x="415.5" y="27.1074">:ReaderController</text><rect fill="#E2E2F0" height="32.6211" rx="2.5" ry="2.5" style="stroke:#181818;stroke-width:0.5;" width="127" x="408.5" y="395.8613"/><text fill="#000000" font-family="sans-serif" font-size="14" lengthAdjust="spacing" textLength="113" x="415.5" y="417.9688">:ReaderController</text><rect fill="#E2E2F0" height="32.6211" rx="2.5" ry="2.5" style="stroke:#181818;stroke-width:0.5;" width="157" x="589.5" y="5"/><text fill="#000000" font-family="sans-serif" font-size="14" lengthAdjust="spacing" textLength="143" x="596.5" y="27.1074">service:ReaderService</text><rect fill="#E2E2F0" height="32.6211" rx="2.5" ry="2.5" style="stroke:#181818;stroke-width:0.5;" width="157" x="589.5" y="395.8613"/><text fill="#000000" font-family="sans-serif" font-size="14" lengthAdjust="spacing" textLength="143" x="596.5" y="417.9688">service:ReaderService</text><rect fill="#E2E2F0" height="32.6211" rx="2.5" ry="2.5" style="stroke:#181818;stroke-width:0.5;" width="162" x="756.5" y="5"/><text fill="#000000" font-family="sans-serif" font-size="14" lengthAdjust="spacing" textLength="148" x="763.5" y="27.1074">repo:ReaderRepository</text><rect fill="#E2E2F0" height="32.6211" rx="2.5" ry="2.5" style="stroke:#181818;stroke-width:0.5;" width="162" x="756.5" y="395.8613"/><text fill="#000000" font-family="sans-serif" font-size="14" lengthAdjust="spacing" textLength="148" x="763.5" y="417.9688">repo:ReaderRepository</text><rect fill="#E2E2F0" height="32.6211" rx="2.5" ry="2.5" style="stroke:#181818;stroke-width:0.5;" width="118" x="928.5" y="395.8613"/><text fill="#000000" font-family="sans-serif" font-size="14" lengthAdjust="spacing" textLength="104" x="935.5" y="417.9688">result:HttpResult</text><rect fill="#FFFFFF" height="339.2402" style="stroke:#181818;stroke-width:1.0;" width="10" x="73" y="48.6211"/><rect fill="#FFFFFF" height="315.9492" style="stroke:#181818;stroke-width:1.0;" width="10" x="271" y="71.9121"/><rect fill="#FFFFFF" height="36.291" style="stroke:#181818;stroke-width:1.0;" width="10" x="276" y="342.5703"/><rect fill="#FFFFFF" height="200.0762" style="stroke:#181818;stroke-width:1.0;" width="10" x="467" y="103.2031"/><rect fill="#FFFFFF" height="93.873" style="stroke:#181818;stroke-width:1.0;" width="10" x="663" y="134.4941"/><rect fill="#FFFFFF" height="31.291" style="stroke:#181818;stroke-width:1.0;" width="10" x="832.5" y="165.7852"/><polygon fill="#181818" points="259,67.9121,269,71.9121,259,75.9121,263,71.9121" style="stroke:#181818;stroke-width:1.0;"/><line style="stroke:#181818;stroke-width:1.0;" x1="83" x2="265" y1="71.9121" y2="71.9121"/><text fill="#000000" font-family="sans-serif" font-size="13" font-weight="bold" lengthAdjust="spacing" textLength="7" x="90" y="66.6494">1</text><text fill="#000000" font-family="sans-serif" font-size="13" lengthAdjust="spacing" textLength="158" x="101" y="66.6494">GET/Readers/name/{name}</text><polygon fill="#181818" points="455,99.2031,465,103.2031,455,107.2031,459,103.2031" style="stroke:#181818;stroke-width:1.0;"/><line style="stroke:#181818;stroke-width:1.0;" x1="281" x2="461" y1="103.2031" y2="103.2031"/><text fill="#000000" font-family="sans-serif" font-size="13" font-weight="bold" lengthAdjust="spacing" textLength="7" x="288" y="97.9404">2</text><text fill="#000000" font-family="sans-serif" font-size="13" lengthAdjust="spacing" textLength="156" x="299" y="97.9404">getReadersByName(name)</text><polygon fill="#181818" points="651,130.4941,661,134.4941,651,138.4941,655,134.4941" style="stroke:#181818;stroke-width:1.0;"/><line style="stroke:#181818;stroke-width:1.0;" x1="477" x2="657" y1="134.4941" y2="134.4941"/><text fill="#000000" font-family="sans-serif" font-size="13" font-weight="bold" lengthAdjust="spacing" textLength="7" x="484" y="129.2314">3</text><text fill="#000000" font-family="sans-serif" font-size="13" lengthAdjust="spacing" textLength="156" x="495" y="129.2314">getReadersByName(name)</text><polygon fill="#181818" points="820.5,161.7852,830.5,165.7852,820.5,169.7852,824.5,165.7852" style="stroke:#181818;stroke-width:1.0;"/><line style="stroke:#181818;stroke-width:1.0;" x1="673" x2="826.5" y1="165.7852" y2="165.7852"/><text fill="#000000" font-family="sans-serif" font-size="13" font-weight="bold" lengthAdjust="spacing" textLength="7" x="680" y="160.5225">4</text><text fill="#000000" font-family="sans-serif" font-size="13" lengthAdjust="spacing" textLength="43" x="691" y="160.5225">findAll()</text><polygon fill="#181818" points="684,193.0762,674,197.0762,684,201.0762,680,197.0762" style="stroke:#181818;stroke-width:1.0;"/><line style="stroke:#181818;stroke-width:1.0;stroke-dasharray:2.0,2.0;" x1="678" x2="836.5" y1="197.0762" y2="197.0762"/><text fill="#000000" font-family="sans-serif" font-size="13" font-weight="bold" lengthAdjust="spacing" textLength="7" x="690" y="191.8135">5</text><text fill="#000000" font-family="sans-serif" font-size="13" lengthAdjust="spacing" textLength="78" x="701" y="191.8135">List&lt;Reader&gt;</text><polygon fill="#181818" points="488,224.3672,478,228.3672,488,232.3672,484,228.3672" style="stroke:#181818;stroke-width:1.0;"/><line style="stroke:#181818;stroke-width:1.0;stroke-dasharray:2.0,2.0;" x1="482" x2="667" y1="228.3672" y2="228.3672"/><text fill="#000000" font-family="sans-serif" font-size="13" font-weight="bold" lengthAdjust="spacing" textLength="7" x="494" y="223.1045">6</text><text fill="#000000" font-family="sans-serif" font-size="13" lengthAdjust="spacing" textLength="78" x="505" y="223.1045">List&lt;Reader&gt;</text><polygon fill="#181818" points="916.5,255.6582,926.5,259.6582,916.5,263.6582,920.5,259.6582" style="stroke:#181818;stroke-width:1.0;"/><line style="stroke:#181818;stroke-width:1.0;stroke-dasharray:2.0,2.0;" x1="477" x2="922.5" y1="259.6582" y2="259.6582"/><text fill="#000000" font-family="sans-serif" font-size="13" font-weight="bold" lengthAdjust="spacing" textLength="7" x="484" y="254.3955">7</text><text fill="#000000" font-family="sans-serif" font-size="13" lengthAdjust="spacing" textLength="65" x="495" y="254.3955">create(200)</text><rect fill="#E2E2F0" height="32.6211" rx="2.5" ry="2.5" style="stroke:#181818;stroke-width:0.5;" width="118" x="928.5" y="236.3672"/><text fill="#000000" font-family="sans-serif" font-size="14" lengthAdjust="spacing" textLength="104" x="935.5" y="258.4746">result:HttpResult</text><polygon fill="#181818" points="292,299.2793,282,303.2793,292,307.2793,288,303.2793" style="stroke:#181818;stroke-width:1.0;"/><line style="stroke:#181818;stroke-width:1.0;stroke-dasharray:2.0,2.0;" x1="286" x2="471" y1="303.2793" y2="303.2793"/><text fill="#000000" font-family="sans-serif" font-size="13" font-weight="bold" lengthAdjust="spacing" textLength="7" x="298" y="298.0166">8</text><text fill="#000000" font-family="sans-serif" font-size="13" lengthAdjust="spacing" textLength="32" x="309" y="298.0166">result</text><line style="stroke:#181818;stroke-width:1.0;" x1="281" x2="328" y1="329.5703" y2="329.5703"/><line style="stroke:#181818;stroke-width:1.0;" x1="328" x2="328" y1="329.5703" y2="342.5703"/><line style="stroke:#181818;stroke-width:1.0;" x1="287" x2="328" y1="342.5703" y2="342.5703"/><polygon fill="#181818" points="297,338.5703,287,342.5703,297,346.5703,293,342.5703" style="stroke:#181818;stroke-width:1.0;"/><text fill="#000000" font-family="sans-serif" font-size="13" font-weight="bold" lengthAdjust="spacing" textLength="7" x="293" y="324.3076">9</text><text fill="#000000" font-family="sans-serif" font-size="13" lengthAdjust="spacing" textLength="152" x="304" y="324.3076">setHttpResult(resp, result)</text><polygon fill="#181818" points="94,374.8613,84,378.8613,94,382.8613,90,378.8613" style="stroke:#181818;stroke-width:1.0;"/><line style="stroke:#181818;stroke-width:1.0;stroke-dasharray:2.0,2.0;" x1="88" x2="270" y1="378.8613" y2="378.8613"/><text fill="#000000" font-family="sans-serif" font-size="13" font-weight="bold" lengthAdjust="spacing" textLength="14" x="100" y="373.5986">10</text><text fill="#000000" font-family="sans-serif" font-size="13" lengthAdjust="spacing" textLength="25" x="118" y="373.5986">resp</text><!--SRC=[TP3DQiCm48JlUWgHI-tGrA57KG9jACqXbEBa1HHxcmXaIPNMWL3wxjMVuxZGYzbblXrhvkw4Q1ohAYEvmhwJ3utkAWTVFQW65gtWHyixGdYFcZSepXo1QXLtrNS7i8GORb4qmdW3EjkAW-LMSCKs-_t7MWfGEAFSqN6T7fouQYLOLkiUOPEMUB2xE8Hk2hCQU0jshHLQBGToZLPEEGVsB1h8-2vjoJNDKzo2qPcj_UW4Qdk9U5Z_igwNo3Q-jpgEcGkZxsdew2Ok6MUwMELSZBwzxglqJrSfta7r7Ru_9Ec13BaOFG9cxENoxeaYO2K9OhJBKV_ZiXxG48RHJw7QPocBaeITBcuzjiBXKt9PZPVNfqpaz81e6xBFvums5dpsud6vB4Tvo9kAkuat20vmRBFmcBdFS7cbFJws6BqC-GK0]--></g></svg>