<?xml version="1.0" encoding="us-ascii" standalone="no"?><svg xmlns="http://www.w3.org/2000/svg" xmlns:xlink="http://www.w3.org/1999/xlink" contentStyleType="text/css" height="578px" preserveAspectRatio="none" style="width:335px;height:578px;background:#FFFFFF;" version="1.1" viewBox="0 0 335 578" width="335px" zoomAndPan="magnify"><defs/><g><!--class Reader--><g id="elem_Reader"><rect codeLine="6" fill="#F1F1F1" height="174.9688" id="Reader" rx="2.5" ry="2.5" style="stroke:#181818;stroke-width:0.5;" width="110" x="98.5" y="397"/><text fill="#000000" font-family="sans-serif" font-size="14" lengthAdjust="spacing" textLength="47" x="130" y="417.1074">Reader</text><line style="stroke:#181818;stroke-width:0.5;" x1="99.5" x2="207.5" y1="425.6211" y2="425.6211"/><text fill="#000000" font-family="sans-serif" font-size="14" lengthAdjust="spacing" textLength="16" x="104.5" y="444.7285">-id</text><text fill="#000000" font-family="sans-serif" font-size="14" lengthAdjust="spacing" textLength="40" x="104.5" y="463.3496">-name</text><text fill="#000000" font-family="sans-serif" font-size="14" lengthAdjust="spacing" textLength="38" x="104.5" y="481.9707">-email</text><text fill="#000000" font-family="sans-serif" font-size="14" lengthAdjust="spacing" textLength="77" x="104.5" y="500.5918">-dateOfBirth</text><text fill="#000000" font-family="sans-serif" font-size="14" lengthAdjust="spacing" textLength="94" x="104.5" y="519.2129">-phoneNumber</text><text fill="#000000" font-family="sans-serif" font-size="14" lengthAdjust="spacing" textLength="98" x="104.5" y="537.834">-GDBRConsent</text><line style="stroke:#181818;stroke-width:0.5;" x1="99.5" x2="207.5" y1="545.3477" y2="545.3477"/><text fill="#000000" font-family="sans-serif" font-size="14" lengthAdjust="spacing" textLength="74" x="104.5" y="564.4551">+getName()</text></g><!--class ReaderController--><g id="elem_ReaderController"><rect codeLine="16" fill="#F1F1F1" height="63.2422" id="ReaderController" rx="2.5" ry="2.5" style="stroke:#181818;stroke-width:0.5;" width="191" x="7" y="7"/><text fill="#000000" font-family="sans-serif" font-size="14" lengthAdjust="spacing" textLength="109" x="48" y="27.1074">ReaderController</text><line style="stroke:#181818;stroke-width:0.5;" x1="8" x2="197" y1="35.6211" y2="35.6211"/><line style="stroke:#181818;stroke-width:0.5;" x1="8" x2="197" y1="43.6211" y2="43.6211"/><text fill="#000000" font-family="sans-serif" font-size="14" lengthAdjust="spacing" textLength="179" x="13" y="62.7285">+getReadersByName(name)</text></g><!--class ReaderServiceImpl--><g id="elem_ReaderServiceImpl"><rect codeLine="20" fill="#F1F1F1" height="63.2422" id="ReaderServiceImpl" rx="2.5" ry="2.5" style="stroke:#181818;stroke-width:0.5;" width="191" x="136" y="131"/><text fill="#000000" font-family="sans-serif" font-size="14" lengthAdjust="spacing" textLength="119" x="172" y="151.1074">ReaderServiceImpl</text><line style="stroke:#181818;stroke-width:0.5;" x1="137" x2="326" y1="159.6211" y2="159.6211"/><line style="stroke:#181818;stroke-width:0.5;" x1="137" x2="326" y1="167.6211" y2="167.6211"/><text fill="#000000" font-family="sans-serif" font-size="14" lengthAdjust="spacing" textLength="179" x="142" y="186.7285">+getReadersByName(name)</text></g><!--class ReaderRepository--><g id="elem_ReaderRepository"><rect codeLine="25" fill="#F1F1F1" height="63.2422" id="ReaderRepository" rx="2.5" ry="2.5" style="stroke:#181818;stroke-width:0.5;" width="121" x="207" y="255"/><text fill="#000000" font-family="sans-serif" font-size="14" lengthAdjust="spacing" textLength="115" x="210" y="275.1074">ReaderRepository</text><line style="stroke:#181818;stroke-width:0.5;" x1="208" x2="327" y1="283.6211" y2="283.6211"/><line style="stroke:#181818;stroke-width:0.5;" x1="208" x2="327" y1="291.6211" y2="291.6211"/><text fill="#000000" font-family="sans-serif" font-size="14" lengthAdjust="spacing" textLength="56" x="213" y="310.7285">+findAll()</text></g><!--link ReaderController to ReaderServiceImpl--><g id="link_ReaderController_ReaderServiceImpl"><path codeLine="31" d="M135.05,70.29 C154.61,88.78 175.0398,108.1083 194.5998,126.5983 " fill="none" id="ReaderController-to-ReaderServiceImpl" style="stroke:#181818;stroke-width:1.0;stroke-dasharray:7.0,7.0;"/><polygon fill="#181818" points="198.96,130.72,195.1675,121.6306,195.3265,127.2852,189.6719,127.4443,198.96,130.72" style="stroke:#181818;stroke-width:1.0;"/></g><!--link ReaderServiceImpl to ReaderRepository--><g id="link_ReaderServiceImpl_ReaderRepository"><path codeLine="32" d="M240.58,194.29 C246.04,212.78 251.2608,230.4756 256.7208,248.9656 " fill="none" id="ReaderServiceImpl-to-ReaderRepository" style="stroke:#181818;stroke-width:1.0;stroke-dasharray:7.0,7.0;"/><polygon fill="#181818" points="258.42,254.72,259.7074,244.9556,257.004,249.9247,252.0349,247.2213,258.42,254.72" style="stroke:#181818;stroke-width:1.0;"/></g><!--link ReaderController to Reader--><g id="link_ReaderController_Reader"><path codeLine="33" d="M105.5,70 C108.61,101.18 113.67,150.99 118.5,194 C126.15,262.17 134.7736,333.3254 141.8836,390.8154 " fill="none" id="ReaderController-to-Reader" style="stroke:#181818;stroke-width:1.0;stroke-dasharray:7.0,7.0;"/><polygon fill="#181818" points="142.62,396.77,145.4851,387.3471,142.0063,391.8078,137.5456,388.329,142.62,396.77" style="stroke:#181818;stroke-width:1.0;"/></g><!--link ReaderServiceImpl to Reader--><g id="link_ReaderServiceImpl_Reader"><path codeLine="34" d="M214.93,194.01 C206.14,211.42 195.87,233.92 189.5,255 C175.65,300.85 167.6449,347.6064 162.2349,390.8464 " fill="none" id="ReaderServiceImpl-to-Reader" style="stroke:#181818;stroke-width:1.0;stroke-dasharray:7.0,7.0;"/><polygon fill="#181818" points="161.49,396.8,166.5764,388.3662,162.1107,391.8387,158.6383,387.373,161.49,396.8" style="stroke:#181818;stroke-width:1.0;"/></g><!--link ReaderRepository to Reader--><g id="link_ReaderRepository_Reader"><path codeLine="35" d="M249.69,318.12 C237.35,339.34 223.2867,363.5235 206.9367,391.6335 " fill="none" id="ReaderRepository-to-Reader" style="stroke:#181818;stroke-width:1.0;"/><polygon fill="#181818" points="203.92,396.82,211.9027,391.0514,206.4339,392.4979,204.9874,387.0292,203.92,396.82" style="stroke:#181818;stroke-width:1.0;"/><text fill="#000000" font-family="sans-serif" font-size="13" lengthAdjust="spacing" textLength="53" x="232.5" y="363.0283">searches</text><text fill="#000000" font-family="sans-serif" font-size="13" lengthAdjust="spacing" textLength="7" x="238.2948" y="340.4281">1</text><text fill="#000000" font-family="sans-serif" font-size="13" lengthAdjust="spacing" textLength="20" x="187.3936" y="385.5967">1..*</text></g><!--SRC=[XOxDRi8m48JlVWehb_ufINlbW4H0ghXGAJo1iHUoglzaRofHr7Ul2LORQ0M-U3KxtypUTKG-JkhQQs6fDxgIpjHIYnXBXM8NX66iGmLSOf0QM7n7wqMI-M2Q4GNSz0HBwUmQFu4_CpPiU0j2GJWmdbx9KUN12WDv12DGvra9WhTjWu6whFZEMLZrPWCXAw-Bffqx6y7Ie3pn7T0gvTq_iA_pscIZuBHExE7NUzh5PZz0nqkEu9XRG_X02KlZzMtmZ6p1kuZamlu7tA9LCwrFrx7BmtXLJVzf_QECVAEEAsbN8zXb4YzU2bwMq_HNrMEHRHCUGGJPGMJV]--></g></svg>