<?xml version="1.0" encoding="us-ascii" standalone="no"?><svg xmlns="http://www.w3.org/2000/svg" xmlns:xlink="http://www.w3.org/1999/xlink" contentStyleType="text/css" height="264px" preserveAspectRatio="none" style="width:884px;height:264px;background:#FFFFFF;" version="1.1" viewBox="0 0 884 264" width="884px" zoomAndPan="magnify"><defs/><g><!--class Librarian--><g id="elem_Librarian"><rect codeLine="6" fill="#F1F1F1" height="36.6211" id="Librarian" rx="2.5" ry="2.5" style="stroke:#181818;stroke-width:0.5;" width="62" x="352" y="7"/><text fill="#000000" font-family="sans-serif" font-size="14" lengthAdjust="spacing" textLength="56" x="355" y="27.1074">Librarian</text><line style="stroke:#181818;stroke-width:0.5;" x1="353" x2="413" y1="35.6211" y2="35.6211"/></g><!--class Reader--><g id="elem_Reader"><rect codeLine="8" fill="#F1F1F1" height="36.6211" id="Reader" rx="2.5" ry="2.5" style="stroke:#181818;stroke-width:0.5;" width="53" x="356.5" y="123"/><text fill="#000000" font-family="sans-serif" font-size="14" lengthAdjust="spacing" textLength="47" x="359.5" y="143.1074">Reader</text><line style="stroke:#181818;stroke-width:0.5;" x1="357.5" x2="408.5" y1="151.6211" y2="151.6211"/></g><!--class ReaderNumber--><g id="elem_ReaderNumber"><rect codeLine="9" fill="#F1F1F1" height="36.6211" id="ReaderNumber" rx="2.5" ry="2.5" style="stroke:#181818;stroke-width:0.5;" width="102" x="7" y="221"/><text fill="#000000" font-family="sans-serif" font-size="14" lengthAdjust="spacing" textLength="96" x="10" y="241.1074">ReaderNumber</text><line style="stroke:#181818;stroke-width:0.5;" x1="8" x2="108" y1="249.6211" y2="249.6211"/></g><!--class ReaderName--><g id="elem_ReaderName"><rect codeLine="10" fill="#F1F1F1" height="36.6211" id="ReaderName" rx="2.5" ry="2.5" style="stroke:#181818;stroke-width:0.5;" width="89" x="144.5" y="221"/><text fill="#000000" font-family="sans-serif" font-size="14" lengthAdjust="spacing" textLength="83" x="147.5" y="241.1074">ReaderName</text><line style="stroke:#181818;stroke-width:0.5;" x1="145.5" x2="232.5" y1="249.6211" y2="249.6211"/></g><!--class ReaderEmail--><g id="elem_ReaderEmail"><rect codeLine="11" fill="#F1F1F1" height="36.6211" id="ReaderEmail" rx="2.5" ry="2.5" style="stroke:#181818;stroke-width:0.5;" width="87" x="268.5" y="221"/><text fill="#000000" font-family="sans-serif" font-size="14" lengthAdjust="spacing" textLength="81" x="271.5" y="241.1074">ReaderEmail</text><line style="stroke:#181818;stroke-width:0.5;" x1="269.5" x2="354.5" y1="249.6211" y2="249.6211"/></g><!--class ReaderDateOfBirth--><g id="elem_ReaderDateOfBirth"><rect codeLine="12" fill="#F1F1F1" height="36.6211" id="ReaderDateOfBirth" rx="2.5" ry="2.5" style="stroke:#181818;stroke-width:0.5;" width="127" x="390.5" y="221"/><text fill="#000000" font-family="sans-serif" font-size="14" lengthAdjust="spacing" textLength="121" x="393.5" y="241.1074">ReaderDateOfBirth</text><line style="stroke:#181818;stroke-width:0.5;" x1="391.5" x2="516.5" y1="249.6211" y2="249.6211"/></g><!--class ReaderPhoneNumber--><g id="elem_ReaderPhoneNumber"><rect codeLine="13" fill="#F1F1F1" height="36.6211" id="ReaderPhoneNumber" rx="2.5" ry="2.5" style="stroke:#181818;stroke-width:0.5;" width="143" x="552.5" y="221"/><text fill="#000000" font-family="sans-serif" font-size="14" lengthAdjust="spacing" textLength="137" x="555.5" y="241.1074">ReaderPhoneNumber</text><line style="stroke:#181818;stroke-width:0.5;" x1="553.5" x2="694.5" y1="249.6211" y2="249.6211"/></g><!--class ReaderGDBRConsent--><g id="elem_ReaderGDBRConsent"><rect codeLine="14" fill="#F1F1F1" height="36.6211" id="ReaderGDBRConsent" rx="2.5" ry="2.5" style="stroke:#181818;stroke-width:0.5;" width="146" x="731" y="221"/><text fill="#000000" font-family="sans-serif" font-size="14" lengthAdjust="spacing" textLength="140" x="734" y="241.1074">ReaderGDBRConsent</text><line style="stroke:#181818;stroke-width:0.5;" x1="732" x2="876" y1="249.6211" y2="249.6211"/></g><!--reverse link Reader to ReaderNumber--><g id="link_Reader_ReaderNumber"><path codeLine="17" d="M344.8915,153.759 C290.9215,169.699 179.25,202.68 109.19,223.38 " fill="none" id="Reader-backto-ReaderNumber" style="stroke:#181818;stroke-width:1.0;"/><polygon fill="#181818" points="356.4,150.36,349.5127,148.2233,344.8915,153.759,351.7787,155.8957,356.4,150.36" style="stroke:#181818;stroke-width:1.0;"/></g><!--reverse link Reader to ReaderName--><g id="link_Reader_ReaderName"><path codeLine="18" d="M345.6744,160.9713 C311.4344,177.9113 262.53,202.11 224.45,220.96 " fill="none" id="Reader-backto-ReaderName" style="stroke:#181818;stroke-width:1.0;"/><polygon fill="#181818" points="356.43,155.65,349.2784,154.7254,345.6744,160.9713,352.8259,161.8959,356.43,155.65" style="stroke:#181818;stroke-width:1.0;"/></g><!--reverse link Reader to ReaderEmail--><g id="link_Reader_ReaderEmail"><path codeLine="19" d="M362.8438,169.7576 C350.1138,186.9676 337.96,203.39 325.18,220.68 " fill="none" id="Reader-backto-ReaderEmail" style="stroke:#181818;stroke-width:1.0;"/><polygon fill="#181818" points="369.98,160.11,363.1961,162.5551,362.8438,169.7576,369.6278,167.3125,369.98,160.11" style="stroke:#181818;stroke-width:1.0;"/></g><!--reverse link Reader to ReaderDateOfBirth--><g id="link_Reader_ReaderDateOfBirth"><path codeLine="20" d="M403.1562,169.7576 C415.8862,186.9676 428.04,203.39 440.82,220.68 " fill="none" id="Reader-backto-ReaderDateOfBirth" style="stroke:#181818;stroke-width:1.0;"/><polygon fill="#181818" points="396.02,160.11,396.3722,167.3125,403.1562,169.7576,402.8039,162.5551,396.02,160.11" style="stroke:#181818;stroke-width:1.0;"/></g><!--reverse link Reader to ReaderPhoneNumber--><g id="link_Reader_ReaderPhoneNumber"><path codeLine="21" d="M420.8584,157.5799 C462.0384,173.9799 530.31,201.18 580.04,220.99 " fill="none" id="Reader-backto-ReaderPhoneNumber" style="stroke:#181818;stroke-width:1.0;"/><polygon fill="#181818" points="409.71,153.14,413.8043,159.0761,420.8584,157.5799,416.7642,151.6438,409.71,153.14" style="stroke:#181818;stroke-width:1.0;"/></g><!--reverse link Reader to ReaderGDBRConsent--><g id="link_Reader_ReaderGDBRConsent"><path codeLine="22" d="M421.3496,151.248 C484.8896,165.738 635.35,200.04 730.77,221.8 " fill="none" id="Reader-backto-ReaderGDBRConsent" style="stroke:#181818;stroke-width:1.0;"/><polygon fill="#181818" points="409.65,148.58,414.6105,153.8139,421.3496,151.248,416.3892,146.0141,409.65,148.58" style="stroke:#181818;stroke-width:1.0;"/></g><!--link Librarian to Reader--><g id="link_Librarian_Reader"><path codeLine="23" d="M383,44.31 C383,65.73 383,101.45 383,122.81 " fill="none" id="Librarian-Reader" style="stroke:#181818;stroke-width:1.0;"/><polygon fill="#000000" points="388,88.6455,390.9389,79.6004,385.0611,79.6004,388,88.6455" style="stroke:#000000;stroke-width:1.0;"/><text fill="#000000" font-family="sans-serif" font-size="13" lengthAdjust="spacing" textLength="64" x="397" y="89.0283">searchs for</text><text fill="#000000" font-family="sans-serif" font-size="13" lengthAdjust="spacing" textLength="7" x="375.0594" y="65.7679">1</text><text fill="#000000" font-family="sans-serif" font-size="13" lengthAdjust="spacing" textLength="20" x="359.9375" y="111.614">1..*</text></g><!--SRC=[RP11QiCm44NtEiNWfS6ctcPHIEeI0Y4jwGd6yWGDiQGmKYYqvEvfxBHLhSvA_tsDU2WSsPrGq88UC8HbZCBTET96U_V67mGFod1Fe5dqGDFPKZI-3qgfSGUst0aAe_kyVACzOK_obTEuEzikXsW9PkpP8WyprcAabyEA9PfPysgyet_VNhUh_PDtWLoygQc9Gbdr_jrLVwn-koeHo-cebkF4BYyJmRnC7DNFHqBH572tB9gwBelxxGK4Gj4cmC4BFAffhW00]--></g></svg>