<?xml version="1.0" encoding="us-ascii" standalone="no"?><svg xmlns="http://www.w3.org/2000/svg" xmlns:xlink="http://www.w3.org/1999/xlink" contentStyleType="text/css" height="526px" preserveAspectRatio="none" style="width:544px;height:526px;background:#FFFFFF;" version="1.1" viewBox="0 0 544 526" width="544px" zoomAndPan="magnify"><defs/><g><rect fill="#FFFFFF" height="340.5898" style="stroke:#181818;stroke-width:1.0;" width="10" x="40" y="93.6211"/><rect fill="#FFFFFF" height="331.5898" style="stroke:#181818;stroke-width:1.0;" width="10" x="271" y="93.6211"/><rect fill="none" height="124.5039" style="stroke:#000000;stroke-width:1.5;" width="298" x="234" y="131.9121"/><rect fill="none" height="124.5039" style="stroke:#000000;stroke-width:1.5;" width="303" x="234" y="270.416"/><line style="stroke:#181818;stroke-width:0.5;stroke-dasharray:5.0,5.0;" x1="45" x2="45" y1="83.6211" y2="443.2109"/><line style="stroke:#181818;stroke-width:0.5;stroke-dasharray:5.0,5.0;" x1="276" x2="276" y1="83.6211" y2="443.2109"/><text fill="#000000" font-family="sans-serif" font-size="14" lengthAdjust="spacing" textLength="74" x="5" y="80.1074">Anonymous</text><ellipse cx="45" cy="13.5" fill="#E2E2F0" rx="8" ry="8" style="stroke:#181818;stroke-width:0.5;"/><path d="M45,21.5 L45,48.5 M32,29.5 L58,29.5 M45,48.5 L32,63.5 M45,48.5 L58,63.5 " fill="none" style="stroke:#181818;stroke-width:0.5;"/><text fill="#000000" font-family="sans-serif" font-size="14" lengthAdjust="spacing" textLength="74" x="5" y="457.3184">Anonymous</text><ellipse cx="45" cy="469.332" fill="#E2E2F0" rx="8" ry="8" style="stroke:#181818;stroke-width:0.5;"/><path d="M45,477.332 L45,504.332 M32,485.332 L58,485.332 M45,504.332 L32,519.332 M45,504.332 L58,519.332 " fill="none" style="stroke:#181818;stroke-width:0.5;"/><rect fill="#E2E2F0" height="32.6211" rx="2.5" ry="2.5" style="stroke:#181818;stroke-width:0.5;" width="64" x="244" y="50"/><text fill="#000000" font-family="sans-serif" font-size="14" lengthAdjust="spacing" textLength="50" x="251" y="72.1074">:System</text><rect fill="#E2E2F0" height="32.6211" rx="2.5" ry="2.5" style="stroke:#181818;stroke-width:0.5;" width="64" x="244" y="442.2109"/><text fill="#000000" font-family="sans-serif" font-size="14" lengthAdjust="spacing" textLength="50" x="251" y="464.3184">:System</text><rect fill="#FFFFFF" height="340.5898" style="stroke:#181818;stroke-width:1.0;" width="10" x="40" y="93.6211"/><rect fill="#FFFFFF" height="331.5898" style="stroke:#181818;stroke-width:1.0;" width="10" x="271" y="93.6211"/><polygon fill="#181818" points="259,112.9121,269,116.9121,259,120.9121,263,116.9121" style="stroke:#181818;stroke-width:1.0;"/><line style="stroke:#181818;stroke-width:1.0;" x1="50" x2="265" y1="116.9121" y2="116.9121"/><text fill="#000000" font-family="sans-serif" font-size="13" font-weight="bold" lengthAdjust="spacing" textLength="7" x="57" y="111.6494">1</text><text fill="#000000" font-family="sans-serif" font-size="13" lengthAdjust="spacing" textLength="186" x="68" y="111.6494">Requests to register as a reader</text><path d="M234,131.9121 L295,131.9121 L295,141.2031 L285,151.2031 L234,151.2031 L234,131.9121 " fill="#EEEEEE" style="stroke:#000000;stroke-width:1.5;"/><rect fill="none" height="124.5039" style="stroke:#000000;stroke-width:1.5;" width="298" x="234" y="131.9121"/><text fill="#000000" font-family="sans-serif" font-size="13" font-weight="bold" lengthAdjust="spacing" textLength="16" x="249" y="146.9404">alt</text><text fill="#000000" font-family="sans-serif" font-size="11" font-weight="bold" lengthAdjust="spacing" textLength="157" x="310" y="145.7822">[If Reader photo is provided]</text><line style="stroke:#181818;stroke-width:1.0;" x1="281" x2="323" y1="174.4941" y2="174.4941"/><line style="stroke:#181818;stroke-width:1.0;" x1="323" x2="323" y1="174.4941" y2="187.4941"/><line style="stroke:#181818;stroke-width:1.0;" x1="282" x2="323" y1="187.4941" y2="187.4941"/><polygon fill="#181818" points="292,183.4941,282,187.4941,292,191.4941,288,187.4941" style="stroke:#181818;stroke-width:1.0;"/><text fill="#000000" font-family="sans-serif" font-size="13" font-weight="bold" lengthAdjust="spacing" textLength="7" x="288" y="169.2314">2</text><text fill="#000000" font-family="sans-serif" font-size="13" lengthAdjust="spacing" textLength="221" x="299" y="169.2314">Save Reader details and Reader photo</text><line style="stroke:#000000;stroke-width:1.0;stroke-dasharray:2.0,2.0;" x1="234" x2="532" y1="196.4941" y2="196.4941"/><text fill="#000000" font-family="sans-serif" font-size="11" font-weight="bold" lengthAdjust="spacing" textLength="109" x="239" y="208.3643">[If no Reader photo]</text><line style="stroke:#181818;stroke-width:1.0;" x1="281" x2="323" y1="235.416" y2="235.416"/><line style="stroke:#181818;stroke-width:1.0;" x1="323" x2="323" y1="235.416" y2="248.416"/><line style="stroke:#181818;stroke-width:1.0;" x1="282" x2="323" y1="248.416" y2="248.416"/><polygon fill="#181818" points="292,244.416,282,248.416,292,252.416,288,248.416" style="stroke:#181818;stroke-width:1.0;"/><text fill="#000000" font-family="sans-serif" font-size="13" font-weight="bold" lengthAdjust="spacing" textLength="7" x="288" y="230.1533">3</text><text fill="#000000" font-family="sans-serif" font-size="13" lengthAdjust="spacing" textLength="115" x="299" y="230.1533">Save Reader details</text><path d="M234,270.416 L295,270.416 L295,279.707 L285,289.707 L234,289.707 L234,270.416 " fill="#EEEEEE" style="stroke:#000000;stroke-width:1.5;"/><rect fill="none" height="124.5039" style="stroke:#000000;stroke-width:1.5;" width="303" x="234" y="270.416"/><text fill="#000000" font-family="sans-serif" font-size="13" font-weight="bold" lengthAdjust="spacing" textLength="16" x="249" y="285.4443">alt</text><text fill="#000000" font-family="sans-serif" font-size="11" font-weight="bold" lengthAdjust="spacing" textLength="165" x="310" y="284.2861">[If List of Interest is provided]</text><line style="stroke:#181818;stroke-width:1.0;" x1="281" x2="323" y1="312.998" y2="312.998"/><line style="stroke:#181818;stroke-width:1.0;" x1="323" x2="323" y1="312.998" y2="325.998"/><line style="stroke:#181818;stroke-width:1.0;" x1="282" x2="323" y1="325.998" y2="325.998"/><polygon fill="#181818" points="292,321.998,282,325.998,292,329.998,288,325.998" style="stroke:#181818;stroke-width:1.0;"/><text fill="#000000" font-family="sans-serif" font-size="13" font-weight="bold" lengthAdjust="spacing" textLength="7" x="288" y="307.7354">4</text><text fill="#000000" font-family="sans-serif" font-size="13" lengthAdjust="spacing" textLength="226" x="299" y="307.7354">Save Reader details and List of Interest</text><line style="stroke:#000000;stroke-width:1.0;stroke-dasharray:2.0,2.0;" x1="234" x2="537" y1="334.998" y2="334.998"/><text fill="#000000" font-family="sans-serif" font-size="11" font-weight="bold" lengthAdjust="spacing" textLength="117" x="239" y="346.8682">[If no List of Interest]</text><line style="stroke:#181818;stroke-width:1.0;" x1="281" x2="323" y1="373.9199" y2="373.9199"/><line style="stroke:#181818;stroke-width:1.0;" x1="323" x2="323" y1="373.9199" y2="386.9199"/><line style="stroke:#181818;stroke-width:1.0;" x1="282" x2="323" y1="386.9199" y2="386.9199"/><polygon fill="#181818" points="292,382.9199,282,386.9199,292,390.9199,288,386.9199" style="stroke:#181818;stroke-width:1.0;"/><text fill="#000000" font-family="sans-serif" font-size="13" font-weight="bold" lengthAdjust="spacing" textLength="7" x="288" y="368.6572">5</text><text fill="#000000" font-family="sans-serif" font-size="13" lengthAdjust="spacing" textLength="115" x="299" y="368.6572">Save Reader details</text><polygon fill="#181818" points="61,421.2109,51,425.2109,61,429.2109,57,425.2109" style="stroke:#181818;stroke-width:1.0;"/><line style="stroke:#181818;stroke-width:1.0;stroke-dasharray:2.0,2.0;" x1="55" x2="275" y1="425.2109" y2="425.2109"/><text fill="#000000" font-family="sans-serif" font-size="13" font-weight="bold" lengthAdjust="spacing" textLength="7" x="67" y="419.9482">6</text><text fill="#000000" font-family="sans-serif" font-size="13" lengthAdjust="spacing" textLength="152" x="78" y="419.9482">Informs operation success</text><!--SRC=[bP4nRiCm34LtdOB8qYdrxg50nm2TcXEm5fq8i4HLf0pazgMJsh3TfT4aVdu-V4elLzKiRTFa0PFMEBns71kXxqgfewCFU2aOdSEgd6hyecBtJhd0uJrnkaMkSW0KM2gNiMZeGZOU7DhpJPJYtVAutkV3Y4ghcKMQFKiBZc-_OWkVKonH0MKeT0ccbWcCLg6tQ3Wed7hpJHNaAvin2EJ2O_3a7TXvmDROCuuqptXI38CXazzW70r24plnLlytqb7oRaxuOTc1UpWbMy5MsgJSFyPpgVVeTV8_lUVIpqwpBl_J6gpd4WKuKq4Dd41grv68yxHVvGS0]--></g></svg>
