<?xml version="1.0" encoding="us-ascii" standalone="no"?><svg xmlns="http://www.w3.org/2000/svg" xmlns:xlink="http://www.w3.org/1999/xlink" contentStyleType="text/css" height="964px" preserveAspectRatio="none" style="width:1315px;height:964px;background:#FFFFFF;" version="1.1" viewBox="0 0 1315 964" width="1315px" zoomAndPan="magnify"><defs/><g><!--class Reader--><g id="elem_Reader"><rect codeLine="6" fill="#F1F1F1" height="230.832" id="Reader" rx="2.5" ry="2.5" style="stroke:#181818;stroke-width:0.5;" width="952" x="7" y="528"/><text fill="#000000" font-family="sans-serif" font-size="14" lengthAdjust="spacing" textLength="47" x="459.5" y="548.1074">Reader</text><line style="stroke:#181818;stroke-width:0.5;" x1="8" x2="958" y1="556.6211" y2="556.6211"/><text fill="#000000" font-family="sans-serif" font-size="14" lengthAdjust="spacing" textLength="16" x="13" y="575.7285">-id</text><text fill="#000000" font-family="sans-serif" font-size="14" lengthAdjust="spacing" textLength="81" x="13" y="594.3496">-readerCode</text><text fill="#000000" font-family="sans-serif" font-size="14" lengthAdjust="spacing" textLength="40" x="13" y="612.9707">-name</text><text fill="#000000" font-family="sans-serif" font-size="14" lengthAdjust="spacing" textLength="38" x="13" y="631.5918">-email</text><text fill="#000000" font-family="sans-serif" font-size="14" lengthAdjust="spacing" textLength="29" x="13" y="650.2129">-age</text><text fill="#000000" font-family="sans-serif" font-size="14" lengthAdjust="spacing" textLength="94" x="13" y="668.834">-phoneNumber</text><text fill="#000000" font-family="sans-serif" font-size="14" lengthAdjust="spacing" textLength="98" x="13" y="687.4551">-GDBRConsent</text><text fill="#000000" font-family="sans-serif" font-size="14" lengthAdjust="spacing" textLength="79" x="13" y="706.0762">-funnyQuote</text><text fill="#000000" font-family="sans-serif" font-size="14" lengthAdjust="spacing" textLength="59" x="13" y="724.6973">-interests</text><line style="stroke:#181818;stroke-width:0.5;" x1="8" x2="958" y1="732.2109" y2="732.2109"/><text fill="#000000" font-family="sans-serif" font-size="14" lengthAdjust="spacing" textLength="940" x="13" y="751.3184">Reader ( Int id, int readerCode, String name, String email, Int age, String phoneNumber, Boolean GDBRConsent, String funnyQuote, String interests )</text></g><!--class ReaderPhoto--><g id="elem_ReaderPhoto"><rect codeLine="19" fill="#F1F1F1" height="119.1055" id="ReaderPhoto" rx="2.5" ry="2.5" style="stroke:#181818;stroke-width:0.5;" width="349" x="308.5" y="838"/><text fill="#000000" font-family="sans-serif" font-size="14" lengthAdjust="spacing" textLength="84" x="441" y="858.1074">ReaderPhoto</text><line style="stroke:#181818;stroke-width:0.5;" x1="309.5" x2="656.5" y1="866.6211" y2="866.6211"/><text fill="#000000" font-family="sans-serif" font-size="14" lengthAdjust="spacing" textLength="16" x="314.5" y="885.7285">-id</text><text fill="#000000" font-family="sans-serif" font-size="14" lengthAdjust="spacing" textLength="43" x="314.5" y="904.3496">-image</text><text fill="#000000" font-family="sans-serif" font-size="14" lengthAdjust="spacing" textLength="84" x="314.5" y="922.9707">-contentType</text><line style="stroke:#181818;stroke-width:0.5;" x1="309.5" x2="656.5" y1="930.4844" y2="930.4844"/><text fill="#000000" font-family="sans-serif" font-size="14" lengthAdjust="spacing" textLength="337" x="314.5" y="949.5918">ReaderPhoto( Int id, byte image , String contentType)</text></g><!--class ReaderController--><g id="elem_ReaderController"><rect codeLine="26" fill="#F1F1F1" height="63.2422" id="ReaderController" rx="2.5" ry="2.5" style="stroke:#181818;stroke-width:0.5;" width="426" x="229" y="7"/><text fill="#000000" font-family="sans-serif" font-size="14" lengthAdjust="spacing" textLength="109" x="387.5" y="27.1074">ReaderController</text><line style="stroke:#181818;stroke-width:0.5;" x1="230" x2="654" y1="35.6211" y2="35.6211"/><line style="stroke:#181818;stroke-width:0.5;" x1="230" x2="654" y1="43.6211" y2="43.6211"/><text fill="#000000" font-family="sans-serif" font-size="14" lengthAdjust="spacing" textLength="414" x="235" y="62.7285">+createReader(EditReaderRequest resource, MultipartFile photo)</text></g><!--class ReaderServiceImpl--><g id="elem_ReaderServiceImpl"><rect codeLine="30" fill="#F1F1F1" height="81.8633" id="ReaderServiceImpl" rx="2.5" ry="2.5" style="stroke:#181818;stroke-width:0.5;" width="369" x="257.5" y="131"/><text fill="#000000" font-family="sans-serif" font-size="14" lengthAdjust="spacing" textLength="119" x="382.5" y="151.1074">ReaderServiceImpl</text><line style="stroke:#181818;stroke-width:0.5;" x1="258.5" x2="625.5" y1="159.6211" y2="159.6211"/><line style="stroke:#181818;stroke-width:0.5;" x1="258.5" x2="625.5" y1="167.6211" y2="167.6211"/><text fill="#000000" font-family="sans-serif" font-size="14" lengthAdjust="spacing" textLength="357" x="263.5" y="186.7285">+createReader(createReader(resource, photo)): Reader</text><text fill="#000000" font-family="sans-serif" font-size="14" lengthAdjust="spacing" textLength="266" x="263.5" y="205.3496">+validateCreateReaderRequest(resource)</text></g><!--class ReaderViewMapper--><g id="elem_ReaderViewMapper"><rect codeLine="36" fill="#F1F1F1" height="63.2422" id="ReaderViewMapper" rx="2.5" ry="2.5" style="stroke:#181818;stroke-width:0.5;" width="299" x="661.5" y="140.5"/><text fill="#000000" font-family="sans-serif" font-size="14" lengthAdjust="spacing" textLength="124" x="749" y="160.6074">ReaderViewMapper</text><line style="stroke:#181818;stroke-width:0.5;" x1="662.5" x2="959.5" y1="169.1211" y2="169.1211"/><line style="stroke:#181818;stroke-width:0.5;" x1="662.5" x2="959.5" y1="177.1211" y2="177.1211"/><text fill="#000000" font-family="sans-serif" font-size="14" lengthAdjust="spacing" textLength="287" x="667.5" y="196.2285">+toReaderView(reader: Reader): ReaderView</text></g><!--class EditReaderMapper--><g id="elem_EditReaderMapper"><rect codeLine="41" fill="#F1F1F1" height="63.2422" id="EditReaderMapper" rx="2.5" ry="2.5" style="stroke:#181818;stroke-width:0.5;" width="313" x="995.5" y="140.5"/><text fill="#000000" font-family="sans-serif" font-size="14" lengthAdjust="spacing" textLength="119" x="1092.5" y="160.6074">EditReaderMapper</text><line style="stroke:#181818;stroke-width:0.5;" x1="996.5" x2="1307.5" y1="169.1211" y2="169.1211"/><line style="stroke:#181818;stroke-width:0.5;" x1="996.5" x2="1307.5" y1="177.1211" y2="177.1211"/><text fill="#000000" font-family="sans-serif" font-size="14" lengthAdjust="spacing" textLength="301" x="1001.5" y="196.2285">+create(resource: EditReaderRequest): Reader</text></g><!--class ReaderRepository--><g id="elem_ReaderRepository"><rect codeLine="46" fill="#F1F1F1" height="63.2422" id="ReaderRepository" rx="2.5" ry="2.5" style="stroke:#181818;stroke-width:0.5;" width="212" x="445" y="330"/><text fill="#000000" font-family="sans-serif" font-size="14" lengthAdjust="spacing" textLength="115" x="493.5" y="350.1074">ReaderRepository</text><line style="stroke:#181818;stroke-width:0.5;" x1="446" x2="656" y1="358.6211" y2="358.6211"/><line style="stroke:#181818;stroke-width:0.5;" x1="446" x2="656" y1="366.6211" y2="366.6211"/><text fill="#000000" font-family="sans-serif" font-size="14" lengthAdjust="spacing" textLength="200" x="451" y="385.7285">+save(reader: Reader): Reader</text></g><!--class EditReaderRequest--><g id="elem_EditReaderRequest"><rect codeLine="51" fill="#F1F1F1" height="174.9688" id="EditReaderRequest" rx="2.5" ry="2.5" style="stroke:#181818;stroke-width:0.5;" width="170" x="981" y="274"/><text fill="#000000" font-family="sans-serif" font-size="14" lengthAdjust="spacing" textLength="124" x="1004" y="294.1074">EditReaderRequest</text><line style="stroke:#181818;stroke-width:0.5;" x1="982" x2="1150" y1="302.6211" y2="302.6211"/><text fill="#000000" font-family="sans-serif" font-size="14" lengthAdjust="spacing" textLength="85" x="987" y="321.7285">-name: String</text><text fill="#000000" font-family="sans-serif" font-size="14" lengthAdjust="spacing" textLength="83" x="987" y="340.3496">-email: String</text><text fill="#000000" font-family="sans-serif" font-size="14" lengthAdjust="spacing" textLength="149" x="987" y="358.9707">-dateOfBirth: LocalDate</text><text fill="#000000" font-family="sans-serif" font-size="14" lengthAdjust="spacing" textLength="146" x="987" y="377.5918">-phoneNumber: Integer</text><text fill="#000000" font-family="sans-serif" font-size="14" lengthAdjust="spacing" textLength="158" x="987" y="396.2129">-GDBRConsent: Boolean</text><text fill="#000000" font-family="sans-serif" font-size="14" lengthAdjust="spacing" textLength="142" x="987" y="414.834">-interests: List&lt;String&gt;</text><text fill="#000000" font-family="sans-serif" font-size="14" lengthAdjust="spacing" textLength="84" x="987" y="433.4551">-photo: byte[]</text><line style="stroke:#181818;stroke-width:0.5;" x1="982" x2="1150" y1="440.9688" y2="440.9688"/></g><!--class ReaderView--><g id="elem_ReaderView"><rect codeLine="62" fill="#F1F1F1" height="81.8633" id="ReaderView" rx="2.5" ry="2.5" style="stroke:#181818;stroke-width:0.5;" width="97" x="762.5" y="320.5"/><text fill="#000000" font-family="sans-serif" font-size="14" lengthAdjust="spacing" textLength="76" x="773" y="340.6074">ReaderView</text><line style="stroke:#181818;stroke-width:0.5;" x1="763.5" x2="858.5" y1="349.1211" y2="349.1211"/><text fill="#000000" font-family="sans-serif" font-size="14" lengthAdjust="spacing" textLength="85" x="768.5" y="368.2285">-name: String</text><text fill="#000000" font-family="sans-serif" font-size="14" lengthAdjust="spacing" textLength="83" x="768.5" y="386.8496">-email: String</text><line style="stroke:#181818;stroke-width:0.5;" x1="763.5" x2="858.5" y1="394.3633" y2="394.3633"/></g><!--link ReaderController to ReaderServiceImpl--><g id="link_ReaderController_ReaderServiceImpl"><path codeLine="68" d="M442,70.33 C442,88.4 442,105.42 442,124.89 " fill="none" id="ReaderController-to-ReaderServiceImpl" style="stroke:#181818;stroke-width:1.0;stroke-dasharray:7.0,7.0;"/><polygon fill="#181818" points="442,130.89,446,121.89,442,125.89,438,121.89,442,130.89" style="stroke:#181818;stroke-width:1.0;"/></g><!--link ReaderServiceImpl to ReaderRepository--><g id="link_ReaderServiceImpl_ReaderRepository"><path codeLine="69" d="M465.38,213.22 C485.71,248.2 511.7141,292.9231 530.2041,324.7231 " fill="none" id="ReaderServiceImpl-to-ReaderRepository" style="stroke:#181818;stroke-width:1.0;stroke-dasharray:7.0,7.0;"/><polygon fill="#181818" points="533.22,329.91,532.1541,320.119,530.7067,325.5876,525.2382,324.1402,533.22,329.91" style="stroke:#181818;stroke-width:1.0;"/></g><!--link ReaderController to ReaderViewMapper--><g id="link_ReaderController_ReaderViewMapper"><path codeLine="70" d="M528.05,70.16 C587.36,91.3 660.2081,117.266 719.4781,138.386 " fill="none" id="ReaderController-to-ReaderViewMapper" style="stroke:#181818;stroke-width:1.0;stroke-dasharray:7.0,7.0;"/><polygon fill="#181818" points="725.13,140.4,717.9948,133.6111,720.4201,138.7217,715.3095,141.147,725.13,140.4" style="stroke:#181818;stroke-width:1.0;"/></g><!--link ReaderRepository to Reader--><g id="link_ReaderRepository_Reader"><path codeLine="71" d="M525.64,393.4 C509.07,415.68 488.9,447.3 480,479 C475.63,494.58 473.6744,505.3388 472.7744,521.9588 " fill="none" id="ReaderRepository-to-Reader" style="stroke:#181818;stroke-width:1.0;"/><polygon fill="#181818" points="472.45,527.95,476.9308,519.1795,472.7204,522.9573,468.9425,518.7469,472.45,527.95" style="stroke:#181818;stroke-width:1.0;"/><text fill="#000000" font-family="sans-serif" font-size="13" lengthAdjust="spacing" textLength="43" x="481" y="494.0283">records</text><text fill="#000000" font-family="sans-serif" font-size="13" lengthAdjust="spacing" textLength="7" x="512.9582" y="415.3869">1</text><text fill="#000000" font-family="sans-serif" font-size="13" lengthAdjust="spacing" textLength="20" x="451.0693" y="516.6591">0..*</text></g><!--link ReaderRepository to Reader--><g id="link_ReaderRepository_Reader"><path codeLine="72" d="M547.33,393.16 C543.72,420.79 537.5,462.42 529,498 C526.67,507.73 525.6623,511.9863 522.8323,521.9963 " fill="none" id="ReaderRepository-to-Reader-1" style="stroke:#181818;stroke-width:1.0;stroke-dasharray:7.0,7.0;"/><polygon fill="#181818" points="521.2,527.77,527.4976,520.1977,522.5603,522.9586,519.7994,518.0212,521.2,527.77" style="stroke:#181818;stroke-width:1.0;"/></g><!--link ReaderViewMapper to ReaderView--><g id="link_ReaderViewMapper_ReaderView"><path codeLine="73" d="M811,203.54 C811,235.4 811,279.48 811,314.48 " fill="none" id="ReaderViewMapper-to-ReaderView" style="stroke:#181818;stroke-width:1.0;stroke-dasharray:7.0,7.0;"/><polygon fill="#181818" points="811,320.48,815,311.48,811,315.48,807,311.48,811,320.48" style="stroke:#181818;stroke-width:1.0;"/></g><!--link EditReaderMapper to EditReaderRequest--><g id="link_EditReaderMapper_EditReaderRequest"><path codeLine="74" d="M1137.99,203.54 C1129.19,222.74 1119.8413,243.1062 1108.3113,268.2462 " fill="none" id="EditReaderMapper-to-EditReaderRequest" style="stroke:#181818;stroke-width:1.0;stroke-dasharray:7.0,7.0;"/><polygon fill="#181818" points="1105.81,273.7,1113.1978,267.1869,1107.8944,269.1552,1105.9261,263.8518,1105.81,273.7" style="stroke:#181818;stroke-width:1.0;"/></g><!--link ReaderController to Reader--><g id="link_ReaderController_Reader"><path codeLine="75" d="M317.07,70.03 C286.79,83.6 258,103.09 240,131 C220.25,161.63 230.72,177.76 240,213 C270.37,328.37 336.2008,440.3658 393.0308,523.0258 " fill="none" id="ReaderController-to-Reader" style="stroke:#181818;stroke-width:1.0;stroke-dasharray:7.0,7.0;"/><polygon fill="#181818" points="396.43,527.97,394.6273,518.2875,393.5973,523.8498,388.035,522.8198,396.43,527.97" style="stroke:#181818;stroke-width:1.0;"/></g><!--link ReaderServiceImpl to Reader--><g id="link_ReaderServiceImpl_Reader"><path codeLine="76" d="M434.65,213.15 C431.63,231.61 428.49,253.85 427,274 C421.27,351.57 416.08,371.99 427,449 C430.67,474.88 435.3724,496.3666 442.4524,521.9966 " fill="none" id="ReaderServiceImpl-to-Reader" style="stroke:#181818;stroke-width:1.0;stroke-dasharray:7.0,7.0;"/><polygon fill="#181818" points="444.05,527.78,445.5092,518.0398,442.7187,522.9605,437.798,520.17,444.05,527.78" style="stroke:#181818;stroke-width:1.0;"/></g><!--link EditReaderRequest to Reader--><g id="link_EditReaderRequest_Reader"><path codeLine="77" d="M980.91,403.36 C912.73,436.11 818.9984,481.122 727.1084,525.262 " fill="none" id="EditReaderRequest-to-Reader" style="stroke:#181818;stroke-width:1.0;stroke-dasharray:7.0,7.0;"/><polygon fill="#181818" points="721.7,527.86,731.5445,527.5687,726.207,525.695,728.0806,520.3575,721.7,527.86" style="stroke:#181818;stroke-width:1.0;"/></g><!--reverse link Reader to ReaderPhoto--><g id="link_Reader_ReaderPhoto"><path codeLine="79" d="M483,771.07 C483,798.37 483,814.4 483,837.96 " fill="none" id="Reader-backto-ReaderPhoto" style="stroke:#181818;stroke-width:1.0;"/><polygon fill="#181818" points="483,759.07,479,765.07,483,771.07,487,765.07,483,759.07" style="stroke:#181818;stroke-width:1.0;"/><polygon fill="#000000" points="488,803.6455,490.9389,794.6004,485.0611,794.6004,488,803.6455" style="stroke:#000000;stroke-width:1.0;"/><text fill="#000000" font-family="sans-serif" font-size="13" lengthAdjust="spacing" textLength="32" x="497" y="804.0283">has a</text></g><!--SRC=[ZLHDRzim3BthLn2vBEtYfBiQGu0btOO0wpwIOPUY1yLcOs6ov4bqXgpOVwziAxPgUy5oaacznySdCgyoeiB6YqKXkQ8ob_D4vuj4SckZLF23uJbZcKWH4c4IYSp-5AhWBWprfNT4HknBmasYrKxyGRXXhCx05dcAvec1-qKWKdymTNYjK_G1nVFp4NCkf3_pmpbQP5hXvpBVe_6HZxUhxLehYugQo6EfrEbRgUcC4OhGe2LRVpTIO0eRHKx9h4e7GcQmSrseGosb_QZ5p6g8qzA60pKpM6ajaQjGK7knqzI6MbLmnVw-zEbhfaaFp19vPuCpc1p_zrE1GLCrhcjiVo9iKD1M3O23iauq6IsbixOf_XeIPmnXavw-JmKrnot-AfrqPvlLfKbSKtUb9E5cWJu8YPKlf2l-a7w7vYWItEI57ET_yT5HDsHNiQVno2EN8dNNrm78osgnWmv_2FnznuiYw91qbvesOt2kr9QiSXrLPqEFgj7VLezXO5ZNH4_O5Wjj1MbpQjaiF-A_18s9yINOKx1AiN_sSALwiSh3BuyhOIYBuPDEkBpbDB9jSJLMU1XRk_Wy-lrzSuJ2qjkcthBZ91tNmtd_CFP0_z-10_Sd5-RpvSYy3IB1lS3x2sp1wFHXC7apWIXQmkHcFh-UU43ijYFH9hN3-nqhwvFtAhB-iDNvuQDV47wnTpRSwI3feN0THU4_3CIGSGiSbkmP]--></g></svg>