<?xml version="1.0" encoding="us-ascii" standalone="no"?><svg xmlns="http://www.w3.org/2000/svg" xmlns:xlink="http://www.w3.org/1999/xlink" contentStyleType="text/css" height="749px" preserveAspectRatio="none" style="width:1392px;height:749px;background:#FFFFFF;" version="1.1" viewBox="0 0 1392 749" width="1392px" zoomAndPan="magnify"><defs/><g><rect fill="#FFFFFF" height="654.5684" style="stroke:#181818;stroke-width:1.0;" width="10" x="68.5" y="48.6211"/><rect fill="#FFFFFF" height="631.2773" style="stroke:#181818;stroke-width:1.0;" width="10" x="223.5" y="71.9121"/><rect fill="#FFFFFF" height="36.291" style="stroke:#181818;stroke-width:1.0;" width="10" x="228.5" y="657.8984"/><rect fill="#FFFFFF" height="515.4043" style="stroke:#181818;stroke-width:1.0;" width="10" x="417.5" y="103.2031"/><rect fill="#FFFFFF" height="568.6953" style="stroke:#181818;stroke-width:1.0;" width="10" x="592.5" y="134.4941"/><rect fill="#FFFFFF" height="42.291" style="stroke:#181818;stroke-width:1.0;" width="10" x="597.5" y="173.7852"/><rect fill="#FFFFFF" height="409.5313" style="stroke:#181818;stroke-width:1.0;" width="10" x="597.5" y="293.6582"/><rect fill="#FFFFFF" height="365.2402" style="stroke:#181818;stroke-width:1.0;" width="10" x="602.5" y="337.9492"/><rect fill="#FFFFFF" height="98.873" style="stroke:#181818;stroke-width:1.0;" width="10" x="607.5" y="382.2402"/><rect fill="#FFFFFF" height="31.291" style="stroke:#181818;stroke-width:1.0;" width="10" x="855.5" y="418.5313"/><rect fill="#FFFFFF" height="31.291" style="stroke:#181818;stroke-width:1.0;" width="10" x="1041.5" y="512.4043"/><rect fill="#FFFFFF" height="448.8223" style="stroke:#181818;stroke-width:1.0;" width="10" x="1200" y="254.3672"/><line style="stroke:#181818;stroke-width:0.5;stroke-dasharray:5.0,5.0;" x1="73" x2="73" y1="38.6211" y2="712.1895"/><line style="stroke:#181818;stroke-width:0.5;stroke-dasharray:5.0,5.0;" x1="228" x2="228" y1="38.6211" y2="712.1895"/><line style="stroke:#181818;stroke-width:0.5;stroke-dasharray:5.0,5.0;" x1="422" x2="422" y1="38.6211" y2="712.1895"/><line style="stroke:#181818;stroke-width:0.5;stroke-dasharray:5.0,5.0;" x1="597" x2="597" y1="38.6211" y2="712.1895"/><line style="stroke:#181818;stroke-width:0.5;stroke-dasharray:5.0,5.0;" x1="860.5" x2="860.5" y1="38.6211" y2="712.1895"/><line style="stroke:#181818;stroke-width:0.5;stroke-dasharray:5.0,5.0;" x1="1046.5" x2="1046.5" y1="38.6211" y2="712.1895"/><line style="stroke:#181818;stroke-width:0.5;stroke-dasharray:5.0,5.0;" x1="1204.5" x2="1204.5" y1="38.6211" y2="712.1895"/><line style="stroke:#181818;stroke-width:0.5;stroke-dasharray:5.0,5.0;" x1="1327.5" x2="1327.5" y1="583.5059" y2="712.1895"/><rect fill="#E2E2F0" height="32.6211" rx="2.5" ry="2.5" style="stroke:#181818;stroke-width:0.5;" width="137" x="5" y="5"/><text fill="#000000" font-family="sans-serif" font-size="14" lengthAdjust="spacing" textLength="123" x="12" y="27.1074">Reader:HTTPClient</text><rect fill="#E2E2F0" height="32.6211" rx="2.5" ry="2.5" style="stroke:#181818;stroke-width:0.5;" width="137" x="5" y="711.1895"/><text fill="#000000" font-family="sans-serif" font-size="14" lengthAdjust="spacing" textLength="123" x="12" y="733.2969">Reader:HTTPClient</text><rect fill="#E2E2F0" height="32.6211" rx="2.5" ry="2.5" style="stroke:#181818;stroke-width:0.5;" width="153" x="152" y="5"/><text fill="#000000" font-family="sans-serif" font-size="14" lengthAdjust="spacing" textLength="139" x="159" y="27.1074">handler:RouteHandler</text><rect fill="#E2E2F0" height="32.6211" rx="2.5" ry="2.5" style="stroke:#181818;stroke-width:0.5;" width="153" x="152" y="711.1895"/><text fill="#000000" font-family="sans-serif" font-size="14" lengthAdjust="spacing" textLength="139" x="159" y="733.2969">handler:RouteHandler</text><rect fill="#E2E2F0" height="32.6211" rx="2.5" ry="2.5" style="stroke:#181818;stroke-width:0.5;" width="127" x="359" y="5"/><text fill="#000000" font-family="sans-serif" font-size="14" lengthAdjust="spacing" textLength="113" x="366" y="27.1074">:ReaderController</text><rect fill="#E2E2F0" height="32.6211" rx="2.5" ry="2.5" style="stroke:#181818;stroke-width:0.5;" width="127" x="359" y="711.1895"/><text fill="#000000" font-family="sans-serif" font-size="14" lengthAdjust="spacing" textLength="113" x="366" y="733.2969">:ReaderController</text><rect fill="#E2E2F0" height="32.6211" rx="2.5" ry="2.5" style="stroke:#181818;stroke-width:0.5;" width="157" x="519" y="5"/><text fill="#000000" font-family="sans-serif" font-size="14" lengthAdjust="spacing" textLength="143" x="526" y="27.1074">service:ReaderService</text><rect fill="#E2E2F0" height="32.6211" rx="2.5" ry="2.5" style="stroke:#181818;stroke-width:0.5;" width="157" x="519" y="711.1895"/><text fill="#000000" font-family="sans-serif" font-size="14" lengthAdjust="spacing" textLength="143" x="526" y="733.2969">service:ReaderService</text><rect fill="#E2E2F0" height="32.6211" rx="2.5" ry="2.5" style="stroke:#181818;stroke-width:0.5;" width="162" x="779.5" y="5"/><text fill="#000000" font-family="sans-serif" font-size="14" lengthAdjust="spacing" textLength="148" x="786.5" y="27.1074">repo:ReaderRepository</text><rect fill="#E2E2F0" height="32.6211" rx="2.5" ry="2.5" style="stroke:#181818;stroke-width:0.5;" width="162" x="779.5" y="711.1895"/><text fill="#000000" font-family="sans-serif" font-size="14" lengthAdjust="spacing" textLength="148" x="786.5" y="733.2969">repo:ReaderRepository</text><rect fill="#E2E2F0" height="32.6211" rx="2.5" ry="2.5" style="stroke:#181818;stroke-width:0.5;" width="190" x="951.5" y="5"/><text fill="#000000" font-family="sans-serif" font-size="14" lengthAdjust="spacing" textLength="176" x="958.5" y="27.1074">mapper:ReaderViewMapper</text><rect fill="#E2E2F0" height="32.6211" rx="2.5" ry="2.5" style="stroke:#181818;stroke-width:0.5;" width="190" x="951.5" y="711.1895"/><text fill="#000000" font-family="sans-serif" font-size="14" lengthAdjust="spacing" textLength="176" x="958.5" y="733.2969">mapper:ReaderViewMapper</text><rect fill="#E2E2F0" height="32.6211" rx="2.5" ry="2.5" style="stroke:#181818;stroke-width:0.5;" width="107" x="1151.5" y="5"/><text fill="#000000" font-family="sans-serif" font-size="14" lengthAdjust="spacing" textLength="93" x="1158.5" y="27.1074">reader:Reader</text><rect fill="#E2E2F0" height="32.6211" rx="2.5" ry="2.5" style="stroke:#181818;stroke-width:0.5;" width="107" x="1151.5" y="711.1895"/><text fill="#000000" font-family="sans-serif" font-size="14" lengthAdjust="spacing" textLength="93" x="1158.5" y="733.2969">reader:Reader</text><rect fill="#E2E2F0" height="32.6211" rx="2.5" ry="2.5" style="stroke:#181818;stroke-width:0.5;" width="118" x="1268.5" y="711.1895"/><text fill="#000000" font-family="sans-serif" font-size="14" lengthAdjust="spacing" textLength="104" x="1275.5" y="733.2969">result:HttpResult</text><rect fill="#FFFFFF" height="654.5684" style="stroke:#181818;stroke-width:1.0;" width="10" x="68.5" y="48.6211"/><rect fill="#FFFFFF" height="631.2773" style="stroke:#181818;stroke-width:1.0;" width="10" x="223.5" y="71.9121"/><rect fill="#FFFFFF" height="36.291" style="stroke:#181818;stroke-width:1.0;" width="10" x="228.5" y="657.8984"/><rect fill="#FFFFFF" height="515.4043" style="stroke:#181818;stroke-width:1.0;" width="10" x="417.5" y="103.2031"/><rect fill="#FFFFFF" height="568.6953" style="stroke:#181818;stroke-width:1.0;" width="10" x="592.5" y="134.4941"/><rect fill="#FFFFFF" height="42.291" style="stroke:#181818;stroke-width:1.0;" width="10" x="597.5" y="173.7852"/><rect fill="#FFFFFF" height="409.5313" style="stroke:#181818;stroke-width:1.0;" width="10" x="597.5" y="293.6582"/><rect fill="#FFFFFF" height="365.2402" style="stroke:#181818;stroke-width:1.0;" width="10" x="602.5" y="337.9492"/><rect fill="#FFFFFF" height="98.873" style="stroke:#181818;stroke-width:1.0;" width="10" x="607.5" y="382.2402"/><rect fill="#FFFFFF" height="31.291" style="stroke:#181818;stroke-width:1.0;" width="10" x="855.5" y="418.5313"/><rect fill="#FFFFFF" height="31.291" style="stroke:#181818;stroke-width:1.0;" width="10" x="1041.5" y="512.4043"/><rect fill="#FFFFFF" height="448.8223" style="stroke:#181818;stroke-width:1.0;" width="10" x="1200" y="254.3672"/><polygon fill="#181818" points="211.5,67.9121,221.5,71.9121,211.5,75.9121,215.5,71.9121" style="stroke:#181818;stroke-width:1.0;"/><line style="stroke:#181818;stroke-width:1.0;" x1="78.5" x2="217.5" y1="71.9121" y2="71.9121"/><text fill="#000000" font-family="sans-serif" font-size="13" font-weight="bold" lengthAdjust="spacing" textLength="7" x="85.5" y="66.6494">1</text><text fill="#000000" font-family="sans-serif" font-size="13" lengthAdjust="spacing" textLength="107" x="96.5" y="66.6494">POST /api/readers</text><polygon fill="#181818" points="405.5,99.2031,415.5,103.2031,405.5,107.2031,409.5,103.2031" style="stroke:#181818;stroke-width:1.0;"/><line style="stroke:#181818;stroke-width:1.0;" x1="233.5" x2="411.5" y1="103.2031" y2="103.2031"/><text fill="#000000" font-family="sans-serif" font-size="13" font-weight="bold" lengthAdjust="spacing" textLength="7" x="240.5" y="97.9404">2</text><text fill="#000000" font-family="sans-serif" font-size="13" lengthAdjust="spacing" textLength="135" x="251.5" y="97.9404">createReader(resource)</text><polygon fill="#181818" points="580.5,130.4941,590.5,134.4941,580.5,138.4941,584.5,134.4941" style="stroke:#181818;stroke-width:1.0;"/><line style="stroke:#181818;stroke-width:1.0;" x1="427.5" x2="586.5" y1="134.4941" y2="134.4941"/><text fill="#000000" font-family="sans-serif" font-size="13" font-weight="bold" lengthAdjust="spacing" textLength="7" x="434.5" y="129.2314">3</text><text fill="#000000" font-family="sans-serif" font-size="13" lengthAdjust="spacing" textLength="135" x="445.5" y="129.2314">createReader(resource)</text><line style="stroke:#181818;stroke-width:1.0;" x1="602.5" x2="649.5" y1="160.7852" y2="160.7852"/><line style="stroke:#181818;stroke-width:1.0;" x1="649.5" x2="649.5" y1="160.7852" y2="173.7852"/><line style="stroke:#181818;stroke-width:1.0;" x1="608.5" x2="649.5" y1="173.7852" y2="173.7852"/><polygon fill="#181818" points="618.5,169.7852,608.5,173.7852,618.5,177.7852,614.5,173.7852" style="stroke:#181818;stroke-width:1.0;"/><text fill="#000000" font-family="sans-serif" font-size="13" font-weight="bold" lengthAdjust="spacing" textLength="7" x="614.5" y="155.5225">4</text><text fill="#000000" font-family="sans-serif" font-size="13" lengthAdjust="spacing" textLength="228" x="625.5" y="155.5225">validateCreateReaderRequest(resource)</text><line style="stroke:#181818;stroke-width:1.0;stroke-dasharray:2.0,2.0;" x1="607.5" x2="649.5" y1="215.0762" y2="215.0762"/><line style="stroke:#181818;stroke-width:1.0;stroke-dasharray:2.0,2.0;" x1="649.5" x2="649.5" y1="215.0762" y2="228.0762"/><line style="stroke:#181818;stroke-width:1.0;stroke-dasharray:2.0,2.0;" x1="602.5" x2="649.5" y1="228.0762" y2="228.0762"/><polygon fill="#181818" points="612.5,224.0762,602.5,228.0762,612.5,232.0762,608.5,228.0762" style="stroke:#181818;stroke-width:1.0;"/><text fill="#000000" font-family="sans-serif" font-size="13" font-weight="bold" lengthAdjust="spacing" textLength="7" x="614.5" y="209.8135">5</text><text fill="#000000" font-family="sans-serif" font-size="13" lengthAdjust="spacing" textLength="14" x="625.5" y="209.8135">ok</text><polygon fill="#181818" points="1188,250.3672,1198,254.3672,1188,258.3672,1192,254.3672" style="stroke:#181818;stroke-width:1.0;"/><line style="stroke:#181818;stroke-width:1.0;" x1="602.5" x2="1194" y1="254.3672" y2="254.3672"/><text fill="#000000" font-family="sans-serif" font-size="13" font-weight="bold" lengthAdjust="spacing" textLength="7" x="609.5" y="249.1045">6</text><text fill="#000000" font-family="sans-serif" font-size="13" lengthAdjust="spacing" textLength="94" x="620.5" y="249.1045">create(resource)</text><line style="stroke:#181818;stroke-width:1.0;" x1="602.5" x2="649.5" y1="280.6582" y2="280.6582"/><line style="stroke:#181818;stroke-width:1.0;" x1="649.5" x2="649.5" y1="280.6582" y2="293.6582"/><line style="stroke:#181818;stroke-width:1.0;" x1="608.5" x2="649.5" y1="293.6582" y2="293.6582"/><polygon fill="#181818" points="618.5,289.6582,608.5,293.6582,618.5,297.6582,614.5,293.6582" style="stroke:#181818;stroke-width:1.0;"/><text fill="#000000" font-family="sans-serif" font-size="13" font-weight="bold" lengthAdjust="spacing" textLength="7" x="614.5" y="275.3955">7</text><text fill="#000000" font-family="sans-serif" font-size="13" lengthAdjust="spacing" textLength="160" x="625.5" y="275.3955">setAge(reader, currentDate)</text><line style="stroke:#181818;stroke-width:1.0;" x1="607.5" x2="654.5" y1="324.9492" y2="324.9492"/><line style="stroke:#181818;stroke-width:1.0;" x1="654.5" x2="654.5" y1="324.9492" y2="337.9492"/><line style="stroke:#181818;stroke-width:1.0;" x1="613.5" x2="654.5" y1="337.9492" y2="337.9492"/><polygon fill="#181818" points="623.5,333.9492,613.5,337.9492,623.5,341.9492,619.5,337.9492" style="stroke:#181818;stroke-width:1.0;"/><text fill="#000000" font-family="sans-serif" font-size="13" font-weight="bold" lengthAdjust="spacing" textLength="7" x="619.5" y="319.6865">8</text><text fill="#000000" font-family="sans-serif" font-size="13" lengthAdjust="spacing" textLength="133" x="630.5" y="319.6865">setReaderCode(reader)</text><line style="stroke:#181818;stroke-width:1.0;" x1="612.5" x2="659.5" y1="369.2402" y2="369.2402"/><line style="stroke:#181818;stroke-width:1.0;" x1="659.5" x2="659.5" y1="369.2402" y2="382.2402"/><line style="stroke:#181818;stroke-width:1.0;" x1="618.5" x2="659.5" y1="382.2402" y2="382.2402"/><polygon fill="#181818" points="628.5,378.2402,618.5,382.2402,628.5,386.2402,624.5,382.2402" style="stroke:#181818;stroke-width:1.0;"/><text fill="#000000" font-family="sans-serif" font-size="13" font-weight="bold" lengthAdjust="spacing" textLength="7" x="624.5" y="363.9775">9</text><text fill="#000000" font-family="sans-serif" font-size="13" lengthAdjust="spacing" textLength="170" x="635.5" y="363.9775">setInterests(reader, interests)</text><polygon fill="#181818" points="843.5,414.5313,853.5,418.5313,843.5,422.5313,847.5,418.5313" style="stroke:#181818;stroke-width:1.0;"/><line style="stroke:#181818;stroke-width:1.0;" x1="617.5" x2="849.5" y1="418.5313" y2="418.5313"/><text fill="#000000" font-family="sans-serif" font-size="13" font-weight="bold" lengthAdjust="spacing" textLength="14" x="624.5" y="413.2686">10</text><text fill="#000000" font-family="sans-serif" font-size="13" lengthAdjust="spacing" textLength="70" x="642.5" y="413.2686">save(reader)</text><polygon fill="#181818" points="628.5,445.8223,618.5,449.8223,628.5,453.8223,624.5,449.8223" style="stroke:#181818;stroke-width:1.0;"/><line style="stroke:#181818;stroke-width:1.0;stroke-dasharray:2.0,2.0;" x1="622.5" x2="859.5" y1="449.8223" y2="449.8223"/><text fill="#000000" font-family="sans-serif" font-size="13" font-weight="bold" lengthAdjust="spacing" textLength="14" x="634.5" y="444.5596">11</text><text fill="#000000" font-family="sans-serif" font-size="13" lengthAdjust="spacing" textLength="36" x="652.5" y="444.5596">reader</text><polygon fill="#181818" points="438.5,477.1133,428.5,481.1133,438.5,485.1133,434.5,481.1133" style="stroke:#181818;stroke-width:1.0;"/><line style="stroke:#181818;stroke-width:1.0;stroke-dasharray:2.0,2.0;" x1="432.5" x2="601.5" y1="481.1133" y2="481.1133"/><text fill="#000000" font-family="sans-serif" font-size="13" font-weight="bold" lengthAdjust="spacing" textLength="14" x="444.5" y="475.8506">12</text><text fill="#000000" font-family="sans-serif" font-size="13" lengthAdjust="spacing" textLength="36" x="462.5" y="475.8506">reader</text><polygon fill="#181818" points="1029.5,508.4043,1039.5,512.4043,1029.5,516.4043,1033.5,512.4043" style="stroke:#181818;stroke-width:1.0;"/><line style="stroke:#181818;stroke-width:1.0;" x1="427.5" x2="1035.5" y1="512.4043" y2="512.4043"/><text fill="#000000" font-family="sans-serif" font-size="13" font-weight="bold" lengthAdjust="spacing" textLength="14" x="434.5" y="507.1416">13</text><text fill="#000000" font-family="sans-serif" font-size="13" lengthAdjust="spacing" textLength="124" x="452.5" y="507.1416">toReaderView(reader)</text><polygon fill="#181818" points="438.5,539.6953,428.5,543.6953,438.5,547.6953,434.5,543.6953" style="stroke:#181818;stroke-width:1.0;"/><line style="stroke:#181818;stroke-width:1.0;stroke-dasharray:2.0,2.0;" x1="432.5" x2="1045.5" y1="543.6953" y2="543.6953"/><text fill="#000000" font-family="sans-serif" font-size="13" font-weight="bold" lengthAdjust="spacing" textLength="14" x="444.5" y="538.4326">14</text><text fill="#000000" font-family="sans-serif" font-size="13" lengthAdjust="spacing" textLength="64" x="462.5" y="538.4326">readerView</text><polygon fill="#181818" points="1256.5,570.9863,1266.5,574.9863,1256.5,578.9863,1260.5,574.9863" style="stroke:#181818;stroke-width:1.0;"/><line style="stroke:#181818;stroke-width:1.0;stroke-dasharray:2.0,2.0;" x1="427.5" x2="1262.5" y1="574.9863" y2="574.9863"/><text fill="#000000" font-family="sans-serif" font-size="13" font-weight="bold" lengthAdjust="spacing" textLength="14" x="434.5" y="569.7236">15</text><text fill="#000000" font-family="sans-serif" font-size="13" lengthAdjust="spacing" textLength="65" x="452.5" y="569.7236">create(201)</text><rect fill="#E2E2F0" height="32.6211" rx="2.5" ry="2.5" style="stroke:#181818;stroke-width:0.5;" width="118" x="1268.5" y="551.6953"/><text fill="#000000" font-family="sans-serif" font-size="14" lengthAdjust="spacing" textLength="104" x="1275.5" y="573.8027">result:HttpResult</text><polygon fill="#181818" points="244.5,614.6074,234.5,618.6074,244.5,622.6074,240.5,618.6074" style="stroke:#181818;stroke-width:1.0;"/><line style="stroke:#181818;stroke-width:1.0;stroke-dasharray:2.0,2.0;" x1="238.5" x2="421.5" y1="618.6074" y2="618.6074"/><text fill="#000000" font-family="sans-serif" font-size="13" font-weight="bold" lengthAdjust="spacing" textLength="14" x="250.5" y="613.3447">16</text><text fill="#000000" font-family="sans-serif" font-size="13" lengthAdjust="spacing" textLength="32" x="268.5" y="613.3447">result</text><line style="stroke:#181818;stroke-width:1.0;" x1="233.5" x2="280.5" y1="644.8984" y2="644.8984"/><line style="stroke:#181818;stroke-width:1.0;" x1="280.5" x2="280.5" y1="644.8984" y2="657.8984"/><line style="stroke:#181818;stroke-width:1.0;" x1="239.5" x2="280.5" y1="657.8984" y2="657.8984"/><polygon fill="#181818" points="249.5,653.8984,239.5,657.8984,249.5,661.8984,245.5,657.8984" style="stroke:#181818;stroke-width:1.0;"/><text fill="#000000" font-family="sans-serif" font-size="13" font-weight="bold" lengthAdjust="spacing" textLength="14" x="245.5" y="639.6357">17</text><text fill="#000000" font-family="sans-serif" font-size="13" lengthAdjust="spacing" textLength="152" x="263.5" y="639.6357">setHttpResult(resp, result)</text><polygon fill="#181818" points="89.5,690.1895,79.5,694.1895,89.5,698.1895,85.5,694.1895" style="stroke:#181818;stroke-width:1.0;"/><line style="stroke:#181818;stroke-width:1.0;stroke-dasharray:2.0,2.0;" x1="83.5" x2="222.5" y1="694.1895" y2="694.1895"/><text fill="#000000" font-family="sans-serif" font-size="13" font-weight="bold" lengthAdjust="spacing" textLength="14" x="95.5" y="688.9268">18</text><text fill="#000000" font-family="sans-serif" font-size="13" lengthAdjust="spacing" textLength="25" x="113.5" y="688.9268">resp</text><!--SRC=[XP9DJyCm38Rl-HKH5-YqKU3O0n8gXt50JDt4FQJM5j4s8N6Bzk_9LzTcC76puyUlM_kzFY0gK-IvQbY7VTlSSjdc1hvww3YiQi7schM4i1ubuoW6Xa1bv_EkRpz04wAOHi65iWBqgW9MWoxMkzscR0HqU4MPeLEQqWVMrOt5AzaZh4FY6xP7Wz2cS16qIzcXbir8bgYRb3EW1y4XujkG1TKGfxW69IDRsT08bFheSPUcRCkKSf_hwNS1tw_-8TBfu_aKlvS0pVXpolGD5cjxbCg7aNGXiLSOBp3R9vbYkdgCYolevcsxepbJ8W-J3GaLnxYL5PJR0aBuYXixMFQQGqPSqGl5BLxYOZr11zQ8siBbhALoNZBuL-UyLNxE5QEBukn_fXh0fxs3NC-IybvhkundstYH7vrKZsqNoPSEmOv7Sz8NuqkMVh5r4JLic1JTK_gJeP8i8DmY5iRTdrkfe2Ydjzc05Fibw4fHrAiw6oqMfxK-tDrdKtbqJl3Wp2vZmMvZCgQxYLf6E3lH5f_ywBKK-G40]--></g></svg>