<?xml version="1.0" encoding="us-ascii" standalone="no"?><svg xmlns="http://www.w3.org/2000/svg" xmlns:xlink="http://www.w3.org/1999/xlink" contentStyleType="text/css" height="714px" preserveAspectRatio="none" style="width:266px;height:714px;background:#FFFFFF;" version="1.1" viewBox="0 0 266 714" width="266px" zoomAndPan="magnify"><defs/><g><!--class User--><g id="elem_User"><rect codeLine="5" fill="#F1F1F1" height="148.3477" id="User" rx="2.5" ry="2.5" style="stroke:#181818;stroke-width:0.5;" width="86" x="116" y="123"/><text fill="#000000" font-family="sans-serif" font-size="14" lengthAdjust="spacing" textLength="29" x="144.5" y="143.1074">User</text><line style="stroke:#181818;stroke-width:0.5;" x1="117" x2="201" y1="151.6211" y2="151.6211"/><text fill="#000000" font-family="sans-serif" font-size="14" lengthAdjust="spacing" textLength="16" x="122" y="170.7285">-id</text><text fill="#000000" font-family="sans-serif" font-size="14" lengthAdjust="spacing" textLength="74" x="122" y="189.3496">-modifiedBy</text><text fill="#000000" font-family="sans-serif" font-size="14" lengthAdjust="spacing" textLength="69" x="122" y="207.9707">-createdBy</text><text fill="#000000" font-family="sans-serif" font-size="14" lengthAdjust="spacing" textLength="68" x="122" y="226.5918">-username</text><text fill="#000000" font-family="sans-serif" font-size="14" lengthAdjust="spacing" textLength="65" x="122" y="245.2129">-password</text><text fill="#000000" font-family="sans-serif" font-size="14" lengthAdjust="spacing" textLength="59" x="122" y="263.834">-fullName</text></g><!--class Role--><g id="elem_Role"><rect codeLine="14" fill="#F1F1F1" height="73.8633" id="Role" rx="2.5" ry="2.5" style="stroke:#181818;stroke-width:0.5;" width="74" x="7" y="160"/><text fill="#000000" font-family="sans-serif" font-size="14" lengthAdjust="spacing" textLength="29" x="29.5" y="180.1074">Role</text><line style="stroke:#181818;stroke-width:0.5;" x1="8" x2="80" y1="188.6211" y2="188.6211"/><text fill="#000000" font-family="sans-serif" font-size="14" lengthAdjust="spacing" textLength="62" x="13" y="207.7285">-READER</text><text fill="#000000" font-family="sans-serif" font-size="14" lengthAdjust="spacing" textLength="60" x="13" y="226.3496">-authority</text></g><!--class Reader--><g id="elem_Reader"><rect codeLine="19" fill="#F1F1F1" height="185.5898" id="Reader" rx="2.5" ry="2.5" style="stroke:#181818;stroke-width:0.5;" width="110" x="104" y="350"/><text fill="#000000" font-family="sans-serif" font-size="14" lengthAdjust="spacing" textLength="47" x="135.5" y="370.1074">Reader</text><line style="stroke:#181818;stroke-width:0.5;" x1="105" x2="213" y1="378.6211" y2="378.6211"/><text fill="#000000" font-family="sans-serif" font-size="14" lengthAdjust="spacing" textLength="16" x="110" y="397.7285">-id</text><text fill="#000000" font-family="sans-serif" font-size="14" lengthAdjust="spacing" textLength="81" x="110" y="416.3496">-readerCode</text><text fill="#000000" font-family="sans-serif" font-size="14" lengthAdjust="spacing" textLength="40" x="110" y="434.9707">-name</text><text fill="#000000" font-family="sans-serif" font-size="14" lengthAdjust="spacing" textLength="38" x="110" y="453.5918">-email</text><text fill="#000000" font-family="sans-serif" font-size="14" lengthAdjust="spacing" textLength="29" x="110" y="472.2129">-age</text><text fill="#000000" font-family="sans-serif" font-size="14" lengthAdjust="spacing" textLength="94" x="110" y="490.834">-phoneNumber</text><text fill="#000000" font-family="sans-serif" font-size="14" lengthAdjust="spacing" textLength="98" x="110" y="509.4551">-GDBRConsent</text><text fill="#000000" font-family="sans-serif" font-size="14" lengthAdjust="spacing" textLength="59" x="110" y="528.0762">-interests</text></g><!--class ReaderPhoto--><g id="elem_ReaderPhoto"><rect codeLine="30" fill="#F1F1F1" height="92.4844" id="ReaderPhoto" rx="2.5" ry="2.5" style="stroke:#181818;stroke-width:0.5;" width="96" x="50" y="615"/><text fill="#000000" font-family="sans-serif" font-size="14" lengthAdjust="spacing" textLength="84" x="56" y="635.1074">ReaderPhoto</text><line style="stroke:#181818;stroke-width:0.5;" x1="51" x2="145" y1="643.6211" y2="643.6211"/><text fill="#000000" font-family="sans-serif" font-size="14" lengthAdjust="spacing" textLength="16" x="56" y="662.7285">-id</text><text fill="#000000" font-family="sans-serif" font-size="14" lengthAdjust="spacing" textLength="43" x="56" y="681.3496">-image</text><text fill="#000000" font-family="sans-serif" font-size="14" lengthAdjust="spacing" textLength="84" x="56" y="699.9707">-contentType</text></g><!--class Anonymous--><g id="elem_Anonymous"><rect fill="#F1F1F1" height="36.6211" id="Anonymous" rx="2.5" ry="2.5" style="stroke:#181818;stroke-width:0.5;" width="80" x="119" y="7"/><text fill="#000000" font-family="sans-serif" font-size="14" lengthAdjust="spacing" textLength="74" x="122" y="27.1074">Anonymous</text><line style="stroke:#181818;stroke-width:0.5;" x1="120" x2="198" y1="35.6211" y2="35.6211"/></g><!--class dateOfBirth--><g id="elem_dateOfBirth"><rect fill="#F1F1F1" height="36.6211" id="dateOfBirth" rx="2.5" ry="2.5" style="stroke:#181818;stroke-width:0.5;" width="78" x="181" y="642.5"/><text fill="#000000" font-family="sans-serif" font-size="14" lengthAdjust="spacing" textLength="72" x="184" y="662.6074">dateOfBirth</text><line style="stroke:#181818;stroke-width:0.5;" x1="182" x2="258" y1="671.1211" y2="671.1211"/></g><!--link Anonymous to User--><g id="link_Anonymous_User"><path codeLine="37" d="M159,44 C159,62.69 159,93.57 159,122.63 " fill="none" id="Anonymous-User" style="stroke:#181818;stroke-width:1.0;"/><polygon fill="#000000" points="164,88.6455,166.9389,79.6004,161.0611,79.6004,164,88.6455" style="stroke:#000000;stroke-width:1.0;"/><text fill="#000000" font-family="sans-serif" font-size="13" lengthAdjust="spacing" textLength="68" x="173" y="89.0283">registers as</text></g><!--reverse link User to Reader--><g id="link_User_Reader"><path codeLine="38" d="M159,289.21 C159,313.91 159,323.82 159,349.8 " fill="none" id="User-backto-Reader" style="stroke:#181818;stroke-width:1.0;"/><polygon fill="none" points="159,271.21,153,289.21,165,289.21,159,271.21" style="stroke:#181818;stroke-width:1.0;"/><polygon fill="#000000" points="164,305.6455,161.0611,314.6906,166.9389,314.6906,164,305.6455" style="stroke:#000000;stroke-width:1.0;"/><text fill="#000000" font-family="sans-serif" font-size="13" lengthAdjust="spacing" textLength="21" x="173" y="316.0283">is a</text></g><!--reverse link Reader to dateOfBirth--><g id="link_Reader_dateOfBirth"><path codeLine="39" d="M188.3119,547.7782 C199.5819,587.6782 208.41,618.97 215.01,642.32 " fill="none" id="Reader-backto-dateOfBirth" style="stroke:#181818;stroke-width:1.0;"/><polygon fill="#181818" points="185.05,536.23,182.8315,543.0914,188.3119,547.7782,190.5303,540.9168,185.05,536.23" style="stroke:#181818;stroke-width:1.0;"/><polygon fill="#000000" points="204.3588,580.4573,204.729,570.954,199.0724,572.5514,204.3588,580.4573" style="stroke:#000000;stroke-width:1.0;"/><text fill="#000000" font-family="sans-serif" font-size="13" lengthAdjust="spacing" textLength="32" x="212" y="581.0283">has a</text></g><!--reverse link Reader to ReaderPhoto--><g id="link_Reader_ReaderPhoto"><path codeLine="40" d="M129.691,547.779 C122.021,574.959 117.22,591.94 110.78,614.76 " fill="none" id="Reader-backto-ReaderPhoto" style="stroke:#181818;stroke-width:1.0;"/><polygon fill="#181818" points="132.95,536.23,127.4708,540.9181,129.691,547.779,135.1701,543.0908,132.95,536.23" style="stroke:#181818;stroke-width:1.0;"/><polygon fill="#000000" points="127.6414,580.4574,132.9275,572.5511,127.2707,570.9541,127.6414,580.4574" style="stroke:#000000;stroke-width:1.0;"/><text fill="#000000" font-family="sans-serif" font-size="13" lengthAdjust="spacing" textLength="32" x="138" y="581.0283">has a</text></g><!--link Role to User--><g id="link_Role_User"><path codeLine="41" d="M81.29,197 C92.82,197 104.36,197 115.89,197 " fill="none" id="Role-User" style="stroke:#181818;stroke-width:1.0;"/><text fill="#000000" font-family="sans-serif" font-size="13" lengthAdjust="spacing" textLength="7" x="89.0656" y="192.4488">1</text><text fill="#000000" font-family="sans-serif" font-size="13" lengthAdjust="spacing" textLength="7" x="100.8789" y="192.5625">1</text></g><!--SRC=[PL3BJWCn3BpdAw8UaIB15LML-XBYKj027v1kl5sB9AuIhwhbyU-ussnPGKxsU3mpSNx7UBJ91brxc_EIEU6-OtYiARxW1-XRrQ83NMEgFLpg0DoIoqeDA_ejGzAVIiip6bqf0Zbi4DogBq2TmFAaxsGjsW2bFOhKYTAutdJUxyxJxz6c8WzNcsgxt6ohqjXEyYJaVa86wo3z2vK6U4rkT9q4W63HZug7QwoM8kowi8TKa8VDgbfJp11vb8yC2JBdl_xFBJ7z2u7XLrwkp2BqsX-7dwfbfDW7wh8sZaxHN8vxBy4FcCKbQvlrGWte_CkOOYGCb96UgzBVoCZ9kP-Q5IPkPTxQCs4n9Kn2JWY3zknkfes7XirGdcylwNu0]--></g></svg>
