<?xml version="1.0" encoding="us-ascii" standalone="no"?><svg xmlns="http://www.w3.org/2000/svg" xmlns:xlink="http://www.w3.org/1999/xlink" contentStyleType="text/css" height="859px" preserveAspectRatio="none" style="width:632px;height:859px;background:#FFFFFF;" version="1.1" viewBox="0 0 632 859" width="632px" zoomAndPan="magnify"><defs/><g><!--class Reader--><g id="elem_Reader"><rect codeLine="6" fill="#F1F1F1" height="193.5898" id="Reader" rx="2.5" ry="2.5" style="stroke:#181818;stroke-width:0.5;" width="423" x="7" y="659"/><text fill="#000000" font-family="sans-serif" font-size="14" lengthAdjust="spacing" textLength="47" x="195" y="679.1074">Reader</text><line style="stroke:#181818;stroke-width:0.5;" x1="8" x2="429" y1="687.6211" y2="687.6211"/><text fill="#000000" font-family="sans-serif" font-size="14" lengthAdjust="spacing" textLength="16" x="13" y="706.7285">-id</text><text fill="#000000" font-family="sans-serif" font-size="14" lengthAdjust="spacing" textLength="40" x="13" y="725.3496">-name</text><text fill="#000000" font-family="sans-serif" font-size="14" lengthAdjust="spacing" textLength="38" x="13" y="743.9707">-email</text><text fill="#000000" font-family="sans-serif" font-size="14" lengthAdjust="spacing" textLength="77" x="13" y="762.5918">-dateOfBirth</text><text fill="#000000" font-family="sans-serif" font-size="14" lengthAdjust="spacing" textLength="94" x="13" y="781.2129">-phoneNumber</text><text fill="#000000" font-family="sans-serif" font-size="14" lengthAdjust="spacing" textLength="98" x="13" y="799.834">-GDBRConsent</text><line style="stroke:#181818;stroke-width:0.5;" x1="8" x2="429" y1="807.3477" y2="807.3477"/><text fill="#000000" font-family="sans-serif" font-size="14" lengthAdjust="spacing" textLength="86" x="13" y="826.4551">+getVersion()</text><text fill="#000000" font-family="sans-serif" font-size="14" lengthAdjust="spacing" textLength="411" x="13" y="845.0762">Reader(name, email, dateOfBirth, phoneNumber, GDBRConsent)</text></g><!--class ReaderController--><g id="elem_ReaderController"><rect codeLine="17" fill="#F1F1F1" height="63.2422" id="ReaderController" rx="2.5" ry="2.5" style="stroke:#181818;stroke-width:0.5;" width="331" x="130" y="7"/><text fill="#000000" font-family="sans-serif" font-size="14" lengthAdjust="spacing" textLength="109" x="241" y="27.1074">ReaderController</text><line style="stroke:#181818;stroke-width:0.5;" x1="131" x2="460" y1="35.6211" y2="35.6211"/><line style="stroke:#181818;stroke-width:0.5;" x1="131" x2="460" y1="43.6211" y2="43.6211"/><text fill="#000000" font-family="sans-serif" font-size="14" lengthAdjust="spacing" textLength="319" x="136" y="62.7285">+createReader(final EditReaderRequest resource)</text></g><!--class ReaderServiceImpl--><g id="elem_ReaderServiceImpl"><rect codeLine="21" fill="#F1F1F1" height="81.8633" id="ReaderServiceImpl" rx="2.5" ry="2.5" style="stroke:#181818;stroke-width:0.5;" width="270" x="160.5" y="131"/><text fill="#000000" font-family="sans-serif" font-size="14" lengthAdjust="spacing" textLength="119" x="236" y="151.1074">ReaderServiceImpl</text><line style="stroke:#181818;stroke-width:0.5;" x1="161.5" x2="429.5" y1="159.6211" y2="159.6211"/><line style="stroke:#181818;stroke-width:0.5;" x1="161.5" x2="429.5" y1="167.6211" y2="167.6211"/><text fill="#000000" font-family="sans-serif" font-size="14" lengthAdjust="spacing" textLength="161" x="166.5" y="186.7285">+createReader(resource)</text><text fill="#000000" font-family="sans-serif" font-size="14" lengthAdjust="spacing" textLength="258" x="166.5" y="205.3496">+validateCreateReaderRequest(request)</text></g><!--class ReaderViewMapper--><g id="elem_ReaderViewMapper"><rect codeLine="26" fill="#F1F1F1" height="63.2422" id="ReaderViewMapper" rx="2.5" ry="2.5" style="stroke:#181818;stroke-width:0.5;" width="160" x="465.5" y="140.5"/><text fill="#000000" font-family="sans-serif" font-size="14" lengthAdjust="spacing" textLength="124" x="483.5" y="160.6074">ReaderViewMapper</text><line style="stroke:#181818;stroke-width:0.5;" x1="466.5" x2="624.5" y1="169.1211" y2="169.1211"/><line style="stroke:#181818;stroke-width:0.5;" x1="466.5" x2="624.5" y1="177.1211" y2="177.1211"/><text fill="#000000" font-family="sans-serif" font-size="14" lengthAdjust="spacing" textLength="148" x="471.5" y="196.2285">+toReaderView(reader)</text></g><!--class EditReaderMapper--><g id="elem_EditReaderMapper"><rect codeLine="31" fill="#F1F1F1" height="63.2422" id="EditReaderMapper" rx="2.5" ry="2.5" style="stroke:#181818;stroke-width:0.5;" width="126" x="232.5" y="274"/><text fill="#000000" font-family="sans-serif" font-size="14" lengthAdjust="spacing" textLength="119" x="236" y="294.1074">EditReaderMapper</text><line style="stroke:#181818;stroke-width:0.5;" x1="233.5" x2="357.5" y1="302.6211" y2="302.6211"/><line style="stroke:#181818;stroke-width:0.5;" x1="233.5" x2="357.5" y1="310.6211" y2="310.6211"/><text fill="#000000" font-family="sans-serif" font-size="14" lengthAdjust="spacing" textLength="114" x="238.5" y="329.7285">+create(resource)</text></g><!--class ReaderRepository--><g id="elem_ReaderRepository"><rect codeLine="36" fill="#F1F1F1" height="63.2422" id="ReaderRepository" rx="2.5" ry="2.5" style="stroke:#181818;stroke-width:0.5;" width="121" x="366" y="367"/><text fill="#000000" font-family="sans-serif" font-size="14" lengthAdjust="spacing" textLength="115" x="369" y="387.1074">ReaderRepository</text><line style="stroke:#181818;stroke-width:0.5;" x1="367" x2="486" y1="395.6211" y2="395.6211"/><line style="stroke:#181818;stroke-width:0.5;" x1="367" x2="486" y1="403.6211" y2="403.6211"/><text fill="#000000" font-family="sans-serif" font-size="14" lengthAdjust="spacing" textLength="90" x="372" y="422.7285">+save(reader)</text></g><!--class EditReaderRequest--><g id="elem_EditReaderRequest"><rect codeLine="41" fill="#F1F1F1" height="137.7266" id="EditReaderRequest" rx="2.5" ry="2.5" style="stroke:#181818;stroke-width:0.5;" width="130" x="231.5" y="460"/><text fill="#000000" font-family="sans-serif" font-size="14" lengthAdjust="spacing" textLength="124" x="234.5" y="480.1074">EditReaderRequest</text><line style="stroke:#181818;stroke-width:0.5;" x1="232.5" x2="360.5" y1="488.6211" y2="488.6211"/><text fill="#000000" font-family="sans-serif" font-size="14" lengthAdjust="spacing" textLength="40" x="237.5" y="507.7285">-name</text><text fill="#000000" font-family="sans-serif" font-size="14" lengthAdjust="spacing" textLength="38" x="237.5" y="526.3496">-email</text><text fill="#000000" font-family="sans-serif" font-size="14" lengthAdjust="spacing" textLength="77" x="237.5" y="544.9707">-dateOfBirth</text><text fill="#000000" font-family="sans-serif" font-size="14" lengthAdjust="spacing" textLength="94" x="237.5" y="563.5918">-phoneNumber</text><text fill="#000000" font-family="sans-serif" font-size="14" lengthAdjust="spacing" textLength="98" x="237.5" y="582.2129">-GDBRConsent</text><line style="stroke:#181818;stroke-width:0.5;" x1="232.5" x2="360.5" y1="589.7266" y2="589.7266"/></g><!--link ReaderController to ReaderServiceImpl--><g id="link_ReaderController_ReaderServiceImpl"><path codeLine="50" d="M295.5,70.33 C295.5,88.4 295.5,105.42 295.5,124.89 " fill="none" id="ReaderController-to-ReaderServiceImpl" style="stroke:#181818;stroke-width:1.0;stroke-dasharray:7.0,7.0;"/><polygon fill="#181818" points="295.5,130.89,299.5,121.89,295.5,125.89,291.5,121.89,295.5,130.89" style="stroke:#181818;stroke-width:1.0;"/></g><!--link ReaderServiceImpl to EditReaderMapper--><g id="link_ReaderServiceImpl_EditReaderMapper"><path codeLine="51" d="M295.5,213.17 C295.5,232.66 295.5,249.69 295.5,267.76 " fill="none" id="ReaderServiceImpl-to-EditReaderMapper" style="stroke:#181818;stroke-width:1.0;stroke-dasharray:7.0,7.0;"/><polygon fill="#181818" points="295.5,273.76,299.5,264.76,295.5,268.76,291.5,264.76,295.5,273.76" style="stroke:#181818;stroke-width:1.0;"/></g><!--link ReaderServiceImpl to ReaderRepository--><g id="link_ReaderServiceImpl_ReaderRepository"><path codeLine="52" d="M331.73,213.38 C346.52,231.15 363.04,252.78 375.5,274 C393.11,304.01 405.6228,335.5851 414.5928,361.2851 " fill="none" id="ReaderServiceImpl-to-ReaderRepository" style="stroke:#181818;stroke-width:1.0;stroke-dasharray:7.0,7.0;"/><polygon fill="#181818" points="416.57,366.95,417.3808,357.1346,414.9223,362.2293,409.8276,359.7708,416.57,366.95" style="stroke:#181818;stroke-width:1.0;"/></g><!--link ReaderController to ReaderViewMapper--><g id="link_ReaderController_ReaderViewMapper"><path codeLine="53" d="M353.8,70.16 C393.91,91.26 441.6699,116.3867 481.7999,137.4967 " fill="none" id="ReaderController-to-ReaderViewMapper" style="stroke:#181818;stroke-width:1.0;stroke-dasharray:7.0,7.0;"/><polygon fill="#181818" points="487.11,140.29,481.0071,132.5599,482.6849,137.9622,477.2826,139.6401,487.11,140.29" style="stroke:#181818;stroke-width:1.0;"/></g><!--link EditReaderMapper to EditReaderRequest--><g id="link_EditReaderMapper_EditReaderRequest"><path codeLine="54" d="M295.64,337.3 C295.78,368.8 295.9836,412.7801 296.1636,453.6701 " fill="none" id="EditReaderMapper-to-EditReaderRequest" style="stroke:#181818;stroke-width:1.0;stroke-dasharray:7.0,7.0;"/><polygon fill="#181818" points="296.19,459.67,300.1503,450.6525,296.168,454.67,292.1504,450.6877,296.19,459.67" style="stroke:#181818;stroke-width:1.0;"/></g><!--link ReaderController to Reader--><g id="link_ReaderController_Reader"><path codeLine="55" d="M194.62,70.05 C150.02,90.4 107.5,122.51 107.5,171 C107.5,171 107.5,171 107.5,530 C107.5,575.19 122.7645,615.4941 144.4545,653.6441 " fill="none" id="ReaderController-to-Reader" style="stroke:#181818;stroke-width:1.0;stroke-dasharray:7.0,7.0;"/><polygon fill="#181818" points="147.42,658.86,146.449,649.0591,144.9488,654.5134,139.4945,653.0131,147.42,658.86" style="stroke:#181818;stroke-width:1.0;"/></g><!--link ReaderServiceImpl to Reader--><g id="link_ReaderServiceImpl_Reader"><path codeLine="56" d="M252.86,213.26 C237.72,230.37 222.46,251.54 214.5,274 C169.44,401.12 181.8651,553.3565 197.8951,652.7965 " fill="none" id="ReaderServiceImpl-to-Reader" style="stroke:#181818;stroke-width:1.0;stroke-dasharray:7.0,7.0;"/><polygon fill="#181818" points="198.85,658.72,201.3667,649.1981,198.0543,653.7837,193.4686,650.4713,198.85,658.72" style="stroke:#181818;stroke-width:1.0;"/></g><!--link EditReaderRequest to Reader--><g id="link_EditReaderRequest_Reader"><path codeLine="57" d="M272.89,598.12 C266.25,617.26 260.8763,632.7813 253.7863,653.2213 " fill="none" id="EditReaderRequest-to-Reader" style="stroke:#181818;stroke-width:1.0;stroke-dasharray:7.0,7.0;"/><polygon fill="#181818" points="251.82,658.89,258.5485,651.6979,253.4586,654.1661,250.9903,649.0762,251.82,658.89" style="stroke:#181818;stroke-width:1.0;"/></g><!--link ReaderRepository to Reader--><g id="link_ReaderRepository_Reader"><path codeLine="58" d="M424.32,430.33 C420.31,471.09 409.12,544.03 378.5,598 C366.31,619.49 354.379,635.5613 337.229,654.2313 " fill="none" id="ReaderRepository-to-Reader" style="stroke:#181818;stroke-width:1.0;"/><polygon fill="#181818" points="333.17,658.65,342.2042,654.7279,336.5525,654.9678,336.3126,649.316,333.17,658.65" style="stroke:#181818;stroke-width:1.0;"/><text fill="#000000" font-family="sans-serif" font-size="13" lengthAdjust="spacing" textLength="43" x="422.5" y="534.5283">records</text><text fill="#000000" font-family="sans-serif" font-size="13" lengthAdjust="spacing" textLength="7" x="416.2018" y="452.3031">1</text><text fill="#000000" font-family="sans-serif" font-size="13" lengthAdjust="spacing" textLength="20" x="321.1838" y="647.601">0..*</text></g><!--SRC=[hLAnJiCm4Dtz5LOMMaZIidQeH0j27G0fbReRvzfOEBQndIAe-7USn10tgJAH9QTtT- -zEzzLOQqoYzbCSI9iLVAKod96EJ4coHavQ58YLB0SC6MQSa3cZGb578oReZjhDNkjB6oe55ls1NYEK9F16P0Sz0bXzoMOvJuGf0GVGaaOzt5EBBpiLqpRmYEga0AUg_8Lj4SUxrVPMWe3mZR83Jw0tO4sJ8h9j85QqKaj4hVySKWTXwnnI3X5t-V67MwrvDofdxmQrU2elCIU2SBnGyvi2sJmNe6nM8EHbQPG4uPyMz17Hc5JAdwPi6jiaqV2MMrz7HHv4LVR_FiQEmOVJqIfmBELNSgrrM4mQcU_rzOwcuJ3d2bbeAHXLkhFlnP3ZZ2cuBsZq_yUWbFgFnXEq-M5hG-GfcwmWijbWx57H8DdwBFt97ztCa8swWSDxs_GsNd6qMs4asI9etcQNaU-RE5EbagT6_G3]--></g></svg>