<?xml version="1.0" encoding="us-ascii" standalone="no"?><svg xmlns="http://www.w3.org/2000/svg" xmlns:xlink="http://www.w3.org/1999/xlink" contentStyleType="text/css" height="850px" preserveAspectRatio="none" style="width:1875px;height:850px;background:#FFFFFF;" version="1.1" viewBox="0 0 1875 850" width="1875px" zoomAndPan="magnify"><defs/><g><rect fill="#FFFFFF" height="755.7324" style="stroke:#181818;stroke-width:1.0;" width="10" x="73" y="48.6211"/><rect fill="#FFFFFF" height="732.4414" style="stroke:#181818;stroke-width:1.0;" width="10" x="232.5" y="71.9121"/><rect fill="#FFFFFF" height="36.291" style="stroke:#181818;stroke-width:1.0;" width="10" x="237.5" y="759.0625"/><rect fill="#FFFFFF" height="701.1504" style="stroke:#181818;stroke-width:1.0;" width="10" x="482.5" y="103.2031"/><rect fill="#FFFFFF" height="79.9121" style="stroke:#181818;stroke-width:1.0;" width="10" x="487.5" y="639.8594"/><rect fill="#FFFFFF" height="403.4922" style="stroke:#181818;stroke-width:1.0;" width="10" x="802.5" y="134.4941"/><rect fill="#FFFFFF" height="42.291" style="stroke:#181818;stroke-width:1.0;" width="10" x="807.5" y="173.7852"/><rect fill="#FFFFFF" height="31.291" style="stroke:#181818;stroke-width:1.0;" width="10" x="1062.5" y="316.9492"/><rect fill="#FFFFFF" height="31.291" style="stroke:#181818;stroke-width:1.0;" width="10" x="1062.5" y="475.4043"/><rect fill="#FFFFFF" height="31.291" style="stroke:#181818;stroke-width:1.0;" width="10" x="1241" y="254.3672"/><rect fill="#FFFFFF" height="31.291" style="stroke:#181818;stroke-width:1.0;" width="10" x="1433.5" y="569.2773"/><rect fill="#FFFFFF" height="31.291" style="stroke:#181818;stroke-width:1.0;" width="10" x="1636" y="405.8223"/><rect fill="none" height="81.873" style="stroke:#000000;stroke-width:1.5;" width="1042" x="709" y="363.2402"/><line style="stroke:#181818;stroke-width:0.5;stroke-dasharray:5.0,5.0;" x1="78" x2="78" y1="38.6211" y2="813.3535"/><line style="stroke:#181818;stroke-width:0.5;stroke-dasharray:5.0,5.0;" x1="237" x2="237" y1="38.6211" y2="813.3535"/><line style="stroke:#181818;stroke-width:0.5;stroke-dasharray:5.0,5.0;" x1="487.5" x2="487.5" y1="38.6211" y2="813.3535"/><line style="stroke:#181818;stroke-width:0.5;stroke-dasharray:5.0,5.0;" x1="807" x2="807" y1="38.6211" y2="813.3535"/><line style="stroke:#181818;stroke-width:0.5;stroke-dasharray:5.0,5.0;" x1="1067" x2="1067" y1="38.6211" y2="813.3535"/><line style="stroke:#181818;stroke-width:0.5;stroke-dasharray:5.0,5.0;" x1="1246" x2="1246" y1="38.6211" y2="813.3535"/><line style="stroke:#181818;stroke-width:0.5;stroke-dasharray:5.0,5.0;" x1="1438" x2="1438" y1="38.6211" y2="813.3535"/><line style="stroke:#181818;stroke-width:0.5;stroke-dasharray:5.0,5.0;" x1="1641" x2="1641" y1="38.6211" y2="813.3535"/><line style="stroke:#181818;stroke-width:0.5;stroke-dasharray:5.0,5.0;" x1="1810" x2="1810" y1="684.6699" y2="813.3535"/><rect fill="#E2E2F0" height="32.6211" rx="2.5" ry="2.5" style="stroke:#181818;stroke-width:0.5;" width="146" x="5" y="5"/><text fill="#000000" font-family="sans-serif" font-size="14" lengthAdjust="spacing" textLength="132" x="12" y="27.1074">Librarian:HTTPClient</text><rect fill="#E2E2F0" height="32.6211" rx="2.5" ry="2.5" style="stroke:#181818;stroke-width:0.5;" width="146" x="5" y="812.3535"/><text fill="#000000" font-family="sans-serif" font-size="14" lengthAdjust="spacing" textLength="132" x="12" y="834.4609">Librarian:HTTPClient</text><rect fill="#E2E2F0" height="32.6211" rx="2.5" ry="2.5" style="stroke:#181818;stroke-width:0.5;" width="153" x="161" y="5"/><text fill="#000000" font-family="sans-serif" font-size="14" lengthAdjust="spacing" textLength="139" x="168" y="27.1074">handler:RouteHandler</text><rect fill="#E2E2F0" height="32.6211" rx="2.5" ry="2.5" style="stroke:#181818;stroke-width:0.5;" width="153" x="161" y="812.3535"/><text fill="#000000" font-family="sans-serif" font-size="14" lengthAdjust="spacing" textLength="139" x="168" y="834.4609">handler:RouteHandler</text><rect fill="#E2E2F0" height="32.6211" rx="2.5" ry="2.5" style="stroke:#181818;stroke-width:0.5;" width="122" x="426.5" y="5"/><text fill="#000000" font-family="sans-serif" font-size="14" lengthAdjust="spacing" textLength="108" x="433.5" y="27.1074">:AuthorController</text><rect fill="#E2E2F0" height="32.6211" rx="2.5" ry="2.5" style="stroke:#181818;stroke-width:0.5;" width="122" x="426.5" y="812.3535"/><text fill="#000000" font-family="sans-serif" font-size="14" lengthAdjust="spacing" textLength="108" x="433.5" y="834.4609">:AuthorController</text><rect fill="#E2E2F0" height="32.6211" rx="2.5" ry="2.5" style="stroke:#181818;stroke-width:0.5;" width="177" x="719" y="5"/><text fill="#000000" font-family="sans-serif" font-size="14" lengthAdjust="spacing" textLength="163" x="726" y="27.1074">service:AuthorServiceImpl</text><rect fill="#E2E2F0" height="32.6211" rx="2.5" ry="2.5" style="stroke:#181818;stroke-width:0.5;" width="177" x="719" y="812.3535"/><text fill="#000000" font-family="sans-serif" font-size="14" lengthAdjust="spacing" textLength="163" x="726" y="834.4609">service:AuthorServiceImpl</text><rect fill="#E2E2F0" height="32.6211" rx="2.5" ry="2.5" style="stroke:#181818;stroke-width:0.5;" width="157" x="989" y="5"/><text fill="#000000" font-family="sans-serif" font-size="14" lengthAdjust="spacing" textLength="143" x="996" y="27.1074">repo:AuthorRepository</text><rect fill="#E2E2F0" height="32.6211" rx="2.5" ry="2.5" style="stroke:#181818;stroke-width:0.5;" width="157" x="989" y="812.3535"/><text fill="#000000" font-family="sans-serif" font-size="14" lengthAdjust="spacing" textLength="143" x="996" y="834.4609">repo:AuthorRepository</text><rect fill="#E2E2F0" height="32.6211" rx="2.5" ry="2.5" style="stroke:#181818;stroke-width:0.5;" width="180" x="1156" y="5"/><text fill="#000000" font-family="sans-serif" font-size="14" lengthAdjust="spacing" textLength="166" x="1163" y="27.1074">mapper:EditAuthorMapper</text><rect fill="#E2E2F0" height="32.6211" rx="2.5" ry="2.5" style="stroke:#181818;stroke-width:0.5;" width="180" x="1156" y="812.3535"/><text fill="#000000" font-family="sans-serif" font-size="14" lengthAdjust="spacing" textLength="166" x="1163" y="834.4609">mapper:EditAuthorMapper</text><rect fill="#E2E2F0" height="32.6211" rx="2.5" ry="2.5" style="stroke:#181818;stroke-width:0.5;" width="185" x="1346" y="5"/><text fill="#000000" font-family="sans-serif" font-size="14" lengthAdjust="spacing" textLength="171" x="1353" y="27.1074">mapper:AuthorViewMapper</text><rect fill="#E2E2F0" height="32.6211" rx="2.5" ry="2.5" style="stroke:#181818;stroke-width:0.5;" width="185" x="1346" y="812.3535"/><text fill="#000000" font-family="sans-serif" font-size="14" lengthAdjust="spacing" textLength="171" x="1353" y="834.4609">mapper:AuthorViewMapper</text><rect fill="#E2E2F0" height="32.6211" rx="2.5" ry="2.5" style="stroke:#181818;stroke-width:0.5;" width="200" x="1541" y="5"/><text fill="#000000" font-family="sans-serif" font-size="14" lengthAdjust="spacing" textLength="186" x="1548" y="27.1074">storage:PhotoStorageService</text><rect fill="#E2E2F0" height="32.6211" rx="2.5" ry="2.5" style="stroke:#181818;stroke-width:0.5;" width="200" x="1541" y="812.3535"/><text fill="#000000" font-family="sans-serif" font-size="14" lengthAdjust="spacing" textLength="186" x="1548" y="834.4609">storage:PhotoStorageService</text><rect fill="#E2E2F0" height="32.6211" rx="2.5" ry="2.5" style="stroke:#181818;stroke-width:0.5;" width="118" x="1751" y="812.3535"/><text fill="#000000" font-family="sans-serif" font-size="14" lengthAdjust="spacing" textLength="104" x="1758" y="834.4609">result:HttpResult</text><rect fill="#FFFFFF" height="755.7324" style="stroke:#181818;stroke-width:1.0;" width="10" x="73" y="48.6211"/><rect fill="#FFFFFF" height="732.4414" style="stroke:#181818;stroke-width:1.0;" width="10" x="232.5" y="71.9121"/><rect fill="#FFFFFF" height="36.291" style="stroke:#181818;stroke-width:1.0;" width="10" x="237.5" y="759.0625"/><rect fill="#FFFFFF" height="701.1504" style="stroke:#181818;stroke-width:1.0;" width="10" x="482.5" y="103.2031"/><rect fill="#FFFFFF" height="79.9121" style="stroke:#181818;stroke-width:1.0;" width="10" x="487.5" y="639.8594"/><rect fill="#FFFFFF" height="403.4922" style="stroke:#181818;stroke-width:1.0;" width="10" x="802.5" y="134.4941"/><rect fill="#FFFFFF" height="42.291" style="stroke:#181818;stroke-width:1.0;" width="10" x="807.5" y="173.7852"/><rect fill="#FFFFFF" height="31.291" style="stroke:#181818;stroke-width:1.0;" width="10" x="1062.5" y="316.9492"/><rect fill="#FFFFFF" height="31.291" style="stroke:#181818;stroke-width:1.0;" width="10" x="1062.5" y="475.4043"/><rect fill="#FFFFFF" height="31.291" style="stroke:#181818;stroke-width:1.0;" width="10" x="1241" y="254.3672"/><rect fill="#FFFFFF" height="31.291" style="stroke:#181818;stroke-width:1.0;" width="10" x="1433.5" y="569.2773"/><rect fill="#FFFFFF" height="31.291" style="stroke:#181818;stroke-width:1.0;" width="10" x="1636" y="405.8223"/><polygon fill="#181818" points="220.5,67.9121,230.5,71.9121,220.5,75.9121,224.5,71.9121" style="stroke:#181818;stroke-width:1.0;"/><line style="stroke:#181818;stroke-width:1.0;" x1="83" x2="226.5" y1="71.9121" y2="71.9121"/><text fill="#000000" font-family="sans-serif" font-size="13" font-weight="bold" lengthAdjust="spacing" textLength="7" x="90" y="66.6494">1</text><text fill="#000000" font-family="sans-serif" font-size="13" lengthAdjust="spacing" textLength="109" x="101" y="66.6494">PUT /authors(data)</text><polygon fill="#181818" points="470.5,99.2031,480.5,103.2031,470.5,107.2031,474.5,103.2031" style="stroke:#181818;stroke-width:1.0;"/><line style="stroke:#181818;stroke-width:1.0;" x1="242.5" x2="476.5" y1="103.2031" y2="103.2031"/><text fill="#000000" font-family="sans-serif" font-size="13" font-weight="bold" lengthAdjust="spacing" textLength="7" x="249.5" y="97.9404">2</text><text fill="#000000" font-family="sans-serif" font-size="13" lengthAdjust="spacing" textLength="210" x="260.5" y="97.9404">createAuthor(resource, authorPhoto)</text><polygon fill="#181818" points="790.5,130.4941,800.5,134.4941,790.5,138.4941,794.5,134.4941" style="stroke:#181818;stroke-width:1.0;"/><line style="stroke:#181818;stroke-width:1.0;" x1="492.5" x2="796.5" y1="134.4941" y2="134.4941"/><text fill="#000000" font-family="sans-serif" font-size="13" font-weight="bold" lengthAdjust="spacing" textLength="7" x="499.5" y="129.2314">3</text><text fill="#000000" font-family="sans-serif" font-size="13" lengthAdjust="spacing" textLength="210" x="510.5" y="129.2314">createAuthor(resource, authorPhoto)</text><line style="stroke:#181818;stroke-width:1.0;" x1="812.5" x2="859.5" y1="160.7852" y2="160.7852"/><line style="stroke:#181818;stroke-width:1.0;" x1="859.5" x2="859.5" y1="160.7852" y2="173.7852"/><line style="stroke:#181818;stroke-width:1.0;" x1="818.5" x2="859.5" y1="173.7852" y2="173.7852"/><polygon fill="#181818" points="828.5,169.7852,818.5,173.7852,828.5,177.7852,824.5,173.7852" style="stroke:#181818;stroke-width:1.0;"/><text fill="#000000" font-family="sans-serif" font-size="13" font-weight="bold" lengthAdjust="spacing" textLength="7" x="824.5" y="155.5225">4</text><text fill="#000000" font-family="sans-serif" font-size="13" lengthAdjust="spacing" textLength="225" x="835.5" y="155.5225">validateCreateAuthorRequest(resource)</text><line style="stroke:#181818;stroke-width:1.0;stroke-dasharray:2.0,2.0;" x1="817.5" x2="859.5" y1="215.0762" y2="215.0762"/><line style="stroke:#181818;stroke-width:1.0;stroke-dasharray:2.0,2.0;" x1="859.5" x2="859.5" y1="215.0762" y2="228.0762"/><line style="stroke:#181818;stroke-width:1.0;stroke-dasharray:2.0,2.0;" x1="812.5" x2="859.5" y1="228.0762" y2="228.0762"/><polygon fill="#181818" points="822.5,224.0762,812.5,228.0762,822.5,232.0762,818.5,228.0762" style="stroke:#181818;stroke-width:1.0;"/><text fill="#000000" font-family="sans-serif" font-size="13" font-weight="bold" lengthAdjust="spacing" textLength="7" x="824.5" y="209.8135">5</text><text fill="#000000" font-family="sans-serif" font-size="13" lengthAdjust="spacing" textLength="14" x="835.5" y="209.8135">ok</text><polygon fill="#181818" points="1229,250.3672,1239,254.3672,1229,258.3672,1233,254.3672" style="stroke:#181818;stroke-width:1.0;"/><line style="stroke:#181818;stroke-width:1.0;" x1="812.5" x2="1235" y1="254.3672" y2="254.3672"/><text fill="#000000" font-family="sans-serif" font-size="13" font-weight="bold" lengthAdjust="spacing" textLength="7" x="819.5" y="249.1045">6</text><text fill="#000000" font-family="sans-serif" font-size="13" lengthAdjust="spacing" textLength="94" x="830.5" y="249.1045">create(resource)</text><polygon fill="#181818" points="823.5,281.6582,813.5,285.6582,823.5,289.6582,819.5,285.6582" style="stroke:#181818;stroke-width:1.0;"/><line style="stroke:#181818;stroke-width:1.0;stroke-dasharray:2.0,2.0;" x1="817.5" x2="1245" y1="285.6582" y2="285.6582"/><text fill="#000000" font-family="sans-serif" font-size="13" font-weight="bold" lengthAdjust="spacing" textLength="7" x="829.5" y="280.3955">7</text><text fill="#000000" font-family="sans-serif" font-size="13" lengthAdjust="spacing" textLength="36" x="840.5" y="280.3955">author</text><polygon fill="#181818" points="1050.5,312.9492,1060.5,316.9492,1050.5,320.9492,1054.5,316.9492" style="stroke:#181818;stroke-width:1.0;"/><line style="stroke:#181818;stroke-width:1.0;" x1="812.5" x2="1056.5" y1="316.9492" y2="316.9492"/><text fill="#000000" font-family="sans-serif" font-size="13" font-weight="bold" lengthAdjust="spacing" textLength="7" x="819.5" y="311.6865">8</text><text fill="#000000" font-family="sans-serif" font-size="13" lengthAdjust="spacing" textLength="70" x="830.5" y="311.6865">save(author)</text><polygon fill="#181818" points="823.5,344.2402,813.5,348.2402,823.5,352.2402,819.5,348.2402" style="stroke:#181818;stroke-width:1.0;"/><line style="stroke:#181818;stroke-width:1.0;stroke-dasharray:2.0,2.0;" x1="817.5" x2="1066.5" y1="348.2402" y2="348.2402"/><text fill="#000000" font-family="sans-serif" font-size="13" font-weight="bold" lengthAdjust="spacing" textLength="7" x="829.5" y="342.9775">9</text><text fill="#000000" font-family="sans-serif" font-size="13" lengthAdjust="spacing" textLength="36" x="840.5" y="342.9775">author</text><path d="M709,363.2402 L770,363.2402 L770,372.5313 L760,382.5313 L709,382.5313 L709,363.2402 " fill="#EEEEEE" style="stroke:#000000;stroke-width:1.5;"/><rect fill="none" height="81.873" style="stroke:#000000;stroke-width:1.5;" width="1042" x="709" y="363.2402"/><text fill="#000000" font-family="sans-serif" font-size="13" font-weight="bold" lengthAdjust="spacing" textLength="16" x="724" y="378.2686">alt</text><text fill="#000000" font-family="sans-serif" font-size="11" font-weight="bold" lengthAdjust="spacing" textLength="151" x="785" y="377.1104">[If authorPhoto is provided]</text><polygon fill="#181818" points="1624,401.8223,1634,405.8223,1624,409.8223,1628,405.8223" style="stroke:#181818;stroke-width:1.0;"/><line style="stroke:#181818;stroke-width:1.0;" x1="812.5" x2="1630" y1="405.8223" y2="405.8223"/><text fill="#000000" font-family="sans-serif" font-size="13" font-weight="bold" lengthAdjust="spacing" textLength="14" x="819.5" y="400.5596">10</text><text fill="#000000" font-family="sans-serif" font-size="13" lengthAdjust="spacing" textLength="294" x="837.5" y="400.5596">doUploadFile(author.getId().toString(), authorPhoto)</text><polygon fill="#181818" points="823.5,433.1133,813.5,437.1133,823.5,441.1133,819.5,437.1133" style="stroke:#181818;stroke-width:1.0;"/><line style="stroke:#181818;stroke-width:1.0;stroke-dasharray:2.0,2.0;" x1="817.5" x2="1640" y1="437.1133" y2="437.1133"/><text fill="#000000" font-family="sans-serif" font-size="13" font-weight="bold" lengthAdjust="spacing" textLength="14" x="829.5" y="431.8506">11</text><text fill="#000000" font-family="sans-serif" font-size="13" lengthAdjust="spacing" textLength="14" x="847.5" y="431.8506">ok</text><polygon fill="#181818" points="1050.5,471.4043,1060.5,475.4043,1050.5,479.4043,1054.5,475.4043" style="stroke:#181818;stroke-width:1.0;"/><line style="stroke:#181818;stroke-width:1.0;" x1="812.5" x2="1056.5" y1="475.4043" y2="475.4043"/><text fill="#000000" font-family="sans-serif" font-size="13" font-weight="bold" lengthAdjust="spacing" textLength="14" x="819.5" y="470.1416">12</text><text fill="#000000" font-family="sans-serif" font-size="13" lengthAdjust="spacing" textLength="70" x="837.5" y="470.1416">save(author)</text><polygon fill="#181818" points="823.5,502.6953,813.5,506.6953,823.5,510.6953,819.5,506.6953" style="stroke:#181818;stroke-width:1.0;"/><line style="stroke:#181818;stroke-width:1.0;stroke-dasharray:2.0,2.0;" x1="817.5" x2="1066.5" y1="506.6953" y2="506.6953"/><text fill="#000000" font-family="sans-serif" font-size="13" font-weight="bold" lengthAdjust="spacing" textLength="14" x="829.5" y="501.4326">13</text><text fill="#000000" font-family="sans-serif" font-size="13" lengthAdjust="spacing" textLength="36" x="847.5" y="501.4326">author</text><polygon fill="#181818" points="503.5,533.9863,493.5,537.9863,503.5,541.9863,499.5,537.9863" style="stroke:#181818;stroke-width:1.0;"/><line style="stroke:#181818;stroke-width:1.0;stroke-dasharray:2.0,2.0;" x1="497.5" x2="806.5" y1="537.9863" y2="537.9863"/><text fill="#000000" font-family="sans-serif" font-size="13" font-weight="bold" lengthAdjust="spacing" textLength="14" x="509.5" y="532.7236">14</text><text fill="#000000" font-family="sans-serif" font-size="13" lengthAdjust="spacing" textLength="36" x="527.5" y="532.7236">author</text><polygon fill="#181818" points="1421.5,565.2773,1431.5,569.2773,1421.5,573.2773,1425.5,569.2773" style="stroke:#181818;stroke-width:1.0;"/><line style="stroke:#181818;stroke-width:1.0;" x1="492.5" x2="1427.5" y1="569.2773" y2="569.2773"/><text fill="#000000" font-family="sans-serif" font-size="13" font-weight="bold" lengthAdjust="spacing" textLength="14" x="499.5" y="564.0146">15</text><text fill="#000000" font-family="sans-serif" font-size="13" lengthAdjust="spacing" textLength="121" x="517.5" y="564.0146">toAuthorView(author)</text><polygon fill="#181818" points="503.5,596.5684,493.5,600.5684,503.5,604.5684,499.5,600.5684" style="stroke:#181818;stroke-width:1.0;"/><line style="stroke:#181818;stroke-width:1.0;stroke-dasharray:2.0,2.0;" x1="497.5" x2="1437.5" y1="600.5684" y2="600.5684"/><text fill="#000000" font-family="sans-serif" font-size="13" font-weight="bold" lengthAdjust="spacing" textLength="14" x="509.5" y="595.3057">16</text><text fill="#000000" font-family="sans-serif" font-size="13" lengthAdjust="spacing" textLength="64" x="527.5" y="595.3057">authorView</text><line style="stroke:#181818;stroke-width:1.0;" x1="492.5" x2="539.5" y1="626.8594" y2="626.8594"/><line style="stroke:#181818;stroke-width:1.0;" x1="539.5" x2="539.5" y1="626.8594" y2="639.8594"/><line style="stroke:#181818;stroke-width:1.0;" x1="498.5" x2="539.5" y1="639.8594" y2="639.8594"/><polygon fill="#181818" points="508.5,635.8594,498.5,639.8594,508.5,643.8594,504.5,639.8594" style="stroke:#181818;stroke-width:1.0;"/><text fill="#000000" font-family="sans-serif" font-size="13" font-weight="bold" lengthAdjust="spacing" textLength="14" x="504.5" y="621.5967">17</text><text fill="#000000" font-family="sans-serif" font-size="13" lengthAdjust="spacing" textLength="278" x="522.5" y="621.5967">build new URI with ServletUriComponentsBuilder</text><polygon fill="#181818" points="1739,672.1504,1749,676.1504,1739,680.1504,1743,676.1504" style="stroke:#181818;stroke-width:1.0;"/><line style="stroke:#181818;stroke-width:1.0;stroke-dasharray:2.0,2.0;" x1="497.5" x2="1745" y1="676.1504" y2="676.1504"/><text fill="#000000" font-family="sans-serif" font-size="13" font-weight="bold" lengthAdjust="spacing" textLength="14" x="504.5" y="670.8877">18</text><text fill="#000000" font-family="sans-serif" font-size="13" lengthAdjust="spacing" textLength="440" x="522.5" y="670.8877">ResponseEntity.created(newUri).eTag(author.getVersion()).body(authorView)</text><rect fill="#E2E2F0" height="32.6211" rx="2.5" ry="2.5" style="stroke:#181818;stroke-width:0.5;" width="118" x="1751" y="652.8594"/><text fill="#000000" font-family="sans-serif" font-size="14" lengthAdjust="spacing" textLength="104" x="1758" y="674.9668">result:HttpResult</text><polygon fill="#181818" points="253.5,715.7715,243.5,719.7715,253.5,723.7715,249.5,719.7715" style="stroke:#181818;stroke-width:1.0;"/><line style="stroke:#181818;stroke-width:1.0;stroke-dasharray:2.0,2.0;" x1="247.5" x2="481.5" y1="719.7715" y2="719.7715"/><text fill="#000000" font-family="sans-serif" font-size="13" font-weight="bold" lengthAdjust="spacing" textLength="14" x="259.5" y="714.5088">19</text><text fill="#000000" font-family="sans-serif" font-size="13" lengthAdjust="spacing" textLength="32" x="277.5" y="714.5088">result</text><line style="stroke:#181818;stroke-width:1.0;" x1="242.5" x2="289.5" y1="746.0625" y2="746.0625"/><line style="stroke:#181818;stroke-width:1.0;" x1="289.5" x2="289.5" y1="746.0625" y2="759.0625"/><line style="stroke:#181818;stroke-width:1.0;" x1="248.5" x2="289.5" y1="759.0625" y2="759.0625"/><polygon fill="#181818" points="258.5,755.0625,248.5,759.0625,258.5,763.0625,254.5,759.0625" style="stroke:#181818;stroke-width:1.0;"/><text fill="#000000" font-family="sans-serif" font-size="13" font-weight="bold" lengthAdjust="spacing" textLength="14" x="254.5" y="740.7998">20</text><text fill="#000000" font-family="sans-serif" font-size="13" lengthAdjust="spacing" textLength="152" x="272.5" y="740.7998">setHttpResult(resp, result)</text><polygon fill="#181818" points="94,791.3535,84,795.3535,94,799.3535,90,795.3535" style="stroke:#181818;stroke-width:1.0;"/><line style="stroke:#181818;stroke-width:1.0;stroke-dasharray:2.0,2.0;" x1="88" x2="231.5" y1="795.3535" y2="795.3535"/><text fill="#000000" font-family="sans-serif" font-size="13" font-weight="bold" lengthAdjust="spacing" textLength="14" x="100" y="790.0908">21</text><text fill="#000000" font-family="sans-serif" font-size="13" lengthAdjust="spacing" textLength="25" x="118" y="790.0908">resp</text><!--SRC=[dLDBZziW4BxpAz2UxDNMlNEer4PR9L8hHNdidOHfWag0mZXH_drvs05xzr3Lfndc-pxFa_Te-17bbIDGemaFlkul1t24MEvG7gNb6kdJ3tbmt4cksNAtMo-K18rFb7jQt2dXpBLGuDZ6z0ZBx2J2zkuHBbCm-zhZsRY5qUYC6f4BT6gAy-2kyWW3V9kzrSMgh9pzASM1DGD-4qmlqRXxWaTtYhrmQqFAhq9YPlnC3mazV_oGcG5l4cuLixYpOa8c_0HiVJPejjaPIaYy-drUa-yLiYMYtIHpg2UQX3pcMOs659j- -ZBCWD7rVaS_yvIqRmH7tf8SYg3OVaQF3e9MBgm9FpQzEy8BpQIKOaiYCiaEu_ad4XdG4-ALAndoW4Kbi84_FNXywBI5MLFDxudaV5vZKfNC73BLoybEDEF6CEhv5PeSRKby-fZ75TBLhxfcAZsrpbob045e-2hfUjYC2hEtod3nNQhnLzq9S2MQjeim9_MfQMSDZOgrpBlsW1R_NqxTyxmPOsISVjbpHj6KKtY85y0xbHWgIZbowAKILCEDxZShUfDuJbafmBsJ2tEnHeTrzjyY31vvfBhY8Jm_isW5b8TNZHBlNTu0qGJD8D5siEEdghrluBmqkcdRxc34lIcfjKLyF9ryWzMvZ04FM0upRfjz6S3bk0Ay76JIikGl]--></g></svg>