<?xml version="1.0" encoding="us-ascii" standalone="no"?><svg xmlns="http://www.w3.org/2000/svg" xmlns:xlink="http://www.w3.org/1999/xlink" contentStyleType="text/css" height="387px" preserveAspectRatio="none" style="width:704px;height:387px;background:#FFFFFF;" version="1.1" viewBox="0 0 704 387" width="704px" zoomAndPan="magnify"><defs/><g><rect fill="#FFFFFF" height="202.0859" style="stroke:#181818;stroke-width:1.0;" width="10" x="31" y="93.6211"/><rect fill="#FFFFFF" height="178.7949" style="stroke:#181818;stroke-width:1.0;" width="10" x="481" y="116.9121"/><rect fill="#FFFFFF" height="113.2129" style="stroke:#181818;stroke-width:1.0;" width="10" x="486" y="182.4941"/><rect fill="#FFFFFF" height="43.291" style="stroke:#181818;stroke-width:1.0;" width="10" x="491" y="243.416"/><rect fill="none" height="124.5039" style="stroke:#000000;stroke-width:1.5;" width="253" x="444" y="131.9121"/><line style="stroke:#181818;stroke-width:0.5;stroke-dasharray:5.0,5.0;" x1="36" x2="36" y1="83.6211" y2="304.707"/><line style="stroke:#181818;stroke-width:0.5;stroke-dasharray:5.0,5.0;" x1="486" x2="486" y1="83.6211" y2="304.707"/><text fill="#000000" font-family="sans-serif" font-size="14" lengthAdjust="spacing" textLength="56" x="5" y="80.1074">Librarian</text><ellipse cx="36" cy="13.5" fill="#E2E2F0" rx="8" ry="8" style="stroke:#181818;stroke-width:0.5;"/><path d="M36,21.5 L36,48.5 M23,29.5 L49,29.5 M36,48.5 L23,63.5 M36,48.5 L49,63.5 " fill="none" style="stroke:#181818;stroke-width:0.5;"/><text fill="#000000" font-family="sans-serif" font-size="14" lengthAdjust="spacing" textLength="56" x="5" y="318.8145">Librarian</text><ellipse cx="36" cy="330.8281" fill="#E2E2F0" rx="8" ry="8" style="stroke:#181818;stroke-width:0.5;"/><path d="M36,338.8281 L36,365.8281 M23,346.8281 L49,346.8281 M36,365.8281 L23,380.8281 M36,365.8281 L49,380.8281 " fill="none" style="stroke:#181818;stroke-width:0.5;"/><rect fill="#E2E2F0" height="32.6211" rx="2.5" ry="2.5" style="stroke:#181818;stroke-width:0.5;" width="64" x="454" y="50"/><text fill="#000000" font-family="sans-serif" font-size="14" lengthAdjust="spacing" textLength="50" x="461" y="72.1074">:System</text><rect fill="#E2E2F0" height="32.6211" rx="2.5" ry="2.5" style="stroke:#181818;stroke-width:0.5;" width="64" x="454" y="303.707"/><text fill="#000000" font-family="sans-serif" font-size="14" lengthAdjust="spacing" textLength="50" x="461" y="325.8145">:System</text><rect fill="#FFFFFF" height="202.0859" style="stroke:#181818;stroke-width:1.0;" width="10" x="31" y="93.6211"/><rect fill="#FFFFFF" height="178.7949" style="stroke:#181818;stroke-width:1.0;" width="10" x="481" y="116.9121"/><rect fill="#FFFFFF" height="113.2129" style="stroke:#181818;stroke-width:1.0;" width="10" x="486" y="182.4941"/><rect fill="#FFFFFF" height="43.291" style="stroke:#181818;stroke-width:1.0;" width="10" x="491" y="243.416"/><polygon fill="#181818" points="469,112.9121,479,116.9121,469,120.9121,473,116.9121" style="stroke:#181818;stroke-width:1.0;"/><line style="stroke:#181818;stroke-width:1.0;" x1="41" x2="475" y1="116.9121" y2="116.9121"/><text fill="#000000" font-family="sans-serif" font-size="13" font-weight="bold" lengthAdjust="spacing" textLength="7" x="48" y="111.6494">1</text><text fill="#000000" font-family="sans-serif" font-size="13" lengthAdjust="spacing" textLength="410" x="59" y="111.6494">Requests to register an author with name, short bio, and optional photo</text><path d="M444,131.9121 L505,131.9121 L505,141.2031 L495,151.2031 L444,151.2031 L444,131.9121 " fill="#EEEEEE" style="stroke:#000000;stroke-width:1.5;"/><rect fill="none" height="124.5039" style="stroke:#000000;stroke-width:1.5;" width="253" x="444" y="131.9121"/><text fill="#000000" font-family="sans-serif" font-size="13" font-weight="bold" lengthAdjust="spacing" textLength="16" x="459" y="146.9404">alt</text><text fill="#000000" font-family="sans-serif" font-size="11" font-weight="bold" lengthAdjust="spacing" textLength="115" x="520" y="145.7822">[If photo is provided]</text><line style="stroke:#181818;stroke-width:1.0;" x1="491" x2="538" y1="169.4941" y2="169.4941"/><line style="stroke:#181818;stroke-width:1.0;" x1="538" x2="538" y1="169.4941" y2="182.4941"/><line style="stroke:#181818;stroke-width:1.0;" x1="497" x2="538" y1="182.4941" y2="182.4941"/><polygon fill="#181818" points="507,178.4941,497,182.4941,507,186.4941,503,182.4941" style="stroke:#181818;stroke-width:1.0;"/><text fill="#000000" font-family="sans-serif" font-size="13" font-weight="bold" lengthAdjust="spacing" textLength="7" x="503" y="164.2314">2</text><text fill="#000000" font-family="sans-serif" font-size="13" lengthAdjust="spacing" textLength="171" x="514" y="164.2314">Save author details and photo</text><line style="stroke:#000000;stroke-width:1.0;stroke-dasharray:2.0,2.0;" x1="444" x2="697" y1="196.4941" y2="196.4941"/><text fill="#000000" font-family="sans-serif" font-size="11" font-weight="bold" lengthAdjust="spacing" textLength="67" x="449" y="208.3643">[If no photo]</text><line style="stroke:#181818;stroke-width:1.0;" x1="496" x2="543" y1="230.416" y2="230.416"/><line style="stroke:#181818;stroke-width:1.0;" x1="543" x2="543" y1="230.416" y2="243.416"/><line style="stroke:#181818;stroke-width:1.0;" x1="502" x2="543" y1="243.416" y2="243.416"/><polygon fill="#181818" points="512,239.416,502,243.416,512,247.416,508,243.416" style="stroke:#181818;stroke-width:1.0;"/><text fill="#000000" font-family="sans-serif" font-size="13" font-weight="bold" lengthAdjust="spacing" textLength="7" x="508" y="225.1533">3</text><text fill="#000000" font-family="sans-serif" font-size="13" lengthAdjust="spacing" textLength="110" x="519" y="225.1533">Save author details</text><polygon fill="#181818" points="52,282.707,42,286.707,52,290.707,48,286.707" style="stroke:#181818;stroke-width:1.0;"/><line style="stroke:#181818;stroke-width:1.0;stroke-dasharray:2.0,2.0;" x1="46" x2="485" y1="286.707" y2="286.707"/><text fill="#000000" font-family="sans-serif" font-size="13" font-weight="bold" lengthAdjust="spacing" textLength="7" x="58" y="281.4443">4</text><text fill="#000000" font-family="sans-serif" font-size="13" lengthAdjust="spacing" textLength="152" x="69" y="281.4443">Informs operation success</text><!--SRC=[ZOynRiCm34LtdOBmqYMfTm_T0tHgJa1BJ4n04bMHTj7RLxOJjsCryPEVZrylardHeUzBn6npYgzUKg_qELFsT0wCzuh9EPnDq1ilQ0IIDvtdD59jCszIeNldiM9bp1sWmg5SmMhikJG-TCFrMutIPjdBRN_d_kwueuJpsyCumCSQIqt112hTkNKhD4iBCxK4NsmJP4nq0ctQO6GvjNa0ASQICKAPnCHXDBZSTW6iKAei72WuQ6y_zlVi5HTwtWXao54twWwZgBJIiZmQ_uOuoi4zdSrw_7c0Ixv9JTg2KyKrE-ZiFQcw7m00]--></g></svg>
