<?xml version="1.0" encoding="us-ascii" standalone="no"?><svg xmlns="http://www.w3.org/2000/svg" xmlns:xlink="http://www.w3.org/1999/xlink" contentStyleType="text/css" height="928px" preserveAspectRatio="none" style="width:648px;height:928px;background:#FFFFFF;" version="1.1" viewBox="0 0 648 928" width="648px" zoomAndPan="magnify"><defs/><g><!--class Author--><g id="elem_Author"><rect codeLine="6" fill="#F1F1F1" height="137.7266" id="Author" rx="2.5" ry="2.5" style="stroke:#181818;stroke-width:0.5;" width="159" x="100" y="603"/><text fill="#000000" font-family="sans-serif" font-size="14" lengthAdjust="spacing" textLength="42" x="158.5" y="623.1074">Author</text><line style="stroke:#181818;stroke-width:0.5;" x1="101" x2="258" y1="631.6211" y2="631.6211"/><text fill="#000000" font-family="sans-serif" font-size="14" lengthAdjust="spacing" textLength="16" x="106" y="650.7285">-id</text><text fill="#000000" font-family="sans-serif" font-size="14" lengthAdjust="spacing" textLength="40" x="106" y="669.3496">-name</text><text fill="#000000" font-family="sans-serif" font-size="14" lengthAdjust="spacing" textLength="57" x="106" y="687.9707">-shortBio</text><line style="stroke:#181818;stroke-width:0.5;" x1="101" x2="258" y1="695.4844" y2="695.4844"/><text fill="#000000" font-family="sans-serif" font-size="14" lengthAdjust="spacing" textLength="86" x="106" y="714.5918">+getVersion()</text><text fill="#000000" font-family="sans-serif" font-size="14" lengthAdjust="spacing" textLength="147" x="106" y="733.2129">Author(name, shortBio)</text></g><!--class AuthorPhoto--><g id="elem_AuthorPhoto"><rect codeLine="14" fill="#F1F1F1" height="119.1055" id="AuthorPhoto" rx="2.5" ry="2.5" style="stroke:#181818;stroke-width:0.5;" width="345" x="7" y="802"/><text fill="#000000" font-family="sans-serif" font-size="14" lengthAdjust="spacing" textLength="79" x="140" y="822.1074">AuthorPhoto</text><line style="stroke:#181818;stroke-width:0.5;" x1="8" x2="351" y1="830.6211" y2="830.6211"/><text fill="#000000" font-family="sans-serif" font-size="14" lengthAdjust="spacing" textLength="16" x="13" y="849.7285">-id</text><text fill="#000000" font-family="sans-serif" font-size="14" lengthAdjust="spacing" textLength="43" x="13" y="868.3496">-image</text><text fill="#000000" font-family="sans-serif" font-size="14" lengthAdjust="spacing" textLength="84" x="13" y="886.9707">-contentType</text><line style="stroke:#181818;stroke-width:0.5;" x1="8" x2="351" y1="894.4844" y2="894.4844"/><text fill="#000000" font-family="sans-serif" font-size="14" lengthAdjust="spacing" textLength="333" x="13" y="913.5918">AuthorPhoto(Long id,byte image,String contentType)</text></g><!--class AuthorController--><g id="elem_AuthorController"><rect codeLine="21" fill="#F1F1F1" height="63.2422" id="AuthorController" rx="2.5" ry="2.5" style="stroke:#181818;stroke-width:0.5;" width="484" x="36.5" y="7"/><text fill="#000000" font-family="sans-serif" font-size="14" lengthAdjust="spacing" textLength="104" x="226.5" y="27.1074">AuthorController</text><line style="stroke:#181818;stroke-width:0.5;" x1="37.5" x2="519.5" y1="35.6211" y2="35.6211"/><line style="stroke:#181818;stroke-width:0.5;" x1="37.5" x2="519.5" y1="43.6211" y2="43.6211"/><text fill="#000000" font-family="sans-serif" font-size="14" lengthAdjust="spacing" textLength="472" x="42.5" y="62.7285">+createAuthor(final EditAuthorRequest resource,MultipartFile authorPhoto)</text></g><!--class AuthorServiceImpl--><g id="elem_AuthorServiceImpl"><rect codeLine="25" fill="#F1F1F1" height="81.8633" id="AuthorServiceImpl" rx="2.5" ry="2.5" style="stroke:#181818;stroke-width:0.5;" width="348" x="104.5" y="131"/><text fill="#000000" font-family="sans-serif" font-size="14" lengthAdjust="spacing" textLength="114" x="221.5" y="151.1074">AuthorServiceImpl</text><line style="stroke:#181818;stroke-width:0.5;" x1="105.5" x2="451.5" y1="159.6211" y2="159.6211"/><line style="stroke:#181818;stroke-width:0.5;" x1="105.5" x2="451.5" y1="167.6211" y2="167.6211"/><text fill="#000000" font-family="sans-serif" font-size="14" lengthAdjust="spacing" textLength="238" x="110.5" y="186.7285">+createAuthor(resource,authorPhoto)</text><text fill="#000000" font-family="sans-serif" font-size="14" lengthAdjust="spacing" textLength="336" x="110.5" y="205.3496">+validateCreateAuthorRequest(request, id, resource)</text></g><!--class AuthorViewMapper--><g id="elem_AuthorViewMapper"><rect codeLine="30" fill="#F1F1F1" height="63.2422" id="AuthorViewMapper" rx="2.5" ry="2.5" style="stroke:#181818;stroke-width:0.5;" width="154" x="487.5" y="140.5"/><text fill="#000000" font-family="sans-serif" font-size="14" lengthAdjust="spacing" textLength="119" x="505" y="160.6074">AuthorViewMapper</text><line style="stroke:#181818;stroke-width:0.5;" x1="488.5" x2="640.5" y1="169.1211" y2="169.1211"/><line style="stroke:#181818;stroke-width:0.5;" x1="488.5" x2="640.5" y1="177.1211" y2="177.1211"/><text fill="#000000" font-family="sans-serif" font-size="14" lengthAdjust="spacing" textLength="142" x="493.5" y="196.2285">+toAuthorView(author)</text></g><!--class EditAuthorMapper--><g id="elem_EditAuthorMapper"><rect codeLine="35" fill="#F1F1F1" height="63.2422" id="EditAuthorMapper" rx="2.5" ry="2.5" style="stroke:#181818;stroke-width:0.5;" width="126" x="199.5" y="274"/><text fill="#000000" font-family="sans-serif" font-size="14" lengthAdjust="spacing" textLength="114" x="205.5" y="294.1074">EditAuthorMapper</text><line style="stroke:#181818;stroke-width:0.5;" x1="200.5" x2="324.5" y1="302.6211" y2="302.6211"/><line style="stroke:#181818;stroke-width:0.5;" x1="200.5" x2="324.5" y1="310.6211" y2="310.6211"/><text fill="#000000" font-family="sans-serif" font-size="14" lengthAdjust="spacing" textLength="114" x="205.5" y="329.7285">+create(resource)</text></g><!--class AuthorRepository--><g id="elem_AuthorRepository"><rect codeLine="40" fill="#F1F1F1" height="63.2422" id="AuthorRepository" rx="2.5" ry="2.5" style="stroke:#181818;stroke-width:0.5;" width="116" x="329.5" y="367"/><text fill="#000000" font-family="sans-serif" font-size="14" lengthAdjust="spacing" textLength="110" x="332.5" y="387.1074">AuthorRepository</text><line style="stroke:#181818;stroke-width:0.5;" x1="330.5" x2="444.5" y1="395.6211" y2="395.6211"/><line style="stroke:#181818;stroke-width:0.5;" x1="330.5" x2="444.5" y1="403.6211" y2="403.6211"/><text fill="#000000" font-family="sans-serif" font-size="14" lengthAdjust="spacing" textLength="89" x="335.5" y="422.7285">+save(author)</text></g><!--class EditAuthorRequest--><g id="elem_EditAuthorRequest"><rect codeLine="45" fill="#F1F1F1" height="81.8633" id="EditAuthorRequest" rx="2.5" ry="2.5" style="stroke:#181818;stroke-width:0.5;" width="125" x="194" y="460"/><text fill="#000000" font-family="sans-serif" font-size="14" lengthAdjust="spacing" textLength="119" x="197" y="480.1074">EditAuthorRequest</text><line style="stroke:#181818;stroke-width:0.5;" x1="195" x2="318" y1="488.6211" y2="488.6211"/><text fill="#000000" font-family="sans-serif" font-size="14" lengthAdjust="spacing" textLength="40" x="200" y="507.7285">-name</text><text fill="#000000" font-family="sans-serif" font-size="14" lengthAdjust="spacing" textLength="57" x="200" y="526.3496">-shortBio</text><line style="stroke:#181818;stroke-width:0.5;" x1="195" x2="318" y1="533.8633" y2="533.8633"/></g><!--link AuthorController to AuthorServiceImpl--><g id="link_AuthorController_AuthorServiceImpl"><path codeLine="51" d="M278.5,70.33 C278.5,88.4 278.5,105.42 278.5,124.89 " fill="none" id="AuthorController-to-AuthorServiceImpl" style="stroke:#181818;stroke-width:1.0;stroke-dasharray:7.0,7.0;"/><polygon fill="#181818" points="278.5,130.89,282.5,121.89,278.5,125.89,274.5,121.89,278.5,130.89" style="stroke:#181818;stroke-width:1.0;"/></g><!--link AuthorController to AuthorViewMapper--><g id="link_AuthorController_AuthorViewMapper"><path codeLine="52" d="M345.19,70.16 C391.08,91.26 446.3387,116.6734 492.2487,137.7834 " fill="none" id="AuthorController-to-AuthorViewMapper" style="stroke:#181818;stroke-width:1.0;stroke-dasharray:7.0,7.0;"/><polygon fill="#181818" points="497.7,140.29,491.1941,132.8959,493.1572,138.2012,487.8519,140.1643,497.7,140.29" style="stroke:#181818;stroke-width:1.0;"/></g><!--link AuthorServiceImpl to EditAuthorMapper--><g id="link_AuthorServiceImpl_EditAuthorMapper"><path codeLine="53" d="M273.61,213.17 C271.24,232.66 269.1651,249.734 266.9651,267.804 " fill="none" id="AuthorServiceImpl-to-EditAuthorMapper" style="stroke:#181818;stroke-width:1.0;stroke-dasharray:7.0,7.0;"/><polygon fill="#181818" points="266.24,273.76,271.2984,265.3094,266.8443,268.7966,263.357,264.3425,266.24,273.76" style="stroke:#181818;stroke-width:1.0;"/></g><!--link AuthorServiceImpl to AuthorRepository--><g id="link_AuthorServiceImpl_AuthorRepository"><path codeLine="54" d="M306.73,213.12 C318.71,231.2 332.24,253.14 342.5,274 C357.51,304.51 368.4791,335.6198 376.5391,361.0798 " fill="none" id="AuthorServiceImpl-to-AuthorRepository" style="stroke:#181818;stroke-width:1.0;stroke-dasharray:7.0,7.0;"/><polygon fill="#181818" points="378.35,366.8,379.4472,357.0124,376.8409,362.0332,371.8202,359.4269,378.35,366.8" style="stroke:#181818;stroke-width:1.0;"/></g><!--link EditAuthorMapper to EditAuthorRequest--><g id="link_EditAuthorMapper_EditAuthorRequest"><path codeLine="55" d="M261.55,337.16 C260.52,370.3 259.0658,417.2629 257.9358,453.7429 " fill="none" id="EditAuthorMapper-to-EditAuthorRequest" style="stroke:#181818;stroke-width:1.0;stroke-dasharray:7.0,7.0;"/><polygon fill="#181818" points="257.75,459.74,262.0267,450.8682,257.9048,454.7424,254.0306,450.6205,257.75,459.74" style="stroke:#181818;stroke-width:1.0;"/></g><!--link AuthorController to Author--><g id="link_AuthorController_Author"><path codeLine="56" d="M141.54,70.01 C93.6,89.43 51.5,120.79 51.5,171 C51.5,171 51.5,171 51.5,502 C51.5,541.38 69.8176,572.9362 95.8476,601.4862 " fill="none" id="AuthorController-to-Author" style="stroke:#181818;stroke-width:1.0;stroke-dasharray:7.0,7.0;"/><polygon fill="#181818" points="99.89,605.92,96.7822,596.5743,96.5213,602.2252,90.8705,601.9643,99.89,605.92" style="stroke:#181818;stroke-width:1.0;"/></g><!--link AuthorServiceImpl to Author--><g id="link_AuthorServiceImpl_Author"><path codeLine="57" d="M226.58,213.11 C208.92,229.83 191.21,250.78 181.5,274 C136.37,381.94 149.1643,515.3818 163.6143,597.0218 " fill="none" id="AuthorServiceImpl-to-Author" style="stroke:#181818;stroke-width:1.0;stroke-dasharray:7.0,7.0;"/><polygon fill="#181818" points="164.66,602.93,167.0302,593.3706,163.7886,598.0065,159.1526,594.7649,164.66,602.93" style="stroke:#181818;stroke-width:1.0;"/></g><!--link EditAuthorRequest to Author--><g id="link_EditAuthorRequest_Author"><path codeLine="58" d="M238.25,542.05 C229.98,560.21 222.4478,576.7301 213.0478,597.3601 " fill="none" id="EditAuthorRequest-to-Author" style="stroke:#181818;stroke-width:1.0;stroke-dasharray:7.0,7.0;"/><polygon fill="#181818" points="210.56,602.82,217.9317,596.2886,212.6332,598.2701,210.6517,592.9716,210.56,602.82" style="stroke:#181818;stroke-width:1.0;"/></g><!--link AuthorRepository to Author--><g id="link_AuthorRepository_Author"><path codeLine="59" d="M381.57,430.08 C374.57,460.55 360.7,507.62 336.5,542 C315.79,571.42 291.4174,594.2239 263.8574,615.4039 " fill="none" id="AuthorRepository-to-Author" style="stroke:#181818;stroke-width:1.0;"/><polygon fill="#181818" points="259.1,619.06,268.6735,616.7475,263.0645,616.0133,263.7987,610.4042,259.1,619.06" style="stroke:#181818;stroke-width:1.0;"/><text fill="#000000" font-family="sans-serif" font-size="13" lengthAdjust="spacing" textLength="43" x="375.5" y="506.5283">records</text><text fill="#000000" font-family="sans-serif" font-size="13" lengthAdjust="spacing" textLength="7" x="372.6251" y="452.3799">1</text><text fill="#000000" font-family="sans-serif" font-size="13" lengthAdjust="spacing" textLength="20" x="267.08" y="610.6415">0..*</text></g><!--reverse link Author to AuthorPhoto--><g id="link_Author_AuthorPhoto"><path codeLine="60" d="M179.5,753.22 C179.5,773.12 179.5,782.67 179.5,801.92 " fill="none" id="Author-backto-AuthorPhoto" style="stroke:#181818;stroke-width:1.0;"/><polygon fill="#181818" points="179.5,741.22,175.5,747.22,179.5,753.22,183.5,747.22,179.5,741.22" style="stroke:#181818;stroke-width:1.0;"/><text fill="#000000" font-family="sans-serif" font-size="13" lengthAdjust="spacing" textLength="7" x="172.1664" y="762.6829">1</text><text fill="#000000" font-family="sans-serif" font-size="13" lengthAdjust="spacing" textLength="7" x="172.0734" y="790.6624">1</text></g><!--SRC=[VLFHJeCm57tlLpHx4HMOllgmP2wQB769SSRtMgxZnaAnlSpCnN-tAyWwME2bvVQSUywvb8kSgB9tqscbH4breLAfYwbKmjeaGx4nec0inmouH2CLCFk9PILScNlGdCZWUqsmbBfSum_m6yRy2P_Nb6kpPzmz2SUitPIYW7PhtJdTe_Qlrtm3z0R6eYwZIrzgEaG7Hjo1BzdlgS9phaaFPB0GctyTPusWfDTT1K5VpukUTBbnhFXzHz2GuhMBv8e1Qw2vS6T6AmM6xLltqe0WQ2r_O2aKVyYGci8BVDLWYHkmkZOIubMj2DqSwH4LS74qT90AbTPWjYXXMLJgl5JNygH90zmAXPc3BW92QyNn_1eVmdU- -kfl2DyhKLL1JjB7ewZH3CPpZDoZDPwZKEX4wGKgRP6qsNKKAxOmfj0cOVkHc-Le_I_6qtHsPhWZi60A0vw73LAVXmsIzdczPly1HwoDAh7X1HmmZsxuv7R2asJ69pTfUZLfONVkRaXjCjlYFUegIVmQ_4Zi3m00]--></g></svg>
