<?xml version="1.0" encoding="us-ascii" standalone="no"?><svg xmlns="http://www.w3.org/2000/svg" xmlns:xlink="http://www.w3.org/1999/xlink" contentStyleType="text/css" height="577px" preserveAspectRatio="none" style="width:1219px;height:577px;background:#FFFFFF;" version="1.1" viewBox="0 0 1219 577" width="1219px" zoomAndPan="magnify"><defs/><g><!--class Book--><g id="elem_Book"><rect codeLine="6" fill="#F1F1F1" height="156.3477" id="Book" rx="2.5" ry="2.5" style="stroke:#181818;stroke-width:0.5;" width="597" x="7" y="414"/><text fill="#000000" font-family="sans-serif" font-size="14" lengthAdjust="spacing" textLength="32" x="289.5" y="434.1074">Book</text><line style="stroke:#181818;stroke-width:0.5;" x1="8" x2="603" y1="442.6211" y2="442.6211"/><text fill="#000000" font-family="sans-serif" font-size="14" lengthAdjust="spacing" textLength="76" x="13" y="461.7285">-isbn: String</text><text fill="#000000" font-family="sans-serif" font-size="14" lengthAdjust="spacing" textLength="72" x="13" y="480.3496">-title: String</text><text fill="#000000" font-family="sans-serif" font-size="14" lengthAdjust="spacing" textLength="87" x="13" y="498.9707">-genre: String</text><text fill="#000000" font-family="sans-serif" font-size="14" lengthAdjust="spacing" textLength="141" x="13" y="517.5918">-authors: List&lt;Author&gt;</text><text fill="#000000" font-family="sans-serif" font-size="14" lengthAdjust="spacing" textLength="119" x="13" y="536.2129">-description: String</text><line style="stroke:#181818;stroke-width:0.5;" x1="8" x2="603" y1="543.7266" y2="543.7266"/><text fill="#000000" font-family="sans-serif" font-size="14" lengthAdjust="spacing" textLength="585" x="13" y="562.834">Book(isbn: String, title: String, genre: String, authors: List&lt;Author&gt;, description: String=None)</text></g><!--class BookController--><g id="elem_BookController"><rect codeLine="15" fill="#F1F1F1" height="63.2422" id="BookController" rx="2.5" ry="2.5" style="stroke:#181818;stroke-width:0.5;" width="274" x="728.5" y="7"/><text fill="#000000" font-family="sans-serif" font-size="14" lengthAdjust="spacing" textLength="94" x="818.5" y="27.1074">BookController</text><line style="stroke:#181818;stroke-width:0.5;" x1="729.5" x2="1001.5" y1="35.6211" y2="35.6211"/><line style="stroke:#181818;stroke-width:0.5;" x1="729.5" x2="1001.5" y1="43.6211" y2="43.6211"/><text fill="#000000" font-family="sans-serif" font-size="14" lengthAdjust="spacing" textLength="262" x="734.5" y="62.7285">+getTopBooks(): Iterable&lt;LentBookView&gt;</text></g><!--class BookServiceImpl--><g id="elem_BookServiceImpl"><rect codeLine="19" fill="#F1F1F1" height="81.8633" id="BookServiceImpl" rx="2.5" ry="2.5" style="stroke:#181818;stroke-width:0.5;" width="217" x="306" y="130"/><text fill="#000000" font-family="sans-serif" font-size="14" lengthAdjust="spacing" textLength="104" x="362.5" y="150.1074">BookServiceImpl</text><line style="stroke:#181818;stroke-width:0.5;" x1="307" x2="522" y1="158.6211" y2="158.6211"/><line style="stroke:#181818;stroke-width:0.5;" x1="307" x2="522" y1="166.6211" y2="166.6211"/><text fill="#000000" font-family="sans-serif" font-size="14" lengthAdjust="spacing" textLength="190" x="312" y="185.7285">+getBooksByIsbn(isbn: String)</text><text fill="#000000" font-family="sans-serif" font-size="14" lengthAdjust="spacing" textLength="205" x="312" y="204.3496">+getTopBooks(): Iterable&lt;Book&gt;</text></g><!--class lentBookViewMapper--><g id="elem_lentBookViewMapper"><rect codeLine="24" fill="#F1F1F1" height="81.8633" id="lentBookViewMapper" rx="2.5" ry="2.5" style="stroke:#181818;stroke-width:0.5;" width="615" x="558" y="130"/><text fill="#000000" font-family="sans-serif" font-size="14" lengthAdjust="spacing" textLength="132" x="799.5" y="150.1074">lentBookViewMapper</text><line style="stroke:#181818;stroke-width:0.5;" x1="559" x2="1172" y1="158.6211" y2="158.6211"/><line style="stroke:#181818;stroke-width:0.5;" x1="559" x2="1172" y1="166.6211" y2="166.6211"/><text fill="#000000" font-family="sans-serif" font-size="14" lengthAdjust="spacing" textLength="231" x="564" y="185.7285">+toBookView(book: Book): BookView</text><text fill="#000000" font-family="sans-serif" font-size="14" lengthAdjust="spacing" textLength="603" x="564" y="204.3496">+toLentBookView(books: Iterable&lt;Book&gt;, lendings: Iterable&lt;Lending&gt;): Iterable&lt;LentBookView&gt;</text></g><!--class BookRepository--><g id="elem_BookRepository"><rect codeLine="29" fill="#F1F1F1" height="63.2422" id="BookRepository" rx="2.5" ry="2.5" style="stroke:#181818;stroke-width:0.5;" width="238" x="156.5" y="281.5"/><text fill="#000000" font-family="sans-serif" font-size="14" lengthAdjust="spacing" textLength="100" x="225.5" y="301.6074">BookRepository</text><line style="stroke:#181818;stroke-width:0.5;" x1="157.5" x2="393.5" y1="310.1211" y2="310.1211"/><line style="stroke:#181818;stroke-width:0.5;" x1="157.5" x2="393.5" y1="318.1211" y2="318.1211"/><text fill="#000000" font-family="sans-serif" font-size="14" lengthAdjust="spacing" textLength="226" x="162.5" y="337.2285">+findBookByIsbn(isbn: String): Book</text></g><!--class LendingRepository--><g id="elem_LendingRepository"><rect codeLine="33" fill="#F1F1F1" height="81.8633" id="LendingRepository" rx="2.5" ry="2.5" style="stroke:#181818;stroke-width:0.5;" width="248" x="429.5" y="272"/><text fill="#000000" font-family="sans-serif" font-size="14" lengthAdjust="spacing" textLength="119" x="494" y="292.1074">LendingRepository</text><line style="stroke:#181818;stroke-width:0.5;" x1="430.5" x2="676.5" y1="300.6211" y2="300.6211"/><line style="stroke:#181818;stroke-width:0.5;" x1="430.5" x2="676.5" y1="308.6211" y2="308.6211"/><text fill="#000000" font-family="sans-serif" font-size="14" lengthAdjust="spacing" textLength="236" x="435.5" y="327.7285">+findTopBookIds(): Iterable&lt;Object[]&gt;</text><text fill="#000000" font-family="sans-serif" font-size="14" lengthAdjust="spacing" textLength="178" x="435.5" y="346.3496">+findAll(): Iterable&lt;Lending&gt;</text></g><!--class LentBookView--><g id="elem_LentBookView"><rect codeLine="38" fill="#F1F1F1" height="137.7266" id="LentBookView" rx="2.5" ry="2.5" style="stroke:#181818;stroke-width:0.5;" width="125" x="668" y="423"/><text fill="#000000" font-family="sans-serif" font-size="14" lengthAdjust="spacing" textLength="89" x="686" y="443.1074">LentBookView</text><line style="stroke:#181818;stroke-width:0.5;" x1="669" x2="792" y1="451.6211" y2="451.6211"/><text fill="#000000" font-family="sans-serif" font-size="14" lengthAdjust="spacing" textLength="61" x="674" y="470.7285">-id: String</text><text fill="#000000" font-family="sans-serif" font-size="14" lengthAdjust="spacing" textLength="72" x="674" y="489.3496">-title: String</text><text fill="#000000" font-family="sans-serif" font-size="14" lengthAdjust="spacing" textLength="91" x="674" y="507.9707">-author: String</text><text fill="#000000" font-family="sans-serif" font-size="14" lengthAdjust="spacing" textLength="87" x="674" y="526.5918">-genre: String</text><text fill="#000000" font-family="sans-serif" font-size="14" lengthAdjust="spacing" textLength="113" x="674" y="545.2129">-totalLendings: int</text><line style="stroke:#181818;stroke-width:0.5;" x1="669" x2="792" y1="552.7266" y2="552.7266"/></g><!--link BookController to BookServiceImpl--><g id="link_BookController_BookServiceImpl"><path codeLine="46" d="M752.03,70.03 C689.48,87.12 610.53,109.14 540.5,130 C534.78,131.7 534.6561,131.7103 528.7561,133.5203 " fill="none" id="BookController-to-BookServiceImpl" style="stroke:#181818;stroke-width:1.0;stroke-dasharray:7.0,7.0;"/><polygon fill="#181818" points="523.02,135.28,532.7974,136.4645,527.8001,133.8136,530.4511,128.8163,523.02,135.28" style="stroke:#181818;stroke-width:1.0;"/></g><!--link BookServiceImpl to BookRepository--><g id="link_BookServiceImpl_BookRepository"><path codeLine="47" d="M374.67,212.12 C352.85,234.1 330.4469,256.6517 310.2869,276.9617 " fill="none" id="BookServiceImpl-to-BookRepository" style="stroke:#181818;stroke-width:1.0;stroke-dasharray:7.0,7.0;"/><polygon fill="#181818" points="306.06,281.22,315.2392,277.6504,309.5824,277.6714,309.5614,272.0146,306.06,281.22" style="stroke:#181818;stroke-width:1.0;"/></g><!--link BookServiceImpl to LendingRepository--><g id="link_BookServiceImpl_LendingRepository"><path codeLine="48" d="M454.33,212.12 C472.94,230.86 490.8233,248.8715 509.4333,267.6215 " fill="none" id="BookServiceImpl-to-LendingRepository" style="stroke:#181818;stroke-width:1.0;stroke-dasharray:7.0,7.0;"/><polygon fill="#181818" points="513.66,271.88,510.1589,262.6744,510.1377,268.3312,504.4809,268.31,513.66,271.88" style="stroke:#181818;stroke-width:1.0;"/></g><!--link BookController to lentBookViewMapper--><g id="link_BookController_lentBookViewMapper"><path codeLine="49" d="M865.5,70.1 C865.5,87.88 865.5,104.49 865.5,123.71 " fill="none" id="BookController-to-lentBookViewMapper" style="stroke:#181818;stroke-width:1.0;stroke-dasharray:7.0,7.0;"/><polygon fill="#181818" points="865.5,129.71,869.5,120.71,865.5,124.71,861.5,120.71,865.5,129.71" style="stroke:#181818;stroke-width:1.0;"/></g><!--link BookController to LentBookView--><g id="link_BookController_LentBookView"><path codeLine="50" d="M1002.61,60.71 C1080.47,75.86 1166.98,99.04 1190.5,130 C1212.54,159.02 1208.38,180.24 1190.5,212 C1104.58,364.6 903.5093,441.6136 798.9693,472.8236 " fill="none" id="BookController-to-LentBookView" style="stroke:#181818;stroke-width:1.0;stroke-dasharray:7.0,7.0;"/><polygon fill="#181818" points="793.22,474.54,802.9882,475.7982,798.011,473.1097,800.6996,468.1325,793.22,474.54" style="stroke:#181818;stroke-width:1.0;"/></g><!--link BookServiceImpl to LentBookView--><g id="link_BookServiceImpl_LentBookView"><path codeLine="51" d="M523,207.76 C599.53,233.45 689.48,264.76 695.5,272 C730.09,313.59 737.3222,369.5004 736.7522,416.8904 " fill="none" id="BookServiceImpl-to-LentBookView" style="stroke:#181818;stroke-width:1.0;stroke-dasharray:7.0,7.0;"/><polygon fill="#181818" points="736.68,422.89,740.788,413.9388,736.7401,417.8904,732.7885,413.8425,736.68,422.89" style="stroke:#181818;stroke-width:1.0;"/></g><!--link BookRepository to Book--><g id="link_BookRepository_Book"><path codeLine="52" d="M280.73,344.83 C283.97,363.95 287.2755,383.5047 291.4055,407.8247 " fill="none" id="BookRepository-to-Book" style="stroke:#181818;stroke-width:1.0;"/><polygon fill="#181818" points="292.41,413.74,294.8467,404.1973,291.5729,408.8106,286.9597,405.5367,292.41,413.74" style="stroke:#181818;stroke-width:1.0;"/><text fill="#000000" font-family="sans-serif" font-size="13" lengthAdjust="spacing" textLength="7" x="274.0706" y="366.8031">1</text><text fill="#000000" font-family="sans-serif" font-size="13" lengthAdjust="spacing" textLength="20" x="270.2814" y="402.7675">1..*</text></g><!--link LendingRepository to Book--><g id="link_LendingRepository_Book"><path codeLine="53" d="M497.22,354.16 C472.5,371.81 447.484,389.6648 418.714,410.1948 " fill="none" id="LendingRepository-to-Book" style="stroke:#181818;stroke-width:1.0;stroke-dasharray:7.0,7.0;"/><polygon fill="#181818" points="413.83,413.68,423.4795,411.7082,417.9,410.7757,418.8326,405.1962,413.83,413.68" style="stroke:#181818;stroke-width:1.0;"/></g><!--link LendingRepository to LentBookView--><g id="link_LendingRepository_LentBookView"><path codeLine="54" d="M593.66,354.16 C615.59,376.09 638.9874,399.4874 663.6774,424.1774 " fill="none" id="LendingRepository-to-LentBookView" style="stroke:#181818;stroke-width:1.0;stroke-dasharray:7.0,7.0;"/><polygon fill="#181818" points="667.92,428.42,664.3845,419.2276,664.3845,424.8845,658.7276,424.8845,667.92,428.42" style="stroke:#181818;stroke-width:1.0;"/></g><!--SRC=[ZLB1Ji904BttApPS12r5hmqs0KzDK1CnNeo7RJl2ohAxsHqqQFntkwMKtL8YlRHzy_BUp9kvM28g4uz6YbE1cpMFShaUvPmQComONMYw3e8bAu3aJESS0hDYGj4I9XLfWgXPja58Sodcx1l8TH1K5JALSaL-0b8-Gy9C9c8oBybYKKF8a4CBMu3GROnkS2crYScC6HnFgh-ahXLWSiqKCkchM- - -wndwTg7l57QRX5twjmzIm23uTSUyamArv1nqFV1LgO_FKjcYwGzYaY9ecd4Opq2WHLyOV2M-oXpq9yiXNIlkobGQqsrQJkEDDFZ7oIAE0tUCxwbIJgyezuL-Ldx4LJU3tSkY3SrjlgAQjbzeVOgoE-FFRA7ap1oUG4d3KEfjq-4x4uKjTSMmw_CWKRkTKAcZIWi_hCVi0t9yVKiSweJpzkggCJohPeZ3gHTd7FhktiwuVfH8-Qp9b0cqzgsZYwAaVK51-wBsd4CkdPIZzBgyZc-fY-McSyhB9pWxwztqo72ObEyekkpjLdoysVrG9qgUmHy0]--></g></svg>