<?xml version="1.0" encoding="us-ascii" standalone="no"?><svg xmlns="http://www.w3.org/2000/svg" xmlns:xlink="http://www.w3.org/1999/xlink" contentStyleType="text/css" height="768px" preserveAspectRatio="none" style="width:1912px;height:768px;background:#FFFFFF;" version="1.1" viewBox="0 0 1912 768" width="1912px" zoomAndPan="magnify"><defs/><g><rect fill="#FFFFFF" height="672.8594" style="stroke:#181818;stroke-width:1.0;" width="10" x="68.5" y="48.6211"/><rect fill="#FFFFFF" height="649.5684" style="stroke:#181818;stroke-width:1.0;" width="10" x="223.5" y="71.9121"/><rect fill="#FFFFFF" height="36.291" style="stroke:#181818;stroke-width:1.0;" width="10" x="228.5" y="676.1895"/><rect fill="#FFFFFF" height="533.6953" style="stroke:#181818;stroke-width:1.0;" width="10" x="470.5" y="103.2031"/><rect fill="#FFFFFF" height="42.291" style="stroke:#181818;stroke-width:1.0;" width="10" x="475.5" y="142.4941"/><rect fill="#FFFFFF" height="276.3281" style="stroke:#181818;stroke-width:1.0;" width="10" x="771.5" y="223.0762"/><rect fill="#FFFFFF" height="42.291" style="stroke:#181818;stroke-width:1.0;" width="10" x="776.5" y="324.9492"/><rect fill="#FFFFFF" height="31.291" style="stroke:#181818;stroke-width:1.0;" width="10" x="1034.5" y="254.3672"/><rect fill="#FFFFFF" height="31.291" style="stroke:#181818;stroke-width:1.0;" width="10" x="1034.5" y="436.8223"/><rect fill="#FFFFFF" height="31.291" style="stroke:#181818;stroke-width:1.0;" width="10" x="1220.5" y="530.6953"/><rect fill="#FFFFFF" height="315.9492" style="stroke:#181818;stroke-width:1.0;" width="10" x="1719.5" y="405.5313"/><line style="stroke:#181818;stroke-width:0.5;stroke-dasharray:5.0,5.0;" x1="73" x2="73" y1="38.6211" y2="730.4805"/><line style="stroke:#181818;stroke-width:0.5;stroke-dasharray:5.0,5.0;" x1="228" x2="228" y1="38.6211" y2="730.4805"/><line style="stroke:#181818;stroke-width:0.5;stroke-dasharray:5.0,5.0;" x1="475" x2="475" y1="38.6211" y2="730.4805"/><line style="stroke:#181818;stroke-width:0.5;stroke-dasharray:5.0,5.0;" x1="776" x2="776" y1="38.6211" y2="730.4805"/><line style="stroke:#181818;stroke-width:0.5;stroke-dasharray:5.0,5.0;" x1="1039.5" x2="1039.5" y1="38.6211" y2="730.4805"/><line style="stroke:#181818;stroke-width:0.5;stroke-dasharray:5.0,5.0;" x1="1225.5" x2="1225.5" y1="38.6211" y2="730.4805"/><line style="stroke:#181818;stroke-width:0.5;stroke-dasharray:5.0,5.0;" x1="1724" x2="1724" y1="38.6211" y2="730.4805"/><line style="stroke:#181818;stroke-width:0.5;stroke-dasharray:5.0,5.0;" x1="1847" x2="1847" y1="601.7969" y2="730.4805"/><rect fill="#E2E2F0" height="32.6211" rx="2.5" ry="2.5" style="stroke:#181818;stroke-width:0.5;" width="137" x="5" y="5"/><text fill="#000000" font-family="sans-serif" font-size="14" lengthAdjust="spacing" textLength="123" x="12" y="27.1074">Reader:HTTPClient</text><rect fill="#E2E2F0" height="32.6211" rx="2.5" ry="2.5" style="stroke:#181818;stroke-width:0.5;" width="137" x="5" y="729.4805"/><text fill="#000000" font-family="sans-serif" font-size="14" lengthAdjust="spacing" textLength="123" x="12" y="751.5879">Reader:HTTPClient</text><rect fill="#E2E2F0" height="32.6211" rx="2.5" ry="2.5" style="stroke:#181818;stroke-width:0.5;" width="153" x="152" y="5"/><text fill="#000000" font-family="sans-serif" font-size="14" lengthAdjust="spacing" textLength="139" x="159" y="27.1074">handler:RouteHandler</text><rect fill="#E2E2F0" height="32.6211" rx="2.5" ry="2.5" style="stroke:#181818;stroke-width:0.5;" width="153" x="152" y="729.4805"/><text fill="#000000" font-family="sans-serif" font-size="14" lengthAdjust="spacing" textLength="139" x="159" y="751.5879">handler:RouteHandler</text><rect fill="#E2E2F0" height="32.6211" rx="2.5" ry="2.5" style="stroke:#181818;stroke-width:0.5;" width="127" x="412" y="5"/><text fill="#000000" font-family="sans-serif" font-size="14" lengthAdjust="spacing" textLength="113" x="419" y="27.1074">:ReaderController</text><rect fill="#E2E2F0" height="32.6211" rx="2.5" ry="2.5" style="stroke:#181818;stroke-width:0.5;" width="127" x="412" y="729.4805"/><text fill="#000000" font-family="sans-serif" font-size="14" lengthAdjust="spacing" textLength="113" x="419" y="751.5879">:ReaderController</text><rect fill="#E2E2F0" height="32.6211" rx="2.5" ry="2.5" style="stroke:#181818;stroke-width:0.5;" width="157" x="698" y="5"/><text fill="#000000" font-family="sans-serif" font-size="14" lengthAdjust="spacing" textLength="143" x="705" y="27.1074">service:ReaderService</text><rect fill="#E2E2F0" height="32.6211" rx="2.5" ry="2.5" style="stroke:#181818;stroke-width:0.5;" width="157" x="698" y="729.4805"/><text fill="#000000" font-family="sans-serif" font-size="14" lengthAdjust="spacing" textLength="143" x="705" y="751.5879">service:ReaderService</text><rect fill="#E2E2F0" height="32.6211" rx="2.5" ry="2.5" style="stroke:#181818;stroke-width:0.5;" width="162" x="958.5" y="5"/><text fill="#000000" font-family="sans-serif" font-size="14" lengthAdjust="spacing" textLength="148" x="965.5" y="27.1074">repo:ReaderRepository</text><rect fill="#E2E2F0" height="32.6211" rx="2.5" ry="2.5" style="stroke:#181818;stroke-width:0.5;" width="162" x="958.5" y="729.4805"/><text fill="#000000" font-family="sans-serif" font-size="14" lengthAdjust="spacing" textLength="148" x="965.5" y="751.5879">repo:ReaderRepository</text><rect fill="#E2E2F0" height="32.6211" rx="2.5" ry="2.5" style="stroke:#181818;stroke-width:0.5;" width="190" x="1130.5" y="5"/><text fill="#000000" font-family="sans-serif" font-size="14" lengthAdjust="spacing" textLength="176" x="1137.5" y="27.1074">mapper:ReaderViewMapper</text><rect fill="#E2E2F0" height="32.6211" rx="2.5" ry="2.5" style="stroke:#181818;stroke-width:0.5;" width="190" x="1130.5" y="729.4805"/><text fill="#000000" font-family="sans-serif" font-size="14" lengthAdjust="spacing" textLength="176" x="1137.5" y="751.5879">mapper:ReaderViewMapper</text><rect fill="#E2E2F0" height="32.6211" rx="2.5" ry="2.5" style="stroke:#181818;stroke-width:0.5;" width="107" x="1671" y="5"/><text fill="#000000" font-family="sans-serif" font-size="14" lengthAdjust="spacing" textLength="93" x="1678" y="27.1074">reader:Reader</text><rect fill="#E2E2F0" height="32.6211" rx="2.5" ry="2.5" style="stroke:#181818;stroke-width:0.5;" width="107" x="1671" y="729.4805"/><text fill="#000000" font-family="sans-serif" font-size="14" lengthAdjust="spacing" textLength="93" x="1678" y="751.5879">reader:Reader</text><rect fill="#E2E2F0" height="32.6211" rx="2.5" ry="2.5" style="stroke:#181818;stroke-width:0.5;" width="118" x="1788" y="729.4805"/><text fill="#000000" font-family="sans-serif" font-size="14" lengthAdjust="spacing" textLength="104" x="1795" y="751.5879">result:HttpResult</text><rect fill="#FFFFFF" height="672.8594" style="stroke:#181818;stroke-width:1.0;" width="10" x="68.5" y="48.6211"/><rect fill="#FFFFFF" height="649.5684" style="stroke:#181818;stroke-width:1.0;" width="10" x="223.5" y="71.9121"/><rect fill="#FFFFFF" height="36.291" style="stroke:#181818;stroke-width:1.0;" width="10" x="228.5" y="676.1895"/><rect fill="#FFFFFF" height="533.6953" style="stroke:#181818;stroke-width:1.0;" width="10" x="470.5" y="103.2031"/><rect fill="#FFFFFF" height="42.291" style="stroke:#181818;stroke-width:1.0;" width="10" x="475.5" y="142.4941"/><rect fill="#FFFFFF" height="276.3281" style="stroke:#181818;stroke-width:1.0;" width="10" x="771.5" y="223.0762"/><rect fill="#FFFFFF" height="42.291" style="stroke:#181818;stroke-width:1.0;" width="10" x="776.5" y="324.9492"/><rect fill="#FFFFFF" height="31.291" style="stroke:#181818;stroke-width:1.0;" width="10" x="1034.5" y="254.3672"/><rect fill="#FFFFFF" height="31.291" style="stroke:#181818;stroke-width:1.0;" width="10" x="1034.5" y="436.8223"/><rect fill="#FFFFFF" height="31.291" style="stroke:#181818;stroke-width:1.0;" width="10" x="1220.5" y="530.6953"/><rect fill="#FFFFFF" height="315.9492" style="stroke:#181818;stroke-width:1.0;" width="10" x="1719.5" y="405.5313"/><polygon fill="#181818" points="211.5,67.9121,221.5,71.9121,211.5,75.9121,215.5,71.9121" style="stroke:#181818;stroke-width:1.0;"/><line style="stroke:#181818;stroke-width:1.0;" x1="78.5" x2="217.5" y1="71.9121" y2="71.9121"/><text fill="#000000" font-family="sans-serif" font-size="13" font-weight="bold" lengthAdjust="spacing" textLength="7" x="85.5" y="66.6494">1</text><text fill="#000000" font-family="sans-serif" font-size="13" lengthAdjust="spacing" textLength="110" x="96.5" y="66.6494">PUT/Readers(data)</text><polygon fill="#181818" points="458.5,99.2031,468.5,103.2031,458.5,107.2031,462.5,103.2031" style="stroke:#181818;stroke-width:1.0;"/><line style="stroke:#181818;stroke-width:1.0;" x1="233.5" x2="464.5" y1="103.2031" y2="103.2031"/><text fill="#000000" font-family="sans-serif" font-size="13" font-weight="bold" lengthAdjust="spacing" textLength="7" x="240.5" y="97.9404">2</text><text fill="#000000" font-family="sans-serif" font-size="13" lengthAdjust="spacing" textLength="207" x="251.5" y="97.9404">updateReader(request, id, resource)</text><line style="stroke:#181818;stroke-width:1.0;" x1="480.5" x2="527.5" y1="129.4941" y2="129.4941"/><line style="stroke:#181818;stroke-width:1.0;" x1="527.5" x2="527.5" y1="129.4941" y2="142.4941"/><line style="stroke:#181818;stroke-width:1.0;" x1="486.5" x2="527.5" y1="142.4941" y2="142.4941"/><polygon fill="#181818" points="496.5,138.4941,486.5,142.4941,496.5,146.4941,492.5,142.4941" style="stroke:#181818;stroke-width:1.0;"/><text fill="#000000" font-family="sans-serif" font-size="13" font-weight="bold" lengthAdjust="spacing" textLength="7" x="492.5" y="124.2314">3</text><text fill="#000000" font-family="sans-serif" font-size="13" lengthAdjust="spacing" textLength="266" x="503.5" y="124.2314">getVersionFromIfMatchHeader(ifMatchHeader)</text><line style="stroke:#181818;stroke-width:1.0;stroke-dasharray:2.0,2.0;" x1="485.5" x2="527.5" y1="183.7852" y2="183.7852"/><line style="stroke:#181818;stroke-width:1.0;stroke-dasharray:2.0,2.0;" x1="527.5" x2="527.5" y1="183.7852" y2="196.7852"/><line style="stroke:#181818;stroke-width:1.0;stroke-dasharray:2.0,2.0;" x1="480.5" x2="527.5" y1="196.7852" y2="196.7852"/><polygon fill="#181818" points="490.5,192.7852,480.5,196.7852,490.5,200.7852,486.5,196.7852" style="stroke:#181818;stroke-width:1.0;"/><text fill="#000000" font-family="sans-serif" font-size="13" font-weight="bold" lengthAdjust="spacing" textLength="7" x="492.5" y="178.5225">4</text><text fill="#000000" font-family="sans-serif" font-size="13" lengthAdjust="spacing" textLength="14" x="503.5" y="178.5225">ok</text><polygon fill="#181818" points="759.5,219.0762,769.5,223.0762,759.5,227.0762,763.5,223.0762" style="stroke:#181818;stroke-width:1.0;"/><line style="stroke:#181818;stroke-width:1.0;" x1="480.5" x2="765.5" y1="223.0762" y2="223.0762"/><text fill="#000000" font-family="sans-serif" font-size="13" font-weight="bold" lengthAdjust="spacing" textLength="7" x="487.5" y="217.8135">5</text><text fill="#000000" font-family="sans-serif" font-size="13" lengthAdjust="spacing" textLength="207" x="498.5" y="217.8135">updateReader(request, id, resource)</text><polygon fill="#181818" points="1022.5,250.3672,1032.5,254.3672,1022.5,258.3672,1026.5,254.3672" style="stroke:#181818;stroke-width:1.0;"/><line style="stroke:#181818;stroke-width:1.0;" x1="781.5" x2="1028.5" y1="254.3672" y2="254.3672"/><text fill="#000000" font-family="sans-serif" font-size="13" font-weight="bold" lengthAdjust="spacing" textLength="7" x="788.5" y="249.1045">6</text><text fill="#000000" font-family="sans-serif" font-size="13" lengthAdjust="spacing" textLength="64" x="799.5" y="249.1045">findById(id)</text><polygon fill="#181818" points="792.5,281.6582,782.5,285.6582,792.5,289.6582,788.5,285.6582" style="stroke:#181818;stroke-width:1.0;"/><line style="stroke:#181818;stroke-width:1.0;stroke-dasharray:2.0,2.0;" x1="786.5" x2="1038.5" y1="285.6582" y2="285.6582"/><text fill="#000000" font-family="sans-serif" font-size="13" font-weight="bold" lengthAdjust="spacing" textLength="7" x="798.5" y="280.3955">7</text><text fill="#000000" font-family="sans-serif" font-size="13" lengthAdjust="spacing" textLength="36" x="809.5" y="280.3955">reader</text><line style="stroke:#181818;stroke-width:1.0;" x1="781.5" x2="828.5" y1="311.9492" y2="311.9492"/><line style="stroke:#181818;stroke-width:1.0;" x1="828.5" x2="828.5" y1="311.9492" y2="324.9492"/><line style="stroke:#181818;stroke-width:1.0;" x1="787.5" x2="828.5" y1="324.9492" y2="324.9492"/><polygon fill="#181818" points="797.5,320.9492,787.5,324.9492,797.5,328.9492,793.5,324.9492" style="stroke:#181818;stroke-width:1.0;"/><text fill="#000000" font-family="sans-serif" font-size="13" font-weight="bold" lengthAdjust="spacing" textLength="7" x="793.5" y="306.6865">8</text><text fill="#000000" font-family="sans-serif" font-size="13" lengthAdjust="spacing" textLength="228" x="804.5" y="306.6865">validateCreateReaderRequest(resource)</text><line style="stroke:#181818;stroke-width:1.0;stroke-dasharray:2.0,2.0;" x1="786.5" x2="828.5" y1="366.2402" y2="366.2402"/><line style="stroke:#181818;stroke-width:1.0;stroke-dasharray:2.0,2.0;" x1="828.5" x2="828.5" y1="366.2402" y2="379.2402"/><line style="stroke:#181818;stroke-width:1.0;stroke-dasharray:2.0,2.0;" x1="781.5" x2="828.5" y1="379.2402" y2="379.2402"/><polygon fill="#181818" points="791.5,375.2402,781.5,379.2402,791.5,383.2402,787.5,379.2402" style="stroke:#181818;stroke-width:1.0;"/><text fill="#000000" font-family="sans-serif" font-size="13" font-weight="bold" lengthAdjust="spacing" textLength="7" x="793.5" y="360.9775">9</text><text fill="#000000" font-family="sans-serif" font-size="13" lengthAdjust="spacing" textLength="14" x="804.5" y="360.9775">ok</text><polygon fill="#181818" points="1707.5,401.5313,1717.5,405.5313,1707.5,409.5313,1711.5,405.5313" style="stroke:#181818;stroke-width:1.0;"/><line style="stroke:#181818;stroke-width:1.0;" x1="781.5" x2="1713.5" y1="405.5313" y2="405.5313"/><text fill="#000000" font-family="sans-serif" font-size="13" font-weight="bold" lengthAdjust="spacing" textLength="14" x="788.5" y="400.2686">10</text><text fill="#000000" font-family="sans-serif" font-size="13" lengthAdjust="spacing" textLength="901" x="806.5" y="400.2686">updateData(desiredVersion, resource.getName(), resource.getEmail(), resource.getDateOfBirth(), resource.getPhoneNumber(), resource.getGDBRConsent())</text><polygon fill="#181818" points="1022.5,432.8223,1032.5,436.8223,1022.5,440.8223,1026.5,436.8223" style="stroke:#181818;stroke-width:1.0;"/><line style="stroke:#181818;stroke-width:1.0;" x1="781.5" x2="1028.5" y1="436.8223" y2="436.8223"/><text fill="#000000" font-family="sans-serif" font-size="13" font-weight="bold" lengthAdjust="spacing" textLength="14" x="788.5" y="431.5596">11</text><text fill="#000000" font-family="sans-serif" font-size="13" lengthAdjust="spacing" textLength="70" x="806.5" y="431.5596">save(reader)</text><polygon fill="#181818" points="792.5,464.1133,782.5,468.1133,792.5,472.1133,788.5,468.1133" style="stroke:#181818;stroke-width:1.0;"/><line style="stroke:#181818;stroke-width:1.0;stroke-dasharray:2.0,2.0;" x1="786.5" x2="1038.5" y1="468.1133" y2="468.1133"/><text fill="#000000" font-family="sans-serif" font-size="13" font-weight="bold" lengthAdjust="spacing" textLength="14" x="798.5" y="462.8506">12</text><text fill="#000000" font-family="sans-serif" font-size="13" lengthAdjust="spacing" textLength="36" x="816.5" y="462.8506">reader</text><polygon fill="#181818" points="491.5,495.4043,481.5,499.4043,491.5,503.4043,487.5,499.4043" style="stroke:#181818;stroke-width:1.0;"/><line style="stroke:#181818;stroke-width:1.0;stroke-dasharray:2.0,2.0;" x1="485.5" x2="775.5" y1="499.4043" y2="499.4043"/><text fill="#000000" font-family="sans-serif" font-size="13" font-weight="bold" lengthAdjust="spacing" textLength="14" x="497.5" y="494.1416">13</text><text fill="#000000" font-family="sans-serif" font-size="13" lengthAdjust="spacing" textLength="36" x="515.5" y="494.1416">reader</text><polygon fill="#181818" points="1208.5,526.6953,1218.5,530.6953,1208.5,534.6953,1212.5,530.6953" style="stroke:#181818;stroke-width:1.0;"/><line style="stroke:#181818;stroke-width:1.0;" x1="480.5" x2="1214.5" y1="530.6953" y2="530.6953"/><text fill="#000000" font-family="sans-serif" font-size="13" font-weight="bold" lengthAdjust="spacing" textLength="14" x="487.5" y="525.4326">14</text><text fill="#000000" font-family="sans-serif" font-size="13" lengthAdjust="spacing" textLength="124" x="505.5" y="525.4326">toReaderView(reader)</text><polygon fill="#181818" points="491.5,557.9863,481.5,561.9863,491.5,565.9863,487.5,561.9863" style="stroke:#181818;stroke-width:1.0;"/><line style="stroke:#181818;stroke-width:1.0;stroke-dasharray:2.0,2.0;" x1="485.5" x2="1224.5" y1="561.9863" y2="561.9863"/><text fill="#000000" font-family="sans-serif" font-size="13" font-weight="bold" lengthAdjust="spacing" textLength="14" x="497.5" y="556.7236">15</text><text fill="#000000" font-family="sans-serif" font-size="13" lengthAdjust="spacing" textLength="64" x="515.5" y="556.7236">readerView</text><polygon fill="#181818" points="1776,589.2773,1786,593.2773,1776,597.2773,1780,593.2773" style="stroke:#181818;stroke-width:1.0;"/><line style="stroke:#181818;stroke-width:1.0;stroke-dasharray:2.0,2.0;" x1="480.5" x2="1782" y1="593.2773" y2="593.2773"/><text fill="#000000" font-family="sans-serif" font-size="13" font-weight="bold" lengthAdjust="spacing" textLength="14" x="487.5" y="588.0146">16</text><text fill="#000000" font-family="sans-serif" font-size="13" lengthAdjust="spacing" textLength="65" x="505.5" y="588.0146">create(200)</text><rect fill="#E2E2F0" height="32.6211" rx="2.5" ry="2.5" style="stroke:#181818;stroke-width:0.5;" width="118" x="1788" y="569.9863"/><text fill="#000000" font-family="sans-serif" font-size="14" lengthAdjust="spacing" textLength="104" x="1795" y="592.0938">result:HttpResult</text><polygon fill="#181818" points="244.5,632.8984,234.5,636.8984,244.5,640.8984,240.5,636.8984" style="stroke:#181818;stroke-width:1.0;"/><line style="stroke:#181818;stroke-width:1.0;stroke-dasharray:2.0,2.0;" x1="238.5" x2="474.5" y1="636.8984" y2="636.8984"/><text fill="#000000" font-family="sans-serif" font-size="13" font-weight="bold" lengthAdjust="spacing" textLength="14" x="250.5" y="631.6357">17</text><text fill="#000000" font-family="sans-serif" font-size="13" lengthAdjust="spacing" textLength="32" x="268.5" y="631.6357">result</text><line style="stroke:#181818;stroke-width:1.0;" x1="233.5" x2="280.5" y1="663.1895" y2="663.1895"/><line style="stroke:#181818;stroke-width:1.0;" x1="280.5" x2="280.5" y1="663.1895" y2="676.1895"/><line style="stroke:#181818;stroke-width:1.0;" x1="239.5" x2="280.5" y1="676.1895" y2="676.1895"/><polygon fill="#181818" points="249.5,672.1895,239.5,676.1895,249.5,680.1895,245.5,676.1895" style="stroke:#181818;stroke-width:1.0;"/><text fill="#000000" font-family="sans-serif" font-size="13" font-weight="bold" lengthAdjust="spacing" textLength="14" x="245.5" y="657.9268">18</text><text fill="#000000" font-family="sans-serif" font-size="13" lengthAdjust="spacing" textLength="152" x="263.5" y="657.9268">setHttpResult(resp, result)</text><polygon fill="#181818" points="89.5,708.4805,79.5,712.4805,89.5,716.4805,85.5,712.4805" style="stroke:#181818;stroke-width:1.0;"/><line style="stroke:#181818;stroke-width:1.0;stroke-dasharray:2.0,2.0;" x1="83.5" x2="222.5" y1="712.4805" y2="712.4805"/><text fill="#000000" font-family="sans-serif" font-size="13" font-weight="bold" lengthAdjust="spacing" textLength="14" x="95.5" y="707.2178">19</text><text fill="#000000" font-family="sans-serif" font-size="13" lengthAdjust="spacing" textLength="25" x="113.5" y="707.2178">resp</text><!--SRC=[ZPCxSzim3CTtVWfUbaWv9yvrrD31piCPaleKDpihmX4l4icIa7l-zkLBp-QksGZW1u347xoi4RKjrclTC8bTsznKgbrR-Ds1hE2Q2_PkM4i8wr2n2iM98L0bWosxzXSOGZGpA2gXNG5wKGBZO8hTuR3VDW8aNb1cwMZEwPf9tZYyL1t2BXeXuVLi4TevNCJQMoNHgAOdjsYQEMV1d4G52N-DLgmQptFSW5Q9BTtH2bJc771lpjcMQUsl6-Wt0N-UWoFHS-UoIvXBX2Ryah9TWyNEYLA6OoBzaJWLUWKcyoJZcLv_JuChwFxdOHqxs8mpP3c94S_uaHMqqyuFaScCLzpYYWg-ekuMgZCLvCIJOyOxu9kh9vHyCAfzEZuphEfTB22cLfyuPAgFeLJIu6lz4-ppl1W5FGh9D-SddWcU4-yAJOQQSShJj25qOetm3RUEwTkMiMlsISDfghlzx291oNJ_EpVRZ8CL1dWQplY06pUn5zP2bizzzoqJpTBfAi6FuqOOh9UXVQqal8JljWmztcrAzoEiap_BFncOPIV8J5Bb_mCR54k1NhNbSXSKrUYRD9XZ_nJqeN4vuc9VNHMq2gfatsvl9xlJxtBy5PC5xWCMSFmgNaMzIl2uxWuVVqYefSbV]--></g></svg>