<?xml version="1.0" encoding="us-ascii" standalone="no"?><svg xmlns="http://www.w3.org/2000/svg" xmlns:xlink="http://www.w3.org/1999/xlink" contentStyleType="text/css" height="784px" preserveAspectRatio="none" style="width:473px;height:784px;background:#FFFFFF;" version="1.1" viewBox="0 0 473 784" width="473px" zoomAndPan="magnify"><defs/><g><!--class Reader--><g id="elem_Reader"><rect codeLine="6" fill="#F1F1F1" height="193.5898" id="Reader" rx="2.5" ry="2.5" style="stroke:#181818;stroke-width:0.5;" width="423" x="43" y="584"/><text fill="#000000" font-family="sans-serif" font-size="14" lengthAdjust="spacing" textLength="47" x="231" y="604.1074">Reader</text><line style="stroke:#181818;stroke-width:0.5;" x1="44" x2="465" y1="612.6211" y2="612.6211"/><text fill="#000000" font-family="sans-serif" font-size="14" lengthAdjust="spacing" textLength="16" x="49" y="631.7285">-id</text><text fill="#000000" font-family="sans-serif" font-size="14" lengthAdjust="spacing" textLength="40" x="49" y="650.3496">-name</text><text fill="#000000" font-family="sans-serif" font-size="14" lengthAdjust="spacing" textLength="38" x="49" y="668.9707">-email</text><text fill="#000000" font-family="sans-serif" font-size="14" lengthAdjust="spacing" textLength="77" x="49" y="687.5918">-dateOfBirth</text><text fill="#000000" font-family="sans-serif" font-size="14" lengthAdjust="spacing" textLength="94" x="49" y="706.2129">-phoneNumber</text><text fill="#000000" font-family="sans-serif" font-size="14" lengthAdjust="spacing" textLength="98" x="49" y="724.834">-GDBRConsent</text><line style="stroke:#181818;stroke-width:0.5;" x1="44" x2="465" y1="732.3477" y2="732.3477"/><text fill="#000000" font-family="sans-serif" font-size="14" lengthAdjust="spacing" textLength="86" x="49" y="751.4551">+getVersion()</text><text fill="#000000" font-family="sans-serif" font-size="14" lengthAdjust="spacing" textLength="411" x="49" y="770.0762">Reader(name, email, dateOfBirth, phoneNumber, GDBRConsent)</text></g><!--class ReaderController--><g id="elem_ReaderController"><rect codeLine="17" fill="#F1F1F1" height="63.2422" id="ReaderController" rx="2.5" ry="2.5" style="stroke:#181818;stroke-width:0.5;" width="129" x="234" y="7"/><text fill="#000000" font-family="sans-serif" font-size="14" lengthAdjust="spacing" textLength="109" x="244" y="27.1074">ReaderController</text><line style="stroke:#181818;stroke-width:0.5;" x1="235" x2="362" y1="35.6211" y2="35.6211"/><line style="stroke:#181818;stroke-width:0.5;" x1="235" x2="362" y1="43.6211" y2="43.6211"/><text fill="#000000" font-family="sans-serif" font-size="14" lengthAdjust="spacing" textLength="117" x="240" y="62.7285">+getTopReaders()</text></g><!--class ReaderServiceImpl--><g id="elem_ReaderServiceImpl"><rect codeLine="21" fill="#F1F1F1" height="63.2422" id="ReaderServiceImpl" rx="2.5" ry="2.5" style="stroke:#181818;stroke-width:0.5;" width="181" x="127" y="131"/><text fill="#000000" font-family="sans-serif" font-size="14" lengthAdjust="spacing" textLength="119" x="158" y="151.1074">ReaderServiceImpl</text><line style="stroke:#181818;stroke-width:0.5;" x1="128" x2="307" y1="159.6211" y2="159.6211"/><line style="stroke:#181818;stroke-width:0.5;" x1="128" x2="307" y1="167.6211" y2="167.6211"/><text fill="#000000" font-family="sans-serif" font-size="14" lengthAdjust="spacing" textLength="169" x="133" y="186.7285">+getTopReaders(topN: int)</text></g><!--class ReaderViewMapper--><g id="elem_ReaderViewMapper"><rect codeLine="25" fill="#F1F1F1" height="63.2422" id="ReaderViewMapper" rx="2.5" ry="2.5" style="stroke:#181818;stroke-width:0.5;" width="160" x="294.5" y="224"/><text fill="#000000" font-family="sans-serif" font-size="14" lengthAdjust="spacing" textLength="124" x="312.5" y="244.1074">ReaderViewMapper</text><line style="stroke:#181818;stroke-width:0.5;" x1="295.5" x2="453.5" y1="252.6211" y2="252.6211"/><line style="stroke:#181818;stroke-width:0.5;" x1="295.5" x2="453.5" y1="260.6211" y2="260.6211"/><text fill="#000000" font-family="sans-serif" font-size="14" lengthAdjust="spacing" textLength="148" x="300.5" y="279.7285">+toReaderView(reader)</text></g><!--class ReaderRepository--><g id="elem_ReaderRepository"><rect codeLine="30" fill="#F1F1F1" height="63.2422" id="ReaderRepository" rx="2.5" ry="2.5" style="stroke:#181818;stroke-width:0.5;" width="319" x="7" y="317"/><text fill="#000000" font-family="sans-serif" font-size="14" lengthAdjust="spacing" textLength="115" x="109" y="337.1074">ReaderRepository</text><line style="stroke:#181818;stroke-width:0.5;" x1="8" x2="325" y1="345.6211" y2="345.6211"/><line style="stroke:#181818;stroke-width:0.5;" x1="8" x2="325" y1="353.6211" y2="353.6211"/><text fill="#000000" font-family="sans-serif" font-size="14" lengthAdjust="spacing" textLength="307" x="13" y="372.7285">+findTopReaders(pageable, startDate, endDate)</text></g><!--class ReaderView--><g id="elem_ReaderView"><rect codeLine="35" fill="#F1F1F1" height="81.8633" id="ReaderView" rx="2.5" ry="2.5" style="stroke:#181818;stroke-width:0.5;" width="82" x="307.5" y="441"/><text fill="#000000" font-family="sans-serif" font-size="14" lengthAdjust="spacing" textLength="76" x="310.5" y="461.1074">ReaderView</text><line style="stroke:#181818;stroke-width:0.5;" x1="308.5" x2="388.5" y1="469.6211" y2="469.6211"/><text fill="#000000" font-family="sans-serif" font-size="14" lengthAdjust="spacing" textLength="40" x="313.5" y="488.7285">-name</text><text fill="#000000" font-family="sans-serif" font-size="14" lengthAdjust="spacing" textLength="38" x="313.5" y="507.3496">-email</text><line style="stroke:#181818;stroke-width:0.5;" x1="308.5" x2="388.5" y1="514.8633" y2="514.8633"/></g><!--link ReaderController to ReaderServiceImpl--><g id="link_ReaderController_ReaderServiceImpl"><path codeLine="41" d="M278.06,70.29 C265.78,88.78 253.5295,107.2319 241.2495,125.7219 " fill="none" id="ReaderController-to-ReaderServiceImpl" style="stroke:#181818;stroke-width:1.0;stroke-dasharray:7.0,7.0;"/><polygon fill="#181818" points="237.93,130.72,246.2413,125.4358,240.6962,126.5549,239.5771,121.0099,237.93,130.72" style="stroke:#181818;stroke-width:1.0;"/></g><!--link ReaderServiceImpl to ReaderRepository--><g id="link_ReaderServiceImpl_ReaderRepository"><path codeLine="42" d="M208.96,194.3 C199.52,228.37 186.0024,277.1379 176.5824,311.1279 " fill="none" id="ReaderServiceImpl-to-ReaderRepository" style="stroke:#181818;stroke-width:1.0;stroke-dasharray:7.0,7.0;"/><polygon fill="#181818" points="174.98,316.91,181.2384,309.3052,176.3154,312.0916,173.529,307.1686,174.98,316.91" style="stroke:#181818;stroke-width:1.0;"/></g><!--link ReaderController to ReaderViewMapper--><g id="link_ReaderController_ReaderViewMapper"><path codeLine="43" d="M309.39,70.3 C323.84,111.18 347.1899,177.2532 361.6299,218.0932 " fill="none" id="ReaderController-to-ReaderViewMapper" style="stroke:#181818;stroke-width:1.0;stroke-dasharray:7.0,7.0;"/><polygon fill="#181818" points="363.63,223.75,364.401,213.9314,361.9632,219.036,356.8586,216.5982,363.63,223.75" style="stroke:#181818;stroke-width:1.0;"/></g><!--link ReaderRepository to Reader--><g id="link_ReaderRepository_Reader"><path codeLine="44" d="M166.5,380.12 C167.19,415.21 170.45,474.17 183.5,523 C188.91,543.23 194.3109,558.6232 202.7309,578.3132 " fill="none" id="ReaderRepository-to-Reader" style="stroke:#181818;stroke-width:1.0;"/><polygon fill="#181818" points="205.09,583.83,205.2292,573.9821,203.1241,579.2327,197.8735,577.1276,205.09,583.83" style="stroke:#181818;stroke-width:1.0;"/><text fill="#000000" font-family="sans-serif" font-size="13" lengthAdjust="spacing" textLength="43" x="184.5" y="487.5283">records</text><text fill="#000000" font-family="sans-serif" font-size="13" lengthAdjust="spacing" textLength="7" x="158.7781" y="402.4281">1</text><text fill="#000000" font-family="sans-serif" font-size="13" lengthAdjust="spacing" textLength="20" x="180.5414" y="572.7948">0..*</text></g><!--link ReaderRepository to Reader--><g id="link_ReaderRepository_Reader"><path codeLine="46" d="M194.93,380.07 C208.74,396.79 224.12,418.62 232.5,441 C249.38,486.07 255.2898,533.124 256.9298,577.784 " fill="none" id="ReaderRepository-to-Reader-1" style="stroke:#181818;stroke-width:1.0;stroke-dasharray:7.0,7.0;"/><polygon fill="#181818" points="257.15,583.78,260.817,574.6393,256.9665,578.7834,252.8224,574.9329,257.15,583.78" style="stroke:#181818;stroke-width:1.0;"/></g><!--link ReaderRepository to ReaderView--><g id="link_ReaderRepository_ReaderView"><path codeLine="45" d="M232.89,380.16 C249.09,388.85 265.93,398.99 280.5,410 C292.34,418.96 299.8498,425.6773 310.0698,436.3973 " fill="none" id="ReaderRepository-to-ReaderView" style="stroke:#181818;stroke-width:1.0;stroke-dasharray:7.0,7.0;"/><polygon fill="#181818" points="314.21,440.74,310.8949,431.4658,310.7599,437.1211,305.1046,436.986,314.21,440.74" style="stroke:#181818;stroke-width:1.0;"/></g><!--link ReaderViewMapper to ReaderView--><g id="link_ReaderViewMapper_ReaderView"><path codeLine="47" d="M370.94,287.25 C366.32,327.11 358.9504,390.7898 353.8504,434.8198 " fill="none" id="ReaderViewMapper-to-ReaderView" style="stroke:#181818;stroke-width:1.0;stroke-dasharray:7.0,7.0;"/><polygon fill="#181818" points="353.16,440.78,358.169,432.3,353.7353,435.8132,350.2221,431.3795,353.16,440.78" style="stroke:#181818;stroke-width:1.0;"/></g><!--link ReaderView to Reader--><g id="link_ReaderView_Reader"><path codeLine="48" d="M329.25,523.34 C320.82,541.01 313.1147,557.1653 302.8947,578.5753 " fill="none" id="ReaderView-to-Reader" style="stroke:#181818;stroke-width:1.0;stroke-dasharray:7.0,7.0;"/><polygon fill="#181818" points="300.31,583.99,307.7969,577.591,302.4639,579.4777,300.5772,574.1448,300.31,583.99" style="stroke:#181818;stroke-width:1.0;"/></g><!--SRC=[VL7BRi8m4BpxAwnS6jeaq2i7f5AaYaEf11Lt4o_4gb-obrOjwh_NUQWO0kGqcjsPMK_kAaJhnyEXbKpZNicYD6fOIkPzpWNREQO8gGG7MWfNIY3-GsZB0asRfIT49pPxX7bfz4hy01qHqape4XW7To0qV3aLl0EQAUWWA2PaXpb3UDjEXSEgOsnbD2psQWEkOrvcq-MpqHuqDim3tG6kmNbXT3feg3OqhKEorZ-BhRFODOiD1-JtzF30epDIXlJ3CUtTs7RiqreH2rRWFaK9SsNb5GKQknXJqOR5qhM0hrTcRPI5vZXANGDx9ox16Y_GkEz_sLPe7YLQjWEsaQ4BZypXB3GHQj6y1ZsxEeeShlsci7nU32sAoON7zvXeBphvXblKnxcC9ey9pVC9JKP5SPzqWZ5rK1h7VN__rFNMd9o7NzRMC5Rz0G00]--></g></svg>