<?xml version="1.0" encoding="us-ascii" standalone="no"?><svg xmlns="http://www.w3.org/2000/svg" xmlns:xlink="http://www.w3.org/1999/xlink" contentStyleType="text/css" height="510px" preserveAspectRatio="none" style="width:1470px;height:510px;background:#FFFFFF;" version="1.1" viewBox="0 0 1470 510" width="1470px" zoomAndPan="magnify"><defs/><g><rect fill="#FFFFFF" height="414.8223" style="stroke:#181818;stroke-width:1.0;" width="10" x="82" y="48.6211"/><rect fill="#FFFFFF" height="391.5313" style="stroke:#181818;stroke-width:1.0;" width="10" x="250.5" y="71.9121"/><rect fill="#FFFFFF" height="36.291" style="stroke:#181818;stroke-width:1.0;" width="10" x="255.5" y="418.1523"/><rect fill="#FFFFFF" height="275.6582" style="stroke:#181818;stroke-width:1.0;" width="10" x="444.5" y="103.2031"/><rect fill="#FFFFFF" height="328.9492" style="stroke:#181818;stroke-width:1.0;" width="10" x="596.5" y="134.4941"/><rect fill="#FFFFFF" height="289.6582" style="stroke:#181818;stroke-width:1.0;" width="10" x="601.5" y="173.7852"/><rect fill="#FFFFFF" height="31.291" style="stroke:#181818;stroke-width:1.0;" width="10" x="933.5" y="210.0762"/><rect fill="#FFFFFF" height="31.291" style="stroke:#181818;stroke-width:1.0;" width="10" x="1119.5" y="272.6582"/><line style="stroke:#181818;stroke-width:0.5;stroke-dasharray:5.0,5.0;" x1="87" x2="87" y1="38.6211" y2="472.4434"/><line style="stroke:#181818;stroke-width:0.5;stroke-dasharray:5.0,5.0;" x1="255" x2="255" y1="38.6211" y2="472.4434"/><line style="stroke:#181818;stroke-width:0.5;stroke-dasharray:5.0,5.0;" x1="449" x2="449" y1="38.6211" y2="472.4434"/><line style="stroke:#181818;stroke-width:0.5;stroke-dasharray:5.0,5.0;" x1="601" x2="601" y1="38.6211" y2="472.4434"/><line style="stroke:#181818;stroke-width:0.5;stroke-dasharray:5.0,5.0;" x1="938.5" x2="938.5" y1="38.6211" y2="472.4434"/><line style="stroke:#181818;stroke-width:0.5;stroke-dasharray:5.0,5.0;" x1="1124.5" x2="1124.5" y1="38.6211" y2="472.4434"/><line style="stroke:#181818;stroke-width:0.5;stroke-dasharray:5.0,5.0;" x1="1282.5" x2="1282.5" y1="38.6211" y2="472.4434"/><line style="stroke:#181818;stroke-width:0.5;stroke-dasharray:5.0,5.0;" x1="1405.5" x2="1405.5" y1="343.7598" y2="472.4434"/><rect fill="#E2E2F0" height="32.6211" rx="2.5" ry="2.5" style="stroke:#181818;stroke-width:0.5;" width="164" x="5" y="5"/><text fill="#000000" font-family="sans-serif" font-size="14" lengthAdjust="spacing" textLength="150" x="12" y="27.1074">Anonymous:HTTPClient</text><rect fill="#E2E2F0" height="32.6211" rx="2.5" ry="2.5" style="stroke:#181818;stroke-width:0.5;" width="164" x="5" y="471.4434"/><text fill="#000000" font-family="sans-serif" font-size="14" lengthAdjust="spacing" textLength="150" x="12" y="493.5508">Anonymous:HTTPClient</text><rect fill="#E2E2F0" height="32.6211" rx="2.5" ry="2.5" style="stroke:#181818;stroke-width:0.5;" width="153" x="179" y="5"/><text fill="#000000" font-family="sans-serif" font-size="14" lengthAdjust="spacing" textLength="139" x="186" y="27.1074">handler:RouteHandler</text><rect fill="#E2E2F0" height="32.6211" rx="2.5" ry="2.5" style="stroke:#181818;stroke-width:0.5;" width="153" x="179" y="471.4434"/><text fill="#000000" font-family="sans-serif" font-size="14" lengthAdjust="spacing" textLength="139" x="186" y="493.5508">handler:RouteHandler</text><rect fill="#E2E2F0" height="32.6211" rx="2.5" ry="2.5" style="stroke:#181818;stroke-width:0.5;" width="127" x="386" y="5"/><text fill="#000000" font-family="sans-serif" font-size="14" lengthAdjust="spacing" textLength="113" x="393" y="27.1074">:ReaderController</text><rect fill="#E2E2F0" height="32.6211" rx="2.5" ry="2.5" style="stroke:#181818;stroke-width:0.5;" width="127" x="386" y="471.4434"/><text fill="#000000" font-family="sans-serif" font-size="14" lengthAdjust="spacing" textLength="113" x="393" y="493.5508">:ReaderController</text><rect fill="#E2E2F0" height="32.6211" rx="2.5" ry="2.5" style="stroke:#181818;stroke-width:0.5;" width="157" x="523" y="5"/><text fill="#000000" font-family="sans-serif" font-size="14" lengthAdjust="spacing" textLength="143" x="530" y="27.1074">service:ReaderService</text><rect fill="#E2E2F0" height="32.6211" rx="2.5" ry="2.5" style="stroke:#181818;stroke-width:0.5;" width="157" x="523" y="471.4434"/><text fill="#000000" font-family="sans-serif" font-size="14" lengthAdjust="spacing" textLength="143" x="530" y="493.5508">service:ReaderService</text><rect fill="#E2E2F0" height="32.6211" rx="2.5" ry="2.5" style="stroke:#181818;stroke-width:0.5;" width="162" x="857.5" y="5"/><text fill="#000000" font-family="sans-serif" font-size="14" lengthAdjust="spacing" textLength="148" x="864.5" y="27.1074">repo:ReaderRepository</text><rect fill="#E2E2F0" height="32.6211" rx="2.5" ry="2.5" style="stroke:#181818;stroke-width:0.5;" width="162" x="857.5" y="471.4434"/><text fill="#000000" font-family="sans-serif" font-size="14" lengthAdjust="spacing" textLength="148" x="864.5" y="493.5508">repo:ReaderRepository</text><rect fill="#E2E2F0" height="32.6211" rx="2.5" ry="2.5" style="stroke:#181818;stroke-width:0.5;" width="190" x="1029.5" y="5"/><text fill="#000000" font-family="sans-serif" font-size="14" lengthAdjust="spacing" textLength="176" x="1036.5" y="27.1074">mapper:ReaderViewMapper</text><rect fill="#E2E2F0" height="32.6211" rx="2.5" ry="2.5" style="stroke:#181818;stroke-width:0.5;" width="190" x="1029.5" y="471.4434"/><text fill="#000000" font-family="sans-serif" font-size="14" lengthAdjust="spacing" textLength="176" x="1036.5" y="493.5508">mapper:ReaderViewMapper</text><rect fill="#E2E2F0" height="32.6211" rx="2.5" ry="2.5" style="stroke:#181818;stroke-width:0.5;" width="107" x="1229.5" y="5"/><text fill="#000000" font-family="sans-serif" font-size="14" lengthAdjust="spacing" textLength="93" x="1236.5" y="27.1074">reader:Reader</text><rect fill="#E2E2F0" height="32.6211" rx="2.5" ry="2.5" style="stroke:#181818;stroke-width:0.5;" width="107" x="1229.5" y="471.4434"/><text fill="#000000" font-family="sans-serif" font-size="14" lengthAdjust="spacing" textLength="93" x="1236.5" y="493.5508">reader:Reader</text><rect fill="#E2E2F0" height="32.6211" rx="2.5" ry="2.5" style="stroke:#181818;stroke-width:0.5;" width="118" x="1346.5" y="471.4434"/><text fill="#000000" font-family="sans-serif" font-size="14" lengthAdjust="spacing" textLength="104" x="1353.5" y="493.5508">result:HttpResult</text><rect fill="#FFFFFF" height="414.8223" style="stroke:#181818;stroke-width:1.0;" width="10" x="82" y="48.6211"/><rect fill="#FFFFFF" height="391.5313" style="stroke:#181818;stroke-width:1.0;" width="10" x="250.5" y="71.9121"/><rect fill="#FFFFFF" height="36.291" style="stroke:#181818;stroke-width:1.0;" width="10" x="255.5" y="418.1523"/><rect fill="#FFFFFF" height="275.6582" style="stroke:#181818;stroke-width:1.0;" width="10" x="444.5" y="103.2031"/><rect fill="#FFFFFF" height="328.9492" style="stroke:#181818;stroke-width:1.0;" width="10" x="596.5" y="134.4941"/><rect fill="#FFFFFF" height="289.6582" style="stroke:#181818;stroke-width:1.0;" width="10" x="601.5" y="173.7852"/><rect fill="#FFFFFF" height="31.291" style="stroke:#181818;stroke-width:1.0;" width="10" x="933.5" y="210.0762"/><rect fill="#FFFFFF" height="31.291" style="stroke:#181818;stroke-width:1.0;" width="10" x="1119.5" y="272.6582"/><polygon fill="#181818" points="238.5,67.9121,248.5,71.9121,238.5,75.9121,242.5,71.9121" style="stroke:#181818;stroke-width:1.0;"/><line style="stroke:#181818;stroke-width:1.0;" x1="92" x2="244.5" y1="71.9121" y2="71.9121"/><text fill="#000000" font-family="sans-serif" font-size="13" font-weight="bold" lengthAdjust="spacing" textLength="7" x="99" y="66.6494">1</text><text fill="#000000" font-family="sans-serif" font-size="13" lengthAdjust="spacing" textLength="95" x="110" y="66.6494">GET/top-readers</text><polygon fill="#181818" points="432.5,99.2031,442.5,103.2031,432.5,107.2031,436.5,103.2031" style="stroke:#181818;stroke-width:1.0;"/><line style="stroke:#181818;stroke-width:1.0;" x1="260.5" x2="438.5" y1="103.2031" y2="103.2031"/><text fill="#000000" font-family="sans-serif" font-size="13" font-weight="bold" lengthAdjust="spacing" textLength="7" x="267.5" y="97.9404">2</text><text fill="#000000" font-family="sans-serif" font-size="13" lengthAdjust="spacing" textLength="95" x="278.5" y="97.9404">getTopReaders()</text><polygon fill="#181818" points="584.5,130.4941,594.5,134.4941,584.5,138.4941,588.5,134.4941" style="stroke:#181818;stroke-width:1.0;"/><line style="stroke:#181818;stroke-width:1.0;" x1="454.5" x2="590.5" y1="134.4941" y2="134.4941"/><text fill="#000000" font-family="sans-serif" font-size="13" font-weight="bold" lengthAdjust="spacing" textLength="7" x="461.5" y="129.2314">3</text><text fill="#000000" font-family="sans-serif" font-size="13" lengthAdjust="spacing" textLength="95" x="472.5" y="129.2314">getTopReaders()</text><line style="stroke:#181818;stroke-width:1.0;" x1="606.5" x2="653.5" y1="160.7852" y2="160.7852"/><line style="stroke:#181818;stroke-width:1.0;" x1="653.5" x2="653.5" y1="160.7852" y2="173.7852"/><line style="stroke:#181818;stroke-width:1.0;" x1="612.5" x2="653.5" y1="173.7852" y2="173.7852"/><polygon fill="#181818" points="622.5,169.7852,612.5,173.7852,622.5,177.7852,618.5,173.7852" style="stroke:#181818;stroke-width:1.0;"/><text fill="#000000" font-family="sans-serif" font-size="13" font-weight="bold" lengthAdjust="spacing" textLength="7" x="618.5" y="155.5225">4</text><text fill="#000000" font-family="sans-serif" font-size="13" lengthAdjust="spacing" textLength="102" x="629.5" y="155.5225">getTopReaders(5)</text><polygon fill="#181818" points="921.5,206.0762,931.5,210.0762,921.5,214.0762,925.5,210.0762" style="stroke:#181818;stroke-width:1.0;"/><line style="stroke:#181818;stroke-width:1.0;" x1="611.5" x2="927.5" y1="210.0762" y2="210.0762"/><text fill="#000000" font-family="sans-serif" font-size="13" font-weight="bold" lengthAdjust="spacing" textLength="7" x="618.5" y="204.8135">5</text><text fill="#000000" font-family="sans-serif" font-size="13" lengthAdjust="spacing" textLength="292" x="629.5" y="204.8135">findTopReaders(PageRequest, startDate, endDate)</text><polygon fill="#181818" points="622.5,237.3672,612.5,241.3672,622.5,245.3672,618.5,241.3672" style="stroke:#181818;stroke-width:1.0;"/><line style="stroke:#181818;stroke-width:1.0;stroke-dasharray:2.0,2.0;" x1="616.5" x2="937.5" y1="241.3672" y2="241.3672"/><text fill="#000000" font-family="sans-serif" font-size="13" font-weight="bold" lengthAdjust="spacing" textLength="7" x="628.5" y="236.1045">6</text><text fill="#000000" font-family="sans-serif" font-size="13" lengthAdjust="spacing" textLength="66" x="639.5" y="236.1045">topReaders</text><polygon fill="#181818" points="1107.5,268.6582,1117.5,272.6582,1107.5,276.6582,1111.5,272.6582" style="stroke:#181818;stroke-width:1.0;"/><line style="stroke:#181818;stroke-width:1.0;" x1="611.5" x2="1113.5" y1="272.6582" y2="272.6582"/><text fill="#000000" font-family="sans-serif" font-size="13" font-weight="bold" lengthAdjust="spacing" textLength="7" x="618.5" y="267.3955">7</text><text fill="#000000" font-family="sans-serif" font-size="13" lengthAdjust="spacing" textLength="154" x="629.5" y="267.3955">toReaderView(topReaders)</text><polygon fill="#181818" points="465.5,299.9492,455.5,303.9492,465.5,307.9492,461.5,303.9492" style="stroke:#181818;stroke-width:1.0;"/><line style="stroke:#181818;stroke-width:1.0;stroke-dasharray:2.0,2.0;" x1="459.5" x2="1123.5" y1="303.9492" y2="303.9492"/><text fill="#000000" font-family="sans-serif" font-size="13" font-weight="bold" lengthAdjust="spacing" textLength="7" x="471.5" y="298.6865">8</text><text fill="#000000" font-family="sans-serif" font-size="13" lengthAdjust="spacing" textLength="71" x="482.5" y="298.6865">readerViews</text><polygon fill="#181818" points="1334.5,331.2402,1344.5,335.2402,1334.5,339.2402,1338.5,335.2402" style="stroke:#181818;stroke-width:1.0;"/><line style="stroke:#181818;stroke-width:1.0;stroke-dasharray:2.0,2.0;" x1="454.5" x2="1340.5" y1="335.2402" y2="335.2402"/><text fill="#000000" font-family="sans-serif" font-size="13" font-weight="bold" lengthAdjust="spacing" textLength="7" x="461.5" y="329.9775">9</text><text fill="#000000" font-family="sans-serif" font-size="13" lengthAdjust="spacing" textLength="65" x="472.5" y="329.9775">create(200)</text><rect fill="#E2E2F0" height="32.6211" rx="2.5" ry="2.5" style="stroke:#181818;stroke-width:0.5;" width="118" x="1346.5" y="311.9492"/><text fill="#000000" font-family="sans-serif" font-size="14" lengthAdjust="spacing" textLength="104" x="1353.5" y="334.0566">result:HttpResult</text><polygon fill="#181818" points="271.5,374.8613,261.5,378.8613,271.5,382.8613,267.5,378.8613" style="stroke:#181818;stroke-width:1.0;"/><line style="stroke:#181818;stroke-width:1.0;stroke-dasharray:2.0,2.0;" x1="265.5" x2="448.5" y1="378.8613" y2="378.8613"/><text fill="#000000" font-family="sans-serif" font-size="13" font-weight="bold" lengthAdjust="spacing" textLength="14" x="277.5" y="373.5986">10</text><text fill="#000000" font-family="sans-serif" font-size="13" lengthAdjust="spacing" textLength="32" x="295.5" y="373.5986">result</text><line style="stroke:#181818;stroke-width:1.0;" x1="260.5" x2="307.5" y1="405.1523" y2="405.1523"/><line style="stroke:#181818;stroke-width:1.0;" x1="307.5" x2="307.5" y1="405.1523" y2="418.1523"/><line style="stroke:#181818;stroke-width:1.0;" x1="266.5" x2="307.5" y1="418.1523" y2="418.1523"/><polygon fill="#181818" points="276.5,414.1523,266.5,418.1523,276.5,422.1523,272.5,418.1523" style="stroke:#181818;stroke-width:1.0;"/><text fill="#000000" font-family="sans-serif" font-size="13" font-weight="bold" lengthAdjust="spacing" textLength="14" x="272.5" y="399.8896">11</text><text fill="#000000" font-family="sans-serif" font-size="13" lengthAdjust="spacing" textLength="152" x="290.5" y="399.8896">setHttpResult(resp, result)</text><polygon fill="#181818" points="103,450.4434,93,454.4434,103,458.4434,99,454.4434" style="stroke:#181818;stroke-width:1.0;"/><line style="stroke:#181818;stroke-width:1.0;stroke-dasharray:2.0,2.0;" x1="97" x2="249.5" y1="454.4434" y2="454.4434"/><text fill="#000000" font-family="sans-serif" font-size="13" font-weight="bold" lengthAdjust="spacing" textLength="14" x="109" y="449.1807">12</text><text fill="#000000" font-family="sans-serif" font-size="13" lengthAdjust="spacing" textLength="25" x="127" y="449.1807">resp</text><!--SRC=[VPBBQiCm44Nt-WgHJUCGDw7GZHQ5afPcKmYEwLwrfud0bbHfd9A_hrw9hHIwcyUv8-cExew8shBLIdTSuj1tzutgLnQ-1v0DbAtW1yDxGlY0YZSeJXo1AXboEVIVO0ZHtA1eX7O3wEnPAddkrM3Pjgvtcqw0n1dbbevfBZXosNPWMAK6X6rCWc1_jWXz3hCAU0jceoGQrLt83PekvooOasWWuVkOnQanpd43MYMsSg4LgCmvu3xDsPvhxQyRw0y1F- -XaEYyU7kAxoRbXB-bxD0XsxgzL25Cf0_T7YuxcDX9nfYMJyatHjzUwnKgNSPZBObrJtY_63q0rah7AzXvGNmrw9DtVu3K-8Tvp23l7QDVGhOJPCSFKFdlPN59BRgNlxZdB2d8rWS5yIfQJi_0gpgVddljkR4s7qL-P8w6yT44SstPP40OxSrUB1XjN1zX_h1U5sFxOd3SrCJNIyC2ZkkREqml4rnSQOUFQmkpDFa5]--></g></svg>