<?xml version="1.0" encoding="us-ascii" standalone="no"?><svg xmlns="http://www.w3.org/2000/svg" xmlns:xlink="http://www.w3.org/1999/xlink" contentStyleType="text/css" height="494px" preserveAspectRatio="none" style="width:1724px;height:494px;background:#FFFFFF;" version="1.1" viewBox="0 0 1724 494" width="1724px" zoomAndPan="magnify"><defs/><g><!--class RouteHandler--><g id="elem_RouteHandler"><rect codeLine="7" fill="#F1F1F1" height="63.2422" id="RouteHandler" rx="2.5" ry="2.5" style="stroke:#181818;stroke-width:0.5;" width="423" x="7" y="319.5"/><text fill="#000000" font-family="sans-serif" font-size="14" lengthAdjust="spacing" textLength="87" x="175" y="339.6074">RouteHandler</text><line style="stroke:#181818;stroke-width:0.5;" x1="8" x2="429" y1="348.1211" y2="348.1211"/><line style="stroke:#181818;stroke-width:0.5;" x1="8" x2="429" y1="356.1211" y2="356.1211"/><text fill="#000000" font-family="sans-serif" font-size="14" lengthAdjust="spacing" textLength="411" x="13" y="375.2285">+putBook(isbn, title, genre, author, description=None): HttpResult</text></g><!--class BookController--><g id="elem_BookController"><rect codeLine="11" fill="#F1F1F1" height="63.2422" id="BookController" rx="2.5" ry="2.5" style="stroke:#181818;stroke-width:0.5;" width="422" x="490" y="319.5"/><text fill="#000000" font-family="sans-serif" font-size="14" lengthAdjust="spacing" textLength="94" x="654" y="339.6074">BookController</text><line style="stroke:#181818;stroke-width:0.5;" x1="491" x2="911" y1="348.1211" y2="348.1211"/><line style="stroke:#181818;stroke-width:0.5;" x1="491" x2="911" y1="356.1211" y2="356.1211"/><text fill="#000000" font-family="sans-serif" font-size="14" lengthAdjust="spacing" textLength="410" x="496" y="375.2285">+updateBook(isbn, title, genre, author, description=None): Result</text></g><!--class BookService--><g id="elem_BookService"><rect codeLine="15" fill="#F1F1F1" height="100.4844" id="BookService" rx="2.5" ry="2.5" style="stroke:#181818;stroke-width:0.5;" width="356" x="972" y="107"/><text fill="#000000" font-family="sans-serif" font-size="14" lengthAdjust="spacing" textLength="79" x="1110.5" y="127.1074">BookService</text><line style="stroke:#181818;stroke-width:0.5;" x1="973" x2="1327" y1="135.6211" y2="135.6211"/><line style="stroke:#181818;stroke-width:0.5;" x1="973" x2="1327" y1="143.6211" y2="143.6211"/><text fill="#000000" font-family="sans-serif" font-size="14" lengthAdjust="spacing" textLength="95" x="978" y="162.7285">-validate(book)</text><text fill="#000000" font-family="sans-serif" font-size="14" lengthAdjust="spacing" textLength="344" x="978" y="181.3496">+update(title, genre, author, description=None): Result</text><text fill="#000000" font-family="sans-serif" font-size="14" lengthAdjust="spacing" textLength="121" x="978" y="199.9707">+add(book): Result</text></g><!--class Book--><g id="elem_Book"><rect codeLine="21" fill="#F1F1F1" height="156.3477" id="Book" rx="2.5" ry="2.5" style="stroke:#181818;stroke-width:0.5;" width="329" x="1388" y="7"/><text fill="#000000" font-family="sans-serif" font-size="14" lengthAdjust="spacing" textLength="32" x="1536.5" y="27.1074">Book</text><line style="stroke:#181818;stroke-width:0.5;" x1="1389" x2="1716" y1="35.6211" y2="35.6211"/><text fill="#000000" font-family="sans-serif" font-size="14" lengthAdjust="spacing" textLength="35" x="1394" y="54.7285">-isbn,</text><text fill="#000000" font-family="sans-serif" font-size="14" lengthAdjust="spacing" textLength="31" x="1394" y="73.3496">-title,</text><text fill="#000000" font-family="sans-serif" font-size="14" lengthAdjust="spacing" textLength="46" x="1394" y="91.9707">-genre,</text><text fill="#000000" font-family="sans-serif" font-size="14" lengthAdjust="spacing" textLength="57" x="1394" y="110.5918">-authors,</text><text fill="#000000" font-family="sans-serif" font-size="14" lengthAdjust="spacing" textLength="74" x="1394" y="129.2129">-description</text><line style="stroke:#181818;stroke-width:0.5;" x1="1389" x2="1716" y1="136.7266" y2="136.7266"/><text fill="#000000" font-family="sans-serif" font-size="14" lengthAdjust="spacing" textLength="317" x="1394" y="155.834">Book(isbn, title, genre, authors, description=None)</text></g><!--class BookRepository--><g id="elem_BookRepository"><rect codeLine="30" fill="#F1F1F1" height="81.8633" id="BookRepository" rx="2.5" ry="2.5" style="stroke:#181818;stroke-width:0.5;" width="204" x="1450.5" y="339"/><text fill="#000000" font-family="sans-serif" font-size="14" lengthAdjust="spacing" textLength="100" x="1502.5" y="359.1074">BookRepository</text><line style="stroke:#181818;stroke-width:0.5;" x1="1451.5" x2="1653.5" y1="367.6211" y2="367.6211"/><line style="stroke:#181818;stroke-width:0.5;" x1="1451.5" x2="1653.5" y1="375.6211" y2="375.6211"/><text fill="#000000" font-family="sans-serif" font-size="14" lengthAdjust="spacing" textLength="192" x="1456.5" y="394.7285">+findById(Id) : Optional&lt;Book&gt;</text><text fill="#000000" font-family="sans-serif" font-size="14" lengthAdjust="spacing" textLength="127" x="1456.5" y="413.3496">+save(book): Result</text></g><!--class GenreRepository--><g id="elem_GenreRepository"><rect codeLine="35" fill="#F1F1F1" height="63.2422" id="GenreRepository" rx="2.5" ry="2.5" style="stroke:#181818;stroke-width:0.5;" width="212" x="1446.5" y="198.5"/><text fill="#000000" font-family="sans-serif" font-size="14" lengthAdjust="spacing" textLength="108" x="1498.5" y="218.6074">GenreRepository</text><line style="stroke:#181818;stroke-width:0.5;" x1="1447.5" x2="1657.5" y1="227.1211" y2="227.1211"/><line style="stroke:#181818;stroke-width:0.5;" x1="1447.5" x2="1657.5" y1="235.1211" y2="235.1211"/><text fill="#000000" font-family="sans-serif" font-size="14" lengthAdjust="spacing" textLength="200" x="1452.5" y="254.2285">+findById(Id) : Optional&lt;Genre&gt;</text></g><!--class HttpResult--><g id="elem_HttpResult"><rect codeLine="40" fill="#F1F1F1" height="100.4844" id="HttpResult" rx="2.5" ry="2.5" style="stroke:#181818;stroke-width:0.5;" width="318" x="991" y="242"/><text fill="#000000" font-family="sans-serif" font-size="14" lengthAdjust="spacing" textLength="65" x="1117.5" y="262.1074">HttpResult</text><line style="stroke:#181818;stroke-width:0.5;" x1="992" x2="1308" y1="270.6211" y2="270.6211"/><text fill="#000000" font-family="sans-serif" font-size="14" lengthAdjust="spacing" textLength="116" x="997" y="289.7285">-status: HttpStatus</text><text fill="#000000" font-family="sans-serif" font-size="14" lengthAdjust="spacing" textLength="74" x="997" y="308.3496">-result: json</text><line style="stroke:#181818;stroke-width:0.5;" x1="992" x2="1308" y1="315.8633" y2="315.8633"/><text fill="#000000" font-family="sans-serif" font-size="14" lengthAdjust="spacing" textLength="306" x="997" y="334.9707">HttpResult(HttpStatus status, const json &amp;result);</text></g><!--class BookViewMapper--><g id="elem_BookViewMapper"><rect codeLine="46" fill="#F1F1F1" height="63.2422" id="BookViewMapper" rx="2.5" ry="2.5" style="stroke:#181818;stroke-width:0.5;" width="134" x="1083" y="377.5"/><text fill="#000000" font-family="sans-serif" font-size="14" lengthAdjust="spacing" textLength="109" x="1095.5" y="397.6074">BookViewMapper</text><line style="stroke:#181818;stroke-width:0.5;" x1="1084" x2="1216" y1="406.1211" y2="406.1211"/><line style="stroke:#181818;stroke-width:0.5;" x1="1084" x2="1216" y1="414.1211" y2="414.1211"/><text fill="#000000" font-family="sans-serif" font-size="14" lengthAdjust="spacing" textLength="122" x="1089" y="433.2285">+toBookView(book)</text></g><!--link RouteHandler to BookController--><g id="link_RouteHandler_BookController"><path codeLine="52" d="M430.25,351 C450.05,351 464.11,351 483.9,351 " fill="none" id="RouteHandler-to-BookController" style="stroke:#181818;stroke-width:1.0;stroke-dasharray:7.0,7.0;"/><polygon fill="#181818" points="489.9,351,480.9,347,484.9,351,480.9,355,489.9,351" style="stroke:#181818;stroke-width:1.0;"/></g><!--link BookController to BookService--><g id="link_BookController_BookService"><path codeLine="53" d="M765.47,319.43 C819.79,292.83 900.34,254.36 972,224 C985.31,218.36 993.7023,214.8912 1007.7023,209.3412 " fill="none" id="BookController-to-BookService" style="stroke:#181818;stroke-width:1.0;stroke-dasharray:7.0,7.0;"/><polygon fill="#181818" points="1013.28,207.13,1003.4393,206.7283,1008.6319,208.9726,1006.3876,214.1652,1013.28,207.13" style="stroke:#181818;stroke-width:1.0;"/></g><!--link BookController to BookViewMapper--><g id="link_BookController_BookViewMapper"><path codeLine="54" d="M912.08,378.26 C973.96,386.28 1031.2498,393.7183 1076.8198,399.6283 " fill="none" id="BookController-to-BookViewMapper" style="stroke:#181818;stroke-width:1.0;stroke-dasharray:7.0,7.0;"/><polygon fill="#181818" points="1082.77,400.4,1074.3592,395.2757,1077.8115,399.7569,1073.3303,403.2093,1082.77,400.4" style="stroke:#181818;stroke-width:1.0;"/></g><!--link BookService to BookRepository--><g id="link_BookService_BookRepository"><path codeLine="55" d="M1297.09,207.1 C1307.78,212.33 1318.21,217.97 1328,224 C1358.8,242.96 1359.15,257.17 1388,279 C1416.34,300.43 1444.2411,318.4296 1473.1911,335.7496 " fill="none" id="BookService-to-BookRepository" style="stroke:#181818;stroke-width:1.0;stroke-dasharray:7.0,7.0;"/><polygon fill="#181818" points="1478.34,338.83,1472.6703,330.7768,1474.0493,336.263,1468.5631,337.6419,1478.34,338.83" style="stroke:#181818;stroke-width:1.0;"/></g><!--link BookService to GenreRepository--><g id="link_BookService_GenreRepository"><path codeLine="56" d="M1328.12,189.28 C1368.53,196.65 1404.3173,203.164 1440.5773,209.774 " fill="none" id="BookService-to-GenreRepository" style="stroke:#181818;stroke-width:1.0;stroke-dasharray:7.0,7.0;"/><polygon fill="#181818" points="1446.48,210.85,1438.3433,205.3008,1441.5611,209.9533,1436.9086,213.1711,1446.48,210.85" style="stroke:#181818;stroke-width:1.0;"/></g><!--link BookService to Book--><g id="link_BookService_Book"><path codeLine="57" d="M1328.12,125.15 C1348.01,121.58 1362.3151,119.0141 1382.0151,115.4641 " fill="none" id="BookService-to-Book" style="stroke:#181818;stroke-width:1.0;stroke-dasharray:7.0,7.0;"/><polygon fill="#181818" points="1387.92,114.4,1378.3533,112.0595,1382.9993,115.2867,1379.7721,119.9327,1387.92,114.4" style="stroke:#181818;stroke-width:1.0;"/></g><!--link BookRepository to BookController--><g id="link_BookRepository_BookController"><path codeLine="58" d="M1456.56,421.04 C1417.51,435.82 1371.36,450.65 1328,458 C1172,484.44 1127.41,487.67 972,458 C896.72,443.62 821.0419,411.2319 767.5919,385.1419 " fill="none" id="BookRepository-to-BookController" style="stroke:#181818;stroke-width:1.0;stroke-dasharray:7.0,7.0;"/><polygon fill="#181818" points="762.2,382.51,768.5333,390.0525,766.6933,384.7033,772.0425,382.8632,762.2,382.51" style="stroke:#181818;stroke-width:1.0;"/></g><!--link BookController to HttpResult--><g id="link_BookController_HttpResult"><path codeLine="59" d="M912.08,323.27 C938.6,319.77 959.4216,317.0155 984.9416,313.6455 " fill="none" id="BookController-to-HttpResult" style="stroke:#181818;stroke-width:1.0;stroke-dasharray:7.0,7.0;"/><polygon fill="#181818" points="990.89,312.86,981.4438,310.0727,985.933,313.5146,982.4911,318.0038,990.89,312.86" style="stroke:#181818;stroke-width:1.0;"/></g><!--SRC=[dLFBJiCm4BpxA_O4gIWjvmALW0Fq04YjnDsDbtR1jIrxKmI8VoUn7JKjHJnoIUoTsLbFneTBPXT6mw7Jqd2rqeFIheQbbY4SAv8BBrT2uoC3M_2qM38eybWoMIF4aXH2IRxKAC8p6IThE4Jo1REdUSKuAQsPqHl2YH2n0bDRRzz8epHwU1TGFqUkuajhdmiASzC79jROXmKQNxzanKlh-w0mb9vS8tr-PmtsHd1J3p_5K6aM7stxfi-LDUojxWXKJad6_sZiwpz3lwOIS_FZjTJKj2_cTQtN5Ip-AXEvKgdKQhzwAmln9Fax2UL5aikB91hQPKSxxlpWITWpxVOuKtGs45l_sfhzI4PTlavKCL4z6C5zf4fzrg372HBa6hyxutMZ__kk4Jvkw9c_IKNhL639LKXvcSNljEyZQWHF8PkneHORB2Hw7-ee1uvWE4ZKtkcs5m-4BxVIEVGYJrrVdBQGuz4CkdK71eFnJch5JeXRHCxTT-MEUZUbRNbZwPVoZkLxwMBdP_zkxCuL_GG0]--></g></svg>