<?xml version="1.0" encoding="us-ascii" standalone="no"?><svg xmlns="http://www.w3.org/2000/svg" xmlns:xlink="http://www.w3.org/1999/xlink" contentStyleType="text/css" height="699px" preserveAspectRatio="none" style="width:1802px;height:699px;background:#FFFFFF;" version="1.1" viewBox="0 0 1802 699" width="1802px" zoomAndPan="magnify"><defs/><g><rect fill="#FFFFFF" height="603.7261" style="stroke:#181818;stroke-width:1.0;" width="10" x="76" y="49.0679"/><rect fill="#FFFFFF" height="580.0201" style="stroke:#181818;stroke-width:1.0;" width="10" x="244" y="72.7739"/><rect fill="#FFFFFF" height="36.706" style="stroke:#181818;stroke-width:1.0;" width="10" x="249" y="607.088"/><rect fill="#FFFFFF" height="462.902" style="stroke:#181818;stroke-width:1.0;" width="10" x="443" y="104.4799"/><rect fill="#FFFFFF" height="292.01" style="stroke:#181818;stroke-width:1.0;" width="10" x="622" y="136.186"/><rect fill="#FFFFFF" height="42.706" style="stroke:#181818;stroke-width:1.0;" width="10" x="627" y="175.892"/><rect fill="#FFFFFF" height="31.706" style="stroke:#181818;stroke-width:1.0;" width="10" x="894" y="364.784"/><rect fill="#FFFFFF" height="75.7739" style="stroke:#181818;stroke-width:1.0;" width="10" x="1085" y="257.304"/><rect fill="#FFFFFF" height="31.706" style="stroke:#181818;stroke-width:1.0;" width="10" x="1690.5" y="459.902"/><line style="stroke:#181818;stroke-width:0.5;stroke-dasharray:5.0,5.0;" x1="81" x2="81" y1="39.0679" y2="661.794"/><line style="stroke:#181818;stroke-width:0.5;stroke-dasharray:5.0,5.0;" x1="249" x2="249" y1="39.0679" y2="661.794"/><line style="stroke:#181818;stroke-width:0.5;stroke-dasharray:5.0,5.0;" x1="447.5" x2="447.5" y1="39.0679" y2="661.794"/><line style="stroke:#181818;stroke-width:0.5;stroke-dasharray:5.0,5.0;" x1="626.5" x2="626.5" y1="39.0679" y2="661.794"/><line style="stroke:#181818;stroke-width:0.5;stroke-dasharray:5.0,5.0;" x1="899" x2="899" y1="39.0679" y2="661.794"/><line style="stroke:#181818;stroke-width:0.5;stroke-dasharray:5.0,5.0;" x1="1090" x2="1090" y1="39.0679" y2="661.794"/><line style="stroke:#181818;stroke-width:0.5;stroke-dasharray:5.0,5.0;" x1="1392" x2="1392" y1="297.338" y2="661.794"/><line style="stroke:#181818;stroke-width:0.5;stroke-dasharray:5.0,5.0;" x1="1521" x2="1521" y1="531.642" y2="661.794"/><line style="stroke:#181818;stroke-width:0.5;stroke-dasharray:5.0,5.0;" x1="1695" x2="1695" y1="39.0679" y2="661.794"/><rect fill="#E2E2F0" height="33.0679" rx="2.5" ry="2.5" style="stroke:#181818;stroke-width:0.5;" width="152" x="5" y="5"/><text fill="#000000" font-family="sans-serif" font-size="14" lengthAdjust="spacing" textLength="138" x="12" y="26.9659">Librarian:HTTPClient</text><rect fill="#E2E2F0" height="33.0679" rx="2.5" ry="2.5" style="stroke:#181818;stroke-width:0.5;" width="152" x="5" y="660.794"/><text fill="#000000" font-family="sans-serif" font-size="14" lengthAdjust="spacing" textLength="138" x="12" y="682.7599">Librarian:HTTPClient</text><rect fill="#E2E2F0" height="33.0679" rx="2.5" ry="2.5" style="stroke:#181818;stroke-width:0.5;" width="164" x="167" y="5"/><text fill="#000000" font-family="sans-serif" font-size="14" lengthAdjust="spacing" textLength="150" x="174" y="26.9659">handler:RouteHandler</text><rect fill="#E2E2F0" height="33.0679" rx="2.5" ry="2.5" style="stroke:#181818;stroke-width:0.5;" width="164" x="167" y="660.794"/><text fill="#000000" font-family="sans-serif" font-size="14" lengthAdjust="spacing" textLength="150" x="174" y="682.7599">handler:RouteHandler</text><rect fill="#E2E2F0" height="33.0679" rx="2.5" ry="2.5" style="stroke:#181818;stroke-width:0.5;" width="131" x="382.5" y="5"/><text fill="#000000" font-family="sans-serif" font-size="14" lengthAdjust="spacing" textLength="117" x="389.5" y="26.9659">:AuthorController</text><rect fill="#E2E2F0" height="33.0679" rx="2.5" ry="2.5" style="stroke:#181818;stroke-width:0.5;" width="131" x="382.5" y="660.794"/><text fill="#000000" font-family="sans-serif" font-size="14" lengthAdjust="spacing" textLength="117" x="389.5" y="682.7599">:AuthorController</text><rect fill="#E2E2F0" height="33.0679" rx="2.5" ry="2.5" style="stroke:#181818;stroke-width:0.5;" width="159" x="547.5" y="5"/><text fill="#000000" font-family="sans-serif" font-size="14" lengthAdjust="spacing" textLength="145" x="554.5" y="26.9659">service:AuthorService</text><rect fill="#E2E2F0" height="33.0679" rx="2.5" ry="2.5" style="stroke:#181818;stroke-width:0.5;" width="159" x="547.5" y="660.794"/><text fill="#000000" font-family="sans-serif" font-size="14" lengthAdjust="spacing" textLength="145" x="554.5" y="682.7599">service:AuthorService</text><rect fill="#E2E2F0" height="33.0679" rx="2.5" ry="2.5" style="stroke:#181818;stroke-width:0.5;" width="166" x="816" y="5"/><text fill="#000000" font-family="sans-serif" font-size="14" lengthAdjust="spacing" textLength="152" x="823" y="26.9659">repo:AuthorRepository</text><rect fill="#E2E2F0" height="33.0679" rx="2.5" ry="2.5" style="stroke:#181818;stroke-width:0.5;" width="166" x="816" y="660.794"/><text fill="#000000" font-family="sans-serif" font-size="14" lengthAdjust="spacing" textLength="152" x="823" y="682.7599">repo:AuthorRepository</text><rect fill="#E2E2F0" height="33.0679" rx="2.5" ry="2.5" style="stroke:#181818;stroke-width:0.5;" width="196" x="992" y="5"/><text fill="#000000" font-family="sans-serif" font-size="14" lengthAdjust="spacing" textLength="182" x="999" y="26.9659">mapper:EditAuthorMapper</text><rect fill="#E2E2F0" height="33.0679" rx="2.5" ry="2.5" style="stroke:#181818;stroke-width:0.5;" width="196" x="992" y="660.794"/><text fill="#000000" font-family="sans-serif" font-size="14" lengthAdjust="spacing" textLength="182" x="999" y="682.7599">mapper:EditAuthorMapper</text><rect fill="#E2E2F0" height="33.0679" rx="2.5" ry="2.5" style="stroke:#181818;stroke-width:0.5;" width="109" x="1338" y="660.794"/><text fill="#000000" font-family="sans-serif" font-size="14" lengthAdjust="spacing" textLength="95" x="1345" y="682.7599">author:Author</text><rect fill="#E2E2F0" height="33.0679" rx="2.5" ry="2.5" style="stroke:#181818;stroke-width:0.5;" width="128" x="1457" y="660.794"/><text fill="#000000" font-family="sans-serif" font-size="14" lengthAdjust="spacing" textLength="114" x="1464" y="682.7599">result:HttpResult</text><rect fill="#E2E2F0" height="33.0679" rx="2.5" ry="2.5" style="stroke:#181818;stroke-width:0.5;" width="201" x="1595" y="5"/><text fill="#000000" font-family="sans-serif" font-size="14" lengthAdjust="spacing" textLength="187" x="1602" y="26.9659">mapper:AuthorViewMapper</text><rect fill="#E2E2F0" height="33.0679" rx="2.5" ry="2.5" style="stroke:#181818;stroke-width:0.5;" width="201" x="1595" y="660.794"/><text fill="#000000" font-family="sans-serif" font-size="14" lengthAdjust="spacing" textLength="187" x="1602" y="682.7599">mapper:AuthorViewMapper</text><rect fill="#FFFFFF" height="603.7261" style="stroke:#181818;stroke-width:1.0;" width="10" x="76" y="49.0679"/><rect fill="#FFFFFF" height="580.0201" style="stroke:#181818;stroke-width:1.0;" width="10" x="244" y="72.7739"/><rect fill="#FFFFFF" height="36.706" style="stroke:#181818;stroke-width:1.0;" width="10" x="249" y="607.088"/><rect fill="#FFFFFF" height="462.902" style="stroke:#181818;stroke-width:1.0;" width="10" x="443" y="104.4799"/><rect fill="#FFFFFF" height="292.01" style="stroke:#181818;stroke-width:1.0;" width="10" x="622" y="136.186"/><rect fill="#FFFFFF" height="42.706" style="stroke:#181818;stroke-width:1.0;" width="10" x="627" y="175.892"/><rect fill="#FFFFFF" height="31.706" style="stroke:#181818;stroke-width:1.0;" width="10" x="894" y="364.784"/><rect fill="#FFFFFF" height="75.7739" style="stroke:#181818;stroke-width:1.0;" width="10" x="1085" y="257.304"/><rect fill="#FFFFFF" height="31.706" style="stroke:#181818;stroke-width:1.0;" width="10" x="1690.5" y="459.902"/><polygon fill="#181818" points="232,68.7739,242,72.7739,232,76.7739,236,72.7739" style="stroke:#181818;stroke-width:1.0;"/><line style="stroke:#181818;stroke-width:1.0;" x1="86" x2="238" y1="72.7739" y2="72.7739"/><text fill="#000000" font-family="sans-serif" font-size="13" font-weight="bold" lengthAdjust="spacing" textLength="7" x="93" y="66.9649">1</text><text fill="#000000" font-family="sans-serif" font-size="13" lengthAdjust="spacing" textLength="119" x="104" y="66.9649">POST/authors(data)</text><polygon fill="#181818" points="431,100.4799,441,104.4799,431,108.4799,435,104.4799" style="stroke:#181818;stroke-width:1.0;"/><line style="stroke:#181818;stroke-width:1.0;" x1="254" x2="437" y1="104.4799" y2="104.4799"/><text fill="#000000" font-family="sans-serif" font-size="13" font-weight="bold" lengthAdjust="spacing" textLength="7" x="261" y="98.6709">2</text><text fill="#000000" font-family="sans-serif" font-size="13" lengthAdjust="spacing" textLength="139" x="272" y="98.6709">createAuthor(resource)</text><polygon fill="#181818" points="610,132.186,620,136.186,610,140.186,614,136.186" style="stroke:#181818;stroke-width:1.0;"/><line style="stroke:#181818;stroke-width:1.0;" x1="453" x2="616" y1="136.186" y2="136.186"/><text fill="#000000" font-family="sans-serif" font-size="13" font-weight="bold" lengthAdjust="spacing" textLength="7" x="460" y="130.377">3</text><text fill="#000000" font-family="sans-serif" font-size="13" lengthAdjust="spacing" textLength="139" x="471" y="130.377">createAuthor(resource)</text><line style="stroke:#181818;stroke-width:1.0;" x1="632" x2="679" y1="162.892" y2="162.892"/><line style="stroke:#181818;stroke-width:1.0;" x1="679" x2="679" y1="162.892" y2="175.892"/><line style="stroke:#181818;stroke-width:1.0;" x1="638" x2="679" y1="175.892" y2="175.892"/><polygon fill="#181818" points="648,171.892,638,175.892,648,179.892,644,175.892" style="stroke:#181818;stroke-width:1.0;"/><text fill="#000000" font-family="sans-serif" font-size="13" font-weight="bold" lengthAdjust="spacing" textLength="7" x="644" y="157.083">4</text><text fill="#000000" font-family="sans-serif" font-size="13" lengthAdjust="spacing" textLength="237" x="655" y="157.083">validateCreateAuthorRequest(resource)</text><line style="stroke:#181818;stroke-width:1.0;stroke-dasharray:2.0,2.0;" x1="637" x2="679" y1="217.598" y2="217.598"/><line style="stroke:#181818;stroke-width:1.0;stroke-dasharray:2.0,2.0;" x1="679" x2="679" y1="217.598" y2="230.598"/><line style="stroke:#181818;stroke-width:1.0;stroke-dasharray:2.0,2.0;" x1="632" x2="679" y1="230.598" y2="230.598"/><polygon fill="#181818" points="642,226.598,632,230.598,642,234.598,638,230.598" style="stroke:#181818;stroke-width:1.0;"/><text fill="#000000" font-family="sans-serif" font-size="13" font-weight="bold" lengthAdjust="spacing" textLength="7" x="644" y="211.789">5</text><text fill="#000000" font-family="sans-serif" font-size="13" lengthAdjust="spacing" textLength="15" x="655" y="211.789">ok</text><polygon fill="#181818" points="1073,253.304,1083,257.304,1073,261.304,1077,257.304" style="stroke:#181818;stroke-width:1.0;"/><line style="stroke:#181818;stroke-width:1.0;" x1="632" x2="1079" y1="257.304" y2="257.304"/><text fill="#000000" font-family="sans-serif" font-size="13" font-weight="bold" lengthAdjust="spacing" textLength="7" x="639" y="251.495">6</text><text fill="#000000" font-family="sans-serif" font-size="13" lengthAdjust="spacing" textLength="97" x="650" y="251.495">create(resource)</text><polygon fill="#181818" points="1326,285.01,1336,289.01,1326,293.01,1330,289.01" style="stroke:#181818;stroke-width:1.0;"/><line style="stroke:#181818;stroke-width:1.0;stroke-dasharray:2.0,2.0;" x1="1095" x2="1332" y1="289.01" y2="289.01"/><text fill="#000000" font-family="sans-serif" font-size="13" font-weight="bold" lengthAdjust="spacing" textLength="7" x="1102" y="283.201">7</text><text fill="#000000" font-family="sans-serif" font-size="13" lengthAdjust="spacing" textLength="208" x="1113" y="283.201">create(EditAuthorRequest request)</text><rect fill="#E2E2F0" height="33.0679" rx="2.5" ry="2.5" style="stroke:#181818;stroke-width:0.5;" width="109" x="1338" y="265.304"/><text fill="#000000" font-family="sans-serif" font-size="14" lengthAdjust="spacing" textLength="95" x="1345" y="287.27">author:Author</text><polygon fill="#181818" points="643,329.0779,633,333.0779,643,337.0779,639,333.0779" style="stroke:#181818;stroke-width:1.0;"/><line style="stroke:#181818;stroke-width:1.0;stroke-dasharray:2.0,2.0;" x1="637" x2="1089" y1="333.0779" y2="333.0779"/><text fill="#000000" font-family="sans-serif" font-size="13" font-weight="bold" lengthAdjust="spacing" textLength="7" x="649" y="327.2689">8</text><text fill="#000000" font-family="sans-serif" font-size="13" lengthAdjust="spacing" textLength="41" x="660" y="327.2689">author</text><polygon fill="#181818" points="882,360.784,892,364.784,882,368.784,886,364.784" style="stroke:#181818;stroke-width:1.0;"/><line style="stroke:#181818;stroke-width:1.0;" x1="632" x2="888" y1="364.784" y2="364.784"/><text fill="#000000" font-family="sans-serif" font-size="13" font-weight="bold" lengthAdjust="spacing" textLength="7" x="639" y="358.975">9</text><text fill="#000000" font-family="sans-serif" font-size="13" lengthAdjust="spacing" textLength="76" x="650" y="358.975">save(author)</text><polygon fill="#181818" points="643,392.49,633,396.49,643,400.49,639,396.49" style="stroke:#181818;stroke-width:1.0;"/><line style="stroke:#181818;stroke-width:1.0;stroke-dasharray:2.0,2.0;" x1="637" x2="898" y1="396.49" y2="396.49"/><text fill="#000000" font-family="sans-serif" font-size="13" font-weight="bold" lengthAdjust="spacing" textLength="14" x="649" y="390.681">10</text><text fill="#000000" font-family="sans-serif" font-size="13" lengthAdjust="spacing" textLength="41" x="667" y="390.681">author</text><polygon fill="#181818" points="464,424.196,454,428.196,464,432.196,460,428.196" style="stroke:#181818;stroke-width:1.0;"/><line style="stroke:#181818;stroke-width:1.0;stroke-dasharray:2.0,2.0;" x1="458" x2="626" y1="428.196" y2="428.196"/><text fill="#000000" font-family="sans-serif" font-size="13" font-weight="bold" lengthAdjust="spacing" textLength="14" x="470" y="422.387">11</text><text fill="#000000" font-family="sans-serif" font-size="13" lengthAdjust="spacing" textLength="41" x="488" y="422.387">author</text><polygon fill="#181818" points="1678.5,455.902,1688.5,459.902,1678.5,463.902,1682.5,459.902" style="stroke:#181818;stroke-width:1.0;"/><line style="stroke:#181818;stroke-width:1.0;" x1="453" x2="1684.5" y1="459.902" y2="459.902"/><text fill="#000000" font-family="sans-serif" font-size="13" font-weight="bold" lengthAdjust="spacing" textLength="14" x="460" y="454.093">12</text><text fill="#000000" font-family="sans-serif" font-size="13" lengthAdjust="spacing" textLength="122" x="478" y="454.093">toAuthorView(book)</text><polygon fill="#181818" points="464,487.608,454,491.608,464,495.608,460,491.608" style="stroke:#181818;stroke-width:1.0;"/><line style="stroke:#181818;stroke-width:1.0;stroke-dasharray:2.0,2.0;" x1="458" x2="1694.5" y1="491.608" y2="491.608"/><text fill="#000000" font-family="sans-serif" font-size="13" font-weight="bold" lengthAdjust="spacing" textLength="14" x="470" y="485.799">13</text><text fill="#000000" font-family="sans-serif" font-size="13" lengthAdjust="spacing" textLength="69" x="488" y="485.799">authorView</text><polygon fill="#181818" points="1445,519.314,1455,523.314,1445,527.314,1449,523.314" style="stroke:#181818;stroke-width:1.0;"/><line style="stroke:#181818;stroke-width:1.0;stroke-dasharray:2.0,2.0;" x1="453" x2="1451" y1="523.314" y2="523.314"/><text fill="#000000" font-family="sans-serif" font-size="13" font-weight="bold" lengthAdjust="spacing" textLength="14" x="460" y="517.505">14</text><text fill="#000000" font-family="sans-serif" font-size="13" lengthAdjust="spacing" textLength="141" x="478" y="517.505">create(201, authorView)</text><rect fill="#E2E2F0" height="33.0679" rx="2.5" ry="2.5" style="stroke:#181818;stroke-width:0.5;" width="128" x="1457" y="499.608"/><text fill="#000000" font-family="sans-serif" font-size="14" lengthAdjust="spacing" textLength="114" x="1464" y="521.574">result:HttpResult</text><polygon fill="#181818" points="265,563.382,255,567.382,265,571.382,261,567.382" style="stroke:#181818;stroke-width:1.0;"/><line style="stroke:#181818;stroke-width:1.0;stroke-dasharray:2.0,2.0;" x1="259" x2="447" y1="567.382" y2="567.382"/><text fill="#000000" font-family="sans-serif" font-size="13" font-weight="bold" lengthAdjust="spacing" textLength="14" x="271" y="561.573">15</text><text fill="#000000" font-family="sans-serif" font-size="13" lengthAdjust="spacing" textLength="34" x="289" y="561.573">result</text><line style="stroke:#181818;stroke-width:1.0;" x1="254" x2="301" y1="594.088" y2="594.088"/><line style="stroke:#181818;stroke-width:1.0;" x1="301" x2="301" y1="594.088" y2="607.088"/><line style="stroke:#181818;stroke-width:1.0;" x1="260" x2="301" y1="607.088" y2="607.088"/><polygon fill="#181818" points="270,603.088,260,607.088,270,611.088,266,607.088" style="stroke:#181818;stroke-width:1.0;"/><text fill="#000000" font-family="sans-serif" font-size="13" font-weight="bold" lengthAdjust="spacing" textLength="14" x="266" y="588.279">16</text><text fill="#000000" font-family="sans-serif" font-size="13" lengthAdjust="spacing" textLength="157" x="284" y="588.279">setHttpResult(resp, result)</text><polygon fill="#181818" points="97,639.794,87,643.794,97,647.794,93,643.794" style="stroke:#181818;stroke-width:1.0;"/><line style="stroke:#181818;stroke-width:1.0;stroke-dasharray:2.0,2.0;" x1="91" x2="243" y1="643.794" y2="643.794"/><text fill="#000000" font-family="sans-serif" font-size="13" font-weight="bold" lengthAdjust="spacing" textLength="14" x="103" y="637.985">17</text><text fill="#000000" font-family="sans-serif" font-size="13" lengthAdjust="spacing" textLength="26" x="121" y="637.985">resp</text><!--SRC=[VP9DJyCm38Rl-HKH5rR4673C0GbDI3k0cBQ9kzTPBA9jGk8EyU_9LvTqC4wpuyTltzc-t1DfAsOptK17VTlSrAgTMVpiiQjnkfFmRg1b37fIK9Cy025NNSYxljsYOKo38LbBxGJunRFS6Z0IEh7OR9RpHc975nmip-cuOG_Tha4ZLgedNCGaDAo_BM4xXiLZJtjbvgeZevg1d9Dfnfn5Sv0r9dmTiwWQup5kKAl4hbne9Idp7N2VZjaMj7PsdtQIOiTBU0ZqwUEu4q8bVIVmCJprOlk6nCBjPHN2vCE7Vpg98cyIlmedENMx6_PMh83bc4yVqgm5NxwkDxFeqqvsG52nMFAG7xFWjK6d5JywSMPLRsgic2y6fJJvSrogZz03DD9z3ET5oygVeAM_EijMzL4gdiv_S56ed291BZvSNHtvJ2KVtCJVCm97Ft5sfIT_GO9REE0a5Ylcd_vlEqux5ORfvhKAJYflVh9LwgDYkVnBmfUIJ33bpwdum_UtTzS5MMLqE8rubyKv30MBb8_LJrfV9pWVZyFpmGKjpNu0]--></g></svg>