<?xml version="1.0" encoding="us-ascii" standalone="no"?><svg xmlns="http://www.w3.org/2000/svg" xmlns:xlink="http://www.w3.org/1999/xlink" contentStyleType="text/css" height="756px" preserveAspectRatio="none" style="width:629px;height:756px;background:#FFFFFF;" version="1.1" viewBox="0 0 629 756" width="629px" zoomAndPan="magnify"><defs/><g><!--class Author--><g id="elem_Author"><rect codeLine="6" fill="#F1F1F1" height="140.4075" id="Author" rx="2.5" ry="2.5" style="stroke:#181818;stroke-width:0.5;" width="168" x="58" y="608.81"/><text fill="#000000" font-family="sans-serif" font-size="14" lengthAdjust="spacing" textLength="46" x="119" y="628.7759">Author</text><line style="stroke:#181818;stroke-width:0.5;" x1="59" x2="225" y1="637.8779" y2="637.8779"/><text fill="#000000" font-family="sans-serif" font-size="14" lengthAdjust="spacing" textLength="18" x="64" y="656.8439">-id</text><text fill="#000000" font-family="sans-serif" font-size="14" lengthAdjust="spacing" textLength="43" x="64" y="675.9118">-name</text><text fill="#000000" font-family="sans-serif" font-size="14" lengthAdjust="spacing" textLength="61" x="64" y="694.9797">-shortBio</text><line style="stroke:#181818;stroke-width:0.5;" x1="59" x2="225" y1="703.0817" y2="703.0817"/><text fill="#000000" font-family="sans-serif" font-size="14" lengthAdjust="spacing" textLength="88" x="64" y="722.0476">+getVersion()</text><text fill="#000000" font-family="sans-serif" font-size="14" lengthAdjust="spacing" textLength="156" x="64" y="741.1155">Author(name, shortBio)</text></g><!--class AuthorController--><g id="elem_AuthorController"><rect codeLine="14" fill="#F1F1F1" height="64.1358" id="AuthorController" rx="2.5" ry="2.5" style="stroke:#181818;stroke-width:0.5;" width="340" x="119" y="7"/><text fill="#000000" font-family="sans-serif" font-size="14" lengthAdjust="spacing" textLength="113" x="232.5" y="26.9659">AuthorController</text><line style="stroke:#181818;stroke-width:0.5;" x1="120" x2="458" y1="36.0679" y2="36.0679"/><line style="stroke:#181818;stroke-width:0.5;" x1="120" x2="458" y1="44.0679" y2="44.0679"/><text fill="#000000" font-family="sans-serif" font-size="14" lengthAdjust="spacing" textLength="328" x="125" y="63.0339">+createAuthor(final EditAuthorRequest resource)</text></g><!--class AuthorServiceImpl--><g id="elem_AuthorServiceImpl"><rect codeLine="18" fill="#F1F1F1" height="83.2038" id="AuthorServiceImpl" rx="2.5" ry="2.5" style="stroke:#181818;stroke-width:0.5;" width="366" x="59" y="132.13"/><text fill="#000000" font-family="sans-serif" font-size="14" lengthAdjust="spacing" textLength="125" x="179.5" y="152.0959">AuthorServiceImpl</text><line style="stroke:#181818;stroke-width:0.5;" x1="60" x2="424" y1="161.1979" y2="161.1979"/><line style="stroke:#181818;stroke-width:0.5;" x1="60" x2="424" y1="169.1979" y2="169.1979"/><text fill="#000000" font-family="sans-serif" font-size="14" lengthAdjust="spacing" textLength="163" x="65" y="188.1639">+createAuthor(resource)</text><text fill="#000000" font-family="sans-serif" font-size="14" lengthAdjust="spacing" textLength="354" x="65" y="207.2318">+validateCreateAuthorRequest(request, id, resource)</text></g><!--class AuthorViewMapper--><g id="elem_AuthorViewMapper"><rect codeLine="44" fill="#F1F1F1" height="83.2038" id="AuthorViewMapper" rx="2.5" ry="2.5" style="stroke:#181818;stroke-width:0.5;" width="163" x="459.5" y="132.13"/><text fill="#000000" font-family="sans-serif" font-size="14" lengthAdjust="spacing" textLength="130" x="476" y="152.0959">AuthorViewMapper</text><line style="stroke:#181818;stroke-width:0.5;" x1="460.5" x2="621.5" y1="161.1979" y2="161.1979"/><line style="stroke:#181818;stroke-width:0.5;" x1="460.5" x2="621.5" y1="169.1979" y2="169.1979"/><text fill="#000000" font-family="sans-serif" font-size="14" lengthAdjust="spacing" textLength="151" x="465.5" y="188.1639">+toAuthorView(author)</text><text fill="#000000" font-family="sans-serif" font-size="14" lengthAdjust="spacing" textLength="151" x="465.5" y="207.2318">+toAuthorView(author)</text></g><!--class EditAuthorMapper--><g id="elem_EditAuthorMapper"><rect codeLine="28" fill="#F1F1F1" height="64.1358" id="EditAuthorMapper" rx="2.5" ry="2.5" style="stroke:#181818;stroke-width:0.5;" width="131" x="157.5" y="276.34"/><text fill="#000000" font-family="sans-serif" font-size="14" lengthAdjust="spacing" textLength="125" x="160.5" y="296.3059">EditAuthorMapper</text><line style="stroke:#181818;stroke-width:0.5;" x1="158.5" x2="287.5" y1="305.4079" y2="305.4079"/><line style="stroke:#181818;stroke-width:0.5;" x1="158.5" x2="287.5" y1="313.4079" y2="313.4079"/><text fill="#000000" font-family="sans-serif" font-size="14" lengthAdjust="spacing" textLength="117" x="163.5" y="332.3739">+create(resource)</text></g><!--class AuthorRepository--><g id="elem_AuthorRepository"><rect codeLine="33" fill="#F1F1F1" height="64.1358" id="AuthorRepository" rx="2.5" ry="2.5" style="stroke:#181818;stroke-width:0.5;" width="123" x="289.5" y="370.47"/><text fill="#000000" font-family="sans-serif" font-size="14" lengthAdjust="spacing" textLength="117" x="292.5" y="390.4359">AuthorRepository</text><line style="stroke:#181818;stroke-width:0.5;" x1="290.5" x2="411.5" y1="399.5379" y2="399.5379"/><line style="stroke:#181818;stroke-width:0.5;" x1="290.5" x2="411.5" y1="407.5379" y2="407.5379"/><text fill="#000000" font-family="sans-serif" font-size="14" lengthAdjust="spacing" textLength="91" x="295.5" y="426.5039">+save(author)</text></g><!--class EditAuthorRequest--><g id="elem_EditAuthorRequest"><rect codeLine="38" fill="#F1F1F1" height="83.2038" id="EditAuthorRequest" rx="2.5" ry="2.5" style="stroke:#181818;stroke-width:0.5;" width="133" x="150.5" y="464.61"/><text fill="#000000" font-family="sans-serif" font-size="14" lengthAdjust="spacing" textLength="127" x="153.5" y="484.5759">EditAuthorRequest</text><line style="stroke:#181818;stroke-width:0.5;" x1="151.5" x2="282.5" y1="493.6779" y2="493.6779"/><text fill="#000000" font-family="sans-serif" font-size="14" lengthAdjust="spacing" textLength="43" x="156.5" y="512.6439">-name</text><text fill="#000000" font-family="sans-serif" font-size="14" lengthAdjust="spacing" textLength="61" x="156.5" y="531.7118">-shortBio</text><line style="stroke:#181818;stroke-width:0.5;" x1="151.5" x2="282.5" y1="539.8138" y2="539.8138"/></g><!--link AuthorController to AuthorServiceImpl--><g id="link_AuthorController_AuthorServiceImpl"><path codeLine="49" d="M277.86,71.51 C271.46,89.59 265.3451,106.855 258.4451,126.315 " fill="none" id="AuthorController-to-AuthorServiceImpl" style="stroke:#181818;stroke-width:1.0;stroke-dasharray:7.0,7.0;"/><polygon fill="#181818" points="256.44,131.97,263.2177,124.8242,258.1109,127.2575,255.6777,122.1507,256.44,131.97" style="stroke:#181818;stroke-width:1.0;"/></g><!--link AuthorController to AuthorViewMapper--><g id="link_AuthorController_AuthorViewMapper"><path codeLine="50" d="M348.72,71.51 C382.92,89.51 420.9308,109.5249 457.7808,128.9249 " fill="none" id="AuthorController-to-AuthorViewMapper" style="stroke:#181818;stroke-width:1.0;stroke-dasharray:7.0,7.0;"/><polygon fill="#181818" points="463.09,131.72,456.9896,123.9879,458.6657,129.3908,453.2628,131.0669,463.09,131.72" style="stroke:#181818;stroke-width:1.0;"/></g><!--link AuthorController to AuthorViewMapper--><g id="link_AuthorController_AuthorViewMapper"><path codeLine="53" d="M354.64,71.6 C373.58,80.91 394.2,91.25 413,101.13 C431.37,110.79 445.7813,118.6249 464.0313,128.8149 " fill="none" id="AuthorController-to-AuthorViewMapper-1" style="stroke:#181818;stroke-width:1.0;stroke-dasharray:7.0,7.0;"/><polygon fill="#181818" points="469.27,131.74,463.362,123.8599,464.9044,129.3024,459.4619,130.8449,469.27,131.74" style="stroke:#181818;stroke-width:1.0;"/></g><!--link AuthorServiceImpl to EditAuthorMapper--><g id="link_AuthorServiceImpl_EditAuthorMapper"><path codeLine="51" d="M236.14,215.62 C233.35,235.11 230.9213,252.1207 228.3313,270.1907 " fill="none" id="AuthorServiceImpl-to-EditAuthorMapper" style="stroke:#181818;stroke-width:1.0;stroke-dasharray:7.0,7.0;"/><polygon fill="#181818" points="227.48,276.13,232.7165,267.7886,228.1894,271.1806,224.7974,266.6535,227.48,276.13" style="stroke:#181818;stroke-width:1.0;"/></g><!--link AuthorServiceImpl to AuthorRepository--><g id="link_AuthorServiceImpl_AuthorRepository"><path codeLine="52" d="M270.58,215.58 C282.48,233.67 295.86,255.54 306,276.34 C321.03,307.17 331.9729,338.6323 340.0229,364.4323 " fill="none" id="AuthorServiceImpl-to-AuthorRepository" style="stroke:#181818;stroke-width:1.0;stroke-dasharray:7.0,7.0;"/><polygon fill="#181818" points="341.81,370.16,342.9478,360.3771,340.3207,365.3869,335.3109,362.7599,341.81,370.16" style="stroke:#181818;stroke-width:1.0;"/></g><!--link EditAuthorMapper to EditAuthorRequest--><g id="link_EditAuthorMapper_EditAuthorRequest"><path codeLine="54" d="M222.04,340.86 C221.01,374.38 219.5645,421.5628 218.4345,458.3028 " fill="none" id="EditAuthorMapper-to-EditAuthorRequest" style="stroke:#181818;stroke-width:1.0;stroke-dasharray:7.0,7.0;"/><polygon fill="#181818" points="218.25,464.3,222.5248,455.4272,218.4037,459.3024,214.5286,455.1813,218.25,464.3" style="stroke:#181818;stroke-width:1.0;"/></g><!--link AuthorController to Author--><g id="link_AuthorController_Author"><path codeLine="55" d="M118.66,61.81 C58.73,79.86 6,112.77 6,172.74 C6,172.74 6,172.74 6,507.21 C6,547.96 25.8122,580.2838 53.6322,609.0938 " fill="none" id="AuthorController-to-Author" style="stroke:#181818;stroke-width:1.0;stroke-dasharray:7.0,7.0;"/><polygon fill="#181818" points="57.8,613.41,54.4257,604.1572,54.3268,609.8132,48.6708,609.7143,57.8,613.41" style="stroke:#181818;stroke-width:1.0;"/></g><!--link AuthorServiceImpl to Author--><g id="link_AuthorServiceImpl_Author"><path codeLine="56" d="M186.5,215.69 C168.3,232.31 150.17,253.09 140,276.34 C92.64,384.64 107.707,519.7338 124.087,602.6338 " fill="none" id="AuthorServiceImpl-to-Author" style="stroke:#181818;stroke-width:1.0;stroke-dasharray:7.0,7.0;"/><polygon fill="#181818" points="125.25,608.52,127.4296,598.9153,124.2808,603.6148,119.5813,600.4661,125.25,608.52" style="stroke:#181818;stroke-width:1.0;"/></g><!--link EditAuthorRequest to Author--><g id="link_EditAuthorRequest_Author"><path codeLine="57" d="M199.04,548.12 C191.11,566.18 183.9729,582.4366 174.9729,602.9266 " fill="none" id="EditAuthorRequest-to-Author" style="stroke:#181818;stroke-width:1.0;stroke-dasharray:7.0,7.0;"/><polygon fill="#181818" points="172.56,608.42,179.8417,601.7885,174.5708,603.8421,172.5171,598.5712,172.56,608.42" style="stroke:#181818;stroke-width:1.0;"/></g><!--link AuthorRepository to Author--><g id="link_AuthorRepository_Author"><path codeLine="58" d="M345.29,435.09 C338.56,465.96 325.12,513.24 301,547.81 C281.1,576.34 258.0239,598.3435 231.2239,619.2135 " fill="none" id="AuthorRepository-to-Author" style="stroke:#181818;stroke-width:1.0;"/><polygon fill="#181818" points="226.49,622.9,236.0485,620.5263,230.4349,619.828,231.1333,614.2144,226.49,622.9" style="stroke:#181818;stroke-width:1.0;"/><text fill="#000000" font-family="sans-serif" font-size="13" lengthAdjust="spacing" textLength="45" x="339" y="511.607">records</text><text fill="#000000" font-family="sans-serif" font-size="13" lengthAdjust="spacing" textLength="7" x="336.5919" y="456.6211">1</text><text fill="#000000" font-family="sans-serif" font-size="13" lengthAdjust="spacing" textLength="20" x="234.0197" y="614.6762">0..*</text></g><!--SRC=[bLBDKi8m4BxdAJAzM9GMl79W1XaF7Bp03FUOhh1ZsiHaYwECxsv8AoqjThINRdQ_dzrDRlP4niqc4wD4GMMkKgdpYLJ2kIH3iRCYPsoF6N29LYfWxXKB8toQ1z22oE9pIR2IkjZW9_0fOw725oNjjJqoxh-4OrO7XSYX3fslqmFgSBpZEw0jM8UwY4SXLId49yRu31wnhqk7fIx8QgN0icEj92q8Wfh-WeLG_353gX9hU2l14RVWT6abd0JRUXkm1vImoeswBjWGg-91ACnyUTa2rIOU6_vZF__uLySjmlkJCAOr0Ucc58iGjWPlXkdGgZxZjj65qngCTaZQVfmfJXnWoA6UX1q7xg_ZyezvkbV8qtH-vHu6O2sp7Y_0Uikw3kijw6-UNVMEvS_s1iG6-s7zTzjZDZtpw3xYIJBdqJHDRwCQDlCFJsgREVOD]--></g></svg>