<?xml version="1.0" encoding="us-ascii" standalone="no"?><svg xmlns="http://www.w3.org/2000/svg" xmlns:xlink="http://www.w3.org/1999/xlink" contentStyleType="text/css" height="372px" preserveAspectRatio="none" style="width:693px;height:372px;background:#FFFFFF;" version="1.1" viewBox="0 0 693 372" width="693px" zoomAndPan="magnify"><defs/><g><rect fill="#FFFFFF" height="186.7461" style="stroke:#181818;stroke-width:1.0;" width="10" x="31" y="93.6211"/><rect fill="#FFFFFF" height="146.1641" style="stroke:#181818;stroke-width:1.0;" width="10" x="331" y="134.2031"/><rect fill="#FFFFFF" height="146.1641" style="stroke:#181818;stroke-width:1.0;" width="10" x="331" y="134.2031"/><rect fill="#FFFFFF" height="97.873" style="stroke:#181818;stroke-width:1.0;" width="10" x="336" y="173.4941"/><rect fill="#FFFFFF" height="53.582" style="stroke:#181818;stroke-width:1.0;" width="10" x="341" y="217.7852"/><line style="stroke:#181818;stroke-width:0.5;stroke-dasharray:5.0,5.0;" x1="36" x2="36" y1="83.6211" y2="289.3672"/><line style="stroke:#181818;stroke-width:0.5;stroke-dasharray:5.0,5.0;" x1="331" x2="331" y1="83.6211" y2="289.3672"/><text fill="#000000" font-family="sans-serif" font-size="14" lengthAdjust="spacing" textLength="56" x="5" y="80.1074">Librarian</text><ellipse cx="36" cy="13.5" fill="#E2E2F0" rx="8" ry="8" style="stroke:#181818;stroke-width:0.5;"/><path d="M36,21.5 L36,48.5 M23,29.5 L49,29.5 M36,48.5 L23,63.5 M36,48.5 L49,63.5 " fill="none" style="stroke:#181818;stroke-width:0.5;"/><text fill="#000000" font-family="sans-serif" font-size="14" lengthAdjust="spacing" textLength="56" x="5" y="303.4746">Librarian</text><ellipse cx="36" cy="315.4883" fill="#E2E2F0" rx="8" ry="8" style="stroke:#181818;stroke-width:0.5;"/><path d="M36,323.4883 L36,350.4883 M23,331.4883 L49,331.4883 M36,350.4883 L23,365.4883 M36,350.4883 L49,365.4883 " fill="none" style="stroke:#181818;stroke-width:0.5;"/><rect fill="#E2E2F0" height="32.6211" rx="2.5" ry="2.5" style="stroke:#181818;stroke-width:0.5;" width="64" x="299" y="50"/><text fill="#000000" font-family="sans-serif" font-size="14" lengthAdjust="spacing" textLength="50" x="306" y="72.1074">:System</text><rect fill="#E2E2F0" height="32.6211" rx="2.5" ry="2.5" style="stroke:#181818;stroke-width:0.5;" width="64" x="299" y="288.3672"/><text fill="#000000" font-family="sans-serif" font-size="14" lengthAdjust="spacing" textLength="50" x="306" y="310.4746">:System</text><rect fill="#FFFFFF" height="186.7461" style="stroke:#181818;stroke-width:1.0;" width="10" x="31" y="93.6211"/><rect fill="#FFFFFF" height="146.1641" style="stroke:#181818;stroke-width:1.0;" width="10" x="331" y="134.2031"/><rect fill="#FFFFFF" height="146.1641" style="stroke:#181818;stroke-width:1.0;" width="10" x="331" y="134.2031"/><rect fill="#FFFFFF" height="97.873" style="stroke:#181818;stroke-width:1.0;" width="10" x="336" y="173.4941"/><rect fill="#FFFFFF" height="53.582" style="stroke:#181818;stroke-width:1.0;" width="10" x="341" y="217.7852"/><polygon fill="#181818" points="319,130.2031,329,134.2031,319,138.2031,323,134.2031" style="stroke:#181818;stroke-width:1.0;"/><line style="stroke:#181818;stroke-width:1.0;" x1="41" x2="325" y1="134.2031" y2="134.2031"/><text fill="#000000" font-family="sans-serif" font-size="13" font-weight="bold" lengthAdjust="spacing" textLength="7" x="48" y="120.2949">1</text><text fill="#000000" font-family="sans-serif" font-size="13" lengthAdjust="spacing" textLength="198" x="59" y="111.6494">Requests average lending duration</text><text fill="#000000" font-family="sans-serif" font-size="13" lengthAdjust="spacing" textLength="227" x="59" y="128.9404">per genre per month for a certain period</text><line style="stroke:#181818;stroke-width:1.0;" x1="341" x2="388" y1="160.4941" y2="160.4941"/><line style="stroke:#181818;stroke-width:1.0;" x1="388" x2="388" y1="160.4941" y2="173.4941"/><line style="stroke:#181818;stroke-width:1.0;" x1="347" x2="388" y1="173.4941" y2="173.4941"/><polygon fill="#181818" points="357,169.4941,347,173.4941,357,177.4941,353,173.4941" style="stroke:#181818;stroke-width:1.0;"/><text fill="#000000" font-family="sans-serif" font-size="13" font-weight="bold" lengthAdjust="spacing" textLength="7" x="353" y="155.2314">2</text><text fill="#000000" font-family="sans-serif" font-size="13" lengthAdjust="spacing" textLength="254" x="364" y="155.2314">Retrieve lending data for the specified period</text><line style="stroke:#181818;stroke-width:1.0;" x1="346" x2="393" y1="204.7852" y2="204.7852"/><line style="stroke:#181818;stroke-width:1.0;" x1="393" x2="393" y1="204.7852" y2="217.7852"/><line style="stroke:#181818;stroke-width:1.0;" x1="352" x2="393" y1="217.7852" y2="217.7852"/><polygon fill="#181818" points="362,213.7852,352,217.7852,362,221.7852,358,217.7852" style="stroke:#181818;stroke-width:1.0;"/><text fill="#000000" font-family="sans-serif" font-size="13" font-weight="bold" lengthAdjust="spacing" textLength="7" x="358" y="199.5225">3</text><text fill="#000000" font-family="sans-serif" font-size="13" lengthAdjust="spacing" textLength="317" x="369" y="199.5225">Calculate average lending duration per genre per month</text><polygon fill="#181818" points="52,267.3672,42,271.3672,52,275.3672,48,271.3672" style="stroke:#181818;stroke-width:1.0;"/><line style="stroke:#181818;stroke-width:1.0;stroke-dasharray:2.0,2.0;" x1="46" x2="330" y1="271.3672" y2="271.3672"/><text fill="#000000" font-family="sans-serif" font-size="13" font-weight="bold" lengthAdjust="spacing" textLength="7" x="58" y="257.459">4</text><text fill="#000000" font-family="sans-serif" font-size="13" lengthAdjust="spacing" textLength="186" x="69" y="248.8135">Display average lending duration</text><text fill="#000000" font-family="sans-serif" font-size="13" lengthAdjust="spacing" textLength="250" x="69" y="266.1045">per genre per month for the specified period</text><!--SRC=[dP6xKiGm34NxV8Kc3TMIFWKDb5JGqcXjRQ8PMpQod9dzU_9OiZoMXigIB9rxBT-DPhdqNPS3YjKOxbsANQ7tIkBeu1a7nTWqM2sXCvxG29AikTHu99tld2M5zfcFYieeBM21FMiogh7ZFFEXxL_FnIYkBLkupc_SwqopXt1uk3JsyBBOAbO09r8S20A9Pnd0LqNZ96-IIM4WKO8bYabiXDFi3i6H6h8iTKx-AdfniHtVrKoPfYygQBZ2R2GecHoVcFmdy3VW4OEhOT7uoo_SiBk3PjA-XHwUkCnVTFx7qs-wRJpzsC07]--></g></svg>
