<?xml version="1.0" encoding="us-ascii" standalone="no"?><svg xmlns="http://www.w3.org/2000/svg" xmlns:xlink="http://www.w3.org/1999/xlink" contentStyleType="text/css" height="1054px" preserveAspectRatio="none" style="width:1093px;height:1054px;background:#FFFFFF;" version="1.1" viewBox="0 0 1093 1054" width="1093px" zoomAndPan="magnify"><defs/><g><!--class Lending--><g id="elem_Lending"><rect codeLine="6" fill="#F1F1F1" height="249.4531" id="Lending" rx="2.5" ry="2.5" style="stroke:#181818;stroke-width:0.5;" width="160" x="490" y="477"/><text fill="#000000" font-family="sans-serif" font-size="14" lengthAdjust="spacing" textLength="51" x="544.5" y="497.1074">Lending</text><line style="stroke:#181818;stroke-width:0.5;" x1="491" x2="649" y1="505.6211" y2="505.6211"/><text fill="#000000" font-family="sans-serif" font-size="14" lengthAdjust="spacing" textLength="56" x="496" y="524.7285">-id: Long</text><text fill="#000000" font-family="sans-serif" font-size="14" lengthAdjust="spacing" textLength="130" x="496" y="543.3496">-lendingCode: String</text><text fill="#000000" font-family="sans-serif" font-size="14" lengthAdjust="spacing" textLength="86" x="496" y="561.9707">-version: long</text><text fill="#000000" font-family="sans-serif" font-size="14" lengthAdjust="spacing" textLength="98" x="496" y="580.5918">-readerId: Long</text><text fill="#000000" font-family="sans-serif" font-size="14" lengthAdjust="spacing" textLength="87" x="496" y="599.2129">-bookId: Long</text><text fill="#000000" font-family="sans-serif" font-size="14" lengthAdjust="spacing" textLength="108" x="496" y="617.834">-bookTitle: String</text><text fill="#000000" font-family="sans-serif" font-size="14" lengthAdjust="spacing" textLength="148" x="496" y="636.4551">-daysTillReturn: Integer</text><text fill="#000000" font-family="sans-serif" font-size="14" lengthAdjust="spacing" textLength="142" x="496" y="655.0762">-daysOverdue: Integer</text><text fill="#000000" font-family="sans-serif" font-size="14" lengthAdjust="spacing" textLength="68" x="496" y="673.6973">-fine: Float</text><text fill="#000000" font-family="sans-serif" font-size="14" lengthAdjust="spacing" textLength="118" x="496" y="692.3184">-returned: boolean</text><text fill="#000000" font-family="sans-serif" font-size="14" lengthAdjust="spacing" textLength="107" x="496" y="710.9395">-comment: String</text><line style="stroke:#181818;stroke-width:0.5;" x1="491" x2="649" y1="718.4531" y2="718.4531"/></g><!--class LendingController--><g id="elem_LendingController"><rect codeLine="20" fill="#F1F1F1" height="63.2422" id="LendingController" rx="2.5" ry="2.5" style="stroke:#181818;stroke-width:0.5;" width="718" x="287" y="7"/><text fill="#000000" font-family="sans-serif" font-size="14" lengthAdjust="spacing" textLength="113" x="589.5" y="27.1074">LendingController</text><line style="stroke:#181818;stroke-width:0.5;" x1="288" x2="1004" y1="35.6211" y2="35.6211"/><line style="stroke:#181818;stroke-width:0.5;" x1="288" x2="1004" y1="43.6211" y2="43.6211"/><text fill="#000000" font-family="sans-serif" font-size="14" lengthAdjust="spacing" textLength="706" x="293" y="62.7285">+getAverageLendingDurationPerGenrePerMonth(LocalDate startDate,LocalDate endDate): Map&lt;Integer, Long&gt;</text></g><!--class LendingServiceImpl--><g id="elem_LendingServiceImpl"><rect codeLine="24" fill="#F1F1F1" height="63.2422" id="LendingServiceImpl" rx="2.5" ry="2.5" style="stroke:#181818;stroke-width:0.5;" width="722" x="7" y="149"/><text fill="#000000" font-family="sans-serif" font-size="14" lengthAdjust="spacing" textLength="123" x="306.5" y="169.1074">LendingServiceImpl</text><line style="stroke:#181818;stroke-width:0.5;" x1="8" x2="728" y1="177.6211" y2="177.6211"/><line style="stroke:#181818;stroke-width:0.5;" x1="8" x2="728" y1="185.6211" y2="185.6211"/><text fill="#000000" font-family="sans-serif" font-size="14" lengthAdjust="spacing" textLength="710" x="13" y="204.7285">+getAverageLendingDurationPerGenrePerMonth(LocalDate startDate, LocalDate endDate): Map&lt;Integer, Long&gt;</text></g><!--class LendingRepository--><g id="elem_LendingRepository"><rect codeLine="28" fill="#F1F1F1" height="63.2422" id="LendingRepository" rx="2.5" ry="2.5" style="stroke:#181818;stroke-width:0.5;" width="549" x="264.5" y="291"/><text fill="#000000" font-family="sans-serif" font-size="14" lengthAdjust="spacing" textLength="119" x="479.5" y="311.1074">LendingRepository</text><line style="stroke:#181818;stroke-width:0.5;" x1="265.5" x2="812.5" y1="319.6211" y2="319.6211"/><line style="stroke:#181818;stroke-width:0.5;" x1="265.5" x2="812.5" y1="327.6211" y2="327.6211"/><text fill="#000000" font-family="sans-serif" font-size="14" lengthAdjust="spacing" textLength="537" x="270.5" y="346.7285">+findAverageLendingDurationPerGenrePerMonth(startDate, endDate): List&lt;Object[]&gt;</text></g><!--class GenreServiceImpl--><g id="elem_GenreServiceImpl"><rect codeLine="32" fill="#F1F1F1" height="63.2422" id="GenreServiceImpl" rx="2.5" ry="2.5" style="stroke:#181818;stroke-width:0.5;" width="322" x="764" y="149"/><text fill="#000000" font-family="sans-serif" font-size="14" lengthAdjust="spacing" textLength="112" x="869" y="169.1074">GenreServiceImpl</text><line style="stroke:#181818;stroke-width:0.5;" x1="765" x2="1085" y1="177.6211" y2="177.6211"/><line style="stroke:#181818;stroke-width:0.5;" x1="765" x2="1085" y1="185.6211" y2="185.6211"/><text fill="#000000" font-family="sans-serif" font-size="14" lengthAdjust="spacing" textLength="310" x="770" y="204.7285">+getGenreById(genreId: Long): Optional&lt;Genre&gt;</text></g><!--class GenreRepository--><g id="elem_GenreRepository"><rect codeLine="36" fill="#F1F1F1" height="63.2422" id="GenreRepository" rx="2.5" ry="2.5" style="stroke:#181818;stroke-width:0.5;" width="288" x="746" y="384"/><text fill="#000000" font-family="sans-serif" font-size="14" lengthAdjust="spacing" textLength="108" x="836" y="404.1074">GenreRepository</text><line style="stroke:#181818;stroke-width:0.5;" x1="747" x2="1033" y1="412.6211" y2="412.6211"/><line style="stroke:#181818;stroke-width:0.5;" x1="747" x2="1033" y1="420.6211" y2="420.6211"/><text fill="#000000" font-family="sans-serif" font-size="14" lengthAdjust="spacing" textLength="276" x="752" y="439.7285">+findGenreById(id: Long): Optional&lt;Genre&gt;</text></g><!--class Genre--><g id="elem_Genre"><rect codeLine="40" fill="#F1F1F1" height="81.8633" id="Genre" rx="2.5" ry="2.5" style="stroke:#181818;stroke-width:0.5;" width="97" x="624.5" y="966"/><text fill="#000000" font-family="sans-serif" font-size="14" lengthAdjust="spacing" textLength="40" x="653" y="986.1074">Genre</text><line style="stroke:#181818;stroke-width:0.5;" x1="625.5" x2="720.5" y1="994.6211" y2="994.6211"/><text fill="#000000" font-family="sans-serif" font-size="14" lengthAdjust="spacing" textLength="56" x="630.5" y="1013.7285">-id: Long</text><text fill="#000000" font-family="sans-serif" font-size="14" lengthAdjust="spacing" textLength="85" x="630.5" y="1032.3496">-name: String</text><line style="stroke:#181818;stroke-width:0.5;" x1="625.5" x2="720.5" y1="1039.8633" y2="1039.8633"/></g><!--class Book--><g id="elem_Book"><rect codeLine="45" fill="#F1F1F1" height="100.4844" id="Book" rx="2.5" ry="2.5" style="stroke:#181818;stroke-width:0.5;" width="102" x="401" y="805"/><text fill="#000000" font-family="sans-serif" font-size="14" lengthAdjust="spacing" textLength="32" x="436" y="825.1074">Book</text><line style="stroke:#181818;stroke-width:0.5;" x1="402" x2="502" y1="833.6211" y2="833.6211"/><text fill="#000000" font-family="sans-serif" font-size="14" lengthAdjust="spacing" textLength="56" x="407" y="852.7285">-id: Long</text><text fill="#000000" font-family="sans-serif" font-size="14" lengthAdjust="spacing" textLength="72" x="407" y="871.3496">-title: String</text><text fill="#000000" font-family="sans-serif" font-size="14" lengthAdjust="spacing" textLength="90" x="407" y="889.9707">-genre: Genre</text><line style="stroke:#181818;stroke-width:0.5;" x1="402" x2="502" y1="897.4844" y2="897.4844"/></g><!--class lendDate--><g id="elem_lendDate"><rect fill="#F1F1F1" height="44.6211" id="lendDate" rx="2.5" ry="2.5" style="stroke:#181818;stroke-width:0.5;" width="63" x="538.5" y="832.5"/><text fill="#000000" font-family="sans-serif" font-size="14" lengthAdjust="spacing" textLength="57" x="541.5" y="852.6074">lendDate</text><line style="stroke:#181818;stroke-width:0.5;" x1="539.5" x2="600.5" y1="861.1211" y2="861.1211"/><line style="stroke:#181818;stroke-width:0.5;" x1="539.5" x2="600.5" y1="869.1211" y2="869.1211"/></g><!--class returnedDate--><g id="elem_returnedDate"><rect fill="#F1F1F1" height="44.6211" id="returnedDate" rx="2.5" ry="2.5" style="stroke:#181818;stroke-width:0.5;" width="90" x="637" y="832.5"/><text fill="#000000" font-family="sans-serif" font-size="14" lengthAdjust="spacing" textLength="84" x="640" y="852.6074">returnedDate</text><line style="stroke:#181818;stroke-width:0.5;" x1="638" x2="726" y1="861.1211" y2="861.1211"/><line style="stroke:#181818;stroke-width:0.5;" x1="638" x2="726" y1="869.1211" y2="869.1211"/></g><!--class limitDate--><g id="elem_limitDate"><rect fill="#F1F1F1" height="44.6211" id="limitDate" rx="2.5" ry="2.5" style="stroke:#181818;stroke-width:0.5;" width="60" x="762" y="832.5"/><text fill="#000000" font-family="sans-serif" font-size="14" lengthAdjust="spacing" textLength="54" x="765" y="852.6074">limitDate</text><line style="stroke:#181818;stroke-width:0.5;" x1="763" x2="821" y1="861.1211" y2="861.1211"/><line style="stroke:#181818;stroke-width:0.5;" x1="763" x2="821" y1="869.1211" y2="869.1211"/></g><!--link LendingController to LendingServiceImpl--><g id="link_LendingController_LendingServiceImpl"><path codeLine="51" d="M585.34,70.05 C539,93.38 480.7892,122.702 434.3692,146.072 " fill="none" id="LendingController-to-LendingServiceImpl" style="stroke:#181818;stroke-width:1.0;stroke-dasharray:7.0,7.0;"/><polygon fill="#181818" points="429.01,148.77,438.8474,148.2957,433.476,146.5216,435.25,141.1502,429.01,148.77" style="stroke:#181818;stroke-width:1.0;"/><text fill="#000000" font-family="sans-serif" font-size="13" lengthAdjust="spacing" textLength="28" x="525" y="115.0283">uses</text></g><!--link LendingServiceImpl to LendingRepository--><g id="link_LendingServiceImpl_LendingRepository"><path codeLine="52" d="M405.53,212.22 C434.04,235.57 468.4279,263.7186 496.9179,287.0486 " fill="none" id="LendingServiceImpl-to-LendingRepository" style="stroke:#181818;stroke-width:1.0;stroke-dasharray:7.0,7.0;"/><polygon fill="#181818" points="501.56,290.85,497.131,282.0532,497.6915,287.6822,492.0625,288.2427,501.56,290.85" style="stroke:#181818;stroke-width:1.0;"/><text fill="#000000" font-family="sans-serif" font-size="13" lengthAdjust="spacing" textLength="28" x="465" y="257.0283">uses</text></g><!--link LendingController to GenreServiceImpl--><g id="link_LendingController_GenreServiceImpl"><path codeLine="53" d="M706.88,70.05 C753.38,93.38 811.8169,122.7098 858.4069,146.0798 " fill="none" id="LendingController-to-GenreServiceImpl" style="stroke:#181818;stroke-width:1.0;stroke-dasharray:7.0,7.0;"/><polygon fill="#181818" points="863.77,148.77,857.5188,141.1593,859.3007,146.5282,853.9319,148.3101,863.77,148.77" style="stroke:#181818;stroke-width:1.0;"/><text fill="#000000" font-family="sans-serif" font-size="13" lengthAdjust="spacing" textLength="28" x="803" y="115.0283">uses</text></g><!--link GenreServiceImpl to GenreRepository--><g id="link_GenreServiceImpl_GenreRepository"><path codeLine="54" d="M920.35,212.44 C913.64,257.13 902.191,333.3165 895.501,377.8665 " fill="none" id="GenreServiceImpl-to-GenreRepository" style="stroke:#181818;stroke-width:1.0;stroke-dasharray:7.0,7.0;"/><polygon fill="#181818" points="894.61,383.8,899.9022,375.4938,895.3525,378.8554,891.9909,374.3058,894.61,383.8" style="stroke:#181818;stroke-width:1.0;"/><text fill="#000000" font-family="sans-serif" font-size="13" lengthAdjust="spacing" textLength="28" x="916" y="257.0283">uses</text></g><!--link GenreRepository to Genre--><g id="link_GenreRepository_Genre"><path codeLine="55" d="M895.63,447.25 C908.89,529.08 934.29,756.08 840,905 C812.9,947.8 766.0848,972.8568 727.1748,988.1368 " fill="none" id="GenreRepository-to-Genre" style="stroke:#181818;stroke-width:1.0;stroke-dasharray:7.0,7.0;"/><polygon fill="#181818" points="721.59,990.33,731.4293,990.7635,726.244,988.5024,728.5051,983.3171,721.59,990.33" style="stroke:#181818;stroke-width:1.0;"/><text fill="#000000" font-family="sans-serif" font-size="13" lengthAdjust="spacing" textLength="56" x="896" y="771.0283">accesses</text></g><!--link LendingRepository to Lending--><g id="link_LendingRepository_Lending"><path codeLine="56" d="M542.44,354.2 C545.79,384.13 550.4319,425.6873 555.5119,471.0273 " fill="none" id="LendingRepository-to-Lending" style="stroke:#181818;stroke-width:1.0;stroke-dasharray:7.0,7.0;"/><polygon fill="#181818" points="556.18,476.99,559.153,467.6006,555.6233,472.0211,551.2028,468.4913,556.18,476.99" style="stroke:#181818;stroke-width:1.0;"/><text fill="#000000" font-family="sans-serif" font-size="13" lengthAdjust="spacing" textLength="56" x="554" y="421.0283">accesses</text></g><!--link Lending to Book--><g id="link_Lending_Book"><path codeLine="58" d="M512.04,726.04 C498.92,753.99 485.74,782.09 475.08,804.8 " fill="none" id="Lending-Book" style="stroke:#181818;stroke-width:1.0;"/><text fill="#000000" font-family="sans-serif" font-size="13" lengthAdjust="spacing" textLength="20" x="487.6863" y="748.586">0..*</text><text fill="#000000" font-family="sans-serif" font-size="13" lengthAdjust="spacing" textLength="7" x="470.8334" y="793.56">1</text></g><!--reverse link Lending to lendDate--><g id="link_Lending_lendDate"><path codeLine="59" d="M570,738.04 C570,778.79 570,807.84 570,832.09 " fill="none" id="Lending-backto-lendDate" style="stroke:#181818;stroke-width:1.0;"/><polygon fill="#181818" points="570,726.04,566,732.04,570,738.04,574,732.04,570,726.04" style="stroke:#181818;stroke-width:1.0;"/><text fill="#000000" font-family="sans-serif" font-size="13" lengthAdjust="spacing" textLength="7" x="562.7758" y="748.586">1</text><text fill="#000000" font-family="sans-serif" font-size="13" lengthAdjust="spacing" textLength="7" x="562.1031" y="821.1553">1</text></g><!--reverse link Lending to returnedDate--><g id="link_Lending_returnedDate"><path codeLine="60" d="M629.9002,737.0029 C648.0402,777.7529 661.44,807.84 672.24,832.09 " fill="none" id="Lending-backto-returnedDate" style="stroke:#181818;stroke-width:1.0;"/><polygon fill="#181818" points="625.02,726.04,623.8058,733.1481,629.9002,737.0029,631.1144,729.8947,625.02,726.04" style="stroke:#181818;stroke-width:1.0;"/><text fill="#000000" font-family="sans-serif" font-size="13" lengthAdjust="spacing" textLength="7" x="621.3205" y="748.586">1</text><text fill="#000000" font-family="sans-serif" font-size="13" lengthAdjust="spacing" textLength="7" x="661.8421" y="821.1553">1</text></g><!--reverse link Lending to limitDate--><g id="link_Lending_limitDate"><path codeLine="61" d="M658.0908,702.2969 C702.3008,752.3869 745.67,801.51 772.83,832.29 " fill="none" id="Lending-backto-limitDate" style="stroke:#181818;stroke-width:1.0;"/><polygon fill="#181818" points="650.15,693.3,651.1214,700.4454,658.0908,702.2969,657.1194,695.1515,650.15,693.3" style="stroke:#181818;stroke-width:1.0;"/><text fill="#000000" font-family="sans-serif" font-size="13" lengthAdjust="spacing" textLength="7" x="658.1229" y="698.2601">1</text><text fill="#000000" font-family="sans-serif" font-size="13" lengthAdjust="spacing" textLength="7" x="760.0208" y="821.4066">1</text></g><!--link Book to Genre--><g id="link_Book_Genre"><path codeLine="62" d="M503.12,892.57 C509.13,896.79 515.19,901.01 521,905 C555.34,928.59 594.51,954.6 624.48,974.31 " fill="none" id="Book-Genre" style="stroke:#181818;stroke-width:1.0;"/><text fill="#000000" font-family="sans-serif" font-size="13" lengthAdjust="spacing" textLength="7" x="511.1423" y="893.8538">1</text><text fill="#000000" font-family="sans-serif" font-size="13" lengthAdjust="spacing" textLength="7" x="609.5144" y="965.0638">1</text></g><!--SRC=[hLHDRzim3BtxLmYvhEiQfxiQGO5-O8E151cQteeT58bpjCgI8T45ic7_VRIgsAu_W6AOBxBv7jyZQTeV3eYLprQhIdE3TQbJOSkLqDpxfLIySBnCaeEIm8HoGaFYdvMfE8LP85qZEhMl4N9XpKxz0dQP905X6p1IcOBzJXXTIwPanZRM5F5HlyAtLaB6TgJI8Y_WlB8cOxfZE-0INFvMOc_jyqJeKQ4UQaf-z8zAwmV0sf5qRX0AS3rqIxQoXY7qGncAVT6MOrjA8m7aIsOQk8bn6bm91blZFuD1t5g3pceDBexa4oi0hycM5n0vTxNZIBr_0_SLZ0CwxodjSBQnWkixZi0ySeVDtKKNe-Jc_9YnUrwjOmCNOIvNepfsu5wKWBoiz7ygXFrZ9GzGMQ_GkcDR28rRlhEIdd_dkb4UrzlzJn3uzBtd659dEW_OpJ6NPqLpTzeeKjjMZJFNwq0PoisKtycfzohDVIE6bp3UfnlQyRaCdDZzq5NswjIeZFSnJQ-cjYDZjGUVJ22zXDuKtl87-gCt4DcZU4iUAm_3BPK8N0ZmFVi1xVGtwX5FJBQuJDFp1LiksUBp8eotWoXm7W4TrsmIFFqLPWbQbIgiQnBUNnEAIEZWBm00]--></g></svg>