<?xml version="1.0" encoding="us-ascii" standalone="no"?><svg xmlns="http://www.w3.org/2000/svg" xmlns:xlink="http://www.w3.org/1999/xlink" contentStyleType="text/css" height="439px" preserveAspectRatio="none" style="width:1114px;height:439px;background:#FFFFFF;" version="1.1" viewBox="0 0 1114 439" width="1114px" zoomAndPan="magnify"><defs/><g><rect fill="#FFFFFF" height="343.4221" style="stroke:#181818;stroke-width:1.0;" width="10" x="76" y="49.0679"/><rect fill="#FFFFFF" height="319.716" style="stroke:#181818;stroke-width:1.0;" width="10" x="279" y="72.7739"/><rect fill="#FFFFFF" height="36.706" style="stroke:#181818;stroke-width:1.0;" width="10" x="284" y="346.784"/><rect fill="#FFFFFF" height="202.598" style="stroke:#181818;stroke-width:1.0;" width="10" x="480" y="104.4799"/><rect fill="#FFFFFF" height="95.118" style="stroke:#181818;stroke-width:1.0;" width="10" x="681" y="136.186"/><rect fill="#FFFFFF" height="31.706" style="stroke:#181818;stroke-width:1.0;" width="10" x="882" y="167.892"/><line style="stroke:#181818;stroke-width:0.5;stroke-dasharray:5.0,5.0;" x1="81" x2="81" y1="39.0679" y2="401.49"/><line style="stroke:#181818;stroke-width:0.5;stroke-dasharray:5.0,5.0;" x1="284" x2="284" y1="39.0679" y2="401.49"/><line style="stroke:#181818;stroke-width:0.5;stroke-dasharray:5.0,5.0;" x1="484.5" x2="484.5" y1="39.0679" y2="401.49"/><line style="stroke:#181818;stroke-width:0.5;stroke-dasharray:5.0,5.0;" x1="685.5" x2="685.5" y1="39.0679" y2="401.49"/><line style="stroke:#181818;stroke-width:0.5;stroke-dasharray:5.0,5.0;" x1="887" x2="887" y1="39.0679" y2="401.49"/><line style="stroke:#181818;stroke-width:0.5;stroke-dasharray:5.0,5.0;" x1="1044" x2="1044" y1="271.338" y2="401.49"/><rect fill="#E2E2F0" height="33.0679" rx="2.5" ry="2.5" style="stroke:#181818;stroke-width:0.5;" width="152" x="5" y="5"/><text fill="#000000" font-family="sans-serif" font-size="14" lengthAdjust="spacing" textLength="138" x="12" y="26.9659">Librarian:HTTPClient</text><rect fill="#E2E2F0" height="33.0679" rx="2.5" ry="2.5" style="stroke:#181818;stroke-width:0.5;" width="152" x="5" y="400.49"/><text fill="#000000" font-family="sans-serif" font-size="14" lengthAdjust="spacing" textLength="138" x="12" y="422.4559">Librarian:HTTPClient</text><rect fill="#E2E2F0" height="33.0679" rx="2.5" ry="2.5" style="stroke:#181818;stroke-width:0.5;" width="164" x="202" y="5"/><text fill="#000000" font-family="sans-serif" font-size="14" lengthAdjust="spacing" textLength="150" x="209" y="26.9659">handler:RouteHandler</text><rect fill="#E2E2F0" height="33.0679" rx="2.5" ry="2.5" style="stroke:#181818;stroke-width:0.5;" width="164" x="202" y="400.49"/><text fill="#000000" font-family="sans-serif" font-size="14" lengthAdjust="spacing" textLength="150" x="209" y="422.4559">handler:RouteHandler</text><rect fill="#E2E2F0" height="33.0679" rx="2.5" ry="2.5" style="stroke:#181818;stroke-width:0.5;" width="131" x="419.5" y="5"/><text fill="#000000" font-family="sans-serif" font-size="14" lengthAdjust="spacing" textLength="117" x="426.5" y="26.9659">:AuthorController</text><rect fill="#E2E2F0" height="33.0679" rx="2.5" ry="2.5" style="stroke:#181818;stroke-width:0.5;" width="131" x="419.5" y="400.49"/><text fill="#000000" font-family="sans-serif" font-size="14" lengthAdjust="spacing" textLength="117" x="426.5" y="422.4559">:AuthorController</text><rect fill="#E2E2F0" height="33.0679" rx="2.5" ry="2.5" style="stroke:#181818;stroke-width:0.5;" width="159" x="606.5" y="5"/><text fill="#000000" font-family="sans-serif" font-size="14" lengthAdjust="spacing" textLength="145" x="613.5" y="26.9659">service:AuthorService</text><rect fill="#E2E2F0" height="33.0679" rx="2.5" ry="2.5" style="stroke:#181818;stroke-width:0.5;" width="159" x="606.5" y="400.49"/><text fill="#000000" font-family="sans-serif" font-size="14" lengthAdjust="spacing" textLength="145" x="613.5" y="422.4559">service:AuthorService</text><rect fill="#E2E2F0" height="33.0679" rx="2.5" ry="2.5" style="stroke:#181818;stroke-width:0.5;" width="166" x="804" y="5"/><text fill="#000000" font-family="sans-serif" font-size="14" lengthAdjust="spacing" textLength="152" x="811" y="26.9659">repo:AuthorRepository</text><rect fill="#E2E2F0" height="33.0679" rx="2.5" ry="2.5" style="stroke:#181818;stroke-width:0.5;" width="166" x="804" y="400.49"/><text fill="#000000" font-family="sans-serif" font-size="14" lengthAdjust="spacing" textLength="152" x="811" y="422.4559">repo:AuthorRepository</text><rect fill="#E2E2F0" height="33.0679" rx="2.5" ry="2.5" style="stroke:#181818;stroke-width:0.5;" width="128" x="980" y="400.49"/><text fill="#000000" font-family="sans-serif" font-size="14" lengthAdjust="spacing" textLength="114" x="987" y="422.4559">result:HttpResult</text><rect fill="#FFFFFF" height="343.4221" style="stroke:#181818;stroke-width:1.0;" width="10" x="76" y="49.0679"/><rect fill="#FFFFFF" height="319.716" style="stroke:#181818;stroke-width:1.0;" width="10" x="279" y="72.7739"/><rect fill="#FFFFFF" height="36.706" style="stroke:#181818;stroke-width:1.0;" width="10" x="284" y="346.784"/><rect fill="#FFFFFF" height="202.598" style="stroke:#181818;stroke-width:1.0;" width="10" x="480" y="104.4799"/><rect fill="#FFFFFF" height="95.118" style="stroke:#181818;stroke-width:1.0;" width="10" x="681" y="136.186"/><rect fill="#FFFFFF" height="31.706" style="stroke:#181818;stroke-width:1.0;" width="10" x="882" y="167.892"/><polygon fill="#181818" points="267,68.7739,277,72.7739,267,76.7739,271,72.7739" style="stroke:#181818;stroke-width:1.0;"/><line style="stroke:#181818;stroke-width:1.0;" x1="86" x2="273" y1="72.7739" y2="72.7739"/><text fill="#000000" font-family="sans-serif" font-size="13" font-weight="bold" lengthAdjust="spacing" textLength="7" x="93" y="66.9649">1</text><text fill="#000000" font-family="sans-serif" font-size="13" lengthAdjust="spacing" textLength="163" x="104" y="66.9649">GET/authors/name/{name}</text><polygon fill="#181818" points="468,100.4799,478,104.4799,468,108.4799,472,104.4799" style="stroke:#181818;stroke-width:1.0;"/><line style="stroke:#181818;stroke-width:1.0;" x1="289" x2="474" y1="104.4799" y2="104.4799"/><text fill="#000000" font-family="sans-serif" font-size="13" font-weight="bold" lengthAdjust="spacing" textLength="7" x="296" y="98.6709">2</text><text fill="#000000" font-family="sans-serif" font-size="13" lengthAdjust="spacing" textLength="161" x="307" y="98.6709">getAuthorsByName(name)</text><polygon fill="#181818" points="669,132.186,679,136.186,669,140.186,673,136.186" style="stroke:#181818;stroke-width:1.0;"/><line style="stroke:#181818;stroke-width:1.0;" x1="490" x2="675" y1="136.186" y2="136.186"/><text fill="#000000" font-family="sans-serif" font-size="13" font-weight="bold" lengthAdjust="spacing" textLength="7" x="497" y="130.377">3</text><text fill="#000000" font-family="sans-serif" font-size="13" lengthAdjust="spacing" textLength="161" x="508" y="130.377">getAuthorsByName(name)</text><polygon fill="#181818" points="870,163.892,880,167.892,870,171.892,874,167.892" style="stroke:#181818;stroke-width:1.0;"/><line style="stroke:#181818;stroke-width:1.0;" x1="691" x2="876" y1="167.892" y2="167.892"/><text fill="#000000" font-family="sans-serif" font-size="13" font-weight="bold" lengthAdjust="spacing" textLength="7" x="698" y="162.083">4</text><text fill="#000000" font-family="sans-serif" font-size="13" lengthAdjust="spacing" textLength="161" x="709" y="162.083">getAuthorsByName(name)</text><polygon fill="#181818" points="702,195.598,692,199.598,702,203.598,698,199.598" style="stroke:#181818;stroke-width:1.0;"/><line style="stroke:#181818;stroke-width:1.0;stroke-dasharray:2.0,2.0;" x1="696" x2="886" y1="199.598" y2="199.598"/><text fill="#000000" font-family="sans-serif" font-size="13" font-weight="bold" lengthAdjust="spacing" textLength="7" x="708" y="193.789">5</text><text fill="#000000" font-family="sans-serif" font-size="13" lengthAdjust="spacing" textLength="77" x="719" y="193.789">List&lt;Author&gt;</text><polygon fill="#181818" points="501,227.304,491,231.304,501,235.304,497,231.304" style="stroke:#181818;stroke-width:1.0;"/><line style="stroke:#181818;stroke-width:1.0;stroke-dasharray:2.0,2.0;" x1="495" x2="685" y1="231.304" y2="231.304"/><text fill="#000000" font-family="sans-serif" font-size="13" font-weight="bold" lengthAdjust="spacing" textLength="7" x="507" y="225.495">6</text><text fill="#000000" font-family="sans-serif" font-size="13" lengthAdjust="spacing" textLength="77" x="518" y="225.495">List&lt;Author&gt;</text><polygon fill="#181818" points="968,259.01,978,263.01,968,267.01,972,263.01" style="stroke:#181818;stroke-width:1.0;"/><line style="stroke:#181818;stroke-width:1.0;stroke-dasharray:2.0,2.0;" x1="490" x2="974" y1="263.01" y2="263.01"/><text fill="#000000" font-family="sans-serif" font-size="13" font-weight="bold" lengthAdjust="spacing" textLength="7" x="497" y="257.201">7</text><text fill="#000000" font-family="sans-serif" font-size="13" lengthAdjust="spacing" textLength="66" x="508" y="257.201">create(200)</text><rect fill="#E2E2F0" height="33.0679" rx="2.5" ry="2.5" style="stroke:#181818;stroke-width:0.5;" width="128" x="980" y="239.304"/><text fill="#000000" font-family="sans-serif" font-size="14" lengthAdjust="spacing" textLength="114" x="987" y="261.27">result:HttpResult</text><polygon fill="#181818" points="300,303.0779,290,307.0779,300,311.0779,296,307.0779" style="stroke:#181818;stroke-width:1.0;"/><line style="stroke:#181818;stroke-width:1.0;stroke-dasharray:2.0,2.0;" x1="294" x2="484" y1="307.0779" y2="307.0779"/><text fill="#000000" font-family="sans-serif" font-size="13" font-weight="bold" lengthAdjust="spacing" textLength="7" x="306" y="301.2689">8</text><text fill="#000000" font-family="sans-serif" font-size="13" lengthAdjust="spacing" textLength="34" x="317" y="301.2689">result</text><line style="stroke:#181818;stroke-width:1.0;" x1="289" x2="336" y1="333.784" y2="333.784"/><line style="stroke:#181818;stroke-width:1.0;" x1="336" x2="336" y1="333.784" y2="346.784"/><line style="stroke:#181818;stroke-width:1.0;" x1="295" x2="336" y1="346.784" y2="346.784"/><polygon fill="#181818" points="305,342.784,295,346.784,305,350.784,301,346.784" style="stroke:#181818;stroke-width:1.0;"/><text fill="#000000" font-family="sans-serif" font-size="13" font-weight="bold" lengthAdjust="spacing" textLength="7" x="301" y="327.975">9</text><text fill="#000000" font-family="sans-serif" font-size="13" lengthAdjust="spacing" textLength="157" x="312" y="327.975">setHttpResult(resp, result)</text><polygon fill="#181818" points="97,379.49,87,383.49,97,387.49,93,383.49" style="stroke:#181818;stroke-width:1.0;"/><line style="stroke:#181818;stroke-width:1.0;stroke-dasharray:2.0,2.0;" x1="91" x2="278" y1="383.49" y2="383.49"/><text fill="#000000" font-family="sans-serif" font-size="13" font-weight="bold" lengthAdjust="spacing" textLength="14" x="103" y="377.681">10</text><text fill="#000000" font-family="sans-serif" font-size="13" lengthAdjust="spacing" textLength="26" x="121" y="377.681">resp</text><!--SRC=[TP3DQW8n58NtUOhWfgFKZdGPYj0EfIwa5FK5udZHG2P9anj1Ij-z-Hl7ARW9ztA-dEISXnEYSQokZUGAVIUVMjtL3huzg1Rc1y6FbdU4S8-QjoZE785gbNRbkprOGWotA5fXWW6ThCNUSYkuOglTxgkH0XHEA7TqMCSNJbmT95YsqHvXbPTqONjn2DqOPgyUJzesMg7LiYSRj7BCER1dqKB1jtdBhdaUunQCBkmcZ4wWjfU4n_K_wxn4jWgzRT9Ok3YIK5HVqarUCinqlYp16FrutzKyFUfgnJkeV-BvIx8UoHYCqIDW_fjxktm6eehOb4GnsPMizxYYHpIckSj5aSvl3TV2uKj6buFDzLyZEVyclH6RcCqORIs48ghdnM8wo7tuNEDDrbvmW4EtLS3COu6dLphWGwN9ov0_]--></g></svg>