<?xml version="1.0" encoding="us-ascii" standalone="no"?><svg xmlns="http://www.w3.org/2000/svg" xmlns:xlink="http://www.w3.org/1999/xlink" contentStyleType="text/css" height="523px" preserveAspectRatio="none" style="width:327px;height:523px;background:#FFFFFF;" version="1.1" viewBox="0 0 327 523" width="327px" zoomAndPan="magnify"><defs/><g><!--class Author--><g id="elem_Author"><rect codeLine="6" fill="#F1F1F1" height="119.1055" id="Author" rx="2.5" ry="2.5" style="stroke:#181818;stroke-width:0.5;" width="86" x="108" y="397"/><text fill="#000000" font-family="sans-serif" font-size="14" lengthAdjust="spacing" textLength="42" x="130" y="417.1074">Author</text><line style="stroke:#181818;stroke-width:0.5;" x1="109" x2="193" y1="425.6211" y2="425.6211"/><text fill="#000000" font-family="sans-serif" font-size="14" lengthAdjust="spacing" textLength="16" x="114" y="444.7285">-id</text><text fill="#000000" font-family="sans-serif" font-size="14" lengthAdjust="spacing" textLength="40" x="114" y="463.3496">-name</text><text fill="#000000" font-family="sans-serif" font-size="14" lengthAdjust="spacing" textLength="57" x="114" y="481.9707">-shortBio</text><line style="stroke:#181818;stroke-width:0.5;" x1="109" x2="193" y1="489.4844" y2="489.4844"/><text fill="#000000" font-family="sans-serif" font-size="14" lengthAdjust="spacing" textLength="74" x="114" y="508.5918">+getName()</text></g><!--class AuthorController--><g id="elem_AuthorController"><rect codeLine="13" fill="#F1F1F1" height="63.2422" id="AuthorController" rx="2.5" ry="2.5" style="stroke:#181818;stroke-width:0.5;" width="186" x="7" y="7"/><text fill="#000000" font-family="sans-serif" font-size="14" lengthAdjust="spacing" textLength="104" x="48" y="27.1074">AuthorController</text><line style="stroke:#181818;stroke-width:0.5;" x1="8" x2="192" y1="35.6211" y2="35.6211"/><line style="stroke:#181818;stroke-width:0.5;" x1="8" x2="192" y1="43.6211" y2="43.6211"/><text fill="#000000" font-family="sans-serif" font-size="14" lengthAdjust="spacing" textLength="174" x="13" y="62.7285">+getAuthorsByName(name)</text></g><!--class AuthorServiceImpl--><g id="elem_AuthorServiceImpl"><rect codeLine="17" fill="#F1F1F1" height="63.2422" id="AuthorServiceImpl" rx="2.5" ry="2.5" style="stroke:#181818;stroke-width:0.5;" width="186" x="133" y="131"/><text fill="#000000" font-family="sans-serif" font-size="14" lengthAdjust="spacing" textLength="114" x="169" y="151.1074">AuthorServiceImpl</text><line style="stroke:#181818;stroke-width:0.5;" x1="134" x2="318" y1="159.6211" y2="159.6211"/><line style="stroke:#181818;stroke-width:0.5;" x1="134" x2="318" y1="167.6211" y2="167.6211"/><text fill="#000000" font-family="sans-serif" font-size="14" lengthAdjust="spacing" textLength="174" x="139" y="186.7285">+getAuthorsByName(name)</text></g><!--class AuthorRepository--><g id="elem_AuthorRepository"><rect codeLine="22" fill="#F1F1F1" height="63.2422" id="AuthorRepository" rx="2.5" ry="2.5" style="stroke:#181818;stroke-width:0.5;" width="116" x="204" y="255"/><text fill="#000000" font-family="sans-serif" font-size="14" lengthAdjust="spacing" textLength="110" x="207" y="275.1074">AuthorRepository</text><line style="stroke:#181818;stroke-width:0.5;" x1="205" x2="319" y1="283.6211" y2="283.6211"/><line style="stroke:#181818;stroke-width:0.5;" x1="205" x2="319" y1="291.6211" y2="291.6211"/><text fill="#000000" font-family="sans-serif" font-size="14" lengthAdjust="spacing" textLength="56" x="210" y="310.7285">+findAll()</text></g><!--link AuthorController to AuthorServiceImpl--><g id="link_AuthorController_AuthorServiceImpl"><path codeLine="28" d="M131.8,70.29 C150.9,88.78 170.8091,108.0568 189.9091,126.5468 " fill="none" id="AuthorController-to-AuthorServiceImpl" style="stroke:#181818;stroke-width:1.0;stroke-dasharray:7.0,7.0;"/><polygon fill="#181818" points="194.22,130.72,190.5358,121.5862,190.6276,127.2423,184.9715,127.3341,194.22,130.72" style="stroke:#181818;stroke-width:1.0;"/></g><!--link AuthorServiceImpl to AuthorRepository--><g id="link_AuthorServiceImpl_AuthorRepository"><path codeLine="29" d="M235.08,194.29 C240.54,212.78 245.7608,230.4756 251.2208,248.9656 " fill="none" id="AuthorServiceImpl-to-AuthorRepository" style="stroke:#181818;stroke-width:1.0;stroke-dasharray:7.0,7.0;"/><polygon fill="#181818" points="252.92,254.72,254.2074,244.9556,251.504,249.9247,246.5349,247.2213,252.92,254.72" style="stroke:#181818;stroke-width:1.0;"/></g><!--link AuthorController to Author--><g id="link_AuthorController_Author"><path codeLine="30" d="M102.6,70.03 C105.34,101.22 109.96,151.04 115,194 C123.2,263.87 133.6422,338.0231 141.3822,390.9731 " fill="none" id="AuthorController-to-Author" style="stroke:#181818;stroke-width:1.0;stroke-dasharray:7.0,7.0;"/><polygon fill="#181818" points="142.25,396.91,144.9062,387.4261,141.5268,391.9626,136.9903,388.5832,142.25,396.91" style="stroke:#181818;stroke-width:1.0;"/></g><!--link AuthorServiceImpl to Author--><g id="link_AuthorServiceImpl_Author"><path codeLine="31" d="M210.86,194.19 C202.77,211.66 193.23,234.15 187,255 C173.03,301.76 164.4937,350.4282 158.8237,390.8382 " fill="none" id="AuthorServiceImpl-to-Author" style="stroke:#181818;stroke-width:1.0;stroke-dasharray:7.0,7.0;"/><polygon fill="#181818" points="157.99,396.78,163.2018,388.4231,158.6848,391.8285,155.2794,387.3115,157.99,396.78" style="stroke:#181818;stroke-width:1.0;"/></g><!--link AuthorRepository to Author--><g id="link_AuthorRepository_Author"><path codeLine="32" d="M241.64,318.31 C227.18,340.2 210.6285,365.2546 193.1785,391.6546 " fill="none" id="AuthorRepository-to-Author" style="stroke:#181818;stroke-width:1.0;"/><polygon fill="#181818" points="189.87,396.66,198.1697,391.3576,192.6271,392.4888,191.4958,386.9463,189.87,396.66" style="stroke:#181818;stroke-width:1.0;"/><text fill="#000000" font-family="sans-serif" font-size="13" lengthAdjust="spacing" textLength="53" x="220" y="363.0283">searches</text><text fill="#000000" font-family="sans-serif" font-size="13" lengthAdjust="spacing" textLength="7" x="229.9426" y="340.2792">1</text><text fill="#000000" font-family="sans-serif" font-size="13" lengthAdjust="spacing" textLength="20" x="173.2081" y="385.7972">1..*</text></g><!--SRC=[XOxBJiD034Nt_Weh6rxA1BPTL4fPTSE2Vi4mCOt5l3JZ89MAVsUQHf0ML6OpjkyzrxxgHM9UD4sqsilWh3B1DSRgdEkEzJPf1z1pHsWu6KkGtzX7NSOucbgHn2-3qDe4l-4Fmdk0KS5sa3waFM1vDN8t5LuxcifST5bn6Dixt98y5V7w1ZvFCnw3bnIifGJx7-zHowlT21rY3-2Ssr1wPqDh5-t_u0dvJ35abf1st-0h-wwrzdWTd1-6IYt_sFfhClFDTbn8knW1vqbOFLHOryloAtLRJRO5PjB9z9JX2m00]--></g></svg>