<?xml version="1.0" encoding="us-ascii" standalone="no"?><svg xmlns="http://www.w3.org/2000/svg" xmlns:xlink="http://www.w3.org/1999/xlink" contentStyleType="text/css" height="691px" preserveAspectRatio="none" style="width:1614px;height:691px;background:#FFFFFF;" version="1.1" viewBox="0 0 1614 691" width="1614px" zoomAndPan="magnify"><defs/><g><rect fill="#FFFFFF" height="596.6074" style="stroke:#181818;stroke-width:1.0;" width="10" x="82" y="48.6211"/><rect fill="#FFFFFF" height="573.3164" style="stroke:#181818;stroke-width:1.0;" width="10" x="250.5" y="71.9121"/><rect fill="#FFFFFF" height="36.291" style="stroke:#181818;stroke-width:1.0;" width="10" x="255.5" y="599.9375"/><rect fill="#FFFFFF" height="457.4434" style="stroke:#181818;stroke-width:1.0;" width="10" x="444.5" y="103.2031"/><rect fill="#FFFFFF" height="288.6582" style="stroke:#181818;stroke-width:1.0;" width="10" x="619.5" y="134.4941"/><rect fill="#FFFFFF" height="42.291" style="stroke:#181818;stroke-width:1.0;" width="10" x="624.5" y="173.7852"/><rect fill="#FFFFFF" height="31.291" style="stroke:#181818;stroke-width:1.0;" width="10" x="882.5" y="360.5703"/><rect fill="#FFFFFF" height="74.9121" style="stroke:#181818;stroke-width:1.0;" width="10" x="1066" y="254.3672"/><rect fill="#FFFFFF" height="31.291" style="stroke:#181818;stroke-width:1.0;" width="10" x="1263.5" y="454.4434"/><line style="stroke:#181818;stroke-width:0.5;stroke-dasharray:5.0,5.0;" x1="87" x2="87" y1="38.6211" y2="654.2285"/><line style="stroke:#181818;stroke-width:0.5;stroke-dasharray:5.0,5.0;" x1="255" x2="255" y1="38.6211" y2="654.2285"/><line style="stroke:#181818;stroke-width:0.5;stroke-dasharray:5.0,5.0;" x1="449" x2="449" y1="38.6211" y2="654.2285"/><line style="stroke:#181818;stroke-width:0.5;stroke-dasharray:5.0,5.0;" x1="624" x2="624" y1="38.6211" y2="654.2285"/><line style="stroke:#181818;stroke-width:0.5;stroke-dasharray:5.0,5.0;" x1="887.5" x2="887.5" y1="38.6211" y2="654.2285"/><line style="stroke:#181818;stroke-width:0.5;stroke-dasharray:5.0,5.0;" x1="1070.5" x2="1070.5" y1="38.6211" y2="654.2285"/><line style="stroke:#181818;stroke-width:0.5;stroke-dasharray:5.0,5.0;" x1="1268.5" x2="1268.5" y1="38.6211" y2="654.2285"/><line style="stroke:#181818;stroke-width:0.5;stroke-dasharray:5.0,5.0;" x1="1426.5" x2="1426.5" y1="294.1777" y2="654.2285"/><line style="stroke:#181818;stroke-width:0.5;stroke-dasharray:5.0,5.0;" x1="1549.5" x2="1549.5" y1="525.5449" y2="654.2285"/><rect fill="#E2E2F0" height="32.6211" rx="2.5" ry="2.5" style="stroke:#181818;stroke-width:0.5;" width="164" x="5" y="5"/><text fill="#000000" font-family="sans-serif" font-size="14" lengthAdjust="spacing" textLength="150" x="12" y="27.1074">Anonymous:HTTPClient</text><rect fill="#E2E2F0" height="32.6211" rx="2.5" ry="2.5" style="stroke:#181818;stroke-width:0.5;" width="164" x="5" y="653.2285"/><text fill="#000000" font-family="sans-serif" font-size="14" lengthAdjust="spacing" textLength="150" x="12" y="675.3359">Anonymous:HTTPClient</text><rect fill="#E2E2F0" height="32.6211" rx="2.5" ry="2.5" style="stroke:#181818;stroke-width:0.5;" width="153" x="179" y="5"/><text fill="#000000" font-family="sans-serif" font-size="14" lengthAdjust="spacing" textLength="139" x="186" y="27.1074">handler:RouteHandler</text><rect fill="#E2E2F0" height="32.6211" rx="2.5" ry="2.5" style="stroke:#181818;stroke-width:0.5;" width="153" x="179" y="653.2285"/><text fill="#000000" font-family="sans-serif" font-size="14" lengthAdjust="spacing" textLength="139" x="186" y="675.3359">handler:RouteHandler</text><rect fill="#E2E2F0" height="32.6211" rx="2.5" ry="2.5" style="stroke:#181818;stroke-width:0.5;" width="127" x="386" y="5"/><text fill="#000000" font-family="sans-serif" font-size="14" lengthAdjust="spacing" textLength="113" x="393" y="27.1074">:ReaderController</text><rect fill="#E2E2F0" height="32.6211" rx="2.5" ry="2.5" style="stroke:#181818;stroke-width:0.5;" width="127" x="386" y="653.2285"/><text fill="#000000" font-family="sans-serif" font-size="14" lengthAdjust="spacing" textLength="113" x="393" y="675.3359">:ReaderController</text><rect fill="#E2E2F0" height="32.6211" rx="2.5" ry="2.5" style="stroke:#181818;stroke-width:0.5;" width="157" x="546" y="5"/><text fill="#000000" font-family="sans-serif" font-size="14" lengthAdjust="spacing" textLength="143" x="553" y="27.1074">service:ReaderService</text><rect fill="#E2E2F0" height="32.6211" rx="2.5" ry="2.5" style="stroke:#181818;stroke-width:0.5;" width="157" x="546" y="653.2285"/><text fill="#000000" font-family="sans-serif" font-size="14" lengthAdjust="spacing" textLength="143" x="553" y="675.3359">service:ReaderService</text><rect fill="#E2E2F0" height="32.6211" rx="2.5" ry="2.5" style="stroke:#181818;stroke-width:0.5;" width="162" x="806.5" y="5"/><text fill="#000000" font-family="sans-serif" font-size="14" lengthAdjust="spacing" textLength="148" x="813.5" y="27.1074">repo:ReaderRepository</text><rect fill="#E2E2F0" height="32.6211" rx="2.5" ry="2.5" style="stroke:#181818;stroke-width:0.5;" width="162" x="806.5" y="653.2285"/><text fill="#000000" font-family="sans-serif" font-size="14" lengthAdjust="spacing" textLength="148" x="813.5" y="675.3359">repo:ReaderRepository</text><rect fill="#E2E2F0" height="32.6211" rx="2.5" ry="2.5" style="stroke:#181818;stroke-width:0.5;" width="185" x="978.5" y="5"/><text fill="#000000" font-family="sans-serif" font-size="14" lengthAdjust="spacing" textLength="171" x="985.5" y="27.1074">mapper:EditReaderMapper</text><rect fill="#E2E2F0" height="32.6211" rx="2.5" ry="2.5" style="stroke:#181818;stroke-width:0.5;" width="185" x="978.5" y="653.2285"/><text fill="#000000" font-family="sans-serif" font-size="14" lengthAdjust="spacing" textLength="171" x="985.5" y="675.3359">mapper:EditReaderMapper</text><rect fill="#E2E2F0" height="32.6211" rx="2.5" ry="2.5" style="stroke:#181818;stroke-width:0.5;" width="190" x="1173.5" y="5"/><text fill="#000000" font-family="sans-serif" font-size="14" lengthAdjust="spacing" textLength="176" x="1180.5" y="27.1074">mapper:ReaderViewMapper</text><rect fill="#E2E2F0" height="32.6211" rx="2.5" ry="2.5" style="stroke:#181818;stroke-width:0.5;" width="190" x="1173.5" y="653.2285"/><text fill="#000000" font-family="sans-serif" font-size="14" lengthAdjust="spacing" textLength="176" x="1180.5" y="675.3359">mapper:ReaderViewMapper</text><rect fill="#E2E2F0" height="32.6211" rx="2.5" ry="2.5" style="stroke:#181818;stroke-width:0.5;" width="107" x="1373.5" y="653.2285"/><text fill="#000000" font-family="sans-serif" font-size="14" lengthAdjust="spacing" textLength="93" x="1380.5" y="675.3359">reader:Reader</text><rect fill="#E2E2F0" height="32.6211" rx="2.5" ry="2.5" style="stroke:#181818;stroke-width:0.5;" width="118" x="1490.5" y="653.2285"/><text fill="#000000" font-family="sans-serif" font-size="14" lengthAdjust="spacing" textLength="104" x="1497.5" y="675.3359">result:HttpResult</text><rect fill="#FFFFFF" height="596.6074" style="stroke:#181818;stroke-width:1.0;" width="10" x="82" y="48.6211"/><rect fill="#FFFFFF" height="573.3164" style="stroke:#181818;stroke-width:1.0;" width="10" x="250.5" y="71.9121"/><rect fill="#FFFFFF" height="36.291" style="stroke:#181818;stroke-width:1.0;" width="10" x="255.5" y="599.9375"/><rect fill="#FFFFFF" height="457.4434" style="stroke:#181818;stroke-width:1.0;" width="10" x="444.5" y="103.2031"/><rect fill="#FFFFFF" height="288.6582" style="stroke:#181818;stroke-width:1.0;" width="10" x="619.5" y="134.4941"/><rect fill="#FFFFFF" height="42.291" style="stroke:#181818;stroke-width:1.0;" width="10" x="624.5" y="173.7852"/><rect fill="#FFFFFF" height="31.291" style="stroke:#181818;stroke-width:1.0;" width="10" x="882.5" y="360.5703"/><rect fill="#FFFFFF" height="74.9121" style="stroke:#181818;stroke-width:1.0;" width="10" x="1066" y="254.3672"/><rect fill="#FFFFFF" height="31.291" style="stroke:#181818;stroke-width:1.0;" width="10" x="1263.5" y="454.4434"/><polygon fill="#181818" points="238.5,67.9121,248.5,71.9121,238.5,75.9121,242.5,71.9121" style="stroke:#181818;stroke-width:1.0;"/><line style="stroke:#181818;stroke-width:1.0;" x1="92" x2="244.5" y1="71.9121" y2="71.9121"/><text fill="#000000" font-family="sans-serif" font-size="13" font-weight="bold" lengthAdjust="spacing" textLength="7" x="99" y="66.6494">1</text><text fill="#000000" font-family="sans-serif" font-size="13" lengthAdjust="spacing" textLength="120" x="110" y="66.6494">POST/Readers(data)</text><polygon fill="#181818" points="432.5,99.2031,442.5,103.2031,432.5,107.2031,436.5,103.2031" style="stroke:#181818;stroke-width:1.0;"/><line style="stroke:#181818;stroke-width:1.0;" x1="260.5" x2="438.5" y1="103.2031" y2="103.2031"/><text fill="#000000" font-family="sans-serif" font-size="13" font-weight="bold" lengthAdjust="spacing" textLength="7" x="267.5" y="97.9404">2</text><text fill="#000000" font-family="sans-serif" font-size="13" lengthAdjust="spacing" textLength="135" x="278.5" y="97.9404">createReader(resource)</text><polygon fill="#181818" points="607.5,130.4941,617.5,134.4941,607.5,138.4941,611.5,134.4941" style="stroke:#181818;stroke-width:1.0;"/><line style="stroke:#181818;stroke-width:1.0;" x1="454.5" x2="613.5" y1="134.4941" y2="134.4941"/><text fill="#000000" font-family="sans-serif" font-size="13" font-weight="bold" lengthAdjust="spacing" textLength="7" x="461.5" y="129.2314">3</text><text fill="#000000" font-family="sans-serif" font-size="13" lengthAdjust="spacing" textLength="135" x="472.5" y="129.2314">createReader(resource)</text><line style="stroke:#181818;stroke-width:1.0;" x1="629.5" x2="676.5" y1="160.7852" y2="160.7852"/><line style="stroke:#181818;stroke-width:1.0;" x1="676.5" x2="676.5" y1="160.7852" y2="173.7852"/><line style="stroke:#181818;stroke-width:1.0;" x1="635.5" x2="676.5" y1="173.7852" y2="173.7852"/><polygon fill="#181818" points="645.5,169.7852,635.5,173.7852,645.5,177.7852,641.5,173.7852" style="stroke:#181818;stroke-width:1.0;"/><text fill="#000000" font-family="sans-serif" font-size="13" font-weight="bold" lengthAdjust="spacing" textLength="7" x="641.5" y="155.5225">4</text><text fill="#000000" font-family="sans-serif" font-size="13" lengthAdjust="spacing" textLength="228" x="652.5" y="155.5225">validateCreateReaderRequest(resource)</text><line style="stroke:#181818;stroke-width:1.0;stroke-dasharray:2.0,2.0;" x1="634.5" x2="676.5" y1="215.0762" y2="215.0762"/><line style="stroke:#181818;stroke-width:1.0;stroke-dasharray:2.0,2.0;" x1="676.5" x2="676.5" y1="215.0762" y2="228.0762"/><line style="stroke:#181818;stroke-width:1.0;stroke-dasharray:2.0,2.0;" x1="629.5" x2="676.5" y1="228.0762" y2="228.0762"/><polygon fill="#181818" points="639.5,224.0762,629.5,228.0762,639.5,232.0762,635.5,228.0762" style="stroke:#181818;stroke-width:1.0;"/><text fill="#000000" font-family="sans-serif" font-size="13" font-weight="bold" lengthAdjust="spacing" textLength="7" x="641.5" y="209.8135">5</text><text fill="#000000" font-family="sans-serif" font-size="13" lengthAdjust="spacing" textLength="14" x="652.5" y="209.8135">ok</text><polygon fill="#181818" points="1054,250.3672,1064,254.3672,1054,258.3672,1058,254.3672" style="stroke:#181818;stroke-width:1.0;"/><line style="stroke:#181818;stroke-width:1.0;" x1="629.5" x2="1060" y1="254.3672" y2="254.3672"/><text fill="#000000" font-family="sans-serif" font-size="13" font-weight="bold" lengthAdjust="spacing" textLength="7" x="636.5" y="249.1045">6</text><text fill="#000000" font-family="sans-serif" font-size="13" lengthAdjust="spacing" textLength="94" x="647.5" y="249.1045">create(resource)</text><polygon fill="#181818" points="1361.5,281.6582,1371.5,285.6582,1361.5,289.6582,1365.5,285.6582" style="stroke:#181818;stroke-width:1.0;"/><line style="stroke:#181818;stroke-width:1.0;stroke-dasharray:2.0,2.0;" x1="1076" x2="1367.5" y1="285.6582" y2="285.6582"/><text fill="#000000" font-family="sans-serif" font-size="13" font-weight="bold" lengthAdjust="spacing" textLength="7" x="1083" y="280.3955">7</text><text fill="#000000" font-family="sans-serif" font-size="13" lengthAdjust="spacing" textLength="203" x="1094" y="280.3955">create(EditReaderRequest request)</text><rect fill="#E2E2F0" height="32.6211" rx="2.5" ry="2.5" style="stroke:#181818;stroke-width:0.5;" width="107" x="1373.5" y="262.3672"/><text fill="#000000" font-family="sans-serif" font-size="14" lengthAdjust="spacing" textLength="93" x="1380.5" y="284.4746">reader:Reader</text><polygon fill="#181818" points="640.5,325.2793,630.5,329.2793,640.5,333.2793,636.5,329.2793" style="stroke:#181818;stroke-width:1.0;"/><line style="stroke:#181818;stroke-width:1.0;stroke-dasharray:2.0,2.0;" x1="634.5" x2="1070" y1="329.2793" y2="329.2793"/><text fill="#000000" font-family="sans-serif" font-size="13" font-weight="bold" lengthAdjust="spacing" textLength="7" x="646.5" y="324.0166">8</text><text fill="#000000" font-family="sans-serif" font-size="13" lengthAdjust="spacing" textLength="36" x="657.5" y="324.0166">reader</text><polygon fill="#181818" points="870.5,356.5703,880.5,360.5703,870.5,364.5703,874.5,360.5703" style="stroke:#181818;stroke-width:1.0;"/><line style="stroke:#181818;stroke-width:1.0;" x1="629.5" x2="876.5" y1="360.5703" y2="360.5703"/><text fill="#000000" font-family="sans-serif" font-size="13" font-weight="bold" lengthAdjust="spacing" textLength="7" x="636.5" y="355.3076">9</text><text fill="#000000" font-family="sans-serif" font-size="13" lengthAdjust="spacing" textLength="70" x="647.5" y="355.3076">save(reader)</text><polygon fill="#181818" points="640.5,387.8613,630.5,391.8613,640.5,395.8613,636.5,391.8613" style="stroke:#181818;stroke-width:1.0;"/><line style="stroke:#181818;stroke-width:1.0;stroke-dasharray:2.0,2.0;" x1="634.5" x2="886.5" y1="391.8613" y2="391.8613"/><text fill="#000000" font-family="sans-serif" font-size="13" font-weight="bold" lengthAdjust="spacing" textLength="14" x="646.5" y="386.5986">10</text><text fill="#000000" font-family="sans-serif" font-size="13" lengthAdjust="spacing" textLength="36" x="664.5" y="386.5986">reader</text><polygon fill="#181818" points="465.5,419.1523,455.5,423.1523,465.5,427.1523,461.5,423.1523" style="stroke:#181818;stroke-width:1.0;"/><line style="stroke:#181818;stroke-width:1.0;stroke-dasharray:2.0,2.0;" x1="459.5" x2="623.5" y1="423.1523" y2="423.1523"/><text fill="#000000" font-family="sans-serif" font-size="13" font-weight="bold" lengthAdjust="spacing" textLength="14" x="471.5" y="417.8896">11</text><text fill="#000000" font-family="sans-serif" font-size="13" lengthAdjust="spacing" textLength="36" x="489.5" y="417.8896">reader</text><polygon fill="#181818" points="1251.5,450.4434,1261.5,454.4434,1251.5,458.4434,1255.5,454.4434" style="stroke:#181818;stroke-width:1.0;"/><line style="stroke:#181818;stroke-width:1.0;" x1="454.5" x2="1257.5" y1="454.4434" y2="454.4434"/><text fill="#000000" font-family="sans-serif" font-size="13" font-weight="bold" lengthAdjust="spacing" textLength="14" x="461.5" y="449.1807">12</text><text fill="#000000" font-family="sans-serif" font-size="13" lengthAdjust="spacing" textLength="124" x="479.5" y="449.1807">toReaderView(reader)</text><polygon fill="#181818" points="465.5,481.7344,455.5,485.7344,465.5,489.7344,461.5,485.7344" style="stroke:#181818;stroke-width:1.0;"/><line style="stroke:#181818;stroke-width:1.0;stroke-dasharray:2.0,2.0;" x1="459.5" x2="1267.5" y1="485.7344" y2="485.7344"/><text fill="#000000" font-family="sans-serif" font-size="13" font-weight="bold" lengthAdjust="spacing" textLength="14" x="471.5" y="480.4717">13</text><text fill="#000000" font-family="sans-serif" font-size="13" lengthAdjust="spacing" textLength="64" x="489.5" y="480.4717">readerView</text><polygon fill="#181818" points="1478.5,513.0254,1488.5,517.0254,1478.5,521.0254,1482.5,517.0254" style="stroke:#181818;stroke-width:1.0;"/><line style="stroke:#181818;stroke-width:1.0;stroke-dasharray:2.0,2.0;" x1="454.5" x2="1484.5" y1="517.0254" y2="517.0254"/><text fill="#000000" font-family="sans-serif" font-size="13" font-weight="bold" lengthAdjust="spacing" textLength="14" x="461.5" y="511.7627">14</text><text fill="#000000" font-family="sans-serif" font-size="13" lengthAdjust="spacing" textLength="65" x="479.5" y="511.7627">create(201)</text><rect fill="#E2E2F0" height="32.6211" rx="2.5" ry="2.5" style="stroke:#181818;stroke-width:0.5;" width="118" x="1490.5" y="493.7344"/><text fill="#000000" font-family="sans-serif" font-size="14" lengthAdjust="spacing" textLength="104" x="1497.5" y="515.8418">result:HttpResult</text><polygon fill="#181818" points="271.5,556.6465,261.5,560.6465,271.5,564.6465,267.5,560.6465" style="stroke:#181818;stroke-width:1.0;"/><line style="stroke:#181818;stroke-width:1.0;stroke-dasharray:2.0,2.0;" x1="265.5" x2="448.5" y1="560.6465" y2="560.6465"/><text fill="#000000" font-family="sans-serif" font-size="13" font-weight="bold" lengthAdjust="spacing" textLength="14" x="277.5" y="555.3838">15</text><text fill="#000000" font-family="sans-serif" font-size="13" lengthAdjust="spacing" textLength="32" x="295.5" y="555.3838">result</text><line style="stroke:#181818;stroke-width:1.0;" x1="260.5" x2="307.5" y1="586.9375" y2="586.9375"/><line style="stroke:#181818;stroke-width:1.0;" x1="307.5" x2="307.5" y1="586.9375" y2="599.9375"/><line style="stroke:#181818;stroke-width:1.0;" x1="266.5" x2="307.5" y1="599.9375" y2="599.9375"/><polygon fill="#181818" points="276.5,595.9375,266.5,599.9375,276.5,603.9375,272.5,599.9375" style="stroke:#181818;stroke-width:1.0;"/><text fill="#000000" font-family="sans-serif" font-size="13" font-weight="bold" lengthAdjust="spacing" textLength="14" x="272.5" y="581.6748">16</text><text fill="#000000" font-family="sans-serif" font-size="13" lengthAdjust="spacing" textLength="152" x="290.5" y="581.6748">setHttpResult(resp, result)</text><polygon fill="#181818" points="103,632.2285,93,636.2285,103,640.2285,99,636.2285" style="stroke:#181818;stroke-width:1.0;"/><line style="stroke:#181818;stroke-width:1.0;stroke-dasharray:2.0,2.0;" x1="97" x2="249.5" y1="636.2285" y2="636.2285"/><text fill="#000000" font-family="sans-serif" font-size="13" font-weight="bold" lengthAdjust="spacing" textLength="14" x="109" y="630.9658">17</text><text fill="#000000" font-family="sans-serif" font-size="13" lengthAdjust="spacing" textLength="25" x="127" y="630.9658">resp</text><!--SRC=[VP9DJyCm38Rl-HNHBcmJOy0n1oHK8Us2cBg9UsWj5j4c8N67zk_9LzUqR9pgZyTlNDit1qHjsNgj6ownQvkxIhLh2zyTo0fMjU2VXhU4y0uLhr0SEG9LClYoQp_04AAvGL49xGJex5agUMfLPzbclzyMZG29Cyej7TnnmO7BkW73IjKXRA8J2dOdYz2EOLO2hy4KIg9HJKyMQ9enPy4SHGK9tqKlgaPxZ1lGAh6bCwr0PKu1z-wORRdMhjsNMc2iU0s1G4-35oiZy2xW9wkS1gVz-MogpFWfPRi6sSPjj0nc8htfDjXlBri46MowUaeJPtJxjjklumjsNdFa2n9J7lB3PhHoBI54PkuULfsfO45yCYYb-L_ZKdw47daZt6DGP2MbFqIBbohpKlMLAqwtq7UHgKoH81S3o-MP7wZK1pNnUqNWt4_SLzwJloD6BJ_wBdnoGNpe_xBpj5EYd-xqM1X5DSIo1yRO7q6VIg91rHzAzlkFzm-B8TqVHxoox23wX0KSJi_FMjycU3WVXmyd5xGq-GK0]--></g></svg>