<?xml version="1.0" encoding="us-ascii" standalone="no"?><svg xmlns="http://www.w3.org/2000/svg" xmlns:xlink="http://www.w3.org/1999/xlink" contentStyleType="text/css" height="264px" preserveAspectRatio="none" style="width:203px;height:264px;background:#FFFFFF;" version="1.1" viewBox="0 0 203 264" width="203px" zoomAndPan="magnify"><defs/><g><!--class Author--><g id="elem_Author"><rect codeLine="5" fill="#F1F1F1" height="36.6211" id="Author" rx="2.5" ry="2.5" style="stroke:#181818;stroke-width:0.5;" width="48" x="56.5" y="123"/><text fill="#000000" font-family="sans-serif" font-size="14" lengthAdjust="spacing" textLength="42" x="59.5" y="143.1074">Author</text><line style="stroke:#181818;stroke-width:0.5;" x1="57.5" x2="103.5" y1="151.6211" y2="151.6211"/></g><!--class Id--><g id="elem_Id"><rect codeLine="6" fill="#F1F1F1" height="36.6211" id="Id" rx="2.5" ry="2.5" style="stroke:#181818;stroke-width:0.5;" width="17" x="7" y="221"/><text fill="#000000" font-family="sans-serif" font-size="14" lengthAdjust="spacing" textLength="11" x="10" y="241.1074">Id</text><line style="stroke:#181818;stroke-width:0.5;" x1="8" x2="23" y1="249.6211" y2="249.6211"/></g><!--class Name--><g id="elem_Name"><rect codeLine="7" fill="#F1F1F1" height="36.6211" id="Name" rx="2.5" ry="2.5" style="stroke:#181818;stroke-width:0.5;" width="42" x="59.5" y="221"/><text fill="#000000" font-family="sans-serif" font-size="14" lengthAdjust="spacing" textLength="36" x="62.5" y="241.1074">Name</text><line style="stroke:#181818;stroke-width:0.5;" x1="60.5" x2="100.5" y1="249.6211" y2="249.6211"/></g><!--class ShortBio--><g id="elem_ShortBio"><rect codeLine="8" fill="#F1F1F1" height="36.6211" id="ShortBio" rx="2.5" ry="2.5" style="stroke:#181818;stroke-width:0.5;" width="60" x="136.5" y="221"/><text fill="#000000" font-family="sans-serif" font-size="14" lengthAdjust="spacing" textLength="54" x="139.5" y="241.1074">ShortBio</text><line style="stroke:#181818;stroke-width:0.5;" x1="137.5" x2="195.5" y1="249.6211" y2="249.6211"/></g><!--class Librarian--><g id="elem_Librarian"><rect codeLine="10" fill="#F1F1F1" height="36.6211" id="Librarian" rx="2.5" ry="2.5" style="stroke:#181818;stroke-width:0.5;" width="62" x="49.5" y="7"/><text fill="#000000" font-family="sans-serif" font-size="14" lengthAdjust="spacing" textLength="56" x="52.5" y="27.1074">Librarian</text><line style="stroke:#181818;stroke-width:0.5;" x1="50.5" x2="110.5" y1="35.6211" y2="35.6211"/></g><!--link Librarian to Author--><g id="link_Librarian_Author"><path codeLine="12" d="M80.5,44.31 C80.5,65.73 80.5,101.45 80.5,122.81 " fill="none" id="Librarian-Author" style="stroke:#181818;stroke-width:1.0;"/><polygon fill="#000000" points="85.5,88.6455,88.4389,79.6004,82.5611,79.6004,85.5,88.6455" style="stroke:#000000;stroke-width:1.0;"/><text fill="#000000" font-family="sans-serif" font-size="13" lengthAdjust="spacing" textLength="50" x="94.5" y="89.0283">registers</text><text fill="#000000" font-family="sans-serif" font-size="13" lengthAdjust="spacing" textLength="7" x="72.5594" y="65.7679">1</text><text fill="#000000" font-family="sans-serif" font-size="13" lengthAdjust="spacing" textLength="20" x="57.4375" y="111.614">1..*</text></g><!--reverse link Author to Id--><g id="link_Author_Id"><path codeLine="14" d="M61.8516,170.0462 C48.9516,189.0962 35.43,209.07 24.03,225.9 " fill="none" id="Author-backto-Id" style="stroke:#181818;stroke-width:1.0;"/><polygon fill="#181818" points="68.58,160.11,61.9037,162.8353,61.8516,170.0462,68.5278,167.3209,68.58,160.11" style="stroke:#181818;stroke-width:1.0;"/></g><!--reverse link Author to Name--><g id="link_Author_Name"><path codeLine="15" d="M80.5,172.11 C80.5,189.32 80.5,203.39 80.5,220.68 " fill="none" id="Author-backto-Name" style="stroke:#181818;stroke-width:1.0;"/><polygon fill="#181818" points="80.5,160.11,76.5,166.11,80.5,172.11,84.5,166.11,80.5,160.11" style="stroke:#181818;stroke-width:1.0;"/></g><!--reverse link Author to ShortBio--><g id="link_Author_ShortBio"><path codeLine="16" d="M104.2778,169.0473 C119.6978,186.2573 135.05,203.39 150.54,220.68 " fill="none" id="Author-backto-ShortBio" style="stroke:#181818;stroke-width:1.0;"/><polygon fill="#181818" points="96.27,160.11,97.2948,167.2479,104.2778,169.0473,103.253,161.9094,96.27,160.11" style="stroke:#181818;stroke-width:1.0;"/></g><!--SRC=[JOqn3i8m34NtdCBgM2aLh8YbR9KGIq-G9XQrQ9BAIHOGToUb9NJxx-lPFpp8pOgL1Jsf4DeOcOOKiTFUzVH4E8YH388crXEksM8SlGb2V4-WJHdvzTwmCoNUb4Ker6ShNiZdOckkDB1YKcwfrZTG7Pkcha2cMUPS_PqJCDufHEG0vwBNKkR5FIsZU_xDYWy0]--></g></svg>