<?xml version="1.0" encoding="us-ascii" standalone="no"?><svg xmlns="http://www.w3.org/2000/svg" xmlns:xlink="http://www.w3.org/1999/xlink" contentStyleType="text/css" height="768px" preserveAspectRatio="none" style="width:1629px;height:768px;background:#FFFFFF;" version="1.1" viewBox="0 0 1629 768" width="1629px" zoomAndPan="magnify"><defs/><g><rect fill="#FFFFFF" height="672.8594" style="stroke:#181818;stroke-width:1.0;" width="10" x="73" y="48.6211"/><rect fill="#FFFFFF" height="649.5684" style="stroke:#181818;stroke-width:1.0;" width="10" x="232.5" y="71.9121"/><rect fill="#FFFFFF" height="36.291" style="stroke:#181818;stroke-width:1.0;" width="10" x="237.5" y="676.1895"/><rect fill="#FFFFFF" height="533.6953" style="stroke:#181818;stroke-width:1.0;" width="10" x="476.5" y="103.2031"/><rect fill="#FFFFFF" height="42.291" style="stroke:#181818;stroke-width:1.0;" width="10" x="481.5" y="142.4941"/><rect fill="#FFFFFF" height="276.3281" style="stroke:#181818;stroke-width:1.0;" width="10" x="777.5" y="223.0762"/><rect fill="#FFFFFF" height="42.291" style="stroke:#181818;stroke-width:1.0;" width="10" x="782.5" y="324.9492"/><rect fill="#FFFFFF" height="31.291" style="stroke:#181818;stroke-width:1.0;" width="10" x="1037.5" y="254.3672"/><rect fill="#FFFFFF" height="31.291" style="stroke:#181818;stroke-width:1.0;" width="10" x="1037.5" y="436.8223"/><rect fill="#FFFFFF" height="315.9492" style="stroke:#181818;stroke-width:1.0;" width="10" x="1244.5" y="405.5313"/><rect fill="#FFFFFF" height="31.291" style="stroke:#181818;stroke-width:1.0;" width="10" x="1397.5" y="530.6953"/><line style="stroke:#181818;stroke-width:0.5;stroke-dasharray:5.0,5.0;" x1="78" x2="78" y1="38.6211" y2="730.4805"/><line style="stroke:#181818;stroke-width:0.5;stroke-dasharray:5.0,5.0;" x1="237" x2="237" y1="38.6211" y2="730.4805"/><line style="stroke:#181818;stroke-width:0.5;stroke-dasharray:5.0,5.0;" x1="481.5" x2="481.5" y1="38.6211" y2="730.4805"/><line style="stroke:#181818;stroke-width:0.5;stroke-dasharray:5.0,5.0;" x1="782.5" x2="782.5" y1="38.6211" y2="730.4805"/><line style="stroke:#181818;stroke-width:0.5;stroke-dasharray:5.0,5.0;" x1="1042" x2="1042" y1="38.6211" y2="730.4805"/><line style="stroke:#181818;stroke-width:0.5;stroke-dasharray:5.0,5.0;" x1="1249" x2="1249" y1="38.6211" y2="730.4805"/><line style="stroke:#181818;stroke-width:0.5;stroke-dasharray:5.0,5.0;" x1="1402" x2="1402" y1="38.6211" y2="730.4805"/><line style="stroke:#181818;stroke-width:0.5;stroke-dasharray:5.0,5.0;" x1="1564" x2="1564" y1="601.7969" y2="730.4805"/><rect fill="#E2E2F0" height="32.6211" rx="2.5" ry="2.5" style="stroke:#181818;stroke-width:0.5;" width="146" x="5" y="5"/><text fill="#000000" font-family="sans-serif" font-size="14" lengthAdjust="spacing" textLength="132" x="12" y="27.1074">Librarian:HTTPClient</text><rect fill="#E2E2F0" height="32.6211" rx="2.5" ry="2.5" style="stroke:#181818;stroke-width:0.5;" width="146" x="5" y="729.4805"/><text fill="#000000" font-family="sans-serif" font-size="14" lengthAdjust="spacing" textLength="132" x="12" y="751.5879">Librarian:HTTPClient</text><rect fill="#E2E2F0" height="32.6211" rx="2.5" ry="2.5" style="stroke:#181818;stroke-width:0.5;" width="153" x="161" y="5"/><text fill="#000000" font-family="sans-serif" font-size="14" lengthAdjust="spacing" textLength="139" x="168" y="27.1074">handler:RouteHandler</text><rect fill="#E2E2F0" height="32.6211" rx="2.5" ry="2.5" style="stroke:#181818;stroke-width:0.5;" width="153" x="161" y="729.4805"/><text fill="#000000" font-family="sans-serif" font-size="14" lengthAdjust="spacing" textLength="139" x="168" y="751.5879">handler:RouteHandler</text><rect fill="#E2E2F0" height="32.6211" rx="2.5" ry="2.5" style="stroke:#181818;stroke-width:0.5;" width="122" x="420.5" y="5"/><text fill="#000000" font-family="sans-serif" font-size="14" lengthAdjust="spacing" textLength="108" x="427.5" y="27.1074">:AuthorController</text><rect fill="#E2E2F0" height="32.6211" rx="2.5" ry="2.5" style="stroke:#181818;stroke-width:0.5;" width="122" x="420.5" y="729.4805"/><text fill="#000000" font-family="sans-serif" font-size="14" lengthAdjust="spacing" textLength="108" x="427.5" y="751.5879">:AuthorController</text><rect fill="#E2E2F0" height="32.6211" rx="2.5" ry="2.5" style="stroke:#181818;stroke-width:0.5;" width="152" x="706.5" y="5"/><text fill="#000000" font-family="sans-serif" font-size="14" lengthAdjust="spacing" textLength="138" x="713.5" y="27.1074">service:AuthorService</text><rect fill="#E2E2F0" height="32.6211" rx="2.5" ry="2.5" style="stroke:#181818;stroke-width:0.5;" width="152" x="706.5" y="729.4805"/><text fill="#000000" font-family="sans-serif" font-size="14" lengthAdjust="spacing" textLength="138" x="713.5" y="751.5879">service:AuthorService</text><rect fill="#E2E2F0" height="32.6211" rx="2.5" ry="2.5" style="stroke:#181818;stroke-width:0.5;" width="157" x="964" y="5"/><text fill="#000000" font-family="sans-serif" font-size="14" lengthAdjust="spacing" textLength="143" x="971" y="27.1074">repo:AuthorRepository</text><rect fill="#E2E2F0" height="32.6211" rx="2.5" ry="2.5" style="stroke:#181818;stroke-width:0.5;" width="157" x="964" y="729.4805"/><text fill="#000000" font-family="sans-serif" font-size="14" lengthAdjust="spacing" textLength="143" x="971" y="751.5879">repo:AuthorRepository</text><rect fill="#E2E2F0" height="32.6211" rx="2.5" ry="2.5" style="stroke:#181818;stroke-width:0.5;" width="101" x="1199" y="5"/><text fill="#000000" font-family="sans-serif" font-size="14" lengthAdjust="spacing" textLength="87" x="1206" y="27.1074">author:Author</text><rect fill="#E2E2F0" height="32.6211" rx="2.5" ry="2.5" style="stroke:#181818;stroke-width:0.5;" width="101" x="1199" y="729.4805"/><text fill="#000000" font-family="sans-serif" font-size="14" lengthAdjust="spacing" textLength="87" x="1206" y="751.5879">author:Author</text><rect fill="#E2E2F0" height="32.6211" rx="2.5" ry="2.5" style="stroke:#181818;stroke-width:0.5;" width="185" x="1310" y="5"/><text fill="#000000" font-family="sans-serif" font-size="14" lengthAdjust="spacing" textLength="171" x="1317" y="27.1074">mapper:AuthorViewMapper</text><rect fill="#E2E2F0" height="32.6211" rx="2.5" ry="2.5" style="stroke:#181818;stroke-width:0.5;" width="185" x="1310" y="729.4805"/><text fill="#000000" font-family="sans-serif" font-size="14" lengthAdjust="spacing" textLength="171" x="1317" y="751.5879">mapper:AuthorViewMapper</text><rect fill="#E2E2F0" height="32.6211" rx="2.5" ry="2.5" style="stroke:#181818;stroke-width:0.5;" width="118" x="1505" y="729.4805"/><text fill="#000000" font-family="sans-serif" font-size="14" lengthAdjust="spacing" textLength="104" x="1512" y="751.5879">result:HttpResult</text><rect fill="#FFFFFF" height="672.8594" style="stroke:#181818;stroke-width:1.0;" width="10" x="73" y="48.6211"/><rect fill="#FFFFFF" height="649.5684" style="stroke:#181818;stroke-width:1.0;" width="10" x="232.5" y="71.9121"/><rect fill="#FFFFFF" height="36.291" style="stroke:#181818;stroke-width:1.0;" width="10" x="237.5" y="676.1895"/><rect fill="#FFFFFF" height="533.6953" style="stroke:#181818;stroke-width:1.0;" width="10" x="476.5" y="103.2031"/><rect fill="#FFFFFF" height="42.291" style="stroke:#181818;stroke-width:1.0;" width="10" x="481.5" y="142.4941"/><rect fill="#FFFFFF" height="276.3281" style="stroke:#181818;stroke-width:1.0;" width="10" x="777.5" y="223.0762"/><rect fill="#FFFFFF" height="42.291" style="stroke:#181818;stroke-width:1.0;" width="10" x="782.5" y="324.9492"/><rect fill="#FFFFFF" height="31.291" style="stroke:#181818;stroke-width:1.0;" width="10" x="1037.5" y="254.3672"/><rect fill="#FFFFFF" height="31.291" style="stroke:#181818;stroke-width:1.0;" width="10" x="1037.5" y="436.8223"/><rect fill="#FFFFFF" height="315.9492" style="stroke:#181818;stroke-width:1.0;" width="10" x="1244.5" y="405.5313"/><rect fill="#FFFFFF" height="31.291" style="stroke:#181818;stroke-width:1.0;" width="10" x="1397.5" y="530.6953"/><polygon fill="#181818" points="220.5,67.9121,230.5,71.9121,220.5,75.9121,224.5,71.9121" style="stroke:#181818;stroke-width:1.0;"/><line style="stroke:#181818;stroke-width:1.0;" x1="83" x2="226.5" y1="71.9121" y2="71.9121"/><text fill="#000000" font-family="sans-serif" font-size="13" font-weight="bold" lengthAdjust="spacing" textLength="7" x="90" y="66.6494">1</text><text fill="#000000" font-family="sans-serif" font-size="13" lengthAdjust="spacing" textLength="105" x="101" y="66.6494">PUT/authors(data)</text><polygon fill="#181818" points="464.5,99.2031,474.5,103.2031,464.5,107.2031,468.5,103.2031" style="stroke:#181818;stroke-width:1.0;"/><line style="stroke:#181818;stroke-width:1.0;" x1="242.5" x2="470.5" y1="103.2031" y2="103.2031"/><text fill="#000000" font-family="sans-serif" font-size="13" font-weight="bold" lengthAdjust="spacing" textLength="7" x="249.5" y="97.9404">2</text><text fill="#000000" font-family="sans-serif" font-size="13" lengthAdjust="spacing" textLength="204" x="260.5" y="97.9404">updateAuthor(request, id, resource)</text><line style="stroke:#181818;stroke-width:1.0;" x1="486.5" x2="533.5" y1="129.4941" y2="129.4941"/><line style="stroke:#181818;stroke-width:1.0;" x1="533.5" x2="533.5" y1="129.4941" y2="142.4941"/><line style="stroke:#181818;stroke-width:1.0;" x1="492.5" x2="533.5" y1="142.4941" y2="142.4941"/><polygon fill="#181818" points="502.5,138.4941,492.5,142.4941,502.5,146.4941,498.5,142.4941" style="stroke:#181818;stroke-width:1.0;"/><text fill="#000000" font-family="sans-serif" font-size="13" font-weight="bold" lengthAdjust="spacing" textLength="7" x="498.5" y="124.2314">3</text><text fill="#000000" font-family="sans-serif" font-size="13" lengthAdjust="spacing" textLength="266" x="509.5" y="124.2314">getVersionFromIfMatchHeader(ifMatchHeader)</text><line style="stroke:#181818;stroke-width:1.0;stroke-dasharray:2.0,2.0;" x1="491.5" x2="533.5" y1="183.7852" y2="183.7852"/><line style="stroke:#181818;stroke-width:1.0;stroke-dasharray:2.0,2.0;" x1="533.5" x2="533.5" y1="183.7852" y2="196.7852"/><line style="stroke:#181818;stroke-width:1.0;stroke-dasharray:2.0,2.0;" x1="486.5" x2="533.5" y1="196.7852" y2="196.7852"/><polygon fill="#181818" points="496.5,192.7852,486.5,196.7852,496.5,200.7852,492.5,196.7852" style="stroke:#181818;stroke-width:1.0;"/><text fill="#000000" font-family="sans-serif" font-size="13" font-weight="bold" lengthAdjust="spacing" textLength="7" x="498.5" y="178.5225">4</text><text fill="#000000" font-family="sans-serif" font-size="13" lengthAdjust="spacing" textLength="14" x="509.5" y="178.5225">ok</text><polygon fill="#181818" points="765.5,219.0762,775.5,223.0762,765.5,227.0762,769.5,223.0762" style="stroke:#181818;stroke-width:1.0;"/><line style="stroke:#181818;stroke-width:1.0;" x1="486.5" x2="771.5" y1="223.0762" y2="223.0762"/><text fill="#000000" font-family="sans-serif" font-size="13" font-weight="bold" lengthAdjust="spacing" textLength="7" x="493.5" y="217.8135">5</text><text fill="#000000" font-family="sans-serif" font-size="13" lengthAdjust="spacing" textLength="204" x="504.5" y="217.8135">updateAuthor(request, id, resource)</text><polygon fill="#181818" points="1025.5,250.3672,1035.5,254.3672,1025.5,258.3672,1029.5,254.3672" style="stroke:#181818;stroke-width:1.0;"/><line style="stroke:#181818;stroke-width:1.0;" x1="787.5" x2="1031.5" y1="254.3672" y2="254.3672"/><text fill="#000000" font-family="sans-serif" font-size="13" font-weight="bold" lengthAdjust="spacing" textLength="7" x="794.5" y="249.1045">6</text><text fill="#000000" font-family="sans-serif" font-size="13" lengthAdjust="spacing" textLength="64" x="805.5" y="249.1045">findById(id)</text><polygon fill="#181818" points="798.5,281.6582,788.5,285.6582,798.5,289.6582,794.5,285.6582" style="stroke:#181818;stroke-width:1.0;"/><line style="stroke:#181818;stroke-width:1.0;stroke-dasharray:2.0,2.0;" x1="792.5" x2="1041.5" y1="285.6582" y2="285.6582"/><text fill="#000000" font-family="sans-serif" font-size="13" font-weight="bold" lengthAdjust="spacing" textLength="7" x="804.5" y="280.3955">7</text><text fill="#000000" font-family="sans-serif" font-size="13" lengthAdjust="spacing" textLength="36" x="815.5" y="280.3955">author</text><line style="stroke:#181818;stroke-width:1.0;" x1="787.5" x2="834.5" y1="311.9492" y2="311.9492"/><line style="stroke:#181818;stroke-width:1.0;" x1="834.5" x2="834.5" y1="311.9492" y2="324.9492"/><line style="stroke:#181818;stroke-width:1.0;" x1="793.5" x2="834.5" y1="324.9492" y2="324.9492"/><polygon fill="#181818" points="803.5,320.9492,793.5,324.9492,803.5,328.9492,799.5,324.9492" style="stroke:#181818;stroke-width:1.0;"/><text fill="#000000" font-family="sans-serif" font-size="13" font-weight="bold" lengthAdjust="spacing" textLength="7" x="799.5" y="306.6865">8</text><text fill="#000000" font-family="sans-serif" font-size="13" lengthAdjust="spacing" textLength="225" x="810.5" y="306.6865">validateCreateAuthorRequest(resource)</text><line style="stroke:#181818;stroke-width:1.0;stroke-dasharray:2.0,2.0;" x1="792.5" x2="834.5" y1="366.2402" y2="366.2402"/><line style="stroke:#181818;stroke-width:1.0;stroke-dasharray:2.0,2.0;" x1="834.5" x2="834.5" y1="366.2402" y2="379.2402"/><line style="stroke:#181818;stroke-width:1.0;stroke-dasharray:2.0,2.0;" x1="787.5" x2="834.5" y1="379.2402" y2="379.2402"/><polygon fill="#181818" points="797.5,375.2402,787.5,379.2402,797.5,383.2402,793.5,379.2402" style="stroke:#181818;stroke-width:1.0;"/><text fill="#000000" font-family="sans-serif" font-size="13" font-weight="bold" lengthAdjust="spacing" textLength="7" x="799.5" y="360.9775">9</text><text fill="#000000" font-family="sans-serif" font-size="13" lengthAdjust="spacing" textLength="14" x="810.5" y="360.9775">ok</text><polygon fill="#181818" points="1232.5,401.5313,1242.5,405.5313,1232.5,409.5313,1236.5,405.5313" style="stroke:#181818;stroke-width:1.0;"/><line style="stroke:#181818;stroke-width:1.0;" x1="787.5" x2="1238.5" y1="405.5313" y2="405.5313"/><text fill="#000000" font-family="sans-serif" font-size="13" font-weight="bold" lengthAdjust="spacing" textLength="14" x="794.5" y="400.2686">10</text><text fill="#000000" font-family="sans-serif" font-size="13" lengthAdjust="spacing" textLength="420" x="812.5" y="400.2686">updateData(desiredVersion, resource.getName(), resource.getShortBio())</text><polygon fill="#181818" points="1025.5,432.8223,1035.5,436.8223,1025.5,440.8223,1029.5,436.8223" style="stroke:#181818;stroke-width:1.0;"/><line style="stroke:#181818;stroke-width:1.0;" x1="787.5" x2="1031.5" y1="436.8223" y2="436.8223"/><text fill="#000000" font-family="sans-serif" font-size="13" font-weight="bold" lengthAdjust="spacing" textLength="14" x="794.5" y="431.5596">11</text><text fill="#000000" font-family="sans-serif" font-size="13" lengthAdjust="spacing" textLength="70" x="812.5" y="431.5596">save(author)</text><polygon fill="#181818" points="798.5,464.1133,788.5,468.1133,798.5,472.1133,794.5,468.1133" style="stroke:#181818;stroke-width:1.0;"/><line style="stroke:#181818;stroke-width:1.0;stroke-dasharray:2.0,2.0;" x1="792.5" x2="1041.5" y1="468.1133" y2="468.1133"/><text fill="#000000" font-family="sans-serif" font-size="13" font-weight="bold" lengthAdjust="spacing" textLength="14" x="804.5" y="462.8506">12</text><text fill="#000000" font-family="sans-serif" font-size="13" lengthAdjust="spacing" textLength="36" x="822.5" y="462.8506">author</text><polygon fill="#181818" points="497.5,495.4043,487.5,499.4043,497.5,503.4043,493.5,499.4043" style="stroke:#181818;stroke-width:1.0;"/><line style="stroke:#181818;stroke-width:1.0;stroke-dasharray:2.0,2.0;" x1="491.5" x2="781.5" y1="499.4043" y2="499.4043"/><text fill="#000000" font-family="sans-serif" font-size="13" font-weight="bold" lengthAdjust="spacing" textLength="14" x="503.5" y="494.1416">13</text><text fill="#000000" font-family="sans-serif" font-size="13" lengthAdjust="spacing" textLength="36" x="521.5" y="494.1416">author</text><polygon fill="#181818" points="1385.5,526.6953,1395.5,530.6953,1385.5,534.6953,1389.5,530.6953" style="stroke:#181818;stroke-width:1.0;"/><line style="stroke:#181818;stroke-width:1.0;" x1="486.5" x2="1391.5" y1="530.6953" y2="530.6953"/><text fill="#000000" font-family="sans-serif" font-size="13" font-weight="bold" lengthAdjust="spacing" textLength="14" x="493.5" y="525.4326">14</text><text fill="#000000" font-family="sans-serif" font-size="13" lengthAdjust="spacing" textLength="121" x="511.5" y="525.4326">toAuthorView(author)</text><polygon fill="#181818" points="497.5,557.9863,487.5,561.9863,497.5,565.9863,493.5,561.9863" style="stroke:#181818;stroke-width:1.0;"/><line style="stroke:#181818;stroke-width:1.0;stroke-dasharray:2.0,2.0;" x1="491.5" x2="1401.5" y1="561.9863" y2="561.9863"/><text fill="#000000" font-family="sans-serif" font-size="13" font-weight="bold" lengthAdjust="spacing" textLength="14" x="503.5" y="556.7236">15</text><text fill="#000000" font-family="sans-serif" font-size="13" lengthAdjust="spacing" textLength="64" x="521.5" y="556.7236">authorView</text><polygon fill="#181818" points="1493,589.2773,1503,593.2773,1493,597.2773,1497,593.2773" style="stroke:#181818;stroke-width:1.0;"/><line style="stroke:#181818;stroke-width:1.0;stroke-dasharray:2.0,2.0;" x1="486.5" x2="1499" y1="593.2773" y2="593.2773"/><text fill="#000000" font-family="sans-serif" font-size="13" font-weight="bold" lengthAdjust="spacing" textLength="14" x="493.5" y="588.0146">16</text><text fill="#000000" font-family="sans-serif" font-size="13" lengthAdjust="spacing" textLength="65" x="511.5" y="588.0146">create(200)</text><rect fill="#E2E2F0" height="32.6211" rx="2.5" ry="2.5" style="stroke:#181818;stroke-width:0.5;" width="118" x="1505" y="569.9863"/><text fill="#000000" font-family="sans-serif" font-size="14" lengthAdjust="spacing" textLength="104" x="1512" y="592.0938">result:HttpResult</text><polygon fill="#181818" points="253.5,632.8984,243.5,636.8984,253.5,640.8984,249.5,636.8984" style="stroke:#181818;stroke-width:1.0;"/><line style="stroke:#181818;stroke-width:1.0;stroke-dasharray:2.0,2.0;" x1="247.5" x2="480.5" y1="636.8984" y2="636.8984"/><text fill="#000000" font-family="sans-serif" font-size="13" font-weight="bold" lengthAdjust="spacing" textLength="14" x="259.5" y="631.6357">17</text><text fill="#000000" font-family="sans-serif" font-size="13" lengthAdjust="spacing" textLength="32" x="277.5" y="631.6357">result</text><line style="stroke:#181818;stroke-width:1.0;" x1="242.5" x2="289.5" y1="663.1895" y2="663.1895"/><line style="stroke:#181818;stroke-width:1.0;" x1="289.5" x2="289.5" y1="663.1895" y2="676.1895"/><line style="stroke:#181818;stroke-width:1.0;" x1="248.5" x2="289.5" y1="676.1895" y2="676.1895"/><polygon fill="#181818" points="258.5,672.1895,248.5,676.1895,258.5,680.1895,254.5,676.1895" style="stroke:#181818;stroke-width:1.0;"/><text fill="#000000" font-family="sans-serif" font-size="13" font-weight="bold" lengthAdjust="spacing" textLength="14" x="254.5" y="657.9268">18</text><text fill="#000000" font-family="sans-serif" font-size="13" lengthAdjust="spacing" textLength="152" x="272.5" y="657.9268">setHttpResult(resp, result)</text><polygon fill="#181818" points="94,708.4805,84,712.4805,94,716.4805,90,712.4805" style="stroke:#181818;stroke-width:1.0;"/><line style="stroke:#181818;stroke-width:1.0;stroke-dasharray:2.0,2.0;" x1="88" x2="231.5" y1="712.4805" y2="712.4805"/><text fill="#000000" font-family="sans-serif" font-size="13" font-weight="bold" lengthAdjust="spacing" textLength="14" x="100" y="707.2178">19</text><text fill="#000000" font-family="sans-serif" font-size="13" lengthAdjust="spacing" textLength="25" x="118" y="707.2178">resp</text><!--SRC=[ZP8xRzim481t_WeYIwd0YOEE70eqBWe7Q8h0ThCpuYKcAf4iUNBXVr- -94fkXcpt-Evzduw8rlFrsdP2uz1tjwtfrnx-3A1Rk95Al3dH4o86DA95TH88rEYaww5_0KU85GvLgsn8GAz-g1Sdd1AQRm-7fqsdGECL5PvMTHbm55fsuFZE30ZRhAI0_TaZz4kOVntmQDp6Q7Ic6yaDkcx9UN0drKB1zrdBMREyn1rOKzXT4Br2uyu9Z-gI5GahT6AokAHwOIsCrBE2lu_9CEEhyR8NFtJ8j-4kkoIMFg98mY768ypsIQfCRxwKnN7wzEkmpjrw9WMAXcHFPEBAE1rii4FkXxbuT8yhgkIAXYxCu5feI2Hhn1lWCpYlZFxkJF_m-YYmFMv1I71CpRKnS8eqlwTKvGOVgr_W61UFmUchqlB-_22PaWs9fbHaofaddeTDhfFeL2ouSJ2LtUMgx9s2yz3G_InZ3Xtx_nPsooHuvK2MvTG1RiF6VeeUMBEqxKC2l5U6DU-CwCK9M1xa8oDEEowESS-NZyOfccgR2bnY_oMChdhE_8hNrvosQO_iyztTxDhZz-K_dhtSwF20zRdZtksgmFL10rv_EkMov1y0]--></g></svg>