<?xml version="1.0" encoding="us-ascii" standalone="no"?><svg xmlns="http://www.w3.org/2000/svg" xmlns:xlink="http://www.w3.org/1999/xlink" contentStyleType="text/css" height="840px" preserveAspectRatio="none" style="width:829px;height:840px;background:#FFFFFF;" version="1.1" viewBox="0 0 829 840" width="829px" zoomAndPan="magnify"><defs/><g><!--class Author--><g id="elem_Author"><rect codeLine="6" fill="#F1F1F1" height="230.832" id="Author" rx="2.5" ry="2.5" style="stroke:#181818;stroke-width:0.5;" width="505" x="7" y="603"/><text fill="#000000" font-family="sans-serif" font-size="14" lengthAdjust="spacing" textLength="42" x="238.5" y="623.1074">Author</text><line style="stroke:#181818;stroke-width:0.5;" x1="8" x2="511" y1="631.6211" y2="631.6211"/><text fill="#000000" font-family="sans-serif" font-size="14" lengthAdjust="spacing" textLength="16" x="13" y="650.7285">-id</text><text fill="#000000" font-family="sans-serif" font-size="14" lengthAdjust="spacing" textLength="40" x="13" y="669.3496">-name</text><text fill="#000000" font-family="sans-serif" font-size="14" lengthAdjust="spacing" textLength="57" x="13" y="687.9707">-shortBio</text><text fill="#000000" font-family="sans-serif" font-size="14" lengthAdjust="spacing" textLength="64" x="13" y="706.5918">+getName</text><text fill="#000000" font-family="sans-serif" font-size="14" lengthAdjust="spacing" textLength="82" x="13" y="725.2129">+getShortBio</text><text fill="#000000" font-family="sans-serif" font-size="14" lengthAdjust="spacing" textLength="63" x="13" y="743.834">+setName</text><text fill="#000000" font-family="sans-serif" font-size="14" lengthAdjust="spacing" textLength="81" x="13" y="762.4551">+setShortBio</text><line style="stroke:#181818;stroke-width:0.5;" x1="8" x2="511" y1="769.9688" y2="769.9688"/><text fill="#000000" font-family="sans-serif" font-size="14" lengthAdjust="spacing" textLength="86" x="13" y="789.0762">+getVersion()</text><text fill="#000000" font-family="sans-serif" font-size="14" lengthAdjust="spacing" textLength="493" x="13" y="807.6973">+updateData(final long desiredVersion, final String name, final String shortBio)</text><text fill="#000000" font-family="sans-serif" font-size="14" lengthAdjust="spacing" textLength="147" x="13" y="826.3184">Author(name, shortBio)</text></g><!--class AuthorController--><g id="elem_AuthorController"><rect codeLine="19" fill="#F1F1F1" height="63.2422" id="AuthorController" rx="2.5" ry="2.5" style="stroke:#181818;stroke-width:0.5;" width="247" x="269" y="7"/><text fill="#000000" font-family="sans-serif" font-size="14" lengthAdjust="spacing" textLength="104" x="340.5" y="27.1074">AuthorController</text><line style="stroke:#181818;stroke-width:0.5;" x1="270" x2="515" y1="35.6211" y2="35.6211"/><line style="stroke:#181818;stroke-width:0.5;" x1="270" x2="515" y1="43.6211" y2="43.6211"/><text fill="#000000" font-family="sans-serif" font-size="14" lengthAdjust="spacing" textLength="235" x="275" y="62.7285">+updateAuthor(request, id, resource)</text></g><!--class AuthorServiceImpl--><g id="elem_AuthorServiceImpl"><rect codeLine="23" fill="#F1F1F1" height="81.8633" id="AuthorServiceImpl" rx="2.5" ry="2.5" style="stroke:#181818;stroke-width:0.5;" width="482" x="151.5" y="131"/><text fill="#000000" font-family="sans-serif" font-size="14" lengthAdjust="spacing" textLength="114" x="335.5" y="151.1074">AuthorServiceImpl</text><line style="stroke:#181818;stroke-width:0.5;" x1="152.5" x2="632.5" y1="159.6211" y2="159.6211"/><line style="stroke:#181818;stroke-width:0.5;" x1="152.5" x2="632.5" y1="167.6211" y2="167.6211"/><text fill="#000000" font-family="sans-serif" font-size="14" lengthAdjust="spacing" textLength="470" x="157.5" y="186.7285">+updateAuthor(id, resource, getVersionFromIfMatchHeader(ifMatchValue))</text><text fill="#000000" font-family="sans-serif" font-size="14" lengthAdjust="spacing" textLength="406" x="157.5" y="205.3496">+validateCreateAuthorRequest(final EditAuthorRequest request)</text></g><!--class AuthorViewMapper--><g id="elem_AuthorViewMapper"><rect codeLine="28" fill="#F1F1F1" height="63.2422" id="AuthorViewMapper" rx="2.5" ry="2.5" style="stroke:#181818;stroke-width:0.5;" width="154" x="668.5" y="140.5"/><text fill="#000000" font-family="sans-serif" font-size="14" lengthAdjust="spacing" textLength="119" x="686" y="160.6074">AuthorViewMapper</text><line style="stroke:#181818;stroke-width:0.5;" x1="669.5" x2="821.5" y1="169.1211" y2="169.1211"/><line style="stroke:#181818;stroke-width:0.5;" x1="669.5" x2="821.5" y1="177.1211" y2="177.1211"/><text fill="#000000" font-family="sans-serif" font-size="14" lengthAdjust="spacing" textLength="142" x="674.5" y="196.2285">+toAuthorView(author)</text></g><!--class EditAuthorMapper--><g id="elem_EditAuthorMapper"><rect codeLine="33" fill="#F1F1F1" height="63.2422" id="EditAuthorMapper" rx="2.5" ry="2.5" style="stroke:#181818;stroke-width:0.5;" width="126" x="279.5" y="274"/><text fill="#000000" font-family="sans-serif" font-size="14" lengthAdjust="spacing" textLength="114" x="285.5" y="294.1074">EditAuthorMapper</text><line style="stroke:#181818;stroke-width:0.5;" x1="280.5" x2="404.5" y1="302.6211" y2="302.6211"/><line style="stroke:#181818;stroke-width:0.5;" x1="280.5" x2="404.5" y1="310.6211" y2="310.6211"/><text fill="#000000" font-family="sans-serif" font-size="14" lengthAdjust="spacing" textLength="114" x="285.5" y="329.7285">+create(resource)</text></g><!--class AuthorRepository--><g id="elem_AuthorRepository"><rect codeLine="38" fill="#F1F1F1" height="63.2422" id="AuthorRepository" rx="2.5" ry="2.5" style="stroke:#181818;stroke-width:0.5;" width="116" x="409.5" y="367"/><text fill="#000000" font-family="sans-serif" font-size="14" lengthAdjust="spacing" textLength="110" x="412.5" y="387.1074">AuthorRepository</text><line style="stroke:#181818;stroke-width:0.5;" x1="410.5" x2="524.5" y1="395.6211" y2="395.6211"/><line style="stroke:#181818;stroke-width:0.5;" x1="410.5" x2="524.5" y1="403.6211" y2="403.6211"/><text fill="#000000" font-family="sans-serif" font-size="14" lengthAdjust="spacing" textLength="89" x="415.5" y="422.7285">+save(author)</text></g><!--class EditAuthorRequest--><g id="elem_EditAuthorRequest"><rect codeLine="43" fill="#F1F1F1" height="81.8633" id="EditAuthorRequest" rx="2.5" ry="2.5" style="stroke:#181818;stroke-width:0.5;" width="125" x="274" y="460"/><text fill="#000000" font-family="sans-serif" font-size="14" lengthAdjust="spacing" textLength="119" x="277" y="480.1074">EditAuthorRequest</text><line style="stroke:#181818;stroke-width:0.5;" x1="275" x2="398" y1="488.6211" y2="488.6211"/><text fill="#000000" font-family="sans-serif" font-size="14" lengthAdjust="spacing" textLength="40" x="280" y="507.7285">-name</text><text fill="#000000" font-family="sans-serif" font-size="14" lengthAdjust="spacing" textLength="57" x="280" y="526.3496">-shortBio</text><line style="stroke:#181818;stroke-width:0.5;" x1="275" x2="398" y1="533.8633" y2="533.8633"/></g><!--link AuthorController to AuthorServiceImpl--><g id="link_AuthorController_AuthorServiceImpl"><path codeLine="49" d="M392.5,70.33 C392.5,88.4 392.5,105.42 392.5,124.89 " fill="none" id="AuthorController-to-AuthorServiceImpl" style="stroke:#181818;stroke-width:1.0;stroke-dasharray:7.0,7.0;"/><polygon fill="#181818" points="392.5,130.89,396.5,121.89,392.5,125.89,388.5,121.89,392.5,130.89" style="stroke:#181818;stroke-width:1.0;"/></g><!--link AuthorServiceImpl to EditAuthorMapper--><g id="link_AuthorServiceImpl_EditAuthorMapper"><path codeLine="50" d="M377.23,213.17 C369.82,232.66 363.1922,250.0816 356.3222,268.1516 " fill="none" id="AuthorServiceImpl-to-EditAuthorMapper" style="stroke:#181818;stroke-width:1.0;stroke-dasharray:7.0,7.0;"/><polygon fill="#181818" points="354.19,273.76,361.1272,266.769,355.9669,269.0864,353.6494,263.926,354.19,273.76" style="stroke:#181818;stroke-width:1.0;"/></g><!--link AuthorServiceImpl to AuthorRepository--><g id="link_AuthorServiceImpl_AuthorRepository"><path codeLine="51" d="M405.91,213.14 C420.61,257.15 441.9888,321.1292 455.3188,361.0292 " fill="none" id="AuthorServiceImpl-to-AuthorRepository" style="stroke:#181818;stroke-width:1.0;stroke-dasharray:7.0,7.0;"/><polygon fill="#181818" points="457.22,366.72,458.1621,356.9163,455.6357,361.9777,450.5743,359.4513,457.22,366.72" style="stroke:#181818;stroke-width:1.0;"/></g><!--link AuthorController to AuthorViewMapper--><g id="link_AuthorController_AuthorViewMapper"><path codeLine="52" d="M482.82,70.1 C532.55,87.31 595.22,109.58 650.5,131 C658.18,133.97 660.6047,134.9031 668.5447,138.1431 " fill="none" id="AuthorController-to-AuthorViewMapper" style="stroke:#181818;stroke-width:1.0;stroke-dasharray:7.0,7.0;"/><polygon fill="#181818" points="674.1,140.41,667.2783,133.3061,669.4706,138.5209,664.2558,140.7132,674.1,140.41" style="stroke:#181818;stroke-width:1.0;"/></g><!--link EditAuthorMapper to EditAuthorRequest--><g id="link_EditAuthorMapper_EditAuthorRequest"><path codeLine="53" d="M341.55,337.16 C340.52,370.3 339.0658,417.2629 337.9358,453.7429 " fill="none" id="EditAuthorMapper-to-EditAuthorRequest" style="stroke:#181818;stroke-width:1.0;stroke-dasharray:7.0,7.0;"/><polygon fill="#181818" points="337.75,459.74,342.0267,450.8682,337.9048,454.7424,334.0306,450.6205,337.75,459.74" style="stroke:#181818;stroke-width:1.0;"/></g><!--link AuthorController to Author--><g id="link_AuthorController_Author"><path codeLine="54" d="M268.67,47.4 C188.32,60.05 98.5,91.88 98.5,171 C98.5,171 98.5,171 98.5,502 C98.5,538.54 110.1167,567.9524 131.0067,598.0224 " fill="none" id="AuthorController-to-Author" style="stroke:#181818;stroke-width:1.0;stroke-dasharray:7.0,7.0;"/><polygon fill="#181818" points="134.43,602.95,132.5802,593.2764,131.5773,598.8437,126.01,597.8408,134.43,602.95" style="stroke:#181818;stroke-width:1.0;"/></g><!--link AuthorServiceImpl to Author--><g id="link_AuthorServiceImpl_Author"><path codeLine="55" d="M317.59,213.24 C295.54,229.08 274,249.43 261.5,274 C209.58,376.09 216.345,503.3614 231.935,597.0414 " fill="none" id="AuthorServiceImpl-to-Author" style="stroke:#181818;stroke-width:1.0;stroke-dasharray:7.0,7.0;"/><polygon fill="#181818" points="232.92,602.96,235.3883,593.4255,232.0992,598.0278,227.4968,594.7387,232.92,602.96" style="stroke:#181818;stroke-width:1.0;"/></g><!--link EditAuthorRequest to Author--><g id="link_EditAuthorRequest_Author"><path codeLine="56" d="M322.2,542.03 C315.98,559.43 310.3577,575.1594 302.5877,596.9194 " fill="none" id="EditAuthorRequest-to-Author" style="stroke:#181818;stroke-width:1.0;stroke-dasharray:7.0,7.0;"/><polygon fill="#181818" points="300.57,602.57,307.3636,595.4393,302.2514,597.8612,299.8295,592.749,300.57,602.57" style="stroke:#181818;stroke-width:1.0;"/></g><!--link AuthorRepository to Author--><g id="link_AuthorRepository_Author"><path codeLine="57" d="M460.21,430.19 C452.27,460.11 437.8,506.21 416.5,542 C404.06,562.9 392.7236,578.9297 376.8136,598.3397 " fill="none" id="AuthorRepository-to-Author" style="stroke:#181818;stroke-width:1.0;"/><polygon fill="#181818" points="373.01,602.98,381.8089,598.5552,376.1797,599.1131,375.6218,593.4838,373.01,602.98" style="stroke:#181818;stroke-width:1.0;"/><text fill="#000000" font-family="sans-serif" font-size="13" lengthAdjust="spacing" textLength="43" x="452.5" y="506.5283">records</text><text fill="#000000" font-family="sans-serif" font-size="13" lengthAdjust="spacing" textLength="7" x="450.9846" y="452.5125">1</text><text fill="#000000" font-family="sans-serif" font-size="13" lengthAdjust="spacing" textLength="20" x="359.9646" y="591.6911">0..*</text></g><!--SRC=[VLBBRi8m4BpxAomk3Iq4UkM0H6chSg07aBXlxGMiEd5gRwXQr7-loOEyK7AoTsPdPzQvEn8bRZQP91fYIYCT2XDDX0RdnbB1mKB4s559v49PeP6vJnKduCiy8os8hFf82LV2n5lrYtpAM8RmHKf7Oy-C-s_CbImECKHO79t7wKcPxFh03qWxj4wPE1XMfVUIdzsspHRNm5q7JnC9XCz04EnL39fh4n-uHASiocBOYEVGrYVnuCLVgrJwp5tbkOASLq5_pTnB4vCrMgDbvuQPejtYLugEHdun8sxHcTGAlAZKHRPeJqhWAahqRPLwywYsm5ThejL-3IIERmWIFJE_xK2dE2pNUmAjBcfBYrVDJMwisDUBLDIeyy9us-fEuVSQagIMbqm51P0TQskgb5jj8ZCJr7VIcBJ1n3X5nlvSMnoSi6z2uPsTU_v1tzP-EHw6ynilqQbal4wUsxHEXfwXjPssrLiZou0zOhr-MFUTEvsLPpvu7F3nUCu7qp2y7nIqcVyrXB7IiNy0]--></g></svg>