<?xml version="1.0" encoding="us-ascii" standalone="no"?><svg xmlns="http://www.w3.org/2000/svg" xmlns:xlink="http://www.w3.org/1999/xlink" contentStyleType="text/css" height="981px" preserveAspectRatio="none" style="width:938px;height:981px;background:#FFFFFF;" version="1.1" viewBox="0 0 938 981" width="938px" zoomAndPan="magnify"><defs/><g><!--class LendingController--><g id="elem_LendingController"><rect codeLine="6" fill="#F1F1F1" height="63.2422" id="LendingController" rx="2.5" ry="2.5" style="stroke:#181818;stroke-width:0.5;" width="341" x="287.5" y="7"/><text fill="#000000" font-family="sans-serif" font-size="14" lengthAdjust="spacing" textLength="113" x="401.5" y="27.1074">LendingController</text><line style="stroke:#181818;stroke-width:0.5;" x1="288.5" x2="627.5" y1="35.6211" y2="35.6211"/><line style="stroke:#181818;stroke-width:0.5;" x1="288.5" x2="627.5" y1="43.6211" y2="43.6211"/><text fill="#000000" font-family="sans-serif" font-size="14" lengthAdjust="spacing" textLength="329" x="293.5" y="62.7285">+getOverdue(page: int, size: int): List&lt;LendingView&gt;</text></g><!--class LendingServiceImpl--><g id="elem_LendingServiceImpl"><rect codeLine="10" fill="#F1F1F1" height="63.2422" id="LendingServiceImpl" rx="2.5" ry="2.5" style="stroke:#181818;stroke-width:0.5;" width="398" x="7" y="158.5"/><text fill="#000000" font-family="sans-serif" font-size="14" lengthAdjust="spacing" textLength="123" x="144.5" y="178.6074">LendingServiceImpl</text><line style="stroke:#181818;stroke-width:0.5;" x1="8" x2="404" y1="187.1211" y2="187.1211"/><line style="stroke:#181818;stroke-width:0.5;" x1="8" x2="404" y1="195.1211" y2="195.1211"/><text fill="#000000" font-family="sans-serif" font-size="14" lengthAdjust="spacing" textLength="386" x="13" y="214.2285">+getOverdueLendings(pageable: Pageable): Page&lt;Lending&gt;</text></g><!--class LendingRepository--><g id="elem_LendingRepository"><rect codeLine="14" fill="#F1F1F1" height="79.2031" id="LendingRepository" rx="2.5" ry="2.5" style="stroke:#181818;stroke-width:0.5;" width="401" x="54.5" y="386"/><text fill="#000000" font-family="sans-serif" font-size="12" font-style="italic" lengthAdjust="spacing" textLength="61" x="224.5" y="403.9492">&#171;interface&#187;</text><text fill="#000000" font-family="sans-serif" font-size="14" font-style="italic" lengthAdjust="spacing" textLength="119" x="195.5" y="422.0684">LendingRepository</text><line style="stroke:#181818;stroke-width:0.5;" x1="55.5" x2="454.5" y1="430.582" y2="430.582"/><line style="stroke:#181818;stroke-width:0.5;" x1="55.5" x2="454.5" y1="438.582" y2="438.582"/><text fill="#000000" font-family="sans-serif" font-size="14" lengthAdjust="spacing" textLength="389" x="60.5" y="457.6895">+findOverdueLendings(pageable: Pageable): Page&lt;Lending&gt;</text></g><!--class Lending--><g id="elem_Lending"><rect codeLine="18" fill="#F1F1F1" height="249.4531" id="Lending" rx="2.5" ry="2.5" style="stroke:#181818;stroke-width:0.5;" width="160" x="405" y="620"/><text fill="#000000" font-family="sans-serif" font-size="14" lengthAdjust="spacing" textLength="51" x="459.5" y="640.1074">Lending</text><line style="stroke:#181818;stroke-width:0.5;" x1="406" x2="564" y1="648.6211" y2="648.6211"/><text fill="#000000" font-family="sans-serif" font-size="14" lengthAdjust="spacing" textLength="56" x="411" y="667.7285">-id: Long</text><text fill="#000000" font-family="sans-serif" font-size="14" lengthAdjust="spacing" textLength="130" x="411" y="686.3496">-lendingCode: String</text><text fill="#000000" font-family="sans-serif" font-size="14" lengthAdjust="spacing" textLength="86" x="411" y="704.9707">-version: long</text><text fill="#000000" font-family="sans-serif" font-size="14" lengthAdjust="spacing" textLength="98" x="411" y="723.5918">-readerId: Long</text><text fill="#000000" font-family="sans-serif" font-size="14" lengthAdjust="spacing" textLength="87" x="411" y="742.2129">-bookId: Long</text><text fill="#000000" font-family="sans-serif" font-size="14" lengthAdjust="spacing" textLength="108" x="411" y="760.834">-bookTitle: String</text><text fill="#000000" font-family="sans-serif" font-size="14" lengthAdjust="spacing" textLength="148" x="411" y="779.4551">-daysTillReturn: Integer</text><text fill="#000000" font-family="sans-serif" font-size="14" lengthAdjust="spacing" textLength="142" x="411" y="798.0762">-daysOverdue: Integer</text><text fill="#000000" font-family="sans-serif" font-size="14" lengthAdjust="spacing" textLength="68" x="411" y="816.6973">-fine: Float</text><text fill="#000000" font-family="sans-serif" font-size="14" lengthAdjust="spacing" textLength="118" x="411" y="835.3184">-returned: boolean</text><text fill="#000000" font-family="sans-serif" font-size="14" lengthAdjust="spacing" textLength="107" x="411" y="853.9395">-comment: String</text><line style="stroke:#181818;stroke-width:0.5;" x1="406" x2="564" y1="861.4531" y2="861.4531"/></g><!--class LendingView--><g id="elem_LendingView"><rect codeLine="32" fill="#F1F1F1" height="230.832" id="LendingView" rx="2.5" ry="2.5" style="stroke:#181818;stroke-width:0.5;" width="160" x="499" y="310"/><text fill="#000000" font-family="sans-serif" font-size="14" lengthAdjust="spacing" textLength="80" x="539" y="330.1074">LendingView</text><line style="stroke:#181818;stroke-width:0.5;" x1="500" x2="658" y1="338.6211" y2="338.6211"/><text fill="#000000" font-family="sans-serif" font-size="14" lengthAdjust="spacing" textLength="56" x="505" y="357.7285">-id: Long</text><text fill="#000000" font-family="sans-serif" font-size="14" lengthAdjust="spacing" textLength="130" x="505" y="376.3496">-lendingCode: String</text><text fill="#000000" font-family="sans-serif" font-size="14" lengthAdjust="spacing" textLength="98" x="505" y="394.9707">-readerId: Long</text><text fill="#000000" font-family="sans-serif" font-size="14" lengthAdjust="spacing" textLength="87" x="505" y="413.5918">-bookId: Long</text><text fill="#000000" font-family="sans-serif" font-size="14" lengthAdjust="spacing" textLength="108" x="505" y="432.2129">-bookTitle: String</text><text fill="#000000" font-family="sans-serif" font-size="14" lengthAdjust="spacing" textLength="148" x="505" y="450.834">-daysTillReturn: Integer</text><text fill="#000000" font-family="sans-serif" font-size="14" lengthAdjust="spacing" textLength="142" x="505" y="469.4551">-daysOverdue: Integer</text><text fill="#000000" font-family="sans-serif" font-size="14" lengthAdjust="spacing" textLength="68" x="505" y="488.0762">-fine: Float</text><text fill="#000000" font-family="sans-serif" font-size="14" lengthAdjust="spacing" textLength="118" x="505" y="506.6973">-returned: boolean</text><text fill="#000000" font-family="sans-serif" font-size="14" lengthAdjust="spacing" textLength="107" x="505" y="525.3184">-comment: String</text><line style="stroke:#181818;stroke-width:0.5;" x1="500" x2="658" y1="532.832" y2="532.832"/></g><!--class LendingViewMapper--><g id="elem_LendingViewMapper"><rect codeLine="45" fill="#F1F1F1" height="81.8633" id="LendingViewMapper" rx="2.5" ry="2.5" style="stroke:#181818;stroke-width:0.5;" width="420" x="511" y="149"/><text fill="#000000" font-family="sans-serif" font-size="14" lengthAdjust="spacing" textLength="128" x="657" y="169.1074">LendingViewMapper</text><line style="stroke:#181818;stroke-width:0.5;" x1="512" x2="930" y1="177.6211" y2="177.6211"/><line style="stroke:#181818;stroke-width:0.5;" x1="512" x2="930" y1="185.6211" y2="185.6211"/><text fill="#000000" font-family="sans-serif" font-size="14" lengthAdjust="spacing" textLength="303" x="517" y="204.7285">+toLendingView(lending: Lending): LendingView</text><text fill="#000000" font-family="sans-serif" font-size="14" lengthAdjust="spacing" textLength="408" x="517" y="223.3496">+toLendingViewList(lendings: List&lt;Lending&gt;): List&lt;LendingView&gt;</text></g><!--class lendDate--><g id="elem_lendDate"><rect fill="#F1F1F1" height="44.6211" id="lendDate" rx="2.5" ry="2.5" style="stroke:#181818;stroke-width:0.5;" width="63" x="341.5" y="930"/><text fill="#000000" font-family="sans-serif" font-size="14" lengthAdjust="spacing" textLength="57" x="344.5" y="950.1074">lendDate</text><line style="stroke:#181818;stroke-width:0.5;" x1="342.5" x2="403.5" y1="958.6211" y2="958.6211"/><line style="stroke:#181818;stroke-width:0.5;" x1="342.5" x2="403.5" y1="966.6211" y2="966.6211"/></g><!--class returnedDate--><g id="elem_returnedDate"><rect fill="#F1F1F1" height="44.6211" id="returnedDate" rx="2.5" ry="2.5" style="stroke:#181818;stroke-width:0.5;" width="90" x="440" y="930"/><text fill="#000000" font-family="sans-serif" font-size="14" lengthAdjust="spacing" textLength="84" x="443" y="950.1074">returnedDate</text><line style="stroke:#181818;stroke-width:0.5;" x1="441" x2="529" y1="958.6211" y2="958.6211"/><line style="stroke:#181818;stroke-width:0.5;" x1="441" x2="529" y1="966.6211" y2="966.6211"/></g><!--class limitDate--><g id="elem_limitDate"><rect fill="#F1F1F1" height="44.6211" id="limitDate" rx="2.5" ry="2.5" style="stroke:#181818;stroke-width:0.5;" width="60" x="565" y="930"/><text fill="#000000" font-family="sans-serif" font-size="14" lengthAdjust="spacing" textLength="54" x="568" y="950.1074">limitDate</text><line style="stroke:#181818;stroke-width:0.5;" x1="566" x2="624" y1="958.6211" y2="958.6211"/><line style="stroke:#181818;stroke-width:0.5;" x1="566" x2="624" y1="966.6211" y2="966.6211"/></g><!--link LendingController to LendingServiceImpl--><g id="link_LendingController_LendingServiceImpl"><path codeLine="50" d="M406.4,70.11 C362.91,95.91 306.1599,129.578 262.6999,155.368 " fill="none" id="LendingController-to-LendingServiceImpl" style="stroke:#181818;stroke-width:1.0;stroke-dasharray:7.0,7.0;"/><polygon fill="#181818" points="257.54,158.43,267.3211,157.277,261.8399,155.8784,263.2385,150.3971,257.54,158.43" style="stroke:#181818;stroke-width:1.0;"/><text fill="#000000" font-family="sans-serif" font-size="13" lengthAdjust="spacing" textLength="28" x="356" y="115.0283">uses</text></g><!--link LendingServiceImpl to LendingRepository--><g id="link_LendingServiceImpl_LendingRepository"><path codeLine="51" d="M212.41,221.53 C221.25,263.68 235.978,333.8479 245.648,379.9379 " fill="none" id="LendingServiceImpl-to-LendingRepository" style="stroke:#181818;stroke-width:1.0;stroke-dasharray:7.0,7.0;"/><polygon fill="#181818" points="246.88,385.81,248.9467,376.1804,245.8533,380.9165,241.1172,377.8231,246.88,385.81" style="stroke:#181818;stroke-width:1.0;"/><text fill="#000000" font-family="sans-serif" font-size="13" lengthAdjust="spacing" textLength="28" x="226" y="276.0283">uses</text></g><!--link LendingRepository to Lending--><g id="link_LendingRepository_Lending"><path codeLine="52" d="M282.97,465.05 C313.14,506.63 359.026,569.884 401.436,628.324 " fill="none" id="LendingRepository-to-Lending" style="stroke:#181818;stroke-width:1.0;stroke-dasharray:7.0,7.0;"/><polygon fill="#181818" points="404.96,633.18,402.9113,623.5466,402.0233,629.1333,396.4366,628.2453,404.96,633.18" style="stroke:#181818;stroke-width:1.0;"/><text fill="#000000" font-family="sans-serif" font-size="13" lengthAdjust="spacing" textLength="56" x="371" y="586.0283">accesses</text></g><!--link LendingController to LendingView--><g id="link_LendingController_LendingView"><path codeLine="53" d="M461.33,70.22 C466,108.49 475.9,175.62 493,231 C501.05,257.08 509.2932,278.8008 520.3032,304.3208 " fill="none" id="LendingController-to-LendingView" style="stroke:#181818;stroke-width:1.0;stroke-dasharray:7.0,7.0;"/><polygon fill="#181818" points="522.68,309.83,522.7876,299.9817,520.6993,305.239,515.442,303.1508,522.68,309.83" style="stroke:#181818;stroke-width:1.0;"/></g><!--link LendingController to LendingViewMapper--><g id="link_LendingController_LendingViewMapper"><path codeLine="54" d="M511.86,70.11 C551.83,92.84 601.5039,121.0748 645.0239,145.8148 " fill="none" id="LendingController-to-LendingViewMapper" style="stroke:#181818;stroke-width:1.0;stroke-dasharray:7.0,7.0;"/><polygon fill="#181818" points="650.24,148.78,644.3927,140.8548,645.8933,146.309,640.4391,147.8096,650.24,148.78" style="stroke:#181818;stroke-width:1.0;"/><text fill="#000000" font-family="sans-serif" font-size="13" lengthAdjust="spacing" textLength="28" x="598" y="115.0283">uses</text></g><!--link LendingViewMapper to Lending--><g id="link_LendingViewMapper_Lending"><path codeLine="55" d="M723.81,231.01 C726.88,298.44 725.98,437.48 677,541 C651.31,595.3 609.925,640.502 569.475,676.812 " fill="none" id="LendingViewMapper-to-Lending" style="stroke:#181818;stroke-width:1.0;stroke-dasharray:7.0,7.0;"/><polygon fill="#181818" points="565.01,680.82,574.3795,677.7847,568.7308,677.48,569.0355,671.8314,565.01,680.82" style="stroke:#181818;stroke-width:1.0;"/></g><!--link LendingViewMapper to LendingView--><g id="link_LendingViewMapper_LendingView"><path codeLine="56" d="M696.59,231.14 C683.23,253.11 669.0484,276.434 651.8384,304.724 " fill="none" id="LendingViewMapper-to-LendingView" style="stroke:#181818;stroke-width:1.0;stroke-dasharray:7.0,7.0;"/><polygon fill="#181818" points="648.72,309.85,656.8149,304.2399,651.3186,305.5783,649.9802,300.0821,648.72,309.85" style="stroke:#181818;stroke-width:1.0;"/></g><!--reverse link Lending to lendDate--><g id="link_Lending_lendDate"><path codeLine="58" d="M412.0173,879.7421 C399.2873,903.1521 393.1,914.53 384.77,929.86 " fill="none" id="Lending-backto-lendDate" style="stroke:#181818;stroke-width:1.0;"/><polygon fill="#181818" points="417.75,869.2,411.3696,872.5602,412.0173,879.7421,418.3977,876.382,417.75,869.2" style="stroke:#181818;stroke-width:1.0;"/><text fill="#000000" font-family="sans-serif" font-size="13" lengthAdjust="spacing" textLength="7" x="406.4387" y="891.3403">1</text><text fill="#000000" font-family="sans-serif" font-size="13" lengthAdjust="spacing" textLength="7" x="379.9926" y="918.6095">1</text></g><!--reverse link Lending to returnedDate--><g id="link_Lending_returnedDate"><path codeLine="59" d="M485,881.2 C485,904.61 485,914.53 485,929.86 " fill="none" id="Lending-backto-returnedDate" style="stroke:#181818;stroke-width:1.0;"/><polygon fill="#181818" points="485,869.2,481,875.2,485,881.2,489,875.2,485,869.2" style="stroke:#181818;stroke-width:1.0;"/><text fill="#000000" font-family="sans-serif" font-size="13" lengthAdjust="spacing" textLength="7" x="477.7867" y="891.3403">1</text><text fill="#000000" font-family="sans-serif" font-size="13" lengthAdjust="spacing" textLength="7" x="477.0594" y="918.6095">1</text></g><!--reverse link Lending to limitDate--><g id="link_Lending_limitDate"><path codeLine="60" d="M556.7022,879.7855 C569.2022,903.1955 575.26,914.53 583.44,929.86 " fill="none" id="Lending-backto-limitDate" style="stroke:#181818;stroke-width:1.0;"/><polygon fill="#181818" points="551.05,869.2,550.3476,876.3768,556.7022,879.7855,557.4046,872.6087,551.05,869.2" style="stroke:#181818;stroke-width:1.0;"/><text fill="#000000" font-family="sans-serif" font-size="13" lengthAdjust="spacing" textLength="7" x="547.8616" y="891.3403">1</text><text fill="#000000" font-family="sans-serif" font-size="13" lengthAdjust="spacing" textLength="7" x="572.3926" y="918.6095">1</text></g><!--SRC=[tLF1Rjim3BthAuHUrcnDibsDm43HeK205XkQOdT5ObsYicH8T8TksB-FqMHNpjmDsx6-cEPxV4-anJVtH5sirklEAaTzQrVQjsjjLOnBWwe9gXNY7Wr8ZK5R4F41NQSuBHFfd2ZWlYVOQkzs-0taUo4I8g_06NJDXNSKlBKGv7SX-Nad6w1FZn1C3wUTQg2IwEXCHgvEuQAILnXfamM-87ojnOyZsHs4HzImRJixevj9CUchlMNXppbQ_0e7zQJCfX3kb8P1_GOw7v5yU9ARpOZMzMXrXyxydzUaYwotb6YuQU-Q_6c7sHbMs_68HuGz8tfNIVlC3g0CXErKOk_zmqpg5iaUQnhr56_HsXkWFh3qbXjk81HeRlKOuYbmxj9wHUDH3XB0lcncGRcSvrlLWgFH-7WGXv_yxyDu9OrVgwuhreDyWPtcxgkXO56LfNCbX-KPok9qb-gNTkltPLsjwhbTgsGV8OePf2WercVABu22pYIbDSI2E7-GrF5V6NcSK-S2AEX_HfFTG94d7qxas-KolG_J_QW8Pi7XAhn8iDWY9LJy1000]--></g></svg>